<?xml version="1.0" standalone="no"?>
<!DOCTYPE svg PUBLIC "-//W3C//DTD SVG 20010904//EN"
 "http://www.w3.org/TR/2001/REC-SVG-20010904/DTD/svg10.dtd">
<svg version="1.0" xmlns="http://www.w3.org/2000/svg"
 width="960.000000pt" height="960.000000pt" viewBox="0 0 960.000000 960.000000"
 preserveAspectRatio="xMidYMid meet">
<metadata>
Created by potrace 1.14, written by Peter Selinger 2001-2017
</metadata>
<g transform="translate(0.000000,960.000000) scale(0.100000,-0.100000)"
fill="#000000" stroke="none">
<path d="M4970 8392 c-71 -24 -122 -45 -133 -56 -6 -7 -20 -17 -30 -22 -39
-22 -130 -121 -181 -198 -89 -134 -174 -330 -235 -539 -36 -123 -88 -333 -96
-390 -4 -23 -8 -44 -10 -47 -2 -3 -6 -23 -9 -45 -4 -22 -13 -78 -21 -125 -14
-84 -20 -128 -29 -205 -3 -22 -7 -56 -10 -75 -4 -31 -12 -100 -21 -185 -3 -28
-8 -105 -21 -300 -6 -94 -27 -143 -87 -198 -36 -31 -264 -191 -319 -222 -54
-31 -143 -90 -146 -97 -2 -4 -8 -8 -13 -8 -5 0 -41 -22 -81 -48 -40 -27 -127
-84 -193 -127 -133 -88 -200 -140 -259 -200 -111 -114 -184 -258 -190 -372 -1
-12 -4 -24 -7 -27 -10 -10 0 -133 16 -203 21 -91 92 -232 160 -317 l55 -70
-92 -31 c-354 -121 -605 -267 -794 -460 -145 -149 -214 -295 -219 -465 -3 -89
13 -205 34 -255 5 -11 19 -46 31 -77 97 -253 376 -466 690 -527 97 -19 124
-22 205 -26 l80 -4 17 -46 c40 -112 142 -278 297 -485 170 -228 283 -318 466
-369 104 -30 280 -32 410 -6 159 32 391 127 506 206 29 20 17 27 121 -67 18
-16 78 -65 133 -109 216 -172 356 -259 530 -328 247 -98 463 -85 620 37 38 29
48 40 110 111 39 44 110 197 138 295 14 47 31 127 38 178 11 77 16 92 28 86
43 -16 164 -36 231 -36 395 -4 655 263 745 765 18 102 13 303 -10 402 -9 39
-18 79 -19 90 -2 11 -5 21 -6 23 -1 1 -3 5 -4 10 -12 55 -93 254 -136 337 -92
175 -247 405 -355 529 -5 6 -39 45 -74 86 -99 115 -370 382 -479 472 l-33 28
58 -7 c163 -19 289 1 363 56 53 39 68 60 89 126 49 157 -21 389 -224 735 -97
165 -329 483 -457 625 -67 75 -82 94 -119 148 -57 81 -124 229 -171 372 -43
132 -167 591 -184 681 -11 61 -109 388 -145 486 -93 254 -195 398 -327 463
-46 23 -72 29 -137 31 -44 1 -87 -1 -95 -4z"/>
</g>
</svg>
