<svg width="143" height="100" viewBox="0 0 143 100" fill="none" xmlns="http://www.w3.org/2000/svg">
<path d="M49.0583 3.55514C50.903 1.59169 53.9901 1.49543 55.9536 3.34013L105.133 49.5452C107.096 51.3899 107.193 54.477 105.348 56.4405L81.1321 82.2152C79.2874 84.1787 76.2003 84.2749 74.2368 82.4302L25.0574 36.2252C23.094 34.3805 22.9977 31.2933 24.8424 29.3299L49.0583 3.55514Z" fill="#2BB560"/>
<path fill-rule="evenodd" clip-rule="evenodd" d="M104.576 50.1377L55.3969 3.93265C53.7607 2.3954 51.1881 2.47562 49.6508 4.11183L25.4349 29.8866C23.8977 31.5228 23.9779 34.0954 25.6141 35.6326L74.7935 81.8377C76.4297 83.375 79.0023 83.2947 80.5396 81.6585L104.755 55.8838C106.293 54.2476 106.213 51.675 104.576 50.1377ZM55.9536 3.34013C53.9901 1.49543 50.903 1.59169 49.0583 3.55514L24.8424 29.3299C22.9977 31.2933 23.094 34.3805 25.0574 36.2252L74.2368 82.4302C76.2003 84.2749 79.2874 84.1787 81.1321 82.2152L105.348 56.4405C107.193 54.477 107.096 51.3899 105.133 49.5452L55.9536 3.34013Z" fill="#111111"/>
<path d="M59.1749 14.167C54.6101 19.0257 49.5127 16.3376 47.5347 14.3862L35.9834 26.681C40.4866 30.9119 38.1046 36.2968 36.3507 38.4604L70.7171 70.7483C74.3912 66.8377 80.1997 68.9668 82.6446 70.5202L94.1959 58.2253C89.6927 53.9945 91.8831 48.6155 93.5413 46.4549L59.1749 14.167Z" fill="#0E753E"/>
<path d="M74.8247 50.9173C70.136 55.9077 62.2896 56.1524 57.2992 51.4638C52.3088 46.7752 52.0641 38.9288 56.7527 33.9383C61.4413 28.9479 69.2877 28.7032 74.2782 33.3918C79.2686 38.0804 79.5133 45.9269 74.8247 50.9173Z" fill="#A6D8BB"/>
<path d="M52.3145 29.7685C50.7004 31.4865 47.9992 31.5707 46.2812 29.9566C44.5631 28.3425 44.4789 25.6413 46.093 23.9232C47.7071 22.2052 50.4084 22.121 52.1264 23.7351C53.8444 25.3492 53.9286 28.0504 52.3145 29.7685Z" fill="#A6D8BB"/>
<path d="M84.9004 60.3857C83.2863 62.1037 80.5851 62.1879 78.8671 60.5738C77.1491 58.9597 77.0648 56.2585 78.679 54.5404C80.2931 52.8224 82.9943 52.7382 84.7123 54.3523C86.4303 55.9664 86.5146 58.6676 84.9004 60.3857Z" fill="#A6D8BB"/>
<path fill-rule="evenodd" clip-rule="evenodd" d="M71.5552 37.5266L70.3701 36.4133L69.4077 37.4376C68.8816 37.0474 68.3383 36.7729 67.778 36.6141C67.1471 36.4353 66.5401 36.4206 65.9568 36.5698C65.3772 36.7152 64.8699 37.0194 64.435 37.4823C63.3586 38.628 63.4046 40.1019 64.5729 41.904L64.8342 42.3056L62.759 44.5143C62.5102 44.1653 62.3707 43.809 62.3405 43.4452C62.3082 43.0081 62.4488 42.5956 62.7625 42.2076L61.0729 40.6202C60.3132 41.4752 59.9803 42.3861 60.0741 43.353C60.1616 44.2558 60.5913 45.1381 61.3632 46L60.3497 47.0787L61.5348 48.192L62.5614 47.0994C63.0802 47.4877 63.598 47.7622 64.1146 47.9227C64.7535 48.1162 65.359 48.1404 65.9311 47.9953C66.5069 47.8462 67.0213 47.5306 67.4743 47.0484C68.0902 46.3852 68.3611 45.6447 68.2869 44.8269C68.2163 44.0053 67.8767 43.1416 67.2681 42.2356L67.2119 42.1495L69.1654 40.0702C69.291 40.2995 69.3622 40.5313 69.3791 40.7656C69.413 41.1315 69.3075 41.4718 69.0627 41.7865L70.7292 43.3522C71.1564 42.882 71.4264 42.355 71.5392 41.7711C71.6521 41.1871 71.5998 40.5896 71.3822 39.9786C71.2121 39.4893 70.9441 39.0186 70.5784 38.5663L71.5552 37.5266ZM63.9883 45.5806L65.7196 43.7378C65.8667 44.0352 65.9555 44.2985 65.9859 44.528C66.0338 44.8635 65.9436 45.1528 65.7153 45.3958C65.4616 45.6658 65.1436 45.7956 64.7613 45.785C64.5072 45.778 64.2495 45.7099 63.9883 45.5806ZM68.0093 38.926L66.3167 40.7276C66.162 40.4215 66.0671 40.1413 66.0322 39.887C65.9961 39.5699 66.0904 39.2917 66.3151 39.0525C66.5434 38.8095 66.826 38.6865 67.1629 38.6835C67.434 38.681 67.7161 38.7619 68.0093 38.926Z" fill="#0E753E"/>
<path d="M0.359375 56.5031C0.359375 53.809 2.54336 51.625 5.23743 51.625H72.7172C75.4113 51.625 77.5953 53.809 77.5953 56.5031V91.869C77.5953 94.5631 75.4113 96.747 72.7172 96.747H5.23744C2.54336 96.747 0.359375 94.5631 0.359375 91.869L0.359375 56.5031Z" fill="#2BB560"/>
<path fill-rule="evenodd" clip-rule="evenodd" d="M72.7172 52.438H5.23743C2.99237 52.438 1.17238 54.258 1.17238 56.5031L1.17238 91.869C1.17238 94.114 2.99237 95.934 5.23744 95.934H72.7172C74.9623 95.934 76.7823 94.114 76.7823 91.869V56.5031C76.7823 54.258 74.9623 52.438 72.7172 52.438ZM5.23743 51.625C2.54336 51.625 0.359375 53.809 0.359375 56.5031L0.359375 91.869C0.359375 94.5631 2.54336 96.747 5.23744 96.747H72.7172C75.4113 96.747 77.5953 94.5631 77.5953 91.869V56.5031C77.5953 53.809 75.4113 51.625 72.7172 51.625H5.23743Z" fill="#111111"/>
<path d="M14.9974 57.3125C14.9974 63.9792 9.44185 65.5103 6.66406 65.4426L6.66406 82.3126C12.8429 82.3126 14.7942 87.8681 14.9974 90.6459H62.152C62.152 85.28 67.843 82.8546 70.6886 82.3126V65.4426C64.5097 65.4426 62.423 60.0225 62.152 57.3125H14.9974Z" fill="#0E753E"/>
<path d="M51.5702 73.3789C51.5702 80.2263 46.0193 85.7773 39.1718 85.7773C32.3244 85.7773 26.7734 80.2263 26.7734 73.3789C26.7734 66.5314 32.3244 60.9805 39.1718 60.9805C46.0193 60.9805 51.5702 66.5314 51.5702 73.3789Z" fill="#A6D8BB"/>
<path d="M20.685 73.3777C20.685 75.735 18.7741 77.646 16.4167 77.646C14.0594 77.646 12.1484 75.735 12.1484 73.3777C12.1484 71.0204 14.0594 69.1094 16.4167 69.1094C18.7741 69.1094 20.685 71.0204 20.685 73.3777Z" fill="#A6D8BB"/>
<path d="M65.4116 73.3777C65.4116 75.735 63.5006 77.646 61.1433 77.646C58.786 77.646 56.875 75.735 56.875 73.3777C56.875 71.0204 58.786 69.1094 61.1433 69.1094C63.5006 69.1094 65.4116 71.0204 65.4116 73.3777Z" fill="#A6D8BB"/>
<path fill-rule="evenodd" clip-rule="evenodd" d="M40.0291 65.8594H38.403V67.2649C37.7524 67.3408 37.1686 67.5127 36.6515 67.7806C36.0693 68.0823 35.6167 68.4872 35.2938 68.9954C34.971 69.4982 34.8095 70.0672 34.8095 70.7024C34.8095 72.2744 35.8522 73.3171 37.9377 73.8305L38.403 73.9443V76.9749C37.9828 76.8909 37.6371 76.7268 37.3661 76.4824C37.0432 76.1859 36.8632 75.789 36.8262 75.2914H34.5078C34.5396 76.4347 34.9207 77.3266 35.6511 77.9671C36.3331 78.565 37.2504 78.9138 38.403 79.0135V80.4935H40.0291V78.9942C40.6731 78.922 41.2384 78.7675 41.7249 78.5308C42.323 78.2344 42.7808 77.8374 43.0984 77.3398C43.416 76.837 43.5748 76.2548 43.5748 75.5931C43.5695 74.688 43.2598 73.9629 42.6458 73.4177C42.0319 72.8672 41.1929 72.4702 40.129 72.2268L40.0291 72.2025V69.3494C40.2776 69.4306 40.4882 69.5508 40.661 69.7099C40.9362 69.9534 41.0923 70.2736 41.1294 70.6706H43.416C43.4054 70.0354 43.2413 69.4664 42.9237 68.9636C42.6062 68.4608 42.1589 68.0611 41.582 67.7647C41.123 67.5247 40.6053 67.3651 40.0291 67.2859V65.8594ZM40.0291 76.9104V74.3818C40.3399 74.4978 40.5849 74.629 40.7642 74.7754C41.0288 74.9871 41.1612 75.2597 41.1612 75.5931C41.1612 75.9636 41.0182 76.2759 40.7324 76.53C40.5424 76.6989 40.308 76.8257 40.0291 76.9104ZM38.403 69.3071V71.7791C38.0807 71.662 37.8197 71.5228 37.6201 71.3613C37.3766 71.1549 37.2549 70.8876 37.2549 70.5595C37.2549 70.226 37.3766 69.9428 37.6201 69.7099C37.816 69.5226 38.077 69.3883 38.403 69.3071Z" fill="#0E753E"/>
<path d="M16.6838 31.0003C17.6135 28.4717 20.417 27.1756 22.9456 28.1053L86.2798 51.3925C88.8084 52.3223 90.1045 55.1258 89.1748 57.6543L76.97 90.8476C76.0403 93.3762 73.2368 94.6723 70.7082 93.7425L7.37398 70.4553C4.84541 69.5256 3.54929 66.7221 4.47902 64.1935L16.6838 31.0003Z" fill="#2BB560"/>
<path fill-rule="evenodd" clip-rule="evenodd" d="M85.9993 52.1556L22.665 28.8684C20.5579 28.0936 18.2216 29.1737 17.4468 31.2808L5.24208 64.4741C4.46731 66.5812 5.54741 68.9175 7.65455 69.6922L70.9888 92.9795C73.096 93.7543 75.4322 92.6742 76.207 90.567L88.4117 57.3738C89.1865 55.2666 88.1064 52.9304 85.9993 52.1556ZM22.9456 28.1053C20.417 27.1756 17.6135 28.4717 16.6838 31.0003L4.47902 64.1935C3.54929 66.7221 4.84541 69.5256 7.37398 70.4553L70.7082 93.7425C73.2368 94.6723 76.0403 93.3762 76.97 90.8476L89.1748 57.6543C90.1045 55.1258 88.8084 52.3223 86.2798 51.3925L22.9456 28.1053Z" fill="#111111"/>
<path d="M30.1495 36.8133C27.8489 43.0705 22.1062 42.5903 19.5224 41.5681L13.7006 57.4017C19.4999 59.534 19.414 65.4217 18.6462 68.0989L62.9039 84.3719C64.7556 79.3357 70.9341 79.0232 73.7919 79.4965L79.6137 63.663C73.8144 61.5306 73.7263 55.7234 74.4072 53.0863L30.1495 36.8133Z" fill="#0E753E"/>
<path d="M58.9323 64.5105C56.5692 70.9373 49.4436 74.2316 43.0169 71.8685C36.5901 69.5055 33.2958 62.3799 35.6588 55.9531C38.0219 49.5263 45.1474 46.232 51.5742 48.5951C58.001 50.9581 61.2953 58.0837 58.9323 64.5105Z" fill="#A6D8BB"/>
<path d="M29.9454 53.8505C29.1319 56.063 26.6789 57.1971 24.4664 56.3836C22.2539 55.5701 21.1198 53.117 21.9333 50.9045C22.7468 48.692 25.1998 47.5579 27.4123 48.3714C29.6248 49.1849 30.7589 51.638 29.9454 53.8505Z" fill="#A6D8BB"/>
<path d="M71.9064 69.2841C71.0929 71.4966 68.6398 72.6307 66.4273 71.8172C64.2148 71.0037 63.0807 68.5506 63.8942 66.3381C64.7077 64.1256 67.1608 62.9915 69.3733 63.805C71.5858 64.6185 72.7199 67.0716 71.9064 69.2841Z" fill="#A6D8BB"/>
<path fill-rule="evenodd" clip-rule="evenodd" d="M50.6743 53.4679L49.1481 52.9067L48.6631 54.2259C48.0262 54.0726 47.4189 54.0325 46.8412 54.1055C46.1906 54.1877 45.6261 54.4116 45.1477 54.7771C44.6711 55.1376 44.3232 55.6159 44.104 56.2121C43.5615 57.6875 44.1804 59.0261 45.9605 60.2276L46.358 60.495L45.3122 63.3394C44.9467 63.1156 44.6789 62.8422 44.5088 62.5192C44.3081 62.1296 44.2762 61.6949 44.4131 61.2152L42.2372 60.4151C41.8724 61.4991 41.9223 62.4677 42.3869 63.3209C42.8206 64.1175 43.5612 64.7615 44.6086 65.2527L44.0979 66.6419L45.624 67.203L46.1414 65.7958C46.7708 65.9503 47.3547 66.0004 47.893 65.946C48.5566 65.8742 49.1234 65.6597 49.5931 65.3023C50.0647 64.9399 50.4147 64.4483 50.643 63.8273C50.9504 62.9759 50.91 62.1885 50.5219 61.4649C50.1356 60.7364 49.4852 60.0743 48.5707 59.4786L48.4852 59.4213L49.4698 56.7435C49.6751 56.9055 49.8313 57.091 49.9385 57.2999C50.1128 57.6234 50.1488 57.9779 50.0466 58.3633L52.1927 59.1524C52.402 58.5526 52.4444 57.9619 52.3198 57.3804C52.1953 56.7988 51.9134 56.2694 51.4742 55.7921C51.1262 55.4084 50.6955 55.08 50.182 54.8067L50.6743 53.4679ZM46.8606 63.84L47.7332 61.4668C47.9848 61.6829 48.1695 61.8906 48.2873 62.0898C48.4626 62.3798 48.4928 62.6814 48.3777 62.9943C48.2498 63.3421 48.0079 63.5859 47.652 63.7257C47.4153 63.8186 47.1515 63.8567 46.8606 63.84ZM47.9583 56.1427L47.1052 58.4628C46.8431 58.2417 46.6462 58.0209 46.5146 57.8005C46.3573 57.5228 46.3353 57.2299 46.4485 56.9219C46.5636 56.6089 46.7756 56.3851 47.0845 56.2505C47.333 56.1423 47.6243 56.1063 47.9583 56.1427Z" fill="#0E753E"/>
<path d="M142.63 78.8618C142.63 87.842 135.35 95.122 126.37 95.122C117.389 95.122 110.109 87.842 110.109 78.8618C110.109 69.8815 117.389 62.6016 126.37 62.6016C135.35 62.6016 142.63 69.8815 142.63 78.8618Z" fill="#F4B617"/>
<path fill-rule="evenodd" clip-rule="evenodd" d="M126.37 94.3089C134.901 94.3089 141.817 87.393 141.817 78.8618C141.817 70.3305 134.901 63.4146 126.37 63.4146C117.838 63.4146 110.922 70.3305 110.922 78.8618C110.922 87.393 117.838 94.3089 126.37 94.3089ZM126.37 95.122C135.35 95.122 142.63 87.842 142.63 78.8618C142.63 69.8815 135.35 62.6016 126.37 62.6016C117.389 62.6016 110.109 69.8815 110.109 78.8618C110.109 87.842 117.389 95.122 126.37 95.122Z" fill="#111111"/>
<path d="M137.358 78.8624C137.358 84.924 132.444 89.838 126.382 89.838C120.32 89.838 115.406 84.924 115.406 78.8624C115.406 72.8007 120.32 67.8867 126.382 67.8867C132.444 67.8867 137.358 72.8007 137.358 78.8624Z" fill="#F9D908"/>
<path fill-rule="evenodd" clip-rule="evenodd" d="M126.382 89.025C131.995 89.025 136.545 84.475 136.545 78.8624C136.545 73.2497 131.995 68.6997 126.382 68.6997C120.769 68.6997 116.219 73.2497 116.219 78.8624C116.219 84.475 120.769 89.025 126.382 89.025ZM126.382 89.838C132.444 89.838 137.358 84.924 137.358 78.8624C137.358 72.8007 132.444 67.8867 126.382 67.8867C120.32 67.8867 115.406 72.8007 115.406 78.8624C115.406 84.924 120.32 89.838 126.382 89.838Z" fill="#111111"/>
<path fill-rule="evenodd" clip-rule="evenodd" d="M127.435 71.5469H125.809V72.9524C125.159 73.0283 124.575 73.2002 124.058 73.4681C123.476 73.7698 123.023 74.1747 122.7 74.6829C122.377 75.1857 122.216 75.7547 122.216 76.3899C122.216 77.9619 123.258 79.0046 125.344 79.518L125.809 79.6318V82.6624C125.389 82.5784 125.043 82.4143 124.772 82.1699C124.449 81.8734 124.269 81.4765 124.232 80.9789H121.914C121.946 82.1222 122.327 83.0141 123.057 83.6546C123.739 84.2525 124.657 84.6013 125.809 84.701V86.181H127.435V84.6817C128.079 84.6095 128.645 84.455 129.131 84.2183C129.729 83.9219 130.187 83.5249 130.505 83.0273C130.822 82.5245 130.981 81.9423 130.981 81.2806C130.976 80.3755 130.666 79.6504 130.052 79.1052C129.438 78.5547 128.599 78.1577 127.535 77.9143L127.435 77.89V75.0369C127.684 75.1181 127.894 75.2383 128.067 75.3974C128.342 75.6409 128.499 75.9611 128.536 76.3581H130.822C130.812 75.7229 130.648 75.1539 130.33 74.6511C130.012 74.1483 129.565 73.7486 128.988 73.4522C128.529 73.2122 128.012 73.0526 127.435 72.9734V71.5469ZM127.435 82.5979V80.0693C127.746 80.1853 127.991 80.3165 128.17 80.4629C128.435 80.6746 128.567 80.9472 128.567 81.2806C128.567 81.6511 128.424 81.9634 128.139 82.2175C127.949 82.3864 127.714 82.5132 127.435 82.5979ZM125.809 74.9946V77.4666C125.487 77.3495 125.226 77.2103 125.026 77.0488C124.783 76.8424 124.661 76.5751 124.661 76.247C124.661 75.9135 124.783 75.6303 125.026 75.3974C125.222 75.2101 125.483 75.0758 125.809 74.9946Z" fill="#BA7A26"/>
<path d="M112.552 83.7407C112.552 92.7209 105.272 100.001 96.2914 100.001C87.3112 100.001 80.0312 92.7209 80.0312 83.7407C80.0312 74.7604 87.3112 67.4805 96.2914 67.4805C105.272 67.4805 112.552 74.7604 112.552 83.7407Z" fill="#F4B617"/>
<path fill-rule="evenodd" clip-rule="evenodd" d="M96.2914 99.1879C104.823 99.1879 111.739 92.2719 111.739 83.7407C111.739 75.2094 104.823 68.2935 96.2914 68.2935C87.7602 68.2935 80.8443 75.2094 80.8443 83.7407C80.8443 92.2719 87.7602 99.1879 96.2914 99.1879ZM96.2914 100.001C105.272 100.001 112.552 92.7209 112.552 83.7407C112.552 74.7604 105.272 67.4805 96.2914 67.4805C87.3112 67.4805 80.0312 74.7604 80.0312 83.7407C80.0312 92.7209 87.3112 100.001 96.2914 100.001Z" fill="#111111"/>
<path d="M107.272 83.7413C107.272 89.8029 102.358 94.7169 96.2959 94.7169C90.2343 94.7169 85.3203 89.8029 85.3203 83.7413C85.3203 77.6796 90.2343 72.7656 96.2959 72.7656C102.358 72.7656 107.272 77.6796 107.272 83.7413Z" fill="#F9D908"/>
<path fill-rule="evenodd" clip-rule="evenodd" d="M96.2959 93.9039C101.909 93.9039 106.459 89.3539 106.459 83.7413C106.459 78.1286 101.909 73.5786 96.2959 73.5786C90.6833 73.5786 86.1333 78.1286 86.1333 83.7413C86.1333 89.3539 90.6833 93.9039 96.2959 93.9039ZM96.2959 94.7169C102.358 94.7169 107.272 89.8029 107.272 83.7413C107.272 77.6796 102.358 72.7656 96.2959 72.7656C90.2343 72.7656 85.3203 77.6796 85.3203 83.7413C85.3203 89.8029 90.2343 94.7169 96.2959 94.7169Z" fill="#111111"/>
<path fill-rule="evenodd" clip-rule="evenodd" d="M97.3494 76.4219H95.7234V77.8274C95.0727 77.9033 94.4889 78.0752 93.9718 78.3431C93.3896 78.6448 92.937 79.0497 92.6141 79.5579C92.2913 80.0607 92.1298 80.6297 92.1298 81.2649C92.1298 82.8369 93.1726 83.8796 95.258 84.393L95.7234 84.5068V87.5374C95.3031 87.4534 94.9574 87.2893 94.6864 87.0449C94.3635 86.7484 94.1835 86.3515 94.1465 85.8539H91.8281C91.8599 86.9972 92.241 87.8891 92.9714 88.5296C93.6534 89.1275 94.5707 89.4763 95.7234 89.576V91.056H97.3494V89.5567C97.9934 89.4845 98.5587 89.33 99.0452 89.0933C99.6433 88.7969 100.101 88.3999 100.419 87.9023C100.736 87.3995 100.895 86.8173 100.895 86.1556C100.89 85.2505 100.58 84.5254 99.9662 83.9802C99.3522 83.4297 98.5132 83.0327 97.4493 82.7893L97.3494 82.765V79.9119C97.5979 79.9931 97.8086 80.1133 97.9813 80.2724C98.2565 80.5159 98.4127 80.8361 98.4497 81.2331H100.736C100.726 80.5979 100.562 80.0289 100.244 79.5261C99.9265 79.0233 99.4792 78.6236 98.9023 78.3272C98.4433 78.0872 97.9256 77.9276 97.3494 77.8484V76.4219ZM97.3494 87.4729V84.9443C97.6602 85.0603 97.9052 85.1915 98.0845 85.3379C98.3491 85.5496 98.4815 85.8222 98.4815 86.1556C98.4815 86.5261 98.3386 86.8384 98.0527 87.0925C97.8627 87.2614 97.6283 87.3882 97.3494 87.4729ZM95.7234 79.8696V82.3416C95.401 82.2245 95.1401 82.0853 94.9404 81.9238C94.6969 81.7174 94.5752 81.4501 94.5752 81.122C94.5752 80.7885 94.6969 80.5053 94.9404 80.2724C95.1363 80.0851 95.3973 79.9508 95.7234 79.8696Z" fill="#BA7A26"/>
<path d="M126.372 54.8774C126.372 63.8576 119.092 71.1376 110.112 71.1376C101.132 71.1376 93.8516 63.8576 93.8516 54.8774C93.8516 45.8971 101.132 38.6172 110.112 38.6172C119.092 38.6172 126.372 45.8971 126.372 54.8774Z" fill="#F4B617"/>
<path fill-rule="evenodd" clip-rule="evenodd" d="M110.112 70.3246C118.643 70.3246 125.559 63.4086 125.559 54.8774C125.559 46.3461 118.643 39.4302 110.112 39.4302C101.581 39.4302 94.6646 46.3461 94.6646 54.8774C94.6646 63.4086 101.581 70.3246 110.112 70.3246ZM110.112 71.1376C119.092 71.1376 126.372 63.8576 126.372 54.8774C126.372 45.8971 119.092 38.6172 110.112 38.6172C101.132 38.6172 93.8516 45.8971 93.8516 54.8774C93.8516 63.8576 101.132 71.1376 110.112 71.1376Z" fill="#111111"/>
<path d="M121.092 54.878C121.092 60.9396 116.178 65.8536 110.116 65.8536C104.055 65.8536 99.1406 60.9396 99.1406 54.878C99.1406 48.8163 104.055 43.9023 110.116 43.9023C116.178 43.9023 121.092 48.8163 121.092 54.878Z" fill="#F9D908"/>
<path fill-rule="evenodd" clip-rule="evenodd" d="M110.116 65.0406C115.729 65.0406 120.279 60.4906 120.279 54.878C120.279 49.2653 115.729 44.7154 110.116 44.7154C104.504 44.7154 99.9536 49.2653 99.9536 54.878C99.9536 60.4906 104.504 65.0406 110.116 65.0406ZM110.116 65.8536C116.178 65.8536 121.092 60.9396 121.092 54.878C121.092 48.8163 116.178 43.9023 110.116 43.9023C104.055 43.9023 99.1406 48.8163 99.1406 54.878C99.1406 60.9396 104.055 65.8536 110.116 65.8536Z" fill="#111111"/>
<path fill-rule="evenodd" clip-rule="evenodd" d="M111.17 47.5625H109.544V48.968C108.893 49.0439 108.309 49.2158 107.792 49.4837C107.21 49.7854 106.757 50.1904 106.434 50.6985C106.112 51.2013 105.95 51.7703 105.95 52.4055C105.95 53.9775 106.993 55.0202 109.078 55.5337L109.544 55.6474V58.6781C109.123 58.5941 108.778 58.4299 108.507 58.1855C108.184 57.8891 108.004 57.4921 107.967 56.9946H105.648C105.68 58.1378 106.061 59.0297 106.792 59.6702C107.474 60.2682 108.391 60.617 109.544 60.7166V62.1967H111.17V60.6974C111.814 60.6252 112.379 60.4707 112.865 60.2339C113.464 59.9375 113.921 59.5405 114.239 59.043C114.557 58.5401 114.715 57.9579 114.715 57.2963C114.71 56.3911 114.4 55.666 113.786 55.1208C113.172 54.5703 112.334 54.1734 111.27 53.9299L111.17 53.9056V51.0526C111.418 51.1337 111.629 51.2539 111.802 51.413C112.077 51.6565 112.233 51.9768 112.27 52.3737H114.557C114.546 51.7386 114.382 51.1696 114.064 50.6667C113.747 50.1639 113.3 49.7643 112.723 49.4679C112.264 49.2278 111.746 49.0682 111.17 48.989V47.5625ZM111.17 58.6135V56.085C111.48 56.201 111.726 56.3321 111.905 56.4785C112.169 56.6902 112.302 56.9628 112.302 57.2963C112.302 57.6668 112.159 57.9791 111.873 58.2331C111.683 58.402 111.449 58.5288 111.17 58.6135ZM109.544 51.0103V53.4822C109.221 53.3651 108.96 53.2259 108.761 53.0645C108.517 52.858 108.396 52.5907 108.396 52.2626C108.396 51.9291 108.517 51.6459 108.761 51.413C108.957 51.2257 109.218 51.0914 109.544 51.0103Z" fill="#BA7A26"/>
</svg>
