<svg width="159" height="128" viewBox="0 0 159 128" fill="none" xmlns="http://www.w3.org/2000/svg">
<path d="M83.0646 39.0295C76.383 40.6592 74.0336 57.6348 73.6941 65.9189C73.5353 68.5671 71.4533 68.9746 62.0828 75.2896C54.5863 80.3415 58.2802 86.6293 61.0642 89.1417C55.6999 90.4997 45.3787 95.0899 47.0084 102.586C48.6381 110.083 56.2431 111.414 59.842 111.142C59.5703 111.55 60.1679 113.79 64.7309 119.494C69.294 125.198 77.225 121.871 80.6201 119.494C96.1019 133.998 100.516 123.908 100.787 117.05C104.114 118.476 111.217 118.842 113.01 108.901C114.802 98.9604 108.224 89.273 102.384 84.9272C118.07 89.0014 102.213 71.2153 96.5093 64.9004C90.8055 58.5855 91.4166 36.9925 83.0646 39.0295Z" fill="#00BC68"/>
<path fill-rule="evenodd" clip-rule="evenodd" d="M85.6264 39.6528C84.925 39.2925 84.1208 39.1844 83.163 39.418C81.6461 39.7879 80.32 41.0452 79.1771 42.958C78.0389 44.863 77.1198 47.3567 76.3919 50.0811C74.9368 55.5272 74.2672 61.811 74.0982 65.9341L74.0978 65.9417C74.0545 66.6648 73.8757 67.2629 73.4603 67.8442C73.0564 68.4094 72.4435 68.9372 71.5793 69.5543C70.7683 70.1335 69.7046 70.8125 68.333 71.688C68.2391 71.7479 68.1439 71.8087 68.0471 71.8705C66.5325 72.8376 64.6488 74.045 62.3103 75.6209C60.4806 76.854 59.3593 78.145 58.7323 79.4089C58.1064 80.6704 57.9617 81.927 58.1193 83.1139C58.437 85.5051 59.9868 87.6247 61.3363 88.8426C61.4462 88.9418 61.4925 89.0933 61.4569 89.237C61.4213 89.3806 61.3095 89.4929 61.166 89.5292C58.5162 90.2001 54.6478 91.6695 51.6555 93.8833C48.6561 96.1024 46.6393 98.9833 47.4037 102.5C48.1878 106.107 50.4002 108.223 52.8648 109.415C55.3439 110.614 58.0716 110.872 59.8151 110.741C59.9681 110.729 60.1142 110.806 60.1916 110.938C60.2641 111.062 60.2644 111.215 60.1944 111.338C60.1931 111.347 60.1915 111.362 60.1914 111.385C60.1909 111.452 60.2027 111.561 60.2421 111.718C60.3209 112.033 60.4979 112.499 60.833 113.146C61.502 114.438 62.7745 116.401 65.0475 119.242C67.2142 121.951 70.1764 122.529 73.0614 122.126C75.9597 121.721 78.7324 120.327 80.3935 119.164C80.5489 119.055 80.7593 119.07 80.8977 119.2C84.749 122.808 87.8835 124.859 90.4103 125.819C92.9288 126.777 94.8181 126.643 96.2286 125.924C97.65 125.199 98.6586 123.842 99.3311 122.21C100.003 120.58 100.323 118.713 100.39 117.032C100.395 116.901 100.465 116.78 100.576 116.709C100.688 116.639 100.827 116.628 100.949 116.68C102.547 117.365 105.039 117.786 107.327 116.865C109.584 115.956 111.74 113.7 112.618 108.829C113.495 103.967 112.327 99.1496 110.205 94.9973C108.082 90.8435 105.018 87.3832 102.148 85.2477C101.994 85.1332 101.943 84.9256 102.026 84.7526C102.109 84.5795 102.303 84.4895 102.489 84.5377C104.431 85.0423 105.845 85.1967 106.832 85.0952C107.812 84.9943 108.305 84.6513 108.535 84.2163C108.778 83.755 108.793 83.0706 108.539 82.1516C108.289 81.2437 107.795 80.1765 107.123 79.0083C104.433 74.3263 99.0748 68.3342 96.215 65.168C94.7242 63.5174 93.6727 60.9067 92.7964 58.0229C92.2507 56.2271 91.762 54.284 91.2792 52.3641C90.9865 51.2003 90.696 50.0451 90.3962 48.9364C89.5935 45.9676 88.7219 43.3201 87.5549 41.5434C86.9743 40.6595 86.3376 40.0182 85.6264 39.6528ZM93.5639 57.7896C94.4382 60.6669 95.4492 63.1233 96.8103 64.6303C99.6543 67.779 105.077 73.8374 107.819 78.6086C108.506 79.8037 109.036 80.9374 109.312 81.938C109.586 82.9275 109.63 83.859 109.244 84.5909C108.844 85.349 108.047 85.7765 106.914 85.8932C106.133 85.9736 105.161 85.9112 103.979 85.6939C106.524 87.9032 109.07 91.0134 110.92 94.6323C113.098 98.8953 114.324 103.892 113.408 108.971C112.493 114.041 110.201 116.572 107.627 117.609C105.33 118.534 102.886 118.236 101.161 117.623C101.048 119.224 100.714 120.961 100.073 122.516C99.3576 124.252 98.2442 125.797 96.593 126.639C94.931 127.486 92.797 127.585 90.1252 126.569C87.5157 125.577 84.3693 123.515 80.5849 120.005C78.83 121.178 76.0762 122.515 73.1724 122.92C70.1023 123.349 66.8174 122.739 64.4211 119.743C62.1311 116.881 60.8233 114.872 60.1206 113.515C59.7699 112.838 59.5633 112.311 59.4638 111.913C59.433 111.789 59.4112 111.674 59.3994 111.567C57.5507 111.63 54.9304 111.305 52.5154 110.137C49.8704 108.858 47.4654 106.56 46.6198 102.67C45.7546 98.6905 48.0835 95.5281 51.1784 93.2384C54.0269 91.131 57.6111 89.6899 60.2797 88.9364C58.9821 87.5969 57.6336 85.5492 57.3241 83.2195C57.1473 81.8888 57.3107 80.4693 58.0136 79.0524C58.7153 77.638 59.9434 76.2486 61.862 74.9557C64.2088 73.3741 66.0992 72.1625 67.6154 71.1943C67.7088 71.1347 67.8007 71.076 67.8912 71.0183C69.2736 70.1358 70.3199 69.4679 71.1131 68.9015C71.9606 68.2963 72.4836 67.8311 72.8076 67.3778C73.1194 66.9414 73.2604 66.4964 73.2968 65.8974C73.4676 61.7363 74.1425 55.3925 75.6169 49.874C76.354 47.1153 77.2963 44.5417 78.4884 42.5466C79.6759 40.5593 81.1491 39.0834 82.9729 38.6386C84.1032 38.3629 85.1068 38.484 85.993 38.9393C86.8693 39.3895 87.5996 40.1503 88.2254 41.103C89.471 42.9993 90.3691 45.7628 91.1706 48.727C91.4787 49.8666 91.7723 51.0344 92.0659 52.2024C92.544 54.1045 93.0223 56.0073 93.5639 57.7896Z" fill="#111111"/>
<path d="M74.872 71.1957C75.0599 74.5656 77.3457 77.1785 79.9776 77.0317C82.6094 76.885 84.5907 74.0341 84.4027 70.6642C84.2148 67.2943 81.929 64.6815 79.2971 64.8282C76.6653 64.975 74.684 67.8258 74.872 71.1957Z" fill="white"/>
<path fill-rule="evenodd" clip-rule="evenodd" d="M79.9329 76.2307C77.9165 76.3432 75.8471 74.2742 75.6729 71.151C75.4988 68.0279 77.3253 65.7416 79.3418 65.6292C81.3582 65.5168 83.4276 67.5857 83.6018 70.7089C83.7759 73.8321 81.9494 76.1183 79.9329 76.2307ZM79.9776 77.0317C77.3457 77.1785 75.0599 74.5656 74.872 71.1957C74.684 67.8258 76.6653 64.975 79.2971 64.8282C81.929 64.6815 84.2148 67.2943 84.4027 70.6642C84.5907 74.0341 82.6094 76.885 79.9776 77.0317Z" fill="#111111"/>
<path d="M76.1682 72.7559C76.2809 75.1158 78.0121 76.9505 80.0349 76.8538C82.0577 76.7571 83.606 74.7657 83.4933 72.4058C83.3805 70.0459 81.6493 68.2112 79.6265 68.3078C77.6037 68.4045 76.0554 70.396 76.1682 72.7559Z" fill="#111111"/>
<path d="M83.5432 70.6803C83.5163 74.0553 85.5009 76.8073 87.9759 76.827C90.4509 76.8467 92.4791 74.1267 92.506 70.7517C92.5329 67.3766 90.5483 64.6246 88.0733 64.6049C85.5982 64.5852 83.57 67.3052 83.5432 70.6803Z" fill="white"/>
<path fill-rule="evenodd" clip-rule="evenodd" d="M85.472 74.5426C84.7797 73.5826 84.3331 72.2215 84.3454 70.6867C84.3576 69.1518 84.8257 67.798 85.5333 66.8491C86.2412 65.8998 87.1463 65.3998 88.0669 65.4071C88.9874 65.4145 89.8845 65.9288 90.5772 66.8893C91.2695 67.8493 91.716 69.2104 91.7038 70.7453C91.6916 72.2801 91.2234 73.6339 90.5159 74.5828C89.808 75.5322 88.9029 76.0321 87.9823 76.0248C87.0617 76.0175 86.1647 75.5032 85.472 74.5426ZM87.9759 76.827C85.5009 76.8073 83.5163 74.0553 83.5432 70.6803C83.57 67.3052 85.5982 64.5852 88.0733 64.6049C90.5483 64.6246 92.5329 67.3766 92.506 70.7517C92.4791 74.1267 90.4509 76.8467 87.9759 76.827Z" fill="#111111"/>
<path d="M84.4625 71.6485C84.1615 73.9918 85.5457 76.1006 87.5543 76.3586C89.5629 76.6167 91.4352 74.9262 91.7362 72.5828C92.0372 70.2395 90.653 68.1307 88.6444 67.8727C86.6358 67.6146 84.7635 69.3051 84.4625 71.6485Z" fill="#111111"/>
<path d="M78.066 80.184C80.6792 79.4574 79.6028 80.7307 78.7379 81.4581C78.7636 83.5274 79.5066 88.1358 82.2737 90.0157C85.0408 91.8956 88.27 86.613 88.4544 83.1161C88.0652 82.9957 86.8683 82.4014 87.333 81.9161C87.6481 81.5872 88.862 81.1099 90.0898 81.2766C91.3196 81.4435 89.9123 82.9986 89.2328 83.357C89.5943 85.1748 88.2412 88.5997 85.9247 91.124C83.029 94.2795 80.5038 91.6004 79.3546 89.1123C78.4353 87.1219 77.7913 83.3687 77.5843 81.7409C76.656 81.5247 75.4529 80.9107 78.066 80.184Z" fill="#111111"/>
<path d="M113.495 72.3383C111.972 77.2535 106.446 82.5109 102.424 83.8264C100.129 84.5772 100.806 87.0438 102.048 90.452C103.29 93.8603 109.095 91.2241 112.636 88.5201C119.211 83.5003 122.354 73.6428 123.482 69.4312C124.146 66.9525 124.81 64.4739 125.031 58.329C125.031 53.3537 124.589 50.9155 123.703 50.5663C122.818 50.2171 121.9 51.3088 121.711 52.2451C121.875 51.4199 121.721 48.5526 120.595 48.5526C119.815 48.5526 119.604 49.0833 119.229 50.5663C119.358 50.03 119.085 48.4844 118.082 48.2802C117.142 48.0885 116.612 48.7771 116.378 51.2963C116.448 50.5501 116.39 49.0021 115.603 48.7797C114.817 48.5573 114.01 48.5526 113.514 53.6245C111.53 53.143 111.959 56.523 111.53 61.255C111.323 63.5355 111.835 67.7448 114.49 68.2403C114.536 68.7399 113.822 71.2817 113.495 72.3383Z" fill="#FDFBEF"/>
<path fill-rule="evenodd" clip-rule="evenodd" d="M117.611 48.6817C117.701 48.6442 117.824 48.6308 118.007 48.668C118.305 48.7287 118.55 49.0029 118.709 49.4329C118.867 49.8603 118.885 50.2955 118.845 50.4655C118.426 52.121 118.155 54.3621 118.193 55.8964L118.995 55.8764C118.959 54.423 119.22 52.2535 119.623 50.6595C119.815 49.9015 119.948 49.4643 120.106 49.2094C120.177 49.0944 120.241 49.0385 120.3 49.0066C120.361 48.9739 120.45 48.9486 120.6 48.9486C120.681 48.9486 120.794 48.9922 120.929 49.2159C121.064 49.4391 121.172 49.7704 121.248 50.1605C121.4 50.9442 121.392 51.8131 121.323 52.1618C121.32 52.1747 121.318 52.1876 121.317 52.2007C121.243 52.9547 121.094 54.7883 121.094 56.0705H121.896C121.896 54.8406 122.039 53.0607 122.113 52.3003C122.195 51.9182 122.428 51.4942 122.728 51.209C123.036 50.9155 123.325 50.8413 123.561 50.9343C123.643 50.9666 123.778 51.0747 123.926 51.3915C124.071 51.7011 124.201 52.1548 124.309 52.7763C124.524 54.0156 124.635 55.8391 124.635 58.3166C124.415 64.4108 123.759 66.8597 123.102 69.3116L123.1 69.3222C122.539 71.4155 121.479 74.9061 119.745 78.4929C118.01 82.0845 115.614 85.7405 112.398 88.1962C110.652 89.5294 108.361 90.8338 106.377 91.3867C105.383 91.6638 104.508 91.74 103.829 91.5736C103.178 91.4138 102.692 91.0289 102.43 90.3096C101.805 88.593 101.351 87.1855 101.316 86.1242C101.298 85.6028 101.384 85.2043 101.569 84.9041C101.749 84.6108 102.051 84.367 102.554 84.2025C104.647 83.5179 107.086 81.8285 109.187 79.7095C111.289 77.5886 113.096 74.9916 113.883 72.4518C114.049 71.9178 114.311 71.012 114.526 70.1753C114.634 69.7572 114.731 69.352 114.799 69.017C114.832 68.8497 114.86 68.6956 114.877 68.5639C114.893 68.4403 114.905 68.3083 114.895 68.1985C114.879 68.0198 114.746 67.8737 114.569 67.8408C113.467 67.6351 112.745 66.6482 112.325 65.293C111.91 63.9546 111.834 62.3866 111.934 61.2861C112.034 60.1819 112.088 59.151 112.136 58.232C112.14 58.1588 112.144 58.0863 112.147 58.0146C112.199 57.0356 112.247 56.203 112.341 55.5356C112.437 54.8527 112.574 54.4197 112.752 54.1857C112.832 54.08 112.913 54.025 113.001 53.9979C113.092 53.9695 113.226 53.9609 113.424 54.0091C113.442 54.0135 113.492 54.0336 113.565 54.1315C113.638 54.2298 113.713 54.3794 113.783 54.5845C113.924 54.994 114.022 55.5488 114.082 56.1556C114.203 57.3682 114.168 58.6898 114.098 59.2481C114.073 59.4438 114.194 59.6284 114.384 59.6835C114.867 59.8242 115.372 60.2018 115.822 60.6594C116.266 61.1105 116.619 61.6006 116.804 61.906L117.49 61.4904C117.276 61.1369 116.885 60.5964 116.394 60.0968C115.985 59.6817 115.48 59.2667 114.925 59.0278C114.979 58.3198 114.988 57.1542 114.881 56.0759C114.818 55.445 114.712 54.8192 114.542 54.3237C114.457 54.0763 114.349 53.8423 114.209 53.6532C114.136 53.5551 114.049 53.4619 113.945 53.3861C114.062 52.2634 114.194 51.4155 114.335 50.7784C114.489 50.086 114.65 49.6663 114.799 49.4176C114.942 49.1781 115.054 49.1291 115.115 49.1141C115.199 49.0936 115.307 49.1062 115.499 49.1605C115.571 49.1807 115.649 49.2354 115.729 49.3658C115.81 49.4996 115.877 49.6878 115.924 49.917C116.018 50.3742 116.016 50.905 115.984 51.2524C115.984 51.2529 115.984 51.2535 115.984 51.2541C115.946 51.6618 115.897 52.0701 115.846 52.4874C115.757 53.2218 115.665 53.9842 115.627 54.8203L116.428 54.8571C116.465 54.0434 116.551 53.3424 116.637 52.6336C116.689 52.2098 116.741 51.7833 116.783 51.3282C116.783 51.3282 116.783 51.3282 116.783 51.3281C116.899 50.0716 117.086 49.3516 117.314 48.9736C117.421 48.7962 117.523 48.7182 117.611 48.6817ZM116.427 48.9712C116.488 48.8173 116.554 48.6802 116.627 48.5594C116.799 48.2737 117.02 48.0581 117.304 47.9407C117.584 47.8242 117.88 47.8234 118.168 47.882C118.763 48.0033 119.137 48.4515 119.356 48.9062C119.378 48.8646 119.401 48.8248 119.424 48.7869C119.55 48.5839 119.708 48.4144 119.92 48.3005C120.13 48.1873 120.36 48.1463 120.6 48.1463C121.082 48.1463 121.41 48.4612 121.616 48.8009C121.821 49.141 121.952 49.5781 122.036 50.008C122.077 50.2243 122.109 50.4484 122.131 50.6701C122.145 50.6558 122.16 50.6418 122.174 50.6279C122.594 50.2288 123.206 49.9318 123.856 50.188C124.216 50.3303 124.469 50.6579 124.653 51.052C124.84 51.4533 124.986 51.9855 125.1 52.6391C125.327 53.9488 125.438 55.8298 125.438 58.3239C125.438 58.3287 125.437 58.3335 125.437 58.3383C125.215 64.5198 124.544 67.029 123.874 69.5298C123.307 71.6482 122.232 75.1921 120.468 78.842C118.706 82.487 116.243 86.2696 112.885 88.8338C111.09 90.2046 108.707 91.5702 106.593 92.1594C105.538 92.4533 104.508 92.5661 103.638 92.3527C102.741 92.1327 102.035 91.569 101.676 90.5842C101.06 88.8925 100.554 87.3626 100.514 86.1508C100.493 85.5356 100.591 84.9637 100.886 84.4838C101.185 83.9969 101.66 83.6509 102.304 83.44C104.233 82.809 106.568 81.212 108.617 79.1447C110.664 77.0793 112.381 74.5899 113.117 72.2145C113.279 71.6919 113.537 70.7985 113.749 69.9753C113.855 69.5633 113.949 69.1734 114.012 68.8583C114.036 68.739 114.056 68.6329 114.07 68.542C112.736 68.1253 111.971 66.8611 111.559 65.5307C111.106 64.0705 111.028 62.3936 111.135 61.2136C111.234 60.1254 111.287 59.109 111.335 58.1883C111.339 58.1158 111.343 58.0439 111.346 57.9725C111.397 57.002 111.447 56.1324 111.547 55.4235C111.645 54.7301 111.8 54.1126 112.113 53.7004C112.278 53.483 112.492 53.3159 112.763 53.2318C112.891 53.1919 113.024 53.1732 113.161 53.1726C113.276 52.0947 113.408 51.2554 113.552 50.6043C113.714 49.8781 113.897 49.3619 114.111 49.0056C114.329 48.6401 114.598 48.415 114.924 48.3349C115.229 48.2603 115.517 48.3318 115.718 48.3886C116.039 48.4796 116.263 48.7019 116.413 48.9475C116.418 48.9554 116.423 48.9632 116.427 48.9712Z" fill="#111111"/>
<path d="M115.197 23.0385L111.258 22.1523L110.273 25.6971L114.212 26.5833L115.197 23.0385Z" fill="#FFEB34"/>
<path d="M60.0561 24.5151L56.1175 23.6289L55.1328 27.1737L59.0714 28.0599L60.0561 24.5151Z" fill="#00BC68"/>
<path d="M130.905 51.2031L127.484 53.6907L130.283 57.1111L133.392 54.6235L130.905 51.2031Z" fill="#EF8BBD"/>
<path d="M3.89695 33.4766L0.476562 35.9641L3.27506 39.3845L6.3845 36.8969L3.89695 33.4766Z" fill="#FFEB34"/>
<path d="M24.1001 93.043L20.6797 95.5305L23.4782 98.9509L26.5876 96.4634L24.1001 93.043Z" fill="#C9B4EF"/>
<path d="M141.598 22.2166C139.137 21.9691 137.085 24.5883 136.367 25.9288C140.06 25.3101 143.444 30.2596 146.829 32.1157C150.214 33.9718 152.06 33.9718 153.906 31.8063C155.753 29.6409 153.291 24.0727 152.676 22.2166C152.06 20.3606 151.445 16.9577 152.06 16.339C152.552 15.844 154.112 17.3702 154.829 18.1951L158.522 14.1736C158.522 14.0704 157.722 13.3692 154.522 11.3894C151.075 9.65706 148.573 12.3174 147.752 13.8642C147.239 14.7922 146.46 17.4526 147.445 20.6698C148.429 23.887 148.675 26.1349 148.675 26.8568C147.342 25.4132 144.06 22.4641 141.598 22.2166Z" fill="#A184E1"/>
<path d="M32.1675 14.8416C34.6291 14.5941 36.6805 17.2133 37.3984 18.5538C33.706 17.9351 30.3212 22.8846 26.9365 24.7407C23.5517 26.5968 21.7055 26.5968 19.8592 24.4313C18.013 22.2659 20.4747 16.6977 21.0901 14.8416C21.7055 12.9856 22.3209 9.58269 21.7055 8.96399C21.2132 8.46904 19.6541 9.99515 18.9361 10.8201L15.2437 6.79856C15.2437 6.69544 16.0437 5.99423 19.2438 4.01441C22.6901 2.28206 25.1928 4.94245 26.0133 6.48918C26.5262 7.41722 27.3057 10.0776 26.3211 13.2948C25.3364 16.512 25.0902 18.7599 25.0902 19.4818C26.4236 18.0382 29.7058 15.0891 32.1675 14.8416Z" fill="#F77D0E"/>
<path d="M86.8502 0L88.4049 5.55747L92.4472 1.54374L95.2457 4.32247L91.2034 8.3362L96.4894 9.87994L95.2457 13.2762L89.9596 11.4237L91.5143 17.2899L88.0939 18.2161L86.5392 12.9674L82.497 16.9811L79.6985 14.2024L84.0517 9.87994L78.7656 8.64495L79.3875 5.24872L84.6736 6.48371L83.1188 1.23499L86.8502 0Z" fill="#199EF0"/>
<path d="M133.616 70.4062L135.171 75.9637L139.213 71.95L142.011 74.7287L137.969 78.7424L143.255 80.2862L142.011 83.6824L136.725 81.8299L138.28 87.6961L134.86 88.6224L133.305 83.3737L129.263 87.3874L126.464 84.6087L130.817 80.2862L125.531 79.0512L126.153 75.655L131.439 76.89L129.884 71.6412L133.616 70.4062Z" fill="#F77D0E"/>
<path d="M16.0326 55.1367L14.4779 60.6942L10.4356 56.6805L7.63715 59.4592L11.6794 63.4729L6.39338 65.0167L7.63715 68.4129L12.9232 66.5604L11.3685 72.4266L14.7889 73.3529L16.3436 68.1041L20.3859 72.1179L23.1844 69.3391L18.8311 65.0167L24.1172 63.7817L23.4953 60.3854L18.2093 61.6204L19.764 56.3717L16.0326 55.1367Z" fill="#EF8BBD"/>
<path d="M53.3411 72.3383C54.8636 77.2535 60.3901 82.5109 64.4119 83.8264C66.7073 84.5772 66.0298 87.0438 64.7878 90.452C63.5458 93.8603 57.741 91.2241 54.1996 88.5201C47.6251 83.5003 44.4823 73.6428 43.3541 69.4312C42.69 66.9525 42.026 64.4739 41.8047 58.329C41.8047 53.3537 42.2474 50.9155 43.1327 50.5663C44.0181 50.2171 44.9364 51.3088 45.1248 52.2451C44.961 51.4199 45.1151 48.5526 46.2413 48.5526C47.0211 48.5526 47.2319 49.0833 47.6069 50.5663C47.4779 50.03 47.7512 48.4844 48.7536 48.2802C49.6942 48.0885 50.224 48.7771 50.4576 51.2963C50.3884 50.5501 50.4464 49.0021 51.2327 48.7797C52.0189 48.5573 52.8264 48.5526 53.3223 53.6245C55.3063 53.143 54.8769 56.523 55.3063 61.255C55.5133 63.5355 55.0011 67.7448 52.3455 68.2403C52.2997 68.7399 53.0138 71.2817 53.3411 72.3383Z" fill="#FDFBEF"/>
<path fill-rule="evenodd" clip-rule="evenodd" d="M49.2172 48.6817C49.1269 48.6442 49.0037 48.6308 48.8207 48.668C48.5228 48.7287 48.2785 49.0029 48.1191 49.4329C47.9607 49.8603 47.9434 50.2955 47.9835 50.4655C48.4017 52.121 48.6729 54.3621 48.6347 55.8964L47.8327 55.8764C47.869 54.423 47.6081 52.2535 47.205 50.6595C47.0134 49.9015 46.8799 49.4643 46.722 49.2094C46.6507 49.0944 46.5868 49.0385 46.5277 49.0066C46.467 48.9739 46.3781 48.9486 46.2284 48.9486C46.1472 48.9486 46.0343 48.9922 45.8991 49.2159C45.7641 49.4391 45.6557 49.7704 45.5802 50.1605C45.4283 50.9442 45.436 51.8131 45.5052 52.1618C45.5078 52.1747 45.5097 52.1876 45.511 52.2007C45.5851 52.9547 45.7343 54.7883 45.7343 56.0705H44.932C44.932 54.8406 44.7888 53.0607 44.7147 52.3003C44.6331 51.9182 44.4002 51.4942 44.1006 51.209C43.7923 50.9155 43.5026 50.8413 43.2669 50.9343C43.1851 50.9666 43.0501 51.0747 42.9022 51.3915C42.7576 51.7011 42.6268 52.1548 42.5189 52.7763C42.3038 54.0156 42.1931 55.8391 42.1928 58.3166C42.4128 64.4108 43.0689 66.8597 43.7257 69.3116L43.7285 69.3222C44.2893 71.4155 45.3494 74.9061 47.0827 78.4929C48.8183 82.0845 51.2139 85.7405 54.4301 88.1962C56.1762 89.5294 58.4669 90.8338 60.4507 91.3867C61.4452 91.6638 62.3206 91.74 62.999 91.5736C63.6505 91.4138 64.1359 91.0289 64.398 90.3096C65.0236 88.593 65.4774 87.1855 65.5125 86.1242C65.5298 85.6028 65.4437 85.2043 65.259 84.9041C65.0787 84.6108 64.7772 84.367 64.2743 84.2025C62.1815 83.5179 59.7418 81.8285 57.6415 79.7095C55.5393 77.5886 53.7317 74.9916 52.945 72.4518C52.7795 71.9178 52.5174 71.012 52.302 70.1753C52.1943 69.7572 52.0972 69.352 52.0295 69.017C51.9958 68.8497 51.9685 68.6956 51.9511 68.5639C51.9347 68.4403 51.923 68.3083 51.9331 68.1985C51.9495 68.0198 52.0825 67.8737 52.2589 67.8408C53.3616 67.6351 54.0829 66.6482 54.5033 65.293C54.9186 63.9546 54.9938 62.3866 54.8939 61.2861C54.7937 60.1819 54.7399 59.151 54.692 58.232C54.6882 58.1588 54.6844 58.0863 54.6806 58.0146C54.6293 57.0356 54.5814 56.203 54.4871 55.5356C54.3907 54.8527 54.2543 54.4197 54.0766 54.1857C53.9962 54.08 53.9148 54.025 53.8276 53.9979C53.736 53.9695 53.6025 53.9609 53.4039 54.0091C53.3859 54.0135 53.3359 54.0336 53.2632 54.1315C53.1902 54.2298 53.1152 54.3794 53.0447 54.5845C52.9039 54.994 52.8065 55.5488 52.7459 56.1556C52.6248 57.3682 52.6599 58.6898 52.7304 59.2481C52.7552 59.4438 52.634 59.6284 52.4446 59.6835C51.9609 59.8242 51.4564 60.2018 51.0063 60.6594C50.5626 61.1105 50.2093 61.6006 50.0244 61.906L49.3382 61.4904C49.5523 61.1369 49.943 60.5964 50.4343 60.0968C50.8427 59.6817 51.3479 59.2667 51.9031 59.0278C51.8489 58.3198 51.8399 57.1542 51.9476 56.0759C52.0106 55.445 52.1157 54.8192 52.286 54.3237C52.3711 54.0763 52.4787 53.8423 52.6191 53.6532C52.692 53.5551 52.7793 53.4619 52.8827 53.3861C52.7662 52.2634 52.6343 51.4155 52.4927 50.7784C52.3387 50.086 52.1781 49.6663 52.0293 49.4176C51.8859 49.1781 51.7739 49.1291 51.7127 49.1141C51.6292 49.0936 51.5211 49.1062 51.3289 49.1605C51.2575 49.1807 51.1792 49.2354 51.0994 49.3658C51.0177 49.4996 50.9513 49.6878 50.9043 49.917C50.8106 50.3742 50.8118 50.905 50.8439 51.2524C50.844 51.2529 50.844 51.2535 50.8441 51.2541C50.8819 51.6618 50.9314 52.0701 50.9819 52.4874C51.0708 53.2218 51.1632 53.9842 51.2016 54.8203L50.4002 54.8571C50.3628 54.0434 50.2774 53.3424 50.1911 52.6336C50.1395 52.2098 50.0875 51.7833 50.0453 51.3282C50.0453 51.3282 50.0453 51.3282 50.0453 51.3281C49.9287 50.0716 49.7422 49.3516 49.5143 48.9736C49.4073 48.7962 49.3053 48.7182 49.2172 48.6817ZM50.4007 48.9712C50.3404 48.8173 50.2741 48.6802 50.2013 48.5594C50.029 48.2737 49.8077 48.0581 49.5245 47.9407C49.2437 47.8242 48.9479 47.8234 48.6606 47.882C48.065 48.0033 47.6916 48.4515 47.4722 48.9062C47.4501 48.8646 47.4274 48.8248 47.4039 48.7869C47.2782 48.5839 47.1198 48.4144 46.9083 48.3005C46.6984 48.1873 46.4686 48.1463 46.2284 48.1463C45.7465 48.1463 45.4178 48.4612 45.2125 48.8009C45.0069 49.141 44.8758 49.5781 44.7926 50.008C44.7507 50.2243 44.7192 50.4484 44.697 50.6701C44.6827 50.6558 44.6683 50.6418 44.6537 50.6279C44.2344 50.2288 43.6223 49.9318 42.9726 50.188C42.6118 50.3303 42.3594 50.6579 42.1753 51.052C41.9879 51.4533 41.842 51.9855 41.7285 52.6391C41.5012 53.9488 41.3906 55.8298 41.3906 58.3239C41.3906 58.3287 41.3907 58.3335 41.3909 58.3383C41.6135 64.5198 42.2837 67.029 42.9537 69.5298C43.5212 71.6482 44.5966 75.1921 46.3604 78.842C48.1219 82.487 50.585 86.2696 53.9433 88.8338C55.7386 90.2046 58.1209 91.5702 60.2354 92.1594C61.29 92.4533 62.32 92.5661 63.1901 92.3527C64.0869 92.1327 64.7929 91.569 65.1518 90.5842C65.7682 88.8925 66.2741 87.3626 66.3143 86.1508C66.3347 85.5356 66.2375 84.9637 65.9424 84.4838C65.643 83.9969 65.1684 83.6509 64.5237 83.44C62.5947 82.809 60.2602 81.212 58.2112 79.1447C56.164 77.0793 54.4471 74.5899 53.7113 72.2145C53.5494 71.6919 53.2908 70.7985 53.0788 69.9753C52.9728 69.5633 52.8795 69.1734 52.8159 68.8583C52.7918 68.739 52.7725 68.6329 52.7584 68.542C54.0917 68.1253 54.8568 66.8611 55.2695 65.5307C55.7225 64.0705 55.7999 62.3936 55.6928 61.2136C55.5941 60.1254 55.5411 59.109 55.493 58.1883C55.4892 58.1158 55.4855 58.0439 55.4817 57.9725C55.4308 57.002 55.3816 56.1324 55.2815 55.4235C55.1836 54.7301 55.0285 54.1126 54.7154 53.7004C54.5502 53.483 54.3363 53.3159 54.0656 53.2318C53.9371 53.1919 53.8038 53.1732 53.6669 53.1726C53.5517 52.0947 53.4205 51.2554 53.2757 50.6043C53.1143 49.8781 52.9309 49.3619 52.7176 49.0056C52.4988 48.6401 52.2305 48.415 51.9036 48.3349C51.5992 48.2603 51.3115 48.3318 51.1105 48.3886C50.7887 48.4796 50.565 48.7019 50.4149 48.9475C50.4101 48.9554 50.4054 48.9632 50.4007 48.9712Z" fill="#111111"/>
<path d="M36.5507 47.6814C35.4988 49.4346 36.989 51.9184 37.8657 52.9411C36.1128 52.4297 32.4757 52.0206 31.9502 54.4752C31.4247 56.9297 34.5068 56.959 36.1136 56.6668C34.3615 58.2009 31.7304 60.3924 32.6071 63.2415C33.3084 65.5207 36.1136 64.4834 37.4285 63.6798C36.7711 65.6522 35.938 69.9477 37.8657 71.3503C39.7933 72.7529 41.8839 70.0353 42.6883 68.5012C42.6883 72.0077 43.1266 74.4185 46.1948 74.4185C48.6494 74.4185 48.9708 70.7659 48.8247 68.9395C49.4822 70.1084 51.4107 72.6214 53.8653 73.3227C56.3199 74.024 55.7647 70.2545 55.1802 68.2821C56.203 69.524 58.8182 71.4379 61.0975 69.1587C63.3767 66.8795 59.7095 62.9493 57.591 61.2691C58.4676 61.7074 62.6316 64.5564 64.1657 61.7074C65.393 59.4281 61.9011 56.8129 60.0017 55.7901C61.1705 56.0823 63.6397 56.2284 64.1657 54.4752C64.6917 52.7219 59.8556 50.8226 57.3718 50.092C58.2484 49.2885 59.7387 47.243 58.6868 45.4897C57.6348 43.7365 54.7419 45.6358 53.427 46.8047C53.8653 45.4897 54.216 42.7721 52.112 42.4216C50.0081 42.0711 48.3133 45.7821 47.7289 47.6814C47.4367 46.0011 46.2825 42.6844 44.0032 42.8598C41.724 43.0351 41.8847 47.0238 42.25 48.9963C40.7885 47.8275 37.6027 45.9281 36.5507 47.6814Z" fill="#F88081"/>
<path fill-rule="evenodd" clip-rule="evenodd" d="M51.8845 44.9473C52.3013 45.312 52.3435 45.9455 51.9788 46.3623C51.9083 46.4429 51.847 46.5112 51.7925 46.5718C51.6079 46.7773 51.5018 46.8953 51.3832 47.1091C51.2352 47.3757 51.0605 47.8244 50.8958 48.7304C50.7967 49.2753 50.2747 49.6367 49.7298 49.5376C49.1849 49.4386 48.8235 48.9165 48.9226 48.3717C49.1085 47.3491 49.3356 46.6655 49.6296 46.1358C49.8691 45.7043 50.1509 45.3939 50.3553 45.1689C50.3969 45.123 50.4353 45.0807 50.4695 45.0417C50.8342 44.6249 51.4677 44.5827 51.8845 44.9473Z" fill="white"/>
<path fill-rule="evenodd" clip-rule="evenodd" d="M55.3622 63.1525C55.8982 63.0134 56.4455 63.3352 56.5846 63.8713C56.6366 64.0717 56.7732 64.3374 57.0173 64.6808C57.2339 64.9855 57.4891 65.2899 57.7654 65.6194C57.7965 65.6565 57.8279 65.6939 57.8595 65.7317C58.215 66.1563 58.1589 66.7888 57.7342 67.1443C57.3095 67.4997 56.6771 67.4436 56.3216 67.019C56.2907 66.982 56.259 66.9443 56.2268 66.9059C55.9582 66.5859 55.649 66.2175 55.3826 65.8428C55.0875 65.4276 54.7863 64.9262 54.6433 64.3749C54.5043 63.8388 54.8261 63.2915 55.3622 63.1525Z" fill="white"/>
<path fill-rule="evenodd" clip-rule="evenodd" d="M44.2309 60.046C44.7847 60.046 45.2337 60.495 45.2337 61.0488C45.2337 61.3665 45.2413 61.7382 45.2904 62.1018C45.341 62.4763 45.4265 62.7675 45.5368 62.9584C45.8139 63.4378 45.6499 64.0512 45.1704 64.3284C44.691 64.6055 44.0776 64.4415 43.8004 63.962C43.5025 63.4465 43.3691 62.8606 43.3029 62.3702C43.2352 61.869 43.2281 61.3882 43.2281 61.0488C43.2281 60.495 43.6771 60.046 44.2309 60.046Z" fill="white"/>
<path fill-rule="evenodd" clip-rule="evenodd" d="M49.6697 44.4356C48.9391 45.5139 48.3839 46.8767 48.0992 47.8021C48.0447 47.9794 47.8756 48.0962 47.6905 48.0844C47.5054 48.0727 47.3524 47.9356 47.3207 47.7529C47.1801 46.9447 46.8313 45.7464 46.2541 44.7838C45.6689 43.8078 44.9277 43.1927 44.0209 43.2625C43.5869 43.2959 43.2728 43.5028 43.0322 43.8476C42.7815 44.2067 42.613 44.716 42.5181 45.3192C42.3286 46.5238 42.4533 47.9649 42.6313 48.926C42.6618 49.0908 42.5867 49.2571 42.443 49.3432C42.2993 49.4293 42.1172 49.417 41.9864 49.3123C41.2744 48.7429 40.1514 48.0043 39.0973 47.623C38.5686 47.4318 38.0923 47.3434 37.7091 47.3844C37.3456 47.4233 37.0706 47.5755 36.8816 47.8905C36.4467 48.6153 36.5154 49.5304 36.849 50.4513C37.1797 51.3642 37.743 52.1996 38.1571 52.6829C38.2726 52.8176 38.2859 53.0122 38.1896 53.1614C38.0934 53.3105 37.9106 53.3787 37.7403 53.329C36.8945 53.0822 35.604 52.8649 34.4815 52.9971C33.3545 53.1298 32.5383 53.5857 32.3293 54.5619C32.2157 55.0925 32.3061 55.4346 32.4687 55.6671C32.6391 55.9107 32.9324 56.0964 33.3367 56.2203C34.154 56.4708 35.2528 56.416 36.0287 56.2749C36.2062 56.2426 36.3834 56.3328 36.4618 56.4952C36.5402 56.6577 36.5005 56.8525 36.3647 56.9713C36.3168 57.0133 36.2683 57.0557 36.2194 57.0984C35.3643 57.8459 34.3839 58.7028 33.6901 59.6938C32.9648 60.7297 32.5881 61.8611 32.9774 63.1263C33.1259 63.6089 33.3715 63.8814 33.652 64.036C33.943 64.1965 34.3145 64.2532 34.7432 64.2196C35.609 64.1516 36.5767 63.7251 37.2063 63.3403C37.35 63.2525 37.5333 63.2638 37.6652 63.3687C37.797 63.4735 37.8492 63.6496 37.796 63.8094C37.4758 64.7699 37.1134 66.2977 37.0655 67.7447C37.0416 68.4679 37.097 69.1523 37.2639 69.7286C37.4305 70.3037 37.7003 70.7462 38.0886 71.0287C38.4829 71.3157 38.8657 71.3833 39.2391 71.3199C39.6272 71.254 40.032 71.0407 40.4336 70.7174C41.2394 70.0686 41.9321 69.0575 42.32 68.3178C42.4057 68.1543 42.5919 68.0704 42.7711 68.1145C42.9504 68.1587 43.0763 68.3194 43.0763 68.504C43.0763 70.2632 43.1907 71.6564 43.6404 72.6059C43.8591 73.0676 44.1521 73.4119 44.5443 73.645C44.9396 73.8798 45.4666 74.0201 46.1817 74.0201C47.1445 74.0201 47.7405 73.3256 48.0903 72.2433C48.4374 71.1692 48.4824 69.8567 48.4118 68.9743C48.3968 68.7866 48.5144 68.6136 48.6946 68.5587C48.8747 68.5037 49.0689 68.5815 49.1612 68.7457C49.4724 69.2989 50.0965 70.1893 50.9401 71.0241C51.7859 71.861 52.8249 72.6148 53.9624 72.9398C54.4831 73.0885 54.7406 72.9795 54.891 72.8283C55.0743 72.6439 55.2048 72.2941 55.2497 71.7733C55.3382 70.7465 55.0698 69.3681 54.7826 68.3988C54.7284 68.2159 54.8105 68.0202 54.9789 67.9307C55.1474 67.8411 55.3555 67.8826 55.4768 68.0299C55.9567 68.6126 56.8069 69.3443 57.7793 69.6624C58.2597 69.8195 58.7601 69.8727 59.26 69.7681C59.7574 69.664 60.2801 69.3985 60.8008 68.8779C61.2793 68.3994 61.4442 67.8455 61.3961 67.235C61.3466 66.607 61.0692 65.9116 60.6374 65.2001C59.7743 63.778 58.367 62.4096 57.3287 61.5861C57.1676 61.4584 57.1292 61.2297 57.2396 61.0564C57.35 60.883 57.5735 60.8212 57.7573 60.9131C57.8783 60.9736 58.0386 61.0648 58.2304 61.1739C58.8336 61.5172 59.7489 62.038 60.7361 62.3402C61.3774 62.5365 61.9948 62.6198 62.5211 62.5123C63.026 62.409 63.4731 62.1261 63.7994 61.52C64.2826 60.6226 63.8813 59.5923 62.9446 58.5482C62.1754 57.691 61.1315 56.9306 60.269 56.414C60.0035 57.3936 59.3763 58.4772 58.186 58.9491C56.7519 59.5176 54.6979 59.1201 51.8583 56.9904L52.3396 56.3486C55.1105 58.4268 56.8552 58.6137 57.8903 58.2033C58.9279 57.792 59.4497 56.7025 59.5894 55.7511C59.6299 55.036 58.9045 53.0267 54.4789 52.6863L54.5405 51.8865C58.8149 52.2153 60.2472 54.1193 60.3828 55.4682C60.9145 55.5677 61.6105 55.6188 62.2421 55.5075C62.9978 55.3743 63.5674 55.0327 63.7684 54.3627C63.8369 54.1344 63.7565 53.8339 63.3728 53.4338C62.9972 53.0423 62.407 52.6411 61.6937 52.2558C60.2734 51.4885 58.4723 50.8404 57.2456 50.4796C57.1068 50.4388 57.0007 50.3264 56.968 50.1855C56.9353 50.0445 56.9811 49.8969 57.0877 49.7991C57.4939 49.4268 58.0466 48.7601 58.3699 47.9939C58.6916 47.2315 58.7664 46.4267 58.3297 45.6989C58.1355 45.3751 57.8722 45.2296 57.5474 45.1925C57.2004 45.1528 56.7701 45.2379 56.2895 45.4273C55.3309 45.8053 54.3192 46.5394 53.6804 47.1073C53.5446 47.2279 53.3447 47.2423 53.1931 47.1423C53.0415 47.0423 52.976 46.8529 53.0334 46.6806C53.2416 46.0561 53.4216 45.1133 53.3123 44.3082C53.2581 43.9093 53.1366 43.5713 52.9388 43.3207C52.7478 43.0786 52.4661 42.8922 52.0331 42.8201C51.6406 42.7547 51.2456 42.8719 50.8404 43.1587C50.4309 43.4485 50.0352 43.896 49.6697 44.4356ZM61.6637 56.3695C61.9025 56.3618 62.1443 56.3393 62.3813 56.2975C63.2838 56.1385 64.2118 55.6765 64.5368 54.5932C64.7313 53.9449 64.4045 53.3505 63.9517 52.8785C63.4908 52.398 62.8154 51.9499 62.075 51.55C60.8193 50.8716 59.2986 50.2906 58.0989 49.9036C58.4654 49.4785 58.8476 48.9251 59.109 48.3058C59.4886 47.4062 59.6329 46.3116 59.0176 45.2862C58.6859 44.7333 58.1931 44.4588 57.6385 44.3954C57.1061 44.3346 56.5339 44.4687 55.9953 44.681C55.325 44.9453 54.6498 45.3539 54.0724 45.7696C54.1492 45.2665 54.1776 44.7186 54.1072 44.2003C54.0409 43.7117 53.883 43.2223 53.5685 42.8237C53.2473 42.4166 52.7838 42.1319 52.1649 42.0287C51.5054 41.9189 50.8996 42.134 50.377 42.5039C49.8588 42.8706 49.3997 43.4038 49.0055 43.9856C48.5139 44.7112 48.1017 45.5447 47.7883 46.3055C47.5878 45.6677 47.3086 44.9824 46.9421 44.3712C46.3074 43.3126 45.3319 42.357 43.9594 42.4626C43.2538 42.5169 42.7333 42.8743 42.3744 43.3884C42.0256 43.8881 41.8298 44.5322 41.7256 45.1946C41.5758 46.1473 41.6048 47.2098 41.7025 48.1076C41.0192 47.6419 40.1865 47.164 39.3702 46.8686C38.7882 46.6581 38.1795 46.5273 37.6238 46.5867C37.0484 46.6483 36.5307 46.9161 36.1937 47.4778C35.5766 48.5062 35.7271 49.7096 36.0948 50.7246C36.3045 51.3034 36.5941 51.8486 36.8898 52.3106C36.117 52.1742 35.2222 52.1021 34.3877 52.2003C33.1265 52.3489 31.8614 52.9156 31.5449 54.394C31.3957 55.0907 31.4936 55.6727 31.8113 56.1269C32.1212 56.57 32.6003 56.8336 33.1017 56.9873C33.6617 57.1589 34.3016 57.2096 34.9021 57.194C34.2498 57.7888 33.5665 58.4716 33.0329 59.2337C32.2238 60.3894 31.7233 61.7783 32.2106 63.3622C32.4128 64.0192 32.7808 64.4717 33.2646 64.7385C33.7379 64.9995 34.2814 65.0605 34.806 65.0193C35.4782 64.9665 36.1717 64.7419 36.7633 64.4766C36.5175 65.4174 36.3012 66.5844 36.2637 67.7182C36.2382 68.4908 36.2949 69.2665 36.4933 69.9518C36.6922 70.6381 37.041 71.2586 37.6166 71.6774C38.1861 72.0918 38.7875 72.2103 39.3734 72.1108C39.9446 72.0137 40.4741 71.7147 40.9367 71.3422C41.4551 70.9248 41.9206 70.3899 42.3028 69.8604C42.3609 71.0567 42.5222 72.1192 42.9154 72.9493C43.1898 73.5285 43.5817 74.0061 44.1345 74.3346C44.6844 74.6614 45.3628 74.8224 46.1817 74.8224C47.6735 74.8224 48.4656 73.6906 48.8536 72.49C49.0821 71.783 49.1916 71.0013 49.2279 70.2853C49.5477 70.705 49.934 71.1571 50.3759 71.5943C51.2724 72.4814 52.425 73.3348 53.742 73.7111C54.4487 73.913 55.0422 73.8139 55.4598 73.3939C55.8445 73.0071 55.9989 72.4228 56.0489 71.8423C56.1107 71.126 56.023 70.2921 55.8778 69.5229C56.351 69.8899 56.9134 70.2232 57.5299 70.4248C58.1161 70.6165 58.7608 70.6921 59.4242 70.5533C60.0901 70.414 60.7491 70.0641 61.368 69.4451C62.0292 68.784 62.2605 67.9919 62.1959 67.1719C62.1326 66.3694 61.7881 65.55 61.3232 64.7839C60.9214 64.1219 60.4161 63.4778 59.8846 62.8907C60.0872 62.9703 60.2938 63.0438 60.5013 63.1073C61.2024 63.3219 61.9684 63.444 62.6817 63.2982C63.4164 63.148 64.0651 62.7187 64.5058 61.9003C65.2498 60.5185 64.5188 59.1015 63.5417 58.0125C62.99 57.3976 62.3185 56.8368 61.6637 56.3695ZM41.7737 65.7718C41.2172 64.1155 40.9956 62.0331 40.9585 60.6249L41.7605 60.6038C41.7965 61.9716 42.0132 63.9655 42.5342 65.5163C42.796 66.2956 43.121 66.9203 43.5034 67.3048C43.8657 67.6692 44.266 67.8106 44.7627 67.6781C46.2905 67.2707 47.155 66.3759 47.4667 65.2971C47.7834 64.2008 47.5505 62.8382 46.716 61.4821L47.3992 61.0616C48.3179 62.5545 48.6329 64.1506 48.2374 65.5197C47.8368 66.9065 46.729 67.984 44.9694 68.4533C44.1511 68.6715 43.4648 68.4038 42.9345 67.8705C42.4243 67.3574 42.0507 66.596 41.7737 65.7718Z" fill="#111111"/>
<path d="M116.243 47.6814C116.316 46.0743 116.944 42.7723 118.873 42.4216C120.801 42.071 121.722 45.782 121.941 47.6814C122.599 46.1473 124.396 43.2982 126.324 44.1748C128.253 45.0514 128.004 47.9005 127.639 49.2154C129.173 48.0466 132.548 46.1035 133.776 47.6814C135.003 49.2593 132.826 51.407 131.584 52.2836C133.483 52.5028 137.194 53.5547 136.844 56.0093C136.493 58.4638 134.214 58.0547 133.118 57.5434C134.725 59.6619 137.457 64.3372 135.529 66.0905C133.401 68.0249 131.785 65.8615 131.134 64.5736C131.732 66.1503 132.992 70.5184 129.831 71.3503C127.384 71.9941 126.522 70.5495 126.323 69.1001C126.181 71.4036 125.367 74.4319 122.818 74.8568C119.662 75.3828 119.165 72.7383 119.311 71.3503C118.727 72.6652 117.076 75.0321 115.147 73.9802C112.737 72.6652 113.613 68.2821 114.051 67.1863C114.49 66.0905 110.324 70.6928 107.913 68.9395C105.503 67.1863 109.009 63.2415 109.667 62.584C108.06 63.3876 104.67 64.3811 103.969 61.9265C103.267 59.472 107.037 56.5206 109.009 55.3518C107.621 55.3518 104.933 54.7382 105.283 52.2836C105.634 49.8291 110.105 49.6537 112.296 49.8729C110.981 49.2884 108.746 47.5498 110.324 45.2706C111.902 42.9914 114.927 45.9281 116.243 47.6814Z" fill="#F88081"/>
<path fill-rule="evenodd" clip-rule="evenodd" d="M119.86 43.128C119.569 42.863 119.271 42.7588 118.94 42.8191C118.198 42.9539 117.631 43.6784 117.232 44.7258C116.844 45.7454 116.674 46.9281 116.639 47.7024C116.631 47.8715 116.518 48.0176 116.356 48.0675C116.194 48.1174 116.019 48.0604 115.917 47.925C115.274 47.068 114.226 45.9415 113.171 45.3109C112.643 44.9952 112.154 44.8288 111.738 44.8429C111.349 44.8561 110.977 45.0274 110.649 45.5017C110.295 46.013 110.171 46.4682 110.178 46.8652C110.184 47.2649 110.324 47.6408 110.555 47.9883C111.024 48.6953 111.838 49.2351 112.454 49.5092C112.634 49.5892 112.729 49.788 112.679 49.9784C112.629 50.1688 112.447 50.2944 112.251 50.2748C111.182 50.1679 109.562 50.159 108.183 50.4697C107.492 50.6252 106.889 50.8547 106.447 51.1701C106.012 51.4798 105.744 51.8616 105.675 52.3432C105.599 52.8787 105.69 53.2874 105.868 53.6061C106.048 53.9296 106.334 54.1892 106.689 54.3931C107.409 54.8067 108.352 54.9535 109.004 54.9535C109.185 54.9535 109.343 55.0743 109.391 55.2486C109.439 55.4229 109.364 55.6076 109.209 55.6997C108.245 56.2707 106.843 57.2777 105.776 58.4322C105.242 59.0093 104.806 59.6084 104.544 60.1943C104.284 60.7784 104.208 61.3235 104.349 61.8191C104.496 62.3332 104.772 62.6419 105.115 62.828C105.471 63.0212 105.932 63.0985 106.458 63.079C107.515 63.0399 108.707 62.6159 109.482 62.2281C109.658 62.1401 109.872 62.1927 109.987 62.3523C110.102 62.5119 110.084 62.7313 109.945 62.8704C109.631 63.1847 108.622 64.3012 107.992 65.5361C107.676 66.155 107.474 66.7668 107.474 67.3021C107.474 67.8137 107.656 68.2626 108.144 68.618C108.621 68.9647 109.201 69.0152 109.855 68.8633C110.515 68.7101 111.205 68.3599 111.835 67.9709C112.281 67.696 112.673 67.4177 113.002 67.1846C113.141 67.0857 113.27 66.9949 113.385 66.9159C113.479 66.8517 113.569 66.7932 113.648 66.7472C113.717 66.7071 113.816 66.6541 113.918 66.6308C113.967 66.6195 114.072 66.6014 114.19 66.644C114.339 66.698 114.431 66.8197 114.464 66.9462C114.491 67.0473 114.477 67.1368 114.467 67.1846C114.455 67.2395 114.437 67.292 114.419 67.3381C114.22 67.8356 113.901 69.1519 113.927 70.496C113.954 71.86 114.329 73.0826 115.334 73.6308C115.732 73.8479 116.099 73.8827 116.439 73.8088C116.789 73.7328 117.136 73.5358 117.467 73.2514C118.134 72.6784 118.662 71.8149 118.94 71.1902C119.02 71.0098 119.219 70.9146 119.41 70.9656C119.601 71.0167 119.726 71.1988 119.705 71.3951C119.637 72.0372 119.725 72.9414 120.157 73.6053C120.368 73.9289 120.659 74.1951 121.062 74.3565C121.467 74.5189 122.013 74.5862 122.747 74.464C123.852 74.2797 124.604 73.5347 125.108 72.5087C125.61 71.4882 125.843 70.231 125.915 69.1169C125.844 68.5661 125.861 68.0205 125.922 67.5732C125.95 67.3693 126.127 67.2195 126.333 67.2266C126.539 67.2337 126.706 67.3953 126.719 67.6007C126.748 68.0288 126.753 68.538 126.721 69.0867C126.817 69.7497 127.058 70.343 127.488 70.7067C127.906 71.0601 128.586 71.2645 129.724 70.9652C130.413 70.7838 130.837 70.4208 131.099 69.965C131.369 69.4961 131.483 68.8998 131.486 68.2425C131.491 66.9344 131.055 65.5159 130.761 64.7381C130.674 64.5645 130.603 64.405 130.549 64.2699C130.535 64.2342 130.523 64.2024 130.513 64.176C130.509 64.1631 130.504 64.1476 130.499 64.1314C130.498 64.1283 130.484 64.0815 130.482 64.0251C130.481 64.0084 130.481 63.9715 130.49 63.926C130.498 63.8901 130.526 63.7795 130.635 63.6936C130.769 63.5876 130.919 63.5984 131.006 63.6263C131.079 63.6498 131.127 63.6886 131.144 63.7027C131.181 63.7346 131.205 63.7666 131.21 63.7743C131.22 63.7874 131.227 63.799 131.232 63.8063C131.248 63.8328 131.263 63.8628 131.275 63.8855C131.322 63.9827 131.402 64.1678 131.496 64.4139C131.813 65.0345 132.334 65.8042 132.982 66.2012C133.3 66.3956 133.634 66.4924 133.989 66.4546C134.345 66.4167 134.768 66.2381 135.254 65.7965C135.624 65.4602 135.795 64.9672 135.786 64.3217C135.777 63.6711 135.583 62.9068 135.27 62.1021C134.645 60.4953 133.583 58.8297 132.793 57.7886C132.682 57.6417 132.685 57.4377 132.801 57.2942C132.917 57.1507 133.116 57.1047 133.283 57.1827C133.791 57.4198 134.545 57.6163 135.181 57.4971C135.49 57.4394 135.759 57.3102 135.97 57.0849C136.182 56.8589 136.363 56.5067 136.442 55.9554C136.58 54.9882 135.941 54.2387 134.864 53.665C133.802 53.0992 132.452 52.791 131.533 52.6849C131.368 52.6658 131.231 52.5468 131.19 52.3856C131.149 52.2245 131.212 52.0547 131.348 51.9587C131.944 51.5381 132.755 50.8167 133.264 50.0304C133.78 49.2327 133.906 48.5118 133.454 47.9305C133.238 47.6525 132.921 47.5126 132.493 47.4947C132.054 47.4763 131.525 47.5895 130.955 47.798C129.817 48.2141 128.625 48.9674 127.877 49.5373C127.74 49.6417 127.552 49.6469 127.409 49.5503C127.267 49.4537 127.202 49.2769 127.248 49.1109C127.42 48.4907 127.564 47.506 127.439 46.5873C127.315 45.6671 126.938 44.8997 126.153 44.5428C125.432 44.2149 124.68 44.5442 123.939 45.3065C123.212 46.0541 122.622 47.1025 122.305 47.8422C122.233 48.0094 122.058 48.1074 121.878 48.0811C121.698 48.0548 121.558 47.9108 121.538 47.7302C121.431 46.8035 121.153 45.4445 120.676 44.3735C120.438 43.8363 120.162 43.4029 119.86 43.128ZM132.113 66.554C132.219 67.0975 132.29 67.6771 132.288 68.2456C132.285 68.9814 132.159 69.7317 131.795 70.3651C131.423 71.0115 130.819 71.5065 129.928 71.741C128.619 72.0855 127.644 71.8895 126.97 71.3193C126.787 71.165 126.633 70.9885 126.504 70.7976C126.361 71.506 126.145 72.2192 125.828 72.8627C125.253 74.033 124.322 75.0146 122.879 75.2553C122.034 75.396 121.335 75.33 120.764 75.1011C120.19 74.8712 119.775 74.4881 119.485 74.0429C119.224 73.6412 119.064 73.1891 118.975 72.7455C118.698 73.1429 118.367 73.5359 117.99 73.8598C117.594 74.2 117.13 74.4797 116.609 74.5927C116.08 74.7078 115.516 74.644 114.95 74.3351C113.544 73.5684 113.153 71.942 113.125 70.5117C113.106 69.5388 113.252 68.578 113.422 67.8703C113.098 68.0997 112.693 68.3843 112.256 68.6537C111.599 69.0591 110.822 69.4623 110.037 69.6447C109.246 69.8284 108.401 69.7967 107.672 69.2668C106.956 68.7455 106.672 68.0438 106.672 67.3021C106.672 66.5841 106.936 65.8399 107.277 65.1713C107.578 64.5817 107.955 64.0223 108.311 63.5514C107.727 63.728 107.096 63.8582 106.488 63.8807C105.878 63.9033 105.259 63.8189 104.733 63.5332C104.193 63.2403 103.782 62.7527 103.578 62.0395C103.369 61.3079 103.501 60.5636 103.812 59.8675C104.121 59.1731 104.619 58.5011 105.187 57.8875C105.992 57.0163 106.967 56.2329 107.825 55.6378C107.312 55.5372 106.769 55.3642 106.29 55.0889C105.843 54.8326 105.436 54.4786 105.167 53.9966C104.896 53.5099 104.782 52.9214 104.881 52.2297C104.988 51.484 105.41 50.9235 105.981 50.5168C106.544 50.1157 107.261 49.8549 108.006 49.6871C108.91 49.4835 109.896 49.4082 110.781 49.4054C110.448 49.1297 110.133 48.8037 109.886 48.4319C109.591 47.9867 109.385 47.464 109.375 46.8785C109.366 46.2902 109.554 45.6734 109.989 45.0451C110.45 44.3798 111.048 44.0636 111.711 44.0411C112.347 44.0196 112.993 44.2697 113.583 44.6224C114.449 45.1402 115.283 45.9331 115.931 46.6726C116.029 45.9745 116.203 45.1751 116.482 44.4405C116.898 43.3474 117.609 42.2457 118.796 42.0298C119.429 41.9148 119.969 42.143 120.4 42.5345C120.82 42.9161 121.15 43.4635 121.409 44.0476C121.738 44.7872 121.976 45.6363 122.135 46.4065C122.467 45.8371 122.884 45.2403 123.363 44.7473C124.167 43.9207 125.278 43.2638 126.485 43.8125C127.629 44.3322 128.092 45.4276 128.234 46.4798C128.319 47.1075 128.296 47.7506 128.222 48.3148C128.939 47.8465 129.815 47.3605 130.68 47.0445C131.298 46.8184 131.939 46.6686 132.526 46.6931C133.124 46.7181 133.69 46.927 134.087 47.438C134.862 48.4345 134.513 49.5764 133.937 50.4662C133.554 51.0579 133.036 51.602 132.542 52.0349C133.397 52.2076 134.391 52.5041 135.241 52.957C136.407 53.5777 137.448 54.5814 137.236 56.0688C137.139 56.7448 136.904 57.2619 136.555 57.6335C136.206 58.0059 135.772 58.2027 135.329 58.2856C134.929 58.3607 134.514 58.3444 134.125 58.2781C134.802 59.2905 135.531 60.5598 136.018 61.8113C136.348 62.6595 136.577 63.5251 136.588 64.3105C136.599 65.1009 136.388 65.8499 135.794 66.3901C135.215 66.9157 134.639 67.1921 134.073 67.2524C133.506 67.3127 132.997 67.1509 132.563 66.8853C132.405 66.7882 132.254 66.6762 132.113 66.554ZM116.632 54.1831C116.674 54.4007 116.531 54.6109 116.314 54.6527C115.404 54.8276 114.061 55.2808 113 56.0565C111.945 56.8279 111.221 57.8721 111.375 59.2552C111.473 60.1408 111.82 60.5124 112.216 60.6597C112.659 60.8249 113.292 60.7611 114.043 60.4846C115.534 59.9353 117.171 58.6656 117.892 57.7383C118.028 57.5634 118.28 57.5319 118.455 57.6679C118.63 57.8039 118.661 58.0559 118.525 58.2308C117.712 59.2759 115.952 60.636 114.32 61.2373C113.509 61.5361 112.65 61.6777 111.935 61.4114C111.173 61.1273 110.698 60.4305 110.578 59.3438C110.381 57.571 111.338 56.2775 112.526 55.4089C113.709 54.5445 115.172 54.0553 116.162 53.865C116.38 53.8231 116.59 53.9656 116.632 54.1831ZM127.549 56.716C127.765 56.6687 127.979 56.8058 128.026 57.0223C128.287 58.2185 128.483 60.0305 128.197 61.5646C128.054 62.3323 127.783 63.0679 127.304 63.6175C126.812 64.1817 126.124 64.522 125.222 64.522C124.337 64.522 123.629 64.2323 123.081 63.7511C122.541 63.2766 122.177 62.6345 121.935 61.9541C121.454 60.5996 121.424 58.9998 121.537 57.9417C121.561 57.7214 121.759 57.562 121.979 57.5857C122.199 57.6094 122.359 57.8071 122.335 58.0274C122.229 59.0147 122.264 60.4831 122.691 61.6854C122.903 62.2835 123.205 62.7919 123.611 63.1484C124.009 63.4981 124.528 63.7198 125.222 63.7198C125.897 63.7198 126.363 63.4757 126.699 63.0903C127.048 62.6902 127.279 62.1108 127.409 61.4175C127.667 60.0295 127.492 58.3349 127.242 57.1935C127.195 56.9771 127.332 56.7633 127.549 56.716Z" fill="#111111"/>
<path fill-rule="evenodd" clip-rule="evenodd" d="M128.375 54.0414C128.375 53.4876 128.824 53.0388 129.378 53.0391C130.088 53.0394 130.749 53.0978 131.405 53.3049C132.069 53.5142 132.67 53.857 133.292 54.3545C133.724 54.7005 133.794 55.3315 133.448 55.764C133.102 56.1965 132.471 56.2666 132.039 55.9206C131.565 55.5416 131.18 55.3367 130.802 55.2175C130.417 55.096 129.982 55.0449 129.377 55.0446C128.824 55.0444 128.375 54.5952 128.375 54.0414Z" fill="white"/>
<path fill-rule="evenodd" clip-rule="evenodd" d="M116.231 70.8203C115.678 70.8203 115.229 70.3714 115.229 69.8176C115.229 69.1297 115.229 68.1534 115.603 66.7158C115.743 66.1799 116.291 65.8586 116.827 65.9981C117.362 66.1377 117.684 66.6853 117.544 67.2212C117.234 68.4119 117.234 69.1883 117.234 69.8149L117.234 69.8176C117.234 70.3714 116.785 70.8203 116.231 70.8203Z" fill="white"/>
</svg>
