<svg width="159" height="128" viewBox="0 0 159 128" fill="none" xmlns="http://www.w3.org/2000/svg">
<path d="M83.0646 39.0295C76.383 40.6592 74.0336 57.6348 73.6941 65.9189C73.5353 68.5671 71.4533 68.9746 62.0828 75.2896C54.5863 80.3415 58.2802 86.6293 61.0642 89.1417C55.6999 90.4997 45.3787 95.0899 47.0084 102.586C48.6381 110.083 56.2431 111.414 59.842 111.142C59.5703 111.55 60.1679 113.79 64.7309 119.494C69.294 125.198 77.225 121.871 80.6201 119.494C96.1019 133.998 100.516 123.908 100.787 117.05C104.114 118.476 111.217 118.842 113.01 108.901C114.802 98.9604 108.224 89.273 102.384 84.9272C118.07 89.0014 102.213 71.2153 96.5093 64.9004C90.8055 58.5855 91.4166 36.9925 83.0646 39.0295Z" fill="#00BC68"/>
<path fill-rule="evenodd" clip-rule="evenodd" d="M85.6264 39.6528C84.925 39.2925 84.1208 39.1844 83.163 39.418C81.6461 39.7879 80.32 41.0452 79.1771 42.958C78.0389 44.863 77.1198 47.3567 76.3919 50.0811C74.9368 55.5272 74.2672 61.811 74.0982 65.9341L74.0978 65.9417C74.0545 66.6648 73.8757 67.2629 73.4603 67.8442C73.0564 68.4094 72.4435 68.9372 71.5793 69.5543C70.7683 70.1335 69.7046 70.8125 68.333 71.688C68.2391 71.7479 68.1439 71.8087 68.0471 71.8705C66.5325 72.8376 64.6488 74.045 62.3103 75.6209C60.4806 76.854 59.3593 78.145 58.7323 79.4089C58.1064 80.6704 57.9617 81.927 58.1193 83.1139C58.437 85.5051 59.9868 87.6247 61.3363 88.8426C61.4462 88.9418 61.4925 89.0933 61.4569 89.237C61.4213 89.3806 61.3095 89.4929 61.166 89.5292C58.5162 90.2001 54.6478 91.6695 51.6555 93.8833C48.6561 96.1024 46.6393 98.9833 47.4037 102.5C48.1878 106.107 50.4002 108.223 52.8648 109.415C55.3439 110.614 58.0716 110.872 59.8151 110.741C59.9681 110.729 60.1142 110.806 60.1916 110.938C60.2641 111.062 60.2644 111.215 60.1944 111.338C60.1931 111.347 60.1915 111.362 60.1914 111.385C60.1909 111.452 60.2027 111.561 60.2421 111.718C60.3209 112.033 60.4979 112.499 60.833 113.146C61.502 114.438 62.7745 116.401 65.0475 119.242C67.2142 121.951 70.1764 122.529 73.0614 122.126C75.9597 121.721 78.7324 120.327 80.3935 119.164C80.5489 119.055 80.7593 119.07 80.8977 119.2C84.749 122.808 87.8835 124.859 90.4103 125.819C92.9288 126.777 94.8181 126.643 96.2286 125.924C97.65 125.199 98.6586 123.842 99.3311 122.21C100.003 120.58 100.323 118.713 100.39 117.032C100.395 116.901 100.465 116.78 100.576 116.709C100.688 116.639 100.827 116.628 100.949 116.68C102.547 117.365 105.039 117.786 107.327 116.865C109.584 115.956 111.74 113.7 112.618 108.829C113.495 103.967 112.327 99.1496 110.205 94.9973C108.082 90.8435 105.018 87.3832 102.148 85.2477C101.994 85.1332 101.943 84.9256 102.026 84.7526C102.109 84.5795 102.303 84.4895 102.489 84.5377C104.431 85.0423 105.845 85.1967 106.832 85.0952C107.812 84.9943 108.305 84.6513 108.535 84.2163C108.778 83.755 108.793 83.0706 108.539 82.1516C108.289 81.2437 107.795 80.1765 107.123 79.0083C104.433 74.3263 99.0748 68.3342 96.215 65.168C94.7242 63.5174 93.6727 60.9067 92.7964 58.0229C92.2507 56.2271 91.762 54.284 91.2792 52.3641C90.9865 51.2003 90.696 50.0451 90.3962 48.9364C89.5935 45.9676 88.7219 43.3201 87.5549 41.5434C86.9743 40.6595 86.3376 40.0182 85.6264 39.6528ZM93.5639 57.7896C94.4382 60.6669 95.4492 63.1233 96.8103 64.6303C99.6543 67.779 105.077 73.8374 107.819 78.6086C108.506 79.8037 109.036 80.9374 109.312 81.938C109.586 82.9275 109.63 83.859 109.244 84.5909C108.844 85.349 108.047 85.7765 106.914 85.8932C106.133 85.9736 105.161 85.9112 103.979 85.6939C106.524 87.9032 109.07 91.0134 110.92 94.6323C113.098 98.8953 114.324 103.892 113.408 108.971C112.493 114.041 110.201 116.572 107.627 117.609C105.33 118.534 102.886 118.236 101.161 117.623C101.048 119.224 100.714 120.961 100.073 122.516C99.3576 124.252 98.2442 125.797 96.593 126.639C94.931 127.486 92.797 127.585 90.1252 126.569C87.5157 125.577 84.3693 123.515 80.5849 120.005C78.83 121.178 76.0762 122.515 73.1724 122.92C70.1023 123.349 66.8174 122.739 64.4211 119.743C62.1311 116.881 60.8233 114.872 60.1206 113.515C59.7699 112.838 59.5633 112.311 59.4638 111.913C59.433 111.789 59.4112 111.674 59.3994 111.567C57.5507 111.63 54.9304 111.305 52.5154 110.137C49.8704 108.858 47.4654 106.56 46.6198 102.67C45.7546 98.6905 48.0835 95.5281 51.1784 93.2384C54.0269 91.131 57.6111 89.6899 60.2797 88.9364C58.9821 87.5969 57.6336 85.5492 57.3241 83.2195C57.1473 81.8888 57.3107 80.4693 58.0136 79.0524C58.7153 77.638 59.9434 76.2486 61.862 74.9557C64.2088 73.3741 66.0992 72.1625 67.6154 71.1943C67.7088 71.1347 67.8007 71.076 67.8912 71.0183C69.2736 70.1358 70.3199 69.4679 71.1131 68.9015C71.9606 68.2963 72.4836 67.8311 72.8076 67.3778C73.1194 66.9414 73.2604 66.4964 73.2968 65.8974C73.4676 61.7363 74.1425 55.3925 75.6169 49.874C76.354 47.1153 77.2963 44.5417 78.4884 42.5466C79.6759 40.5593 81.1491 39.0834 82.9729 38.6386C84.1032 38.3629 85.1068 38.484 85.993 38.9393C86.8693 39.3895 87.5996 40.1503 88.2254 41.103C89.471 42.9993 90.3691 45.7628 91.1706 48.727C91.4787 49.8666 91.7723 51.0344 92.0659 52.2024C92.544 54.1045 93.0223 56.0073 93.5639 57.7896Z" fill="#111111"/>
<path d="M74.872 71.1957C75.0599 74.5656 77.3457 77.1785 79.9776 77.0317C82.6094 76.885 84.5907 74.0341 84.4027 70.6642C84.2148 67.2943 81.929 64.6815 79.2971 64.8282C76.6653 64.975 74.684 67.8258 74.872 71.1957Z" fill="white"/>
<path fill-rule="evenodd" clip-rule="evenodd" d="M79.9329 76.2307C77.9165 76.3432 75.8471 74.2742 75.6729 71.151C75.4988 68.0279 77.3253 65.7416 79.3418 65.6292C81.3582 65.5168 83.4276 67.5857 83.6018 70.7089C83.7759 73.8321 81.9494 76.1183 79.9329 76.2307ZM79.9776 77.0317C77.3457 77.1785 75.0599 74.5656 74.872 71.1957C74.684 67.8258 76.6653 64.975 79.2971 64.8282C81.929 64.6815 84.2148 67.2943 84.4027 70.6642C84.5907 74.0341 82.6094 76.885 79.9776 77.0317Z" fill="#111111"/>
<path d="M76.1682 72.7559C76.2809 75.1158 78.0121 76.9505 80.0349 76.8538C82.0577 76.7571 83.606 74.7657 83.4933 72.4058C83.3805 70.0459 81.6493 68.2112 79.6265 68.3078C77.6037 68.4045 76.0554 70.396 76.1682 72.7559Z" fill="#111111"/>
<path d="M83.5432 70.6803C83.5163 74.0553 85.5009 76.8073 87.9759 76.827C90.4509 76.8467 92.4791 74.1267 92.506 70.7517C92.5329 67.3766 90.5483 64.6246 88.0733 64.6049C85.5982 64.5852 83.57 67.3052 83.5432 70.6803Z" fill="white"/>
<path fill-rule="evenodd" clip-rule="evenodd" d="M85.472 74.5426C84.7797 73.5826 84.3331 72.2215 84.3454 70.6867C84.3576 69.1518 84.8257 67.798 85.5333 66.8491C86.2412 65.8998 87.1463 65.3998 88.0669 65.4071C88.9874 65.4145 89.8845 65.9288 90.5772 66.8893C91.2695 67.8493 91.716 69.2104 91.7038 70.7453C91.6916 72.2801 91.2234 73.6339 90.5159 74.5828C89.808 75.5322 88.9029 76.0321 87.9823 76.0248C87.0617 76.0175 86.1647 75.5032 85.472 74.5426ZM87.9759 76.827C85.5009 76.8073 83.5163 74.0553 83.5432 70.6803C83.57 67.3052 85.5982 64.5852 88.0733 64.6049C90.5483 64.6246 92.5329 67.3766 92.506 70.7517C92.4791 74.1267 90.4509 76.8467 87.9759 76.827Z" fill="#111111"/>
<path d="M84.4625 71.6485C84.1615 73.9918 85.5457 76.1006 87.5543 76.3586C89.5629 76.6167 91.4352 74.9262 91.7362 72.5828C92.0372 70.2395 90.653 68.1307 88.6444 67.8727C86.6358 67.6146 84.7635 69.3051 84.4625 71.6485Z" fill="#111111"/>
<path d="M78.066 80.184C80.6792 79.4574 79.6028 80.7307 78.7379 81.4581C78.7636 83.5274 79.5066 88.1358 82.2737 90.0157C85.0408 91.8956 88.27 86.613 88.4544 83.1161C88.0652 82.9957 86.8683 82.4014 87.333 81.9161C87.6481 81.5872 88.862 81.1099 90.0898 81.2766C91.3196 81.4435 89.9123 82.9986 89.2328 83.357C89.5943 85.1748 88.2412 88.5997 85.9247 91.124C83.029 94.2795 80.5038 91.6004 79.3546 89.1123C78.4353 87.1219 77.7913 83.3687 77.5843 81.7409C76.656 81.5247 75.4529 80.9107 78.066 80.184Z" fill="#111111"/>
<path d="M113.495 72.3383C111.972 77.2535 106.446 82.5109 102.424 83.8264C100.129 84.5772 100.806 87.0438 102.048 90.452C103.29 93.8603 109.095 91.2241 112.636 88.5201C119.211 83.5003 122.354 73.6428 123.482 69.4312C124.146 66.9525 124.81 64.4739 125.031 58.329C125.031 53.3537 124.589 50.9155 123.703 50.5663C122.818 50.2171 121.9 51.3088 121.711 52.2451C121.875 51.4199 121.721 48.5526 120.595 48.5526C119.815 48.5526 119.604 49.0833 119.229 50.5663C119.358 50.03 119.085 48.4844 118.082 48.2802C117.142 48.0885 116.612 48.7771 116.378 51.2963C116.448 50.5501 116.39 49.0021 115.603 48.7797C114.817 48.5573 114.01 48.5526 113.514 53.6245C111.53 53.143 111.959 56.523 111.53 61.255C111.323 63.5355 111.835 67.7448 114.49 68.2403C114.536 68.7399 113.822 71.2817 113.495 72.3383Z" fill="#FDFBEF"/>
<path fill-rule="evenodd" clip-rule="evenodd" d="M117.611 48.6817C117.701 48.6442 117.824 48.6308 118.007 48.668C118.305 48.7287 118.55 49.0029 118.709 49.4329C118.867 49.8603 118.885 50.2955 118.845 50.4655C118.426 52.121 118.155 54.3621 118.193 55.8964L118.995 55.8764C118.959 54.423 119.22 52.2535 119.623 50.6595C119.815 49.9015 119.948 49.4643 120.106 49.2094C120.177 49.0944 120.241 49.0385 120.3 49.0066C120.361 48.9739 120.45 48.9486 120.6 48.9486C120.681 48.9486 120.794 48.9922 120.929 49.2159C121.064 49.4391 121.172 49.7704 121.248 50.1605C121.4 50.9442 121.392 51.8131 121.323 52.1618C121.32 52.1747 121.318 52.1876 121.317 52.2007C121.243 52.9547 121.094 54.7883 121.094 56.0705H121.896C121.896 54.8406 122.039 53.0607 122.113 52.3003C122.195 51.9182 122.428 51.4942 122.728 51.209C123.036 50.9155 123.325 50.8413 123.561 50.9343C123.643 50.9666 123.778 51.0747 123.926 51.3915C124.071 51.7011 124.201 52.1548 124.309 52.7763C124.524 54.0156 124.635 55.8391 124.635 58.3166C124.415 64.4108 123.759 66.8597 123.102 69.3116L123.1 69.3222C122.539 71.4155 121.479 74.9061 119.745 78.4929C118.01 82.0845 115.614 85.7405 112.398 88.1962C110.652 89.5294 108.361 90.8338 106.377 91.3867C105.383 91.6638 104.508 91.74 103.829 91.5736C103.178 91.4138 102.692 91.0289 102.43 90.3096C101.805 88.593 101.351 87.1855 101.316 86.1242C101.298 85.6028 101.384 85.2043 101.569 84.9041C101.749 84.6108 102.051 84.367 102.554 84.2025C104.647 83.5179 107.086 81.8285 109.187 79.7095C111.289 77.5886 113.096 74.9916 113.883 72.4518C114.049 71.9178 114.311 71.012 114.526 70.1753C114.634 69.7572 114.731 69.352 114.799 69.017C114.832 68.8497 114.86 68.6956 114.877 68.5639C114.893 68.4403 114.905 68.3083 114.895 68.1985C114.879 68.0198 114.746 67.8737 114.569 67.8408C113.467 67.6351 112.745 66.6482 112.325 65.293C111.91 63.9546 111.834 62.3866 111.934 61.2861C112.034 60.1819 112.088 59.151 112.136 58.232C112.14 58.1588 112.144 58.0863 112.147 58.0146C112.199 57.0356 112.247 56.203 112.341 55.5356C112.437 54.8527 112.574 54.4197 112.752 54.1857C112.832 54.08 112.913 54.025 113.001 53.9979C113.092 53.9695 113.226 53.9609 113.424 54.0091C113.442 54.0135 113.492 54.0336 113.565 54.1315C113.638 54.2298 113.713 54.3794 113.783 54.5845C113.924 54.994 114.022 55.5488 114.082 56.1556C114.203 57.3682 114.168 58.6898 114.098 59.2481C114.073 59.4438 114.194 59.6284 114.384 59.6835C114.867 59.8242 115.372 60.2018 115.822 60.6594C116.266 61.1105 116.619 61.6006 116.804 61.906L117.49 61.4904C117.276 61.1369 116.885 60.5964 116.394 60.0968C115.985 59.6817 115.48 59.2667 114.925 59.0278C114.979 58.3198 114.988 57.1542 114.881 56.0759C114.818 55.445 114.712 54.8192 114.542 54.3237C114.457 54.0763 114.349 53.8423 114.209 53.6532C114.136 53.5551 114.049 53.4619 113.945 53.3861C114.062 52.2634 114.194 51.4155 114.335 50.7784C114.489 50.086 114.65 49.6663 114.799 49.4176C114.942 49.1781 115.054 49.1291 115.115 49.1141C115.199 49.0936 115.307 49.1062 115.499 49.1605C115.571 49.1807 115.649 49.2354 115.729 49.3658C115.81 49.4996 115.877 49.6878 115.924 49.917C116.018 50.3742 116.016 50.905 115.984 51.2524C115.984 51.2529 115.984 51.2535 115.984 51.2541C115.946 51.6618 115.897 52.0701 115.846 52.4874C115.757 53.2218 115.665 53.9842 115.627 54.8203L116.428 54.8571C116.465 54.0434 116.551 53.3424 116.637 52.6336C116.689 52.2098 116.741 51.7833 116.783 51.3282C116.783 51.3282 116.783 51.3282 116.783 51.3281C116.899 50.0716 117.086 49.3516 117.314 48.9736C117.421 48.7962 117.523 48.7182 117.611 48.6817ZM116.427 48.9712C116.488 48.8173 116.554 48.6802 116.627 48.5594C116.799 48.2737 117.02 48.0581 117.304 47.9407C117.584 47.8242 117.88 47.8234 118.168 47.882C118.763 48.0033 119.137 48.4515 119.356 48.9062C119.378 48.8646 119.401 48.8248 119.424 48.7869C119.55 48.5839 119.708 48.4144 119.92 48.3005C120.13 48.1873 120.36 48.1463 120.6 48.1463C121.082 48.1463 121.41 48.4612 121.616 48.8009C121.821 49.141 121.952 49.5781 122.036 50.008C122.077 50.2243 122.109 50.4484 122.131 50.6701C122.145 50.6558 122.16 50.6418 122.174 50.6279C122.594 50.2288 123.206 49.9318 123.856 50.188C124.216 50.3303 124.469 50.6579 124.653 51.052C124.84 51.4533 124.986 51.9855 125.1 52.6391C125.327 53.9488 125.438 55.8298 125.438 58.3239C125.438 58.3287 125.437 58.3335 125.437 58.3383C125.215 64.5198 124.544 67.029 123.874 69.5298C123.307 71.6482 122.232 75.1921 120.468 78.842C118.706 82.487 116.243 86.2696 112.885 88.8338C111.09 90.2046 108.707 91.5702 106.593 92.1594C105.538 92.4533 104.508 92.5661 103.638 92.3527C102.741 92.1327 102.035 91.569 101.676 90.5842C101.06 88.8925 100.554 87.3626 100.514 86.1508C100.493 85.5356 100.591 84.9637 100.886 84.4838C101.185 83.9969 101.66 83.6509 102.304 83.44C104.233 82.809 106.568 81.212 108.617 79.1447C110.664 77.0793 112.381 74.5899 113.117 72.2145C113.279 71.6919 113.537 70.7985 113.749 69.9753C113.855 69.5633 113.949 69.1734 114.012 68.8583C114.036 68.739 114.056 68.6329 114.07 68.542C112.736 68.1253 111.971 66.8611 111.559 65.5307C111.106 64.0705 111.028 62.3936 111.135 61.2136C111.234 60.1254 111.287 59.109 111.335 58.1883C111.339 58.1158 111.343 58.0439 111.346 57.9725C111.397 57.002 111.447 56.1324 111.547 55.4235C111.645 54.7301 111.8 54.1126 112.113 53.7004C112.278 53.483 112.492 53.3159 112.763 53.2318C112.891 53.1919 113.024 53.1732 113.161 53.1726C113.276 52.0947 113.408 51.2554 113.552 50.6043C113.714 49.8781 113.897 49.3619 114.111 49.0056C114.329 48.6401 114.598 48.415 114.924 48.3349C115.229 48.2603 115.517 48.3318 115.718 48.3886C116.039 48.4796 116.263 48.7019 116.413 48.9475C116.418 48.9554 116.423 48.9632 116.427 48.9712Z" fill="#111111"/>
<path d="M115.197 23.0385L111.258 22.1523L110.273 25.6971L114.212 26.5833L115.197 23.0385Z" fill="#FFEB34"/>
<path d="M60.0561 24.5151L56.1175 23.6289L55.1328 27.1737L59.0714 28.0599L60.0561 24.5151Z" fill="#00BC68"/>
<path d="M130.905 51.2031L127.484 53.6907L130.283 57.1111L133.392 54.6235L130.905 51.2031Z" fill="#EF8BBD"/>
<path d="M3.89695 33.4766L0.476562 35.9641L3.27506 39.3845L6.3845 36.8969L3.89695 33.4766Z" fill="#FFEB34"/>
<path d="M24.1001 93.043L20.6797 95.5305L23.4782 98.9509L26.5876 96.4634L24.1001 93.043Z" fill="#C9B4EF"/>
<path d="M141.598 22.2166C139.137 21.9691 137.085 24.5883 136.367 25.9288C140.06 25.3101 143.444 30.2596 146.829 32.1157C150.214 33.9718 152.06 33.9718 153.906 31.8063C155.753 29.6409 153.291 24.0727 152.676 22.2166C152.06 20.3606 151.445 16.9577 152.06 16.339C152.552 15.844 154.112 17.3702 154.829 18.1951L158.522 14.1736C158.522 14.0704 157.722 13.3692 154.522 11.3894C151.075 9.65706 148.573 12.3174 147.752 13.8642C147.239 14.7922 146.46 17.4526 147.445 20.6698C148.429 23.887 148.675 26.1349 148.675 26.8568C147.342 25.4132 144.06 22.4641 141.598 22.2166Z" fill="#A184E1"/>
<path d="M32.1675 14.8416C34.6291 14.5941 36.6805 17.2133 37.3984 18.5538C33.706 17.9351 30.3212 22.8846 26.9365 24.7407C23.5517 26.5968 21.7055 26.5968 19.8592 24.4313C18.013 22.2659 20.4747 16.6977 21.0901 14.8416C21.7055 12.9856 22.3209 9.58269 21.7055 8.96399C21.2132 8.46904 19.6541 9.99515 18.9361 10.8201L15.2437 6.79856C15.2437 6.69544 16.0437 5.99423 19.2438 4.01441C22.6901 2.28206 25.1928 4.94245 26.0133 6.48918C26.5262 7.41722 27.3057 10.0776 26.3211 13.2948C25.3364 16.512 25.0902 18.7599 25.0902 19.4818C26.4236 18.0382 29.7058 15.0891 32.1675 14.8416Z" fill="#F77D0E"/>
<path d="M86.8502 0L88.4049 5.55747L92.4472 1.54374L95.2457 4.32247L91.2034 8.3362L96.4894 9.87994L95.2457 13.2762L89.9596 11.4237L91.5143 17.2899L88.0939 18.2161L86.5392 12.9674L82.497 16.9811L79.6985 14.2024L84.0517 9.87994L78.7656 8.64495L79.3875 5.24872L84.6736 6.48371L83.1188 1.23499L86.8502 0Z" fill="#199EF0"/>
<path d="M133.616 70.4062L135.171 75.9637L139.213 71.95L142.011 74.7287L137.969 78.7424L143.255 80.2862L142.011 83.6824L136.725 81.8299L138.28 87.6961L134.86 88.6224L133.305 83.3737L129.263 87.3874L126.464 84.6087L130.817 80.2862L125.531 79.0512L126.153 75.655L131.439 76.89L129.884 71.6412L133.616 70.4062Z" fill="#F77D0E"/>
<path d="M16.0326 55.1367L14.4779 60.6942L10.4356 56.6805L7.63715 59.4592L11.6794 63.4729L6.39338 65.0167L7.63715 68.4129L12.9232 66.5604L11.3685 72.4266L14.7889 73.3529L16.3436 68.1041L20.3859 72.1179L23.1844 69.3391L18.8311 65.0167L24.1172 63.7817L23.4953 60.3854L18.2093 61.6204L19.764 56.3717L16.0326 55.1367Z" fill="#EF8BBD"/>
<path d="M53.3411 72.3383C54.8636 77.2535 60.3901 82.5109 64.4119 83.8264C66.7073 84.5772 66.0298 87.0438 64.7878 90.452C63.5458 93.8603 57.741 91.2241 54.1996 88.5201C47.6251 83.5003 44.4823 73.6428 43.3541 69.4312C42.69 66.9525 42.026 64.4739 41.8047 58.329C41.8047 53.3537 42.2474 50.9155 43.1327 50.5663C44.0181 50.2171 44.9364 51.3088 45.1248 52.2451C44.961 51.4199 45.1151 48.5526 46.2413 48.5526C47.0211 48.5526 47.2319 49.0833 47.6069 50.5663C47.4779 50.03 47.7512 48.4844 48.7536 48.2802C49.6942 48.0885 50.224 48.7771 50.4576 51.2963C50.3884 50.5501 50.4464 49.0021 51.2327 48.7797C52.0189 48.5573 52.8264 48.5526 53.3223 53.6245C55.3063 53.143 54.8769 56.523 55.3063 61.255C55.5133 63.5355 55.0011 67.7448 52.3455 68.2403C52.2997 68.7399 53.0138 71.2817 53.3411 72.3383Z" fill="#FDFBEF"/>
<path fill-rule="evenodd" clip-rule="evenodd" d="M49.2172 48.6817C49.1269 48.6442 49.0037 48.6308 48.8207 48.668C48.5228 48.7287 48.2785 49.0029 48.1191 49.4329C47.9607 49.8603 47.9434 50.2955 47.9835 50.4655C48.4017 52.121 48.6729 54.3621 48.6347 55.8964L47.8327 55.8764C47.869 54.423 47.6081 52.2535 47.205 50.6595C47.0134 49.9015 46.8799 49.4643 46.722 49.2094C46.6507 49.0944 46.5868 49.0385 46.5277 49.0066C46.467 48.9739 46.3781 48.9486 46.2284 48.9486C46.1472 48.9486 46.0343 48.9922 45.8991 49.2159C45.7641 49.4391 45.6557 49.7704 45.5802 50.1605C45.4283 50.9442 45.436 51.8131 45.5052 52.1618C45.5078 52.1747 45.5097 52.1876 45.511 52.2007C45.5851 52.9547 45.7343 54.7883 45.7343 56.0705H44.932C44.932 54.8406 44.7888 53.0607 44.7147 52.3003C44.6331 51.9182 44.4002 51.4942 44.1006 51.209C43.7923 50.9155 43.5026 50.8413 43.2669 50.9343C43.1851 50.9666 43.0501 51.0747 42.9022 51.3915C42.7576 51.7011 42.6268 52.1548 42.5189 52.7763C42.3038 54.0156 42.1931 55.8391 42.1928 58.3166C42.4128 64.4108 43.0689 66.8597 43.7257 69.3116L43.7285 69.3222C44.2893 71.4155 45.3494 74.9061 47.0827 78.4929C48.8183 82.0845 51.2139 85.7405 54.4301 88.1962C56.1762 89.5294 58.4669 90.8338 60.4507 91.3867C61.4452 91.6638 62.3206 91.74 62.999 91.5736C63.6505 91.4138 64.1359 91.0289 64.398 90.3096C65.0236 88.593 65.4774 87.1855 65.5125 86.1242C65.5298 85.6028 65.4437 85.2043 65.259 84.9041C65.0787 84.6108 64.7772 84.367 64.2743 84.2025C62.1815 83.5179 59.7418 81.8285 57.6415 79.7095C55.5393 77.5886 53.7317 74.9916 52.945 72.4518C52.7795 71.9178 52.5174 71.012 52.302 70.1753C52.1943 69.7572 52.0972 69.352 52.0295 69.017C51.9958 68.8497 51.9685 68.6956 51.9511 68.5639C51.9347 68.4403 51.923 68.3083 51.9331 68.1985C51.9495 68.0198 52.0825 67.8737 52.2589 67.8408C53.3616 67.6351 54.0829 66.6482 54.5033 65.293C54.9186 63.9546 54.9938 62.3866 54.8939 61.2861C54.7937 60.1819 54.7399 59.151 54.692 58.232C54.6882 58.1588 54.6844 58.0863 54.6806 58.0146C54.6293 57.0356 54.5814 56.203 54.4871 55.5356C54.3907 54.8527 54.2543 54.4197 54.0766 54.1857C53.9962 54.08 53.9148 54.025 53.8276 53.9979C53.736 53.9695 53.6025 53.9609 53.4039 54.0091C53.3859 54.0135 53.3359 54.0336 53.2632 54.1315C53.1902 54.2298 53.1152 54.3794 53.0447 54.5845C52.9039 54.994 52.8065 55.5488 52.7459 56.1556C52.6248 57.3682 52.6599 58.6898 52.7304 59.2481C52.7552 59.4438 52.634 59.6284 52.4446 59.6835C51.9609 59.8242 51.4564 60.2018 51.0063 60.6594C50.5626 61.1105 50.2093 61.6006 50.0244 61.906L49.3382 61.4904C49.5523 61.1369 49.943 60.5964 50.4343 60.0968C50.8427 59.6817 51.3479 59.2667 51.9031 59.0278C51.8489 58.3198 51.8399 57.1542 51.9476 56.0759C52.0106 55.445 52.1157 54.8192 52.286 54.3237C52.3711 54.0763 52.4787 53.8423 52.6191 53.6532C52.692 53.5551 52.7793 53.4619 52.8827 53.3861C52.7662 52.2634 52.6343 51.4155 52.4927 50.7784C52.3387 50.086 52.1781 49.6663 52.0293 49.4176C51.8859 49.1781 51.7739 49.1291 51.7127 49.1141C51.6292 49.0936 51.5211 49.1062 51.3289 49.1605C51.2575 49.1807 51.1792 49.2354 51.0994 49.3658C51.0177 49.4996 50.9513 49.6878 50.9043 49.917C50.8106 50.3742 50.8118 50.905 50.8439 51.2524C50.844 51.2529 50.844 51.2535 50.8441 51.2541C50.8819 51.6618 50.9314 52.0701 50.9819 52.4874C51.0708 53.2218 51.1632 53.9842 51.2016 54.8203L50.4002 54.8571C50.3628 54.0434 50.2774 53.3424 50.1911 52.6336C50.1395 52.2098 50.0875 51.7833 50.0453 51.3282C50.0453 51.3282 50.0453 51.3282 50.0453 51.3281C49.9287 50.0716 49.7422 49.3516 49.5143 48.9736C49.4073 48.7962 49.3053 48.7182 49.2172 48.6817ZM50.4007 48.9712C50.3404 48.8173 50.2741 48.6802 50.2013 48.5594C50.029 48.2737 49.8077 48.0581 49.5245 47.9407C49.2437 47.8242 48.9479 47.8234 48.6606 47.882C48.065 48.0033 47.6916 48.4515 47.4722 48.9062C47.4501 48.8646 47.4274 48.8248 47.4039 48.7869C47.2782 48.5839 47.1198 48.4144 46.9083 48.3005C46.6984 48.1873 46.4686 48.1463 46.2284 48.1463C45.7465 48.1463 45.4178 48.4612 45.2125 48.8009C45.0069 49.141 44.8758 49.5781 44.7926 50.008C44.7507 50.2243 44.7192 50.4484 44.697 50.6701C44.6827 50.6558 44.6683 50.6418 44.6537 50.6279C44.2344 50.2288 43.6223 49.9318 42.9726 50.188C42.6118 50.3303 42.3594 50.6579 42.1753 51.052C41.9879 51.4533 41.842 51.9855 41.7285 52.6391C41.5012 53.9488 41.3906 55.8298 41.3906 58.3239C41.3906 58.3287 41.3907 58.3335 41.3909 58.3383C41.6135 64.5198 42.2837 67.029 42.9537 69.5298C43.5212 71.6482 44.5966 75.1921 46.3604 78.842C48.1219 82.487 50.585 86.2696 53.9433 88.8338C55.7386 90.2046 58.1209 91.5702 60.2354 92.1594C61.29 92.4533 62.32 92.5661 63.1901 92.3527C64.0869 92.1327 64.7929 91.569 65.1518 90.5842C65.7682 88.8925 66.2741 87.3626 66.3143 86.1508C66.3347 85.5356 66.2375 84.9637 65.9424 84.4838C65.643 83.9969 65.1684 83.6509 64.5237 83.44C62.5947 82.809 60.2602 81.212 58.2112 79.1447C56.164 77.0793 54.4471 74.5899 53.7113 72.2145C53.5494 71.6919 53.2908 70.7985 53.0788 69.9753C52.9728 69.5633 52.8795 69.1734 52.8159 68.8583C52.7918 68.739 52.7725 68.6329 52.7584 68.542C54.0917 68.1253 54.8568 66.8611 55.2695 65.5307C55.7225 64.0705 55.7999 62.3936 55.6928 61.2136C55.5941 60.1254 55.5411 59.109 55.493 58.1883C55.4892 58.1158 55.4855 58.0439 55.4817 57.9725C55.4308 57.002 55.3816 56.1324 55.2815 55.4235C55.1836 54.7301 55.0285 54.1126 54.7154 53.7004C54.5502 53.483 54.3363 53.3159 54.0656 53.2318C53.9371 53.1919 53.8038 53.1732 53.6669 53.1726C53.5517 52.0947 53.4205 51.2554 53.2757 50.6043C53.1143 49.8781 52.9309 49.3619 52.7176 49.0056C52.4988 48.6401 52.2305 48.415 51.9036 48.3349C51.5992 48.2603 51.3115 48.3318 51.1105 48.3886C50.7887 48.4796 50.565 48.7019 50.4149 48.9475C50.4101 48.9554 50.4054 48.9632 50.4007 48.9712Z" fill="#111111"/>
</svg>
