<svg width="87" height="90" viewBox="0 0 87 90" fill="none" xmlns="http://www.w3.org/2000/svg">
<path d="M37.3612 0.402344C30.4111 0.402452 28.2348 19.2041 27.8917 27.5757C27.7313 30.2518 25.6273 30.6636 16.1578 37.0452C8.58224 42.1505 12.3151 48.5047 15.1285 51.0436C9.70758 52.416 -0.722589 57.0547 0.92428 64.6303C2.57115 72.2059 10.2565 73.5508 13.8934 73.2764C13.6189 73.6881 14.2227 75.9525 18.834 81.7166C23.4452 87.4806 31.46 84.1182 34.8909 81.7166C50.5362 96.3737 54.9965 86.1768 55.2709 79.2463C58.6333 80.6873 65.8109 81.0578 67.6225 71.0119C69.434 60.966 58.0843 49.6712 52.1831 45.2796C67.6225 46.7892 55.2709 33.1509 49.7661 28.137C43.4085 22.3465 45.3539 0.402219 37.3612 0.402344Z" fill="#00BC68"/>
<path fill-rule="evenodd" clip-rule="evenodd" d="M30.5333 10.947C29.087 16.6566 28.459 23.4195 28.2881 27.5909L28.2877 27.5984C28.2439 28.3286 28.0634 28.9322 27.6442 29.5188C27.2365 30.0894 26.6176 30.6225 25.7444 31.2461C24.9248 31.8313 23.85 32.5174 22.4639 33.4022C22.3691 33.4627 22.2728 33.5241 22.1751 33.5865C20.6445 34.5639 18.7407 35.7841 16.3776 37.3766C14.5281 38.623 13.3944 39.9282 12.7603 41.2063C12.1275 42.4819 11.9811 43.7527 12.1405 44.9528C12.4617 47.3707 14.0286 49.5135 15.3928 50.7446C15.5027 50.8438 15.549 50.9953 15.5134 51.139C15.4778 51.2826 15.366 51.3949 15.2225 51.4312C12.5444 52.1092 8.6346 53.5944 5.6101 55.832C2.57852 58.0748 0.538718 60.9877 1.3118 64.5439C2.10452 68.1904 4.34126 70.3296 6.83281 71.5348C9.33891 72.747 12.0962 73.0082 13.8587 72.8752C14.0117 72.8636 14.1578 72.9403 14.2352 73.0727C14.3078 73.1968 14.308 73.3496 14.2376 73.4734C14.2363 73.4817 14.2345 73.4974 14.2344 73.5223C14.2339 73.5905 14.2459 73.7001 14.2858 73.8598C14.3655 74.1786 14.5446 74.6497 14.8832 75.3036C15.5595 76.6092 16.8456 78.5933 19.1427 81.4648C21.3335 84.2033 24.3287 84.7876 27.2451 84.3802C30.1749 83.971 32.9774 82.5621 34.6565 81.3867C34.8119 81.2779 35.0223 81.2929 35.1607 81.4226C39.0528 85.0689 42.2209 87.1416 44.7751 88.1125C47.3211 89.0803 49.2316 88.9458 50.6583 88.2182C52.0959 87.4851 53.1158 86.1128 53.7956 84.4632C54.4746 82.8155 54.7984 80.9274 54.8657 79.2292C54.8709 79.0972 54.9407 78.9763 55.0524 78.9059C55.164 78.8354 55.3032 78.8244 55.4245 78.8764C57.0402 79.5688 59.5605 79.995 61.874 79.0634C64.1565 78.1443 66.3355 75.8628 67.2233 70.9395C68.0993 66.0815 65.7956 60.8619 62.4657 56.2593C59.1456 51.6704 54.8641 47.7768 51.9392 45.6001C51.7946 45.4926 51.7395 45.3019 51.8045 45.1338C51.8694 44.9658 52.0384 44.8616 52.2177 44.8792C54.1254 45.0657 55.5763 45.015 56.6505 44.7884C57.7243 44.5618 58.3902 44.1667 58.7769 43.6893C59.1594 43.2171 59.311 42.6119 59.2505 41.8725C59.1894 41.1264 58.9128 40.2653 58.4626 39.3269C56.6527 35.5546 52.2402 30.9358 49.4915 28.4323C47.8143 26.9047 46.7194 24.3524 45.8801 21.4715C45.2197 19.2045 44.7034 16.6786 44.1977 14.2043C44.0586 13.5233 43.9202 12.8463 43.7798 12.1796C43.1251 9.06979 42.4284 6.1925 41.412 4.09525C40.3949 1.99676 39.1224 0.802192 37.3568 0.802219C35.8255 0.802243 34.4921 1.83381 33.3332 3.68275C32.1791 5.52415 31.2572 8.08906 30.5333 10.947ZM32.6535 3.25672C33.8682 1.31871 35.4131 3.02681e-05 37.3568 5.8369e-10C39.5876 -3.47138e-05 41.0691 1.54839 42.1339 3.74537C43.1992 5.9436 43.9122 8.91427 44.5648 12.0143C44.7077 12.6926 44.8476 13.3775 44.9878 14.0633C45.4927 16.5329 46 19.0149 46.6503 21.2472C47.4842 24.1095 48.5302 26.4717 50.0317 27.8392C52.7879 30.3496 57.3036 35.0569 59.1859 38.9798C59.6586 39.9652 59.9779 40.926 60.05 41.807C60.1227 42.6946 59.945 43.5218 59.4003 44.1942C58.8598 44.8615 58.0007 45.3234 56.8162 45.5733C55.9173 45.763 54.813 45.8348 53.4791 45.7748C56.3664 48.0758 60.1211 51.6501 63.1156 55.7891C66.4829 60.4432 68.9483 65.894 68.0128 71.0819C67.089 76.2045 64.7734 78.7607 62.1736 79.8075C59.8507 80.7429 57.3799 80.4402 55.6366 79.8202C55.5229 81.4394 55.1853 83.1964 54.5373 84.7688C53.8147 86.5223 52.6902 88.0826 51.0228 88.9329C49.3445 89.7887 47.1893 89.8884 44.4901 88.8624C41.8532 87.86 38.6732 85.7761 34.8479 82.2277C33.0751 83.4136 30.2914 84.7647 27.3561 85.1747C24.2546 85.608 20.9367 84.9914 18.5163 81.9659C16.2022 79.0733 14.8808 77.0432 14.1709 75.6726C13.8165 74.9884 13.6079 74.456 13.5075 74.0543C13.476 73.9282 13.4539 73.8102 13.4421 73.701C11.5742 73.7653 8.92488 73.4379 6.48348 72.257C3.81142 70.9644 1.38204 68.6434 0.527888 64.7143C-0.3459 60.6949 2.00594 57.5006 5.13297 55.1871C8.01345 53.056 11.6387 51.5993 14.3359 50.8384C13.0235 49.4853 11.6582 47.4146 11.3453 45.0584C11.1667 43.7145 11.3317 42.2808 12.0417 40.8498C12.7504 39.4213 13.9909 38.0177 15.9292 36.7114C18.3008 35.1132 20.2112 33.8887 21.7433 32.9104C21.8376 32.8502 21.9305 32.7909 22.0218 32.7326C23.4189 31.8408 24.4764 31.1657 25.2782 30.5932C26.1347 29.9816 26.6637 29.5111 26.9915 29.0524C27.3072 28.6107 27.4499 28.1602 27.4867 27.5542C27.6591 23.3537 28.2909 16.5324 29.7556 10.75C30.4874 7.86102 31.4341 5.20227 32.6535 3.25672Z" fill="#111111"/>
<path d="M19.4841 50.4025C14.1899 53.0495 13.1332 57.4887 13.0664 59.0263C12.6653 62.4358 14.6708 67.2491 18.0802 71.6613C21.4897 76.0735 29.913 75.0707 31.9185 74.8702C33.9241 74.6696 39.9407 73.2657 40.9435 67.4496C41.9462 61.6335 37.3335 55.2158 35.9296 53.2102C34.5257 51.2047 26.7043 46.7925 19.4841 50.4025Z" fill="#1779C7"/>
<path fill-rule="evenodd" clip-rule="evenodd" d="M29.7606 50.0798C26.7945 49.1973 23.1446 49.0091 19.6505 50.7561C14.516 53.3233 13.5162 57.6105 13.4541 59.0386L13.4535 59.0534L13.4518 59.068C13.262 60.6813 13.6398 62.6659 14.5035 64.8129C15.365 66.9543 16.6987 69.229 18.3847 71.4109C19.9844 73.4811 22.7981 74.3182 25.5524 74.5912C28.1317 74.8468 30.5615 74.5988 31.6761 74.4851C31.7443 74.4781 31.8076 74.4717 31.8657 74.4659C32.8296 74.3695 34.7748 73.9802 36.5911 72.9146C38.3977 71.8547 40.0589 70.1391 40.5353 67.3763C41.0161 64.5873 40.1527 61.6191 38.9625 59.0652C37.8265 56.6276 36.4173 54.6178 35.6822 53.5694C35.6494 53.5227 35.618 53.4779 35.5881 53.4351C35.2834 52.9999 34.5857 52.3827 33.5606 51.7546C32.5459 51.133 31.2429 50.5208 29.7606 50.0798ZM33.9797 51.0706C35.0415 51.7211 35.8479 52.4074 36.2453 52.9751C36.276 53.019 36.3084 53.0651 36.3422 53.1133C37.0791 54.1642 38.5231 56.2232 39.6897 58.7264C40.9062 61.3368 41.8477 64.4855 41.3258 67.5126C40.7994 70.5659 38.9509 72.4603 36.9971 73.6065C35.053 74.7471 32.9871 75.1599 31.9455 75.2641C31.887 75.27 31.8228 75.2765 31.7533 75.2836C30.6366 75.3978 28.1359 75.6533 25.4733 75.3895C22.6622 75.1109 19.5596 74.2434 17.7499 71.9014C16.0265 69.671 14.6526 67.3329 13.7593 65.1123C12.8705 62.9032 12.446 60.782 12.6534 58.9888C12.731 57.3292 13.8543 52.7572 19.2918 50.0385C23.0179 48.1755 26.8888 48.3884 29.9894 49.3109C31.5405 49.7724 32.9073 50.4136 33.9797 51.0706Z" fill="#111111"/>
<path d="M26.0936 57.6231C34.2762 57.7836 36.0545 54.7485 35.9208 53.2109C38.0067 54.9758 39.865 59.8292 40.5334 62.0353C38.3273 66.6481 33.1129 68.052 28.2996 68.6537C26.058 68.9339 23.5555 68.5616 21.4807 67.699C19.1003 66.7093 17.283 65.0741 17.0686 63.0381C16.7458 59.9713 16.1632 58.2036 21.2802 57.7349C22.5211 57.6213 24.0973 57.584 26.0936 57.6231Z" fill="#FFEB34"/>
<path fill-rule="evenodd" clip-rule="evenodd" d="M35.4552 52.2734L36.1982 52.9021C37.3121 53.8446 38.3284 55.5691 39.1396 57.2835C39.9581 59.0136 40.5966 60.7973 40.9356 61.9164L40.9808 62.0654L40.9136 62.2058C38.607 67.0288 33.1795 68.4476 28.3677 69.049C26.0534 69.3383 23.4808 68.9547 21.3451 68.0667C18.9182 67.0577 16.9257 65.3353 16.6881 63.0775C16.667 62.8774 16.6443 62.6795 16.6221 62.4848C16.5614 61.9543 16.5035 61.4484 16.4884 60.9923C16.4675 60.3626 16.523 59.7583 16.7959 59.2264C17.3563 58.1345 18.704 57.5671 21.2619 57.3328C22.5236 57.2173 24.1161 57.1802 26.1198 57.2195C30.1694 57.2989 32.5697 56.5849 33.9275 55.7136C35.2794 54.8461 35.5909 53.8343 35.5395 53.2431L35.4552 52.2734ZM36.2461 54.0782C36.0307 54.8453 35.4546 55.6869 34.3608 56.3888C32.8173 57.3792 30.2371 58.1026 26.1041 58.0215C24.2985 57.9861 22.8467 58.0137 21.6815 58.1027C21.6208 59.368 21.5632 61.1963 21.5692 62.9561C21.5755 64.7717 21.6502 66.4635 21.8434 67.4032C23.8189 68.1852 26.1672 68.5156 28.2682 68.253C33.0318 67.6576 37.9781 66.2916 40.1218 61.999C39.7821 60.9056 39.1778 59.2402 38.4144 57.6266C37.7651 56.2543 37.0193 54.9599 36.2461 54.0782ZM20.9663 67.0138C20.823 65.9555 20.7722 64.463 20.767 62.9588C20.7611 61.2355 20.8156 59.4498 20.8748 58.1793C18.6634 58.4354 17.8348 58.9591 17.5097 59.5927C17.329 59.9448 17.2709 60.3867 17.2901 60.9657C17.3041 61.387 17.3564 61.8443 17.4156 62.3615C17.4386 62.5626 17.4626 62.7728 17.4859 62.9935C17.6575 64.624 19.0015 66.0395 20.9663 67.0138ZM33.1518 65.1147L35.5586 57.8948L36.3196 58.1485L33.9129 65.3684L33.1518 65.1147ZM30.9566 62.8798L32.561 59.0693L33.3004 59.3806L31.6959 63.1911L30.9566 62.8798Z" fill="#111111"/>
<path d="M33.3152 27.3347C29.3045 26.3323 26.0964 25.5305 26.0964 28.9395C25.6952 29.9422 26.8985 32.3489 27.2996 32.9506C27.7446 33.6181 30.5087 36.9617 34.5198 36.1594C38.4382 35.3758 37.9292 32.5495 38.3303 31.9478C38.6512 31.4665 39.5337 31.7472 39.9348 31.9478C40.3359 33.3517 42.542 35.9589 44.5475 36.1594C46.5531 36.36 49.7451 35.3905 50.9651 32.9506C52.9707 28.9395 51.3662 26.533 49.7618 26.533C47.859 26.533 45.7507 26.7335 43.3442 27.335C41.632 27.763 40.6033 28.6721 40.3359 29.3406H38.3303C38.3303 28.6721 37.2079 28.3076 33.3165 27.335L33.3152 27.3347Z" fill="#111111"/>
<path fill-rule="evenodd" clip-rule="evenodd" d="M34.9785 29.6306L30.7847 33.5844L30.2344 33.0007L34.4282 29.0469L34.9785 29.6306ZM46.3428 29.6247L42.149 33.7504L41.5864 33.1785L45.7802 29.0528L46.3428 29.6247ZM48.428 30.3233L43.8847 34.449L43.3454 33.8551L47.8887 29.7294L48.428 30.3233ZM36.9009 30.318L32.5323 34.4437L31.9815 33.8604L36.35 29.7347L36.9009 30.318Z" fill="white"/>
<path d="M3.02925 61.0323C0.783032 52.8497 9.447 47.9962 14.0598 46.5924C15.1293 46.5255 17.3889 46.9534 17.8702 49.1996C18.4719 52.0073 15.2629 53.0102 14.6613 54.6146C14.123 56.0502 13.5848 59.5265 13.9084 60.3348C13.959 60.3911 14.0095 60.4467 14.0598 60.5017C17.1727 63.905 19.7725 64.9583 20.8785 64.6423C22.2824 64.2412 24.4885 64.6423 22.483 66.4473C20.4774 68.2523 22.483 67.0489 25.6918 68.8539C28.2589 70.2979 24.6222 69.9904 22.483 69.6562C27.6974 70.6589 27.4968 71.2606 27.0957 72.2634C26.8704 72.8266 25.1161 72.6319 23.5124 72.304C24.5759 72.6516 25.593 73.176 25.6918 73.8678C25.8147 74.7282 23.7481 74.5449 21.9631 74.2017C24.0149 74.9363 23.9818 76.4077 20.4774 76.0739C16.2658 75.6728 5.83701 71.2606 3.02925 61.0323Z" fill="#FDFBEF"/>
<path fill-rule="evenodd" clip-rule="evenodd" d="M14.1178 46.9851C11.8557 47.6809 8.6274 49.2134 6.24054 51.5517C3.84888 53.8946 2.33006 57.0106 3.4035 60.921C4.77637 65.9221 8.01433 69.5109 11.4439 71.9042C14.8812 74.3029 18.4765 75.4765 20.5029 75.6694C21.3563 75.7507 21.9696 75.7188 22.3774 75.6287C22.8088 75.5334 22.9125 75.3973 22.9261 75.3674L22.9263 75.367C22.9287 75.3616 22.9334 75.3514 22.9236 75.3204C22.9112 75.2812 22.8758 75.2141 22.7899 75.1263C22.6201 74.9525 22.3079 74.754 21.8437 74.5844C21.3015 74.4794 20.7861 74.3603 20.3642 74.2509L20.5117 73.4643C21.0976 73.5332 21.6164 73.6538 22.056 73.8083C22.9325 73.9757 23.8478 74.0975 24.52 74.08C24.8676 74.071 25.1 74.0252 25.2255 73.9647C25.2585 73.9488 25.2755 73.9359 25.2833 73.929C25.2831 73.9265 25.2828 73.9233 25.2822 73.9194C25.258 73.7502 25.1046 73.5309 24.7319 73.2874C24.3793 73.057 23.9049 72.8545 23.3967 72.6871C22.7144 72.5469 22.0608 72.3836 21.56 72.2433L21.7307 71.4609C22.231 71.5399 22.9234 71.69 23.6024 71.9103C24.3895 72.0706 25.1933 72.1937 25.82 72.2117C26.139 72.221 26.3869 72.202 26.5556 72.1594C26.6643 72.1319 26.7049 72.1045 26.7164 72.0951C26.8207 71.8335 26.8673 71.6924 26.864 71.5806C26.8622 71.5194 26.8468 71.4245 26.6467 71.279C26.427 71.1192 26.0285 70.9341 25.3318 70.7245C24.6426 70.5171 23.6926 70.2945 22.3947 70.0449L22.5323 69.2547C23.602 69.4218 25.0054 69.5749 25.8108 69.5167C25.8676 69.5126 25.9188 69.5076 25.9647 69.5019C25.8514 69.4183 25.6941 69.3173 25.4826 69.1984C24.1921 68.4724 23.1203 68.258 22.4044 68.1148C22.2656 68.087 22.1403 68.0619 22.0292 68.0363C21.8708 67.9997 21.6826 67.95 21.5398 67.8573C21.4607 67.8059 21.3686 67.7246 21.313 67.5992C21.2548 67.4679 21.2574 67.336 21.2862 67.2251C21.3353 67.0357 21.4729 66.8636 21.6046 66.7193C21.7495 66.5605 21.9499 66.3709 22.2021 66.144C22.6874 65.7072 22.8408 65.4189 22.8689 65.2685C22.8804 65.2069 22.8695 65.178 22.8607 65.1614C22.8488 65.1393 22.819 65.1019 22.7458 65.0595C22.5907 64.9697 22.323 64.9057 21.9808 64.8971C21.6475 64.8887 21.287 64.934 20.9762 65.0228C20.6093 65.1276 20.1638 65.1087 19.6781 64.9921C19.1872 64.8743 18.6274 64.6503 18.0155 64.3128C16.8063 63.646 15.3656 62.521 13.8094 60.8306C13.683 60.7591 13.6044 60.6466 13.5567 60.5522C12.7655 59.6686 11.9454 58.6383 11.1113 57.4466L11.7685 56.9866C12.3235 57.7794 12.8707 58.4974 13.4055 59.1453C13.4251 58.6949 13.4777 58.1774 13.5519 57.649C13.7149 56.4876 13.9891 55.2265 14.2732 54.4686C14.4568 53.9788 14.8267 53.5632 15.2098 53.1929C15.3812 53.0272 15.565 52.8617 15.7461 52.6987C15.7703 52.6769 15.7944 52.6551 15.8185 52.6334C16.0252 52.4471 16.2283 52.2621 16.4208 52.0695C17.1875 51.3029 17.7235 50.4829 17.4654 49.2784C17.2547 48.2948 16.6634 47.7171 15.9936 47.3822C15.3311 47.0509 14.5979 46.963 14.1178 46.9851ZM14.2505 60.1239C14.2366 60.0693 14.2226 59.9883 14.2129 59.876C14.1994 59.7211 14.1958 59.5298 14.2022 59.3083C14.215 58.8657 14.2669 58.3261 14.3463 57.7605C14.5061 56.6228 14.7702 55.428 15.0244 54.7502C15.1415 54.4378 15.3983 54.1264 15.7673 53.7697C15.9278 53.6146 16.1003 53.4593 16.2827 53.295C16.3068 53.2733 16.3312 53.2513 16.3557 53.2293C16.5626 53.0427 16.7794 52.8454 16.988 52.6368C17.8258 51.799 18.5934 50.7137 18.2499 49.1104C17.9793 47.8478 17.2001 47.0885 16.3524 46.6646C15.5188 46.2478 14.6134 46.1499 14.0222 46.1869L13.9753 46.1898L13.9304 46.2035C11.5819 46.9182 8.19962 48.5095 5.67915 50.9786C3.14719 53.459 1.45713 56.8611 2.6299 61.1333C4.0648 66.3604 7.4451 70.0919 10.9848 72.5621C14.5167 75.0268 18.2416 76.2599 20.4268 76.4681C21.3256 76.5536 22.0306 76.5269 22.5505 76.412C23.0468 76.3023 23.4802 76.0872 23.6565 75.6992C23.7956 75.3929 23.7304 75.0935 23.5798 74.8426C23.9213 74.8741 24.2476 74.8896 24.5408 74.8819C24.9176 74.8722 25.2904 74.8239 25.5736 74.6874C25.7204 74.6168 25.8668 74.5111 25.9671 74.3517C26.0717 74.1853 26.1035 73.9961 26.0764 73.8059C26.0318 73.494 25.8697 73.2297 25.6556 73.0081C25.7034 73.0105 25.7505 73.0123 25.7968 73.0136C26.1451 73.0237 26.4782 73.0063 26.7519 72.9372C27.0085 72.8724 27.3254 72.7326 27.4556 72.4072L27.464 72.3862C27.5554 72.1581 27.6748 71.86 27.6659 71.557C27.6551 71.1921 27.4699 70.8858 27.1185 70.6302C26.9301 70.4931 26.686 70.3642 26.3784 70.2387C26.4192 70.2276 26.4585 70.2152 26.496 70.2013C26.649 70.1444 26.935 69.9975 26.9616 69.6619C26.9736 69.5096 26.9223 69.3785 26.8632 69.2805C26.8041 69.1825 26.7236 69.0943 26.636 69.0147C26.4611 68.8557 26.2069 68.6853 25.8759 68.4992C24.4642 67.7051 23.2601 67.4662 22.5476 67.3248C22.4181 67.2991 22.3049 67.2766 22.2096 67.2546C22.2076 67.2541 22.2055 67.2537 22.2035 67.2532C22.3202 67.1261 22.494 66.9605 22.7387 66.7403C23.2562 66.2745 23.5791 65.8358 23.6575 65.4159C23.6993 65.1923 23.671 64.9753 23.5679 64.7827C23.4677 64.5956 23.3126 64.4607 23.1477 64.3652C22.8265 64.1792 22.4047 64.1053 22.0011 64.0951C21.5886 64.0847 21.1468 64.1397 20.7558 64.2514C20.5697 64.3046 20.2753 64.3104 19.8653 64.212C19.4604 64.1149 18.9682 63.9221 18.4029 63.6103C17.2724 62.9869 15.8777 61.9034 14.3432 60.2258C14.3124 60.1921 14.2815 60.1581 14.2505 60.1239ZM26.2509 69.4339C26.2512 69.4339 26.2489 69.4354 26.2432 69.4382C26.2477 69.4352 26.2506 69.4338 26.2509 69.4339Z" fill="#111111"/>
<path d="M59.1829 50.1983C62.7737 51.5947 67.7666 56.9369 70.8151 52.605C73.8635 48.273 73.3987 45.385 73.2217 44.1816C72.8875 41.9087 72.6602 37.5232 74.4251 38.165C76.1899 38.8068 77.5671 42.4435 78.0351 44.1816C78.503 43.8474 79.9604 43.2992 82.0461 43.7806C82.3774 43.857 82.6924 43.9949 82.9901 44.1816C83.8706 44.734 84.5987 45.7131 85.1424 46.7889C85.4747 47.4464 85.7381 48.1401 85.9253 48.7944C86.1431 49.5557 86.2578 50.2638 86.2578 50.8C86.2578 52.5612 84.5564 53.7038 82.6478 53.956C82.7147 57.6505 80.7626 65.4004 72.4195 66.8444C64.0764 68.2883 60.1857 66.2427 58.3807 65.4405C55.974 64.4377 52.4233 61.8098 52.7651 58.2205C53.1662 54.0088 55.5731 48.7944 59.1829 50.1983Z" fill="#FDFBEF"/>
<path fill-rule="evenodd" clip-rule="evenodd" d="M73.4383 40.1127C73.3206 41.3668 73.4562 42.9953 73.6213 44.1182C73.6232 44.1313 73.6252 44.1446 73.6272 44.1582C73.7181 44.775 73.8745 45.8354 73.626 47.2828C73.3722 48.761 72.7009 50.6209 71.1458 52.8307C70.3243 53.9981 69.3394 54.5487 68.2555 54.6472C67.1976 54.7432 66.098 54.4034 65.0357 53.9082C64.0431 53.4456 63.0389 52.8254 62.0868 52.2373C62.0171 52.1943 61.9478 52.1515 61.8788 52.1089C60.8517 51.4754 59.8978 50.9005 59.0403 50.567C58.2417 50.2565 57.5303 50.3144 56.8908 50.6233C56.2377 50.9388 55.6351 51.5292 55.1072 52.321C54.0501 53.9066 53.3632 56.1947 53.1672 58.2534C53.0108 59.8959 53.7404 61.3422 54.8386 62.522C55.9381 63.7033 57.3763 64.5812 58.5377 65.0651L58.542 65.0669L58.5463 65.0688C58.6403 65.1106 58.7394 65.1554 58.8439 65.2028C59.7498 65.613 61.0644 66.2082 63.0268 66.5857C65.216 67.0069 68.2254 67.1585 72.3538 66.444C76.3953 65.7445 78.8742 63.5267 80.3447 61.0351C81.7084 58.7244 82.2043 56.1758 82.2479 54.3925C82.115 54.4007 81.9817 54.4048 81.8483 54.4048C80.617 54.4048 79.4981 53.6529 78.6068 52.6685C77.9999 51.9981 77.4744 51.1945 77.062 50.3731C76.819 49.8891 76.6139 49.3959 76.4539 48.9161C76.3293 48.5423 76.2666 48.1685 76.2515 47.8031C76.1863 46.2272 77.0033 44.8008 77.594 44.0777C77.3519 43.2316 76.9236 42.0267 76.3628 40.9412C76.0592 40.3534 75.7225 39.8121 75.3633 39.3841C75.0008 38.952 74.6385 38.6633 74.2907 38.5368C74.1401 38.4821 74.0531 38.4945 74.0009 38.5148C73.9436 38.5371 73.8694 38.5919 73.7888 38.7214C73.6189 38.9947 73.4982 39.4748 73.4383 40.1127ZM78.3043 44.4801C77.8368 45.0095 77.1395 46.1407 77.058 47.3868C78.5322 47.3353 81.1147 46.6687 82.4532 44.3381C82.2914 44.2627 82.1265 44.205 81.9587 44.1663C80.0271 43.7205 78.7106 44.214 78.3043 44.4801ZM83.1313 44.7686C81.6067 47.3951 78.7343 48.1246 77.0965 48.1876C77.1233 48.3458 77.1623 48.5044 77.215 48.6625C77.3379 49.0311 77.4906 49.4108 77.6695 49.7886C78.6389 49.7627 80.0492 49.5857 81.3899 49.1314C82.7883 48.6575 84.0415 47.9061 84.6914 46.7801C84.2596 45.9686 83.731 45.2538 83.1313 44.7686ZM85.0929 47.626C84.2613 48.7393 82.9531 49.4487 81.6474 49.8912C80.3898 50.3174 79.0835 50.5137 78.0813 50.5735C78.3868 51.1014 78.7379 51.6027 79.1216 52.0404C79.948 52.237 81.2123 52.3041 82.4279 51.8939C83.6547 51.4799 84.8462 50.5771 85.5066 48.7771C85.3938 48.3999 85.2554 48.011 85.0929 47.626ZM85.7988 50.0606C85.0115 51.4629 83.8661 52.2552 82.6844 52.654C81.8124 52.9482 80.9259 53.0271 80.153 52.9889C80.7071 53.3811 81.2814 53.6026 81.8483 53.6026C82.0994 53.6026 82.3506 53.5859 82.598 53.5532C83.495 53.4347 84.3237 53.1087 84.9189 52.627C85.5082 52.1501 85.8594 51.5315 85.8594 50.7948C85.8594 50.5818 85.8392 50.334 85.7988 50.0606ZM78.2856 43.5876C78.0232 42.7267 77.6078 41.6034 77.0755 40.573C76.7557 39.954 76.388 39.3572 75.9779 38.8685C75.5713 38.3839 75.0996 37.9774 74.5649 37.7829C74.2743 37.6773 73.9823 37.6614 73.7105 37.767C73.4437 37.8706 73.2487 38.0709 73.1076 38.2978C72.8343 38.7373 72.7018 39.3753 72.6396 40.0377C72.5133 41.3841 72.6585 43.0848 72.8276 44.2349C72.8294 44.247 72.8312 44.2593 72.8331 44.2717C72.9209 44.8676 73.0621 45.826 72.8353 47.1471C72.6036 48.4967 71.9832 50.2468 70.4898 52.369C69.7871 53.3676 69.0047 53.7736 68.1829 53.8483C67.335 53.9253 66.3904 53.6546 65.3746 53.1811C64.4267 52.7393 63.4609 52.143 62.4984 51.5486C62.4322 51.5078 62.366 51.4669 62.2999 51.4261C61.2857 50.8006 60.2689 50.1841 59.331 49.8193C58.3246 49.4279 57.3815 49.4954 56.5419 49.9009C55.716 50.2999 55.015 51.0131 54.4397 51.876C53.2907 53.5995 52.5736 56.0244 52.3686 58.1773C52.1832 60.1241 53.0579 61.7864 54.2514 63.0686C55.442 64.3478 56.9803 65.2845 58.2248 65.8038C58.3153 65.844 58.4116 65.8877 58.5139 65.934C59.4253 66.347 60.8166 66.9774 62.8753 67.3735C65.1685 67.8147 68.2761 67.9639 72.4907 67.2345C76.7923 66.4899 79.4609 64.1109 81.0356 61.4429C82.5093 58.9458 83.0251 56.1984 83.0522 54.2927C83.9372 54.126 84.7757 53.7749 85.4236 53.2505C86.1622 52.6528 86.6616 51.8195 86.6616 50.7948C86.6616 50.2096 86.5379 49.4627 86.3137 48.679C86.1201 48.0021 85.8477 47.2846 85.5031 46.6028C84.944 45.4964 84.1745 44.4443 83.206 43.8367C82.8757 43.6296 82.5195 43.4724 82.1391 43.3846C80.4074 42.985 79.0563 43.2547 78.2856 43.5876Z" fill="#111111"/>
<path fill-rule="evenodd" clip-rule="evenodd" d="M42.1444 38.7656C42.4767 38.7656 42.746 39.035 42.746 39.3673C42.746 39.6712 42.6055 40.0345 42.349 40.3847C42.0815 40.7498 41.6628 41.1377 41.039 41.4941C40.324 41.9027 39.4285 41.9625 38.6754 41.913C37.9062 41.8625 37.1836 41.6905 36.7397 41.5425C36.4245 41.4374 36.2541 41.0967 36.3592 40.7815C36.4642 40.4662 36.805 40.2959 37.1202 40.4009C37.4786 40.5204 38.0997 40.6693 38.7544 40.7123C39.4252 40.7564 40.0339 40.6825 40.442 40.4493C40.9413 40.164 41.2246 39.8833 41.3782 39.6736C41.5232 39.4757 41.5404 39.3605 41.5424 39.3607C41.5427 39.3608 41.5427 39.3629 41.5427 39.3673C41.5427 39.035 41.8121 38.7656 42.1444 38.7656Z" fill="#111111"/>
</svg>
