<svg width="113" height="110" viewBox="0 0 113 110" fill="none" xmlns="http://www.w3.org/2000/svg">
<path d="M62.9962 92.477C65.3309 88.722 64.1312 73.9368 63.8069 67.1307C63.5332 64.0797 68.8331 64.3145 72.0757 64.0798C74.6699 63.8921 75.3184 65.7226 75.3184 66.6614V89.426C75.3184 93.6504 78.8853 94.1198 79.2096 96.7013C79.5339 99.2829 67.6981 97.1707 64.1311 97.4054C60.5642 97.6401 60.0778 97.1707 62.9962 92.477Z" fill="#FDFBEF"/>
<path fill-rule="evenodd" clip-rule="evenodd" d="M74.9577 64.6816C75.5218 65.3212 75.7066 66.1148 75.7066 66.6601V89.4247C75.7066 91.3913 76.5226 92.47 77.4184 93.4002C77.5502 93.5371 77.6885 93.6751 77.8282 93.8145C78.1545 94.1401 78.4883 94.4732 78.7645 94.817C79.1737 95.3263 79.5014 95.9076 79.5946 96.6501C79.6247 96.8897 79.5846 97.1189 79.4711 97.3246C79.3603 97.5253 79.1927 97.6804 79.0028 97.8007C78.6317 98.0358 78.1153 98.1759 77.5388 98.2628C76.3753 98.4381 74.7791 98.4208 73.0957 98.3327C71.8208 98.266 70.4747 98.1573 69.2034 98.0545C68.7905 98.0212 68.3856 97.9885 67.9935 97.958C66.3795 97.8327 65.0018 97.7479 64.1445 97.8044C63.2557 97.8628 62.5128 97.8818 61.9591 97.7887C61.4077 97.6959 60.903 97.4643 60.7346 96.9034C60.6582 96.6492 60.6674 96.3697 60.7263 96.0798C60.7854 95.7884 60.9 95.4614 61.0608 95.097C61.382 94.3691 61.9116 93.4396 62.6426 92.2639C63.1732 91.4105 63.5309 89.8656 63.7415 87.8467C63.95 85.8481 64.0089 83.4525 63.9846 80.9506C63.9486 77.2333 63.7298 73.3104 63.5529 70.1382C63.4917 69.0415 63.4355 68.0344 63.3936 67.1567C63.3156 66.2582 63.6565 65.5754 64.2626 65.0864C64.8459 64.6158 65.6588 64.3356 66.5282 64.1551C67.7898 63.8933 69.3014 63.8205 70.638 63.756C71.1348 63.7321 71.6073 63.7093 72.0338 63.6785C73.4383 63.5768 74.3775 64.0237 74.9577 64.6816ZM74.3561 65.2122C73.9635 64.767 73.2813 64.3925 72.0917 64.4786C71.6233 64.5125 71.1232 64.5366 70.6093 64.5614C69.293 64.6248 67.8864 64.6925 66.6912 64.9406C65.8645 65.1122 65.2011 65.36 64.7663 65.7108C64.3563 66.0416 64.1375 66.4708 64.1934 67.0936L64.1942 67.102L64.1946 67.1104C64.236 67.9794 64.2919 68.9817 64.353 70.0765C64.5301 73.2517 64.7506 77.2051 64.7868 80.9428C64.8112 83.4574 64.7525 85.8875 64.5394 87.9299C64.3285 89.952 63.9606 91.6634 63.3239 92.6875C62.5957 93.8586 62.0917 94.7479 61.7948 95.4209C61.6465 95.7568 61.5559 96.0257 61.5124 96.2395C61.4687 96.4546 61.4779 96.5896 61.5029 96.6727C61.5371 96.7865 61.6404 96.9216 62.0922 96.9976C62.5417 97.0731 63.1972 97.0627 64.0918 97.0039C65.018 96.9429 66.4574 97.0342 68.0556 97.1582C68.4533 97.1891 68.8619 97.2221 69.277 97.2556C70.5457 97.3581 71.8752 97.4655 73.1376 97.5316C74.8184 97.6195 76.3433 97.6316 77.4193 97.4695C77.9625 97.3877 78.3454 97.2675 78.5735 97.123C78.6831 97.0536 78.74 96.9891 78.7687 96.937C78.7947 96.8899 78.8091 96.8331 78.7987 96.75C78.7298 96.2017 78.49 95.7563 78.1391 95.3194C77.8912 95.0108 77.6088 94.7292 77.299 94.4204C77.1521 94.2739 76.999 94.1212 76.8405 93.9567C75.8717 92.9507 74.9043 91.6825 74.9043 89.4247V66.6601C74.9043 66.2667 74.7648 65.6756 74.3561 65.2122Z" fill="#111111"/>
<path d="M33.6466 91.0649C40.05 92.9399 50.2424 79.8451 54.5383 73.0634C55.9536 70.9199 57.9004 71.5882 68.8315 70.8389C77.5764 70.2395 77.5165 63.175 76.3935 59.7177C81.5585 61.1814 92.4534 62.3395 94.7132 55.263C96.9731 48.1864 91.227 43.3809 88.0715 41.8628C88.4969 41.6529 89.0797 39.484 88.0068 32.4876C86.9339 25.4911 78.6588 24.4334 74.6554 24.7791C68.6681 5.10642 60.0745 11.4262 56.526 17.0452C54.4206 14.2353 48.6299 10.4821 42.311 17.9482C35.992 25.4142 40.0183 40.2348 42.8214 46.7119C31.6136 35.686 33.1384 54.7866 34.874 62.849C36.6096 70.9113 25.6424 88.7212 33.6466 91.0649Z" fill="#00BC68"/>
<path fill-rule="evenodd" clip-rule="evenodd" d="M31.8182 89.2913C32.2314 89.9312 32.8526 90.4105 33.7681 90.6785C35.2176 91.103 36.9369 90.6937 38.822 89.6449C40.6992 88.6006 42.6777 86.9563 44.6079 85.0254C48.4662 81.1656 52.0705 76.2221 54.2082 72.8474L54.2123 72.841C54.6 72.2539 55.0416 71.8373 55.6746 71.5502C56.2896 71.2713 57.0619 71.1259 58.087 71.0277C59.0492 70.9355 60.2721 70.8821 61.8483 70.8134C61.9562 70.8087 62.0657 70.8039 62.177 70.7991C63.9178 70.7229 66.0852 70.6244 68.8129 70.4374C70.9457 70.2912 72.5107 69.7531 73.6473 68.999C74.7814 68.2464 75.5098 67.2651 75.951 66.1957C76.8401 64.0404 76.5647 61.5146 76.0208 59.8402C75.9751 59.6994 76.0107 59.5448 76.1134 59.4381C76.2161 59.3315 76.3692 59.29 76.5117 59.3304C79.0621 60.0532 83.0225 60.6974 86.6066 60.293C90.1997 59.8875 93.2823 58.4515 94.3399 55.1396C95.4258 51.7393 94.5925 48.8957 93.1003 46.7027C91.599 44.4964 89.4338 42.9577 87.9064 42.2228C87.7681 42.1563 87.6799 42.0168 87.6792 41.8633C87.6785 41.7206 87.7536 41.5891 87.8749 41.5168C87.8797 41.5106 87.8875 41.4997 87.8976 41.4824C87.9297 41.4276 87.9718 41.3325 88.0148 41.1817C88.1008 40.8807 88.1775 40.4052 88.2091 39.7008C88.2722 38.2944 88.1535 36.0318 87.6191 32.547C87.1105 29.2303 84.9052 27.3112 82.2882 26.2504C79.6588 25.1846 76.6561 25.0083 74.6987 25.1774C74.51 25.1937 74.3356 25.0758 74.2805 24.8945C72.7913 20.0016 71.1508 16.763 69.4939 14.7334C67.8425 12.7105 66.1932 11.9079 64.6637 11.8269C63.1222 11.7454 61.6206 12.3923 60.2671 13.4332C58.9152 14.4729 57.7426 15.8824 56.874 17.258C56.8035 17.3695 56.6827 17.4393 56.5508 17.4446C56.419 17.4498 56.293 17.3899 56.2138 17.2843C55.2037 15.9363 53.3155 14.3758 50.9508 14.0389C48.6192 13.7067 45.7198 14.5504 42.6259 18.2059C39.575 21.8107 38.9894 27.2416 39.5532 32.658C40.1152 38.0575 41.8095 43.3421 43.1983 46.5512C43.2745 46.7273 43.2153 46.9328 43.057 47.0413C42.8987 47.1498 42.6857 47.131 42.5489 46.9964C41.1635 45.6335 39.9953 44.7571 39.0193 44.2659C38.0436 43.7748 37.2936 43.6846 36.7171 43.8348C36.1459 43.9835 35.6691 44.3881 35.2779 45.0494C34.884 45.7152 34.5936 46.6158 34.3973 47.6929C33.609 52.0182 34.4101 58.746 35.2749 62.7632C35.7292 64.8735 35.3482 67.5753 34.6883 70.4187C34.2774 72.1894 33.7471 74.0566 33.2233 75.901C32.9059 77.0188 32.5908 78.1282 32.3061 79.2028C31.5433 82.0817 30.9945 84.7226 31.1149 86.7763C31.1747 87.7978 31.3989 88.6421 31.8182 89.2913ZM33.9069 70.2374C34.5651 67.4007 34.9042 64.8529 34.4906 62.932C33.6198 58.8868 32.7908 52.0332 33.6081 47.549C33.8132 46.4237 34.1264 45.4203 34.5874 44.641C35.051 43.8573 35.6801 43.2759 36.5149 43.0584C37.3445 42.8424 38.3006 43.006 39.3799 43.5493C40.109 43.9162 40.9096 44.4637 41.7891 45.21C40.543 41.9391 39.2389 37.3873 38.7553 32.7411C38.1849 27.2614 38.7456 21.5489 42.0136 17.6877C45.2387 13.8771 48.3941 12.8644 51.0639 13.2447C53.4389 13.5831 55.3459 15.0131 56.5016 16.3619C57.3709 15.0776 58.4902 13.7877 59.778 12.7973C61.2209 11.6877 62.9072 10.9306 64.7061 11.0258C66.5171 11.1217 68.3605 12.0765 70.1153 14.2261C71.8281 16.3241 73.4734 19.5784 74.9536 24.3538C76.9972 24.2224 79.955 24.439 82.5895 25.5069C85.3791 26.6376 87.8478 28.7455 88.412 32.4254C88.9505 35.937 89.0769 38.2571 89.0105 39.7367C88.9774 40.4753 88.8957 41.0187 88.7862 41.402C88.7535 41.5165 88.7172 41.621 88.6767 41.7146C90.2607 42.5605 92.3016 44.1029 93.7635 46.2514C95.3683 48.6099 96.2781 51.7073 95.1041 55.3836C93.9019 59.1482 90.4071 60.6714 86.6966 61.0901C83.29 61.4745 79.5897 60.9476 76.9826 60.2871C77.4208 62.0394 77.5583 64.403 76.6926 66.5016C76.196 67.7055 75.3698 68.8187 74.0908 69.6674C72.8142 70.5145 71.1074 71.0842 68.8678 71.2377C66.1299 71.4254 63.9548 71.5243 62.212 71.6005C62.1049 71.6052 61.9994 71.6098 61.8956 71.6143C60.3064 71.6837 59.1041 71.7361 58.1636 71.8262C57.1587 71.9225 56.4957 72.0587 56.006 72.2808C55.5353 72.4942 55.2032 72.7971 54.8838 73.2799C52.7255 76.6868 49.0866 81.6797 45.1752 85.5926C43.2199 87.5487 41.1811 89.2505 39.212 90.346C37.2508 91.4371 35.2949 91.9615 33.5427 91.4484C32.4571 91.1306 31.6701 90.5406 31.1443 89.7265C30.6244 88.9216 30.3787 87.927 30.314 86.8232C30.1853 84.6265 30.7691 81.8716 31.5306 78.9973C31.8235 77.8918 32.1423 76.7699 32.4611 75.648C32.9801 73.8213 33.4991 71.9945 33.9069 70.2374Z" fill="#111111"/>
<path d="M56.0998 68.1354C57.5761 65.2139 56.9233 61.9109 54.6416 60.7579C52.3599 59.6049 49.3135 61.0386 47.8372 63.9601C46.3608 66.8816 47.0137 70.1847 49.2954 71.3377C51.5771 72.4906 54.6235 71.0569 56.0998 68.1354Z" fill="white"/>
<path fill-rule="evenodd" clip-rule="evenodd" d="M54.2798 61.4739C56.0113 62.3489 56.7487 65.0726 55.3838 67.7736C54.019 70.4746 51.3888 71.4966 49.6572 70.6217C47.9257 69.7467 47.1883 67.0229 48.5531 64.3219C49.918 61.621 52.5482 60.5989 54.2798 61.4739ZM54.6416 60.7579C56.9233 61.9109 57.5761 65.2139 56.0998 68.1354C54.6235 71.0569 51.5771 72.4906 49.2954 71.3377C47.0137 70.1847 46.3608 66.8816 47.8372 63.9601C49.3135 61.0386 52.3599 59.6049 54.6416 60.7579Z" fill="#111111"/>
<path d="M55.7696 66.1991C56.8192 64.1623 56.2549 61.7818 54.509 60.8821C52.7632 59.9824 50.4971 60.9042 49.4474 62.941C48.3978 64.9778 48.9621 67.3583 50.708 68.2579C52.4538 69.1576 54.7199 68.2358 55.7696 66.1991Z" fill="#111111"/>
<path d="M48.5757 64.3714C50.2349 61.5497 49.9025 58.2759 47.8333 57.0591C45.7641 55.8424 42.7416 57.1435 41.0824 59.9651C39.4232 62.7868 39.7556 66.0606 41.8248 67.2773C43.894 68.4941 46.9165 67.193 48.5757 64.3714Z" fill="white"/>
<path fill-rule="evenodd" clip-rule="evenodd" d="M48.8045 60.1944C48.9199 61.3309 48.6364 62.6855 47.8842 63.9647C47.1319 65.244 46.086 66.1503 45.0368 66.6019C43.9871 67.0538 42.9928 67.0335 42.2314 66.5858C41.47 66.1381 40.969 65.2791 40.8535 64.142C40.7382 63.0056 41.0217 61.651 41.7739 60.3718C42.5261 59.0925 43.572 58.1862 44.6212 57.7346C45.671 57.2827 46.6653 57.303 47.4266 57.7507C48.188 58.1984 48.6891 59.0574 48.8045 60.1944ZM47.8333 57.0591C49.9025 58.2759 50.2349 61.5497 48.5757 64.3714C46.9165 67.193 43.894 68.4941 41.8248 67.2773C39.7556 66.0606 39.4232 62.7868 41.0824 59.9651C42.7416 57.1435 45.7641 55.8424 47.8333 57.0591Z" fill="#111111"/>
<path d="M48.3042 63.1024C49.6934 61.2802 49.5534 58.8377 47.9915 57.647C46.4296 56.4563 44.0373 56.9682 42.6481 58.7904C41.259 60.6126 41.399 63.0551 42.9609 64.2458C44.5228 65.4365 46.9151 64.9246 48.3042 63.1024Z" fill="#111111"/>
<path fill-rule="evenodd" clip-rule="evenodd" d="M50.475 53.4499C50.2552 53.2008 50.279 52.8205 50.5281 52.6007C51.0749 52.1183 51.6571 51.8628 52.247 51.8016C52.8311 51.741 53.3773 51.8755 53.8529 52.0978C54.7873 52.5346 55.5245 53.3436 55.9255 53.945C56.1098 54.2215 56.0351 54.5951 55.7586 54.7794C55.4821 54.9637 55.1086 54.889 54.9243 54.6125C54.5982 54.1233 54.0131 53.501 53.3434 53.1879C53.017 53.0354 52.6906 52.9654 52.3711 52.9985C52.0573 53.031 51.7045 53.1675 51.3243 53.503C51.0751 53.7228 50.6949 53.6991 50.475 53.4499Z" fill="#111111"/>
<path d="M49.9088 4.10111C50.3973 7.49366 53.0427 21.7171 54.041 28.6497C52.2573 31.0144 45.6289 35.3473 44.2862 30.0543C43.3651 26.4229 46.9236 10.4715 35.6802 9.01052C22.4894 7.29641 31.4564 4.19244 36.5866 2.85761C41.7692 1.50913 49.2604 -0.401932 49.9088 4.10111Z" fill="#FFEB34"/>
<path fill-rule="evenodd" clip-rule="evenodd" d="M45.9815 32.7778C44.9896 32.4214 44.2489 31.5733 43.8886 30.1529C43.7609 29.6495 43.716 28.9616 43.7032 28.1739C43.6926 27.5224 43.7039 26.7758 43.7161 25.9716C43.7188 25.7951 43.7215 25.6158 43.7241 25.4341C43.7525 23.4052 43.7587 21.0521 43.4478 18.7728C43.1364 16.4905 42.5114 14.3201 41.304 12.6383C40.1076 10.9719 38.3217 9.75942 35.6197 9.40831C32.3252 8.9802 30.3355 8.45856 29.3224 7.85891C28.8167 7.55964 28.4569 7.18257 28.4095 6.70177C28.3625 6.22453 28.6409 5.81697 28.9798 5.49925C29.662 4.85962 30.9226 4.27006 32.2767 3.76528C33.6503 3.25323 35.1869 2.80504 36.4767 2.46946C39.0565 1.79821 42.271 0.969329 44.9263 0.884166C46.2527 0.841624 47.4899 0.981853 48.4516 1.45804C49.4401 1.9475 50.1154 2.78288 50.297 4.04398C50.4971 5.43366 51.062 8.65619 51.7287 12.4589C51.8719 13.2763 52.0199 14.1204 52.17 14.9788C53.0169 19.8239 53.929 25.1191 54.4291 28.5925C54.4444 28.6984 54.4167 28.8059 54.3523 28.8913C53.4138 30.1355 51.246 31.8583 49.1219 32.6022C48.0588 32.9745 46.9442 33.1237 45.9815 32.7778ZM53.6106 28.5378C52.7122 29.6506 50.7537 31.1807 48.8568 31.8451C47.872 32.1899 46.9663 32.2793 46.2528 32.0229C45.5685 31.7769 44.9772 31.1818 44.6662 29.9557C44.5636 29.5513 44.5181 28.9463 44.5053 28.1609C44.4949 27.5232 44.506 26.7926 44.5182 25.9889C44.5209 25.8112 44.5236 25.6299 44.5262 25.4453C44.5546 23.4163 44.5626 21.0093 44.2426 18.6643C43.9231 16.3222 43.272 14.0039 41.9556 12.1704C40.6283 10.3215 38.6428 8.99218 35.7231 8.61278C32.4222 8.18384 30.5861 7.6747 29.731 7.16855C29.3024 6.91492 29.2175 6.72034 29.2079 6.62306C29.1979 6.52224 29.2503 6.34532 29.5285 6.08448C30.0804 5.567 31.1991 5.02316 32.5569 4.51696C33.8953 4.01802 35.4034 3.57766 36.6787 3.24582C39.2815 2.56859 42.4039 1.7677 44.952 1.68597C46.2273 1.64507 47.3084 1.78712 48.0956 2.17695C48.8561 2.5535 49.3603 3.16788 49.5029 4.15831C49.705 5.56142 50.273 8.80163 50.9397 12.6041C51.0827 13.4201 51.2303 14.2619 51.3798 15.117C52.2135 19.8866 53.1076 25.0771 53.6106 28.5378Z" fill="#111111"/>
<path d="M97.8843 19.2253L78.316 35.0358C71.9512 34.9835 70.3932 31.1856 69.4751 28.2433C73.7782 24.8855 83.4197 17.3968 87.5612 14.3047C92.738 10.4395 94.5348 10.7658 101.196 13.7362C114.693 19.2808 112.315 21.2277 107.166 20.6731C103.048 20.2295 98.6391 18.8232 97.8843 19.2253Z" fill="#FFEB34"/>
<path fill-rule="evenodd" clip-rule="evenodd" d="M71.5746 33.0057C70.2027 31.6086 69.5612 29.8423 69.1 28.3642C69.0503 28.2048 69.1045 28.0312 69.2362 27.9285C73.5383 24.5715 83.1834 17.0799 87.329 13.9847C89.9284 12.0438 91.7598 11.0898 93.8234 11.0575C95.8559 11.0256 98.0523 11.8934 101.361 13.3689C104.741 14.7576 107.142 15.9268 108.76 16.8944C109.57 17.3783 110.192 17.817 110.646 18.2133C111.093 18.6039 111.406 18.9791 111.553 19.3429C111.711 19.7348 111.677 20.1261 111.415 20.4419C111.181 20.7224 110.81 20.8893 110.412 20.9926C109.605 21.2021 108.434 21.2137 107.131 21.0734C105.201 20.8655 103.211 20.4491 101.573 20.1063C101.443 20.0791 101.315 20.0523 101.19 20.0262C100.332 19.8472 99.5942 19.6982 99.0257 19.6181C98.7412 19.578 98.5115 19.5571 98.337 19.5564C98.2502 19.556 98.1846 19.5607 98.1374 19.5681C98.1202 19.5708 98.1074 19.5736 98.0982 19.5759L78.5759 35.3492C78.5037 35.4076 78.4134 35.4391 78.3205 35.4383C75.0504 35.4114 72.9613 34.418 71.5746 33.0057ZM78.1843 34.6343L97.64 18.9147C97.6598 18.8987 97.681 18.8847 97.7035 18.8727C97.8916 18.7725 98.1299 18.7533 98.3404 18.7542C98.5676 18.7551 98.8383 18.7816 99.1376 18.8237C99.7368 18.9081 100.5 19.063 101.354 19.2408C101.478 19.2667 101.604 19.2931 101.732 19.3199C103.376 19.6638 105.329 20.0724 107.217 20.2758C108.489 20.4127 109.545 20.3889 110.21 20.2161C110.549 20.1282 110.724 20.0171 110.798 19.9288C110.842 19.8756 110.875 19.807 110.809 19.6436C110.732 19.4522 110.529 19.1769 110.118 18.8174C109.713 18.4636 109.134 18.0526 108.349 17.5829C106.778 16.6439 104.417 15.4913 101.051 14.1087C101.047 14.1072 101.044 14.1056 101.04 14.104C97.6912 12.6106 95.6602 11.831 93.836 11.8596C92.0418 11.8877 90.3863 12.7031 87.809 14.6275C83.7406 17.6651 74.3537 24.9539 69.9495 28.3895C70.3963 29.7801 70.9927 31.2681 72.147 32.4437C73.3412 33.6599 75.1745 34.5818 78.1843 34.6343Z" fill="#111111"/>
<path d="M16.7063 38.0552C20.7169 40.7192 33.9891 40.9092 40.1239 40.6712C43.8304 40.5968 43.0427 47.3016 42.6012 49.3383C42.2481 50.9677 37.8982 51.8805 36.2081 52.2819C34.2795 52.6635 28.9568 53.1146 23.0943 51.866C15.7662 50.3052 14.0026 51.1675 11.7434 51.3162C9.48416 51.4649 8.93279 51.6432 8.49253 50.7662C8.05228 49.8892 10.973 47.778 11.2488 46.9604C11.5246 46.1427 4.36306 40.4491 4.41866 38.8286C4.46314 37.5323 6.37997 38.3366 7.33282 38.9008C6.73327 38.125 6.72892 37.7358 7.11895 37.3716C7.69218 36.8364 9.14834 37.5097 9.80476 37.9132C9.5024 37.5829 9.22395 37.2439 8.99252 36.9107C7.92676 35.3766 10.5936 36.1758 11.9173 36.8044C11.8182 36.6514 11.724 36.4977 11.6374 36.3457C10.8664 34.9929 11.693 34.7253 16.7063 38.0552Z" fill="#FDFBEF"/>
<path fill-rule="evenodd" clip-rule="evenodd" d="M43.3261 44.1775C43.5438 46.1581 43.2283 48.3902 43.0026 49.4315C42.8805 49.9946 42.4328 50.4329 41.9221 50.7717C41.3993 51.1184 40.7352 51.4107 40.0509 51.6563C38.8514 52.0869 37.5229 52.3969 36.6514 52.6003C36.5279 52.6291 36.4136 52.6558 36.3102 52.6803L36.3028 52.6821L36.2953 52.6836C34.3184 53.0748 28.9405 53.5275 23.0201 52.2665C19.3768 51.4905 17.1363 51.3211 15.5369 51.3592C14.737 51.3783 14.0912 51.4494 13.5004 51.5259C13.3792 51.5415 13.2594 51.5576 13.1404 51.5736C12.6842 51.6347 12.2402 51.6943 11.7791 51.7246C11.4997 51.743 11.2277 51.7633 10.9807 51.7818C10.7547 51.7987 10.5497 51.814 10.379 51.8248C10.002 51.8488 9.67901 51.8599 9.40617 51.8332C9.12741 51.806 8.87225 51.737 8.64775 51.5798C8.42456 51.4235 8.2701 51.2067 8.14341 50.9544C8.03026 50.729 8.04093 50.4918 8.09508 50.2891C8.14857 50.0889 8.25192 49.8912 8.37132 49.7068C8.61011 49.3379 8.96619 48.9425 9.32208 48.5715C9.48974 48.3968 9.65258 48.2321 9.80913 48.0738C10.002 47.8788 10.1854 47.6934 10.3564 47.5107C10.5058 47.3512 10.6304 47.2093 10.724 47.0871C10.7856 47.0065 10.8255 46.945 10.8498 46.901C10.8265 46.852 10.784 46.7804 10.7151 46.684C10.5619 46.4693 10.3199 46.1893 10.0068 45.8552C9.51674 45.3323 8.88315 44.7091 8.20791 44.0449C8.02229 43.8623 7.83352 43.6766 7.64372 43.4891C6.76996 42.6257 5.87702 41.7253 5.20512 40.9361C4.86958 40.5419 4.58003 40.165 4.37413 39.8264C4.17902 39.5056 4.01586 39.1517 4.02714 38.8231C4.04223 38.3833 4.23109 38.0378 4.59211 37.8615C4.90888 37.7068 5.2865 37.7208 5.61606 37.7806C5.89196 37.8306 6.18348 37.9224 6.46537 38.0333C6.42015 37.6291 6.60033 37.324 6.85457 37.0867C7.09484 36.8623 7.40296 36.7883 7.68718 36.781C7.96097 36.7739 8.24953 36.8271 8.52064 36.9044C8.45181 36.7781 8.40108 36.6537 8.37504 36.5321C8.32954 36.3195 8.35578 36.0818 8.52828 35.8948C8.68122 35.729 8.89053 35.67 9.05681 35.6478C9.23152 35.6245 9.42523 35.6329 9.61754 35.6567C10.0456 35.7097 10.5634 35.8525 11.0556 36.0249C11.0555 36.0245 11.0554 36.0242 11.0553 36.0238C11.0054 35.867 10.9664 35.666 11.0233 35.4702C11.0924 35.232 11.277 35.0837 11.4983 35.0318C11.6885 34.9872 11.9007 35.0125 12.1074 35.063C12.5291 35.1661 13.1162 35.424 13.8929 35.8495C14.677 36.279 15.679 36.8933 16.9376 37.7293C17.8729 38.3506 19.3908 38.85 21.2841 39.2365C23.1658 39.6206 25.3745 39.885 27.6585 40.0597C32.2259 40.409 37.0618 40.3972 40.1177 40.2786L40.1215 40.2785L40.1252 40.2784C41.1992 40.2568 41.9681 40.7383 42.4781 41.4908C42.972 42.2196 43.2176 43.19 43.3261 44.1775ZM9.55741 38.2348C9.24763 38.0494 8.77777 37.8157 8.32713 37.6835C8.08977 37.6139 7.87788 37.5785 7.70779 37.5829C7.53725 37.5873 7.44839 37.6298 7.40204 37.673C7.2667 37.7994 7.25423 37.8704 7.26269 37.9447C7.2768 38.0688 7.36748 38.2858 7.65955 38.6637C8.13979 39.2852 9.03476 40.1835 10.4955 41.5934C10.6549 41.7472 10.6594 42.0012 10.5056 42.1606C10.3517 42.32 10.0978 42.3245 9.93841 42.1706C8.53523 40.8163 7.60599 39.8893 7.07357 39.2166C6.61664 38.9533 5.98358 38.6626 5.47285 38.5699C5.19853 38.5201 5.02905 38.5409 4.94413 38.5823C4.90346 38.6022 4.83603 38.6423 4.82889 38.8506C4.82626 38.9271 4.87474 39.1057 5.05955 39.4095C5.23358 39.6957 5.49225 40.0358 5.81597 40.4161C6.4626 41.1756 7.33237 42.0536 8.20757 42.9184C8.39301 43.1017 8.57884 43.2845 8.76265 43.4652C9.43989 44.1314 10.0898 44.7706 10.5921 45.3066C10.9108 45.6466 11.1826 45.9582 11.368 46.2178C11.4599 46.3465 11.5413 46.4771 11.595 46.6023C11.6411 46.71 11.705 46.8989 11.6382 47.0968C11.5821 47.2631 11.4733 47.428 11.361 47.5747C11.2438 47.7278 11.0984 47.8919 10.9421 48.059C10.7717 48.241 10.5686 48.4466 10.3636 48.6541C10.2058 48.8139 10.0469 48.9748 9.90095 49.1269C9.54721 49.4956 9.2384 49.8435 9.04476 50.1427C8.94793 50.2923 8.89318 50.4098 8.87012 50.4961C8.85908 50.5375 8.85737 50.5642 8.858 50.579C8.8583 50.5861 8.85913 50.5902 8.85958 50.5921C8.86 50.5937 8.86029 50.5943 8.86035 50.5944L8.86036 50.5944C8.9538 50.7806 9.03335 50.8704 9.10796 50.9227C9.18127 50.974 9.2877 51.0156 9.48422 51.0348C9.68667 51.0546 9.95266 51.0481 10.3281 51.0242C10.5162 51.0123 10.7071 50.9979 10.9196 50.9819C11.1539 50.9643 11.4145 50.9447 11.7264 50.9241C12.1579 50.8957 12.5678 50.8408 13.02 50.7803C13.1423 50.7639 13.2677 50.7471 13.3974 50.7303C14.0017 50.652 14.6784 50.5772 15.5178 50.5572C17.197 50.5172 19.5023 50.6971 23.1872 51.4819C28.9842 52.7166 34.2458 52.2698 36.1323 51.898C36.2373 51.8731 36.3516 51.8464 36.4737 51.8179C37.3491 51.6134 38.628 51.3147 39.7798 50.9013C40.4384 50.6649 41.0336 50.3983 41.4786 50.1032C41.9356 49.8 42.164 49.5131 42.2186 49.2616C42.4343 48.2662 42.7334 46.1276 42.5287 44.2652C42.426 43.3311 42.2011 42.512 41.8141 41.9409C41.4437 41.3944 40.9222 41.0658 40.1449 41.0804C37.0658 41.1997 32.2004 41.2116 27.5973 40.8596C25.2951 40.6835 23.0502 40.4158 21.1237 40.0225C19.2088 39.6316 17.5636 39.1082 16.4937 38.3975C15.2456 37.5685 14.2643 36.9676 13.5075 36.553C12.7433 36.1344 12.232 35.9193 11.9168 35.8422C11.8866 35.8349 11.8594 35.829 11.8348 35.8245C11.867 35.9119 11.9194 36.0223 11.9952 36.1553C12.0776 36.2998 12.1677 36.4469 12.2634 36.5945C12.8523 37.5041 13.6243 38.3974 13.9761 38.7689C14.1285 38.9298 14.1216 39.1836 13.9607 39.336C13.7999 39.4883 13.546 39.4814 13.3937 39.3205C13.0321 38.9387 12.2673 38.0555 11.6537 37.1279C11.0145 36.8355 10.1249 36.5279 9.5189 36.4528C9.37584 36.4351 9.26487 36.4326 9.18557 36.4404C9.21051 36.4981 9.25494 36.5802 9.33129 36.6901C9.55008 37.005 9.81649 37.33 10.11 37.6505C11.0826 38.713 12.299 39.6699 12.9381 40.0148C13.1331 40.12 13.2058 40.3633 13.1006 40.5583C12.9954 40.7532 12.7521 40.826 12.5571 40.7208C11.8262 40.3263 10.5644 39.3252 9.55741 38.2348ZM10.8684 46.9489C10.8683 46.9488 10.8675 46.9465 10.8668 46.9423C10.8682 46.9469 10.8686 46.949 10.8684 46.9489Z" fill="#111111"/>
</svg>
