<svg width="67" height="90" viewBox="0 0 67 90" fill="none" xmlns="http://www.w3.org/2000/svg">
<path d="M36.0733 0.538323C29.3434 2.17978 26.9769 19.2783 26.635 27.6223C26.4751 30.2896 26.2306 31.2784 16.4273 37.0608C6.27489 43.049 10.4069 47.7088 13.2111 50.2394C7.80795 51.6073 -0.66644 53.9586 1.24383 64.5551C2.61472 72.1596 10.5454 73.4464 14.1703 73.1728C13.8967 73.5831 14.4986 75.8401 19.0946 81.5852C23.6907 87.3303 31.6791 83.979 35.0988 81.5852C50.6926 96.1942 53.1547 86.0308 53.4283 79.123C56.7796 80.5593 63.9336 80.9286 65.7392 70.9158C67.5448 60.9029 60.9189 51.1454 55.0371 46.7682C70.8361 50.8718 54.8645 32.9571 49.1194 26.5964C43.3744 20.2358 44.4858 -1.5135 36.0733 0.538323Z" fill="#00BC68"/>
<path fill-rule="evenodd" clip-rule="evenodd" d="M38.6226 1.16225C37.9309 0.800723 37.1291 0.691162 36.1632 0.926745C34.6342 1.29968 33.298 2.56682 32.1466 4.49377C31 6.41288 30.0742 8.92491 29.341 11.6691C27.8753 17.1549 27.2008 23.4845 27.0306 27.6375L27.0302 27.6451C26.9904 28.3091 26.9439 28.9241 26.7239 29.5424C26.5007 30.1698 26.1101 30.7732 25.4256 31.4561C24.0768 32.8016 21.5187 34.5191 16.6259 37.405C11.5853 40.3781 10.2534 42.9277 10.3559 44.9249C10.461 46.9712 12.0646 48.6679 13.4747 49.9404C13.5845 50.0395 13.6309 50.1911 13.5952 50.3347C13.5596 50.4783 13.4478 50.5907 13.3044 50.627C10.592 51.3137 7.2095 52.2271 4.73325 54.2461C3.50382 55.2486 2.50335 56.5201 1.92116 58.1723C1.33843 59.8261 1.1656 61.8876 1.63343 64.4827C2.29141 68.1326 4.51336 70.2602 7.02872 71.4546C9.55977 72.6566 12.376 72.9043 14.1349 72.7715C14.2879 72.76 14.434 72.8367 14.5114 72.9691C14.5839 73.0931 14.5842 73.2458 14.5139 73.3696C14.5126 73.3778 14.5109 73.3933 14.5108 73.4178C14.5103 73.4857 14.5222 73.5948 14.5619 73.7539C14.6414 74.0716 14.8198 74.5411 15.1574 75.1927C15.8313 76.4939 17.1131 78.4715 19.4027 81.3334C21.5859 84.0624 24.5707 84.6448 27.4772 84.2388C30.3971 83.8309 33.1902 82.4268 34.8636 81.2554C35.0191 81.1466 35.2295 81.1615 35.3679 81.2913C39.2514 84.9295 42.2874 86.9958 44.6497 87.9626C47.0044 88.9262 48.6399 88.7804 49.7953 88.0788C50.971 87.3649 51.7515 86.0161 52.2527 84.359C52.7515 82.7098 52.9545 80.8178 53.0223 79.1059C53.0275 78.974 53.0973 78.8531 53.209 78.7826C53.3206 78.7121 53.4598 78.7011 53.5811 78.7531C55.1913 79.4432 57.7029 79.8679 60.0084 78.9395C62.2829 78.0236 64.4544 75.7501 65.3393 70.8433C66.2225 65.9455 65.0463 61.0926 62.9086 56.9099C60.7701 52.7256 57.6831 49.2399 54.7924 47.0887C54.6385 46.9741 54.5873 46.7666 54.6702 46.5936C54.7531 46.4205 54.947 46.3305 55.1327 46.3787C57.0894 46.8869 58.5139 47.0426 59.5082 46.9402C60.496 46.8386 60.9937 46.4928 61.2257 46.0535C61.4716 45.5878 61.4863 44.8976 61.2306 43.9717C60.9781 43.0569 60.4807 41.9817 59.8044 40.805C57.0938 36.0888 51.6971 30.0531 48.8166 26.864C47.3134 25.1998 46.286 22.568 45.4497 19.6626C44.915 17.8051 44.448 15.7935 43.9877 13.8107C43.7274 12.6897 43.4693 11.578 43.2023 10.5086C42.4556 7.51748 41.6386 4.85152 40.5086 3.06278C39.9466 2.17309 39.3244 1.52902 38.6226 1.16225ZM46.2206 19.4407C47.0546 22.3381 48.0426 24.8102 49.412 26.3263C52.2766 29.4979 57.7381 35.5999 60.4999 40.4053C61.1917 41.6089 61.7257 42.7507 62.0039 43.7582C62.279 44.7545 62.3238 45.6919 61.9351 46.4281C61.5324 47.1905 60.7308 47.6208 59.5904 47.7382C58.8017 47.8194 57.8201 47.756 56.6248 47.5356C59.1903 49.7611 61.7583 52.8963 63.6229 56.5448C65.8172 60.8383 67.0511 65.8706 66.1288 70.9857C65.208 76.0918 62.8998 78.64 60.308 79.6837C57.9949 80.6151 55.5346 80.315 53.7971 79.6983C53.7074 81.2942 53.4918 83.0331 53.0205 84.5912C52.4958 86.3261 51.6349 87.9003 50.2117 88.7645C48.7681 89.6411 46.8472 89.7287 44.3459 88.705C41.9026 87.7051 38.8583 85.6288 35.055 82.0964C33.2878 83.2783 30.5135 84.6247 27.5882 85.0333C24.4966 85.4651 21.1891 84.8506 18.7763 81.8345C16.4698 78.9514 15.1526 76.9279 14.445 75.5617C14.0918 74.8797 13.8838 74.3489 13.7837 73.9485C13.7524 73.8233 13.7304 73.7061 13.7186 73.5976C11.8491 73.6634 9.14941 73.3498 6.6846 72.1793C3.98567 70.8977 1.55684 68.5796 0.843936 64.625C0.356631 61.9219 0.526746 59.7158 1.16454 57.9057C1.80289 56.094 2.90054 54.7054 4.22631 53.6244C6.63356 51.6617 9.81094 50.7024 12.394 50.0318C11.1022 48.7928 9.66308 47.0762 9.55474 44.966C9.42832 42.5035 11.1066 39.7291 16.2184 36.714C21.1289 33.8176 23.5947 32.1495 24.859 30.8882C25.481 30.2677 25.7942 29.7624 25.9681 29.2735C26.145 28.7764 26.1891 28.2685 26.2292 27.6008C26.4012 23.4097 27.0809 17.0202 28.566 11.462C29.3084 8.68344 30.2575 6.09158 31.458 4.0823C32.6538 2.08088 34.1372 0.595163 35.9731 0.147372C37.1104 -0.13 38.1141 -0.00873149 38.9942 0.451275C39.8643 0.906032 40.5803 1.67419 41.1868 2.63434C42.394 4.54528 43.2355 7.32947 43.9807 10.3143C44.2548 11.4123 44.5158 12.537 44.7771 13.6632C45.2334 15.6293 45.6907 17.5999 46.2206 19.4407Z" fill="#111111"/>
<path d="M28.3054 32.9351C28.4947 36.3294 30.7971 38.9612 33.448 38.8134C36.0989 38.6656 38.0945 35.7941 37.9052 32.3998C37.7159 29.0055 35.4135 26.3737 32.7626 26.5216C30.1117 26.6694 28.1162 29.5408 28.3054 32.9351Z" fill="white"/>
<path fill-rule="evenodd" clip-rule="evenodd" d="M33.4034 38.0124C31.3679 38.1259 29.2819 36.038 29.1064 32.8904C28.9309 29.7429 30.7718 27.436 32.8073 27.3225C34.8428 27.209 36.9287 29.2969 37.1042 32.4445C37.2797 35.592 35.4388 37.8989 33.4034 38.0124ZM33.448 38.8134C30.7971 38.9612 28.4947 36.3294 28.3054 32.9351C28.1162 29.5408 30.1117 26.6694 32.7626 26.5216C35.4135 26.3737 37.7159 29.0055 37.9052 32.3998C38.0945 35.7941 36.0989 38.6656 33.448 38.8134Z" fill="#111111"/>
<path d="M29.6166 34.5081C29.7302 36.885 31.4739 38.733 33.5114 38.6357C35.5488 38.5383 37.1083 36.5325 36.9947 34.1555C36.8811 31.7785 35.1374 29.9305 33.1 30.0279C31.0626 30.1252 29.503 32.1311 29.6166 34.5081Z" fill="#111111"/>
<path d="M37.0483 32.4154C37.0212 35.8148 39.0202 38.5867 41.5131 38.6066C44.006 38.6265 46.0489 35.8867 46.076 32.4873C46.1031 29.0878 44.1041 26.3159 41.6111 26.2961C39.1182 26.2762 37.0753 29.0159 37.0483 32.4154Z" fill="white"/>
<path fill-rule="evenodd" clip-rule="evenodd" d="M38.9863 36.3091C38.2882 35.341 37.8381 33.9689 37.8505 32.4218C37.8628 30.8747 38.3346 29.5099 39.0481 28.553C39.7619 27.5957 40.6752 27.0909 41.6048 27.0983C42.5343 27.1057 43.4394 27.625 44.1379 28.5936C44.836 29.5617 45.2861 30.9338 45.2738 32.4809C45.2615 34.028 44.7896 35.3928 44.0761 36.3496C43.3623 37.307 42.449 37.8118 41.5195 37.8044C40.59 37.797 39.6848 37.2777 38.9863 36.3091ZM41.5131 38.6066C39.0202 38.5867 37.0212 35.8148 37.0483 32.4154C37.0753 29.0159 39.1182 26.2762 41.6111 26.2961C44.1041 26.3159 46.1031 29.0878 46.076 32.4873C46.0489 35.8867 44.006 38.6265 41.5131 38.6066Z" fill="#111111"/>
<path d="M37.9528 33.3951C37.6496 35.7554 39.0439 37.8795 41.067 38.1393C43.0901 38.3992 44.9759 36.6965 45.2791 34.3362C45.5823 31.9759 44.1881 29.8518 42.165 29.5919C40.1418 29.332 38.256 31.0348 37.9528 33.3951Z" fill="#111111"/>
<path d="M25.6885 61.5174C25.1292 60.0797 26.0282 58.5148 26.4861 57.9336L37.8632 66.5428C36.514 67.4167 34.8194 68.2873 31.9888 67.1221C30.2416 66.4029 26.6856 64.081 25.6885 61.5174Z" fill="#F2A04E"/>
<path fill-rule="evenodd" clip-rule="evenodd" d="M26.167 57.6922C26.3022 57.5206 26.5499 57.4888 26.7241 57.6206L38.1012 66.2298C38.2055 66.3088 38.2648 66.4336 38.26 66.5643C38.2553 66.6951 38.187 66.8152 38.0772 66.8864C37.3914 67.3306 36.5773 67.8017 35.5529 67.998C34.5208 68.1957 33.3103 68.1084 31.8321 67.5C30.9186 67.1239 29.56 66.3426 28.302 65.3309C27.0505 64.3244 25.8472 63.0492 25.3106 61.6698C24.9856 60.8341 25.0916 59.9813 25.3209 59.2857C25.5502 58.5898 25.9147 58.0125 26.167 57.6922ZM26.5713 58.511C26.4009 58.7804 26.2146 59.1367 26.0828 59.5367C25.8879 60.1283 25.8241 60.7768 26.0583 61.379C26.5189 62.5631 27.5921 63.7306 28.8047 64.7058C30.0108 65.6757 31.3038 66.415 32.1374 66.7581C33.4898 67.3148 34.5418 67.3748 35.402 67.2101C36.0601 67.084 36.6263 66.8229 37.1508 66.5166L26.5713 58.511Z" fill="#111111"/>
<path d="M27.9408 53.5853C28.576 52.3769 29.8384 52.6544 30.4196 53.1123C33.4706 55.8621 39.8569 61.4949 40.9937 62.0281C42.4148 62.6946 41.1514 65.1463 40.0521 65.1517C38.7406 65.1582 38.9943 66.2914 38.0741 66.5795C37.154 66.8675 35.9801 66.0226 35.3072 66.1323C34.6343 66.2419 33.0756 66.4266 32.4307 65.0119C32.2307 64.5732 30.055 64.8464 29.6637 64.5649C29.0864 64.1497 29.1137 63.0198 29.1564 62.2988C28.8027 62.2416 27.6665 62.0579 27.0968 61.5291C26.5314 61.0043 26.7679 59.9473 27.012 59.3315C26.8821 59.2377 26.5853 58.7384 26.4374 57.4915C26.2895 56.2445 27.1716 55.6445 27.6312 55.5004C27.6312 55.5004 27.2008 54.9928 27.9408 53.5853Z" fill="#71BC45"/>
<path fill-rule="evenodd" clip-rule="evenodd" d="M29.1768 52.3227C29.7531 52.2925 30.3077 52.5149 30.6652 52.7965C30.6721 52.802 30.6789 52.8077 30.6855 52.8136C32.2094 54.1871 34.5661 56.2805 36.6829 58.0963C37.7416 59.0044 38.7379 59.8411 39.5391 60.483C39.9399 60.8042 40.2891 61.0744 40.5713 61.2796C40.8618 61.4908 41.058 61.6158 41.1614 61.6643C41.64 61.8887 41.9042 62.2779 41.9915 62.7178C42.0752 63.1397 41.9947 63.5894 41.8384 63.9846C41.6809 64.3827 41.4333 64.7599 41.1381 65.0436C40.8498 65.3206 40.4708 65.55 40.0514 65.5521C39.7846 65.5534 39.632 65.6108 39.5322 65.6744C39.427 65.7416 39.3441 65.8382 39.2464 65.9833C39.2234 66.0174 39.1991 66.0561 39.1728 66.0979C38.9985 66.3749 38.7369 66.7907 38.1913 66.9615C37.5929 67.1488 36.9514 66.9609 36.4703 66.8032C36.3914 66.7773 36.3168 66.7522 36.2456 66.7281C36.079 66.6719 35.9305 66.6218 35.7865 66.5828C35.5793 66.5268 35.449 66.5144 35.369 66.5274C35.025 66.5835 34.4046 66.6687 33.773 66.5354C33.1384 66.4016 32.4822 66.0431 32.0918 65.2388C32.0539 65.2241 31.9916 65.207 31.8991 65.1913C31.6907 65.1559 31.4129 65.1405 31.1021 65.1296C31.0336 65.1272 30.9632 65.125 30.8922 65.1228C30.6545 65.1154 30.4095 65.1077 30.1985 65.091C30.0603 65.08 29.9233 65.0642 29.8021 65.0389C29.6916 65.0158 29.5463 64.9758 29.4268 64.8898C28.9988 64.582 28.8413 64.0517 28.7777 63.6019C28.7314 63.2744 28.7274 62.9321 28.7366 62.6318C28.5516 62.5955 28.3257 62.5447 28.0902 62.4744C27.6745 62.3504 27.1752 62.151 26.8212 61.8223C26.4126 61.443 26.3262 60.9026 26.3475 60.445C26.3647 60.0764 26.4531 59.709 26.5547 59.4067C26.5507 59.4003 26.5468 59.394 26.543 59.3877C26.4785 59.2819 26.4142 59.1477 26.3529 58.9832C26.2302 58.654 26.1131 58.1849 26.0364 57.538C25.8929 56.3286 26.5618 55.6148 27.1271 55.2883C27.1165 55.2279 27.1088 55.1619 27.1052 55.0899C27.0856 54.6964 27.1898 54.146 27.583 53.3979C27.9684 52.6649 28.572 52.3543 29.1768 52.3227ZM27.9507 55.2608C28.025 55.3609 28.0488 55.4905 28.0138 55.6112C27.9764 55.7404 27.8768 55.8422 27.7486 55.8824C27.4021 55.9911 26.7156 56.4535 26.833 57.4435C26.9042 58.0435 27.0094 58.4476 27.1046 58.7032C27.1523 58.8311 27.1957 58.9173 27.2281 58.9705C27.2454 58.9988 27.2567 59.0133 27.2609 59.0184C27.3972 59.1281 27.4473 59.3145 27.3822 59.4786C27.2702 59.7612 27.1651 60.1342 27.1489 60.4824C27.1323 60.8384 27.2103 61.0889 27.367 61.2344C27.5827 61.4346 27.9364 61.5914 28.3195 61.7057C28.6921 61.8168 29.0423 61.8737 29.2177 61.9021C29.4209 61.9349 29.5663 62.1162 29.5541 62.3217C29.5329 62.6803 29.5181 63.1082 29.572 63.4897C29.6273 63.8809 29.7412 64.1214 29.8863 64.232C29.8918 64.2339 29.9149 64.2429 29.966 64.2536C30.0394 64.2689 30.1382 64.2814 30.2621 64.2913C30.4519 64.3063 30.6692 64.3131 30.9025 64.3205C30.977 64.3228 31.053 64.3252 31.1303 64.3279C31.4374 64.3387 31.7655 64.3549 32.0335 64.4004C32.1669 64.4231 32.3067 64.4563 32.4298 64.5107C32.5449 64.5615 32.7079 64.6583 32.7929 64.8448C33.0516 65.412 33.4802 65.6538 33.9386 65.7505C34.4157 65.8512 34.9111 65.7892 35.24 65.7356C35.4965 65.6939 35.7652 65.746 35.9961 65.8085C36.1653 65.8543 36.3502 65.9167 36.5267 65.9762C36.5928 65.9985 36.6578 66.0204 36.7202 66.0409C37.2243 66.2062 37.6298 66.2967 37.9516 66.1959C38.1988 66.1185 38.2952 65.971 38.4739 65.6973C38.5064 65.6476 38.5416 65.5937 38.581 65.5352C38.6989 65.3601 38.8559 65.1543 39.1008 64.9981C39.351 64.8385 39.6585 64.7518 40.0474 64.7499C40.1776 64.7492 40.3688 64.6702 40.5822 64.4652C40.7886 64.2668 40.9742 63.9885 41.0924 63.6896C41.2117 63.3879 41.2493 63.0994 41.2046 62.8739C41.1634 62.6666 41.0526 62.4993 40.8207 62.3906C40.6399 62.3058 40.3878 62.138 40.0995 61.9284C39.803 61.7128 39.4429 61.434 39.0375 61.1091C38.2261 60.459 37.222 59.6156 36.1606 58.7052C34.0423 56.888 31.6864 54.7956 30.159 53.4191C29.9345 53.2462 29.5726 53.1053 29.2187 53.1238C28.8882 53.141 28.543 53.2959 28.2931 53.7712C27.9464 54.4307 27.8958 54.8378 27.9064 55.05C27.9117 55.1559 27.9324 55.2182 27.9435 55.245C27.9466 55.2526 27.9492 55.2578 27.9507 55.2608ZM32.1224 65.2531C32.1224 65.2531 32.121 65.2524 32.1188 65.2508C32.1214 65.2523 32.1225 65.2531 32.1224 65.2531Z" fill="#111111"/>
<path d="M27.7941 59.9029C27.1412 58.4869 28.2413 57.1359 28.2413 57.1359C28.2413 57.1359 40.8023 61.7869 40.9463 62.247C41.0904 62.7071 39.7248 64.452 38.5574 64.9185C37.39 65.385 35.4745 65.0754 33.4149 64.3057C31.3553 63.536 28.4469 61.3188 27.7941 59.9029Z" fill="#802926"/>
<path fill-rule="evenodd" clip-rule="evenodd" d="M28.3921 56.7588L28.2528 57.135L27.9418 56.8817C28.0501 56.7486 28.2311 56.6992 28.3921 56.7588ZM28.4071 57.6201C28.3292 57.7493 28.2369 57.9235 28.1599 58.1286C27.9885 58.5847 27.9041 59.1576 28.1699 59.734C28.3066 60.0305 28.577 60.3976 28.9609 60.8032C29.3406 61.2043 29.8137 61.6247 30.3344 62.0288C31.38 62.8404 32.5865 63.5627 33.5668 63.929C34.5772 64.3066 35.5405 64.5667 36.3842 64.677C37.2351 64.7882 37.9273 64.742 38.4201 64.5451C38.9159 64.3469 39.4983 63.8505 39.9496 63.3196C40.1715 63.0586 40.3469 62.8065 40.4559 62.6028C40.4924 62.5345 40.5188 62.4764 40.537 62.4291C40.4542 62.3828 40.3411 62.325 40.1973 62.256C39.8494 62.0893 39.3545 61.8731 38.7573 61.6234C37.5646 61.1249 35.9851 60.5019 34.4068 59.8921C32.8292 59.2826 31.2558 58.6873 30.0767 58.2444C29.4871 58.0229 28.9962 57.8396 28.6528 57.7116C28.5597 57.6769 28.4775 57.6463 28.4071 57.6201ZM41.2413 61.9542C41.2655 61.9814 41.3137 62.0399 41.3407 62.1262C41.3931 62.2936 41.3643 62.4615 41.3309 62.5815C41.2945 62.712 41.2345 62.848 41.1632 62.9811C41.0202 63.2486 40.8083 63.5481 40.5608 63.8392C40.0736 64.4123 39.3894 65.0216 38.7178 65.29C38.0432 65.5596 37.194 65.5919 36.2803 65.4725C35.3595 65.3521 34.3353 65.0726 33.286 64.6805C32.2067 64.2772 30.9292 63.506 29.8425 62.6625C29.2971 62.2392 28.792 61.7916 28.3783 61.3547C27.969 60.9223 27.631 60.4813 27.4413 60.0698C27.0543 59.2303 27.1935 58.4197 27.4089 57.8464C27.5171 57.5584 27.6475 57.3212 27.7509 57.1557C27.8028 57.0726 27.8485 57.0066 27.8821 56.9603C27.899 56.9371 27.9128 56.9187 27.923 56.9055C27.9281 56.899 27.9322 56.8936 27.9354 56.8897L27.9394 56.8847L27.9408 56.8829L27.9413 56.8823L27.9418 56.8817C27.9419 56.8816 27.9418 56.8817 28.2528 57.135C28.3921 56.7588 28.392 56.7588 28.3921 56.7588L28.5335 56.8113C28.6257 56.8455 28.7608 56.8958 28.9329 56.9599C29.2769 57.088 29.7685 57.2716 30.3588 57.4934C31.5393 57.9369 33.1152 58.5331 34.6959 59.1438C36.2759 59.7543 37.8636 60.3804 39.0667 60.8833C39.6673 61.1343 40.1773 61.3569 40.544 61.5326C40.7261 61.6199 40.881 61.6995 40.9963 61.7679C41.053 61.8016 41.11 61.8384 41.1587 61.8771C41.1829 61.8964 41.2128 61.9223 41.2413 61.9542Z" fill="#111111"/>
<path d="M38.4575 52.8509C35.2997 50.768 32.1907 51.0768 30.3416 53.068C29.6364 53.8275 28.3345 55.7573 28.7679 57.3998C29.3096 59.453 32.227 61.6717 35.7077 63.1078C39.1884 64.544 41.4824 62.5124 42.4649 60.4872C43.4474 58.462 42.4047 55.4545 38.4575 52.8509Z" fill="#F2A04E"/>
<path fill-rule="evenodd" clip-rule="evenodd" d="M29.7618 52.522C31.9442 50.172 35.511 49.941 38.9072 52.1812L38.4655 52.8509C35.3078 50.768 32.1988 51.0768 30.3496 53.0679C29.6445 53.8275 28.3425 55.7572 28.7759 57.3998C29.3177 59.4529 32.2351 61.6717 35.7158 63.1078C39.1964 64.544 41.4904 62.5123 42.4729 60.4871C43.4555 58.4619 42.4127 55.4544 38.4655 52.8509L38.9072 52.1812C42.9629 54.8563 44.4502 58.2495 43.1947 60.8373C42.649 61.9622 41.7224 63.1282 40.3979 63.809C39.043 64.5054 37.3524 64.651 35.4098 63.8494C33.6132 63.1081 31.944 62.1582 30.641 61.1103C29.3601 60.0803 28.3362 58.8777 28.0002 57.6044C27.715 56.5234 28.0132 55.4249 28.4068 54.5679C28.8065 53.6977 29.3594 52.9554 29.7618 52.522Z" fill="#111111"/>
<path d="M39.153 53.8445C37.2713 52.2969 35.1723 51.4539 33.9157 52.5031C33.4129 52.7713 32.9095 53.9661 33.0977 54.8314C33.333 55.9129 35.0783 57.5725 37.2633 58.7808C39.4483 59.989 40.9596 59.3213 41.3877 57.8919C41.7545 56.6674 41.4664 55.7472 39.153 53.8445Z" fill="#E37921"/>
<path fill-rule="evenodd" clip-rule="evenodd" d="M37.7554 53.763C37.9193 53.7363 38.0739 53.8476 38.1007 54.0115L38.2103 54.6845C38.237 54.8484 38.1257 55.003 37.9618 55.0298C37.7978 55.0565 37.6432 54.9452 37.6165 54.7812L37.5068 54.1083C37.4801 53.9443 37.5914 53.7897 37.7554 53.763Z" fill="#111111"/>
<path fill-rule="evenodd" clip-rule="evenodd" d="M38.0498 56.3008C38.1991 56.2279 38.3792 56.2899 38.4521 56.4392L38.751 57.052C38.8239 57.2013 38.7619 57.3814 38.6126 57.4542C38.4633 57.5271 38.2832 57.4651 38.2103 57.3158L37.9113 56.703C37.8385 56.5537 37.9005 56.3736 38.0498 56.3008Z" fill="#111111"/>
<path fill-rule="evenodd" clip-rule="evenodd" d="M36.8154 55.5368C36.8056 55.7027 36.6632 55.8292 36.4974 55.8194L35.8167 55.7793C35.6509 55.7695 35.5244 55.6271 35.5342 55.4613C35.5439 55.2954 35.6863 55.1689 35.8522 55.1787L36.5328 55.2188C36.6986 55.2286 36.8252 55.371 36.8154 55.5368Z" fill="#111111"/>
<path d="M46.0925 64.8441L44.6719 51.4766L56.0774 51.8108L54.965 64.8441C54.554 65.5124 53.4264 66.8492 50.2205 66.8492C47.8952 66.8492 46.298 65.5124 46.0925 64.8441Z" fill="#770811"/>
<path fill-rule="evenodd" clip-rule="evenodd" d="M44.3881 51.2106C44.4668 51.1256 44.5784 51.0788 44.6941 51.0822L56.0996 51.4164C56.2098 51.4196 56.3139 51.4681 56.3872 51.5504C56.4606 51.6327 56.4969 51.7416 56.4875 51.8514L55.3751 64.8848C55.3698 64.9471 55.3499 65.0074 55.3171 65.0608C55.0855 65.4374 54.656 65.9936 53.8497 66.4525C53.0451 66.9104 51.8908 67.2569 50.231 67.2569C48.991 67.2569 47.9413 66.9005 47.1699 66.4503C46.7845 66.2253 46.4638 65.9742 46.2213 65.7267C45.986 65.4867 45.798 65.2234 45.7196 64.9685C45.7121 64.9439 45.7069 64.9186 45.7042 64.893L44.2835 51.5255C44.2713 51.4104 44.3094 51.2955 44.3881 51.2106ZM45.1298 51.8975L46.497 64.7619C46.5318 64.8469 46.6211 64.9885 46.7942 65.1651C46.9815 65.3563 47.244 65.5646 47.5743 65.7574C48.2342 66.1426 49.1456 66.4547 50.231 66.4547C51.7771 66.4547 52.7895 66.1328 53.4529 65.7552C54.0581 65.4108 54.394 65.0081 54.5842 64.7186L55.6521 52.2058L45.1298 51.8975Z" fill="#111111"/>
<path d="M50.6748 49.4883C46.8329 49.4883 45.0721 50.7225 44.6719 51.3396C45.4723 52.0449 47.7934 53.4554 50.6748 53.4554C53.5562 53.4554 55.4771 52.2212 56.0774 51.6041C55.8773 50.8988 54.5166 49.4883 50.6748 49.4883Z" fill="white"/>
<path fill-rule="evenodd" clip-rule="evenodd" d="M45.2629 51.2892C46.2137 51.9891 48.2413 53.0531 50.6853 53.0531C53.1808 53.0531 54.902 52.0891 55.604 51.5031C55.4578 51.2672 55.1478 50.9391 54.5668 50.6361C53.7924 50.2324 52.5591 49.8882 50.6853 49.8882C48.8067 49.8882 47.4575 50.1899 46.5413 50.554C45.9173 50.8021 45.5068 51.0735 45.2629 51.2892ZM46.2451 49.8085C47.2699 49.4013 48.722 49.0859 50.6853 49.0859C52.6533 49.0859 54.0213 49.447 54.9377 49.9248C55.8436 50.3972 56.3338 51 56.4738 51.4934C56.5129 51.6313 56.4754 51.7797 56.3754 51.8825C55.6992 52.5776 53.6745 53.8553 50.6853 53.8553C47.6848 53.8553 45.273 52.3934 44.4172 51.6393C44.268 51.5079 44.2376 51.287 44.3458 51.1201C44.6085 50.715 45.2334 50.2106 46.2451 49.8085Z" fill="#111111"/>
<path d="M44.6719 46.0191C44.6719 45.2257 45.1678 45.0273 45.4157 45.0273H49.6308L51.3664 50.4821C51.3664 50.7301 51.1185 50.978 50.6226 51.226C50.1267 51.4739 49.3828 50.978 49.3828 50.978L48.1431 47.0109H45.4157C45.1678 47.0109 44.6719 46.8126 44.6719 46.0191Z" fill="#F9C8C8"/>
<path fill-rule="evenodd" clip-rule="evenodd" d="M44.6835 44.9429C44.9207 44.7152 45.2096 44.6328 45.4262 44.6328H49.6413C49.8159 44.6328 49.9705 44.7459 50.0235 44.9123L51.7591 50.3671C51.7716 50.4064 51.778 50.4475 51.778 50.4887C51.778 50.7566 51.6423 50.9766 51.4746 51.1443C51.3077 51.3111 51.0793 51.4579 50.8124 51.5913C50.4052 51.795 49.9534 51.6773 49.6864 51.5771C49.5395 51.5221 49.4131 51.4587 49.324 51.4097C49.279 51.3849 49.2425 51.3633 49.2165 51.3473C49.2034 51.3393 49.1929 51.3327 49.1853 51.3278L49.1759 51.3217L49.1728 51.3197L49.1717 51.3189L49.1712 51.3186C49.1711 51.3186 49.1708 51.3184 49.3933 50.9846L49.1708 51.3184C49.0945 51.2674 49.0379 51.1919 49.0105 51.1043L47.8587 47.4186H45.4262C45.2096 47.4186 44.9207 47.3362 44.6835 47.1085C44.4362 46.871 44.2812 46.5113 44.2812 46.0257C44.2812 45.5402 44.4362 45.1804 44.6835 44.9429ZM49.73 50.7173C49.7937 50.7515 49.8766 50.7917 49.9681 50.826C50.1969 50.9118 50.365 50.9181 50.4537 50.8738C50.6827 50.7593 50.8262 50.6581 50.9073 50.577C50.9361 50.5482 50.953 50.5262 50.9629 50.5106L49.348 45.435H45.4262C45.3949 45.435 45.3118 45.4518 45.2391 45.5216C45.1765 45.5817 45.0835 45.7178 45.0835 46.0257C45.0835 46.3336 45.1765 46.4697 45.2391 46.5298C45.3118 46.5996 45.3949 46.6164 45.4262 46.6164H48.1536C48.329 46.6164 48.4841 46.7304 48.5365 46.8978L49.73 50.7173Z" fill="#111111"/>
<path d="M44.6719 46.0191C44.6719 45.2257 45.1678 45.0273 45.4157 45.0273H49.6308L51.3664 50.4821C51.3664 50.7301 51.1185 50.978 50.6226 51.226C50.1267 51.4739 49.3828 50.978 49.3828 50.978L48.1431 47.0109H45.4157C45.1678 47.0109 44.6719 46.8126 44.6719 46.0191Z" fill="#F9C8C8"/>
<path fill-rule="evenodd" clip-rule="evenodd" d="M44.6835 44.9429C44.9207 44.7152 45.2096 44.6328 45.4262 44.6328H49.6413C49.8159 44.6328 49.9705 44.7459 50.0235 44.9123L51.7591 50.3671C51.7716 50.4064 51.778 50.4475 51.778 50.4887C51.778 50.7566 51.6423 50.9766 51.4746 51.1443C51.3077 51.3111 51.0793 51.4579 50.8124 51.5913C50.4052 51.795 49.9534 51.6773 49.6864 51.5771C49.5395 51.5221 49.4131 51.4587 49.324 51.4097C49.279 51.3849 49.2425 51.3633 49.2165 51.3473C49.2034 51.3393 49.1929 51.3327 49.1853 51.3278L49.1759 51.3217L49.1728 51.3197L49.1717 51.3189L49.1712 51.3186C49.1711 51.3186 49.1708 51.3184 49.3933 50.9846L49.1708 51.3184C49.0945 51.2674 49.0379 51.1919 49.0105 51.1043L47.8587 47.4186H45.4262C45.2096 47.4186 44.9207 47.3362 44.6835 47.1085C44.4362 46.871 44.2812 46.5113 44.2812 46.0257C44.2812 45.5402 44.4362 45.1804 44.6835 44.9429ZM49.73 50.7173C49.7937 50.7515 49.8766 50.7917 49.9681 50.826C50.1969 50.9118 50.365 50.9181 50.4537 50.8738C50.6827 50.7593 50.8262 50.6581 50.9073 50.577C50.9361 50.5482 50.953 50.5262 50.9629 50.5106L49.348 45.435H45.4262C45.3949 45.435 45.3118 45.4518 45.2391 45.5216C45.1765 45.5817 45.0835 45.7178 45.0835 46.0257C45.0835 46.3336 45.1765 46.4697 45.2391 46.5298C45.3118 46.5996 45.3949 46.6164 45.4262 46.6164H48.1536C48.329 46.6164 48.4841 46.7304 48.5365 46.8978L49.73 50.7173Z" fill="#111111"/>
<path fill-rule="evenodd" clip-rule="evenodd" d="M44.9844 46.0209C44.9844 45.9101 45.0742 45.8203 45.1849 45.8203H48.9041C48.9916 45.8203 49.069 45.877 49.0954 45.9605L50.583 50.6714C50.6164 50.7771 50.5578 50.8897 50.4522 50.9231C50.3466 50.9564 50.2339 50.8979 50.2005 50.7922L48.7571 46.2214H45.1849C45.0742 46.2214 44.9844 46.1316 44.9844 46.0209Z" fill="#770811"/>
<path fill-rule="evenodd" clip-rule="evenodd" d="M44.6835 44.9429C44.9207 44.7152 45.2096 44.6328 45.4262 44.6328H49.6413C49.8159 44.6328 49.9705 44.7459 50.0235 44.9123L51.7591 50.3671C51.7716 50.4064 51.778 50.4475 51.778 50.4887C51.778 50.7566 51.6423 50.9766 51.4746 51.1443C51.3077 51.3111 51.0793 51.4579 50.8124 51.5913C50.4052 51.795 49.9534 51.6773 49.6864 51.5771C49.5395 51.5221 49.4131 51.4587 49.324 51.4097C49.279 51.385 49.2425 51.3633 49.2165 51.3473C49.2034 51.3393 49.1929 51.3327 49.1853 51.3278L49.1759 51.3217L49.1728 51.3197L49.1717 51.3189L49.1712 51.3186C49.1711 51.3186 49.1708 51.3184 49.3933 50.9846L49.1708 51.3184C49.0945 51.2674 49.0379 51.1919 49.0105 51.1043L47.8587 47.4186H45.4262C45.2096 47.4186 44.9207 47.3362 44.6835 47.1085C44.4362 46.871 44.2812 46.5113 44.2812 46.0257C44.2812 45.5402 44.4362 45.1804 44.6835 44.9429ZM49.73 50.7173C49.7937 50.7515 49.8766 50.7917 49.9681 50.826C50.1969 50.9118 50.365 50.9181 50.4537 50.8738C50.6827 50.7593 50.8262 50.6581 50.9073 50.577C50.9361 50.5482 50.953 50.5262 50.9629 50.5106L49.348 45.435H45.4262C45.3949 45.435 45.3118 45.4518 45.2391 45.5216C45.1765 45.5817 45.0835 45.7178 45.0835 46.0257C45.0835 46.3336 45.1765 46.4697 45.2391 46.5298C45.3118 46.5996 45.3949 46.6164 45.4262 46.6164H48.1536C48.329 46.6164 48.4841 46.7304 48.5365 46.8978L49.73 50.7173Z" fill="#111111"/>
<path d="M62.7942 58.4175C67.1712 51.6075 61.0309 43.3238 56.5661 43.0449C55.5964 42.9843 53.1314 44.3697 52.695 46.4062C52.1495 48.9517 55.0588 49.8609 55.6042 51.3155C56.1496 52.7701 54.6694 56.1495 54.206 56.6562C51.3838 59.7417 49.0267 60.6966 48.024 60.4101C46.7512 60.0464 44.7511 60.4101 46.5694 62.0465C48.3876 63.683 46.5694 62.592 43.6602 64.2284C41.3328 65.5376 44.6299 65.2588 46.5694 64.9557C41.8419 65.8649 42.0237 66.4103 42.3874 67.3195C42.5917 67.8301 44.1822 67.6536 45.6361 67.3563C44.6719 67.6714 43.7498 68.1468 43.6602 68.7741C43.5487 69.5542 45.4223 69.388 47.0407 69.0768C45.1805 69.7428 45.2105 71.0767 48.3876 70.7741C52.206 70.4105 58.3321 65.36 62.7942 58.4175Z" fill="#FDFBEF"/>
<path fill-rule="evenodd" clip-rule="evenodd" d="M55.7471 43.6359C56.098 43.4923 56.3681 43.4421 56.5227 43.4518L56.5227 43.4518C57.5278 43.5146 58.6712 44.0345 59.7671 44.9248C60.8579 45.811 61.8731 47.042 62.622 48.4744C64.12 51.3395 64.5294 54.9539 62.4384 58.2072C60.2272 61.6475 57.6059 64.6151 55.0718 66.7635C52.5221 68.9251 50.1147 70.2116 48.3313 70.3814C47.5597 70.4549 47.0079 70.4257 46.6434 70.3451C46.2611 70.2607 46.1791 70.1433 46.1723 70.1299C46.1723 70.1293 46.1724 70.1285 46.1726 70.1273C46.173 70.1246 46.1738 70.1201 46.1759 70.1135C46.1848 70.0852 46.2131 70.0293 46.2881 69.9525C46.4365 69.8006 46.7131 69.6236 47.1293 69.4712C47.6206 69.376 48.0875 69.2681 48.47 69.1689L48.3224 68.3823C47.79 68.4449 47.3178 68.5544 46.917 68.6951C46.1238 68.8465 45.2984 68.956 44.6938 68.9402C44.38 68.9321 44.1759 68.8907 44.0695 68.8394C44.0572 68.8335 44.048 68.8283 44.0411 68.824C44.0669 68.6881 44.1966 68.5025 44.5212 68.2905C44.8366 68.0845 45.2624 67.9023 45.7209 67.7511C46.3396 67.624 46.9322 67.4758 47.3865 67.3486L47.2158 66.5662C46.7611 66.638 46.1323 66.7743 45.5152 66.9744C44.803 67.1193 44.0777 67.2302 43.5132 67.2465C43.2254 67.2548 43.0046 67.2375 42.8565 67.2001C42.7818 67.1812 42.7465 67.1631 42.7323 67.1541C42.6401 66.922 42.6025 66.8038 42.6052 66.7128C42.6064 66.6715 42.6124 66.5954 42.7868 66.4686C42.9808 66.3275 43.337 66.1612 43.9676 65.9714C44.5908 65.7839 45.4506 65.5824 46.6268 65.3562L46.4891 64.566C45.5194 64.7175 44.2508 64.8556 43.5253 64.8032C43.5119 64.8022 43.4988 64.8012 43.4861 64.8001C43.5777 64.7377 43.6938 64.666 43.8385 64.5846C45.0029 63.9296 45.9685 63.7363 46.6175 63.6064C46.7438 63.5812 46.858 63.5583 46.9594 63.5349C47.1026 63.5018 47.2794 63.4556 47.4151 63.3675C47.4907 63.3185 47.5803 63.2398 47.6346 63.1173C47.6915 62.989 47.6886 62.8605 47.6609 62.7536C47.6139 62.572 47.4831 62.41 47.3637 62.2792C47.231 62.1338 47.0481 61.9608 46.8194 61.755C46.3809 61.3603 46.2497 61.106 46.2265 60.9822C46.2175 60.934 46.2266 60.9165 46.2302 60.9097C46.2368 60.8974 46.2581 60.8679 46.3202 60.832C46.453 60.7551 46.6885 60.6975 46.9958 60.6898C47.2943 60.6823 47.6174 60.7229 47.8955 60.8023C48.2365 60.8998 48.6474 60.8814 49.0913 60.7749C49.5404 60.6671 50.0511 60.4626 50.608 60.1554C51.7223 59.541 53.0505 58.5002 54.4836 56.9335C54.6448 56.7572 54.8463 56.3996 55.0405 55.9914C55.243 55.5657 55.4607 55.0348 55.6459 54.4736C55.8308 53.9136 55.9867 53.3132 56.0604 52.751C56.1327 52.1986 56.1322 51.6366 55.9614 51.1812C55.7918 50.7289 55.4512 50.3472 55.1033 50.0109C54.9474 49.8602 54.7802 49.7096 54.6161 49.5619C54.5941 49.5421 54.5723 49.5224 54.5505 49.5028C54.3631 49.3339 54.1796 49.1667 54.0058 48.9929C53.314 48.3011 52.8389 47.5701 53.0689 46.4968C53.2594 45.6078 53.9043 44.8274 54.6527 44.2667C55.023 43.9893 55.4061 43.7755 55.7471 43.6359ZM43.141 64.7325C43.1408 64.7326 43.143 64.734 43.1485 64.7365C43.144 64.7337 43.1413 64.7324 43.141 64.7325ZM42.7243 67.1483C42.7243 67.1483 42.7245 67.1485 42.7248 67.1488L42.7243 67.1483ZM43.5744 68.0471C43.407 68.2382 43.2821 68.4626 43.2448 68.7239C43.219 68.9041 43.249 69.0848 43.3492 69.244C43.445 69.3962 43.5842 69.4961 43.7213 69.5622C43.9855 69.6894 44.3301 69.7333 44.673 69.7422C44.9201 69.7486 45.1928 69.7371 45.478 69.7126C45.3625 69.9347 45.3205 70.1945 45.4416 70.4612C45.6091 70.8297 46.0174 71.0284 46.4704 71.1285C46.947 71.2338 47.5904 71.2578 48.4073 71.18C50.4422 70.9862 53.007 69.5657 55.5905 67.3754C58.1895 65.172 60.8623 62.1432 63.1133 58.641C65.3993 55.0842 64.9271 51.1518 63.3329 48.1028C62.5358 46.5781 61.4523 45.2603 60.2729 44.3021C59.0985 43.348 57.8001 42.7278 56.5727 42.6511L56.5477 43.0514L56.5727 42.6511C56.2425 42.6305 55.8408 42.7307 55.4432 42.8935C55.0356 43.0603 54.5934 43.3088 54.1717 43.6247C53.3361 44.2507 52.5303 45.1812 52.2844 46.3287C51.969 47.8009 52.6757 48.7973 53.4386 49.5601C53.6284 49.75 53.8256 49.9294 54.0133 50.0986C54.0355 50.1186 54.0576 50.1385 54.0794 50.1582C54.2449 50.3072 54.4008 50.4475 54.5457 50.5877C54.8796 50.9105 55.1072 51.1879 55.2103 51.4629C55.3122 51.7348 55.3312 52.1407 55.2649 52.6469C55.1999 53.1432 55.0591 53.6921 54.8842 54.2221C54.7096 54.7509 54.5045 55.2508 54.3161 55.6467C54.1194 56.0601 53.9622 56.3149 53.8916 56.392C52.5025 57.9107 51.2411 58.8902 50.2206 59.453C49.7103 59.7344 49.2672 59.9077 48.9041 59.9948C48.5359 60.0832 48.2761 60.0768 48.1158 60.031C47.7575 59.9286 47.3533 59.8783 46.9756 59.8878C46.6068 59.8971 46.2172 59.9646 45.9182 60.1377C45.7644 60.2268 45.618 60.3536 45.5231 60.5309C45.4251 60.7138 45.3987 60.9193 45.438 61.1296C45.5114 61.5229 45.812 61.9276 46.2827 62.3512C46.4748 62.5242 46.6179 62.6592 46.7207 62.7662C46.6482 62.7819 46.5658 62.7983 46.4744 62.8164C45.8286 62.9445 44.7308 63.1623 43.4452 63.8854C43.1442 64.0547 42.9109 64.2108 42.7493 64.3577C42.6683 64.4313 42.5925 64.514 42.5364 64.607C42.4803 64.7001 42.4302 64.8268 42.4419 64.9752C42.4679 65.3029 42.747 65.4437 42.8884 65.4963C42.8919 65.4976 42.8955 65.4989 42.8991 65.5002C42.662 65.6024 42.4688 65.7079 42.315 65.8198C41.9893 66.0566 41.8135 66.3442 41.8033 66.6892C41.795 66.9719 41.9059 67.2486 41.9882 67.4539L41.9966 67.475C42.1215 67.7873 42.4242 67.9184 42.6602 67.9779C42.9132 68.0418 43.2193 68.0575 43.5363 68.0484C43.549 68.048 43.5617 68.0476 43.5744 68.0471Z" fill="#111111"/>
<path fill-rule="evenodd" clip-rule="evenodd" d="M57.1179 53.0686C56.9365 52.9416 56.6864 52.9857 56.5593 53.1672C55.7643 54.3029 54.667 55.5663 53.9106 56.3932L54.5026 56.9347C55.2662 56.0998 56.3913 54.8061 57.2165 53.6273C57.3436 53.4458 57.2994 53.1957 57.1179 53.0686Z" fill="#111111"/>
<path d="M27.0046 54.5278C25.8383 52.919 23.9424 58.8443 21.6505 57.9275C17.9313 56.4398 18.7561 52.4523 18.9231 51.7288C19.6669 48.5056 20.6724 46.4516 19.9096 45.5316C18.6242 43.9812 17.0296 43.2941 16.3206 43.4445C11.5566 43.444 8.75737 53.2175 11.2566 59.6607C12.3651 62.5184 16.4383 69.1389 24.9889 67.17C25.3449 67.9119 26.4176 69.0198 28.194 69.7006C29.4481 70.1813 31.3765 69.5874 31.5968 69.1389C33.4553 69.4624 33.9366 68.797 34.2381 68.1298C33.8165 67.7991 31.3086 67.988 28.0948 63.5548C24.0775 58.0134 28.1709 56.1366 27.0046 54.5278Z" fill="#FDFBEF"/>
<path fill-rule="evenodd" clip-rule="evenodd" d="M23.5165 57.8715C22.9475 58.3122 22.2466 58.6031 21.4824 58.2975C19.4699 57.4924 18.6737 55.9918 18.4161 54.6128C18.1627 53.2561 18.4264 52.0123 18.5132 51.6362C18.7014 50.8205 18.9059 50.0802 19.0933 49.4184C19.1246 49.3079 19.1553 49.1999 19.1853 49.0942C19.3364 48.563 19.4705 48.0918 19.5723 47.6699C19.6949 47.162 19.7628 46.7564 19.7616 46.4338C19.7605 46.1154 19.6922 45.9184 19.5817 45.7851C18.9714 45.049 18.2917 44.5232 17.6906 44.2015C17.3899 44.0405 17.1148 43.9338 16.8831 43.8758C16.6456 43.8163 16.4797 43.8143 16.3847 43.8345L16.3435 43.8432L16.3014 43.8432C15.2601 43.8431 14.2934 44.3746 13.4503 45.3343C12.6057 46.2958 11.9101 47.6622 11.4297 49.2499C10.4676 52.4299 10.4002 56.3903 11.6115 59.5132C12.1486 60.8978 13.4084 63.1995 15.5622 64.9087C17.6998 66.605 20.7323 67.7317 24.8798 66.7767L25.1925 66.7047L25.3314 66.994C25.6336 67.6238 26.6153 68.6709 28.3185 69.3236C28.8435 69.5248 29.5511 69.5098 30.179 69.3737C30.3473 69.3372 30.5042 69.2932 30.6441 69.2454C30.3138 69.1279 29.9556 68.9841 29.5876 68.7861C28.8793 68.4051 28.1303 67.8254 27.3738 66.8422C27.2387 66.6667 27.2715 66.4148 27.4471 66.2797C27.6227 66.1446 27.8745 66.1774 28.0096 66.353C28.698 67.2476 29.3602 67.7529 29.9677 68.0796C30.4558 68.3422 30.9067 68.4909 31.3496 68.6369C31.4593 68.6731 31.5685 68.7091 31.6777 68.7466C32.5433 68.8931 33.0169 68.7978 33.2927 68.6499C33.4382 68.5719 33.5486 68.4688 33.6412 68.3426C33.6404 68.3424 33.6397 68.3422 33.639 68.342C33.5768 68.3251 33.5065 68.3059 33.4234 68.2822C33.0645 68.1801 32.5846 68.0258 32.0131 67.7361C30.8674 67.1552 29.39 66.0488 27.7509 63.7878C26.7216 62.368 26.1949 61.1596 25.9815 60.1103C25.7672 59.0566 25.8738 58.1874 26.0748 57.4576C26.1744 57.0961 26.2967 56.7703 26.4104 56.4808C26.4342 56.4202 26.4574 56.3618 26.4797 56.3054C26.567 56.0854 26.6427 55.8944 26.7011 55.7126C26.8443 55.2667 26.8393 55.0071 26.6608 54.7608C26.6118 54.6932 26.5757 54.6662 26.5583 54.6561C26.5447 54.6483 26.5379 54.6477 26.5296 54.648C26.4967 54.6492 26.404 54.6747 26.2361 54.8148C25.9359 55.0652 25.5969 55.5027 25.1909 56.0267C25.1439 56.0874 25.096 56.1491 25.0472 56.2119C24.5981 56.7896 24.0808 57.4344 23.5165 57.8715ZM31.7366 69.5675C32.5906 69.6878 33.2102 69.6044 33.6718 69.3569C34.1803 69.0842 34.4225 68.6512 34.5845 68.2925L34.714 68.0059L34.4666 67.8118C34.3478 67.7186 34.194 67.668 34.0828 67.634C34.0124 67.6125 33.924 67.5883 33.8311 67.5629C33.769 67.5458 33.705 67.5283 33.643 67.5106C33.3127 67.4166 32.8856 67.279 32.3758 67.0205C31.3587 66.5049 29.9752 65.4892 28.4004 63.317C27.4211 61.9661 26.953 60.8619 26.7676 59.9504C26.5832 59.0435 26.6738 58.3039 26.8482 57.6707C26.9363 57.3507 27.0462 57.0565 27.1571 56.7741C27.178 56.7208 27.1993 56.6673 27.2205 56.6138C27.3089 56.391 27.3975 56.1678 27.4649 55.9579C27.6356 55.4264 27.7149 54.8481 27.3103 54.2899C27.1122 54.0167 26.8405 53.8336 26.4997 53.8463C26.1966 53.8576 25.9319 54.0239 25.7223 54.1988C25.3496 54.5096 24.9514 55.0246 24.5623 55.5279C24.5127 55.5921 24.4632 55.6561 24.4139 55.7195C23.9568 56.3074 23.4975 56.8715 23.0253 57.2373C22.5578 57.5994 22.1622 57.7053 21.7804 57.5526C20.0737 56.87 19.4228 55.633 19.2047 54.4655C18.9825 53.2757 19.2147 52.164 19.2948 51.8166C19.4785 51.0206 19.6787 50.2955 19.8651 49.6369C19.8956 49.5292 19.9259 49.423 19.9556 49.3184C20.1067 48.7874 20.2461 48.2973 20.3521 47.8582C20.4785 47.3347 20.5654 46.8528 20.5639 46.4308C20.5623 46.0046 20.4702 45.5999 20.1993 45.2731C19.5242 44.4589 18.7639 43.866 18.0691 43.4942C17.7219 43.3083 17.3851 43.1746 17.0781 43.0976C16.794 43.0264 16.5116 42.9979 16.2626 43.0412C14.9382 43.0543 13.782 43.7412 12.8476 44.8049C11.9057 45.8771 11.1644 47.3566 10.6619 49.0176C9.65819 52.3351 9.57567 56.483 10.8636 59.8033C11.435 61.2765 12.766 63.7138 15.0636 65.5371C17.3254 67.332 20.5097 68.5181 24.7645 67.6235C25.2734 68.4386 26.3786 69.4393 28.0314 70.0727C28.7605 70.3522 29.6441 70.3105 30.349 70.1577C30.7067 70.0802 31.0384 69.9699 31.3032 69.8425C31.4354 69.779 31.559 69.7073 31.6631 69.6279C31.6872 69.6095 31.7119 69.5894 31.7366 69.5675Z" fill="#111111"/>
<path fill-rule="evenodd" clip-rule="evenodd" d="M40.7602 41.7043C41.0919 41.725 41.3439 42.0107 41.3232 42.3423C41.2667 43.2466 40.9808 43.9731 40.525 44.5344C40.0728 45.0912 39.4826 45.4498 38.87 45.6722C37.6624 46.1105 36.2905 46.0487 35.3978 45.8701C35.072 45.805 34.8607 45.488 34.9259 45.1622C34.991 44.8363 35.308 44.625 35.6338 44.6902C36.3942 44.8422 37.5265 44.8796 38.4595 44.541C38.9172 44.3749 39.3064 44.1261 39.5908 43.7758C39.8716 43.43 40.0795 42.9499 40.1222 42.2673C40.1429 41.9356 40.4286 41.6836 40.7602 41.7043Z" fill="#111111"/>
</svg>
