<svg width="95" height="111" viewBox="0 0 95 111" fill="none" xmlns="http://www.w3.org/2000/svg">
<path d="M35.6715 101.902C35.1399 100.804 35.3847 81.2245 34.9836 74.2051L34.3635 65.8882L41.4364 67.9793C41.4471 74.4477 41.565 92.9043 41.9511 98.9396C42.3371 104.975 42.0769 106.53 41.8985 106.553C40.0722 109.119 34.07 107.351 32.2427 107.047C30.2498 106.715 22.7442 105.66 25.1032 102.233C26.931 99.5781 36.3359 103.273 35.6715 101.902Z" fill="#FFEB34"/>
<path fill-rule="evenodd" clip-rule="evenodd" d="M33.9132 65.3446L41.8298 67.6851L41.8303 67.9843C41.841 74.4584 41.9591 92.8998 42.3442 98.9196C42.5376 101.943 42.5699 103.855 42.5302 105.02C42.5104 105.601 42.4723 106.008 42.424 106.278C42.4003 106.411 42.3709 106.53 42.3312 106.626C42.3117 106.673 42.282 106.733 42.2355 106.79C42.2203 106.808 42.1991 106.832 42.1713 106.855C41.6369 107.564 40.8359 107.955 39.957 108.152C39.053 108.355 38.029 108.363 37.0313 108.282C35.6087 108.166 34.154 107.858 33.1332 107.641C32.7379 107.557 32.4077 107.487 32.1696 107.448C32.0862 107.434 31.9923 107.419 31.8892 107.402C30.7812 107.222 28.6049 106.868 26.8846 106.178C25.9535 105.805 25.079 105.306 24.6056 104.617C24.3613 104.262 24.2218 103.854 24.2431 103.397C24.2641 102.946 24.4406 102.484 24.7656 102.012C25.3389 101.179 26.4497 100.908 27.5947 100.859C28.7676 100.809 30.1288 100.985 31.3814 101.196C31.9398 101.29 32.4694 101.39 32.9566 101.481C33.5866 101.599 34.1457 101.704 34.6049 101.767C34.8734 101.804 35.0773 101.821 35.2218 101.823C35.2029 101.734 35.1883 101.639 35.1758 101.546C35.1466 101.328 35.1211 101.048 35.0984 100.717C35.0529 100.055 35.0171 99.1663 34.988 98.1149C34.9298 96.0111 34.898 93.2378 34.8704 90.2835C34.8644 89.646 34.8586 89.0002 34.8528 88.3509C34.8047 82.9752 34.7544 77.3582 34.5762 74.237L33.9132 65.3446ZM35.4353 101.804C35.4354 101.804 35.4332 101.805 35.4283 101.806C35.4327 101.805 35.4352 101.804 35.4353 101.804ZM34.7996 66.4431L35.3767 74.1843L35.3769 74.1878C35.5564 77.3293 35.6069 82.9703 35.655 88.3408C35.6608 88.9915 35.6666 89.6382 35.6725 90.276C35.7002 93.2312 35.732 95.9973 35.7899 98.0927C35.8189 99.1409 35.8543 100.017 35.8987 100.662C35.921 100.986 35.9451 101.246 35.9709 101.439C35.9839 101.536 35.9966 101.611 36.0086 101.666C36.0195 101.716 36.0268 101.735 36.0266 101.735C36.0265 101.735 36.0263 101.734 36.0257 101.733C36.094 101.875 36.1568 102.11 36.0083 102.331C35.8806 102.521 35.6711 102.579 35.5468 102.601C35.2788 102.649 34.8988 102.617 34.4958 102.562C34.0264 102.497 33.4279 102.385 32.7737 102.263C32.286 102.172 31.7674 102.075 31.2482 101.987C30.0041 101.778 28.7128 101.614 27.6291 101.661C26.5173 101.708 25.767 101.972 25.4264 102.466C25.1616 102.851 25.0567 103.171 25.0444 103.435C25.0324 103.693 25.1078 103.932 25.2666 104.163C25.5993 104.646 26.2834 105.073 27.183 105.434C28.8145 106.087 30.9018 106.428 32.0198 106.61C32.1222 106.627 32.2164 106.642 32.3014 106.657C32.5889 106.704 32.9552 106.782 33.3785 106.872C34.3902 107.087 35.728 107.371 37.0963 107.482C38.0558 107.56 38.9891 107.548 39.7812 107.37C40.5724 107.192 41.1851 106.859 41.5646 106.326L41.6064 106.267C41.6143 106.237 41.6239 106.195 41.6343 106.137C41.6728 105.921 41.7091 105.558 41.7284 104.993C41.7669 103.866 41.7363 101.983 41.5436 98.9708C41.1623 93.0108 41.0424 75.0001 41.0287 68.2848L34.7996 66.4431Z" fill="#111111"/>
<path d="M45.0475 3.32093C39.6038 4.64864 37.6897 18.479 37.4131 25.2283C37.2838 27.3857 35.5875 27.7178 27.9532 32.8627C21.8457 36.9786 24.8551 42.1014 27.1233 44.1483C22.7529 45.2547 14.344 48.9944 15.6718 55.1019C16.9995 61.2094 23.1955 62.2937 26.1275 62.0725C25.9062 62.4044 26.3931 64.23 30.1107 68.877C33.8283 73.524 40.2898 70.8133 43.0559 68.877C55.6692 80.6937 59.2651 72.4729 59.4864 66.8854C62.1972 68.0472 67.9838 68.3459 69.4443 60.2468C70.9048 52.1478 61.7546 43.0419 56.9969 39.5013C69.7762 42.8206 60.6482 29.5433 56.0011 24.3984C51.3541 19.2535 51.852 1.66128 45.0475 3.32093Z" fill="#00BC68"/>
<path fill-rule="evenodd" clip-rule="evenodd" d="M47.1091 3.89459C46.5548 3.60981 45.918 3.52294 45.1537 3.70935C43.9463 4.00386 42.8795 5.00791 41.9525 6.55944C41.0301 8.10312 40.2835 10.1274 39.6914 12.3438C38.5077 16.774 37.9626 21.8878 37.8251 25.2434L37.8247 25.251C37.7887 25.8515 37.6395 26.3528 37.2915 26.8398C36.9551 27.3106 36.4474 27.7465 35.7418 28.2504C35.0793 28.7234 34.211 29.2777 33.0945 29.9904C33.0178 30.0393 32.9399 30.089 32.8609 30.1395C31.627 30.9274 30.0929 31.9107 28.1885 33.1941C26.7061 34.1931 25.8024 35.2358 25.2984 36.2516C24.7957 37.2649 24.6795 38.2737 24.8062 39.2273C25.0619 41.1521 26.3116 42.8641 27.4032 43.8492C27.5131 43.9484 27.5594 44.1 27.5238 44.2436C27.4882 44.3872 27.3764 44.4995 27.2329 44.5359C25.0801 45.0809 21.9383 46.2748 19.5105 48.0709C17.0757 49.8723 15.4614 52.1934 16.0749 55.0155C16.708 57.9279 18.4927 59.635 20.4839 60.5982C22.4896 61.5684 24.6983 61.7777 26.1085 61.6712C26.2614 61.6597 26.4076 61.7364 26.485 61.8688C26.5547 61.988 26.5577 62.1336 26.4955 62.2545C26.4952 62.2589 26.495 62.2643 26.4949 62.271C26.4946 62.3174 26.5029 62.3989 26.5341 62.5237C26.5963 62.7727 26.7378 63.1466 27.0094 63.6708C27.5513 64.7171 28.5847 66.3123 30.4351 68.6252C32.1791 70.8052 34.5625 71.2731 36.8958 70.9472C39.2425 70.6194 41.4905 69.4898 42.8371 68.5471C42.9925 68.4384 43.2029 68.4533 43.3413 68.583C46.4754 71.5192 49.021 73.1828 51.067 73.9605C53.1047 74.7351 54.6213 74.6233 55.7471 74.0492C56.8839 73.4695 57.6959 72.3814 58.2399 71.0615C58.783 69.7436 59.0428 68.2308 59.0968 66.8683C59.102 66.7364 59.1718 66.6155 59.2835 66.545C59.3951 66.4745 59.5342 66.4635 59.6556 66.5155C60.9455 67.0683 62.9551 67.4067 64.7956 66.6656C66.605 65.937 68.3484 64.1243 69.0607 60.1744C69.7612 56.2898 67.9196 52.1041 65.2386 48.3985C62.5675 44.7065 59.1218 41.5729 56.7687 39.8218C56.6147 39.7072 56.5635 39.4997 56.6464 39.3266C56.7294 39.1536 56.9232 39.0635 57.109 39.1118C58.6851 39.5212 59.8953 39.6668 60.802 39.6146C61.7082 39.5625 62.2741 39.3159 62.6153 38.9787C62.9528 38.6452 63.1264 38.1679 63.1331 37.5324C63.1399 36.8918 62.9754 36.1212 62.6673 35.2574C61.4289 31.7859 58.0286 27.2278 55.7147 24.666C54.4881 23.308 53.6276 21.1667 52.9135 18.8165C52.4685 17.3523 52.0694 15.7654 51.6756 14.1996C51.4373 13.2519 51.2008 12.3119 50.9574 11.4114C50.3033 8.99223 49.5956 6.84604 48.6521 5.40957C48.1833 4.69578 47.6732 4.18444 47.1091 3.89459ZM26.497 62.2409C26.497 62.2409 26.4969 62.2416 26.4966 62.2431C26.4968 62.2416 26.497 62.2409 26.497 62.2409ZM53.681 18.5833C54.3932 20.9268 55.2131 22.9139 56.31 24.1283C58.6431 26.7114 62.1303 31.3644 63.4229 34.9879C63.7475 35.8979 63.9435 36.7687 63.9353 37.5409C63.9271 38.318 63.7104 39.0245 63.1792 39.5493C62.6518 40.0705 61.8705 40.3568 60.848 40.4155C60.2159 40.4519 59.4774 40.4024 58.623 40.2599C60.8739 42.1193 63.645 44.8272 65.8886 47.9282C68.6069 51.6855 70.6102 56.1023 69.8502 60.3168C69.102 64.466 67.2219 66.5534 65.0952 67.4098C63.2428 68.1557 61.2784 67.9361 59.866 67.4546C59.7672 68.7383 59.4943 70.1229 58.9816 71.3671C58.3949 72.7908 57.4781 74.067 56.1116 74.7639C54.7341 75.4663 52.9729 75.5432 50.782 74.7104C48.6535 73.9013 46.0958 72.2264 43.028 69.3875C41.5896 70.34 39.3596 71.4131 37.0068 71.7417C34.4884 72.0935 31.7823 71.5933 29.8086 69.1263C27.9414 66.7922 26.8726 65.1511 26.297 64.0398C26.0098 63.4853 25.8388 63.0501 25.7558 62.7182C25.7364 62.6405 25.7211 62.5658 25.7104 62.4944C24.1985 62.536 22.0855 62.264 20.1345 61.3203C17.9628 60.2698 15.9856 58.3809 15.291 55.1859C14.5768 51.9005 16.5031 49.298 19.0334 47.426C21.3213 45.7333 24.1868 44.5675 26.3538 43.9431C25.3158 42.8432 24.2589 41.2 24.0109 39.3329C23.8651 38.2355 23.9999 37.0639 24.5798 35.8951C25.1584 34.7289 26.1689 33.5877 27.7402 32.5288C29.653 31.2398 31.1937 30.2522 32.4292 29.4634C32.5048 29.415 32.5793 29.3675 32.6526 29.3207C33.78 28.601 34.631 28.0578 35.2756 27.5975C35.9645 27.1056 36.3823 26.7323 36.6389 26.3734C36.8833 26.0313 36.9947 25.6831 37.0237 25.2067C37.163 21.813 37.7133 16.6393 38.9163 12.1367C39.5177 9.88592 40.2876 7.78183 41.2638 6.14797C42.2354 4.52198 43.4493 3.29934 44.9636 2.92998C45.9005 2.70148 46.7366 2.80132 47.4757 3.18105C48.2049 3.55571 48.8086 4.18667 49.3226 4.96915C50.3447 6.52524 51.0789 8.78748 51.7318 11.202C51.9836 12.1333 52.223 13.0859 52.4623 14.0379C52.8514 15.5859 53.2402 17.1324 53.681 18.5833Z" fill="#111111"/>
<path d="M46.7612 29.5253C46.6081 32.2708 44.7457 34.3996 42.6015 34.28C40.4573 34.1605 38.8431 31.8378 38.9962 29.0923C39.1493 26.3468 41.0117 24.218 43.1559 24.3376C45.3001 24.4572 46.9143 26.7798 46.7612 29.5253Z" fill="white"/>
<path fill-rule="evenodd" clip-rule="evenodd" d="M42.6462 33.479C44.175 33.5643 45.8208 31.9794 45.9602 29.4806C46.0995 26.9818 44.64 25.2238 43.1112 25.1386C41.5824 25.0533 39.9365 26.6382 39.7972 29.137C39.6579 31.6358 41.1173 33.3938 42.6462 33.479ZM42.6015 34.28C44.7457 34.3996 46.6081 32.2708 46.7612 29.5253C46.9143 26.7798 45.3001 24.4572 43.1559 24.3376C41.0117 24.218 39.1493 26.3468 38.9962 29.0923C38.8431 31.8378 40.4573 34.1605 42.6015 34.28Z" fill="#111111"/>
<path d="M45.7078 30.8016C45.6159 32.7243 44.2055 34.2191 42.5575 34.1403C40.9095 34.0616 39.648 32.4391 39.7399 30.5164C39.8318 28.5938 41.2422 27.099 42.8902 27.1778C44.5382 27.2565 45.7997 28.879 45.7078 30.8016Z" fill="#111111"/>
<path d="M39.6934 29.1042C39.7153 31.8539 38.0984 34.096 36.082 34.1121C34.0655 34.1281 32.4131 31.9121 32.3912 29.1624C32.3693 26.4127 33.9862 24.1706 36.0027 24.1545C38.0191 24.1385 39.6715 26.3545 39.6934 29.1042Z" fill="white"/>
<path fill-rule="evenodd" clip-rule="evenodd" d="M38.0014 32.164C38.5451 31.4101 38.901 30.3328 38.8912 29.1106C38.8815 27.8884 38.5085 26.8169 37.9529 26.0717C37.3969 25.3261 36.7003 24.9512 36.0091 24.9567C35.3178 24.9622 34.6273 25.3481 34.0832 26.1026C33.5395 26.8565 33.1837 27.9338 33.1934 29.156C33.2031 30.3782 33.5761 31.4497 34.1318 32.1948C34.6878 32.9405 35.3843 33.3154 36.0756 33.3099C36.7669 33.3044 37.4574 32.9184 38.0014 32.164ZM36.082 34.1121C38.0984 34.096 39.7153 31.8539 39.6934 29.1042C39.6715 26.3545 38.0191 24.1385 36.0027 24.1545C33.9862 24.1706 32.3693 26.4127 32.3912 29.1624C32.4131 31.9121 34.0655 34.1281 36.082 34.1121Z" fill="#111111"/>
<path d="M38.9482 29.8909C39.1935 31.8001 38.0657 33.5182 36.4293 33.7284C34.7928 33.9386 33.2674 32.5613 33.0222 30.6522C32.7769 28.743 33.9047 27.0249 35.5411 26.8147C37.1776 26.6045 38.703 27.9817 38.9482 29.8909Z" fill="#111111"/>
<path fill-rule="evenodd" clip-rule="evenodd" d="M2.52344 57.7593C2.52344 57.3162 2.8826 56.957 3.32566 56.957H41.5975C42.0406 56.957 42.3998 57.3162 42.3998 57.7593C42.3998 58.2023 42.0406 58.5615 41.5975 58.5615H25.0279L23.6761 65.7112H56.4297L80.3831 91.8758H54.0303L23.2524 67.9526L23.1255 68.6238C23.752 69.2708 24.2503 70.4899 23.9279 72.2508C23.5641 74.2375 20.3447 86.4444 18.7936 92.2533C18.6793 92.6813 18.2396 92.9357 17.8116 92.8214C17.3835 92.7071 17.1292 92.2674 17.2435 91.8394C18.8091 85.9761 22.001 73.8658 22.3497 71.9618C22.6185 70.4938 22.1071 69.8588 21.9209 69.6929C21.7842 69.6813 21.6181 69.7481 21.3868 70.0485C21.1036 70.4163 20.8956 70.9468 20.8004 71.328L20.7967 71.3429L14.7817 92.0271C14.658 92.4526 14.2128 92.6972 13.7874 92.5734C13.3619 92.4497 13.1174 92.0046 13.2411 91.5791L19.2477 70.9237C19.377 70.4135 19.6576 69.6645 20.1155 69.0697C20.4409 68.6472 20.9415 68.2094 21.5905 68.106L23.3951 58.5615H3.32566C2.8826 58.5615 2.52344 58.2023 2.52344 57.7593ZM25.0473 67.3156L54.5806 90.2714H76.739L55.7233 67.3156H25.0473Z" fill="#F77D0E"/>
<path fill-rule="evenodd" clip-rule="evenodd" d="M56.7883 64.9026L82.2105 92.6717H53.7606L24.7337 70.1095C24.8659 70.7709 24.8787 71.5347 24.7223 72.3889C24.351 74.417 21.1178 86.6721 19.574 92.4538C19.3454 93.31 18.4661 93.8187 17.61 93.5901L17.8169 92.815C18.245 92.9293 18.6846 92.6749 18.7989 92.2469C20.35 86.438 23.5694 74.2311 23.9332 72.2444C24.1766 70.9151 23.9523 69.8946 23.5582 69.1958C23.4302 68.9689 23.2844 68.776 23.1308 68.6174L23.2577 67.9462L54.0357 91.8695H80.3885L56.4351 65.7048H23.6815L25.0333 58.5551H41.6029C42.0459 58.5551 42.4051 58.1959 42.4051 57.7529C42.4051 57.3098 42.0459 56.9507 41.6029 56.9507H3.331C2.88795 56.9507 2.52878 57.3098 2.52878 57.7529C2.52878 58.1959 2.88795 58.5551 3.331 58.5551H23.4004L21.5958 68.0997C20.9468 68.2031 20.4462 68.6408 20.1209 69.0633C19.663 69.6581 19.3823 70.4071 19.253 70.9173L13.2464 91.5728C13.1227 91.9982 13.3673 92.4434 13.7927 92.5671C14.2181 92.6908 14.6633 92.4462 14.787 92.0208L20.802 71.3365L20.8058 71.3216C20.9009 70.9405 21.109 70.4099 21.3922 70.0421C21.6235 69.7417 21.7896 69.6749 21.9262 69.6865C22.1125 69.8524 22.6238 70.4874 22.355 71.9555C22.0064 73.8595 18.8144 85.9697 17.2488 91.833C17.1345 92.261 17.3889 92.7007 17.8169 92.815L17.61 93.5901C16.7538 93.3615 16.2451 92.4821 16.4737 91.626C18.0466 85.7355 21.2249 73.6736 21.5659 71.811C21.5948 71.653 21.6126 71.5098 21.6218 71.3801C21.6076 71.4268 21.595 71.4723 21.5841 71.5159L21.5766 71.5458L15.5573 92.2448C15.3099 93.0956 14.4196 93.5848 13.5687 93.3374C12.7178 93.09 12.2287 92.1996 12.4761 91.3487L18.479 70.7063C18.626 70.1321 18.9427 69.2785 19.4852 68.5739C19.7889 68.1795 20.261 67.7177 20.8995 67.4643L22.4323 59.3573H3.331C2.44489 59.3573 1.72656 58.639 1.72656 57.7529C1.72656 56.8668 2.44489 56.1484 3.331 56.1484H41.6029C42.489 56.1484 43.2073 56.8668 43.2073 57.7529C43.2073 58.639 42.489 59.3573 41.6029 59.3573H25.698L24.6496 64.9026H56.7883ZM54.5859 90.265H76.7444L55.7287 67.3092H25.0527L54.5859 90.265ZM27.3919 68.1115L54.861 89.4628H74.9223L55.3755 68.1115H27.3919Z" fill="#111111"/>
<path d="M45.8985 0.413951C41.0667 0.633482 38.2465 3.74492 38.3963 5.78761C38.7244 10.2699 44.9787 8.8409 48.1934 8.1064L48.2321 8.09757C49.3759 8.87508 51.9932 10.4301 53.3109 10.4301C54.9581 10.4301 55.0954 8.37193 54.5463 6.58825C53.9973 4.80456 51.9383 0.139538 45.8985 0.413951Z" fill="#1779C7"/>
<path fill-rule="evenodd" clip-rule="evenodd" d="M52.0066 3.00996C50.7428 1.73054 48.8265 0.68169 45.9273 0.813414C43.5942 0.919417 41.7651 1.72247 40.5446 2.72572C39.3061 3.74372 38.7453 4.91795 38.8069 5.75704C38.8811 6.77046 39.2806 7.40707 39.8563 7.81593C40.4512 8.23843 41.2774 8.44793 42.2451 8.50158C44.1847 8.60909 46.4945 8.08431 48.1146 7.71414L48.3236 7.66639L48.4681 7.7646C49.0287 8.14566 49.954 8.71945 50.8977 9.19613C51.3695 9.43445 51.8393 9.64512 52.266 9.79539C52.6995 9.94801 53.0596 10.0277 53.3215 10.0277C53.6429 10.0277 53.8589 9.93039 54.0125 9.78655C54.1735 9.63592 54.2982 9.4036 54.3721 9.08592C54.5218 8.44272 54.4364 7.55912 54.1735 6.70502C53.9092 5.84646 53.2825 4.30163 52.0066 3.00996ZM52.5773 2.4462C53.9782 3.86436 54.6555 5.54388 54.9402 6.46901C55.2264 7.3986 55.347 8.43592 55.1535 9.26771C55.0558 9.68753 54.8717 10.0812 54.5607 10.3722C54.2426 10.67 53.8237 10.83 53.3215 10.83C52.9245 10.83 52.4633 10.7153 51.9996 10.5521C51.5293 10.3865 51.0262 10.1598 50.536 9.91218C49.6334 9.45628 48.7522 8.91794 48.1628 8.52601C46.5686 8.89001 44.2183 9.41441 42.2007 9.30257C41.1621 9.24499 40.1623 9.01723 39.3917 8.46997C38.602 7.90909 38.0967 7.04342 38.0068 5.81571C38.0068 5.8157 38.0068 5.81573 38.0068 5.81571M38.0068 5.81571C37.9186 4.61213 38.693 3.20927 40.0352 2.106C41.3953 0.987985 43.3922 0.125549 45.8909 0.0120214C49.0314 -0.130668 51.1644 1.01579 52.5773 2.4462" fill="#111111"/>
<path fill-rule="evenodd" clip-rule="evenodd" d="M46.6274 8.4768C46.8208 8.36875 47.0652 8.43793 47.1732 8.63133C47.3804 9.00214 47.6544 9.55284 47.9638 10.1746C47.9785 10.2041 47.9933 10.2338 48.0081 10.2636C48.3382 10.9268 48.7104 11.6727 49.0978 12.3969C49.4859 13.1222 49.8846 13.8173 50.2662 14.3799C50.4906 14.7107 50.6981 14.9788 50.8834 15.1781L52.8691 10.2807C52.9523 10.0754 53.1862 9.97645 53.3915 10.0597C53.5968 10.1429 53.6958 10.3768 53.6125 10.5821L51.4464 15.9246V22.4879C51.4464 22.7095 51.2668 22.8891 51.0453 22.8891C50.8237 22.8891 50.6442 22.7095 50.6442 22.4879V16.0519C50.2909 15.7696 49.9376 15.3245 49.6023 14.8302C49.1976 14.2335 48.7836 13.5101 48.3905 12.7753C47.9968 12.0393 47.6196 11.2835 47.2899 10.6211C47.2775 10.596 47.265 10.5711 47.2527 10.5463C46.9368 9.91152 46.6704 9.37609 46.4729 9.0226C46.3648 8.82921 46.434 8.58485 46.6274 8.4768Z" fill="#111111"/>
<path fill-rule="evenodd" clip-rule="evenodd" d="M47.8438 2.82024C43.717 2.61481 40.7967 4.70856 39.8807 5.73991C39.7336 5.90554 39.4801 5.92056 39.3144 5.77346C39.1488 5.62636 39.1338 5.37283 39.2809 5.2072C40.3304 4.02556 43.4748 1.79954 47.8837 2.01901C48.1049 2.03002 48.2753 2.21831 48.2643 2.43957C48.2533 2.66082 48.065 2.83125 47.8438 2.82024ZM45.5784 4.86088C43.8104 5.40913 42.14 6.06749 41.1462 6.50467C40.9434 6.59387 40.7067 6.5018 40.6175 6.29903C40.5283 6.09625 40.6204 5.85956 40.8232 5.77036C41.8416 5.32234 43.5406 4.6529 45.3408 4.09466C47.1308 3.53958 49.0631 3.08081 50.5311 3.08081C50.7526 3.08081 50.9322 3.26039 50.9322 3.48192C50.9322 3.70345 50.7526 3.88303 50.5311 3.88303C49.1913 3.88303 47.3566 4.30946 45.5784 4.86088ZM51.9814 4.04653C52.1095 4.22721 52.067 4.47759 51.8863 4.60576C50.4745 5.60718 48.6821 6.1975 47.0386 6.5338C45.3914 6.87087 43.8589 6.9597 42.9401 6.93684C42.7187 6.93132 42.5436 6.74733 42.5491 6.52587C42.5546 6.30441 42.7386 6.12935 42.9601 6.13487C43.8196 6.15626 45.2914 6.07248 46.8778 5.74787C48.4679 5.42248 50.1384 4.86205 51.4221 3.95144C51.6028 3.82327 51.8532 3.86584 51.9814 4.04653ZM50.8411 5.48655C51.054 5.42517 51.2763 5.54797 51.3377 5.76082C51.3826 5.9167 51.5294 6.1785 51.8246 6.36718C52.1086 6.5487 52.5616 6.68246 53.2592 6.54107C53.4763 6.49707 53.688 6.6374 53.732 6.85452C53.776 7.07163 53.6356 7.28331 53.4185 7.32731C52.5438 7.50459 51.8737 7.35067 51.3925 7.04311C50.9226 6.74272 50.6623 6.31406 50.5669 5.98309C50.5055 5.77023 50.6283 5.54792 50.8411 5.48655ZM49.2095 6.58561C49.4021 6.47601 49.647 6.54323 49.7566 6.73574C49.9916 7.14852 51.1255 8.19743 53.5868 7.99501C53.8075 7.97685 54.0012 8.14111 54.0194 8.36189C54.0376 8.58267 53.8733 8.77637 53.6525 8.79453C50.9475 9.017 49.4796 7.87062 49.0594 7.13264C48.9498 6.94013 49.017 6.69521 49.2095 6.58561Z" fill="#111111"/>
<path fill-rule="evenodd" clip-rule="evenodd" d="M36.0828 41.2764C35.7948 41.1107 35.6956 40.7429 35.8613 40.4549C36.2374 39.8013 36.7225 39.3594 37.2785 39.1051C37.8292 38.8532 38.4076 38.8041 38.9471 38.8645C40.0075 38.9833 40.9993 39.5326 41.5926 39.9903C41.8557 40.1932 41.9044 40.571 41.7014 40.8341C41.4985 41.0972 41.1207 41.146 40.8576 40.943C40.3712 40.5678 39.5832 40.1466 38.8132 40.0604C38.4374 40.0183 38.0878 40.0581 37.7791 40.1994C37.4755 40.3382 37.1697 40.5939 36.9044 41.055C36.7387 41.343 36.3708 41.4422 36.0828 41.2764Z" fill="#111111"/>
<path d="M48.4284 100.729C47.8134 99.7057 47.3304 83.5101 45.9979 75.2095C45.4224 71.625 44.1934 67.7891 44.6694 66.0897C45.1454 64.3902 51.0125 64.5803 51.9273 67.2456C52.842 69.9109 53.6038 92.0765 54.4381 98.0389C55.2724 104.001 54.5416 104.627 54.5416 104.627C52.8973 107.423 47.4349 107.51 45.5757 107.474C43.3834 107.432 35.8165 107.868 37.6146 103.995C39.4128 100.123 49.1972 102.009 48.4284 100.729Z" fill="#FFEB34"/>
<path fill-rule="evenodd" clip-rule="evenodd" d="M50.6961 65.3404C51.4324 65.7333 52.0555 66.3059 52.3251 67.0915C52.4542 67.4677 52.5699 68.1444 52.6793 69.0124C52.7903 69.8931 52.8988 71.0071 53.0056 72.2823C53.2191 74.8332 53.4264 78.0441 53.6309 81.3538C53.6788 82.1288 53.7265 82.909 53.7741 83.6872C54.134 89.5695 54.4871 95.3411 54.8531 97.9565C55.2719 100.95 55.3022 102.631 55.22 103.576C55.1788 104.049 55.1084 104.352 55.0362 104.55C54.9998 104.649 54.9615 104.726 54.9235 104.786C54.9096 104.807 54.8956 104.827 54.8817 104.845C53.9506 106.391 52.0207 107.134 50.2151 107.501C48.3672 107.877 46.5017 107.889 45.5629 107.871C45.3585 107.867 45.1 107.867 44.8017 107.868C43.5574 107.87 41.6196 107.874 40.0181 107.561C39.0312 107.367 38.0881 107.04 37.5146 106.45C37.2193 106.147 37.0193 105.771 36.9698 105.316C36.9207 104.866 37.0228 104.373 37.2706 103.839C37.7932 102.714 38.8766 102.05 40.0816 101.647C41.2916 101.242 42.7018 101.072 43.9981 100.985C44.6489 100.941 45.2783 100.918 45.8455 100.898L45.9177 100.896C46.4586 100.877 46.9351 100.86 47.3263 100.83C47.6359 100.807 47.8614 100.776 48.0112 100.742C47.9827 100.654 47.9597 100.559 47.9399 100.465C47.8993 100.275 47.8604 100.033 47.8225 99.7503C47.7465 99.1836 47.6714 98.427 47.5949 97.5294C47.4671 96.0287 47.3344 94.117 47.1881 92.0092C47.1593 91.5947 47.13 91.1725 47.1001 90.7444C46.7356 85.525 46.2827 79.42 45.6198 75.2905C45.4342 74.1347 45.1826 72.9638 44.94 71.8354C44.8078 71.2204 44.6783 70.6179 44.5637 70.0374C44.4031 69.2237 44.2729 68.4565 44.2137 67.7806C44.1552 67.1122 44.1623 66.4952 44.3017 65.9976C44.4847 65.3441 45.1433 64.9764 45.8046 64.7883C46.498 64.5912 47.3581 64.5391 48.215 64.627C49.0736 64.7151 49.9578 64.9465 50.6961 65.3404ZM48.1809 100.686C48.1809 100.686 48.1796 100.687 48.1764 100.688C48.1792 100.686 48.1808 100.685 48.1809 100.686ZM45.9823 65.5595C45.3811 65.7305 45.1278 65.9764 45.0729 66.1726C44.9743 66.5248 44.9564 67.0245 45.0125 67.6654C45.0679 68.2986 45.1916 69.0331 45.3507 69.8389C45.4601 70.3929 45.5868 70.9827 45.7176 71.5919C45.9631 72.7347 46.2233 73.9461 46.4117 75.1194C47.0813 79.2905 47.5362 85.4336 47.9 90.643C47.93 91.0723 47.9594 91.4952 47.9882 91.9102C48.1345 94.0182 48.2667 95.9221 48.3939 97.416C48.47 98.3104 48.5439 99.0518 48.6173 99.5992C48.654 99.8733 48.6899 100.093 48.7246 100.256C48.7419 100.337 48.758 100.4 48.7723 100.446C48.7857 100.489 48.7938 100.505 48.7937 100.505C48.7937 100.505 48.7934 100.504 48.793 100.504C48.878 100.645 48.9461 100.865 48.8246 101.099C48.721 101.298 48.5314 101.395 48.4052 101.445C48.1405 101.551 47.7544 101.599 47.3413 101.63C46.9332 101.661 46.4417 101.679 45.909 101.697L45.8279 101.7C45.2602 101.72 44.6424 101.743 44.0059 101.786C42.7273 101.871 41.4023 102.036 40.2961 102.407C39.1848 102.779 38.3709 103.332 37.9944 104.142C37.7926 104.577 37.7378 104.917 37.767 105.184C37.7956 105.447 37.909 105.673 38.1044 105.874C38.5125 106.293 39.261 106.586 40.2151 106.773C41.7304 107.069 43.5527 107.067 44.8032 107.065C45.1177 107.064 45.3961 107.064 45.6243 107.068C46.5446 107.086 48.3399 107.073 50.0991 106.715C51.8873 106.351 53.4957 105.66 54.2169 104.433L54.2538 104.371L54.2654 104.361C54.2705 104.35 54.2772 104.334 54.285 104.313C54.3238 104.206 54.3839 103.981 54.4212 103.552C54.4958 102.694 54.4743 101.081 54.0589 98.1121C53.6882 95.4634 53.333 89.6558 52.974 83.7864C52.9263 83.0059 52.8785 82.2243 52.8306 81.4488C52.626 78.1386 52.4192 74.9357 52.2065 72.3946C52.1002 71.1238 51.9926 70.0223 51.8836 69.1574C51.773 68.2797 51.6647 67.6807 51.5651 67.3905C51.3774 66.8435 50.9241 66.3929 50.2881 66.0536C49.6542 65.7154 48.8703 65.5057 48.0883 65.4255C47.3046 65.3452 46.5515 65.3977 45.9823 65.5595Z" fill="#111111"/>
<path d="M13.3129 51.5406C16.8427 51.0592 25.6136 51.7411 29.5579 52.1422C30.2265 52.3428 31.3632 53.2653 30.5608 55.351C29.5579 57.9583 21.3353 56.5544 20.3325 58.7605C20.3993 59.4958 19.49 61.1671 15.3185 61.9693C14.983 62.0339 14.6483 62.0843 14.3159 62.1213C12.9935 62.2684 11.7063 62.2032 10.5415 61.9693C7.44796 61.3483 5.21866 59.5378 5.49131 57.3566C5.89242 54.1477 8.90074 52.1422 13.3129 51.5406Z" fill="#FDFBEF"/>
<path fill-rule="evenodd" clip-rule="evenodd" d="M21.3112 51.1204C24.446 51.2812 27.6316 51.5525 29.6091 51.7536L29.6471 51.7575L29.6837 51.7685C30.1061 51.8952 30.6532 52.239 30.9778 52.8657C31.3093 53.5059 31.3784 54.3811 30.9458 55.5055C30.6222 56.3467 29.7489 56.7943 28.8031 57.0691C27.8362 57.35 26.6477 57.4907 25.5006 57.6154C25.4011 57.6262 25.3019 57.6369 25.2031 57.6476C24.1449 57.7617 23.1362 57.8705 22.3156 58.0645C21.8688 58.1702 21.5008 58.2962 21.223 58.4493C20.9862 58.5797 20.835 58.7185 20.7476 58.8627C20.7419 59.3896 20.4209 60.0499 19.6806 60.6599C18.8716 61.3264 17.5313 61.9648 15.4049 62.3737C15.0588 62.4403 14.7137 62.4922 14.3708 62.5304C13.0078 62.682 11.6789 62.6151 10.4732 62.3731C8.87652 62.0526 7.47522 61.4204 6.49932 60.5593C5.51945 59.6947 4.9468 58.5742 5.10391 57.3173C5.53987 53.8296 8.799 51.7632 13.2694 51.1536C15.0769 50.9071 18.1883 50.9601 21.3112 51.1204ZM21.2701 51.9215C18.1389 51.7609 15.1 51.7136 13.3778 51.9485C9.02371 52.5422 6.26619 54.4868 5.89994 57.4168C5.7844 58.3411 6.19008 59.2165 7.03009 59.9577C7.6772 60.5287 8.56895 61.005 9.62449 61.3316C8.7351 59.8526 8.5342 58.5213 8.7087 57.4101C8.91534 56.0943 9.64135 55.1347 10.269 54.6443C10.4436 54.5079 10.6956 54.5389 10.832 54.7135C10.9684 54.888 10.9375 55.1401 10.7629 55.2765C10.2782 55.6552 9.67303 56.4404 9.50121 57.5346C9.33572 58.5884 9.56529 59.9755 10.7798 61.6153C11.6103 61.77 12.5042 61.8368 13.4276 61.7984C12.0245 60.2634 11.6337 58.8161 11.8189 57.5728C12.0252 56.1881 12.9318 55.1595 13.6973 54.6304C13.8796 54.5045 14.1294 54.5501 14.2554 54.7323C14.3813 54.9146 14.3357 55.1644 14.1535 55.2904C13.515 55.7316 12.7772 56.5846 12.6124 57.691C12.4557 58.7427 12.8033 60.1233 14.4649 61.7114C14.7267 61.6783 14.9898 61.6366 15.2534 61.5859C17.2985 61.1926 18.4985 60.5943 19.1705 60.0407C19.8496 59.4812 19.961 58.9974 19.9437 58.8072L19.9341 58.7016L19.978 58.605C20.1511 58.2242 20.4675 57.9497 20.8358 57.7467C21.2036 57.5441 21.6503 57.3975 22.131 57.2838C23.0035 57.0775 24.0636 56.9634 25.1076 56.851C25.2099 56.84 25.3121 56.829 25.4139 56.8179C26.5731 56.6919 27.691 56.5568 28.5793 56.2987C29.4885 56.0346 30.0192 55.6799 30.1971 55.2175C30.5669 54.2562 30.4687 53.6272 30.2654 53.2346C30.0644 52.8465 29.7307 52.6304 29.4866 52.5476C27.5169 52.348 24.3674 52.0805 21.2701 51.9215Z" fill="#111111"/>
<path fill-rule="evenodd" clip-rule="evenodd" d="M82.436 102.708C84.8722 100.394 86.9868 96.7786 88.0991 92.3887C89.2114 87.9988 89.0738 83.8126 88.0333 80.6177C86.9853 77.3997 85.1208 75.4168 82.9163 74.8582C80.7117 74.2996 78.1279 75.1554 75.674 77.4861C73.2377 79.8 71.1232 83.4156 70.0108 87.8055C68.8985 92.1954 69.0362 96.3816 70.0766 99.5765C71.1246 102.794 72.9891 104.777 75.1937 105.336C77.3982 105.895 79.982 105.039 82.436 102.708ZM74.7996 106.891C80.6535 108.375 87.3042 102.058 89.6544 92.7828C92.0045 83.5076 89.1642 74.7862 83.3103 73.3029C77.4565 71.8196 70.8057 78.1362 68.4556 87.4114C66.1054 96.6866 68.9457 105.408 74.7996 106.891Z" fill="#AAAAAA"/>
<path fill-rule="evenodd" clip-rule="evenodd" d="M81.8938 102.125C84.2042 99.9303 86.2508 96.4558 87.3317 92.1898C88.4127 87.9238 88.2675 83.894 87.2808 80.8643C86.2835 77.8019 84.5744 76.1014 82.7295 75.634C80.8846 75.1665 78.572 75.8479 76.2367 78.0659C73.9263 80.2602 71.8797 83.7346 70.7988 88.0006C69.7178 92.2666 69.863 96.2965 70.8497 99.3262C71.847 102.389 73.5561 104.089 75.401 104.556C77.2459 105.024 79.5585 104.343 81.8938 102.125ZM84.1036 104.451C81.2983 107.116 77.901 108.5 74.6128 107.667C71.3247 106.834 68.9966 103.999 67.7985 100.32C66.5967 96.6295 66.4817 91.9739 67.6882 87.2125C68.8947 82.451 71.2128 78.4119 74.0269 75.7392C76.8322 73.0748 80.2295 71.6902 83.5177 72.5234C86.8058 73.3565 89.1339 76.1919 90.332 79.8706C91.5338 83.5609 91.6488 88.2165 90.4423 92.978C89.2358 97.7394 86.9177 101.779 84.1036 104.451ZM88.1094 92.3869C86.997 96.7768 84.8825 100.392 82.4462 102.706C79.9923 105.037 77.4085 105.893 75.204 105.334C72.9994 104.776 71.1349 102.793 70.0869 99.5746C69.0464 96.3797 68.9088 92.1935 70.0211 87.8036C71.1335 83.4137 73.248 79.7981 75.6843 77.4842C78.1382 75.1535 80.722 74.2977 82.9265 74.8563C85.1311 75.4149 86.9956 77.3978 88.0436 80.6159C89.0841 83.8107 89.2217 87.997 88.1094 92.3869ZM89.6647 92.7809C87.3145 102.056 80.6638 108.373 74.8099 106.889C68.956 105.406 66.1157 96.6847 68.4658 87.4095C70.816 78.1343 77.4667 71.8177 83.3206 73.301C89.1745 74.7843 92.0148 83.5058 89.6647 92.7809Z" fill="#111111"/>
<path fill-rule="evenodd" clip-rule="evenodd" d="M19.3266 102.708C21.7629 100.394 23.8774 96.7786 24.9897 92.3887C26.102 87.9988 25.9644 83.8126 24.9239 80.6177C23.8759 77.3997 22.0114 75.4168 19.8069 74.8582C17.6023 74.2996 15.0186 75.1554 12.5646 77.4861C10.1283 79.8 8.0138 83.4156 6.90147 87.8055C5.78914 92.1954 5.92678 96.3816 6.96724 99.5765C8.01526 102.794 9.87973 104.777 12.0843 105.336C14.2889 105.895 16.8726 105.039 19.3266 102.708ZM11.6902 106.891C17.5441 108.375 24.1948 102.058 26.545 92.7828C28.8952 83.5076 26.0549 74.7862 20.201 73.3029C14.3471 71.8196 7.69636 78.1362 5.34618 87.4114C2.996 96.6866 5.83632 105.408 11.6902 106.891Z" fill="#AAAAAA"/>
<path fill-rule="evenodd" clip-rule="evenodd" d="M18.761 102.125C21.0713 99.9303 23.118 96.4558 24.1989 92.1898C25.2798 87.9238 25.1347 83.894 24.148 80.8643C23.1507 77.8019 21.4416 76.1014 19.5967 75.634C17.7518 75.1665 15.4392 75.8479 13.1039 78.0659C10.7935 80.2602 8.7469 83.7346 7.66597 88.0006C6.58503 92.2666 6.7302 96.2965 7.71688 99.3262C8.71421 102.389 10.4233 104.089 12.2682 104.556C14.1131 105.024 16.4257 104.343 18.761 102.125ZM20.9708 104.451C18.1655 107.116 14.7682 108.5 11.48 107.667C8.19188 106.834 5.86379 103.999 4.66573 100.32C3.4639 96.6295 3.34892 91.9739 4.55539 87.2125C5.76186 82.451 8.07994 78.4119 10.8941 75.7392C13.6994 73.0748 17.0967 71.6902 20.3849 72.5234C23.673 73.3565 26.0011 76.1919 27.1991 79.8706C28.401 83.5609 28.516 88.2165 27.3095 92.978C26.103 97.7394 23.7849 101.779 20.9708 104.451ZM24.9766 92.3869C23.8642 96.7768 21.7497 100.392 19.3134 102.706C16.8595 105.037 14.2757 105.893 12.0711 105.334C9.86658 104.776 8.00211 102.793 6.9541 99.5746C5.91363 96.3797 5.77599 92.1935 6.88832 87.8036C8.00065 83.4137 10.1152 79.7981 12.5514 77.4842C15.0054 75.1535 17.5892 74.2977 19.7937 74.8563C21.9983 75.4149 23.8628 77.3978 24.9108 80.6159C25.9512 83.8107 26.0889 87.997 24.9766 92.3869ZM26.5318 92.7809C24.1817 102.056 17.5309 108.373 11.6771 106.889C5.82317 105.406 2.98286 96.6847 5.33304 87.4095C7.68322 78.1343 14.3339 71.8177 20.1878 73.301C26.0417 74.7843 28.882 83.5058 26.5318 92.7809Z" fill="#111111"/>
<path d="M24.5636 56.957C24.6319 56.957 24.5636 57.3428 24.5636 57.7593C24.5636 58.2023 24.6319 58.5615 24.5636 58.5615H22.0862H21.8345H17.9453C17.9453 58.1604 18.0303 57.1576 18.1584 56.957H24.5636Z" fill="#F77D0E"/>
<path fill-rule="evenodd" clip-rule="evenodd" d="M17.9428 59.3573C17.4998 59.3573 17.1406 58.9981 17.1406 58.5551C17.1406 58.3162 17.1646 57.9337 17.2043 57.5865C17.2243 57.4116 17.25 57.2301 17.2823 57.0706C17.2984 56.9911 17.3182 56.9062 17.3433 56.8248C17.3645 56.7559 17.405 56.636 17.4798 56.5189C17.6272 56.2881 17.8821 56.1484 18.1559 56.1484H24.5612C25.0584 56.1484 25.2714 56.538 25.3228 56.6631C25.3771 56.7953 25.3868 56.9154 25.3899 56.9574C25.3977 57.0608 25.3916 57.173 25.3877 57.2416C25.3851 57.2864 25.3823 57.33 25.3795 57.3729C25.3712 57.4993 25.3634 57.6204 25.3634 57.7529C25.3634 57.899 25.3718 58.0273 25.3802 58.156C25.3827 58.1948 25.3853 58.2336 25.3876 58.273C25.3914 58.3384 25.3979 58.451 25.3897 58.5551C25.3864 58.5975 25.3758 58.7228 25.3159 58.86C25.2508 59.009 25.0281 59.3573 24.5612 59.3573H17.9428ZM18.1559 56.9507C18.087 57.0586 18.0305 57.399 17.9931 57.7529C17.961 58.0564 17.9428 58.3699 17.9428 58.5551H24.5612C24.6025 58.5551 24.5938 58.4238 24.5805 58.2219C24.5718 58.09 24.5612 57.928 24.5612 57.7529C24.5612 57.5917 24.5714 57.4352 24.58 57.3038C24.5936 57.0957 24.603 56.9507 24.5612 56.9507H18.1559Z" fill="#111111"/>
<path fill-rule="evenodd" clip-rule="evenodd" d="M18.0629 55.3701C18.2743 55.4364 18.3919 55.6615 18.3256 55.8728C18.2348 56.1622 18.1085 56.6894 18.0261 57.3302C17.9332 58.0535 17.899 58.901 18.0246 59.7017C18.0589 59.9206 17.9093 60.1258 17.6904 60.1601C17.4716 60.1945 17.2663 60.0449 17.232 59.826C17.0908 58.9259 17.1316 57.9974 17.2304 57.228C17.3182 56.5453 17.4538 55.9717 17.5601 55.6327C17.6264 55.4214 17.8515 55.3038 18.0629 55.3701Z" fill="#111111"/>
<path d="M39.8083 50.5328C50.2372 50.5328 52.6438 49.5303 53.8472 49.3297C55.4516 48.9286 60.4655 45.7195 62.2304 46.8426C64.4365 48.2465 65.6799 50.132 66.0409 52.2575C66.4019 54.383 65.8403 55.2657 65.0381 56.2685C63.6342 57.4719 61.8694 58.956 57.2566 59.9588C45.8651 60.761 41.6133 60.4268 40.6105 58.9561C39.0764 61.7454 37.2513 62.498 34.3933 62.6977C33.1415 62.7852 31.6916 62.7666 29.9811 62.7666C25.4887 62.7666 24.7667 59.0229 24.9672 57.1511C24.9672 54.945 26.8114 50.5328 39.8083 50.5328Z" fill="#FDFBEF"/>
<path fill-rule="evenodd" clip-rule="evenodd" d="M55.7354 48.9836C55.0243 49.3176 54.3709 49.6136 53.9236 49.7254L53.9081 49.7293L53.8923 49.7319C53.7186 49.7609 53.526 49.8059 53.273 49.865C53.1052 49.9042 52.9107 49.9496 52.6775 50.0007C52.1103 50.125 51.3599 50.2711 50.3198 50.4106C48.2415 50.6893 45.014 50.9404 39.7875 50.9404C33.3229 50.9404 29.7049 52.0398 27.7143 53.3558C25.7481 54.6556 25.3475 56.1805 25.3475 57.1576V57.1791L25.3452 57.2004C25.2515 58.0751 25.3771 59.3835 26.0355 60.4578C26.5539 61.3036 27.4193 62.0339 28.8503 62.2819C27.6651 60.998 27.2641 59.6579 27.3082 58.4417C27.3608 56.994 28.0416 55.7747 28.6586 55.0852C28.8063 54.9201 29.0599 54.906 29.225 55.0537C29.3901 55.2014 29.4042 55.455 29.2565 55.6201C28.7369 56.2007 28.1543 57.2478 28.1099 58.4708C28.0674 59.6429 28.5167 61.0281 30.1053 62.3721C30.3178 62.3722 30.5257 62.3726 30.7294 62.3729C31.7825 62.3747 32.7208 62.3762 33.5697 62.3447C31.909 60.0047 32.1965 57.2232 32.5875 56.03C32.6564 55.8195 32.883 55.7047 33.0935 55.7737C33.304 55.8427 33.4188 56.0692 33.3498 56.2798C32.9826 57.4004 32.7278 60.1528 34.542 62.2893C35.8529 62.1835 36.8955 61.9498 37.7819 61.4544C38.7056 60.9382 39.4975 60.1162 40.2383 58.7693L40.5531 58.1969L40.9211 58.7367C41.0999 58.9988 41.456 59.2574 42.1321 59.47C42.8053 59.6816 43.7502 59.8334 45.0426 59.9161C47.6214 60.0811 51.5001 59.9667 57.1787 59.5673C59.4394 59.0736 60.9889 58.466 62.1387 57.8428C63.2766 57.226 64.0367 56.587 64.7275 55.9952C65.1121 55.5125 65.4044 55.0954 65.5728 54.5685C65.7435 54.0346 65.7978 53.3507 65.6246 52.3313C65.2845 50.3285 64.1144 48.5368 61.9942 47.1876C61.6909 46.9946 61.1815 46.956 60.4597 47.1008C59.7569 47.2419 58.9445 47.5375 58.1147 47.8903C57.4513 48.1724 56.7922 48.4841 56.1813 48.7731C56.0295 48.845 55.8806 48.9154 55.7354 48.9836ZM60.3018 46.3143C61.0666 46.1608 61.8458 46.1423 62.4249 46.5108C64.7169 47.9693 66.0337 49.9487 66.4155 52.1969C66.6034 53.303 66.5574 54.1232 66.337 54.8127C66.1177 55.4986 65.7366 56.018 65.3305 56.5257L65.307 56.5551L65.2783 56.5797C64.5729 57.1843 63.7539 57.8798 62.521 58.5481C61.289 59.2159 59.6578 59.8493 57.321 60.3574L57.2928 60.3635L57.264 60.3655C51.5667 60.7667 47.6326 60.8857 44.9914 60.7167C43.6715 60.6322 42.6535 60.4748 41.8915 60.2352C41.3917 60.0781 40.9819 59.8793 40.6682 59.6267C39.9444 60.8087 39.1371 61.6161 38.1732 62.1547C37.093 62.7584 35.8541 63.0029 34.4005 63.1044C33.3242 63.1797 32.1041 63.1775 30.7218 63.1752C30.4733 63.1747 30.2195 63.1743 29.9603 63.1743C27.5811 63.1743 26.1448 62.1714 25.3515 60.8769C24.5813 59.6203 24.4427 58.1333 24.5454 57.1361C24.5514 55.908 25.0796 54.1359 27.2719 52.6866C29.4525 51.245 33.2551 50.1382 39.7875 50.1382C44.9898 50.1382 48.18 49.8881 50.2132 49.6155C51.2288 49.4793 51.9574 49.3372 52.5058 49.2171C52.7039 49.1737 52.8852 49.1315 53.051 49.0929C53.3217 49.0298 53.5509 48.9765 53.7434 48.9435C54.0994 48.8516 54.6688 48.5983 55.3944 48.2575C55.5356 48.1911 55.6817 48.122 55.8317 48.051C56.4436 47.7616 57.1212 47.441 57.8008 47.152C58.6456 46.7928 59.5179 46.4716 60.3018 46.3143Z" fill="#111111"/>
<path d="M44.6183 56.957C44.6866 56.957 45.4205 56.957 45.4205 57.7593C45.4205 58.5615 44.6866 58.5615 44.6183 58.5615H42.1409H41.8892H38C38 58.1604 38.085 57.1576 38.2131 56.957H44.6183Z" fill="#F77D0E"/>
<path fill-rule="evenodd" clip-rule="evenodd" d="M37.9975 59.3573C37.5545 59.3573 37.1953 58.9982 37.1953 58.5551C37.1953 58.3162 37.2193 57.9337 37.259 57.5865C37.279 57.4116 37.3047 57.2301 37.337 57.0706C37.3531 56.9911 37.3729 56.9062 37.3979 56.8248C37.4192 56.7559 37.4597 56.636 37.5345 56.5189C37.6819 56.2881 37.9368 56.1484 38.2106 56.1484L44.6189 56.1484C44.6857 56.1484 45.0466 56.148 45.4139 56.3398C45.6132 56.4439 45.8254 56.6102 45.9843 56.8667C46.1441 57.1246 46.2203 57.4261 46.2203 57.7529C46.2203 58.0797 46.1441 58.3812 45.9843 58.6391C45.8254 58.8956 45.6132 59.0618 45.4139 59.1659C45.0466 59.3577 44.6857 59.3574 44.6189 59.3573L37.9975 59.3573ZM38.2106 56.9507C38.1417 57.0586 38.0852 57.399 38.0478 57.7529C38.0157 58.0564 37.9975 58.3699 37.9975 58.5551H44.6158C44.6841 58.5551 45.4181 58.5551 45.4181 57.7529C45.4181 56.9507 44.6841 56.9507 44.6158 56.9507H38.2106Z" fill="#111111"/>
<path fill-rule="evenodd" clip-rule="evenodd" d="M38.1176 55.3701C38.329 55.4364 38.4466 55.6615 38.3803 55.8728C38.2895 56.1622 38.1632 56.6894 38.0808 57.3302C37.9879 58.0535 37.9536 58.901 38.0792 59.7017C38.1136 59.9206 37.964 60.1258 37.7451 60.1601C37.5263 60.1945 37.321 60.0449 37.2867 59.826C37.1455 58.9259 37.1863 57.9974 37.2851 57.228C37.3729 56.5453 37.5085 55.9717 37.6148 55.6327C37.6811 55.4214 37.9062 55.3038 38.1176 55.3701Z" fill="#111111"/>
</svg>
