<svg width="93" height="110" viewBox="0 0 93 110" fill="none" xmlns="http://www.w3.org/2000/svg">
<path d="M60.9932 44.3563C49.5053 41.1133 41.8608 42.7375 39.4745 43.955C38.7026 45.7557 38.1269 49.3573 41.9999 49.3573C44.032 48.162 49.5665 46.4885 55.4476 49.3573C61.3288 52.2262 61.5951 47.2187 60.9932 44.3563Z" fill="#FDFBEF"/>
<path fill-rule="evenodd" clip-rule="evenodd" d="M39.7945 44.2451C39.4495 45.1044 39.1876 46.2871 39.3947 47.2437C39.5011 47.7349 39.7267 48.1491 40.1137 48.4449C40.4881 48.731 41.0531 48.9366 41.9015 48.9524C44.0952 47.7108 49.6936 46.0977 55.6308 48.994C57.0674 49.6947 58.1031 49.8844 58.835 49.7882C59.5421 49.6952 60.0048 49.3308 60.312 48.8017C60.6294 48.2552 60.7833 47.524 60.8142 46.7302C60.8414 46.0305 60.7721 45.3088 60.6548 44.6732C49.5722 41.5951 42.1946 43.1011 39.7945 44.2451ZM39.2996 43.5948C41.8026 42.3177 49.5578 40.7064 61.1095 43.9674L61.3431 44.0334L61.393 44.2709C61.549 45.0125 61.6495 45.8955 61.6158 46.7615C61.5823 47.622 61.4149 48.5001 61.0058 49.2046C60.5865 49.9266 59.9176 50.455 58.9395 50.5836C57.9861 50.7089 56.7831 50.4486 55.2791 49.715C49.5444 46.9175 44.1536 48.5573 42.2106 49.7002L42.1164 49.7556L42.0072 49.7556C40.9782 49.7556 40.1941 49.516 39.6266 49.0823C39.0565 48.6465 38.748 48.0477 38.6107 47.4135C38.3415 46.1702 38.7129 44.7278 39.1132 43.794L39.1703 43.6607L39.2996 43.5948Z" fill="#111111"/>
<path d="M37.9333 37.0788C45.4128 36.442 52.5596 43.3747 54.1994 47.9175L56.7169 51.5463C57.4188 57.181 57.2557 65.695 50.9881 54.6734C44.7204 43.6518 38.8288 42.8083 36.6664 43.7643C35.608 41.7361 34.3796 37.5596 37.9333 37.0788Z" fill="#FDFBEF"/>
<path fill-rule="evenodd" clip-rule="evenodd" d="M35.7801 37.7965C36.2247 37.2035 36.9202 36.8091 37.8932 36.6774L37.9031 36.6761L37.913 36.6753C41.7854 36.3456 45.5387 37.9752 48.5125 40.2324C51.4619 42.4711 53.7057 45.3733 54.5722 47.7275L57.1165 51.3949L57.1287 51.4928C57.3056 52.9134 57.4288 54.5208 57.4141 55.9622C57.3996 57.3808 57.2522 58.7142 56.8377 59.5332C56.6265 59.9504 56.3069 60.3091 55.8314 60.4028C55.3651 60.4947 54.8803 60.3044 54.3993 59.944C53.4404 59.2255 52.2204 57.6238 50.6531 54.8678C47.5417 49.3964 44.5464 46.4926 42.0999 45.0701C39.6474 43.6442 37.7718 43.7163 36.8423 44.1272L36.4984 44.2792L36.3245 43.9459C35.7814 42.9052 35.1778 41.2865 35.1829 39.8359C35.1855 39.1056 35.3427 38.3798 35.7801 37.7965ZM36.8784 43.2589C36.4163 42.2879 35.9811 40.975 35.9851 39.8388C35.9873 39.2113 36.1232 38.6761 36.4219 38.2777C36.7122 37.8906 37.1931 37.5836 37.9911 37.4737C41.5947 37.1703 45.1507 38.6878 48.0274 40.8714C50.9104 43.0596 53.049 45.8699 53.8358 48.0498L53.8536 48.0991L56.3446 51.6897C56.5121 53.0617 56.6259 54.5911 56.6119 55.9539C56.5974 57.3721 56.4439 58.5347 56.1219 59.1709C55.9648 59.4813 55.8073 59.5899 55.6763 59.6157C55.5361 59.6433 55.285 59.6053 54.8803 59.302C54.0677 58.6931 52.917 57.226 51.3505 54.4712C48.1942 48.921 45.1099 45.8923 42.5031 44.3766C40.1397 43.0025 38.1475 42.8638 36.8784 43.2589Z" fill="#111111"/>
<path d="M23.2205 103.141C23.2205 102.225 23.3472 100.63 23.2205 98.4787L22.8097 92.7409L27.5723 93.3205C27.8363 94.3047 27.8419 96.6817 27.6155 101.173C27.4712 104.037 27.1126 105.83 27.1126 105.83C26.5803 107.98 23.9153 108.16 22.6357 108.16C21.4145 108.159 17.455 108.531 18.2133 105.529C18.8622 102.96 23.2205 104.26 23.2205 103.141Z" fill="#FFEB34"/>
<path fill-rule="evenodd" clip-rule="evenodd" d="M22.3894 92.2856L27.9109 92.9575L27.9761 93.2008C28.1226 93.7467 28.1888 94.6333 28.1949 95.9115C28.2011 97.2014 28.1454 98.9274 28.0321 101.175C27.9593 102.62 27.8324 103.795 27.7234 104.611C27.6689 105.019 27.6189 105.337 27.5823 105.555C27.564 105.663 27.549 105.747 27.5385 105.803C27.5333 105.832 27.5292 105.853 27.5263 105.868L27.523 105.885L27.5221 105.89L27.5218 105.891L27.5218 105.892C27.5217 105.892 27.5217 105.892 27.1287 105.835L27.5218 105.892L27.5199 105.901L27.5176 105.91C27.2045 107.175 26.2555 107.843 25.2837 108.184C24.3222 108.522 23.2789 108.566 22.6288 108.566C22.5345 108.566 22.4174 108.568 22.2826 108.572C21.6113 108.587 20.5005 108.613 19.5738 108.363C19.0103 108.211 18.455 107.944 18.1008 107.461C17.7352 106.961 17.6294 106.295 17.8411 105.457C18.0382 104.676 18.5281 104.183 19.119 103.88C19.6897 103.586 20.3577 103.467 20.9528 103.397C21.1929 103.37 21.4309 103.349 21.6505 103.33C21.7052 103.325 21.7587 103.321 21.8109 103.316C22.0785 103.292 22.3075 103.269 22.4964 103.235C22.6794 103.202 22.7836 103.165 22.8358 103.136C22.8366 102.871 22.8465 102.563 22.8577 102.211C22.8873 101.287 22.9266 100.063 22.8366 98.5324L22.3894 92.2856ZM26.7375 105.769L26.7393 105.76C26.7417 105.747 26.7455 105.728 26.7503 105.701C26.76 105.649 26.7742 105.57 26.7918 105.465C26.8269 105.257 26.8756 104.948 26.9288 104.55C27.0352 103.753 27.1598 102.6 27.2313 101.181C27.3444 98.9372 27.3991 97.2288 27.3931 95.9613C27.388 94.8895 27.3391 94.1583 27.2542 93.6916L23.2624 93.2058L23.6369 98.4371C23.7294 100.008 23.6879 101.307 23.6583 102.235C23.6471 102.586 23.6376 102.883 23.6376 103.123C23.6376 103.261 23.6028 103.398 23.5265 103.523C23.452 103.645 23.3511 103.734 23.249 103.799C23.0558 103.922 22.8159 103.984 22.5947 104.024C22.3649 104.066 22.1019 104.092 21.836 104.115C21.7804 104.12 21.7246 104.125 21.6684 104.13C21.4499 104.149 21.2271 104.168 21 104.195C20.4244 104.262 19.8812 104.369 19.4523 104.589C19.0434 104.799 18.7452 105.107 18.6178 105.611C18.4504 106.274 18.5552 106.687 18.7569 106.962C18.97 107.253 19.3387 107.457 19.823 107.587C20.6275 107.804 21.5859 107.784 22.2675 107.769C22.4184 107.766 22.5558 107.763 22.6749 107.763C23.3044 107.763 24.2335 107.718 25.0574 107.428C25.8682 107.143 26.5161 106.649 26.7375 105.769Z" fill="#111111"/>
<path d="M34.4436 103.141C34.4436 102.225 34.3169 100.63 34.4436 98.4787L34.8544 92.7409L30.0917 93.3205C29.8277 94.3047 29.8221 96.6817 30.0485 101.173C30.1929 104.037 30.5515 105.83 30.5515 105.83C31.0837 107.98 33.7488 108.16 35.0284 108.16C36.2496 108.159 40.209 108.531 39.4508 105.529C38.8019 102.96 34.4436 104.26 34.4436 103.141Z" fill="#FFEB34"/>
<path fill-rule="evenodd" clip-rule="evenodd" d="M35.2981 92.2856L29.7766 92.9575L29.7114 93.2008C29.5649 93.7467 29.4987 94.6333 29.4926 95.9115C29.4864 97.2014 29.5421 98.9274 29.6554 101.175C29.7282 102.62 29.8551 103.795 29.9641 104.611C30.0186 105.019 30.0686 105.337 30.1052 105.555C30.1235 105.663 30.1385 105.747 30.149 105.803C30.1542 105.832 30.1583 105.853 30.1612 105.868L30.1645 105.885L30.1654 105.89L30.1657 105.891L30.1657 105.892C30.1658 105.892 30.1658 105.892 30.5588 105.835L30.1657 105.892L30.1676 105.901L30.1699 105.91C30.483 107.175 31.432 107.843 32.4038 108.184C33.3653 108.522 34.4086 108.566 35.0587 108.566C35.153 108.566 35.2701 108.568 35.4049 108.572C36.0762 108.587 37.187 108.613 38.1137 108.363C38.6772 108.211 39.2325 107.944 39.5867 107.461C39.9523 106.961 40.0581 106.295 39.8464 105.457C39.6493 104.676 39.1594 104.183 38.5685 103.88C37.9978 103.586 37.3298 103.467 36.7347 103.397C36.4946 103.37 36.2566 103.349 36.037 103.33C35.9823 103.325 35.9288 103.321 35.8766 103.316C35.609 103.292 35.38 103.269 35.1911 103.235C35.0081 103.202 34.9039 103.165 34.8517 103.136C34.8509 102.871 34.841 102.563 34.8298 102.211C34.8002 101.287 34.7609 100.063 34.8509 98.5324L35.2981 92.2856ZM30.95 105.769L30.9482 105.76C30.9458 105.747 30.942 105.728 30.9372 105.701C30.9275 105.649 30.9133 105.57 30.8957 105.465C30.8606 105.257 30.8119 104.948 30.7587 104.55C30.6523 103.753 30.5277 102.6 30.4562 101.181C30.3431 98.9372 30.2884 97.2288 30.2944 95.9613C30.2995 94.8895 30.3484 94.1583 30.4333 93.6916L34.4251 93.2058L34.0506 98.4371C33.9581 100.008 33.9996 101.307 34.0292 102.235C34.0404 102.586 34.0499 102.883 34.0499 103.123C34.0499 103.261 34.0847 103.398 34.161 103.523C34.2355 103.645 34.3364 103.734 34.4385 103.799C34.6317 103.922 34.8716 103.984 35.0928 104.024C35.3226 104.066 35.5856 104.092 35.8515 104.115C35.9071 104.12 35.9629 104.125 36.0191 104.13C36.2376 104.149 36.4604 104.168 36.6875 104.195C37.2631 104.262 37.8063 104.369 38.2352 104.589C38.6441 104.799 38.9423 105.107 39.0697 105.611C39.2371 106.274 39.1323 106.687 38.9306 106.962C38.7175 107.253 38.3488 107.457 37.8645 107.587C37.06 107.804 36.1016 107.784 35.42 107.769C35.2691 107.766 35.1317 107.763 35.0126 107.763C34.3831 107.763 33.454 107.718 32.6301 107.428C31.8193 107.143 31.1714 106.649 30.95 105.769Z" fill="#111111"/>
<path d="M20.3657 95.5609C17.064 95.5609 17.8894 86.4624 18.7149 81.9131L37.6999 81.0859V93.4931C37.6999 96.8016 24.4929 95.5609 20.3657 95.5609Z" fill="#8F602C"/>
<path fill-rule="evenodd" clip-rule="evenodd" d="M38.1193 80.668V93.4941C38.1193 94.0642 37.8266 94.5143 37.3866 94.8513C36.9571 95.1802 36.3672 95.4201 35.6939 95.6004C34.3437 95.9621 32.5249 96.1178 30.6097 96.1697C28.6877 96.2217 26.6396 96.1696 24.8194 96.105C24.3073 96.0868 23.8143 96.0676 23.3475 96.0495C22.1473 96.0029 21.12 95.963 20.384 95.963C19.3195 95.963 18.6461 95.2101 18.2453 94.2197C17.8448 93.2303 17.6622 91.8949 17.61 90.4585C17.5054 87.5753 17.9231 84.132 18.3385 81.8425L18.3957 81.5273L38.1193 80.668ZM19.0719 82.3008C18.6817 84.5518 18.3146 87.7536 18.4117 90.4294C18.4628 91.8364 18.6413 93.06 18.9889 93.9187C19.3361 94.7765 19.7977 95.1608 20.384 95.1608C21.1367 95.1608 22.1889 95.2017 23.3973 95.2486C23.8606 95.2666 24.3468 95.2854 24.8479 95.3032C26.6648 95.3678 28.6922 95.4191 30.588 95.3678C32.4904 95.3162 34.2313 95.1617 35.4864 94.8255C36.1158 94.6569 36.5899 94.451 36.8988 94.2144C37.1971 93.9859 37.3171 93.7511 37.3171 93.4941V81.5059L19.0719 82.3008Z" fill="#111111"/>
<path d="M26.9435 0.402344C19.7555 0.402344 22.1023 21.7395 18.8749 24.9669C6.06151 37.7803 8.65457 40.387 14.0337 42.0007C19.7475 43.7149 2.02684 53.9249 1.48899 60.469C0.951129 67.0131 18.871 62.2107 3.10312 77.1442C-8.66967 88.2941 29.9986 87.5438 45.0532 86.1301C60.4057 84.6884 33.9433 71.5858 47.9357 64.9708C57.2308 60.5766 33.152 45.3182 41.1229 43.1572C49.3564 40.9249 38.4189 27.1186 35.9087 24.0704C32.5082 19.9412 34.1315 0.402344 26.9435 0.402344Z" fill="#00BC68"/>
<path fill-rule="evenodd" clip-rule="evenodd" d="M20.2335 23.0953C19.9705 24.0021 19.6315 24.7712 19.1534 25.2493C15.9574 28.4453 13.7344 30.9929 12.278 33.0386C10.8159 35.0922 10.1543 36.6023 10.0255 37.7281C9.90123 38.8136 10.269 39.5615 10.9718 40.152C11.7038 40.7669 12.8054 41.2138 14.1438 41.6153C14.9315 41.8516 15.4584 42.2844 15.5496 42.9634C15.6318 43.5752 15.3293 44.2486 14.8884 44.9104C13.9915 46.2571 12.2557 47.9329 10.3765 49.7136C10.2208 49.8611 10.064 50.0095 9.90636 50.1586C8.14212 51.8278 6.27543 53.5939 4.77772 55.3248C3.96296 56.2665 3.26652 57.1875 2.75903 58.0663C2.25004 58.9476 1.94417 59.7641 1.88363 60.5006C1.82465 61.2182 2.01598 61.7594 2.36213 62.2044C2.7182 62.6621 3.2536 63.0374 3.91101 63.3779C4.49321 63.6794 5.1409 63.9392 5.80617 64.2059C5.89239 64.2405 5.97891 64.2752 6.06562 64.3101C6.80983 64.6098 7.56829 64.9262 8.21054 65.3166C8.85324 65.7072 9.41808 66.1943 9.73622 66.8559C10.06 67.5292 10.1014 68.3262 9.80521 69.277C9.22535 71.1384 7.31562 73.701 3.37383 77.4342C1.92613 78.8053 1.33766 79.9194 1.30382 80.8037C1.27129 81.6533 1.75093 82.4196 2.7921 83.1163C3.83685 83.8155 5.38488 84.3977 7.32301 84.869C9.25473 85.3389 11.545 85.692 14.0535 85.9483C24.0947 86.974 37.4968 86.4351 45.0105 85.7295C46.9106 85.5511 48.0959 85.1961 48.7852 84.7421C49.1231 84.5196 49.3331 84.2789 49.4566 84.0296C49.58 83.7805 49.6294 83.4977 49.6074 83.1717C49.5624 82.502 49.2201 81.6912 48.6707 80.7462C48.1945 79.9273 47.5892 79.0503 46.9492 78.123C46.8564 77.9886 46.7629 77.8531 46.669 77.7166C45.9323 76.6462 45.1731 75.5186 44.564 74.3807C43.9556 73.2442 43.4834 72.0734 43.3381 70.9136C43.1915 69.7434 43.3783 68.5853 44.0827 67.5005C44.7818 66.4238 45.9683 65.4536 47.7592 64.607C48.8472 64.0926 49.3884 63.4505 49.5947 62.7465C49.8058 62.0261 49.6906 61.1601 49.2937 60.1592C48.4959 58.1474 46.6523 55.8098 44.7126 53.4821C44.4428 53.1582 44.1709 52.8345 43.9003 52.5121C42.2531 50.5503 40.6473 48.6376 39.7752 47.0513C39.2719 46.1358 38.9584 45.2367 39.1094 44.4571C39.2723 43.6167 39.9355 43.0609 41.0128 42.7688C41.9799 42.5066 42.6294 42.0851 43.049 41.5673C43.4687 41.0496 43.6861 40.4017 43.7291 39.638C43.8163 38.0896 43.1822 36.1371 42.1796 34.0953C40.183 30.0293 36.8478 25.8467 35.5939 24.3242C35.1206 23.7494 34.7553 22.9352 34.4546 21.988C34.1519 21.0349 33.9048 19.9138 33.6844 18.7008C33.4638 17.4868 33.2682 16.1697 33.071 14.824C33.0566 14.726 33.0423 14.6279 33.0279 14.5296C32.8444 13.2759 32.6578 12.0009 32.4459 10.7539C31.9874 8.05574 31.4172 5.5335 30.532 3.69239C29.6466 1.85093 28.5059 0.802219 26.9384 0.802219C25.3952 0.802219 24.2937 1.93003 23.4702 3.93769C22.6511 5.93449 22.1743 8.65528 21.8169 11.5227C21.6596 12.7842 21.5246 14.0845 21.3927 15.355C21.2287 16.9341 21.0695 18.4671 20.8784 19.8219C20.7044 21.0556 20.5001 22.1757 20.2335 23.0953ZM22.728 3.63324C23.5869 1.53933 24.8876 0 26.9384 0C28.9649 0 30.3168 1.39366 31.255 3.34477C32.1933 5.29624 32.7775 7.9168 33.2368 10.6195C33.4503 11.876 33.6382 13.1598 33.8214 14.4117C33.8359 14.5106 33.8503 14.6093 33.8647 14.7077C34.0621 16.055 34.2559 17.3589 34.4737 18.5573C34.6916 19.7568 34.9316 20.8396 35.2192 21.7453C35.5086 22.657 35.8364 23.3566 36.2132 23.8142C37.4696 25.3398 40.8583 29.5845 42.8996 33.7417C43.916 35.8116 44.6293 37.9198 44.5301 39.6831C44.4798 40.5752 44.2206 41.396 43.6722 42.0725C43.1239 42.749 42.314 43.2472 41.2227 43.5431C40.3073 43.7913 39.9793 44.185 39.897 44.6098C39.8029 45.0954 39.9902 45.7773 40.4782 46.6648C41.3087 48.1755 42.8524 50.0151 44.5067 51.9864C44.7787 52.3105 45.0536 52.6382 45.3289 52.9685C47.2507 55.2748 49.1858 57.7109 50.0394 59.8634C50.4682 60.9447 50.6469 62.0086 50.3646 62.9721C50.0774 63.952 49.3378 64.748 48.1021 65.3322C46.3948 66.1393 45.3475 67.0257 44.7555 67.9373C44.1689 68.8408 44.0074 69.8028 44.1341 70.8138C44.2621 71.8351 44.6847 72.9064 45.2712 74.0021C45.857 75.0963 46.5928 76.1909 47.3298 77.2618C47.4227 77.3968 47.5157 77.5315 47.6084 77.6658C48.2461 78.5895 48.8712 79.495 49.3642 80.343C49.9246 81.3068 50.3496 82.253 50.4078 83.1178C50.4375 83.5591 50.3725 83.9879 50.1754 84.3857C49.9784 84.7835 49.6617 85.1255 49.2265 85.4121C48.3698 85.9764 47.0237 86.3462 45.0856 86.5282C37.5448 87.2364 24.0854 87.7795 13.972 86.7463C11.4419 86.4879 9.11272 86.1299 7.13342 85.6485C5.16054 85.1687 3.50601 84.5594 2.34593 83.7831C1.18227 83.0043 0.454799 82.0109 0.502183 80.773C0.548243 79.5696 1.32669 78.2682 2.82219 76.8518C6.76436 73.1182 8.5276 70.681 9.03929 69.0384C9.28891 68.237 9.23074 67.6559 9.01323 67.2036C8.79013 66.7396 8.37206 66.3535 7.79388 66.0021C7.21525 65.6504 6.51487 65.3559 5.76595 65.0543C5.68057 65.0199 5.59454 64.9854 5.50806 64.9507C4.84765 64.686 4.16129 64.411 3.54205 64.0902C2.84148 63.7273 2.18833 63.2875 1.72894 62.6969C1.25964 62.0936 1.00862 61.3534 1.08411 60.4349C1.15804 59.5354 1.5236 58.6014 2.06433 57.6651C2.60657 56.7262 3.33816 55.7625 4.17107 54.7999C5.69655 53.0369 7.59249 51.2433 9.3503 49.5803C9.5097 49.4295 9.66796 49.2798 9.82471 49.1313C11.7287 47.3272 13.3853 45.72 14.2208 44.4657C14.6462 43.8271 14.7949 43.3705 14.7545 43.0702C14.7232 42.8372 14.5541 42.576 13.9133 42.3837C12.5622 41.9784 11.3225 41.4943 10.4558 40.7662C9.55999 40.0136 9.07171 39.0064 9.22847 37.6369C9.38063 36.3076 10.1371 34.6626 11.6245 32.5733C13.1176 30.4761 15.3754 27.8928 18.5861 24.6821C18.9148 24.3533 19.2085 23.7496 19.463 22.8718C19.7139 22.0067 19.9119 20.9304 20.0841 19.7099C20.2755 18.3523 20.4304 16.8579 20.5914 15.303C20.7227 14.0362 20.8581 12.7292 21.0208 11.4235C21.3786 8.55321 21.8646 5.738 22.728 3.63324Z" fill="#111111"/>
<path d="M24.8006 21.0216C24.8006 22.507 26.0047 23.7111 27.4901 23.7111C28.9755 23.7111 30.1797 22.507 30.1797 21.0216C30.1797 19.5362 28.9755 18.332 27.4901 18.332C26.0047 18.332 24.8006 19.5362 24.8006 21.0216Z" fill="#111111"/>
<path fill-rule="evenodd" clip-rule="evenodd" d="M27.4901 22.9089C26.4478 22.9089 25.6028 22.0639 25.6028 21.0216C25.6028 19.9792 26.4478 19.1343 27.4901 19.1343C28.5325 19.1343 29.3775 19.9792 29.3775 21.0216C29.3775 22.0639 28.5325 22.9089 27.4901 22.9089ZM27.4901 23.7111C26.0047 23.7111 24.8006 22.507 24.8006 21.0216C24.8006 19.5362 26.0047 18.332 27.4901 18.332C28.9755 18.332 30.1797 19.5362 30.1797 21.0216C30.1797 22.507 28.9755 23.7111 27.4901 23.7111Z" fill="#111111"/>
<path d="M27.768 12.4394C27.7605 14.1245 28.4732 15.4938 29.3598 15.4978C30.2464 15.5017 30.9712 14.1388 30.9786 12.4536C30.9861 10.7684 30.2735 9.39915 29.3869 9.39522C28.5003 9.39128 27.7755 10.7542 27.768 12.4394Z" fill="white"/>
<path fill-rule="evenodd" clip-rule="evenodd" d="M27.5081 14.9751C27.8481 15.6284 28.4578 16.3017 29.3473 16.3057C30.2368 16.3096 30.8525 15.6417 31.1983 14.9915C31.5638 14.3042 31.7678 13.4088 31.772 12.4629C31.7762 11.5169 31.5801 10.6198 31.2207 9.92927C30.8807 9.27596 30.271 8.60263 29.3815 8.59869C28.492 8.59474 27.8764 9.26262 27.5306 9.91289C27.1651 10.6002 26.9611 11.4955 26.9569 12.4415C26.9527 13.3875 27.1487 14.2846 27.5081 14.9751ZM29.3509 15.5035C28.4643 15.4995 27.7516 14.1302 27.7591 12.445C27.7666 10.7599 28.4914 9.39696 29.378 9.4009C30.2646 9.40483 30.9772 10.7741 30.9697 12.4593C30.9623 14.1445 30.2375 15.5074 29.3509 15.5035Z" fill="#111111"/>
<path d="M23.1039 12.7206C23.0964 14.4058 23.8091 15.7751 24.6957 15.779C25.5823 15.783 26.3071 14.42 26.3146 12.7349C26.3221 11.0497 25.6094 9.6804 24.7228 9.67647C23.8362 9.67253 23.1114 11.0354 23.1039 12.7206Z" fill="white"/>
<path fill-rule="evenodd" clip-rule="evenodd" d="M22.8518 15.2602C23.1919 15.9135 23.8016 16.5869 24.6911 16.5908C25.5805 16.5948 26.1962 15.9269 26.542 15.2766C26.9075 14.5893 27.1115 13.694 27.1157 12.748C27.1199 11.802 26.9239 10.9049 26.5645 10.2144C26.2245 9.56112 25.6147 8.88779 24.7253 8.88384C23.8358 8.87989 23.2201 9.54778 22.8743 10.198C22.5088 10.8853 22.3048 11.7807 22.3006 12.7266C22.2964 13.6726 22.4924 14.5697 22.8518 15.2602ZM24.6946 15.7886C23.808 15.7847 23.0953 14.4154 23.1028 12.7302C23.1103 11.045 23.8351 9.68212 24.7217 9.68605C25.6083 9.68999 26.321 11.0593 26.3135 12.7445C26.306 14.4296 25.5812 15.7925 24.6946 15.7886Z" fill="#111111"/>
<path d="M23.4377 14.191C23.4822 15.4112 24.1485 16.3774 24.9258 16.349C25.7031 16.3206 26.2971 15.3084 26.2526 14.0882C26.208 12.8681 25.5417 11.9019 24.7644 11.9303C23.9871 11.9587 23.3931 12.9709 23.4377 14.191Z" fill="#111111"/>
<path d="M28.1058 13.7277C27.9991 14.824 28.5313 15.7728 29.2944 15.8471C30.0575 15.9214 30.7627 15.0929 30.8693 13.9966C30.976 12.9004 30.4439 11.9515 29.6807 11.8773C28.9176 11.803 28.2124 12.6315 28.1058 13.7277Z" fill="#111111"/>
<path d="M59.9223 102.466C59.4193 101.427 59.7649 86.0886 60.0958 79.8873L58.6847 72.184L65.3773 74.1627C65.3874 80.2833 65.499 93.9522 65.8643 99.6631C66.2296 105.374 65.9834 106.845 65.8146 106.867C64.0864 109.295 55.3706 107.622 53.6415 107.334C51.7557 107.02 44.6536 106.022 46.8858 102.78C48.6154 100.267 60.551 103.764 59.9223 102.466Z" fill="#FFEB34"/>
<path fill-rule="evenodd" clip-rule="evenodd" d="M58.1797 71.6103L65.7851 73.8588L65.7856 74.158C65.7957 80.2823 65.9074 93.9376 66.2718 99.6334C66.4548 102.495 66.4854 104.305 66.4478 105.408C66.429 105.958 66.393 106.344 66.347 106.602C66.3244 106.728 66.2963 106.842 66.2579 106.935C66.239 106.98 66.2099 107.04 66.164 107.096C66.1492 107.114 66.1284 107.137 66.1011 107.16C65.5591 107.862 64.5744 108.218 63.4994 108.397C62.3697 108.584 61.0304 108.592 59.7124 108.516C57.3801 108.381 55.0487 107.978 53.9489 107.788C53.8048 107.764 53.6818 107.742 53.5828 107.726C53.5039 107.713 53.4151 107.698 53.3175 107.682C52.2693 107.512 50.2076 107.177 48.5774 106.523C47.6955 106.17 46.8629 105.695 46.4112 105.038C46.1778 104.699 46.044 104.308 46.0644 103.871C46.0845 103.439 46.2535 102.997 46.5626 102.548C46.8523 102.127 47.3277 101.87 47.8601 101.71C48.3973 101.549 49.0413 101.472 49.7344 101.448C51.1215 101.401 52.7834 101.566 54.3463 101.765C54.9928 101.848 55.6185 101.935 56.2044 102.017C57.0531 102.136 57.818 102.243 58.441 102.306C58.905 102.352 59.2539 102.37 59.481 102.355C59.468 102.292 59.4573 102.227 59.448 102.163C59.421 101.979 59.3982 101.747 59.3789 101.476C59.3401 100.935 59.3135 100.219 59.2968 99.3758C59.2635 97.6883 59.27 95.4748 59.3025 93.1031C59.3671 88.3838 59.5349 83.0237 59.7 79.9091L58.1797 71.6103ZM59.204 72.7497L60.5061 79.8575L60.5035 79.9047C60.3384 82.9985 60.1694 88.3781 60.1046 93.1141C60.0722 95.4822 60.0659 97.6856 60.0989 99.36C60.1154 100.198 60.1417 100.898 60.179 101.419C60.1977 101.68 60.2188 101.89 60.2418 102.047C60.2533 102.126 60.2646 102.186 60.2752 102.231C60.2849 102.272 60.2913 102.288 60.2912 102.288C60.2912 102.288 60.2909 102.288 60.2905 102.287C60.3319 102.372 60.3677 102.489 60.3499 102.623C60.3309 102.765 60.2576 102.877 60.1687 102.954C60.0182 103.085 59.8147 103.125 59.6702 103.143C59.3507 103.183 58.888 103.157 58.361 103.104C57.7269 103.041 56.9312 102.929 56.0654 102.808C55.4811 102.726 54.8649 102.64 54.2449 102.561C52.6863 102.362 51.0793 102.205 49.7616 102.25C49.1024 102.272 48.5351 102.345 48.0909 102.478C47.642 102.613 47.3661 102.796 47.2234 103.003C46.9745 103.365 46.8771 103.664 46.8657 103.908C46.8546 104.147 46.9242 104.369 47.0721 104.584C47.3832 105.036 48.0255 105.438 48.8758 105.779C50.4172 106.396 52.3899 106.718 53.4481 106.891C53.5449 106.907 53.6341 106.921 53.7146 106.934C53.8168 106.952 53.9424 106.973 54.0887 106.998C55.1934 107.189 57.4765 107.583 59.7587 107.715C61.0519 107.789 62.3236 107.778 63.3682 107.605C64.4353 107.428 65.1614 107.099 65.495 106.63L65.5323 106.578C65.5393 106.551 65.548 106.513 65.5573 106.461C65.5935 106.258 65.6278 105.915 65.646 105.381C65.6824 104.315 65.6535 102.534 65.4712 99.6847C65.1108 94.0503 64.9971 80.7118 64.9839 74.4585L59.204 72.7497Z" fill="#111111"/>
<path d="M75.4157 101.665C75.8353 100.616 74.4246 86.5164 73.5544 80.3545L74.2915 72.487L67.6872 74.6651C68.2053 80.7574 69.2721 94.3657 69.3952 100.061C69.5183 105.757 70.2955 106.23 70.2955 106.23C72.2546 108.593 79.2433 107.545 80.9744 107.23C83.0157 106.858 90.1496 106.12 87.884 102.775C85.6184 99.4302 74.8913 102.976 75.4157 101.665Z" fill="#FFEB34"/>
<path fill-rule="evenodd" clip-rule="evenodd" d="M74.7615 71.9089L67.2664 74.3808L67.2916 74.6774C67.81 80.7733 68.8755 94.3681 68.9982 100.049C69.0601 102.909 69.2862 104.485 69.5067 105.358C69.617 105.795 69.7292 106.069 69.8278 106.245C69.8776 106.334 69.9259 106.401 69.9717 106.452C69.9883 106.471 70.0046 106.487 70.0206 106.502C70.5995 107.181 71.5 107.58 72.4795 107.814C73.4826 108.054 74.6305 108.136 75.7512 108.133C77.9942 108.126 80.2007 107.781 81.0763 107.622C81.2661 107.587 81.507 107.548 81.7854 107.504C82.9478 107.318 84.7614 107.028 86.212 106.492C87.1055 106.161 87.9418 105.711 88.392 105.069C88.6241 104.737 88.7556 104.351 88.7328 103.914C88.7103 103.481 88.5384 103.032 88.2245 102.568C87.5476 101.569 86.2852 101.143 84.9412 100.981C83.5772 100.817 82.0028 100.91 80.5465 101.063C79.8157 101.139 79.1078 101.232 78.4652 101.317L78.3703 101.329C77.7632 101.41 77.2215 101.481 76.7694 101.526C76.3659 101.566 76.0643 101.581 75.8636 101.569C75.8729 101.505 75.8794 101.438 75.8844 101.372C75.898 101.196 75.904 100.977 75.904 100.723C75.9038 100.214 75.8793 99.5453 75.8357 98.7597C75.7485 97.1871 75.5838 95.1284 75.3791 92.9132C74.9718 88.505 74.4045 83.4611 73.969 80.3676L74.7615 71.9089ZM73.8366 73.0666L73.1548 80.3429L73.1613 80.3887C73.5952 83.4613 74.1648 88.5198 74.5734 92.942C74.7777 95.1531 74.9414 97.2009 75.0279 98.7596C75.0711 99.5396 75.0948 100.192 75.0949 100.68C75.095 100.924 75.0891 101.121 75.0777 101.269C75.072 101.344 75.0652 101.401 75.058 101.444C75.0518 101.482 75.0467 101.499 75.0457 101.502C75.0454 101.503 75.0454 101.503 75.0457 101.502C75.0128 101.585 74.9877 101.692 75.0067 101.814C75.0271 101.944 75.0926 102.055 75.1822 102.139C75.3363 102.282 75.5413 102.326 75.6794 102.346C75.9828 102.389 76.4137 102.365 76.8937 102.317C77.3595 102.271 77.9134 102.198 78.5143 102.119L78.6157 102.105C79.2586 102.02 79.9568 101.929 80.6757 101.854C82.1188 101.702 83.6182 101.618 84.8863 101.77C86.1745 101.926 87.1026 102.31 87.5585 102.984C87.8111 103.357 87.9118 103.662 87.9248 103.911C87.9376 104.156 87.8675 104.38 87.7176 104.594C87.4035 105.042 86.7536 105.426 85.8916 105.745C84.5233 106.251 82.8238 106.524 81.6554 106.711C81.3611 106.759 81.1005 106.8 80.8874 106.839C80.032 106.995 77.8786 107.331 75.7047 107.337C74.6169 107.34 73.5421 107.26 72.6298 107.042C71.7084 106.822 71.0128 106.475 70.611 105.99L70.5645 105.934L70.5533 105.927C70.5475 105.918 70.5402 105.906 70.5315 105.891C70.4804 105.8 70.3907 105.6 70.2913 105.207C70.0924 104.419 69.8684 102.91 69.8071 100.075C69.6857 94.4557 68.6494 81.1748 68.123 74.9509L73.8366 73.0666Z" fill="#111111"/>
<path d="M78.0078 53.4336C81.8115 53.8116 89.3519 56.1234 89.3186 59.728C89.298 61.9672 88.6396 62.8479 88.3427 63.0092C89.2687 62.5209 91.1956 61.866 91.5558 63.1251C92.0072 64.7031 90.9566 66.3316 88.8905 65.7265C88.7605 65.1078 88.4169 63.8126 87.9573 62.8759C87.8499 62.751 87.753 62.5681 87.6763 62.3771C86.0185 59.7181 81.7639 54.2069 78.0078 53.4336Z" fill="#FDFBEF"/>
<path fill-rule="evenodd" clip-rule="evenodd" d="M77.6004 53.3734C77.6325 53.1624 77.8242 53.0135 78.0366 53.0346C79.9787 53.2276 82.858 53.9105 85.2578 55.0061C86.4574 55.5537 87.5601 56.2148 88.3668 56.9874C89.1735 57.76 89.7186 58.6795 89.7088 59.7319C89.6989 60.8072 89.5466 61.6004 89.3437 62.169C89.5953 62.096 89.8553 62.0397 90.1087 62.0131C90.4651 61.9757 90.8475 61.9928 91.1825 62.1401C91.5368 62.2958 91.8074 62.5846 91.9305 63.0149C92.1871 63.9116 92.0273 64.8609 91.4577 65.5093C90.8718 66.1762 89.9208 66.4495 88.7669 66.1115C88.625 66.0699 88.5175 65.9537 88.4871 65.809C88.3618 65.2126 88.0347 63.9839 87.6063 63.0939C87.4826 62.9371 87.3827 62.7432 87.307 62.5605C86.4869 61.2499 85.0344 59.2469 83.3292 57.4766C81.5963 55.6775 79.6663 54.1869 77.916 53.8266C77.707 53.7835 77.5683 53.5843 77.6004 53.3734ZM88.5207 63.3632C88.5409 63.3526 88.5616 63.3419 88.5828 63.3311C88.8724 64.0672 89.0934 64.8675 89.2176 65.3988C89.1447 65.3833 89.0696 65.3643 88.9924 65.3416L88.8796 65.7266L89.2722 65.6441C89.2569 65.5712 89.2386 65.4889 89.2176 65.3988C90.0055 65.5673 90.5409 65.3374 90.855 64.9799C91.2143 64.5708 91.3542 63.9169 91.1593 63.2355C91.1023 63.0363 90.997 62.9348 90.8597 62.8745C90.7032 62.8057 90.4784 62.7809 90.1924 62.8109C89.6474 62.8681 89.0208 63.1081 88.5828 63.3311C88.5822 63.3298 88.5817 63.3285 88.5812 63.3272M88.2379 62.5635C88.2524 62.5465 88.2679 62.527 88.2843 62.5049C88.364 62.3971 88.4587 62.2339 88.55 62.0013C88.7326 61.5363 88.8967 60.8067 88.9067 59.7245C88.9136 58.9745 88.5286 58.2532 87.8119 57.5668C87.0953 56.8803 86.0814 56.2639 84.9246 55.7358C83.6782 55.1668 82.2925 54.7122 80.9883 54.3849C82.0121 55.0873 83.0033 55.9819 83.9069 56.92C85.668 58.7484 87.1615 60.8115 88.0031 62.1605C88.0854 62.2855 88.1637 62.4213 88.2379 62.5635Z" fill="#111111"/>
<path d="M67.2289 18.0758C62.1135 19.3209 60.3147 32.2903 60.0548 38.6194C59.9333 40.6426 58.3393 40.954 51.1652 45.7786C45.4259 49.6383 48.2539 54.4422 50.3854 56.3617C46.2785 57.3992 38.3766 60.9062 39.6242 66.6335C40.8719 72.3608 46.6943 73.3776 49.4496 73.1701C49.2417 73.4813 49.6991 75.1933 53.1926 79.551C56.6861 83.9088 62.7581 81.3668 65.3574 79.551C77.2103 90.6321 80.5894 82.9231 80.7973 77.6834C83.3446 78.7729 88.7824 79.053 90.1548 71.4581C91.5273 63.8632 82.9287 55.3241 78.4579 52.0039C90.4668 55.1166 81.889 42.6659 77.5222 37.8412C73.1553 33.0166 73.6232 16.5195 67.2289 18.0758Z" fill="#00BC68"/>
<path fill-rule="evenodd" clip-rule="evenodd" d="M69.1718 18.636C68.6564 18.3718 68.0638 18.2907 67.3506 18.4643C66.225 18.7382 65.2271 19.6733 64.3574 21.1258C63.4923 22.5705 62.7915 24.4662 62.2353 26.5436C61.1236 30.6956 60.6116 35.4891 60.4824 38.6346L60.482 38.6422C60.448 39.2092 60.3065 39.6842 59.9763 40.1454C59.6577 40.5904 59.1779 41.001 58.5143 41.4739C57.8913 41.9178 57.0749 42.4379 56.026 43.106C55.9538 43.152 55.8805 43.1987 55.806 43.2461C54.6466 43.9849 53.2052 44.9068 51.4158 46.1102C50.0254 47.0452 49.1796 48.02 48.7083 48.9679C48.2384 49.9132 48.1298 50.8539 48.2482 51.7435C48.4874 53.5405 49.6574 55.1408 50.6806 56.0624C50.7907 56.1614 50.8371 56.3131 50.8015 56.4569C50.7659 56.6006 50.654 56.713 50.5104 56.7493C48.4893 57.2599 45.54 58.3785 43.2619 60.0603C40.9765 61.7476 39.4697 63.9153 40.043 66.5468C40.636 69.2689 42.3069 70.8642 44.1728 71.7648C46.0531 72.6725 48.1244 72.8684 49.4463 72.7688C49.5993 72.7573 49.7455 72.8341 49.8228 72.9666C49.8915 73.0842 49.8953 73.2275 49.8356 73.3475C49.8355 73.3501 49.8354 73.353 49.8354 73.3563C49.8351 73.397 49.8424 73.4712 49.8714 73.5869C49.9292 73.8178 50.0613 74.1664 50.3159 74.6571C50.8241 75.6362 51.7942 77.1306 53.5324 79.2989C55.1642 81.3344 57.3944 81.7725 59.5818 81.4676C61.7824 81.1608 63.8913 80.1033 65.1545 79.221C65.3098 79.1125 65.5198 79.1274 65.6581 79.2568C68.6021 82.0091 70.9916 83.5668 72.9102 84.2946C74.8205 85.0193 76.2385 84.9134 77.2891 84.3788C78.3504 83.8387 79.1103 82.824 79.62 81.5897C80.1289 80.3572 80.3727 78.9417 80.4233 77.6663C80.4286 77.5344 80.4983 77.4136 80.6099 77.3431C80.7214 77.2726 80.8605 77.2615 80.9819 77.3134C82.1902 77.8301 84.0719 78.1459 85.7939 77.454C87.4848 76.7745 89.1188 75.083 89.7869 71.3855C90.4433 67.7534 88.718 63.8356 86.1997 60.3622C83.6914 56.9025 80.4553 53.9657 78.2456 52.3247C78.0915 52.2103 78.0401 52.0027 78.1229 51.8296C78.2057 51.6564 78.3996 51.5662 78.5854 51.6144C80.0653 51.998 81.1999 52.1339 82.0485 52.0852C82.8968 52.0366 83.4222 51.8064 83.7372 51.4958C84.0484 51.189 84.2101 50.7486 84.2163 50.1573C84.2226 49.5608 84.0691 48.8414 83.7801 48.0328C82.618 44.7822 79.4254 40.5109 77.2516 38.1091C76.0949 36.8312 75.2851 34.8183 74.6139 32.6142C74.1957 31.2407 73.8203 29.7513 73.4501 28.2824C73.2261 27.3938 73.004 26.5127 72.7755 25.6693C72.1608 23.4006 71.4967 21.3917 70.6125 20.0484C70.1734 19.3812 69.697 18.9053 69.1718 18.636ZM49.837 73.332C49.837 73.3321 49.8369 73.333 49.8365 73.3348C49.8367 73.3329 49.8369 73.332 49.837 73.332ZM75.3813 32.3805C76.0504 34.5779 76.8197 36.4365 77.8464 37.5708C80.0394 39.9937 83.3191 44.3601 84.5355 47.7628C84.841 48.6176 85.0262 49.4375 85.0185 50.1657C85.0107 50.8992 84.8057 51.5689 84.3005 52.067C83.7992 52.5612 83.0586 52.8308 82.0945 52.8861C81.5208 52.919 80.8548 52.8771 80.0886 52.7546C82.1922 54.4974 84.763 57.0139 86.8492 59.8913C89.4047 63.4162 91.2925 67.5654 90.5764 71.5282C89.8721 75.4256 88.1009 77.3915 86.093 78.1983C84.3586 78.8953 82.521 78.6966 81.192 78.2506C81.0969 79.4476 80.8403 80.7363 80.3615 81.8959C79.8087 83.2343 78.944 84.4368 77.6529 85.0938C76.3512 85.7562 74.689 85.8274 72.6256 85.0447C70.6247 84.2856 68.2231 82.7166 65.3451 80.0609C63.9907 80.953 61.8993 81.9545 59.6925 82.2621C57.3207 82.5927 54.7681 82.1229 52.9065 79.8007C51.1513 77.6112 50.1458 76.0708 49.6039 75.0266C49.3335 74.5057 49.1718 74.0957 49.0932 73.7818C49.0767 73.7161 49.0634 73.6525 49.0535 73.5912C47.6311 73.6272 45.6522 73.3698 43.824 72.4873C41.7779 71.4996 39.9138 69.7228 39.2591 66.7176C38.5847 63.6218 40.405 61.1724 42.7854 59.415C44.9245 57.8357 47.5993 56.7453 49.6329 56.1565C48.6641 55.1226 47.6847 53.59 47.453 51.8494C47.3154 50.8156 47.4426 49.7117 47.99 48.6108C48.5361 47.5124 49.4889 46.4393 50.9682 45.4445C52.7659 44.2355 54.214 43.3093 55.3749 42.5696C55.446 42.5243 55.5159 42.4798 55.5847 42.4359C56.6444 41.7609 57.4435 41.2518 58.0488 40.8205C58.6956 40.3596 59.0855 40.0115 59.3241 39.6783C59.5505 39.3621 59.654 39.0404 59.681 38.5978C59.812 35.4141 60.3293 30.5606 61.4604 26.3361C62.0258 24.2243 62.75 22.2486 63.6691 20.7137C64.5835 19.1864 65.7288 18.0334 67.1609 17.6848C68.0462 17.4693 68.8378 17.5633 69.5378 17.9222C70.228 18.2761 70.7982 18.8714 71.2826 19.6073C72.2456 21.0703 72.9364 23.1954 73.5498 25.4595C73.7867 26.3338 74.0118 27.2275 74.2367 28.1204C74.6022 29.5714 74.9672 31.0204 75.3813 32.3805Z" fill="#111111"/>
<path d="M60.9356 42.5957C61.0794 45.1745 62.8287 47.174 64.8427 47.0617C66.8568 46.9494 68.3729 44.7678 68.2291 42.189C68.0853 39.6101 66.336 37.6106 64.322 37.7229C62.3079 37.8352 60.7918 40.0168 60.9356 42.5957Z" fill="white"/>
<path fill-rule="evenodd" clip-rule="evenodd" d="M64.7981 46.2608C63.3994 46.3388 61.8666 44.8831 61.7366 42.551C61.6065 40.2189 62.968 38.6018 64.3666 38.5239C65.7653 38.4459 67.2981 39.9015 67.4281 42.2336C67.5582 44.5657 66.1967 46.1828 64.7981 46.2608ZM64.8427 47.0617C62.8287 47.174 61.0794 45.1745 60.9356 42.5957C60.7918 40.0168 62.3079 37.8352 64.322 37.7229C66.336 37.6106 68.0853 39.6101 68.2291 42.189C68.3729 44.7678 66.8568 46.9494 64.8427 47.0617Z" fill="#111111"/>
<path d="M61.9335 43.7878C62.0198 45.5938 63.3446 46.9978 64.8925 46.9238C66.4405 46.8499 67.6254 45.3259 67.5391 43.5199C67.4528 41.714 66.128 40.31 64.58 40.3839C63.0321 40.4579 61.8472 41.9819 61.9335 43.7878Z" fill="#111111"/>
<path d="M67.5726 42.2039C67.552 44.7867 69.0708 46.8927 70.9648 46.9078C72.8588 46.9229 74.4109 44.8413 74.4315 42.2586C74.4521 39.6758 72.9333 37.5698 71.0393 37.5547C69.1453 37.5396 67.5932 39.6212 67.5726 42.2039Z" fill="white"/>
<path fill-rule="evenodd" clip-rule="evenodd" d="M69.2014 45.0495C68.6973 44.3506 68.3657 43.3491 68.3748 42.2103C68.3838 41.0716 68.7314 40.0755 69.2465 39.3847C69.762 38.6934 70.4028 38.3519 71.0329 38.3569C71.663 38.3619 72.2983 38.7136 72.8027 39.413C73.3067 40.1119 73.6384 41.1134 73.6293 42.2522C73.6202 43.3909 73.2727 44.387 72.7576 45.0778C72.2421 45.7691 71.6013 46.1106 70.9712 46.1056C70.3411 46.1006 69.7058 45.7489 69.2014 45.0495ZM70.9648 46.9078C69.0708 46.8927 67.552 44.7867 67.5726 42.2039C67.5932 39.6212 69.1453 37.5396 71.0393 37.5547C72.9333 37.5698 74.4521 39.6758 74.4315 42.2586C74.4109 44.8413 72.8588 46.9229 70.9648 46.9078Z" fill="#111111"/>
<path d="M68.2588 42.9538C68.0284 44.7471 69.0878 46.3609 70.6248 46.5583C72.1619 46.7558 73.5947 45.4621 73.8251 43.6689C74.0554 41.8756 72.9961 40.2618 71.459 40.0644C69.922 39.8669 68.4892 41.1606 68.2588 42.9538Z" fill="#111111"/>
<path fill-rule="evenodd" clip-rule="evenodd" d="M71.498 49.4699C71.8296 49.4907 72.0817 49.7763 72.0609 50.108C72.0236 50.7056 71.8331 51.1989 71.5196 51.5849C71.2098 51.9665 70.8088 52.2077 70.4031 52.355C69.6091 52.6432 68.7211 52.6005 68.1478 52.4859C67.822 52.4207 67.6107 52.1038 67.6759 51.7779C67.741 51.4521 68.058 51.2408 68.3838 51.3059C68.8248 51.3941 69.4732 51.4123 69.9925 51.2239C70.2435 51.1328 70.4434 51.0014 70.5855 50.8264C70.724 50.6559 70.8364 50.4089 70.8599 50.0329C70.8807 49.7013 71.1663 49.4492 71.498 49.4699Z" fill="#111111"/>
<path fill-rule="evenodd" clip-rule="evenodd" d="M29.9148 27.7105C30.1926 27.8929 30.2698 28.266 30.0874 28.5437C29.7587 29.0442 29.3486 29.3782 28.885 29.558C28.4268 29.7357 27.959 29.7464 27.5336 29.6731C26.7012 29.5297 25.9511 29.0524 25.5102 28.6687C25.2595 28.4505 25.2331 28.0705 25.4513 27.8198C25.6694 27.5692 26.0495 27.5428 26.3001 27.7609C26.6393 28.0561 27.1934 28.3935 27.7379 28.4873C28.0009 28.5326 28.2397 28.5176 28.4499 28.4361C28.6547 28.3566 28.8748 28.1979 29.0816 27.8831C29.2641 27.6053 29.6371 27.5281 29.9148 27.7105Z" fill="#111111"/>
<path d="M4.80353 54.4061C3.93647 47.0155 8.898 43.4514 11.4871 42.5932C12.2097 42.3408 13.8356 42.0783 14.5581 43.0476L14.5729 43.0673C15.4652 44.2641 15.8088 44.7251 13.2937 46.8337C11.4871 48.6511 10.6202 51.5892 10.7647 54.8604C10.9092 58.1316 13.956 61.1707 15.4613 62.2813L12.5711 65.3102C10.3432 64.7549 5.6706 61.7967 4.80353 54.4061Z" fill="#FDFBEF"/>
<path fill-rule="evenodd" clip-rule="evenodd" d="M13.0171 42.7618C12.4909 42.7403 11.9547 42.8573 11.6302 42.9707L11.6272 42.9717L11.6241 42.9727C9.15988 43.7895 4.374 47.2093 5.2127 54.3581C6.03056 61.3293 10.2994 64.2044 12.4574 64.8584L14.875 62.3248C14.1205 61.7144 13.1422 60.7681 12.2911 59.6185C11.3005 58.2803 10.4521 56.6257 10.3748 54.8769C10.2273 51.5369 11.1083 48.4728 13.02 46.5497L13.0328 46.5368L13.0468 46.5251C13.6695 46.003 14.1001 45.5953 14.3865 45.2615C14.6748 44.9255 14.7922 44.6923 14.8302 44.5207C14.8644 44.366 14.8427 44.2232 14.7529 44.0378C14.6547 43.835 14.4925 43.6149 14.2621 43.3058L14.2473 43.2861C13.9899 42.9407 13.5485 42.7835 13.0171 42.7618ZM14.8905 42.8066C14.4254 42.1827 13.6926 41.9865 13.0498 41.9603C12.4035 41.9339 11.767 42.0736 11.3687 42.2123C8.65392 43.1136 3.52084 46.822 4.41594 54.4516C5.30318 62.0141 10.1012 65.1041 12.4849 65.6982L12.7111 65.7546L16.0766 62.2276L15.7103 61.9573C14.9868 61.4235 13.878 60.4138 12.9359 59.1412C11.9907 57.8644 11.2435 56.3639 11.1762 54.8415C11.0351 51.6469 11.8833 48.8407 13.5764 47.128C14.204 46.6011 14.669 46.1642 14.9953 45.7839C15.3221 45.403 15.5345 45.0508 15.6135 44.694C15.6962 44.3203 15.6219 43.9916 15.4749 43.6881C15.3397 43.409 15.1313 43.1296 14.9209 42.8474L14.9052 42.8263L14.8905 42.8066Z" fill="#111111"/>
<path fill-rule="evenodd" clip-rule="evenodd" d="M17.1595 60.341C17.3264 60.4865 17.3438 60.7399 17.1982 60.9069L11.1019 67.8997C10.9563 68.0667 10.703 68.0841 10.536 67.9385C10.369 67.7929 10.3516 67.5395 10.4972 67.3726L16.5935 60.3797C16.7391 60.2127 16.9925 60.1954 17.1595 60.341Z" fill="#111111"/>
</svg>
