<svg width="101" height="137" viewBox="0 0 101 137" fill="none" xmlns="http://www.w3.org/2000/svg">
<path d="M83.7734 70.2188C89.0466 71.8552 99.0473 77.3102 97.9563 82.4015C97.2786 85.564 96.092 86.6197 95.6251 86.762C97.0768 86.3391 99.9932 85.9704 100.138 87.8564C100.32 90.2202 98.3617 92.2204 95.6134 90.7657C95.6086 89.8526 95.4975 87.9203 95.1183 86.4617C95.0025 86.2538 94.9184 85.967 94.8652 85.6744C93.2893 81.4317 88.8647 72.4007 83.7734 70.2188Z" fill="#FDFBEF"/>
<path fill-rule="evenodd" clip-rule="evenodd" d="M83.3842 70.079C83.4579 69.8787 83.6756 69.7713 83.8795 69.8345C86.5546 70.6647 90.4134 72.4565 93.4749 74.6893C95.0054 75.8056 96.3571 77.0467 97.2591 78.3509C98.161 79.655 98.6401 81.0637 98.3356 82.4844C97.989 84.1021 97.5072 85.2049 97.0352 85.9316C97.0019 85.9829 96.9685 86.0325 96.9351 86.0804C97.4173 86.0199 97.9241 85.9968 98.3978 86.043C98.8973 86.0918 99.3988 86.2214 99.7949 86.5018C100.208 86.7943 100.48 87.2332 100.525 87.8245C100.625 89.1181 100.141 90.3518 99.2039 91.0616C98.247 91.7863 96.8984 91.9053 95.4129 91.1191C95.2822 91.0499 95.2002 90.9145 95.1994 90.7667C95.1948 89.8765 95.0865 88.0136 94.729 86.6072C94.6026 86.3626 94.518 86.0636 94.4643 85.7807C93.6811 83.6795 92.1982 80.4052 90.2859 77.3874C88.3521 74.3356 86.0283 71.6259 83.6026 70.5863C83.4064 70.5022 83.3104 70.2792 83.3842 70.079ZM95.6699 87.1603C95.8953 88.3725 95.9806 89.7013 95.9982 90.5148C97.1626 91.0601 98.093 90.8966 98.7196 90.4221C99.4031 89.9045 99.8078 88.9563 99.7255 87.886C99.6984 87.5343 99.5512 87.3121 99.3314 87.1565C99.0945 86.9888 98.749 86.8834 98.3198 86.8415C97.4629 86.7578 96.4278 86.9414 95.7275 87.1451C95.7245 87.146 95.7214 87.1469 95.7184 87.1478M95.6699 87.1603C95.6826 87.1574 95.6955 87.1542 95.7084 87.1506L95.6699 87.1603ZM95.5252 86.3658C95.6544 86.3092 95.9785 86.0858 96.3624 85.4947C96.7698 84.8674 97.2202 83.861 97.5512 82.3163C97.7923 81.1913 97.4304 80.0089 96.5993 78.8072C95.7682 77.6055 94.4947 76.426 93.0022 75.3375C91.1036 73.9528 88.8837 72.7391 86.8509 71.8317C88.3683 73.2242 89.7595 75.0579 90.9635 76.958C92.919 80.044 94.43 83.3856 95.2265 85.5287C95.3225 85.7683 95.4061 86.0305 95.4792 86.3045C95.4923 86.3251 95.5045 86.3417 95.5154 86.3547C95.5189 86.3589 95.5222 86.3626 95.5252 86.3658Z" fill="#111111"/>
<path d="M43.0316 124.96L53.5778 96.7757C58.96 93.5754 61.6996 97.1398 63.5785 100.049C61.2147 106.11 55.9052 119.65 53.5778 125.324C50.6685 132.415 49.032 132.961 42.3042 132.961C28.8486 133.506 30.1215 130.051 34.6673 128.051C38.3039 126.451 42.5467 125.808 43.0316 124.96Z" fill="#FFEB34"/>
<path d="M72.8519 131.688C72.8519 127.506 72.3064 109.868 72.3064 101.322C74.246 98.7761 80.868 94.696 81.398 101.322C81.7617 105.868 76.4153 124.513 86.4893 128.233C98.3083 132.597 89.7126 134.786 84.8528 135.506C79.9434 136.233 72.8519 137.239 72.8519 131.688Z" fill="#FFEB34"/>
<path fill-rule="evenodd" clip-rule="evenodd" d="M60.0842 95.7628C61.778 96.6719 62.981 98.3754 63.9181 99.8264C63.988 99.9346 64.0017 100.07 63.9549 100.19C61.5914 106.25 56.2806 119.794 53.9515 125.471C52.4988 129.012 51.3233 131.037 49.5903 132.135C47.8635 133.23 45.6523 133.356 42.3149 133.357C38.9424 133.493 36.4713 133.38 34.733 133.096C33.8631 132.953 33.1646 132.766 32.6235 132.539C32.0862 132.314 31.6763 132.037 31.4187 131.698C31.1502 131.346 31.0643 130.946 31.148 130.541C31.2281 130.153 31.4565 129.79 31.7579 129.462C32.3601 128.807 33.3493 128.189 34.5084 127.679C36.2187 126.926 38.0582 126.384 39.5663 125.938C39.6864 125.903 39.8044 125.868 39.9201 125.834C40.7111 125.6 41.3839 125.394 41.888 125.197C42.1399 125.098 42.3362 125.007 42.4781 124.922C42.5973 124.85 42.6523 124.798 42.6746 124.771L53.2048 96.6301C53.2368 96.5446 53.297 96.4725 53.3755 96.4259C56.1625 94.7687 58.3441 94.8289 60.0842 95.7628ZM53.9063 97.0445C56.439 95.5763 58.2824 95.7063 59.7048 96.4697C61.1376 97.2387 62.2151 98.6843 63.1328 100.09C60.7332 106.241 55.511 119.556 53.2094 125.166C51.7528 128.717 50.6554 130.51 49.1609 131.458C47.6616 132.408 45.6928 132.554 42.3068 132.554C42.3014 132.554 42.296 132.555 42.2906 132.555C38.9396 132.691 36.5265 132.576 34.8625 132.304C34.0306 132.168 33.3981 131.994 32.9341 131.799C32.4663 131.603 32.1973 131.397 32.0571 131.213C31.9278 131.043 31.8973 130.879 31.9336 130.703C31.9735 130.51 32.1017 130.274 32.3486 130.005C32.8431 129.467 33.7176 128.903 34.8315 128.413C36.4926 127.682 38.285 127.153 39.8001 126.706C39.9178 126.671 40.0338 126.637 40.1479 126.603C40.9327 126.371 41.6389 126.156 42.1803 125.944C42.4512 125.838 42.6943 125.728 42.8914 125.609C43.0801 125.496 43.2706 125.349 43.3825 125.154C43.3932 125.135 43.4023 125.115 43.4099 125.095L53.9063 97.0445ZM80.2597 97.8352C81.1233 98.4415 81.6632 99.5687 81.8005 101.285C81.8491 101.891 81.8017 102.711 81.7099 103.664C81.6343 104.45 81.5262 105.346 81.4093 106.315C81.3836 106.528 81.3575 106.744 81.3312 106.964C81.0386 109.409 80.7218 112.262 80.706 115.084C80.6902 117.911 80.9769 120.673 81.8709 122.946C82.76 125.207 84.2424 126.97 86.6309 127.852C89.5889 128.944 91.348 129.925 92.1981 130.829C92.6304 131.289 92.8672 131.772 92.8504 132.271C92.8335 132.77 92.5659 133.188 92.2006 133.525C91.4857 134.187 90.2426 134.684 88.9342 135.06C87.6064 135.441 86.139 135.716 84.9143 135.898C82.4753 136.259 79.4122 136.705 76.9555 136.343C75.7226 136.161 74.5936 135.77 73.7693 135.02C72.9313 134.257 72.4535 133.164 72.4535 131.683C72.4535 129.966 72.3612 125.972 72.2525 121.264C72.2291 120.252 72.205 119.207 72.1808 118.145C72.0445 112.146 71.908 105.595 71.908 101.317C71.908 101.229 71.9368 101.144 71.99 101.074C72.5052 100.398 73.3151 99.6381 74.242 98.9834C75.1686 98.3289 76.239 97.7602 77.2826 97.4892C78.3219 97.2194 79.3984 97.2305 80.2597 97.8352ZM72.7103 101.455C73.1698 100.882 73.8789 100.222 74.7048 99.6387C75.5818 99.0192 76.5637 98.5047 77.4843 98.2657C78.4092 98.0255 79.2088 98.0776 79.7988 98.4918C80.3866 98.9045 80.8731 99.7518 81.0009 101.349C81.0432 101.878 81.003 102.636 80.9114 103.587C80.8368 104.362 80.7301 105.246 80.6133 106.215C80.5875 106.429 80.5612 106.647 80.5347 106.869C80.242 109.314 79.9199 112.207 79.9038 115.08C79.8878 117.948 80.1761 120.829 81.1243 123.24C82.0775 125.663 83.7045 127.626 86.353 128.604C89.3045 129.694 90.9031 130.623 91.6136 131.379C91.9616 131.749 92.0557 132.034 92.0486 132.243C92.0415 132.452 91.9302 132.683 91.6559 132.936C91.0918 133.458 90.0134 133.915 88.7127 134.289C87.4314 134.657 86.0019 134.926 84.7967 135.104C82.3262 135.47 79.3889 135.891 77.0725 135.549C75.9189 135.379 74.9682 135.026 74.3094 134.427C73.6644 133.84 73.2557 132.976 73.2557 131.683C73.2557 129.956 73.1631 125.948 73.0544 121.24C73.031 120.23 73.0069 119.187 72.9829 118.127C72.8479 112.19 72.7131 105.725 72.7103 101.455Z" fill="#111111"/>
<path d="M69.5569 28.8822C63.5928 30.3369 61.4957 45.4895 61.1926 52.884C61.0509 55.2477 59.1925 55.6115 50.8282 61.2483C44.1368 65.7577 47.434 71.3703 49.9191 73.6129C45.1308 74.8251 35.918 78.9223 37.3727 85.6137C38.8273 92.3051 45.6157 93.4931 48.8281 93.2507C48.5856 93.6143 49.119 95.6145 53.192 100.706C57.265 105.797 64.3444 102.827 67.3749 100.706C81.1941 113.652 85.1338 104.645 85.3762 98.5238C88.3461 99.7966 94.686 100.124 96.2861 91.2505C97.8862 82.3771 87.8612 72.4006 82.6487 68.5216C96.6498 72.1582 86.649 57.6116 81.5577 51.9748C76.4665 46.3381 77.012 27.0639 69.5569 28.8822Z" fill="#00BC68"/>
<path fill-rule="evenodd" clip-rule="evenodd" d="M71.8164 29.4807C71.2003 29.1641 70.4931 29.0683 69.6475 29.2746C68.3099 29.6008 67.1341 30.7113 66.1164 32.4147C65.1033 34.1103 64.2842 36.3319 63.6349 38.7619C62.3371 43.6191 61.7397 49.2248 61.5889 52.9031L61.5886 52.9106C61.5495 53.5627 61.3878 54.1047 61.0115 54.6313C60.6467 55.1418 60.0948 55.6164 59.3225 56.1678C58.5977 56.6854 57.6473 57.2921 56.4237 58.0732C56.3397 58.1268 56.2544 58.1812 56.1678 58.2365C54.816 59.0997 53.1348 60.1772 51.048 61.5836C49.4195 62.681 48.4244 63.8281 47.8687 64.9482C47.3142 66.0658 47.186 67.1788 47.3257 68.2305C47.6074 70.3514 48.9833 72.2347 50.1834 73.3177C50.2932 73.4169 50.3396 73.5684 50.3039 73.7121C50.2683 73.8557 50.1565 73.968 50.0131 74.0043C47.6513 74.6023 44.204 75.912 41.5389 77.8837C38.8668 79.8607 37.0832 82.4171 37.7602 85.5312C38.4568 88.7356 40.4213 90.6145 42.6115 91.6739C44.8162 92.7404 47.2431 92.9703 48.7934 92.8533C48.9464 92.8418 49.0925 92.9185 49.1699 93.0508C49.2409 93.1722 49.2427 93.321 49.1769 93.4433C49.1763 93.4497 49.1757 93.4591 49.1756 93.4719C49.1752 93.527 49.1849 93.6197 49.2196 93.7583C49.2888 94.0351 49.4452 94.4477 49.7435 95.0235C50.3388 96.1729 51.4728 97.9228 53.5008 100.458C55.4225 102.86 58.0492 103.374 60.6145 103.016C63.1931 102.656 65.6616 101.415 67.1404 100.38C67.2958 100.271 67.5062 100.286 67.6447 100.416C71.0803 103.634 73.8734 105.461 76.1215 106.315C78.3614 107.167 80.0346 107.046 81.2802 106.411C82.5366 105.77 83.4313 104.569 84.0292 103.118C84.6264 101.669 84.9117 100.007 84.971 98.5105C84.9762 98.3786 85.046 98.2577 85.1576 98.1872C85.2693 98.1168 85.4084 98.1057 85.5298 98.1577C86.9493 98.7661 89.162 99.1394 91.1905 98.3225C93.1881 97.5182 95.1048 95.519 95.8869 91.182C96.6572 86.9102 94.6319 82.3133 91.6927 78.2509C88.7635 74.2022 84.9854 70.7664 82.4048 68.846C82.2509 68.7314 82.1996 68.5239 82.2826 68.3508C82.3655 68.1778 82.5594 68.0877 82.7451 68.136C84.474 68.5851 85.8042 68.7455 86.803 68.6881C87.8014 68.6307 88.4317 68.3586 88.8145 67.9803C89.1936 67.6058 89.3858 67.0719 89.3932 66.3689C89.4007 65.6608 89.219 64.8117 88.8806 63.8631C87.5212 60.0524 83.7917 55.0541 81.2556 52.2463C79.9179 50.7653 78.9772 48.4267 78.1949 45.8522C77.7076 44.2486 77.2708 42.5119 76.8396 40.7973C76.5784 39.7587 76.3192 38.7282 76.0521 37.7402C75.3355 35.09 74.559 32.733 73.5215 31.1535C73.0056 30.3682 72.4423 29.8023 71.8164 29.4807ZM78.9624 45.6189C79.7427 48.1868 80.643 50.3712 81.851 51.7086C84.4062 54.5376 88.2226 59.631 89.6362 63.5936C89.9911 64.5884 90.2043 65.5377 90.1954 66.3773C90.1865 67.222 89.9511 67.9851 89.3784 68.551C88.8094 69.1131 87.9638 69.4249 86.8491 69.489C86.1252 69.5306 85.2722 69.469 84.2777 69.2945C86.7613 71.3321 89.8496 74.3349 92.3427 77.7807C95.3191 81.8947 97.5062 86.7227 96.6764 91.3243C95.8584 95.8607 93.805 98.1346 91.4902 99.0667C89.4508 99.8879 87.2851 99.6355 85.7409 99.0989C85.6361 100.516 85.3375 102.049 84.771 103.423C84.1302 104.978 83.1308 106.367 81.6446 107.125C80.1475 107.889 78.2296 107.975 75.8365 107.065C73.5058 106.179 70.7006 104.341 67.3316 101.22C65.76 102.266 63.3099 103.449 60.7254 103.81C57.9751 104.195 55.0257 103.648 52.8744 100.959C50.8294 98.4027 49.6601 96.6069 49.0311 95.3925C48.7172 94.7864 48.5312 94.3125 48.4413 93.9529C48.4171 93.8562 48.399 93.7643 48.3876 93.6777C46.7339 93.7282 44.4079 93.4341 42.2621 92.3961C39.8914 91.2493 37.7343 89.1886 36.9763 85.7016C36.1986 82.1243 38.2942 79.2864 41.0618 77.2388C43.5852 75.3719 46.7525 74.0904 49.1306 73.4115C47.9834 72.2107 46.8043 70.3975 46.5304 68.3361C46.3716 67.1406 46.5184 65.8648 47.15 64.5917C47.7804 63.3211 48.8824 62.0756 50.5996 60.9183C52.6949 59.5063 54.3827 58.4246 55.7361 57.5603C55.8192 57.5073 55.9009 57.4551 55.9814 57.4038C57.2161 56.6156 58.1492 56.0199 58.8563 55.515C59.6119 54.9754 60.074 54.5635 60.3588 54.1649C60.6316 53.7832 60.7554 53.3943 60.7876 52.8663C60.9401 49.15 61.5428 43.4844 62.8599 38.5548C63.5183 36.0904 64.3607 33.789 65.4277 32.0032C66.49 30.2254 67.8129 28.8963 69.4574 28.4952C70.4755 28.2469 71.3821 28.3556 72.183 28.7671C72.974 29.1735 73.631 29.8591 74.192 30.7131C75.308 32.4122 76.1112 34.8852 76.8265 37.5308C77.102 38.5497 77.3642 39.5928 77.6263 40.6356C78.0528 42.3325 78.4792 44.0287 78.9624 45.6189Z" fill="#111111"/>
<path d="M62.2417 57.6006C62.4095 60.6086 64.4499 62.9408 66.7991 62.8098C69.1483 62.6789 70.9167 60.1342 70.749 57.1262C70.5813 54.1182 68.5409 51.7859 66.1917 51.9169C63.8424 52.0479 62.074 54.5925 62.2417 57.6006Z" fill="white"/>
<path fill-rule="evenodd" clip-rule="evenodd" d="M66.7544 62.0089C65.0206 62.1056 63.1967 60.3172 63.0427 57.5559C62.8887 54.7946 64.5025 52.8145 66.2363 52.7179C67.9701 52.6212 69.7941 54.4096 69.948 57.1708C70.102 59.9321 68.4882 61.9122 66.7544 62.0089ZM66.7991 62.8098C64.4499 62.9408 62.4095 60.6086 62.2417 57.6006C62.074 54.5925 63.8424 52.0479 66.1917 51.9169C68.5409 51.7859 70.5813 54.1182 70.749 57.1262C70.9167 60.1342 69.1483 62.6789 66.7991 62.8098Z" fill="#111111"/>
<path d="M63.425 58.9938C63.5257 61.1002 65.071 62.7379 66.8766 62.6516C68.6821 62.5654 70.0642 60.7878 69.9635 58.6813C69.8629 56.5748 68.3176 54.9371 66.512 55.0234C64.7065 55.1097 63.3244 56.8873 63.425 58.9938Z" fill="#111111"/>
<path d="M69.9797 57.1332C69.9557 60.1458 71.7271 62.6023 73.9364 62.6199C76.1456 62.6375 77.956 60.2095 77.98 57.197C78.004 54.1844 76.2325 51.7279 74.0233 51.7103C71.814 51.6927 70.0037 54.1207 69.9797 57.1332Z" fill="white"/>
<path fill-rule="evenodd" clip-rule="evenodd" d="M71.7712 60.5304C71.165 59.6899 70.7711 58.4933 70.7818 57.1396C70.7926 55.786 71.2056 54.5958 71.8251 53.765C72.445 52.9337 73.2292 52.5062 74.0169 52.5125C74.8045 52.5188 75.5819 52.9587 76.1884 53.7998C76.7946 54.6403 77.1886 55.8369 77.1778 57.1906C77.167 58.5442 76.754 59.7344 76.1345 60.5652C75.5147 61.3965 74.7304 61.824 73.9428 61.8177C73.1551 61.8114 72.3778 61.3715 71.7712 60.5304ZM73.9364 62.6199C71.7271 62.6023 69.9557 60.1458 69.9797 57.1332C70.0037 54.1207 71.814 51.6927 74.0233 51.7103C76.2325 51.7279 78.004 54.1844 77.98 57.197C77.956 60.2095 76.1456 62.6375 73.9364 62.6199Z" fill="#111111"/>
<path d="M70.81 58.008C70.5413 60.0997 71.7769 61.982 73.5697 62.2124C75.3626 62.4427 77.0339 60.9337 77.3025 58.842C77.5712 56.7503 76.3356 54.868 74.5428 54.6377C72.7499 54.4074 71.0787 55.9163 70.81 58.008Z" fill="#111111"/>
<path d="M65.5385 66.405C67.708 65.3305 66.9774 66.6271 66.3408 67.4096C66.7096 69.2196 68.1324 73.1358 70.8731 74.3209C73.6139 75.5061 75.5611 70.334 75.1375 67.2371C74.7761 67.1966 73.6272 66.8759 73.9535 66.3727C74.1746 66.0316 75.1591 65.4099 76.2635 65.3505C77.3698 65.2911 76.3961 66.8901 75.8603 67.318C76.4815 68.8513 75.8683 72.0807 74.2597 74.6817C72.249 77.933 69.5866 76.0066 68.1626 74.0175C67.0234 72.4262 65.8306 69.2432 65.3766 67.8506C64.5266 67.8164 63.369 67.4794 65.5385 66.405Z" fill="#111111"/>
<path d="M40.4253 56.1192C40.2992 61.1591 48.1967 65.2017 51.7674 66.3567C53.5003 67.459 52.8702 69.8217 51.7674 72.8141C50.6647 75.8066 46.8839 75.6491 41.8429 72.3417C30.1856 63.0493 31.6035 58.1669 30.9733 54.387C30.3776 50.8138 29.2404 49.5049 27.8226 48.4024C26.4048 47.3 27.0349 42.4874 28.4527 39.9675C29.2207 38.6025 37.1309 40.1872 37.1309 40.1872C37.1309 40.1872 36.802 33.5976 38.6924 33.125C41.8429 33.125 40.5828 49.8193 40.4253 56.1192Z" fill="#FDFBEF"/>
<path fill-rule="evenodd" clip-rule="evenodd" d="M38.5978 32.7424C38.6296 32.7345 38.6622 32.7305 38.695 32.7305C39.2997 32.7305 39.7317 33.1401 40.0291 33.6629C40.3281 34.1883 40.5467 34.9155 40.7109 35.7622C41.0405 37.4628 41.1735 39.7763 41.2031 42.2614C41.2442 45.7138 41.0852 49.558 40.9582 52.6311C40.9024 53.981 40.8527 55.182 40.8289 56.1358C40.7712 58.4442 42.5627 60.6061 44.9518 62.3792C47.3166 64.1345 50.1432 65.4154 51.8935 65.9816C51.9258 65.992 51.9567 66.0066 51.9854 66.0248C53.0197 66.6828 53.3185 67.7222 53.2335 68.9118C53.1501 70.0787 52.6961 71.4677 52.1464 72.9594C51.8432 73.7822 51.3458 74.4109 50.67 74.818C49.9981 75.2228 49.1813 75.3897 48.2662 75.3476C46.4483 75.2641 44.1708 74.3536 41.6255 72.6836C41.6152 72.6768 41.6052 72.6696 41.5955 72.6619C35.7367 67.9916 33.1217 64.3969 31.905 61.4571C31.2964 59.9868 31.0435 58.694 30.9027 57.5353C30.8435 57.0478 30.8039 56.5816 30.7665 56.1412C30.7597 56.0612 30.753 55.982 30.7462 55.9036C30.7019 55.3906 30.6563 54.9149 30.5803 54.4595C30.2878 52.7047 29.8669 51.535 29.3631 50.6781C28.862 49.8256 28.2651 49.2591 27.5791 48.7257C27.1078 48.3592 26.856 47.7318 26.7317 47.0525C26.6048 46.3591 26.5967 45.5361 26.6777 44.6851C26.8392 42.9872 27.3633 41.097 28.1058 39.7774C28.2796 39.4684 28.6137 39.3038 28.9331 39.2076C29.2671 39.1069 29.6755 39.0544 30.1149 39.032C30.9965 38.9869 32.0823 39.0598 33.1258 39.1733C34.1731 39.2872 35.1942 39.444 35.9524 39.572C36.2529 39.6227 36.5126 39.6691 36.7168 39.7065C36.7136 39.5517 36.711 39.3663 36.7106 39.1576C36.7093 38.5252 36.7274 37.6735 36.8059 36.8039C36.884 35.9392 37.0236 35.0337 37.2742 34.3041C37.5129 33.6091 37.9065 32.9153 38.5978 32.7424ZM37.5286 40.0359C37.5348 40.0436 37.5412 40.0516 37.5478 40.0599C37.6177 40.1482 37.7084 40.2754 37.7922 40.433C37.9419 40.7143 38.086 41.1248 38.0109 41.5911C38.2954 42.2532 38.5439 43.1789 38.4602 44.068C38.4152 44.546 38.2726 45.0273 37.9738 45.4478C37.7657 45.7408 37.4895 45.9933 37.1385 46.1919C37.3513 46.4594 37.5495 46.7461 37.6923 47.0389C37.9109 47.4871 38.0344 48.024 37.7832 48.5377C37.5375 49.0403 36.9913 49.3978 36.1774 49.6407C35.3542 49.8863 34.1813 50.038 32.5591 50.0698L32.5434 49.2677C34.1347 49.2365 35.2251 49.0876 35.948 48.8719C36.6802 48.6535 36.963 48.3889 37.0625 48.1853C37.1566 47.993 37.1415 47.7397 36.9713 47.3906C36.8155 47.0713 36.5586 46.7339 36.2673 46.4006C35.391 46.1597 34.2756 45.961 33.2013 45.9195C32.0653 45.8757 31.045 46.011 30.3903 46.3928L29.9862 45.6998C30.8438 45.1997 32.0551 45.0725 33.2322 45.1179C34.3713 45.1618 35.5438 45.3705 36.4709 45.6246C36.8714 45.4624 37.1398 45.2367 37.3198 44.9832C37.519 44.7029 37.6265 44.3652 37.6615 43.9927C37.7277 43.2906 37.531 42.5154 37.2849 41.9337C37.2258 41.9058 37.1478 41.8697 37.0541 41.8279C36.8258 41.7258 36.5059 41.59 36.1397 41.4549C35.3938 41.1797 34.5071 40.9272 33.8162 40.9353C33.1516 40.943 32.3017 41.196 31.5875 41.4668C31.237 41.5997 30.9309 41.7323 30.7125 41.8317C30.6035 41.8813 30.5167 41.9224 30.4577 41.951C30.4281 41.9652 30.4055 41.9763 30.3906 41.9837L30.374 41.992L30.3701 41.9939L30.3693 41.9943L30.3693 41.9943C30.3693 41.9943 30.3693 41.9943 30.1882 41.6364C30.0071 41.2785 30.0072 41.2785 30.0073 41.2784L30.0074 41.2784L30.0079 41.2781L30.0095 41.2773L30.0149 41.2746L30.0348 41.2647C30.052 41.2562 30.0769 41.244 30.1089 41.2285C30.1729 41.1976 30.2652 41.1539 30.3803 41.1015C30.6103 40.9969 30.9327 40.8572 31.3031 40.7167C32.0308 40.4407 32.9925 40.1426 33.8069 40.1331C34.6538 40.1232 35.6575 40.4219 36.4174 40.7023C36.7009 40.8069 36.9576 40.9117 37.1692 41.0025C37.1457 40.9356 37.1166 40.8711 37.084 40.8097C37.029 40.7062 36.9685 40.6208 36.9214 40.5611C36.8682 40.5509 36.8001 40.5379 36.7186 40.5227C36.5027 40.4824 36.193 40.4262 35.8188 40.363C35.0698 40.2366 34.0653 40.0825 33.0391 39.9708C32.0091 39.8588 30.9733 39.7914 30.1558 39.8331C29.7456 39.8541 29.4099 39.9017 29.1644 39.9757C28.9042 40.0541 28.8231 40.1385 28.8049 40.1708C28.1296 41.3711 27.6298 43.1471 27.4763 44.7611C27.3997 45.5661 27.4114 46.3103 27.5208 46.9081C27.6328 47.52 27.8339 47.9076 28.0715 48.0924C28.8033 48.6614 29.4839 49.3006 30.0547 50.2715C30.6229 51.238 31.0685 52.5092 31.3716 54.3276C31.4533 54.8172 31.5011 55.3209 31.5455 55.8347C31.5524 55.9149 31.5592 55.9954 31.5661 56.0762C31.6035 56.5167 31.6418 56.9667 31.6991 57.4385C31.834 58.5487 32.0733 59.766 32.6462 61.1503C33.7915 63.9174 36.2929 67.4066 42.081 72.023C44.5701 73.6537 46.698 74.4725 48.3031 74.5462C49.1012 74.5829 49.7514 74.4348 50.2561 74.1309C50.7568 73.8292 51.1455 73.3555 51.3937 72.682C51.9467 71.1814 52.3591 69.8928 52.4333 68.8546C52.5044 67.8592 52.2631 67.1735 51.5956 66.7283C49.7722 66.1315 46.896 64.8214 44.4736 63.0234C42.0527 61.2266 39.9586 58.8472 40.0269 56.1157C40.0513 55.14 40.1016 53.9241 40.1579 52.5642C40.2847 49.4992 40.4418 45.702 40.4009 42.271C40.3714 39.7951 40.2385 37.5413 39.9233 35.9148C39.765 35.098 39.5664 34.4718 39.3319 34.0596C39.1168 33.6816 38.9168 33.555 38.7446 33.5355C38.5043 33.6239 38.2498 33.9333 38.0329 34.5647C37.8135 35.2037 37.6809 36.0342 37.6049 36.876C37.5293 37.7128 37.5115 38.5381 37.5128 39.156C37.5135 39.4644 37.5189 39.72 37.5241 39.898C37.5256 39.9511 37.5272 39.9973 37.5286 40.0359Z" fill="#111111"/>
<path d="M33.3592 44.901C33.3592 43.2049 32.1814 40.7785 31.5925 39.7773H39.7196C39.3074 40.9552 38.4829 43.6289 38.4829 44.901C38.4829 46.1731 41.4275 48.2579 42.8998 49.1413H28.7656C30.2968 48.4345 33.3592 46.5971 33.3592 44.901Z" fill="#F2BA25"/>
<path fill-rule="evenodd" clip-rule="evenodd" d="M30.8952 39.3711H40.289L40.1022 39.9047C39.899 40.4854 39.593 41.4382 39.3385 42.4012C39.0804 43.3776 38.888 44.318 38.888 44.8959C38.888 45.0754 39.0012 45.3541 39.2877 45.726C39.5634 46.0837 39.9548 46.471 40.4047 46.8575C41.303 47.6293 42.3873 48.3584 43.1102 48.7922L44.352 49.5372H28.7697L28.6016 48.7719C29.3466 48.4281 30.4656 47.8077 31.3913 47.0728C31.8542 46.7053 32.2556 46.3196 32.538 45.9365C32.823 45.55 32.9622 45.2002 32.9622 44.8959C32.9622 44.1242 32.6901 43.1501 32.327 42.2192C31.9674 41.297 31.5353 40.4593 31.2508 39.9756L30.8952 39.3711ZM32.2756 40.1733C32.5303 40.6614 32.8195 41.2741 33.0744 41.9277C33.4475 42.8843 33.7644 43.9714 33.7644 44.8959C33.7644 45.4396 33.5207 45.9555 33.1837 46.4126C32.8441 46.8732 32.3841 47.309 31.8901 47.7012C31.4087 48.0833 30.8823 48.4339 30.3782 48.735H41.5445C40.9987 48.3589 40.4115 47.9211 39.8819 47.466C39.4115 47.0619 38.9748 46.6342 38.6523 46.2156C38.3407 45.8113 38.0858 45.3524 38.0858 44.8959C38.0858 44.2017 38.3057 43.1691 38.5629 42.1962C38.7561 41.4654 38.9776 40.742 39.1645 40.1733H32.2756Z" fill="#111111"/>
<path d="M16.8557 13.9805H23.2751V15.8873H18.8172C16.3186 15.8873 22.3835 28.0791 23.9883 29.7548V32.3549C18.8528 28.472 12.7523 13.9805 16.8557 13.9805Z" fill="#F2BA25"/>
<path fill-rule="evenodd" clip-rule="evenodd" d="M16.0159 13.8024C16.267 13.6525 16.5571 13.582 16.874 13.582H23.6945V16.291H18.8355C18.7683 16.291 18.7507 16.3081 18.7437 16.3149C18.7283 16.3299 18.6925 16.3774 18.6672 16.4989C18.6146 16.7513 18.6377 17.1667 18.7565 17.7397C18.9903 18.8679 19.5511 20.4141 20.2506 22.0365C20.9476 23.6531 21.7726 25.3229 22.522 26.691C22.8968 27.3751 23.251 27.9808 23.5595 28.465C23.8724 28.9561 24.125 29.3011 24.2963 29.48L24.4078 29.5963V33.1637L23.7647 32.6776C22.4262 31.6655 21.0519 29.9866 19.8116 28.0661C18.5673 26.1393 17.4399 23.9411 16.6037 21.8641C15.7705 19.795 15.2132 17.814 15.1346 16.3293C15.0956 15.5923 15.171 14.9237 15.438 14.4243C15.5749 14.1682 15.7647 13.9523 16.0159 13.8024ZM23.6055 31.4995V29.9113C23.3968 29.6673 23.1499 29.3151 22.8829 28.896C22.5623 28.3927 22.1989 27.771 21.8185 27.0764C21.0575 25.6873 20.2214 23.995 19.514 22.3541C18.809 20.7191 18.2217 19.1126 17.971 17.9025C17.8474 17.3063 17.7941 16.7561 17.8818 16.3352C17.9267 16.1201 18.0154 15.9038 18.1848 15.7394C18.3629 15.5666 18.5911 15.4888 18.8355 15.4888H22.8923V14.3843H16.874C16.678 14.3843 16.5348 14.427 16.427 14.4913C16.3193 14.5555 16.2244 14.6548 16.1455 14.8025C15.9807 15.1108 15.8996 15.6046 15.9357 16.2869C16.0074 17.6407 16.5268 19.5253 17.3478 21.5645C18.1657 23.5958 19.2699 25.7484 20.4855 27.6309C21.4948 29.1937 22.5686 30.551 23.6055 31.4995Z" fill="#111111"/>
<path d="M55.16 13.9805H48.7406V15.8873H53.1985C55.697 15.8873 49.6321 28.0791 48.0273 29.7548V32.3549C53.1628 28.472 59.2633 13.9805 55.16 13.9805Z" fill="#F2BA25"/>
<path fill-rule="evenodd" clip-rule="evenodd" d="M56.0075 13.8024C55.7564 13.6525 55.4663 13.582 55.1495 13.582H48.3289V16.291H53.188C53.2552 16.291 53.2727 16.3081 53.2797 16.3149C53.2952 16.3299 53.331 16.3774 53.3563 16.4989C53.4089 16.7513 53.3857 17.1667 53.267 17.7397C53.0331 18.8679 52.4723 20.4141 51.7728 22.0365C51.0758 23.6531 50.2509 25.3229 49.5014 26.691C49.1267 27.3751 48.7724 27.9808 48.4639 28.465C48.1511 28.9561 47.8985 29.3011 47.7271 29.48L47.6157 29.5963V33.1637L48.2587 32.6776C49.5972 31.6655 50.9716 29.9866 52.2118 28.0661C53.4561 26.1393 54.5835 23.9411 55.4198 21.8641C56.2529 19.795 56.8102 17.814 56.8888 16.3293C56.9278 15.5923 56.8524 14.9237 56.5855 14.4243C56.4486 14.1682 56.2588 13.9523 56.0075 13.8024ZM48.4179 31.4995V29.9113C48.6266 29.6673 48.8735 29.3151 49.1405 28.896C49.4611 28.3927 49.8245 27.771 50.205 27.0764C50.9659 25.6873 51.802 23.995 52.5095 22.3541C53.2145 20.7191 53.8017 19.1126 54.0525 17.9025C54.176 17.3063 54.2293 16.7561 54.1416 16.3352C54.0968 16.1201 54.008 15.9038 53.8386 15.7394C53.6605 15.5666 53.4324 15.4888 53.188 15.4888H49.1312V14.3843H55.1495C55.3455 14.3843 55.4886 14.427 55.5965 14.4913C55.7042 14.5555 55.799 14.6548 55.878 14.8025C56.0428 15.1108 56.1238 15.6046 56.0877 16.2869C56.0161 17.6407 55.4967 19.5253 54.6756 21.5645C53.8577 23.5958 52.7536 25.7484 51.5379 27.6309C50.5286 29.1937 49.4548 30.551 48.4179 31.4995Z" fill="#111111"/>
<path d="M22.2266 14.5117C22.2266 12.9569 22.7566 12.2148 23.8167 12.2148H47.8448C48.5515 12.2148 49.2582 13.0629 49.2582 14.335C49.2582 15.9251 48.3159 16.3373 47.8448 16.4551H23.8167C23.2866 16.4551 22.2266 16.0664 22.2266 14.5117Z" fill="#FFE644"/>
<path fill-rule="evenodd" clip-rule="evenodd" d="M22.29 12.5534C22.6432 12.0471 23.1752 11.8164 23.8115 11.8164H47.8397C48.3592 11.8164 48.8217 12.1249 49.1378 12.5674C49.4576 13.0151 49.6542 13.6293 49.6542 14.3376C49.6542 15.218 49.3904 15.8213 49.0167 16.223C48.6503 16.6169 48.215 16.7774 47.9369 16.8469L47.889 16.8589H23.8115C23.4636 16.8589 22.9675 16.7352 22.5527 16.3702C22.1241 15.993 21.8203 15.3918 21.8203 14.5143C21.8203 13.7044 21.956 13.0321 22.29 12.5534ZM22.9479 13.0124C22.7519 13.2933 22.6225 13.7695 22.6225 14.5143C22.6225 15.1916 22.8487 15.5621 23.0827 15.768C23.3304 15.986 23.6294 16.0567 23.8115 16.0567H47.7876C47.9763 16.0038 48.2237 15.8977 48.4294 15.6766C48.6446 15.4453 48.852 15.0474 48.852 14.3376C48.852 13.774 48.6953 13.3281 48.485 13.0337C48.2711 12.7342 48.0268 12.6186 47.8397 12.6186H23.8115C23.3878 12.6186 23.1247 12.7589 22.9479 13.0124Z" fill="#111111"/>
<path d="M23.4688 32.1774V16.4531H48.2036V32.1774C47.0846 35.0043 43.0093 40.6579 35.6595 40.6579C28.3097 40.6579 24.4699 35.0043 23.4688 32.1774Z" fill="#FFD41E"/>
<path fill-rule="evenodd" clip-rule="evenodd" d="M23.0547 16.0547H48.5918V32.2566L48.5636 32.3277C47.4117 35.2377 43.2249 41.0617 35.6465 41.0617C28.062 41.0617 24.1104 35.2298 23.0777 32.314L23.0547 32.249V16.0547ZM23.8569 16.8569V32.1103C24.8615 34.8685 28.5866 40.2595 35.6465 40.2595C42.7075 40.2595 46.6644 34.8685 47.7895 32.1026V16.8569H23.8569Z" fill="#111111"/>
<path d="M46.0577 48.7891H25.7398V56.3862C25.3864 56.3862 24.6797 56.5982 24.6797 57.4463C24.6797 58.2943 25.3864 58.5063 25.7398 58.5063H46.0577C46.4699 58.5063 47.2944 58.2943 47.2944 57.4463C47.2944 56.5982 46.4699 56.3862 46.0577 56.3862V48.7891Z" fill="#A45652"/>
<path fill-rule="evenodd" clip-rule="evenodd" d="M25.3491 48.3906H46.4693V56.0316C46.6583 56.0718 46.863 56.143 47.0518 56.2595C47.4102 56.4807 47.706 56.8663 47.706 57.4489C47.706 58.0316 47.4102 58.4171 47.0518 58.6383C46.7147 58.8463 46.3272 58.9101 46.0682 58.9101H25.7502C25.5094 58.9101 25.157 58.8411 24.8533 58.6225C24.5292 58.3891 24.2891 58.0037 24.2891 57.4489C24.2891 56.8942 24.5292 56.5087 24.8533 56.2754C25.0129 56.1605 25.1859 56.0869 25.3491 56.043V48.3906ZM26.1513 49.1928V56.79H25.7502C25.6377 56.79 25.4601 56.827 25.3221 56.9264C25.2045 57.011 25.0913 57.1556 25.0913 57.4489C25.0913 57.7422 25.2045 57.8868 25.3221 57.9715C25.4601 58.0708 25.6377 58.1079 25.7502 58.1079H46.0682C46.2213 58.1079 46.4522 58.0657 46.6305 57.9556C46.7874 57.8588 46.9038 57.7143 46.9038 57.4489C46.9038 57.1835 46.7874 57.039 46.6305 56.9422C46.4522 56.8322 46.2213 56.79 46.0682 56.79H45.667V49.1928H26.1513Z" fill="#111111"/>
<path d="M30.1719 54.7944V51.4375H41.6559V54.7944H30.1719Z" fill="#FFE353"/>
<path fill-rule="evenodd" clip-rule="evenodd" d="M29.7734 51.0352H42.0597V55.1942H29.7734V51.0352ZM30.5757 51.8374V54.392H41.2575V51.8374H30.5757Z" fill="#111111"/>
<path d="M35.3106 21.2286C35.6175 20.6842 36.4015 20.6842 36.7083 21.2286L38.1845 23.8476C38.299 24.0507 38.4961 24.1939 38.7247 24.24L41.6716 24.8346C42.2842 24.9583 42.5265 25.7039 42.1035 26.1639L40.0689 28.3771C39.9111 28.5488 39.8358 28.7806 39.8626 29.0122L40.2077 31.9986C40.2795 32.6194 39.6452 33.0802 39.0769 32.8202L36.3433 31.569C36.1313 31.472 35.8876 31.472 35.6756 31.569L32.942 32.8202C32.3738 33.0802 31.7395 32.6194 31.8113 31.9986L32.1564 29.0122C32.1832 28.7806 32.1079 28.5488 31.9501 28.3771L29.9155 26.1639C29.4925 25.7039 29.7348 24.9583 30.3474 24.8346L33.2943 24.24C33.5228 24.1939 33.72 24.0507 33.8345 23.8476L35.3106 21.2286Z" fill="#FFE644"/>
<path fill-rule="evenodd" clip-rule="evenodd" d="M37.4856 24.2415L36.0095 21.6225L34.5333 24.2415C34.3044 24.6477 33.91 24.9342 33.453 25.0264L30.506 25.621L32.5407 27.8342C32.8562 28.1775 33.0069 28.6411 32.9533 29.1043L32.6082 32.0907L35.3418 30.8396C35.7658 30.6455 36.2532 30.6455 36.6772 30.8396L39.4108 32.0907L39.0656 29.1043C39.0121 28.6411 39.1627 28.1775 39.4783 27.8342L41.5129 25.621L38.566 25.0264C38.1089 24.9342 37.7146 24.6477 37.4856 24.2415ZM36.7083 21.2286C36.4015 20.6842 35.6175 20.6842 35.3106 21.2286L33.8345 23.8476C33.72 24.0507 33.5228 24.1939 33.2943 24.24L30.3474 24.8346C29.7348 24.9583 29.4925 25.7039 29.9155 26.1639L31.9501 28.3771C32.1079 28.5488 32.1832 28.7806 32.1564 29.0122L31.8113 31.9986C31.7395 32.6194 32.3738 33.0802 32.942 32.8202L35.6756 31.569C35.8876 31.472 36.1313 31.472 36.3433 31.569L39.0769 32.8202C39.6452 33.0802 40.2795 32.6194 40.2077 31.9986L39.8626 29.0122C39.8358 28.7806 39.9111 28.5488 40.0689 28.3771L42.1035 26.1639C42.5265 25.7039 42.2842 24.9583 41.6716 24.8346L38.7247 24.24C38.4961 24.1939 38.299 24.0507 38.1845 23.8476L36.7083 21.2286Z" fill="#111111"/>
<path fill-rule="evenodd" clip-rule="evenodd" d="M11.6181 3.91335C11.4229 3.91335 11.2647 3.75515 11.2647 3.56V0.55648C11.2647 0.361327 11.4229 0.203125 11.6181 0.203125C11.8132 0.203125 11.9714 0.361327 11.9714 0.55648V3.56C11.9714 3.75515 11.8132 3.91335 11.6181 3.91335ZM6.84778 4.97342C6.84778 4.77827 7.00598 4.62006 7.20113 4.62006H9.85129C10.0464 4.62006 10.2046 4.77827 10.2046 4.97342C10.2046 5.16857 10.0464 5.32677 9.85129 5.32677H7.20113C7.00598 5.32677 6.84778 5.16857 6.84778 4.97342ZM16.3884 4.97342C16.3884 5.16857 16.2302 5.32677 16.035 5.32677H13.2082C13.013 5.32677 12.8548 5.16857 12.8548 4.97342C12.8548 4.77827 13.013 4.62006 13.2082 4.62006H16.035C16.2302 4.62006 16.3884 4.77827 16.3884 4.97342ZM11.6181 9.74371C11.4229 9.74371 11.2647 9.58551 11.2647 9.39036V6.56352C11.2647 6.36836 11.4229 6.21016 11.6181 6.21016C11.8132 6.21016 11.9714 6.36836 11.9714 6.56352V9.39036C11.9714 9.58551 11.8132 9.74371 11.6181 9.74371ZM65.6814 12.7472C65.4862 12.7472 65.328 12.589 65.328 12.3939V9.21368C65.328 9.01853 65.4862 8.86032 65.6814 8.86032C65.8765 8.86032 66.0348 9.01853 66.0348 9.21368V12.3939C66.0348 12.589 65.8765 12.7472 65.6814 12.7472ZM61.0878 13.8073C61.0878 13.6121 61.246 13.4539 61.4411 13.4539H63.9146C64.1098 13.4539 64.268 13.6121 64.268 13.8073C64.268 14.0024 64.1098 14.1607 63.9146 14.1607H61.4411C61.246 14.1607 61.0878 14.0024 61.0878 13.8073ZM70.0983 13.8073C70.0983 14.0024 69.9401 14.1607 69.745 14.1607H67.6248C67.4297 14.1607 67.2715 14.0024 67.2715 13.8073C67.2715 13.6121 67.4297 13.4539 67.6248 13.4539H69.745C69.9401 13.4539 70.0983 13.6121 70.0983 13.8073ZM65.6814 18.2242C65.4862 18.2242 65.328 18.066 65.328 17.8709V15.5741C65.328 15.3789 65.4862 15.2207 65.6814 15.2207C65.8765 15.2207 66.0348 15.3789 66.0348 15.5741V17.8709C66.0348 18.066 65.8765 18.2242 65.6814 18.2242ZM4.19761 21.4044C4.00246 21.4044 3.84426 21.2462 3.84426 21.0511V19.461C3.84426 19.2658 4.00246 19.1076 4.19761 19.1076C4.39277 19.1076 4.55097 19.2658 4.55097 19.461V21.0511C4.55097 21.2462 4.39277 21.4044 4.19761 21.4044ZM0.664062 22.4645C0.664062 22.2693 0.822265 22.1111 1.01742 22.1111H2.78419C2.97935 22.1111 3.13755 22.2693 3.13755 22.4645C3.13755 22.6596 2.97935 22.8178 2.78419 22.8178H1.01742C0.822265 22.8178 0.664062 22.6596 0.664062 22.4645ZM7.55449 22.4645C7.55449 22.6596 7.39628 22.8178 7.20113 22.8178H5.61103C5.41588 22.8178 5.25768 22.6596 5.25768 22.4645C5.25768 22.2693 5.41588 22.1111 5.61103 22.1111H7.20113C7.39628 22.1111 7.55449 22.2693 7.55449 22.4645ZM4.19761 25.6447C4.00246 25.6447 3.84426 25.4865 3.84426 25.2913V23.8779C3.84426 23.6828 4.00246 23.5246 4.19761 23.5246C4.39277 23.5246 4.55097 23.6828 4.55097 23.8779V25.2913C4.55097 25.4865 4.39277 25.6447 4.19761 25.6447Z" fill="#FFD41E"/>
<path fill-rule="evenodd" clip-rule="evenodd" d="M11.0694 3.55743V0.55391C11.0694 0.247994 11.3174 0 11.6233 0C11.9292 0 12.1772 0.247994 12.1772 0.55391V3.55743C12.1772 3.86334 11.9292 4.11134 11.6233 4.11134C11.3174 4.11134 11.0694 3.86334 11.0694 3.55743ZM7.20637 4.41694H9.85654C10.1625 4.41694 10.4104 4.66493 10.4104 4.97085C10.4104 5.27676 10.1625 5.52476 9.85654 5.52476H7.20637C6.90046 5.52476 6.65246 5.27676 6.65246 4.97085C6.65246 4.66493 6.90046 4.41694 7.20637 4.41694ZM16.0403 5.52476H13.2134C12.9075 5.52476 12.6595 5.27676 12.6595 4.97085C12.6595 4.66493 12.9075 4.41694 13.2134 4.41694H16.0403C16.3462 4.41694 16.5942 4.66493 16.5942 4.97085C16.5942 5.27676 16.3462 5.52476 16.0403 5.52476ZM11.0694 9.38779V6.56095C11.0694 6.25503 11.3174 6.00704 11.6233 6.00704C11.9292 6.00704 12.1772 6.25503 12.1772 6.56095V9.38779C12.1772 9.6937 11.9292 9.9417 11.6233 9.9417C11.3174 9.9417 11.0694 9.6937 11.0694 9.38779ZM65.1327 12.3913V9.21111C65.1327 8.90519 65.3807 8.6572 65.6866 8.6572C65.9926 8.6572 66.2405 8.90519 66.2405 9.21111V12.3913C66.2405 12.6972 65.9926 12.9452 65.6866 12.9452C65.3807 12.9452 65.1327 12.6972 65.1327 12.3913ZM61.4464 13.2508H63.9199C64.2258 13.2508 64.4738 13.4988 64.4738 13.8047C64.4738 14.1106 64.2258 14.3586 63.9199 14.3586H61.4464C61.1405 14.3586 60.8925 14.1106 60.8925 13.8047C60.8925 13.4988 61.1405 13.2508 61.4464 13.2508ZM69.7502 14.3586H67.6301C67.3242 14.3586 67.0762 14.1106 67.0762 13.8047C67.0762 13.4988 67.3242 13.2508 67.6301 13.2508H69.7502C70.0561 13.2508 70.3041 13.4988 70.3041 13.8047C70.3041 14.1106 70.0561 14.3586 69.7502 14.3586ZM65.1327 17.8683V15.5715C65.1327 15.2656 65.3807 15.0176 65.6866 15.0176C65.9926 15.0176 66.2405 15.2656 66.2405 15.5715V17.8683C66.2405 18.1742 65.9926 18.4222 65.6866 18.4222C65.3807 18.4222 65.1327 18.1742 65.1327 17.8683ZM3.64895 21.0485V19.4584C3.64895 19.1525 3.89694 18.9045 4.20286 18.9045C4.50877 18.9045 4.75677 19.1525 4.75677 19.4584V21.0485C4.75677 21.3544 4.50877 21.6024 4.20286 21.6024C3.89694 21.6024 3.64895 21.3544 3.64895 21.0485ZM1.02266 21.908H2.78944C3.09535 21.908 3.34335 22.156 3.34335 22.4619C3.34335 22.7678 3.09535 23.0158 2.78944 23.0158H1.02266C0.716744 23.0158 0.46875 22.7678 0.46875 22.4619C0.46875 22.156 0.716743 21.908 1.02266 21.908ZM7.20637 23.0158H5.61628C5.31036 23.0158 5.06237 22.7678 5.06237 22.4619C5.06237 22.156 5.31036 21.908 5.61628 21.908H7.20637C7.51229 21.908 7.76028 22.156 7.76028 22.4619C7.76028 22.7678 7.51229 23.0158 7.20637 23.0158ZM3.64895 25.2888V23.8753C3.64895 23.5694 3.89694 23.3214 4.20286 23.3214C4.50877 23.3214 4.75677 23.5694 4.75677 23.8753V25.2888C4.75677 25.5947 4.50877 25.8427 4.20286 25.8427C3.89694 25.8427 3.64895 25.5947 3.64895 25.2888ZM11.27 3.55743C11.27 3.75258 11.4282 3.91078 11.6233 3.91078C11.8185 3.91078 11.9767 3.75258 11.9767 3.55743V0.55391C11.9767 0.358757 11.8185 0.200555 11.6233 0.200555C11.4282 0.200555 11.27 0.358757 11.27 0.55391V3.55743ZM7.20637 4.61749C7.01122 4.61749 6.85302 4.7757 6.85302 4.97085C6.85302 5.166 7.01122 5.3242 7.20637 5.3242H9.85654C10.0517 5.3242 10.2099 5.166 10.2099 4.97085C10.2099 4.7757 10.0517 4.61749 9.85654 4.61749H7.20637ZM16.0403 5.3242C16.2354 5.3242 16.3936 5.166 16.3936 4.97085C16.3936 4.7757 16.2354 4.61749 16.0403 4.61749H13.2134C13.0183 4.61749 12.8601 4.7757 12.8601 4.97085C12.8601 5.166 13.0183 5.3242 13.2134 5.3242H16.0403ZM11.27 9.38779C11.27 9.58294 11.4282 9.74114 11.6233 9.74114C11.8185 9.74114 11.9767 9.58294 11.9767 9.38779V6.56095C11.9767 6.36579 11.8185 6.20759 11.6233 6.20759C11.4282 6.20759 11.27 6.36579 11.27 6.56095V9.38779ZM65.3333 12.3913C65.3333 12.5865 65.4915 12.7447 65.6866 12.7447C65.8818 12.7447 66.04 12.5865 66.04 12.3913V9.21111C66.04 9.01596 65.8818 8.85775 65.6866 8.85775C65.4915 8.85775 65.3333 9.01596 65.3333 9.21111V12.3913ZM61.4464 13.4514C61.2512 13.4514 61.093 13.6096 61.093 13.8047C61.093 13.9999 61.2512 14.1581 61.4464 14.1581H63.9199C64.115 14.1581 64.2732 13.9999 64.2732 13.8047C64.2732 13.6096 64.115 13.4514 63.9199 13.4514H61.4464ZM69.7502 14.1581C69.9454 14.1581 70.1036 13.9999 70.1036 13.8047C70.1036 13.6096 69.9454 13.4514 69.7502 13.4514H67.6301C67.4349 13.4514 67.2767 13.6096 67.2767 13.8047C67.2767 13.9999 67.4349 14.1581 67.6301 14.1581H69.7502ZM65.3333 17.8683C65.3333 18.0635 65.4915 18.2217 65.6866 18.2217C65.8818 18.2217 66.04 18.0635 66.04 17.8683V15.5715C66.04 15.3763 65.8818 15.2181 65.6866 15.2181C65.4915 15.2181 65.3333 15.3763 65.3333 15.5715V17.8683ZM3.8495 21.0485C3.8495 21.2437 4.0077 21.4019 4.20286 21.4019C4.39801 21.4019 4.55621 21.2437 4.55621 21.0485V19.4584C4.55621 19.2633 4.39801 19.105 4.20286 19.105C4.0077 19.105 3.8495 19.2633 3.8495 19.4584V21.0485ZM1.02266 22.1086C0.827507 22.1086 0.669305 22.2668 0.669305 22.4619C0.669305 22.6571 0.827507 22.8153 1.02266 22.8153H2.78944C2.98459 22.8153 3.14279 22.6571 3.14279 22.4619C3.14279 22.2668 2.98459 22.1086 2.78944 22.1086H1.02266ZM7.20637 22.8153C7.40153 22.8153 7.55973 22.6571 7.55973 22.4619C7.55973 22.2668 7.40153 22.1086 7.20637 22.1086H5.61628C5.42112 22.1086 5.26292 22.2668 5.26292 22.4619C5.26292 22.6571 5.42112 22.8153 5.61628 22.8153H7.20637ZM3.8495 25.2888C3.8495 25.4839 4.0077 25.6421 4.20286 25.6421C4.39801 25.6421 4.55621 25.4839 4.55621 25.2888V23.8753C4.55621 23.6802 4.39801 23.522 4.20286 23.522C4.0077 23.522 3.8495 23.6802 3.8495 23.8753V25.2888Z" fill="#FFD41E"/>
<path d="M35.9154 42.9073C37.93 40.2857 35.386 39.7211 35.386 39.7211C35.386 39.7211 29.1917 38.502 28.2388 40.2753C27.0476 42.4919 26.4962 47.7585 27.6874 48.7283C28.1221 48.7283 30.5386 48.7608 31.8575 48.7608C37.2561 48.7608 36.9946 46.9281 34.9763 46.0841C36.4407 46.5221 37.3762 43.5715 35.9154 42.9073Z" fill="#FDFBEF"/>
<path fill-rule="evenodd" clip-rule="evenodd" d="M35.4659 39.3263C35.466 39.3263 35.4661 39.3264 35.3887 39.7199C35.4756 39.3283 35.4758 39.3284 35.476 39.3284L35.4766 39.3285L35.4778 39.3288L35.481 39.3296L35.4901 39.3317C35.4974 39.3335 35.507 39.3359 35.5189 39.339C35.5424 39.3452 35.5747 39.3542 35.614 39.3665C35.6921 39.391 35.7993 39.4289 35.9204 39.4838C36.1578 39.5915 36.4734 39.7758 36.7191 40.0757C36.9738 40.3865 37.1412 40.8081 37.0841 41.3447C37.0382 41.7764 36.8498 42.2589 36.4861 42.8029C36.7397 43.0311 36.8995 43.3283 36.9816 43.6429C37.0987 44.0913 37.0635 44.5855 36.929 45.0251C36.7949 45.4635 36.5502 45.8861 36.2056 46.173C36.1656 46.2062 36.1243 46.2376 36.0816 46.267C36.2119 46.3751 36.326 46.4904 36.42 46.6123C36.563 46.7978 36.6702 47.0128 36.7005 47.2499C36.7316 47.4939 36.6775 47.7349 36.5397 47.9524C36.2778 48.3658 35.7422 48.6555 35.0109 48.848C34.262 49.045 33.2284 49.1607 31.8601 49.1607C31.1984 49.1607 30.2626 49.1526 29.4396 49.1444C29.2149 49.1422 28.9989 49.14 28.7992 49.1379C28.2646 49.1324 27.8464 49.1281 27.6901 49.1281C27.5978 49.1281 27.5084 49.0963 27.4369 49.0381C27.2159 48.8582 27.0613 48.6018 26.9506 48.3255C26.8386 48.0459 26.7608 47.719 26.7093 47.3669C26.6063 46.6626 26.6022 45.8118 26.6726 44.936C26.8126 43.1942 27.2555 41.2614 27.8881 40.0842C28.2191 39.4684 28.9528 39.1838 29.6858 39.0452C30.4461 38.9015 31.3461 38.8892 32.1924 38.9314C33.043 38.9738 33.8605 39.0725 34.4636 39.1602C34.7657 39.2041 35.0152 39.2454 35.1896 39.2758C35.2768 39.2911 35.3453 39.3036 35.3923 39.3123C35.4159 39.3167 35.434 39.3202 35.4464 39.3225L35.4607 39.3253L35.4659 39.3263ZM34.8435 46.4611C34.105 46.2423 33.1375 46.0676 32.2063 46.0397C31.2517 46.0111 30.4056 46.1393 29.8719 46.4652L29.4538 45.7805C30.1908 45.3306 31.2306 45.2079 32.2304 45.2378C33.2449 45.2682 34.2909 45.4585 35.0939 45.6986C35.3092 45.763 35.5058 45.7117 35.6923 45.5564C35.8894 45.3924 36.0617 45.118 36.1619 44.7905C36.2617 44.4641 36.278 44.1236 36.2054 43.8456C36.1377 43.5862 35.9982 43.3934 35.7789 43.284C35.767 43.2809 35.752 43.2769 35.7342 43.2723C35.6825 43.2588 35.6067 43.2394 35.5115 43.2161C35.3208 43.1694 35.0533 43.1073 34.7464 43.0457C34.1256 42.9211 33.3708 42.8043 32.7684 42.8116C32.1857 42.8187 31.449 42.9364 30.843 43.0574C30.5432 43.1172 30.2813 43.1766 30.0945 43.221C30.0012 43.2432 29.9268 43.2616 29.876 43.2744C29.8507 43.2808 29.8312 43.2858 29.8182 43.2891L29.8038 43.2929L29.8003 43.2938L29.7996 43.294C29.7996 43.2939 29.7995 43.294 29.6973 42.9061C29.5951 42.5182 29.5952 42.5182 29.5952 42.5182L29.597 42.5177L29.6014 42.5166L29.618 42.5123C29.6323 42.5086 29.6533 42.5032 29.6802 42.4965C29.734 42.4829 29.8118 42.4637 29.9089 42.4406C30.1029 42.3944 30.3745 42.3328 30.686 42.2707C31.3024 42.1476 32.0988 42.0175 32.7587 42.0095C33.4484 42.0011 34.2708 42.132 34.9042 42.2592C35.2245 42.3234 35.5033 42.3881 35.7022 42.4369C35.7207 42.4414 35.7385 42.4458 35.7556 42.45C36.117 41.9342 36.2562 41.5439 36.2864 41.2599C36.319 40.9533 36.2281 40.7422 36.0986 40.5841C35.9602 40.4152 35.7656 40.2945 35.589 40.2144C35.5031 40.1754 35.4273 40.1487 35.3742 40.1321C35.3477 40.1238 35.3274 40.1181 35.3146 40.1148C35.3101 40.1136 35.3066 40.1127 35.3042 40.1121L35.2953 40.1104C35.2843 40.1083 35.2675 40.1051 35.2454 40.101C35.2012 40.0927 35.1357 40.0808 35.0517 40.0661C34.8837 40.0368 34.6418 39.9967 34.3482 39.9541C33.7602 39.8686 32.9695 39.7733 32.1525 39.7326C31.3311 39.6917 30.5039 39.707 29.8347 39.8335C29.1383 39.9651 28.7403 40.1931 28.5948 40.4639C28.0362 41.5034 27.6079 43.3121 27.4722 45.0003C27.4048 45.8394 27.4117 46.6256 27.5031 47.2508C27.5488 47.5634 27.614 47.8244 27.6953 48.0271C27.7486 48.1603 27.8045 48.2576 27.8582 48.3267C28.071 48.3282 28.4114 48.3317 28.8147 48.3358C29.013 48.3379 29.2265 48.34 29.4475 48.3422C30.271 48.3504 31.203 48.3585 31.8601 48.3585C33.1912 48.3585 34.1494 48.2451 34.8068 48.0721C35.4817 47.8946 35.7668 47.6734 35.8621 47.5231C35.9029 47.4587 35.9115 47.4047 35.9047 47.3515C35.897 47.2914 35.8656 47.2071 35.7847 47.1021C35.6211 46.89 35.3022 46.6556 34.8435 46.4611ZM35.3887 39.7199L35.4756 39.3283L35.4659 39.3263L35.3887 39.7199Z" fill="#111111"/>
</svg>
