<svg width="63" height="107" viewBox="0 0 63 107" fill="none" xmlns="http://www.w3.org/2000/svg">
<path d="M24.6832 98.5485C24.099 97.3424 24.5004 79.525 24.8848 72.3217L23.2457 63.3738L31.0197 65.6721C31.0314 72.7817 31.161 88.6593 31.5853 95.2929C32.0097 101.927 31.7237 103.635 31.5276 103.661C29.5202 106.482 19.396 104.538 17.3876 104.203C15.1971 103.839 6.94743 102.68 9.54029 98.9131C11.5494 95.9946 25.4135 100.056 24.6832 98.5485Z" fill="#FFEB34"/>
<path fill-rule="evenodd" clip-rule="evenodd" d="M22.7329 62.804L31.4196 65.3722L31.4201 65.6714C31.4319 72.7846 31.5616 88.6486 31.985 95.2672C32.1975 98.5897 32.233 100.69 32.1894 101.969C32.1676 102.606 32.1259 103.051 32.0733 103.346C32.0474 103.491 32.0157 103.618 31.9737 103.72C31.953 103.769 31.9221 103.832 31.8745 103.89C31.8581 103.91 31.8349 103.935 31.8044 103.96C31.1917 104.76 30.0672 105.171 28.8187 105.378C27.5134 105.595 25.9631 105.604 24.4342 105.516C21.7291 105.36 19.0249 104.893 17.747 104.672C17.5794 104.643 17.4363 104.618 17.321 104.599C17.2293 104.584 17.126 104.567 17.0127 104.549C15.7943 104.35 13.4067 103.962 11.5203 103.206C10.4985 102.797 9.54675 102.251 9.0334 101.505C8.76916 101.121 8.61898 100.68 8.64187 100.188C8.66453 99.7014 8.85503 99.2001 9.20924 98.6856C9.53389 98.214 10.07 97.9208 10.6817 97.7371C11.2981 97.5519 12.04 97.4631 12.8424 97.4359C14.4479 97.3815 16.3739 97.5724 18.1891 97.8037C18.9378 97.8991 19.664 98.0008 20.3444 98.0961C21.3316 98.2344 22.2226 98.3592 22.9471 98.4318C23.5378 98.491 23.9742 98.5102 24.2411 98.4829C24.2191 98.3909 24.202 98.2914 24.1875 98.1923C24.1564 97.9799 24.1301 97.7122 24.1077 97.3993C24.0627 96.7724 24.0318 95.9414 24.0125 94.9625C23.9739 93.0034 23.9814 90.433 24.0191 87.6785C24.0942 82.1933 24.2894 75.9631 24.4811 72.3474L22.7329 62.804ZM23.7572 63.9433L25.2872 72.2958L25.2847 72.343C25.0929 75.9379 24.8965 82.1875 24.8212 87.6894C24.7835 90.4404 24.7762 93.0007 24.8146 94.9467C24.8338 95.9203 24.8644 96.7354 24.9078 97.3419C24.9296 97.6457 24.9542 97.8914 24.9812 98.0761C24.9947 98.1685 25.0082 98.241 25.021 98.2953C25.0349 98.3537 25.0441 98.3747 25.0436 98.3735C25.0881 98.4655 25.1252 98.5879 25.1067 98.7267C25.087 98.8744 25.0112 98.9907 24.918 99.0717C24.7589 99.2099 24.5397 99.2545 24.3735 99.2752C24.0104 99.3203 23.4796 99.2914 22.8671 99.23C22.1315 99.1563 21.2098 99.0273 20.2055 98.8868C19.5266 98.7918 18.81 98.6915 18.0877 98.5995C16.2769 98.3687 14.4058 98.1856 12.8696 98.2377C12.1011 98.2637 11.4359 98.3482 10.9125 98.5054C10.3843 98.6641 10.0476 98.8824 9.87003 99.1405C9.57603 99.5675 9.45714 99.9265 9.44322 100.225C9.42953 100.519 9.51558 100.79 9.69434 101.05C10.067 101.592 10.8284 102.065 11.8187 102.461C13.6163 103.182 15.915 103.557 17.1433 103.757C17.2559 103.775 17.3595 103.792 17.4529 103.808C17.5713 103.827 17.717 103.853 17.8867 103.882C19.1695 104.103 21.8255 104.562 24.4805 104.715C25.9846 104.802 27.4673 104.789 28.6876 104.587C29.9304 104.381 30.7968 103.995 31.2002 103.428L31.2503 103.358C31.2597 103.323 31.2713 103.273 31.2835 103.205C31.3264 102.965 31.3664 102.563 31.3876 101.941C31.4299 100.7 31.3962 98.6296 31.1844 95.3184C30.765 88.7615 30.6333 73.2155 30.6185 65.9719L23.7572 63.9433Z" fill="#111111"/>
<path d="M42.6834 97.6122C43.1707 96.3936 41.5321 80.0163 40.5213 72.8587L41.3775 63.72L33.7061 66.25C34.3078 73.3267 35.547 89.1339 35.69 95.7497C35.833 102.365 36.7358 102.915 36.7358 102.915C39.0114 105.661 47.1294 104.442 49.1402 104.076C51.5113 103.645 59.798 102.788 57.1663 98.9023C54.5345 95.0167 42.0742 99.1355 42.6834 97.6122Z" fill="#FFEB34"/>
<path fill-rule="evenodd" clip-rule="evenodd" d="M41.8085 63.1458L33.2462 65.9696L33.2714 66.2662C33.8734 73.3465 35.1113 89.1402 35.254 95.7411C35.3258 99.0615 35.5883 100.887 35.8426 101.894C35.9699 102.398 36.0984 102.711 36.2091 102.908C36.2649 103.007 36.3182 103.081 36.3675 103.136C36.3863 103.157 36.4047 103.176 36.4225 103.192C37.0808 103.966 38.1109 104.426 39.2446 104.697C40.4024 104.974 41.7299 105.068 43.029 105.065C45.6289 105.058 48.1876 104.657 49.2031 104.472C49.4253 104.432 49.7068 104.387 50.0314 104.335C51.3823 104.119 53.4797 103.783 55.158 103.163C56.1933 102.78 57.1497 102.262 57.6616 101.531C57.9246 101.156 58.0724 100.721 58.0467 100.229C58.0213 99.7405 57.8273 99.2304 57.4677 98.6994C56.6993 97.5649 55.26 97.0732 53.7033 96.8857C52.1266 96.6959 50.3039 96.8031 48.6134 96.9806C47.7654 97.0696 46.9439 97.1772 46.1974 97.2758L46.0866 97.2904C45.382 97.3836 44.7517 97.4669 44.2255 97.519C43.706 97.5704 43.3254 97.5869 43.0872 97.5638C43.1039 97.4709 43.1145 97.3696 43.1224 97.2682C43.138 97.0656 43.1449 96.8126 43.1448 96.5186C43.1447 95.9296 43.1163 95.1537 43.0657 94.2416C42.9644 92.4161 42.7732 90.0256 42.5355 87.4528C42.062 82.3294 41.4026 76.4671 40.8968 72.8757L41.8085 63.1458ZM40.8835 64.3034L40.0826 72.851L40.0891 72.8968C40.5933 76.4672 41.255 82.3442 41.7297 87.4816C41.9671 90.0502 42.1573 92.4299 42.2578 94.2415C42.3081 95.148 42.3356 95.9074 42.3358 96.4753C42.3358 96.7597 42.329 96.9906 42.3156 97.1652C42.3089 97.2526 42.3008 97.3216 42.2921 97.374C42.2877 97.3999 42.2836 97.4197 42.28 97.4342C42.2767 97.4474 42.2745 97.4534 42.2742 97.4542C42.2387 97.5429 42.2127 97.6561 42.2325 97.7829C42.2537 97.9182 42.3218 98.0339 42.4154 98.1212C42.5776 98.2722 42.7971 98.3214 42.9552 98.3438C43.2986 98.3925 43.7917 98.3656 44.3499 98.3104C44.8898 98.2569 45.5323 98.172 46.2309 98.0796L46.3479 98.0641C47.0947 97.9655 47.9065 97.8593 48.7425 97.7715C50.4199 97.5954 52.1676 97.4968 53.6484 97.6751C55.1492 97.8558 56.2543 98.3063 56.8018 99.1146C57.1001 99.555 57.2229 99.9217 57.2387 100.226C57.2543 100.526 57.168 100.798 56.9872 101.057C56.6113 101.593 55.8414 102.045 54.8375 102.416C53.2415 103.006 51.2583 103.324 49.9014 103.542C49.5609 103.597 49.2598 103.645 49.0142 103.69C48.0189 103.871 45.5132 104.262 42.9825 104.27C41.7163 104.273 40.4619 104.18 39.3948 103.925C38.3187 103.667 37.4931 103.259 37.0122 102.679L36.9658 102.623L36.9497 102.613C36.9411 102.601 36.9286 102.582 36.9127 102.554C36.8496 102.441 36.7436 102.203 36.6273 101.742C36.3944 100.82 36.1341 99.063 36.0629 95.7676C35.9215 89.228 34.7129 73.7493 34.1028 66.5397L40.8835 64.3034Z" fill="#111111"/>
<path d="M45.6719 41.5898C50.0902 42.029 58.849 44.7142 58.8103 48.9014C58.7863 51.5023 58.0216 52.5253 57.6767 52.7128C58.7523 52.1455 60.9906 51.3848 61.409 52.8473C61.9334 54.6804 60.7129 56.572 58.313 55.869C58.1621 55.1503 57.7629 53.6459 57.2291 52.5579C57.1043 52.4127 56.9917 52.2004 56.9027 51.9784C54.977 48.8898 50.0349 42.488 45.6719 41.5898Z" fill="#FDFBEF"/>
<path fill-rule="evenodd" clip-rule="evenodd" d="M45.2879 41.5296C45.32 41.3186 45.5117 41.1697 45.7241 41.1908C47.9735 41.4144 51.3111 42.2059 54.0916 43.4753C55.4816 44.1099 56.7553 44.8742 57.6851 45.7647C58.6148 46.6552 59.235 47.7072 59.224 48.9052C59.2118 50.2279 59.0133 51.1777 58.7585 51.8364C59.0857 51.7344 59.428 51.6549 59.76 51.6201C60.1683 51.5773 60.5997 51.5977 60.9745 51.7624C61.3685 51.9356 61.6695 52.256 61.8072 52.7371C62.1001 53.7613 61.9162 54.8402 61.2715 55.574C60.6106 56.3263 59.5337 56.6409 58.2128 56.2541C58.071 56.2125 57.9634 56.0963 57.9331 55.9516C57.7868 55.2553 57.4042 53.8177 56.9018 52.7764C56.7601 52.5986 56.6446 52.3747 56.5567 52.1617C55.6027 50.6362 53.9113 48.3033 51.9249 46.2411C49.9108 44.1501 47.6573 42.4056 45.6035 41.9828C45.3945 41.9398 45.2558 41.7406 45.2879 41.5296ZM57.8989 53.0559C58.2516 53.94 58.5194 54.9154 58.6643 55.5429C59.6205 55.7593 60.2805 55.4866 60.6688 55.0445C61.1032 54.55 61.2673 53.7666 61.0359 52.9577C60.9643 52.7076 60.8287 52.5746 60.6517 52.4968C60.4555 52.4106 60.1817 52.3825 59.8437 52.4179C59.1777 52.4878 58.4131 52.7876 57.8989 53.0559ZM57.5646 52.3067C57.6612 52.2136 57.8344 51.995 58.003 51.5656C58.2187 51.0165 58.4101 50.1609 58.4218 48.8978C58.4301 48.0022 57.9699 47.1484 57.1302 46.344C56.2905 45.5397 55.1056 44.8201 53.7584 44.2051C52.1924 43.4901 50.4381 42.9304 48.8175 42.5447C50.1083 43.383 51.3638 44.5021 52.5027 45.6846C54.545 47.8048 56.2773 50.198 57.2528 51.7619C57.3628 51.9287 57.4668 52.1129 57.5646 52.3067Z" fill="#111111"/>
<path d="M33.1638 0.522152C27.2218 1.9684 25.1324 17.0335 24.8305 24.3852C24.6893 26.7353 22.8378 27.097 14.5045 32.7012C7.83781 37.1846 11.1228 42.7647 13.5986 44.9943C8.82813 46.1995 -0.35059 50.2731 1.09868 56.9259C2.54795 63.5786 9.31121 64.7597 12.5117 64.5187C12.2701 64.8802 12.8015 66.8688 16.8595 71.9307C20.9175 76.9926 27.9706 74.0398 30.9899 71.9307C44.758 84.8023 48.6831 75.8476 48.9246 69.7613C51.8835 71.0268 58.2 71.3522 59.7942 62.5301C61.3884 53.708 51.4005 43.7891 46.2072 39.9325C60.1565 43.5481 50.1927 29.0855 45.1203 23.4813C40.0478 17.8771 40.5913 -1.28566 33.1638 0.522152Z" fill="#00BC68"/>
<path fill-rule="evenodd" clip-rule="evenodd" d="M35.4146 1.11545C34.801 0.800848 34.0966 0.705602 33.2542 0.910624C31.922 1.23488 30.7509 2.33861 29.7371 4.03185C28.7279 5.71733 27.9119 7.92584 27.2651 10.3416C25.9722 15.1705 25.377 20.7436 25.2268 24.4004L25.2264 24.408C25.1875 25.0568 25.0263 25.5962 24.6511 26.1202C24.2874 26.6281 23.7373 27.1 22.9679 27.6483C22.2456 28.163 21.2986 28.7662 20.0794 29.5429C19.9958 29.5961 19.9109 29.6502 19.8248 29.7051C18.4779 30.5633 16.803 31.6346 14.7239 33.0328C13.1016 34.1238 12.1104 35.264 11.557 36.3772C11.0049 37.4878 10.8772 38.5938 11.0163 39.6387C11.2969 41.7465 12.6672 43.6184 13.8626 44.695C13.9727 44.7941 14.0192 44.9458 13.9836 45.0895C13.948 45.2333 13.836 45.3457 13.6925 45.382C11.3395 45.9764 7.9051 47.2785 5.25005 49.2387C2.58776 51.2043 0.812106 53.745 1.48617 56.8392C2.17997 60.0241 4.1365 61.8917 6.31842 62.945C8.51483 64.0052 10.9326 64.2338 12.4771 64.1174C12.6301 64.1059 12.7763 64.1827 12.8536 64.3152C12.9245 64.4365 12.9263 64.585 12.8606 64.7072C12.86 64.7135 12.8595 64.7225 12.8594 64.7348C12.859 64.7892 12.8686 64.8811 12.9031 65.0188C12.972 65.2937 13.1278 65.7037 13.4249 66.276C14.0179 67.4186 15.1475 69.1582 17.168 71.6786C19.0821 74.0661 21.6987 74.5775 24.2544 74.2213C26.8233 73.8632 29.2826 72.6297 30.7558 71.6006C30.911 71.4921 31.121 71.5071 31.2594 71.6364C34.6822 74.8363 37.4648 76.6519 39.7045 77.5015C41.9359 78.348 43.6027 78.2278 44.8434 77.5965C46.0947 76.9597 46.9858 75.7659 47.5814 74.3237C48.1762 72.8833 48.4604 71.2313 48.5194 69.7442C48.5246 69.6123 48.5944 69.4915 48.7059 69.421C48.8175 69.3505 48.9566 69.3394 49.0779 69.3913C50.492 69.996 52.6964 70.3671 54.7172 69.5551C56.7069 68.7556 58.616 66.7686 59.395 62.4575C60.1623 58.2118 58.145 53.6423 55.2168 49.6034C52.2986 45.5783 48.5346 42.1625 45.9637 40.2532C45.8096 40.1388 45.7582 39.9313 45.841 39.7581C45.9238 39.585 46.1177 39.4948 46.3035 39.5429C48.0259 39.9894 49.3511 40.1489 50.3461 40.0918C51.3408 40.0348 51.9685 39.7642 52.3495 39.3885C52.7266 39.0167 52.9179 38.4866 52.9253 37.7883C52.9328 37.0848 52.7518 36.241 52.4148 35.2981C51.0606 31.5099 47.3451 26.5407 44.8185 23.7492C43.4854 22.2764 42.5479 19.9507 41.7685 17.391C41.283 15.7967 40.8478 14.0699 40.4182 12.3651C40.1579 11.3325 39.8997 10.308 39.6336 9.32588C38.9197 6.69096 38.1461 4.34804 37.1127 2.77804C36.5989 1.9975 36.038 1.43506 35.4146 1.11545ZM42.5359 17.1574C43.3133 19.7104 44.2101 21.8817 45.4132 23.2109C47.9591 26.0236 51.7617 31.0878 53.1702 35.0281C53.5238 36.0172 53.7363 36.9615 53.7275 37.7968C53.7186 38.6372 53.4839 39.3966 52.9128 39.9598C52.3455 40.5191 51.5027 40.829 50.3921 40.8927C49.6727 40.934 48.8254 40.8732 47.8378 40.7007C50.311 42.7265 53.3847 45.7097 55.8663 49.1325C58.8318 53.2228 61.0114 58.0238 60.1845 62.6002C59.3693 67.1112 57.323 69.3726 55.0163 70.2995C52.9849 71.1158 50.8278 70.8652 49.2893 70.3321C49.1847 71.7405 48.8871 73.2636 48.3229 74.6299C47.6843 76.1762 46.6883 77.5577 45.2072 78.3114C43.7154 79.0706 41.8043 79.1561 39.4199 78.2516C37.0978 77.3707 34.3031 75.5438 30.9467 72.441C29.3808 73.4803 26.9398 74.6569 24.3651 75.0158C21.625 75.3978 18.686 74.8546 16.5421 72.1803C14.5046 69.6388 13.3396 67.8532 12.7128 66.6456C12.4 66.0429 12.2146 65.5716 12.125 65.2137C12.101 65.1183 12.0831 65.0274 12.0716 64.9417C10.4241 64.9917 8.10718 64.6992 5.96968 63.6674C3.60754 62.5272 1.45781 60.4779 0.702333 57.01C-0.0728749 53.4515 2.0162 50.6291 4.77357 48.5933C7.28653 46.738 10.4403 45.4642 12.8093 44.789C11.6671 43.5949 10.4938 41.7931 10.2211 39.7446C10.0628 38.5554 10.2091 37.2864 10.8387 36.0201C11.4669 34.7564 12.5651 33.5178 14.2762 32.3671C16.3637 30.9633 18.0452 29.8877 19.3937 29.0285C19.4765 28.9758 19.5579 28.9239 19.6381 28.8728C20.8682 28.0892 21.7978 27.497 22.5023 26.995C23.2551 26.4586 23.7152 26.0492 23.9988 25.6532C24.2702 25.2742 24.3935 24.888 24.4254 24.3636C24.5775 20.6686 25.1779 15.0355 26.4902 10.1341C27.1463 7.68388 27.9856 5.39546 29.0488 3.61974C30.1074 1.85177 31.4258 0.530024 33.0645 0.131161C34.079 -0.11577 34.9824 -0.00763669 35.7806 0.401591C36.569 0.805807 37.2238 1.48765 37.7828 2.33697C38.895 4.02667 39.6952 6.48575 40.4079 9.11608C40.6824 10.1291 40.9436 11.1662 41.2048 12.203C41.6297 13.89 42.0545 15.5764 42.5359 17.1574Z" fill="#111111"/>
<path d="M25.846 29.0018C26.0131 31.9974 28.045 34.32 30.3845 34.1895C32.724 34.0591 34.4851 31.5249 34.3181 28.5294C34.151 25.5338 32.1191 23.2112 29.7796 23.3417C27.4401 23.4721 25.679 26.0063 25.846 29.0018Z" fill="white"/>
<path fill-rule="evenodd" clip-rule="evenodd" d="M30.3398 33.3886C28.6158 33.4847 26.8003 31.706 26.647 28.9571C26.4937 26.2083 28.1002 24.2388 29.8243 24.1427C31.5483 24.0465 33.3638 25.8252 33.5171 28.5741C33.6704 31.3229 32.0639 33.2924 30.3398 33.3886ZM30.3845 34.1895C28.045 34.32 26.0131 31.9974 25.846 29.0018C25.679 26.0063 27.4401 23.4721 29.7796 23.3417C32.1191 23.2112 34.151 25.5338 34.3181 28.5294C34.4851 31.5249 32.724 34.0591 30.3845 34.1895Z" fill="#111111"/>
<path d="M26.9826 30.3946C27.0829 32.4924 28.6218 34.1233 30.4198 34.0374C32.2179 33.9514 33.5943 32.1812 33.494 30.0835C33.3938 27.9857 31.8549 26.3548 30.0568 26.4407C28.2587 26.5267 26.8824 28.2969 26.9826 30.3946Z" fill="#111111"/>
<path d="M33.5364 28.5406C33.5125 31.5407 35.2767 33.987 37.4767 34.0045C39.6768 34.022 41.4797 31.6042 41.5036 28.6041C41.5275 25.6039 39.7634 23.1577 37.5633 23.1401C35.3632 23.1226 33.5603 25.5405 33.5364 28.5406Z" fill="white"/>
<path fill-rule="evenodd" clip-rule="evenodd" d="M35.3233 31.9218C34.72 31.0853 34.3279 29.8944 34.3386 28.547C34.3493 27.1996 34.7604 26.0151 35.3769 25.1883C35.9937 24.3611 36.7738 23.9361 37.5569 23.9423C38.34 23.9486 39.1132 24.3859 39.7168 25.2229C40.32 26.0593 40.7121 27.2502 40.7014 28.5977C40.6907 29.9451 40.2796 31.1296 39.6631 31.9564C39.0463 32.7836 38.2662 33.2085 37.4831 33.2023C36.7 33.1961 35.9268 32.7587 35.3233 31.9218ZM37.4767 34.0045C35.2767 33.987 33.5125 31.5407 33.5364 28.5406C33.5603 25.5405 35.3632 23.1226 37.5633 23.1401C39.7634 23.1577 41.5275 25.6039 41.5036 28.6041C41.4797 31.6042 39.6768 34.022 37.4767 34.0045Z" fill="#111111"/>
<path d="M34.3467 29.4137C34.0791 31.4968 35.3096 33.3713 37.095 33.6007C38.8805 33.83 40.5448 32.3273 40.8124 30.2443C41.08 28.1613 39.8495 26.2867 38.064 26.0574C36.2786 25.828 34.6143 27.3307 34.3467 29.4137Z" fill="#111111"/>
<path fill-rule="evenodd" clip-rule="evenodd" d="M38.0845 37.0871C38.4161 37.1079 38.6682 37.3935 38.6474 37.7252C38.6052 38.4014 38.3902 38.9546 38.0402 39.3856C37.6939 39.812 37.2444 40.0834 36.7856 40.2499C35.8855 40.5766 34.8733 40.5291 34.2182 40.3981C33.8923 40.3329 33.681 40.0159 33.7462 39.6901C33.8113 39.3642 34.1283 39.1529 34.4542 39.2181C34.977 39.3227 35.7496 39.3458 36.375 39.1188C36.679 39.0085 36.9275 38.8469 37.1061 38.627C37.2811 38.4115 37.418 38.1047 37.4465 37.6501C37.4672 37.3184 37.7528 37.0664 38.0845 37.0871Z" fill="#111111"/>
<path fill-rule="evenodd" clip-rule="evenodd" d="M27.2226 43.7367C27.9639 42.7404 29.1631 42.1055 30.6904 42.1055C32.5605 42.1055 33.9354 43.7845 34.7028 44.6102C35.472 43.785 36.8488 42.1055 38.7166 42.1055C40.244 42.1055 41.4431 42.7404 42.1845 43.7367C42.9169 44.7208 43.1669 46.0086 42.9114 47.2672C42.4196 49.6905 40.9145 51.5767 35.2488 56.7377C34.94 57.0189 34.4638 57.0189 34.155 56.7377C28.4878 51.5763 26.9874 49.6903 26.4956 47.2672C26.2402 46.0086 26.4902 44.7208 27.2226 43.7367Z" fill="#EC4A57"/>
<path fill-rule="evenodd" clip-rule="evenodd" d="M26.8721 43.496C27.694 42.3916 29.0158 41.7031 30.6618 41.7031C31.7209 41.7031 32.6176 42.1788 33.3275 42.7302C33.8672 43.1493 34.3241 43.6332 34.6746 44.0157C35.0256 43.6334 35.4832 43.1494 36.0232 42.7303C36.7333 42.1791 37.6299 41.7031 38.688 41.7031C40.334 41.7031 41.6558 42.3916 42.4777 43.496L42.1559 43.7354L42.4777 43.496C43.2848 44.5806 43.5517 45.987 43.2759 47.3458C42.7535 49.9196 41.1345 51.8915 35.4902 57.033C35.0284 57.4537 34.3181 57.4537 33.8563 57.033C28.2102 51.8908 26.5962 49.9193 26.0739 47.3458C25.7981 45.987 26.065 44.5806 26.8721 43.496ZM30.6618 42.5053C29.253 42.5053 28.1767 43.0867 27.5157 43.9749C26.8581 44.8585 26.625 46.0277 26.8601 47.1862C27.3213 49.4588 28.7081 51.2592 34.3964 56.4399C34.5521 56.5817 34.7943 56.5817 34.95 56.4399C40.6372 51.2594 42.0285 49.4589 42.4897 47.1862C42.7248 46.0277 42.4917 44.8585 41.8341 43.9749C41.1731 43.0867 40.0968 42.5053 38.688 42.5053C37.8783 42.5053 37.1525 42.8692 36.5151 43.364C35.9774 43.7813 35.5339 44.2655 35.1694 44.6634C35.0993 44.74 35.032 44.8134 34.9676 44.8825L34.6738 45.1977L34.3804 44.8821C34.3171 44.8139 34.251 44.7416 34.1821 44.6662C33.8179 44.2677 33.3741 43.7821 32.8355 43.3638C32.1986 42.8692 31.4727 42.5053 30.6618 42.5053Z" fill="#111111"/>
<path d="M26.7204 45.7608C25.2114 44.7755 25.5238 50.4093 23.2853 50.3748C19.6527 50.3187 19.0603 46.6734 18.9674 46.0064C18.5539 43.0348 18.7406 40.9691 17.7965 40.4367C16.2055 39.5394 14.6321 39.4736 14.0801 39.8307C10.0439 41.3729 10.8371 50.5593 15.0408 55.2088C16.9053 57.2709 22.4999 61.5608 29.1063 57.124C29.6481 57.6372 30.9158 58.2285 32.6412 58.2301C33.8592 58.2312 35.3007 57.1036 35.3421 56.6524C37.0213 56.3247 37.2137 55.605 37.253 54.9422C36.7888 54.7985 34.7253 55.7706 30.567 53.0555C25.3692 49.6617 28.2295 46.7462 26.7204 45.7608Z" fill="#FDFBEF"/>
<path fill-rule="evenodd" clip-rule="evenodd" d="M24.8883 49.7387C24.5458 50.3015 24.036 50.788 23.2705 50.7762C21.2895 50.7456 20.1183 49.723 19.4484 48.6296C18.7902 47.5555 18.61 46.4101 18.5616 46.0621C18.4568 45.3092 18.3903 44.615 18.3347 43.9935C18.3254 43.8896 18.3165 43.788 18.3077 43.6887C18.2637 43.1898 18.2248 42.7481 18.1745 42.3585C18.1141 41.8893 18.0407 41.5272 17.9369 41.2586C17.8346 40.994 17.7174 40.8578 17.5909 40.7864C16.8396 40.3627 16.0981 40.1389 15.4896 40.0616C15.1852 40.0229 14.9206 40.0218 14.7092 40.0472C14.4917 40.0733 14.3567 40.1243 14.2893 40.1679L14.254 40.1907L14.2147 40.2057C13.3454 40.5379 12.7047 41.2909 12.3037 42.3704C11.9018 43.452 11.7551 44.8292 11.862 46.3263C12.0761 49.3252 13.2989 52.6939 15.3298 54.9401C16.2302 55.9359 18.0375 57.4733 20.4075 58.2213C22.7577 58.9631 25.6798 58.9367 28.8741 56.7914L29.1406 56.6125L29.3736 56.8332C29.8252 57.2609 30.986 57.8279 32.633 57.8294C33.1327 57.8298 33.7202 57.592 34.205 57.2754C34.3003 57.2132 34.389 57.1496 34.4697 57.0866C34.1799 57.0902 33.8647 57.0807 33.5293 57.0374C32.8006 56.9433 31.9733 56.6928 31.0096 56.1021C30.8207 55.9864 30.7615 55.7394 30.8772 55.5505C30.993 55.3617 31.24 55.3024 31.4288 55.4182C32.2973 55.9505 33.0169 56.1623 33.6321 56.2417C34.1271 56.3057 34.5532 56.2858 34.9753 56.2662C35.0793 56.2613 35.1832 56.2565 35.2877 56.2529C36.0623 56.0976 36.4228 55.8663 36.6007 55.6608C36.6818 55.5671 36.7361 55.4662 36.7729 55.3547C36.7285 55.359 36.6794 55.3637 36.6239 55.3686C36.2854 55.3984 35.8263 55.4232 35.245 55.3625C34.0797 55.2407 32.4642 54.7793 30.3392 53.3918C29.0041 52.52 28.1623 51.6632 27.6382 50.8379C27.1117 50.0087 26.9191 49.2319 26.8526 48.5439C26.8197 48.2034 26.8179 47.8862 26.8205 47.6038C26.821 47.5443 26.8218 47.4871 26.8224 47.4319C26.8251 47.2175 26.8274 47.0328 26.8181 46.8612C26.7952 46.4412 26.7086 46.2381 26.4926 46.0971C26.4323 46.0577 26.3979 46.049 26.3864 46.0472C26.3805 46.0463 26.3803 46.0466 26.3801 46.0469C26.38 46.047 26.38 46.047 26.3799 46.0471C26.364 46.0538 26.2989 46.0965 26.2033 46.2673C26.0321 46.5729 25.8879 47.049 25.713 47.626C25.693 47.6922 25.6725 47.7598 25.6515 47.8286C25.4583 48.4629 25.2276 49.1811 24.8883 49.7387ZM35.6327 56.999C36.3903 56.8232 36.8916 56.5505 37.2072 56.1859C37.5579 55.7807 37.6236 55.3252 37.6449 54.9664L37.6635 54.6524L37.3631 54.5594C37.2248 54.5166 37.0716 54.5242 36.9668 54.5315C36.8999 54.5361 36.8159 54.5443 36.7284 54.5529C36.6704 54.5586 36.6108 54.5644 36.5535 54.5694C36.2446 54.5966 35.8408 54.6182 35.3284 54.5646C34.3064 54.4578 32.811 54.0476 30.7778 52.7201C29.514 51.8949 28.7641 51.1145 28.3154 50.4079C27.8692 49.7051 27.708 49.0551 27.6511 48.4668C27.6224 48.1692 27.6202 47.8859 27.6227 47.6111C27.6232 47.5595 27.6238 47.5076 27.6245 47.4555C27.6272 47.2381 27.63 47.0187 27.6191 46.8177C27.5914 46.3078 27.4697 45.777 26.9312 45.4254C26.6679 45.2535 26.3652 45.1815 26.0658 45.3089C25.8011 45.4215 25.6256 45.6571 25.5033 45.8753C25.2861 46.2632 25.1142 46.8329 24.9478 47.3843C24.9266 47.4549 24.9054 47.5252 24.8842 47.5947C24.6871 48.2414 24.4818 48.8635 24.203 49.3217C23.9273 49.7748 23.6366 49.9795 23.2829 49.9741C21.6313 49.9486 20.69 49.1205 20.1324 48.2105C19.563 47.2812 19.4005 46.2705 19.3562 45.9515C19.2542 45.2186 19.189 44.5402 19.1337 43.922C19.1247 43.821 19.1159 43.7214 19.1073 43.6232C19.0633 43.1244 19.0227 42.6631 18.9702 42.2559C18.9076 41.7708 18.8248 41.3308 18.6852 40.9695C18.544 40.6042 18.3305 40.2825 17.9849 40.0877C17.1453 39.6141 16.3045 39.3564 15.5906 39.2658C15.2338 39.2205 14.902 39.216 14.6135 39.2507C14.3481 39.2826 14.0949 39.3504 13.8922 39.4704C12.7633 39.9158 12.001 40.8817 11.5517 42.091C11.0985 43.3108 10.9495 44.81 11.0618 46.3834C11.2862 49.5256 12.5619 53.0749 14.7347 55.4781C15.6988 56.5444 17.621 58.1831 20.166 58.9864C22.6677 59.7759 25.7532 59.7507 29.0699 57.6226C29.7768 58.1482 31.0366 58.6302 32.6322 58.6316C33.3506 58.6322 34.0929 58.3068 34.6436 57.9471C34.9235 57.7643 35.1712 57.5616 35.3567 57.3654C35.4493 57.2675 35.5326 57.1648 35.5967 57.0611C35.6088 57.0416 35.6209 57.0209 35.6327 56.999Z" fill="#111111"/>
</svg>
