<svg width="73" height="107" viewBox="0 0 73 107" fill="none" xmlns="http://www.w3.org/2000/svg">
<path d="M56.3281 41.1211C61.5068 42.7283 71.3285 48.0855 70.257 53.0857C69.5915 56.1916 68.4261 57.2283 67.9675 57.3681C69.3933 56.9528 72.2574 56.5907 72.3999 58.4429C72.5785 60.7644 70.6552 62.7287 67.9561 61.3001C67.9514 60.4033 67.8422 58.5057 67.4699 57.0732C67.3561 56.869 67.2735 56.5874 67.2212 56.3C65.6736 52.1333 61.3282 43.264 56.3281 41.1211Z" fill="#FDFBEF"/>
<path fill-rule="evenodd" clip-rule="evenodd" d="M55.9389 40.9852C56.0126 40.7849 56.2303 40.6775 56.4341 40.7408C59.0621 41.5563 62.8525 43.3164 65.8599 45.5097C67.3633 46.6062 68.6915 47.8256 69.5779 49.1074C70.4644 50.3891 70.9359 51.7746 70.6364 53.1725C70.2958 54.7619 69.8223 55.8458 69.3582 56.5604C69.3285 56.6061 69.2987 56.6505 69.2689 56.6935C69.7382 56.6355 70.2305 56.6138 70.6911 56.6588C71.1823 56.7067 71.6762 56.8342 72.0666 57.1106C72.4742 57.3991 72.7422 57.8321 72.787 58.4149C72.8849 59.6873 72.4093 60.9015 71.4864 61.6003C70.544 62.314 69.2165 62.4306 67.7556 61.6574C67.6249 61.5882 67.5429 61.4528 67.5421 61.305C67.5375 60.4312 67.4312 58.6028 67.0805 57.2225C66.9563 56.9817 66.8732 56.6879 66.8204 56.4102C66.0513 54.347 64.5952 51.1321 62.7177 48.1691C60.8187 45.1722 58.5374 42.5126 56.1573 41.4925C55.9611 41.4085 55.8651 41.1855 55.9389 40.9852ZM68.0196 57.7686C68.2398 58.9556 68.3234 60.255 68.3408 61.053C69.4805 61.5853 70.3899 61.4244 71.0021 60.9608C71.671 60.4543 72.0678 59.5255 71.9871 58.4764C71.9607 58.1332 71.8173 57.9169 71.6031 57.7653C71.3719 57.6016 71.0339 57.4983 70.6131 57.4572C69.7724 57.3751 68.7562 57.5554 68.0689 57.7554C68.063 57.7572 68.057 57.7589 68.0511 57.7605L68.0511 57.7606C68.0406 57.7635 68.0301 57.7662 68.0196 57.7686ZM67.871 56.9742C67.8691 56.9721 67.8671 56.9698 67.8651 56.9673C67.8548 56.955 67.8432 56.9393 67.8307 56.9198C67.759 56.6509 67.6769 56.3935 67.5826 56.1582C66.8002 54.0531 65.3161 50.7709 63.3953 47.7397C62.2214 45.8871 60.8659 44.0982 59.3875 42.7336C61.3725 43.6226 63.5355 44.8074 65.3872 46.1579C66.8526 47.2266 68.1026 48.3845 68.9181 49.5637C69.7337 50.743 70.0881 51.9022 69.8519 53.0044C69.527 54.5208 69.0849 55.5083 68.6854 56.1235C68.3131 56.6966 67.9989 56.9162 67.871 56.9742Z" fill="#111111"/>
<path d="M16.2941 94.8659L26.6515 67.1867C31.9373 64.0438 34.6278 67.5443 36.4731 70.4015C34.1517 76.354 28.9372 89.6519 26.6515 95.2235C23.7943 102.188 22.1871 102.724 15.5797 102.724C2.36515 103.259 3.61518 99.8664 8.07957 97.9021C11.6511 96.3306 15.8179 95.6993 16.2941 94.8659Z" fill="#FFEB34"/>
<path d="M45.5805 101.474C45.5805 97.3663 45.0448 80.0445 45.0448 71.6514C46.9496 69.1514 53.453 65.1442 53.9735 71.6514C54.3307 76.1158 49.08 94.4276 58.9737 98.0806C70.5811 102.366 62.1392 104.517 57.3665 105.224C52.5449 105.938 45.5805 106.925 45.5805 101.474Z" fill="#FFEB34"/>
<path fill-rule="evenodd" clip-rule="evenodd" d="M33.0605 66.1973C34.7258 67.0911 35.908 68.7656 36.8284 70.1905C36.8983 70.2987 36.9119 70.4339 36.8651 70.5539C34.544 76.5055 29.3282 89.8069 27.0409 95.3824C25.6141 98.86 24.459 100.851 22.7549 101.931C21.057 103.007 18.8832 103.131 15.6061 103.131C12.2938 103.265 9.8665 103.154 8.15866 102.875C7.30399 102.735 6.61737 102.551 6.08535 102.328C5.55704 102.106 5.15315 101.834 4.89911 101.5C4.63425 101.152 4.54931 100.758 4.63194 100.358C4.71095 99.9753 4.93617 99.6174 5.23272 99.2948C5.82507 98.6502 6.79761 98.0427 7.93632 97.5417C9.61647 96.8024 11.4235 96.2691 12.9045 95.832C13.0225 95.7972 13.1384 95.763 13.2519 95.7293C14.0289 95.4992 14.6893 95.2977 15.184 95.1041C15.4313 95.0073 15.6236 94.9176 15.7625 94.8341C15.8781 94.7646 15.9313 94.7142 15.9529 94.6888L26.2941 67.0528C26.3261 66.9673 26.3863 66.8953 26.4648 66.8486C29.2036 65.2201 31.3488 65.2787 33.0605 66.1973ZM26.9956 67.4673C29.4801 66.0277 31.2872 66.156 32.6811 66.9042C34.0855 67.6579 35.1423 69.0747 36.043 70.4541C33.6858 76.4966 28.5586 89.5692 26.2987 95.0779C24.8682 98.5647 23.7911 100.324 22.3255 101.253C20.8551 102.185 18.9237 102.329 15.598 102.329C15.5926 102.329 15.5872 102.329 15.5818 102.33C12.291 102.463 9.92165 102.351 8.28818 102.083C7.47149 101.95 6.85088 101.779 6.39586 101.588C5.93712 101.396 5.67413 101.194 5.53754 101.014C5.41177 100.849 5.38231 100.691 5.41757 100.52C5.45645 100.332 5.5814 100.101 5.82337 99.8376C6.30805 99.3102 7.16592 98.7571 8.2594 98.2759C9.8903 97.5583 11.6502 97.0388 13.1382 96.5994C13.2538 96.5653 13.3677 96.5317 13.4798 96.4985C14.2505 96.2702 14.9443 96.0594 15.4764 95.8511C15.7425 95.747 15.9818 95.6383 16.1759 95.5216C16.3615 95.41 16.5498 95.2656 16.6607 95.0716C16.6713 95.0529 16.6805 95.0334 16.6881 95.0132L26.9956 67.4673ZM52.8754 68.233C53.726 68.8302 54.2568 69.9398 54.3917 71.6261C54.4394 72.2226 54.3928 73.0281 54.3027 73.9641C54.2284 74.7356 54.1222 75.6158 54.0075 76.5674C53.9822 76.7766 53.9566 76.9893 53.9307 77.205C53.6433 79.6065 53.3323 82.408 53.3168 85.1792C53.3013 87.9544 53.5828 90.6664 54.4603 92.8976C55.3329 95.1163 56.7875 96.8457 59.1309 97.711C62.036 98.7836 63.765 99.7477 64.6011 100.637C65.0264 101.09 65.2603 101.565 65.2437 102.058C65.227 102.551 64.9628 102.963 64.6032 103.295C63.8998 103.946 62.6775 104.435 61.3924 104.804C60.088 105.179 58.6465 105.449 57.4435 105.627C55.0486 105.982 52.0392 106.42 49.6252 106.064C48.4137 105.886 47.3033 105.501 46.4923 104.763C45.6675 104.012 45.1977 102.937 45.1977 101.48C45.1977 99.7948 45.1071 95.8723 45.0003 91.2483C44.9773 90.2547 44.9536 89.2286 44.9299 88.1854C44.796 82.2936 44.6619 75.8601 44.6619 71.6581C44.6619 71.5703 44.6908 71.4849 44.744 71.415C45.2504 70.7503 46.0464 70.0039 46.9571 69.3607C47.8676 68.7176 48.9196 68.1586 49.9457 67.8921C50.9674 67.6269 52.0271 67.6374 52.8754 68.233ZM45.4642 71.7962C45.915 71.2343 46.6102 70.5879 47.42 70.0159C48.2809 69.4079 49.2444 68.9031 50.1473 68.6686C51.0546 68.433 51.8375 68.4845 52.4145 68.8896C52.9893 69.2931 53.4666 70.1228 53.592 71.6901C53.6336 72.2096 53.5941 72.9531 53.5042 73.8872C53.4309 74.6482 53.3262 75.5164 53.2114 76.4677C53.1861 76.6777 53.1603 76.8918 53.1342 77.1097C52.8467 79.5115 52.5304 82.3533 52.5146 85.1747C52.4988 87.9921 52.782 90.822 53.7137 93.1912C54.6504 95.5729 56.2496 97.5023 58.853 98.4635C61.7516 99.5338 63.3202 100.446 64.0166 101.187C64.3576 101.55 64.4488 101.828 64.4419 102.031C64.435 102.233 64.3271 102.458 64.0586 102.706C63.5059 103.217 62.4483 103.666 61.171 104.033C59.9129 104.394 58.5094 104.658 57.326 104.834C54.8994 105.193 52.0158 105.606 49.7422 105.271C48.6099 105.104 47.6778 104.758 47.0323 104.17C46.4006 103.595 45.9999 102.749 45.9999 101.48C45.9999 99.7845 45.909 95.8485 45.8022 91.2246C45.7792 90.232 45.7556 89.2078 45.7319 88.1672C45.5994 82.3375 45.4671 75.9895 45.4642 71.7962Z" fill="#111111"/>
<path d="M42.3606 0.52069C36.5033 1.94929 34.4438 16.8306 34.1461 24.0927C34.007 26.4141 32.1818 26.7714 23.9674 32.3072C17.3958 36.7359 20.6339 42.2479 23.0745 44.4503C18.372 45.6408 9.32414 49.6647 10.7527 56.2363C12.1813 62.8079 18.8482 63.9746 22.003 63.7365C21.7649 64.0936 22.2887 66.058 26.2888 71.0581C30.2889 76.0582 37.2414 73.1415 40.2177 71.0581C53.7894 83.7727 57.6586 74.9272 57.8967 68.9152C60.8134 70.1652 67.0397 70.4866 68.6112 61.7722C70.1827 53.0577 60.3372 43.2598 55.218 39.4502C68.9684 43.0217 59.1467 28.7356 54.1466 23.1998C49.1465 17.6639 49.6822 -1.26506 42.3606 0.52069Z" fill="#00BC68"/>
<path fill-rule="evenodd" clip-rule="evenodd" d="M44.5841 1.11093C43.9807 0.800902 43.2879 0.70694 42.459 0.909117C41.1481 1.22884 39.9948 2.31749 38.9956 3.98975C38.0011 5.65415 37.1969 7.83527 36.5594 10.2214C35.285 14.991 34.6983 20.4958 34.5503 24.1078L34.5499 24.1154C34.5114 24.7569 34.3524 25.2905 33.9819 25.809C33.6229 26.3114 33.0801 26.778 32.3215 27.3197C31.6094 27.8282 30.6758 28.4241 29.4741 29.1912C29.3917 29.2438 29.3079 29.2972 29.2229 29.3515C27.8953 30.1992 26.2443 31.2574 24.1949 32.6386C22.5964 33.7158 21.6201 34.8414 21.0749 35.9402C20.5311 37.0364 20.4053 38.128 20.5424 39.1595C20.8188 41.2402 22.1688 43.0884 23.3466 44.1513C23.4564 44.2504 23.5028 44.402 23.4671 44.5456C23.4315 44.6893 23.3197 44.8016 23.1763 44.8379C20.8574 45.425 17.4728 46.7109 14.8564 48.6466C12.2329 50.5875 10.4841 53.0957 11.1481 56.1499C11.8317 59.2944 13.7592 61.138 15.9086 62.1777C18.0725 63.2244 20.4546 63.4501 21.9762 63.3353C22.1291 63.3237 22.2752 63.4004 22.3526 63.5328C22.4234 63.6538 22.4254 63.8019 22.3603 63.9239C22.3598 63.93 22.3593 63.9385 22.3592 63.95C22.3588 64.0033 22.3682 64.0937 22.4022 64.2295C22.47 64.5006 22.6234 64.9052 22.9161 65.4704C23.5005 66.5987 24.6138 68.3168 26.6054 70.8063C28.4906 73.1628 31.0674 73.6676 33.5851 73.3159C36.1161 72.9624 38.5394 71.7444 39.991 70.7282C40.1465 70.6194 40.3569 70.6344 40.4953 70.7641C43.869 73.9248 46.6114 75.7177 48.818 76.5565C51.0164 77.3921 52.6575 77.2732 53.8785 76.6505C55.1103 76.0224 55.988 74.8444 56.5749 73.4202C57.161 71.9981 57.4411 70.3667 57.4992 68.8981C57.5045 68.7661 57.5743 68.6452 57.6859 68.5748C57.7975 68.5043 57.9367 68.4932 58.058 68.5452C59.451 69.1422 61.622 69.5083 63.612 68.707C65.5709 67.9182 67.4521 65.9573 68.2198 61.6997C68.9758 57.5074 66.9882 52.9949 64.102 49.0057C61.2257 45.0302 57.5158 41.6564 54.9819 39.7707C54.828 39.6562 54.7768 39.4486 54.8597 39.2756C54.9426 39.1026 55.1365 39.0125 55.3223 39.0607C57.0198 39.5017 58.3253 39.659 59.3053 39.6027C60.2848 39.5464 60.9018 39.2795 61.2761 38.9097C61.6466 38.5436 61.835 38.0213 61.8423 37.3321C61.8497 36.6379 61.6715 35.805 61.3393 34.8738C60.0048 31.1327 56.3427 26.2247 53.8523 23.4674C52.5374 22.0116 51.6131 19.7134 50.8448 17.185C50.3662 15.61 49.9372 13.9041 49.5136 12.22C49.2571 11.2 49.0026 10.1881 48.7403 9.21807C48.0366 6.61525 47.2742 4.30156 46.2559 2.75141C45.7497 1.98077 45.1974 1.42603 44.5841 1.11093ZM51.6124 16.9517C52.3787 19.4736 53.2625 21.6175 54.4476 22.9297C56.9573 25.7082 60.7062 30.7112 62.0949 34.6042C62.4435 35.5816 62.6532 36.5148 62.6445 37.3406C62.6357 38.1714 62.4042 38.9229 61.84 39.4804C61.2795 40.0341 60.4471 40.3406 59.3513 40.4036C58.6463 40.4441 57.8169 40.3851 56.8512 40.2173C59.2871 42.2183 62.3102 45.1605 64.752 48.5355C67.6754 52.5763 69.8248 57.3199 69.0093 61.8421C68.2056 66.299 66.1878 68.5346 63.9116 69.4512C61.9106 70.2569 59.7862 70.0113 58.2691 69.486C58.1655 70.8758 57.8721 72.378 57.3166 73.7259C56.687 75.2539 55.7045 76.6198 54.2429 77.3652C52.7703 78.1161 50.8846 78.2003 48.533 77.3064C46.2438 76.4361 43.4894 74.632 40.1822 71.5688C38.6379 72.5951 36.2329 73.756 33.696 74.1104C30.9933 74.4879 28.0938 73.951 25.979 71.3074C23.9704 68.7967 22.8218 67.0326 22.2038 65.8394C21.8953 65.2439 21.7124 64.778 21.6239 64.424C21.6007 64.3313 21.5832 64.2429 21.5719 64.1594C19.9473 64.2081 17.665 63.9185 15.5592 62.8999C13.2294 61.7728 11.1092 59.7474 10.3642 56.3203C9.59951 52.8029 11.6603 50.0133 14.3793 48.0017C16.8543 46.1706 19.9596 44.9128 22.2945 44.2451C21.1696 43.065 20.0157 41.2867 19.7471 39.2652C19.591 38.0898 19.7353 36.8354 20.3563 35.5837C20.976 34.3345 22.0592 33.1104 23.7466 31.9733C25.8044 30.5865 27.462 29.5241 28.7912 28.6754C28.8727 28.6233 28.9529 28.5721 29.0319 28.5217C30.2446 27.7476 31.1609 27.1627 31.8553 26.6668C32.5971 26.1371 33.0501 25.7331 33.3292 25.3426C33.5961 24.9691 33.7174 24.5885 33.7489 24.0711C33.8987 20.421 34.4907 14.8563 35.7844 10.0143C36.4311 7.5938 37.2586 5.33286 38.3069 3.57828C39.3506 1.83156 40.6512 0.524322 42.2689 0.129745C43.2704 -0.114518 44.1625 -0.00758166 44.9507 0.397385C45.7291 0.797293 46.3751 1.47165 46.9264 2.31099C48.0232 3.98077 48.8122 6.41049 49.5147 9.00868C49.7854 10.0096 50.0429 11.0341 50.3003 12.0583C50.7192 13.7246 51.1378 15.3901 51.6124 16.9517Z" fill="#111111"/>
<path d="M35.1855 28.7211C35.3502 31.6752 37.3541 33.9658 39.6612 33.8371C41.9684 33.7085 43.7052 31.2094 43.5405 28.2552C43.3757 25.3011 41.3719 23.0105 39.0647 23.1392C36.7576 23.2678 35.0208 25.7669 35.1855 28.7211Z" fill="white"/>
<path fill-rule="evenodd" clip-rule="evenodd" d="M39.6166 33.0361C37.9248 33.1305 36.1375 31.3838 35.9865 28.6764C35.8355 25.969 37.4176 24.0345 39.1094 23.9402C40.8011 23.8458 42.5885 25.5925 42.7395 28.2999C42.8904 31.0073 41.3083 32.9418 39.6166 33.0361ZM39.6612 33.8371C37.3541 33.9658 35.3502 31.6752 35.1855 28.7211C35.0208 25.7669 36.7576 23.2678 39.0647 23.1392C41.3719 23.0105 43.3757 25.3011 43.5405 28.2552C43.7052 31.2094 41.9684 33.7085 39.6612 33.8371Z" fill="#111111"/>
<path d="M36.3279 30.0917C36.4268 32.1605 37.9444 33.7689 39.7176 33.6841C41.4909 33.5994 42.8482 31.8536 42.7493 29.7849C42.6505 27.7161 41.1328 26.1078 39.3596 26.1925C37.5864 26.2772 36.2291 28.023 36.3279 30.0917Z" fill="#111111"/>
<path d="M42.7878 28.2633C42.7642 31.2219 44.504 33.6344 46.6736 33.6517C48.8433 33.6689 50.6213 31.2845 50.6448 28.3258C50.6684 25.3672 48.9286 22.9547 46.759 22.9375C44.5893 22.9202 42.8113 25.3046 42.7878 28.2633Z" fill="white"/>
<path fill-rule="evenodd" clip-rule="evenodd" d="M44.5589 31.5912C43.9655 30.7684 43.5794 29.5963 43.5899 28.2697C43.6005 26.943 44.0053 25.7772 44.6117 24.9639C45.2184 24.1502 45.9847 23.7335 46.7526 23.7397C47.5205 23.7458 48.28 24.1746 48.8737 24.9979C49.4671 25.8207 49.8532 26.9928 49.8426 28.3195C49.8321 29.6461 49.4273 30.8119 48.8209 31.6252C48.2141 32.4389 47.4479 32.8556 46.68 32.8495C45.9121 32.8433 45.1526 32.4145 44.5589 31.5912ZM46.6736 33.6517C44.504 33.6344 42.7642 31.2219 42.7878 28.2633C42.8113 25.3046 44.5893 22.9202 46.759 22.9375C48.9286 22.9547 50.6684 25.3672 50.6448 28.3258C50.6213 31.2845 48.8433 33.6689 46.6736 33.6517Z" fill="#111111"/>
<path d="M43.5834 29.1231C43.3195 31.1773 44.533 33.026 46.2937 33.2522C48.0545 33.4783 49.6958 31.9964 49.9597 29.9422C50.2236 27.8879 49.0101 26.0393 47.2493 25.8131C45.4886 25.5869 43.8473 27.0689 43.5834 29.1231Z" fill="#111111"/>
<path d="M38.437 37.3665C40.5677 36.3113 39.8501 37.5846 39.225 38.3532C39.5872 40.1307 40.9845 43.9768 43.6762 45.1407C46.3678 46.3046 48.2802 41.2252 47.8641 38.1837C47.5092 38.144 46.3809 37.829 46.7013 37.3348C46.9185 36.9998 47.8854 36.3893 48.97 36.331C50.0565 36.2725 49.1002 37.843 48.574 38.2632C49.1841 39.7691 48.5819 42.9406 47.0021 45.495C45.0274 48.6881 42.4127 46.7962 41.0141 44.8427C39.8953 43.2799 38.7239 40.1539 38.2781 38.7863C37.4433 38.7527 36.3063 38.4217 38.437 37.3665Z" fill="#111111"/>
<path d="M13.7711 27.2738C13.6474 32.2235 21.4034 36.1937 24.9102 37.328C26.612 38.4106 25.9932 40.731 24.9102 43.6699C23.8272 46.6087 20.1142 46.454 15.1634 43.2058C3.71485 34.0798 5.1074 29.2849 4.48848 25.5726C3.90342 22.0635 2.78663 20.778 1.39423 19.6953C0.0018326 18.6125 0.620699 12.5802 2.0131 10.1053C3.12702 8.12547 10.3675 9.48662 10.3675 9.48662C10.3675 9.48662 10.2128 5.15556 12.0693 4.69141C15.1634 4.69143 13.9259 21.0868 13.7711 27.2738Z" fill="#FDFBEF"/>
<path fill-rule="evenodd" clip-rule="evenodd" d="M11.9669 4.29713C11.9987 4.28918 12.0314 4.28516 12.0642 4.28516C12.6618 4.28516 13.0879 4.69011 13.3806 5.20447C13.6748 5.72149 13.8897 6.43662 14.051 7.2684C14.3748 8.93921 14.5054 11.2119 14.5345 13.6526C14.5749 17.0433 14.4188 20.8191 14.294 23.8372C14.2392 25.1628 14.1904 26.3423 14.167 27.2787C14.1104 29.542 15.8672 31.6632 18.2131 33.4044C20.5349 35.1277 23.3102 36.3854 25.0285 36.9412C25.0608 36.9517 25.0917 36.9662 25.1204 36.9844C26.1392 37.6326 26.433 38.6564 26.3495 39.8263C26.2675 40.9734 25.8213 42.3384 25.2814 43.8034C24.9832 44.6128 24.4937 45.2316 23.8284 45.6324C23.167 46.0308 22.3633 46.1949 21.4637 46.1535C19.6764 46.0714 17.4384 45.1764 14.9382 43.536C14.9279 43.5293 14.9179 43.522 14.9082 43.5143C9.15377 38.9273 6.58463 35.396 5.38907 32.5073C4.79111 31.0625 4.54259 29.7923 4.40427 28.6538C4.34609 28.1749 4.30718 27.7169 4.27045 27.2844C4.26378 27.2058 4.25717 27.1281 4.25054 27.0512C4.20705 26.5473 4.1622 26.0804 4.08769 25.6335C3.80046 23.9107 3.38735 22.7627 2.89319 21.9222C2.40165 21.0861 1.81622 20.5304 1.14287 20.0068C0.894296 19.8135 0.717028 19.5321 0.588403 19.2226C0.458528 18.9101 0.367216 18.5422 0.306093 18.1438C0.183847 17.3468 0.175513 16.3808 0.25437 15.3855C0.411202 13.406 0.921478 11.2133 1.65838 9.90351C2.03282 9.23798 2.86346 8.92671 3.71201 8.77353C4.5911 8.61484 5.63541 8.60077 6.62195 8.64773C7.61268 8.6949 8.56534 8.80476 9.26879 8.90244C9.53956 8.94004 9.77404 8.97592 9.96033 9.00589C9.96161 8.93738 9.96354 8.86294 9.96633 8.78343C9.98122 8.35924 10.021 7.78447 10.1216 7.19089C10.2215 6.60171 10.3852 5.97002 10.6596 5.4454C10.9334 4.92213 11.347 4.45211 11.9669 4.29713ZM10.7603 9.26946C10.8311 9.32157 10.9183 9.389 11.0143 9.47031C11.2538 9.67329 11.5609 9.97377 11.7993 10.349C12.038 10.7246 12.2233 11.2005 12.1714 11.7385C12.1256 12.2126 11.9005 12.6844 11.4593 13.1375C11.7124 13.7746 11.9171 14.6164 11.8407 15.4275C11.7964 15.8979 11.656 16.3718 11.3617 16.7861C11.1581 17.0728 10.8885 17.3199 10.5463 17.5148C10.7536 17.7759 10.9465 18.0556 11.0858 18.3414C11.301 18.7825 11.4232 19.3122 11.1751 19.8197C10.9325 20.3159 10.3937 20.6679 9.59366 20.9066C8.78431 21.1481 7.63173 21.2971 6.03824 21.3283L6.02252 20.5263C7.58513 20.4956 8.65523 20.3494 9.36429 20.1379C10.0826 19.9235 10.358 19.6645 10.4544 19.4673C10.5454 19.2812 10.5316 19.035 10.3648 18.6931C10.2126 18.3809 9.96128 18.0506 9.67591 17.724C8.81607 17.4879 7.72211 17.293 6.66854 17.2524C5.55329 17.2093 4.55295 17.3423 3.91179 17.7162L3.50764 17.0232C4.3517 16.531 5.54307 16.4061 6.69947 16.4508C7.81778 16.4939 8.9688 16.6986 9.87939 16.948C10.2703 16.7893 10.5321 16.5688 10.7077 16.3215C10.9024 16.0475 11.0077 15.7171 11.042 15.3523C11.1067 14.6653 10.9147 13.9064 10.6738 13.3361C10.616 13.3089 10.5404 13.2739 10.4497 13.2334C10.2256 13.1332 9.91157 12.9999 9.55216 12.8673C8.8197 12.597 7.94993 12.3495 7.2728 12.3574C6.62146 12.365 5.78771 12.613 5.08648 12.8789C4.74237 13.0094 4.44189 13.1396 4.22759 13.2371C4.12057 13.2858 4.0354 13.3262 3.97743 13.3542C3.94845 13.3682 3.92629 13.3791 3.91163 13.3863L3.89534 13.3944L3.89157 13.3963L3.89081 13.3967L3.89074 13.3967C3.89077 13.3967 3.89081 13.3967 3.70971 13.0388C3.52862 12.6809 3.52868 12.6809 3.52874 12.6808L3.52891 12.6807L3.52939 12.6805L3.53092 12.6797L3.53626 12.677L3.55581 12.6673C3.5727 12.659 3.59721 12.6469 3.62865 12.6318C3.69152 12.6014 3.78223 12.5584 3.89534 12.5069C4.12129 12.4041 4.43808 12.2669 4.80203 12.1288C5.51689 11.8577 6.46236 11.5645 7.26347 11.5552C8.09664 11.5455 9.08338 11.8392 9.82984 12.1146C10.2099 12.2549 10.5409 12.3954 10.7771 12.501C10.8228 12.5215 10.8651 12.5406 10.9035 12.5582C11.2292 12.2175 11.3485 11.9137 11.3729 11.6613C11.4021 11.3584 11.3012 11.0609 11.1222 10.7792C10.943 10.4971 10.7009 10.2563 10.4956 10.0823C10.3943 9.99646 10.3053 9.92962 10.2424 9.88483C10.2302 9.87613 10.219 9.86828 10.209 9.86131C10.157 9.85208 10.0807 9.83878 9.98314 9.82252C9.78603 9.78967 9.50247 9.7448 9.15846 9.69704C8.46951 9.60137 7.54243 9.49468 6.5838 9.44905C5.62098 9.40321 4.64631 9.42006 3.85452 9.56299C3.0322 9.71143 2.54005 9.97247 2.35754 10.2969C1.70204 11.4619 1.20668 13.5228 1.05408 15.4489C0.978224 16.4063 0.989223 17.3062 1.09904 18.0221C1.15395 18.3801 1.23185 18.6805 1.3292 18.9148C1.42781 19.1521 1.53579 19.2961 1.63532 19.3735C2.35436 19.9326 3.02353 20.561 3.58475 21.5156C4.14335 22.4658 4.58117 23.7152 4.87899 25.5015C4.95921 25.9827 5.00623 26.4776 5.04978 26.9822C5.05659 27.061 5.06331 27.1401 5.07005 27.2195C5.10681 27.6521 5.14435 28.0938 5.20063 28.5571C5.33305 29.6469 5.56797 30.8418 6.13031 32.2005C7.25439 34.9165 9.71003 38.3423 15.3938 42.8754C17.8377 44.4765 19.9261 45.2798 21.5005 45.3521C22.2833 45.3881 22.9204 45.2429 23.4145 44.9452C23.9047 44.6499 24.2855 44.1861 24.5287 43.526C25.0718 42.0521 25.4765 40.7875 25.5493 39.7691C25.619 38.7934 25.3826 38.1232 24.7306 37.6879C22.9392 37.1015 20.1143 35.8146 17.735 34.0486C15.3572 32.2837 13.2978 29.945 13.365 27.2587C13.389 26.3002 13.4384 25.106 13.4937 23.7703C13.6182 20.7602 13.7724 17.0315 13.7323 13.6621C13.7034 11.2306 13.5729 9.01772 13.2634 7.42105C13.1079 6.6191 12.9131 6.005 12.6834 5.60122C12.472 5.2297 12.2766 5.10803 12.1103 5.08987C11.8238 5.18042 11.5776 5.42132 11.3705 5.81727C11.1518 6.23526 11.006 6.77337 10.9125 7.32498C10.8198 7.87218 10.7822 8.40918 10.7681 8.81157C10.7615 8.99909 10.76 9.15604 10.7603 9.26946Z" fill="#111111"/>
</svg>
