<svg width="105" height="107" viewBox="0 0 105 107" fill="none" xmlns="http://www.w3.org/2000/svg">
<path d="M102.668 16.518C103.46 16.9158 103.779 17.8802 103.381 18.6719L96.367 32.6326C95.9692 33.4244 95.0048 33.7438 94.213 33.346L87.2492 29.8472C86.4574 29.4494 86.138 28.485 86.5359 27.6932L93.5501 13.7325C93.948 12.9407 94.9123 12.6213 95.7041 13.0192L102.668 16.518Z" fill="#2BB560"/>
<path fill-rule="evenodd" clip-rule="evenodd" d="M95.6501 32.2725L102.664 18.3118C102.863 17.9159 102.704 17.4337 102.308 17.2348L95.344 13.736C94.9481 13.5371 94.4659 13.6968 94.267 14.0927L87.2527 28.0534C87.0538 28.4493 87.2135 28.9314 87.6094 29.1303L94.5732 32.6292C94.969 32.8281 95.4512 32.6684 95.6501 32.2725ZM103.381 18.6719C103.779 17.8802 103.46 16.9158 102.668 16.518L95.7041 13.0192C94.9123 12.6213 93.948 12.9407 93.5501 13.7325L86.5359 27.6932C86.138 28.485 86.4574 29.4494 87.2492 29.8472L94.213 33.346C95.0048 33.7438 95.9692 33.4244 96.367 32.6326L103.381 18.6719Z" fill="#111111"/>
<path d="M101.252 19.8078C99.7993 19.0781 100.074 17.7 100.393 17.1022L96.7171 15.2555C96.0407 16.6017 94.6167 16.4187 93.9892 16.1589L88.8273 26.4328C89.9964 27.0202 89.9018 28.5257 89.7084 29.205L93.384 31.0517C94.0604 29.7055 95.4698 29.8442 96.0899 30.0818L101.252 19.8078Z" fill="#0E753E"/>
<path d="M93.7483 26.022C92.2563 25.2724 91.6546 23.4553 92.4041 21.9634C93.1537 20.4715 94.9708 19.8697 96.4627 20.6193C97.9546 21.3689 98.5564 23.186 97.8068 24.6779C97.0572 26.1698 95.2402 26.7716 93.7483 26.022Z" fill="#A6D8BB"/>
<path d="M97.1434 19.295C96.6297 19.037 96.4226 18.4114 96.6806 17.8978C96.9387 17.3842 97.5642 17.177 98.0778 17.4351C98.5915 17.6932 98.7986 18.3187 98.5406 18.8323C98.2825 19.3459 97.657 19.5531 97.1434 19.295Z" fill="#A6D8BB"/>
<path d="M92.2371 29.0294C91.7235 28.7714 91.5163 28.1458 91.7744 27.6322C92.0324 27.1186 92.658 26.9114 93.1716 27.1695C93.6852 27.4275 93.8924 28.0531 93.6343 28.5667C93.3763 29.0803 92.7507 29.2875 92.2371 29.0294Z" fill="#A6D8BB"/>
<path fill-rule="evenodd" clip-rule="evenodd" d="M96.6549 24.321L96.8329 23.9668L96.5301 23.8146C96.584 23.6657 96.6101 23.5207 96.6083 23.3797C96.6063 23.2198 96.5676 23.0769 96.4923 22.9509C96.4181 22.8256 96.3118 22.7281 96.1734 22.6586C95.8309 22.4865 95.4895 22.5995 95.1494 22.9977L95.0759 23.084L94.4155 22.7522C94.4793 22.6712 94.5522 22.6148 94.6342 22.5829C94.7341 22.545 94.8403 22.5492 94.9528 22.5956L95.2065 22.0905C94.954 21.9722 94.7179 21.9576 94.4984 22.0467C94.2943 22.1295 94.1185 22.2902 93.971 22.5288L93.6445 22.3648L93.4665 22.7191L93.7966 22.8849C93.741 23.0343 93.7124 23.1754 93.7107 23.3083C93.7098 23.4711 93.7462 23.6143 93.8198 23.7379C93.8946 23.8622 94.0041 23.9605 94.1483 24.0329C94.346 24.1309 94.5379 24.1428 94.7239 24.0687C94.9111 23.9952 95.0894 23.8558 95.2589 23.6507L95.2774 23.6289L95.8993 23.9414C95.8537 23.988 95.8036 24.0215 95.7491 24.0421C95.6659 24.0754 95.579 24.0744 95.4885 24.039L95.2382 24.5372C95.3777 24.6044 95.5196 24.631 95.664 24.6168C95.8083 24.6027 95.9443 24.549 96.072 24.4557C96.1754 24.3814 96.2675 24.2851 96.3483 24.167L96.6549 24.321ZM94.25 23.1127L94.803 23.3906C94.7427 23.4469 94.6864 23.4867 94.6341 23.5101C94.559 23.5446 94.4851 23.5436 94.4125 23.5071C94.3317 23.4665 94.2794 23.4012 94.2553 23.3111C94.239 23.2502 94.2373 23.1841 94.25 23.1127ZM96.0847 23.5909L95.548 23.3212C95.6079 23.2651 95.6659 23.2243 95.7221 23.1988C95.7937 23.1683 95.8653 23.1711 95.9368 23.207C96.0095 23.2435 96.0578 23.301 96.0819 23.3796C96.101 23.4419 96.102 23.5123 96.0847 23.5909Z" fill="#0E753E"/>
<path d="M92.5215 11.9092C93.4071 11.8795 94.1491 12.5734 94.1787 13.459L94.7019 29.074C94.7316 29.9596 94.0377 30.7016 93.1521 30.7313L85.3631 30.9922C84.4775 31.0219 83.7355 30.328 83.7058 29.4424L83.1827 13.8274C83.153 12.9418 83.8469 12.1998 84.7325 12.1702L92.5215 11.9092Z" fill="#2BB560"/>
<path fill-rule="evenodd" clip-rule="evenodd" d="M93.9001 29.1009L93.377 13.4859C93.3621 13.0431 92.9911 12.6961 92.5483 12.711L84.7594 12.9719C84.3166 12.9868 83.9696 13.3578 83.9844 13.8006L84.5076 29.4155C84.5224 29.8583 84.8934 30.2053 85.3362 30.1905L93.1252 29.9295C93.568 29.9147 93.915 29.5437 93.9001 29.1009ZM94.1787 13.459C94.1491 12.5734 93.4071 11.8795 92.5215 11.9092L84.7325 12.1702C83.8469 12.1998 83.153 12.9418 83.1827 13.8274L83.7058 29.4424C83.7355 30.328 84.4775 31.0219 85.3631 30.9922L93.1521 30.7313C94.0377 30.7016 94.7316 29.9596 94.7019 29.074L94.1787 13.459Z" fill="#111111"/>
<path d="M92.8493 15.48C91.2246 15.5345 90.8061 14.1931 90.8 13.5156L86.6888 13.6533C86.7393 15.1591 85.4014 15.68 84.7261 15.7522L85.1111 27.2435C86.4187 27.1997 87.0563 28.5668 87.2116 29.2558L91.3227 29.1181C91.2723 27.6123 92.5761 27.0596 93.2343 26.9714L92.8493 15.48Z" fill="#0E753E"/>
<path d="M89.2357 24.523C87.567 24.5789 86.169 23.2715 86.113 21.6028C86.0571 19.9341 87.3646 18.536 89.0333 18.4801C90.7019 18.4242 92.1 19.7316 92.1559 21.4003C92.2118 23.069 90.9044 24.4671 89.2357 24.523Z" fill="#A6D8BB"/>
<path d="M88.9905 16.998C88.416 17.0172 87.9347 16.5671 87.9155 15.9927C87.8962 15.4182 88.3463 14.9369 88.9208 14.9177C89.4952 14.8984 89.9765 15.3485 89.9958 15.923C90.015 16.4974 89.5649 16.9787 88.9905 16.998Z" fill="#A6D8BB"/>
<path d="M89.3733 27.8925C88.7988 27.9118 88.3175 27.4617 88.2983 26.8872C88.279 26.3127 88.7291 25.8314 89.3036 25.8122C89.8781 25.7929 90.3594 26.243 90.3786 26.8175C90.3978 27.392 89.9478 27.8733 89.3733 27.8925Z" fill="#A6D8BB"/>
<path fill-rule="evenodd" clip-rule="evenodd" d="M90.9981 21.6432L90.9848 21.2469L90.646 21.2583C90.6221 21.1016 90.5756 20.9617 90.5065 20.8387C90.4282 20.6993 90.3259 20.5923 90.1994 20.5178C90.0742 20.4432 89.9342 20.4085 89.7795 20.4137C89.3964 20.4265 89.1508 20.6892 89.0427 21.2016L89.0194 21.3128L88.2807 21.3375C88.298 21.2358 88.335 21.1513 88.3918 21.0839C88.4614 21.0028 88.5566 20.9557 88.6776 20.9426L88.6587 20.3777C88.3803 20.3947 88.1661 20.4949 88.0159 20.6781C87.8763 20.8486 87.7988 21.0739 87.7836 21.3542L87.4185 21.3664L87.4318 21.7627L87.8009 21.7503C87.8237 21.908 87.8661 22.0455 87.9282 22.1629C88.0053 22.3062 88.1058 22.4145 88.2296 22.4879C88.3547 22.5612 88.4979 22.5951 88.6592 22.5897C88.8797 22.581 89.0539 22.4996 89.1817 22.3456C89.3109 22.1914 89.4007 21.9838 89.4514 21.7225L89.4571 21.6948L90.1527 21.6715C90.135 21.7341 90.1071 21.7875 90.0691 21.8316C90.012 21.9006 89.9352 21.9413 89.8388 21.9536L89.8575 22.5108C90.0122 22.503 90.1495 22.4584 90.2694 22.3769C90.3894 22.2954 90.4831 22.1832 90.5506 22.0401C90.6058 21.9255 90.6406 21.797 90.655 21.6547L90.9981 21.6432ZM88.3082 21.7333L88.9264 21.7126C88.9005 21.7908 88.8702 21.8526 88.8355 21.8981C88.7861 21.9643 88.7207 21.9988 88.6395 22.0015C88.5492 22.0045 88.4719 21.9723 88.4076 21.9047C88.3643 21.8591 88.3311 21.8019 88.3082 21.7333ZM90.1479 21.275L89.5474 21.2951C89.5731 21.217 89.6046 21.1533 89.6418 21.104C89.6901 21.043 89.7543 21.0112 89.8342 21.0085C89.9155 21.0057 89.9855 21.0331 90.0443 21.0905C90.0909 21.1361 90.1255 21.1976 90.1479 21.275Z" fill="#0E753E"/>
<path d="M83.6543 13.6277C84.4752 13.294 85.4112 13.6889 85.7449 14.5097L91.6295 28.9829C91.9632 29.8038 91.5683 30.7398 90.7475 31.0735L83.528 34.0088C82.7072 34.3425 81.7712 33.9477 81.4374 33.1268L75.5529 18.6536C75.2192 17.8327 75.614 16.8968 76.4349 16.563L83.6543 13.6277Z" fill="#2BB560"/>
<path fill-rule="evenodd" clip-rule="evenodd" d="M90.8863 29.2851L85.0018 14.8119C84.8349 14.4014 84.3669 14.204 83.9565 14.3709L76.7371 17.3062C76.3266 17.473 76.1292 17.941 76.2961 18.3515L82.1806 32.8247C82.3475 33.2351 82.8155 33.4325 83.2259 33.2657L90.4453 30.3304C90.8557 30.1635 91.0532 29.6955 90.8863 29.2851ZM85.7449 14.5097C85.4112 13.6889 84.4752 13.294 83.6543 13.6277L76.4349 16.563C75.614 16.8968 75.2192 17.8327 75.5529 18.6536L81.4374 33.1268C81.7712 33.9477 82.7072 34.3425 83.528 34.0088L90.7475 31.0735C91.5683 30.7398 91.9632 29.8038 91.6295 28.9829L85.7449 14.5097Z" fill="#111111"/>
<path d="M85.2028 16.8511C83.697 17.4633 82.8409 16.3491 82.6011 15.7154L78.7906 17.2647C79.358 18.6603 78.2823 19.6113 77.6736 19.9123L82.0041 30.5634C83.2161 30.0706 84.2866 31.1334 84.6704 31.7263L88.4809 30.177C87.9135 28.7814 88.9461 27.8123 89.5333 27.5022L85.2028 16.8511Z" fill="#0E753E"/>
<path d="M84.9455 26.5912C83.3988 27.2201 81.6352 26.476 81.0064 24.9293C80.3775 23.3827 81.1216 21.619 82.6682 20.9902C84.2149 20.3613 85.9785 21.1054 86.6074 22.6521C87.2362 24.1987 86.4922 25.9624 84.9455 26.5912Z" fill="#A6D8BB"/>
<path d="M82.1089 19.6132C81.5765 19.8297 80.9693 19.5735 80.7528 19.0411C80.5363 18.5086 80.7925 17.9014 81.325 17.685C81.8574 17.4685 82.4646 17.7246 82.6811 18.2571C82.8975 18.7895 82.6414 19.3967 82.1089 19.6132Z" fill="#A6D8BB"/>
<path d="M86.2183 29.7186C85.6858 29.9351 85.0787 29.679 84.8622 29.1465C84.6457 28.6141 84.9019 28.0069 85.4343 27.7904C85.9668 27.5739 86.5739 27.8301 86.7904 28.3625C87.0069 28.895 86.7508 29.5022 86.2183 29.7186Z" fill="#A6D8BB"/>
<path fill-rule="evenodd" clip-rule="evenodd" d="M85.5847 23.2927L85.4353 22.9254L85.1173 23.0547C85.0405 22.9153 84.9483 22.7996 84.8406 22.7077C84.719 22.6039 84.586 22.5388 84.4416 22.5126C84.2983 22.4858 84.155 22.5016 84.0115 22.56C83.6564 22.7043 83.5167 23.0356 83.5922 23.5538L83.609 23.6679L82.9244 23.9463C82.9051 23.8442 82.9106 23.7515 82.9407 23.6682C82.978 23.5681 83.0512 23.491 83.1602 23.4369L82.9472 22.9132C82.6919 23.0254 82.5255 23.1934 82.4479 23.4172C82.3756 23.6258 82.3809 23.8646 82.4638 24.1336L82.1298 24.2694L82.2791 24.6367L82.6172 24.4992C82.6929 24.6386 82.7799 24.7525 82.8784 24.8409C83.0002 24.9488 83.1319 25.0157 83.2735 25.0418C83.4162 25.0673 83.5623 25.0497 83.7118 24.989C83.9157 24.9047 84.0511 24.7681 84.1179 24.5794C84.1858 24.3901 84.1984 24.1642 84.1557 23.9015L84.1518 23.8753L84.7964 23.6132C84.8011 23.6774 84.7933 23.7365 84.7731 23.7905C84.7433 23.875 84.6854 23.9397 84.5991 23.9845L84.8091 24.501C84.9516 24.4403 85.065 24.351 85.1494 24.2331C85.2339 24.1152 85.2831 23.9774 85.297 23.8199C85.3091 23.6938 85.2975 23.5617 85.2622 23.4238L85.5847 23.2927ZM83.0877 24.3079L83.6597 24.0753C83.6622 24.1569 83.6551 24.2248 83.6384 24.279C83.6149 24.3582 83.5654 24.4132 83.4901 24.4438C83.4064 24.4778 83.3228 24.4742 83.2391 24.433C83.1832 24.4054 83.1327 24.3637 83.0877 24.3079ZM84.6558 23.2423L84.0983 23.469C84.0953 23.3861 84.1028 23.3149 84.1208 23.2553C84.1451 23.1814 84.1942 23.1293 84.2684 23.0992C84.3437 23.0686 84.4188 23.07 84.4938 23.1037C84.5538 23.1305 84.6078 23.1768 84.6558 23.2423Z" fill="#0E753E"/>
<path d="M44.8551 98.5485C44.2708 97.3424 44.6723 79.525 45.0567 72.3217L43.4175 63.3738L51.1915 65.6721C51.2033 72.7817 51.3329 88.6593 51.7572 95.2929C52.1816 101.927 51.8955 103.635 51.6995 103.661C49.6921 106.482 39.5679 104.538 37.5595 104.203C35.3689 103.839 27.1193 102.68 29.7122 98.9131C31.7212 95.9946 45.5854 100.056 44.8551 98.5485Z" fill="#FFEB34"/>
<path fill-rule="evenodd" clip-rule="evenodd" d="M42.9204 62.804L51.6071 65.3722L51.6076 65.6714C51.6194 72.7846 51.7491 88.6486 52.1725 95.2672C52.385 98.5897 52.4205 100.69 52.3769 101.969C52.3551 102.606 52.3134 103.051 52.2608 103.346C52.2349 103.491 52.2032 103.618 52.1612 103.72C52.1405 103.769 52.1096 103.832 52.062 103.89C52.0456 103.91 52.0224 103.935 51.9919 103.96C51.3792 104.76 50.2547 105.171 49.0062 105.378C47.7009 105.595 46.1506 105.604 44.6217 105.516C41.9166 105.36 39.2124 104.893 37.9345 104.672C37.7669 104.643 37.6238 104.618 37.5085 104.599C37.4168 104.584 37.3135 104.567 37.2002 104.549C35.9818 104.35 33.5942 103.962 31.7078 103.206C30.686 102.797 29.7343 102.251 29.2209 101.505C28.9567 101.121 28.8065 100.68 28.8294 100.188C28.852 99.7014 29.0425 99.2001 29.3967 98.6856C29.7214 98.214 30.2575 97.9208 30.8692 97.7371C31.4856 97.5519 32.2275 97.4631 33.0299 97.4359C34.6354 97.3815 36.5614 97.5724 38.3766 97.8037C39.1253 97.8991 39.8515 98.0008 40.5319 98.0961C41.5191 98.2344 42.4101 98.3592 43.1346 98.4318C43.7253 98.491 44.1617 98.5102 44.4286 98.4829C44.4066 98.3909 44.3895 98.2914 44.375 98.1923C44.3439 97.9799 44.3176 97.7122 44.2952 97.3993C44.2502 96.7724 44.2193 95.9414 44.2 94.9625C44.1614 93.0034 44.1689 90.433 44.2066 87.6785C44.2817 82.1933 44.4769 75.9631 44.6686 72.3474L42.9204 62.804ZM43.9447 63.9433L45.4747 72.2958L45.4722 72.343C45.2804 75.9379 45.084 82.1875 45.0087 87.6894C44.971 90.4404 44.9637 93.0007 45.0021 94.9467C45.0213 95.9203 45.0519 96.7354 45.0953 97.3419C45.1171 97.6457 45.1417 97.8914 45.1687 98.0761C45.1822 98.1685 45.1957 98.241 45.2085 98.2953C45.2224 98.3537 45.2316 98.3747 45.2311 98.3735C45.2756 98.4655 45.3127 98.5879 45.2942 98.7267C45.2745 98.8744 45.1987 98.9907 45.1055 99.0717C44.9464 99.2099 44.7272 99.2545 44.561 99.2752C44.1979 99.3203 43.6671 99.2914 43.0546 99.23C42.319 99.1563 41.3973 99.0273 40.393 98.8868C39.7141 98.7918 38.9975 98.6915 38.2752 98.5995C36.4644 98.3687 34.5933 98.1856 33.0571 98.2377C32.2886 98.2637 31.6234 98.3482 31.1 98.5054C30.5718 98.6641 30.2351 98.8824 30.0575 99.1405C29.7635 99.5675 29.6446 99.9265 29.6307 100.225C29.617 100.519 29.7031 100.79 29.8818 101.05C30.2545 101.592 31.0159 102.065 32.0062 102.461C33.8038 103.182 36.1025 103.557 37.3308 103.757C37.4434 103.775 37.547 103.792 37.6404 103.808C37.7588 103.827 37.9045 103.853 38.0742 103.882C39.357 104.103 42.013 104.562 44.668 104.715C46.1721 104.802 47.6548 104.789 48.8751 104.587C50.1179 104.381 50.9843 103.995 51.3877 103.428L51.4378 103.358C51.4472 103.323 51.4588 103.273 51.471 103.205C51.5139 102.965 51.5539 102.563 51.5751 101.941C51.6174 100.7 51.5837 98.6296 51.3719 95.3184C50.9525 88.7615 50.8208 73.2155 50.806 65.9719L43.9447 63.9433Z" fill="#111111"/>
<path d="M62.8474 97.6122C63.3348 96.3936 61.6962 80.0163 60.6853 72.8587L61.5416 63.72L53.8701 66.25C54.4719 73.3267 55.7111 89.1339 55.854 95.7497C55.997 102.365 56.8998 102.915 56.8998 102.915C59.1755 105.661 67.2934 104.442 69.3042 104.076C71.6754 103.645 79.9621 102.788 77.3303 98.9023C74.6986 95.0167 62.2382 99.1355 62.8474 97.6122Z" fill="#FFEB34"/>
<path fill-rule="evenodd" clip-rule="evenodd" d="M62.0116 63.1458L53.4493 65.9696L53.4745 66.2662C54.0766 73.3465 55.3145 89.1402 55.4571 95.7411C55.5289 99.0615 55.7914 100.887 56.0457 101.894C56.173 102.398 56.3016 102.711 56.4122 102.908C56.468 103.007 56.5213 103.081 56.5707 103.136C56.5895 103.157 56.6078 103.176 56.6257 103.192C57.2839 103.966 58.3141 104.426 59.4477 104.697C60.6055 104.974 61.933 105.068 63.2321 105.065C65.832 105.058 68.3907 104.657 69.4062 104.472C69.6284 104.432 69.9099 104.387 70.2345 104.335C71.5854 104.119 73.6828 103.783 75.3611 103.163C76.3964 102.78 77.3528 102.262 77.8647 101.531C78.1277 101.156 78.2755 100.721 78.2498 100.229C78.2244 99.7405 78.0305 99.2304 77.6708 98.6994C76.9025 97.5649 75.4631 97.0732 73.9064 96.8857C72.3297 96.6959 70.507 96.8031 68.8165 96.9806C67.9685 97.0696 67.147 97.1772 66.4006 97.2758L66.2897 97.2904C65.5851 97.3836 64.9549 97.4669 64.4286 97.519C63.9092 97.5704 63.5285 97.5869 63.2904 97.5638C63.307 97.4709 63.3177 97.3696 63.3255 97.2682C63.3411 97.0656 63.348 96.8126 63.348 96.5186C63.3478 95.9296 63.3194 95.1537 63.2688 94.2416C63.1675 92.4161 62.9763 90.0256 62.7386 87.4528C62.2651 82.3294 61.6057 76.4671 61.0999 72.8757L62.0116 63.1458ZM61.0866 64.3034L60.2857 72.851L60.2922 72.8968C60.7964 76.4672 61.4581 82.3442 61.9329 87.4816C62.1702 90.0502 62.3605 92.4299 62.4609 94.2415C62.5112 95.148 62.5388 95.9074 62.5389 96.4753C62.539 96.7597 62.5322 96.9906 62.5187 97.1652C62.512 97.2526 62.5039 97.3216 62.4952 97.374C62.4909 97.3999 62.4867 97.4197 62.4831 97.4342C62.4798 97.4474 62.4776 97.4534 62.4773 97.4542C62.4418 97.5429 62.4158 97.6561 62.4357 97.7829C62.4568 97.9182 62.5249 98.0339 62.6186 98.1212C62.7807 98.2722 63.0002 98.3214 63.1583 98.3438C63.5017 98.3925 63.9948 98.3656 64.553 98.3104C65.0929 98.2569 65.7355 98.172 66.434 98.0796L66.5511 98.0641C67.2978 97.9655 68.1096 97.8593 68.9456 97.7715C70.623 97.5954 72.3708 97.4968 73.8515 97.6751C75.3523 97.8558 76.4574 98.3063 77.0049 99.1146C77.3032 99.555 77.426 99.9217 77.4418 100.226C77.4575 100.526 77.3711 100.798 77.1903 101.057C76.8145 101.593 76.0445 102.045 75.0407 102.416C73.4447 103.006 71.4614 103.324 70.1046 103.542C69.764 103.597 69.4629 103.645 69.2173 103.69C68.222 103.871 65.7163 104.262 63.1856 104.27C61.9194 104.273 60.6651 104.18 59.5979 103.925C58.5218 103.667 57.6963 103.259 57.2153 102.679L57.1689 102.623L57.1528 102.613C57.1442 102.601 57.1317 102.582 57.1159 102.554C57.0528 102.441 56.9467 102.203 56.8304 101.742C56.5975 100.82 56.3372 99.063 56.266 95.7676C56.1247 89.228 54.9161 73.7493 54.3059 66.5397L61.0866 64.3034Z" fill="#111111"/>
<path d="M52.1298 0.523236C46.1465 1.98257 44.0426 17.184 43.7386 24.6023C43.5964 26.9737 41.732 27.3386 33.3408 32.9936C26.6279 37.5175 29.9357 43.1481 32.4287 45.3979C27.6251 46.614 18.3826 50.7245 19.8419 57.4375C21.3013 64.1504 28.1115 65.3422 31.3342 65.099C31.091 65.4638 31.6261 67.4704 35.7122 72.5781C39.7984 77.6858 46.9005 74.7063 49.9408 72.5781C63.8045 85.5662 67.7568 76.5304 68.0001 70.3891C70.9795 71.666 77.3398 71.9943 78.9451 63.0924C80.5504 54.1904 72.6964 45.0746 67.4671 41.1831C81.1342 42.2853 69.277 29.3451 64.1693 23.6902C59.0616 18.0353 59.6089 -1.30094 52.1298 0.523236Z" fill="#00BC68"/>
<path fill-rule="evenodd" clip-rule="evenodd" d="M54.405 1.11853C53.7866 0.800807 53.0768 0.704684 52.2282 0.911663C50.8858 1.23907 49.706 2.35349 48.6849 4.06253C47.6685 5.7637 46.8467 7.99261 46.1953 10.4304C44.8934 15.3035 44.294 20.9273 44.1427 24.6175L44.1423 24.625C44.1031 25.279 43.941 25.8225 43.5637 26.3506C43.1978 26.8626 42.6443 27.3385 41.8696 27.8918C41.1424 28.4111 40.1889 29.0197 38.9612 29.8033C38.877 29.8571 38.7915 29.9116 38.7048 29.967C37.3485 30.833 35.662 31.914 33.5684 33.3249C31.9346 34.426 30.936 35.5769 30.3784 36.7009C29.822 37.8224 29.6933 38.9392 29.8335 39.9945C30.1162 42.1227 31.4968 44.0123 32.7008 45.0989C32.8107 45.198 32.857 45.3496 32.8214 45.4932C32.7858 45.6369 32.674 45.7492 32.5305 45.7855C30.1611 46.3854 26.7025 47.6994 24.0286 49.6776C21.3477 51.661 19.558 54.2262 20.2373 57.351C20.9362 60.5662 22.9073 62.4515 25.1048 63.5145C27.317 64.5845 29.7519 64.8152 31.3074 64.6978C31.4603 64.6862 31.6064 64.7629 31.6838 64.8953C31.7549 65.0168 31.7566 65.1656 31.6907 65.2879C31.6901 65.2944 31.6895 65.3039 31.6894 65.317C31.689 65.3725 31.6988 65.4656 31.7336 65.6047C31.803 65.8825 31.96 66.2965 32.2592 66.8742C32.8565 68.0275 33.9942 69.783 36.0288 72.3263C37.9571 74.7366 40.5928 75.2526 43.1666 74.8931C45.7537 74.5317 48.2304 73.2868 49.7141 72.2482C49.8695 72.1395 50.0799 72.1544 50.2184 72.2841C53.6651 75.5131 56.4674 77.3454 58.723 78.2029C60.9703 79.0571 62.6493 78.936 63.8993 78.2986C65.1601 77.6556 66.0578 76.4503 66.6578 74.9944C67.2569 73.5405 67.5432 71.8729 67.6026 70.372C67.6079 70.24 67.6777 70.1191 67.7893 70.0487C67.9009 69.9782 68.0401 69.9672 68.1614 70.0192C69.5857 70.6296 71.8059 71.0041 73.8415 70.1845C75.846 69.3773 77.7691 67.3713 78.5537 63.02C79.3316 58.7061 77.8217 54.3048 75.432 50.4697C73.0447 46.6385 69.8098 43.4227 67.231 41.5036C67.0875 41.3968 67.0321 41.2079 67.0951 41.0405C67.1581 40.8731 67.3244 40.7676 67.5027 40.782C69.1872 40.9179 70.4463 40.8341 71.359 40.591C72.2674 40.349 72.8051 39.9576 73.101 39.4932C73.3982 39.0267 73.4913 38.4238 73.3829 37.6803C73.2742 36.9347 72.9667 36.0791 72.5031 35.1481C70.6824 31.4921 66.6384 27.0163 64.0575 24.1598C63.9958 24.0916 63.935 24.0242 63.875 23.9578C62.5332 22.4723 61.5895 20.1263 60.8047 17.5435C60.3158 15.9348 59.8777 14.1926 59.4451 12.4725C59.183 11.4306 58.923 10.3967 58.655 9.4055C57.9361 6.74673 57.157 4.38202 56.116 2.79723C55.5985 2.00928 55.0332 1.44131 54.405 1.11853ZM61.5722 17.3103C62.3551 19.8865 63.2583 22.0782 64.4703 23.4201C64.5409 23.4983 64.6129 23.5779 64.6861 23.6589C67.2458 26.4914 71.3501 31.0331 73.2212 34.7905C73.7047 35.7615 74.051 36.7025 74.1767 37.5645C74.3027 38.4285 74.2108 39.2444 73.7775 39.9243C73.3429 40.6065 72.6046 41.0894 71.5655 41.3662C70.7997 41.5701 69.856 41.6667 68.7152 41.6466C71.1611 43.6512 73.968 46.6033 76.1129 50.0455C78.5562 53.9667 80.1706 58.5742 79.3432 63.1623C78.5226 67.713 76.4629 69.9937 74.1411 70.9286C72.0948 71.7526 69.9217 71.499 68.3726 70.9604C68.2676 72.3825 67.968 73.9205 67.3995 75.3C66.7567 76.8597 65.7543 78.2531 64.2637 79.0132C62.7622 79.7789 60.8385 79.8652 58.4379 78.9527C56.0998 78.0639 53.2854 76.2204 49.9053 73.0889C48.3288 74.1376 45.8705 75.3254 43.2775 75.6876C40.5187 76.0729 37.5603 75.5248 35.4024 72.8274C33.3508 70.263 32.1779 68.4614 31.5469 67.2432C31.232 66.6352 31.0454 66.1599 30.9553 65.7993C30.9309 65.7019 30.9127 65.6094 30.9013 65.5222C29.2424 65.573 26.9085 65.2781 24.7555 64.2366C22.3774 63.0863 20.2137 61.0192 19.4534 57.5214C18.6733 53.9333 20.7751 51.0867 23.5515 49.0327C26.0836 47.1593 29.2621 45.8736 31.648 45.1927C30.4967 43.9881 29.3131 42.1687 29.0383 40.1001C28.879 38.901 29.0262 37.6213 29.6598 36.3444C30.292 35.07 31.3974 33.8206 33.12 32.6597C35.222 31.2431 36.9152 30.1579 38.273 29.2909C38.3564 29.2377 38.4384 29.1853 38.5192 29.1337C39.7578 28.3431 40.6939 27.7455 41.4034 27.2389C42.1614 26.6976 42.6251 26.2843 42.911 25.8842C43.1848 25.501 43.3091 25.1106 43.3413 24.5808C43.4944 20.8525 44.099 15.1687 45.4203 10.2234C46.0808 7.75113 46.9259 5.44241 47.9962 3.65106C49.0619 1.86756 50.3888 0.534552 52.0381 0.132291C53.0593 -0.116774 53.9684 -0.00767686 54.7716 0.404981C55.5649 0.812579 56.2239 1.50016 56.7866 2.35681C57.9061 4.06123 58.7118 6.54198 59.4294 9.19611C59.7058 10.2182 59.9688 11.2646 60.2318 12.3108C60.6597 14.0132 61.0874 15.7149 61.5722 17.3103Z" fill="#111111"/>
<path d="M44.8012 29.3227C44.9695 32.3404 47.0165 34.6802 49.3733 34.5488C51.7301 34.4174 53.5042 31.8645 53.3359 28.8468C53.1677 25.8291 51.1207 23.4893 48.7639 23.6208C46.4071 23.7522 44.633 26.305 44.8012 29.3227Z" fill="white"/>
<path fill-rule="evenodd" clip-rule="evenodd" d="M49.3286 33.7478C47.5872 33.8449 45.7567 32.049 45.6022 29.2781C45.4477 26.5071 47.0672 24.5188 48.8086 24.4217C50.5499 24.3246 52.3804 26.1205 52.535 28.8915C52.6895 31.6625 51.07 33.6507 49.3286 33.7478ZM49.3733 34.5488C47.0165 34.6802 44.9695 32.3404 44.8012 29.3227C44.633 26.305 46.4071 23.7522 48.7639 23.6208C51.1207 23.4893 53.1677 25.8291 53.3359 28.8468C53.5042 31.8645 51.7301 34.4174 49.3733 34.5488Z" fill="#111111"/>
<path d="M45.9593 30.7336C46.0603 32.8469 47.6105 34.4898 49.4219 34.4033C51.2333 34.3167 52.6198 32.5334 52.5188 30.4201C52.4178 28.3069 50.8675 26.6639 49.0562 26.7505C47.2448 26.837 45.8583 28.6204 45.9593 30.7336Z" fill="#111111"/>
<path d="M52.5631 28.8654C52.539 31.8877 54.3162 34.3521 56.5326 34.3698C58.7489 34.3874 60.5652 31.9517 60.5892 28.9294C60.6133 25.9071 58.8361 23.4427 56.6198 23.4251C54.4034 23.4074 52.5872 25.8432 52.5631 28.8654Z" fill="white"/>
<path fill-rule="evenodd" clip-rule="evenodd" d="M54.3584 32.2751C53.7499 31.4313 53.3545 30.2303 53.3653 28.8718C53.3761 27.5133 53.7906 26.3188 54.4125 25.4848C55.0347 24.6504 55.8222 24.221 56.6134 24.2273C57.4046 24.2336 58.1851 24.6755 58.794 25.5197C59.4025 26.3635 59.7979 27.5645 59.787 28.923C59.7762 30.2815 59.3618 31.476 58.7399 32.31C58.1177 33.1445 57.3302 33.5739 56.539 33.5676C55.7478 33.5613 54.9672 33.1194 54.3584 32.2751ZM56.5326 34.3698C54.3162 34.3521 52.539 31.8877 52.5631 28.8654C52.5872 25.8432 54.4034 23.4074 56.6198 23.4251C58.8361 23.4427 60.6133 25.9071 60.5892 28.9294C60.5652 31.9517 58.7489 34.3874 56.5326 34.3698Z" fill="#111111"/>
<path d="M53.3734 29.7363C53.1039 31.8347 54.3434 33.7231 56.1421 33.9542C57.9407 34.1852 59.6174 32.6714 59.8869 30.573C60.1565 28.4745 58.9169 26.5861 57.1183 26.3551C55.3196 26.124 53.643 27.6378 53.3734 29.7363Z" fill="#111111"/>
<path d="M48.1194 38.1626C50.2959 37.0847 49.5629 38.3854 48.9243 39.1705C49.2943 40.9863 50.7216 44.9151 53.4712 46.1041C56.2208 47.293 58.1743 42.1043 57.7493 38.9974C57.3867 38.9568 56.2342 38.6351 56.5615 38.1302C56.7834 37.788 57.771 37.1643 58.879 37.1048C59.9888 37.0451 59.012 38.6493 58.4745 39.0786C59.0977 40.6168 58.4825 43.8566 56.8688 46.466C54.8516 49.7277 52.1806 47.7951 50.752 45.7996C49.6091 44.2032 48.4125 41.01 47.957 39.6129C47.1043 39.5786 45.9429 39.2405 48.1194 38.1626Z" fill="#111111"/>
<path d="M78.8632 39.4538C77.65 41.1714 69.905 37.6546 68.5326 38.2469C66.1576 38.7567 65.4081 42.3808 66.8235 45.1088C68.5928 48.5187 80.6013 48.687 82.8762 47.2978C84.6961 46.1864 87.6743 41.0256 88.896 37.9945L91.085 31.2451L84.8354 31.9322C86.2255 30.4167 84.7437 24.6777 83.4452 24.8597C82.1466 25.0417 82.4555 29.9957 82.3291 31.9322C81.7815 33.995 80.0764 37.7362 78.8632 39.4538Z" fill="#FDFBEF"/>
<path fill-rule="evenodd" clip-rule="evenodd" d="M83.488 25.2636L83.4879 25.2637C83.4635 25.2671 83.4127 25.2825 83.3389 25.3819C83.2619 25.4859 83.1834 25.6525 83.1121 25.8909C82.9698 26.3665 82.8849 27.0266 82.8349 27.7716C82.7852 28.5111 82.7715 29.3076 82.7624 30.0474C82.7613 30.1344 82.7603 30.2208 82.7593 30.3063C82.7519 30.9405 82.7451 31.5264 82.7165 31.965C82.7148 31.991 82.7106 32.0167 82.7039 32.0418C82.4217 33.1049 81.848 34.5794 81.1974 35.9965C80.5471 37.4128 79.8055 38.8034 79.1779 39.6919C78.9455 40.0209 78.5808 40.1895 78.1967 40.2701C77.8116 40.3509 77.3602 40.3539 76.8829 40.3129C75.9274 40.2308 74.7734 39.9625 73.6432 39.6671C73.2139 39.5549 72.7896 39.4393 72.3777 39.3271C71.6887 39.1393 71.0347 38.9611 70.4508 38.8244C69.9872 38.7159 69.5865 38.6383 69.2661 38.6048C68.9256 38.5692 68.7468 38.5925 68.6786 38.6219C68.6545 38.6323 68.6294 38.6403 68.6038 38.6458C67.6224 38.8565 66.9209 39.7216 66.6342 40.9443C66.3488 42.1615 66.5029 43.6515 67.1666 44.9308C67.5323 45.6356 68.4798 46.2433 69.873 46.7112C71.2421 47.171 72.9457 47.4642 74.6809 47.61C76.4139 47.7556 78.1608 47.7527 79.6099 47.6284C80.3345 47.5663 80.9787 47.4743 81.5062 47.3575C82.0417 47.239 82.4267 47.1011 82.6542 46.9622C83.048 46.7217 83.54 46.2356 84.0875 45.5565C84.6284 44.8856 85.2 44.0561 85.7569 43.1609C86.8683 41.3742 87.9043 39.3535 88.5058 37.8641L90.499 31.7183L86.96 32.1074C87.0541 32.1617 87.1463 32.221 87.2356 32.2858C88.0262 32.8592 88.5355 33.8173 88.3696 35.3093L87.5723 35.2206C87.7097 33.9847 87.2976 33.3218 86.7646 32.9352C86.1959 32.5228 85.426 32.3798 84.7966 32.3392C84.6425 32.3293 84.5078 32.2318 84.4502 32.0885C84.3927 31.9452 84.4225 31.7816 84.5268 31.6678C84.7765 31.3956 84.9386 30.8727 84.9737 30.1495C85.0078 29.4454 84.9178 28.6285 84.7442 27.8538C84.5701 27.0774 84.3178 26.3694 84.0427 25.8774C83.9042 25.6298 83.7715 25.4578 83.657 25.3572C83.5418 25.2559 83.4898 25.2634 83.488 25.2636ZM85.5513 31.4553C85.6874 31.0697 85.7535 30.6307 85.7749 30.1883C85.8134 29.3958 85.7123 28.5052 85.527 27.6784C85.3421 26.8534 85.0673 26.0661 84.7429 25.4858C84.5815 25.1973 84.3963 24.939 84.1866 24.7546C83.9784 24.5716 83.7 24.4239 83.3766 24.4692C83.0764 24.5113 82.8528 24.6905 82.6944 24.9043C82.5393 25.1137 82.4278 25.3792 82.3435 25.661C82.1745 26.226 82.0853 26.9596 82.0345 27.7179C81.9832 28.4817 81.9693 29.2981 81.9602 30.0375C81.9591 30.125 81.9581 30.2112 81.9571 30.296C81.9499 30.916 81.9435 31.4625 81.9184 31.8738C81.6492 32.8716 81.1024 34.2808 80.4683 35.6618C79.8258 37.0613 79.1082 38.4001 78.5226 39.2291C78.4517 39.3296 78.309 39.4268 78.032 39.485C77.7559 39.5429 77.3925 39.5515 76.9516 39.5136C76.0708 39.4379 74.9753 39.1861 73.8461 38.891C73.4365 38.7839 73.0207 38.6707 72.6117 38.5593C71.9105 38.3683 71.2293 38.1827 70.6336 38.0433C70.1591 37.9322 69.72 37.8457 69.3495 37.8069C69.0159 37.7721 68.6705 37.7672 68.401 37.8691C67.0277 38.1805 66.1784 39.374 65.8532 40.7612C65.5239 42.1655 65.7028 43.8515 66.4545 45.3002C66.9735 46.3004 68.1906 46.9924 69.6176 47.4717C71.0688 47.9591 72.8413 48.2605 74.6137 48.4094C76.3884 48.5585 78.1808 48.5561 79.6784 48.4277C80.427 48.3635 81.1081 48.2674 81.6796 48.1408C82.2432 48.016 82.7311 47.8552 83.0723 47.6468C83.5884 47.3316 84.1511 46.7558 84.7121 46.06C85.2797 45.3559 85.8702 44.4974 86.438 43.5846C87.5729 41.7604 88.6341 39.6917 89.255 38.1512C89.2585 38.1425 89.2617 38.1338 89.2646 38.125L91.4536 31.3755C91.4956 31.246 91.469 31.1041 91.3831 30.9985C91.2971 30.893 91.1635 30.8382 91.0282 30.8531L85.5513 31.4553Z" fill="#111111"/>
<path d="M2.3321 14.3109C1.54031 14.7088 1.22093 15.6731 1.61875 16.4649L8.63303 30.4256C9.03085 31.2174 9.99521 31.5368 10.787 31.139L17.7508 27.6401C18.5426 27.2423 18.862 26.278 18.4641 25.4862L11.4499 11.5255C11.052 10.7337 10.0877 10.4143 9.29589 10.8121L2.3321 14.3109Z" fill="#2BB560"/>
<path fill-rule="evenodd" clip-rule="evenodd" d="M9.34986 30.0655L2.33558 16.1048C2.13667 15.7089 2.29636 15.2267 2.69225 15.0278L9.65604 11.5289C10.0519 11.33 10.5341 11.4897 10.733 11.8856L17.7473 25.8463C17.9462 26.2422 17.7865 26.7244 17.3906 26.9233L10.4268 30.4221C10.031 30.621 9.54877 30.4614 9.34986 30.0655ZM1.61875 16.4649C1.22093 15.6731 1.54031 14.7088 2.3321 14.3109L9.29589 10.8121C10.0877 10.4143 11.052 10.7337 11.4499 11.5255L18.4641 25.4862C18.862 26.278 18.5426 27.2423 17.7508 27.6401L10.787 31.139C9.99521 31.5368 9.03085 31.2174 8.63303 30.4256L1.61875 16.4649Z" fill="#111111"/>
<path d="M3.73255 17.5969C5.18508 16.8671 4.91052 15.4891 4.59168 14.8913L8.26728 13.0445C8.94367 14.3908 10.3677 14.2077 10.9952 13.9479L16.1571 24.2219C14.988 24.8093 15.0825 26.3148 15.2759 26.9941L11.6004 28.8408C10.924 27.4946 9.51462 27.6332 8.89449 27.8709L3.73255 17.5969Z" fill="#0E753E"/>
<path d="M11.2439 23.8072C12.7358 23.0576 13.3376 21.2405 12.588 19.7486C11.8385 18.2567 10.0214 17.6549 8.52947 18.4045C7.03756 19.1541 6.43578 20.9712 7.18536 22.4631C7.93494 23.955 9.75203 24.5567 11.2439 23.8072Z" fill="#A6D8BB"/>
<path d="M7.86446 17.0763C8.37807 16.8182 8.58524 16.1927 8.32718 15.6791C8.06913 15.1655 7.44358 14.9583 6.92997 15.2163C6.41636 15.4744 6.20919 16.1 6.46724 16.6136C6.7253 17.1272 7.35085 17.3343 7.86446 17.0763Z" fill="#A6D8BB"/>
<path d="M12.7629 26.8263C13.2765 26.5682 13.4837 25.9427 13.2256 25.4291C12.9676 24.9155 12.342 24.7083 11.8284 24.9663C11.3148 25.2244 11.1076 25.85 11.3657 26.3636C11.6237 26.8772 12.2493 27.0843 12.7629 26.8263Z" fill="#A6D8BB"/>
<path fill-rule="evenodd" clip-rule="evenodd" d="M8.33727 22.114L8.15927 21.7597L8.46208 21.6076C8.40818 21.4586 8.38211 21.3137 8.38387 21.1727C8.38587 21.0128 8.42455 20.8699 8.49992 20.7439C8.57413 20.6185 8.68043 20.5211 8.81882 20.4515C9.16133 20.2794 9.50266 20.3925 9.84282 20.7907L9.91629 20.877L10.5767 20.5451C10.5129 20.4642 10.44 20.4078 10.358 20.3758C10.2581 20.3379 10.1519 20.3422 10.0394 20.3886L9.78565 19.8834C10.0382 19.7652 10.2743 19.7506 10.4938 19.8396C10.6979 19.9224 10.8737 20.0832 11.0212 20.3218L11.3477 20.1578L11.5257 20.512L11.1956 20.6779C11.2512 20.8273 11.2798 20.9684 11.2815 21.1013C11.2824 21.264 11.246 21.4072 11.1723 21.5309C11.0976 21.6551 10.9881 21.7535 10.8439 21.8259C10.6461 21.9238 10.4543 21.9358 10.2683 21.8617C10.0811 21.7881 9.90278 21.6488 9.73327 21.4437L9.71479 21.4219L9.09293 21.7343C9.13849 21.7809 9.18856 21.8145 9.24314 21.8351C9.32631 21.8684 9.41318 21.8674 9.50373 21.832L9.75404 22.3302C9.61449 22.3974 9.47255 22.4239 9.32823 22.4098C9.18391 22.3956 9.04788 22.3419 8.92014 22.2487C8.81678 22.1744 8.72469 22.0781 8.64389 21.96L8.33727 22.114ZM10.7422 20.9057L10.1892 21.1835C10.2495 21.2398 10.3058 21.2797 10.3581 21.3031C10.4332 21.3375 10.5071 21.3365 10.5797 21.3C10.6604 21.2595 10.7128 21.1942 10.7369 21.1041C10.7532 21.0432 10.7549 20.9771 10.7422 20.9057ZM8.90745 21.3838L9.44418 21.1142C9.38431 21.058 9.32627 21.0172 9.27007 20.9918C9.19844 20.9613 9.12687 20.964 9.05537 21C8.98272 21.0365 8.93435 21.094 8.91026 21.1725C8.89115 21.2348 8.89022 21.3053 8.90745 21.3838Z" fill="#0E753E"/>
<path d="M12.4551 9.71388C11.5695 9.68421 10.8275 10.3781 10.7978 11.2637L10.2747 26.8787C10.245 27.7643 10.9389 28.5063 11.8245 28.5359L19.6135 28.7969C20.4991 28.8266 21.241 28.1327 21.2707 27.2471L21.7939 11.6321C21.8236 10.7465 21.1297 10.0045 20.2441 9.97484L12.4551 9.71388Z" fill="#2BB560"/>
<path fill-rule="evenodd" clip-rule="evenodd" d="M11.0764 26.9055L11.5996 11.2906C11.6144 10.8478 11.9854 10.5008 12.4282 10.5157L20.2172 10.7766C20.66 10.7914 21.0069 11.1624 20.9921 11.6052L20.469 27.2202C20.4541 27.663 20.0831 28.01 19.6403 27.9951L11.8514 27.7342C11.4085 27.7193 11.0616 27.3484 11.0764 26.9055ZM10.7978 11.2637C10.8275 10.3781 11.5695 9.68421 12.4551 9.71388L20.2441 9.97484C21.1297 10.0045 21.8236 10.7465 21.7939 11.6321L21.2707 27.2471C21.241 28.1327 20.4991 28.8266 19.6135 28.7969L11.8245 28.5359C10.9389 28.5063 10.245 27.7643 10.2747 26.8787L10.7978 11.2637Z" fill="#111111"/>
<path d="M12.1038 13.2769C13.7285 13.3313 14.147 11.99 14.1531 11.3125L18.2643 11.4502C18.2138 12.956 19.5518 13.4768 20.227 13.5491L19.842 25.0404C18.5344 24.9966 17.8969 26.3637 17.7415 27.0527L13.6304 26.915C13.6808 25.4092 12.377 24.8564 11.7188 24.7683L12.1038 13.2769Z" fill="#0E753E"/>
<path d="M15.7409 22.3199C17.4095 22.3758 18.8076 21.0684 18.8635 19.3997C18.9194 17.731 17.612 16.3329 15.9433 16.277C14.2746 16.2211 12.8766 17.5285 12.8206 19.1972C12.7647 20.8659 14.0722 22.264 15.7409 22.3199Z" fill="#A6D8BB"/>
<path d="M15.9861 14.791C16.5606 14.8102 17.0419 14.3601 17.0611 13.7856C17.0804 13.2112 16.6303 12.7299 16.0558 12.7106C15.4813 12.6914 15 13.1415 14.9808 13.7159C14.9615 14.2904 15.4116 14.7717 15.9861 14.791Z" fill="#A6D8BB"/>
<path d="M15.6189 25.6894C16.1934 25.7086 16.6747 25.2586 16.6939 24.6841C16.7132 24.1096 16.2631 23.6283 15.6886 23.6091C15.1141 23.5898 14.6328 24.0399 14.6136 24.6144C14.5943 25.1889 15.0444 25.6702 15.6189 25.6894Z" fill="#A6D8BB"/>
<path fill-rule="evenodd" clip-rule="evenodd" d="M14.0019 19.444L14.0152 19.0477L14.354 19.0591C14.3779 18.9024 14.4244 18.7625 14.4935 18.6395C14.5718 18.5001 14.6741 18.3931 14.8006 18.3186C14.9258 18.244 15.0658 18.2093 15.2205 18.2145C15.6036 18.2273 15.8492 18.4899 15.9573 19.0024L15.9806 19.1136L16.7193 19.1383C16.702 19.0366 16.665 18.9521 16.6082 18.8847C16.5386 18.8036 16.4434 18.7565 16.3224 18.7434L16.3413 18.1784C16.6197 18.1955 16.8339 18.2957 16.9841 18.4789C17.1237 18.6493 17.2012 18.8747 17.2164 19.155L17.5815 19.1672L17.5682 19.5635L17.1991 19.5511C17.1763 19.7087 17.1339 19.8463 17.0718 19.9636C16.9947 20.107 16.8942 20.2153 16.7704 20.2887C16.6453 20.3619 16.5021 20.3959 16.3408 20.3905C16.1203 20.3818 15.9461 20.3004 15.8183 20.1463C15.6891 19.9922 15.5993 19.7845 15.5486 19.5233L15.5429 19.4956L14.8473 19.4723C14.865 19.5349 14.8929 19.5882 14.9309 19.6324C14.988 19.7014 15.0648 19.7421 15.1612 19.7544L15.1425 20.3116C14.9878 20.3038 14.8505 20.2592 14.7306 20.1777C14.6106 20.0962 14.5169 19.9839 14.4494 19.8409C14.3942 19.7263 14.3594 19.5978 14.345 19.4555L14.0019 19.444ZM16.6918 19.5341L16.0736 19.5134C16.0995 19.5915 16.1298 19.6534 16.1645 19.6989C16.2139 19.7651 16.2793 19.7996 16.3605 19.8023C16.4508 19.8053 16.5281 19.773 16.5924 19.7055C16.6357 19.6599 16.6689 19.6027 16.6918 19.5341ZM14.8521 19.0758L15.4526 19.0959C15.4269 19.0178 15.3954 18.9541 15.3582 18.9048C15.3099 18.8438 15.2457 18.8119 15.1658 18.8093C15.0845 18.8065 15.0145 18.8339 14.9557 18.8913C14.9091 18.9369 14.8745 18.9984 14.8521 19.0758Z" fill="#0E753E"/>
<path d="M21.3222 11.4246C20.5014 11.0909 19.5654 11.4857 19.2316 12.3066L13.3471 26.7798C13.0134 27.6007 13.4082 28.5367 14.2291 28.8704L21.4485 31.8057C22.2694 32.1394 23.2054 31.7445 23.5391 30.9237L29.4236 16.4505C29.7574 15.6296 29.3625 14.6936 28.5417 14.3599L21.3222 11.4246Z" fill="#2BB560"/>
<path fill-rule="evenodd" clip-rule="evenodd" d="M14.0903 27.082L19.9748 12.6087C20.1417 12.1983 20.6096 12.0009 21.0201 12.1678L28.2395 15.103C28.6499 15.2699 28.8474 15.7379 28.6805 16.1483L22.796 30.6215C22.6291 31.032 22.1611 31.2294 21.7507 31.0625L14.5312 28.1272C14.1208 27.9604 13.9234 27.4924 14.0903 27.082ZM19.2316 12.3066C19.5654 11.4857 20.5014 11.0909 21.3222 11.4246L28.5417 14.3599C29.3625 14.6936 29.7574 15.6296 29.4236 16.4505L23.5391 30.9237C23.2054 31.7445 22.2694 32.1394 21.4485 31.8057L14.2291 28.8704C13.4082 28.5367 13.0134 27.6007 13.3471 26.7798L19.2316 12.3066Z" fill="#111111"/>
<path d="M19.7581 14.6479C21.264 15.2602 22.12 14.1459 22.3598 13.5123L26.1704 15.0616C25.6029 16.4572 26.6786 17.4082 27.2874 17.7092L22.9568 28.3603C21.7448 27.8675 20.6743 28.9302 20.2905 29.5232L16.48 27.9739C17.0475 26.5782 16.0148 25.6091 15.4276 25.299L19.7581 14.6479Z" fill="#0E753E"/>
<path d="M20.0467 24.3881C21.5934 25.0169 23.357 24.2729 23.9858 22.7262C24.6147 21.1795 23.8706 19.4159 22.3239 18.7871C20.7773 18.1582 19.0137 18.9023 18.3848 20.4489C17.756 21.9956 18.5 23.7592 20.0467 24.3881Z" fill="#A6D8BB"/>
<path d="M22.8754 17.414C23.4079 17.6304 24.0151 17.3743 24.2315 16.8418C24.448 16.3094 24.1919 15.7022 23.6594 15.4857C23.127 15.2692 22.5198 15.5254 22.3033 16.0579C22.0868 16.5903 22.343 17.1975 22.8754 17.414Z" fill="#A6D8BB"/>
<path d="M18.7817 27.5194C19.3142 27.7359 19.9213 27.4798 20.1378 26.9473C20.3543 26.4148 20.0981 25.8077 19.5657 25.5912C19.0332 25.3747 18.4261 25.6309 18.2096 26.1633C17.9931 26.6958 18.2492 27.3029 18.7817 27.5194Z" fill="#A6D8BB"/>
<path fill-rule="evenodd" clip-rule="evenodd" d="M19.431 21.0857L19.5803 20.7184L19.8983 20.8477C19.9751 20.7082 20.0673 20.5926 20.175 20.5007C20.2966 20.3968 20.4296 20.3318 20.5741 20.3055C20.7173 20.2788 20.8606 20.2946 21.0041 20.3529C21.3592 20.4973 21.499 20.8286 21.4234 21.3468L21.4066 21.4609L22.0912 21.7393C22.1105 21.6372 22.1051 21.5445 22.0749 21.4612C22.0376 21.361 21.9644 21.2839 21.8555 21.2299L22.0684 20.7062C22.3237 20.8184 22.4902 20.9864 22.5677 21.2102C22.6401 21.4188 22.6347 21.6576 22.5518 21.9265L22.8858 22.0623L22.7365 22.4296L22.3984 22.2921C22.3228 22.4316 22.2357 22.5455 22.1373 22.6339C22.0154 22.7417 21.8837 22.8087 21.7421 22.8347C21.5994 22.8603 21.4533 22.8427 21.3038 22.7819C21.0999 22.6976 20.9645 22.5611 20.8978 22.3723C20.8298 22.1831 20.8172 21.9571 20.8599 21.6945L20.8638 21.6682L20.2193 21.4062C20.2145 21.4703 20.2223 21.5294 20.2426 21.5835C20.2723 21.668 20.3303 21.7327 20.4165 21.7775L20.2065 22.294C20.064 22.2333 19.9506 22.144 19.8662 22.026C19.7818 21.9081 19.7326 21.7704 19.7186 21.6129C19.7065 21.4867 19.7181 21.3547 19.7534 21.2168L19.431 21.0857ZM21.9279 22.1009L21.3559 21.8683C21.3534 21.9498 21.3605 22.0177 21.3772 22.072C21.4008 22.1512 21.4502 22.2061 21.5255 22.2368C21.6092 22.2708 21.6929 22.2672 21.7765 22.226C21.8325 22.1984 21.883 22.1567 21.9279 22.1009ZM20.3598 21.0353L20.9173 21.262C20.9204 21.1791 20.9129 21.1078 20.8948 21.0483C20.8706 20.9743 20.8214 20.9223 20.7473 20.8921C20.6719 20.8615 20.5968 20.863 20.5218 20.8966C20.4619 20.9235 20.4079 20.9697 20.3598 21.0353Z" fill="#0E753E"/>
<path d="M26.1423 37.2468C27.3556 38.9644 34.3049 37.7208 36.1607 38.9745C37.0441 39.5702 37.7255 43.1697 36.8273 45.1467C35.7256 47.5715 28.0097 48.4533 21.391 44.0445C19.6163 42.8624 17.3313 38.8185 16.1096 35.7875L13.9206 29.038L20.1702 29.7252C18.78 28.2096 20.2619 22.4707 21.5603 22.6527C22.8589 22.8347 22.55 27.7887 22.6764 29.7252C23.2241 31.788 24.9291 35.5292 26.1423 37.2468Z" fill="#FDFBEF"/>
<path fill-rule="evenodd" clip-rule="evenodd" d="M21.4942 23.0449L21.4942 23.0449C21.5187 23.0483 21.5695 23.0637 21.6432 23.1632C21.7203 23.2672 21.7987 23.4337 21.87 23.6722C22.0123 24.1478 22.0973 24.8078 22.1473 25.5528C22.1969 26.2923 22.2107 27.0889 22.2198 27.8287C22.2208 27.9157 22.2219 28.002 22.2229 28.0875C22.2302 28.7217 22.2371 29.3077 22.2657 29.7463C22.2674 29.7722 22.2716 29.798 22.2783 29.8231C22.5605 30.8861 23.1341 32.3606 23.7848 33.7778C24.435 35.194 25.1766 36.5846 25.8043 37.4732C26.0141 37.7703 26.3283 37.9771 26.6765 38.1264C27.0264 38.2764 27.4388 38.3804 27.8809 38.4555C28.7636 38.6054 29.8308 38.6504 30.8886 38.6806C31.0687 38.6857 31.2485 38.6904 31.4274 38.6951C32.312 38.7183 33.1745 38.7409 33.9354 38.8116C34.8703 38.8985 35.5561 39.0522 35.9257 39.3019L35.926 39.3021C36.0379 39.3776 36.2097 39.6115 36.379 40.0513C36.5398 40.4688 36.6733 41.0054 36.7543 41.5924C36.9181 42.78 36.8558 44.0864 36.4516 44.9758C36.2422 45.4367 35.6763 45.8949 34.7346 46.2352C33.8079 46.5701 32.5827 46.7656 31.1714 46.7521C28.3506 46.7253 24.8437 45.8644 21.6029 43.7057C20.7946 43.1673 19.8181 41.9289 18.8741 40.3942C17.9433 38.881 17.0789 37.1381 16.4764 35.6454L14.4831 29.4996L18.0222 29.8887C17.928 29.943 17.8359 30.0023 17.7465 30.0671C16.9559 30.6405 16.4467 31.5985 16.6126 33.0905L17.4099 33.0019C17.2725 31.7659 17.6845 31.103 18.2175 30.7165C18.7862 30.304 19.5561 30.161 20.1855 30.1205C20.3396 30.1105 20.4743 30.013 20.5319 29.8697C20.5895 29.7264 20.5597 29.5628 20.4553 29.449C20.2057 29.1769 20.0436 28.6539 20.0085 27.9307C19.9744 27.2266 20.0643 26.4097 20.2379 25.6351C20.412 24.8586 20.6643 24.1506 20.9395 23.6586C21.0779 23.411 21.2107 23.239 21.3251 23.1384C21.4403 23.0372 21.4924 23.0446 21.4942 23.0449ZM19.4308 29.2365C19.2948 28.8509 19.2287 28.412 19.2072 27.9696C19.1688 27.1771 19.2698 26.2864 19.4552 25.4596C19.6401 24.6347 19.9148 23.8473 20.2393 23.2671C20.4006 22.9786 20.5858 22.7202 20.7955 22.5359C21.0038 22.3528 21.2821 22.2051 21.6056 22.2504C21.9057 22.2925 22.1293 22.4718 22.2878 22.6856C22.4429 22.8949 22.5543 23.1604 22.6386 23.4423C22.8076 24.0072 22.8968 24.7408 22.9477 25.4991C22.999 26.2629 23.0128 27.0794 23.0219 27.8188C23.023 27.9062 23.024 27.9924 23.025 28.0773C23.0323 28.6973 23.0387 29.2438 23.0637 29.6551C23.3329 30.6528 23.8798 32.0621 24.5138 33.4431C25.1564 34.8425 25.8739 36.1813 26.4595 37.0104C26.553 37.1427 26.7213 37.2727 26.9926 37.3891C27.2622 37.5047 27.6063 37.5952 28.0153 37.6646C28.8348 37.8038 29.8484 37.8483 30.9115 37.8787C31.0866 37.8837 31.263 37.8883 31.4399 37.8929C32.3244 37.916 33.2196 37.9394 34.0097 38.0128C34.9375 38.099 35.8161 38.2599 36.3745 38.6369C36.7042 38.8593 36.9489 39.2986 37.1277 39.7631C37.3151 40.2498 37.4615 40.8483 37.549 41.4828C37.7222 42.7382 37.6761 44.2201 37.182 45.3076C36.8406 46.0591 36.0289 46.6205 35.0072 46.9897C33.9705 47.3643 32.6465 47.5684 31.1638 47.5543C28.1965 47.5261 24.536 46.6234 21.1582 44.3734C20.1917 43.7297 19.1384 42.3551 18.1908 40.8145C17.2327 39.2569 16.346 37.4679 15.7271 35.9324C15.7236 35.9238 15.7205 35.9151 15.7176 35.9062L13.5286 29.1568C13.4866 29.0273 13.5131 28.8853 13.5991 28.7798C13.685 28.6742 13.8187 28.6194 13.954 28.6343L19.4308 29.2365Z" fill="#111111"/>
</svg>
