<svg width="135" height="116" viewBox="0 0 135 116" fill="none" xmlns="http://www.w3.org/2000/svg">
<path d="M33.9576 30.7964C29.5176 38.4515 33.0007 52.2308 35.2972 58.1636C20.3683 58.1636 8.12157 55.8663 3.33708 68.8801C-1.43524 81.8609 1.40875 96.3648 3.32247 106.125L3.33708 106.199C4.86812 114.007 15.075 115.066 19.9871 114.62C51.3095 115.322 115.715 116.151 122.758 113.854C131.561 110.984 133.475 86.1043 134.241 74.2388C134.853 64.7463 127.479 62.8836 123.715 63.1387C124.289 59.5663 125.093 49.7039 123.715 38.8336C122.337 27.9632 109.234 24.9909 102.854 24.8636C81.7388 23.6515 38.3976 23.1412 33.9576 30.7964Z" fill="#1659A5"/>
<path fill-rule="evenodd" clip-rule="evenodd" d="M37.4812 28.6444C35.8527 29.3509 34.7838 30.1387 34.2917 30.9871C32.1361 34.7037 31.8843 39.9576 32.4846 45.0789C33.0675 50.0524 34.4447 54.8266 35.5679 57.7891C36.9973 57.8554 39.6601 57.9675 40.6587 57.9675C40.8711 57.9675 41.0433 58.1397 41.0433 58.3521C41.0433 58.5645 40.8711 58.7366 40.6587 58.7366C39.5782 58.7366 36.6303 58.6095 35.2896 58.546C33.4222 58.5458 31.5973 58.5099 29.8273 58.4726C29.6931 58.4698 29.5591 58.4669 29.4255 58.4641C27.7934 58.4295 26.2098 58.3959 24.6782 58.3904C21.3621 58.3783 18.312 58.4982 15.5864 59.0173C12.864 59.5357 10.4811 60.4498 8.48904 62.0156C6.49936 63.5796 4.87505 65.8131 3.69948 69.0106C-1.03564 81.8902 1.79102 96.306 3.70822 106.084L3.71592 106.123C4.44519 109.842 7.23648 111.98 10.5237 113.14C13.8149 114.302 17.5362 114.454 19.9538 114.235L19.9754 114.233L19.9972 114.233C35.6566 114.584 59.5856 114.967 80.479 114.975C90.926 114.979 100.611 114.889 108.123 114.655C111.879 114.538 115.088 114.385 117.576 114.19C120.08 113.993 121.81 113.757 122.64 113.487C124.69 112.818 126.399 110.843 127.814 107.951C129.223 105.071 130.304 101.357 131.138 97.3392C132.807 89.3068 133.476 80.1453 133.858 74.2118C134.157 69.5828 132.514 66.8774 130.395 65.3427C128.249 63.7891 125.561 63.3969 123.742 63.5202L123.729 63.5211H121.611C121.399 63.5211 121.226 63.3489 121.226 63.1366C121.226 62.9242 121.399 62.752 121.611 62.752H123.387C123.95 58.9653 124.668 49.3964 123.335 38.8797C122.667 33.6158 119.166 30.2453 114.99 28.1619C110.808 26.0756 105.996 25.3087 102.848 25.2459L102.841 25.2457L102.834 25.2453C92.2843 24.6398 76.1845 24.2097 62.1727 24.8867C55.165 25.2252 48.6935 25.8401 43.7038 26.8442C41.2081 27.3464 39.0977 27.9432 37.4812 28.6444ZM124.167 62.7322C126.086 62.6939 128.7 63.1657 130.846 64.7198C133.202 66.4258 134.94 69.3979 134.626 74.2613C134.243 80.1934 133.572 89.4042 131.891 97.4956C131.051 101.54 129.955 105.325 128.505 108.289C127.062 111.239 125.23 113.451 122.879 114.218C121.947 114.521 120.125 114.761 117.636 114.956C115.131 115.153 111.908 115.306 108.147 115.424C100.623 115.658 90.9286 115.748 80.4787 115.744C59.5875 115.736 35.665 115.353 20.0016 115.003C17.5066 115.226 13.6808 115.07 10.2677 113.865C6.84066 112.656 3.76297 110.36 2.96121 106.271L2.93988 106.162C1.02948 96.4196 -1.83192 81.8273 2.97765 68.7453C4.19433 65.4359 5.89503 63.0764 8.01377 61.411C10.1301 59.7474 12.639 58.7957 15.4425 58.2618C18.2427 57.7285 21.3526 57.6092 24.681 57.6213C26.22 57.6269 27.8105 57.6606 29.4413 57.6952C29.5751 57.698 29.7092 57.7008 29.8435 57.7037C31.4393 57.7373 33.0736 57.7697 34.7416 57.7758C33.6208 54.7486 32.2937 50.0568 31.7208 45.1685C31.1153 40.0032 31.3421 34.5398 33.6264 30.6012C34.2443 29.5359 35.5011 28.6651 37.1751 27.9389C38.8612 27.2075 41.0302 26.5977 43.5521 26.0902C48.5975 25.0749 55.1135 24.4577 62.1355 24.1185C76.18 23.44 92.3045 23.8708 102.871 24.4771C106.102 24.5426 111.028 25.326 115.333 27.4737C119.648 29.6258 123.387 33.1767 124.098 38.783C125.425 49.2542 124.736 58.7944 124.167 62.7322Z" fill="#111111"/>
<path fill-rule="evenodd" clip-rule="evenodd" d="M21.8203 76.6132C21.8203 76.4018 21.9917 76.2305 22.2031 76.2305H65.3213C65.5327 76.2305 65.7041 76.4018 65.7041 76.6132C65.7041 76.8246 65.5327 76.996 65.3213 76.996H22.2031C21.9917 76.996 21.8203 76.8246 21.8203 76.6132Z" fill="#111111"/>
<path d="M92.6725 4.72196C85.5222 4.72195 82.3017 18.8229 79.797 25.9794C79.4132 28.032 75.01 26.5347 67.0711 30.5469C60.72 33.7567 62.9883 39.0298 64.9164 41.2652C60.5931 41.7994 52.0809 44.3713 52.6182 50.3858C53.1556 56.4003 58.9653 58.1861 61.8029 58.3271C61.5508 58.6186 61.7977 60.4273 64.8022 65.3297C67.8067 70.232 74.328 68.4118 77.2131 66.889C87.8827 79.7356 92.3203 72.2884 93.2054 66.959C95.6643 68.3991 101.176 69.3825 103.552 61.7948C105.927 54.207 104.328 45.2321 100.193 41.2651C112.045 45.9862 104.893 32.1593 101.057 26.6677C97.2218 21.1762 99.4402 4.72196 92.6725 4.72196Z" fill="#00BC68"/>
<path fill-rule="evenodd" clip-rule="evenodd" d="M95.9598 7.54622C95.191 5.98847 94.1667 5.10281 92.6771 5.10281C91.0293 5.10281 89.5814 5.91144 88.28 7.29717C86.975 8.68667 85.8444 10.6295 84.8456 12.8237C83.4503 15.8887 82.3416 19.3705 81.3691 22.4248C80.9486 23.7452 80.5536 24.9857 80.1719 26.0781C80.1064 26.3976 79.9596 26.6624 79.7332 26.8766C79.5072 27.0904 79.218 27.2385 78.8963 27.3534C78.3531 27.5473 77.6235 27.6761 76.7608 27.8283C76.6236 27.8526 76.483 27.8774 76.3393 27.9031C74.2155 28.2838 71.1708 28.9042 67.2484 30.8866C65.7062 31.666 64.7136 32.5572 64.1075 33.4711C63.5029 34.3827 63.2698 35.3366 63.2764 36.2669C63.2897 38.1443 64.2824 39.9369 65.2108 41.0133C65.303 41.1202 65.3289 41.2692 65.2781 41.401C65.2272 41.5328 65.108 41.6258 64.9679 41.6431C62.8378 41.9063 59.6812 42.6725 57.1366 44.1022C54.5847 45.536 52.7555 47.568 53.004 50.3499C53.2604 53.2197 54.7668 55.0722 56.5608 56.236C58.3678 57.4082 60.461 57.8751 61.8265 57.9429C61.9727 57.9502 62.1019 58.0402 62.1595 58.1747C62.2114 58.2962 62.1967 58.4348 62.1229 58.5421C62.1221 58.5464 62.1211 58.552 62.1202 58.559C62.1143 58.604 62.1124 58.6835 62.1273 58.8071C62.157 59.0538 62.2478 59.4297 62.4451 59.9651C62.8387 61.0337 63.6376 62.6876 65.1331 65.1278C66.5437 67.4294 68.7743 68.1655 71.0517 68.1342C73.342 68.1026 75.634 67.2902 77.039 66.5486C77.1991 66.4641 77.3965 66.5033 77.5122 66.6425C80.1635 69.8348 82.4041 71.7367 84.2728 72.7291C86.134 73.7175 87.6029 73.7934 88.753 73.3781C89.9141 72.9588 90.8245 72.0125 91.5052 70.8122C92.185 69.6137 92.6165 68.1943 92.8324 66.8944C92.853 66.7701 92.9335 66.6639 93.0475 66.6105C93.1616 66.557 93.2947 66.5631 93.4034 66.6268C94.5742 67.3125 96.4615 67.8795 98.3168 67.3903C100.141 66.9093 102.032 65.3801 103.191 61.6785C104.36 57.946 104.551 53.8665 103.941 50.2337C103.329 46.5938 101.92 43.4464 99.9327 41.5394C99.8006 41.4126 99.7768 41.21 99.8759 41.056C99.975 40.9021 100.169 40.8398 100.339 40.9076C101.801 41.49 102.945 41.7755 103.821 41.8348C104.697 41.8941 105.27 41.7257 105.639 41.4426C106.004 41.1626 106.229 40.7247 106.312 40.1155C106.395 39.5015 106.33 38.7424 106.139 37.877C105.37 34.3991 102.658 29.6196 100.748 26.885C99.7385 25.4395 99.1471 23.3094 98.7093 20.9911C98.4426 19.5787 98.2269 18.0571 98.0129 16.5472C97.876 15.5808 97.7397 14.6193 97.5912 13.6943C97.2058 11.2944 96.7353 9.11769 95.9598 7.54622ZM62.126 58.5297C62.126 58.5298 62.1258 58.5304 62.1254 58.5315C62.1258 58.5302 62.126 58.5296 62.126 58.5297ZM99.4615 20.849C99.898 23.1603 100.468 25.1464 101.376 26.4467C103.301 29.2037 106.084 34.0834 106.886 37.7116C107.088 38.6227 107.171 39.4805 107.07 40.2189C106.969 40.9621 106.676 41.6119 106.105 42.05C105.538 42.4851 104.756 42.6653 103.769 42.5986C103.117 42.5544 102.36 42.4016 101.487 42.1302C103.077 44.1772 104.174 46.9993 104.696 50.1068C105.325 53.8501 105.129 58.052 103.922 61.9072C102.705 65.7933 100.652 67.5663 98.512 68.1305C96.6449 68.6228 94.7865 68.174 93.491 67.5412C93.2419 68.7612 92.8133 70.0576 92.1711 71.1899C91.4375 72.4834 90.4056 73.5952 89.013 74.0981C87.6094 74.6049 85.9131 74.467 83.9137 73.4052C81.9707 72.3733 79.72 70.4593 77.1199 67.3669C75.6266 68.107 73.3584 68.868 71.0623 68.8996C68.6066 68.9334 66.0743 68.1285 64.4804 65.5278C62.9714 63.0655 62.1446 61.3639 61.7267 60.2297C61.5182 59.6638 61.4068 59.2264 61.3673 58.8988C61.3578 58.8205 61.3521 58.7458 61.3507 58.675C59.8964 58.5334 57.9019 58.0185 56.1442 56.8782C54.1897 55.6103 52.5225 53.5627 52.2415 50.418C51.9527 47.1854 54.111 44.9241 56.7616 43.4348C59.1612 42.0866 62.0523 41.3141 64.2055 40.9773C63.3415 39.7982 62.5238 38.0939 62.5109 36.2723C62.5033 35.2036 62.7734 34.0977 63.4695 33.048C64.1641 32.0006 65.2696 31.0289 66.9031 30.2034C70.9195 28.1735 74.0458 27.5365 76.2043 27.1496C76.3525 27.123 76.4952 27.0978 76.6324 27.0735C77.5075 26.9186 78.1617 26.8028 78.6389 26.6324C78.908 26.5363 79.0879 26.4333 79.2071 26.3205C79.3189 26.2147 79.3916 26.0872 79.4253 25.9072C79.4289 25.8881 79.4339 25.8694 79.4403 25.8511C79.8115 24.7905 80.2018 23.5651 80.6208 22.2494C81.5991 19.1779 82.7342 15.6142 84.1489 12.5065C85.1621 10.2808 86.3338 8.25117 87.722 6.7731C89.1137 5.29127 90.7498 4.33729 92.6771 4.33729C94.5714 4.33729 95.8077 5.50841 96.6462 7.20743C97.478 8.89274 97.9616 11.1728 98.347 13.5729C98.5007 14.53 98.6385 15.5032 98.7757 16.4727C98.9868 17.9643 99.1967 19.447 99.4615 20.849Z" fill="#111111"/>
<path d="M77.4868 28.5474C77.3025 31.202 78.8339 33.4706 80.9071 33.6145C82.9804 33.7583 84.8104 31.723 84.9946 29.0683C85.1788 26.4137 83.6474 24.1451 81.5742 24.0012C79.501 23.8574 77.671 25.8927 77.4868 28.5474Z" fill="white"/>
<path fill-rule="evenodd" clip-rule="evenodd" d="M80.9601 32.8508C79.4737 32.7477 78.0825 31.0197 78.2504 28.6004C78.4183 26.181 80.0347 24.6618 81.5212 24.7649C83.0077 24.8681 84.3988 26.596 84.2309 29.0154C84.063 31.4347 82.4466 32.9539 80.9601 32.8508ZM80.9071 33.6145C78.8339 33.4706 77.3025 31.202 77.4868 28.5474C77.671 25.8927 79.501 23.8574 81.5742 24.0012C83.6474 24.1451 85.1788 26.4137 84.9946 29.0683C84.8104 31.723 82.9804 33.7583 80.9071 33.6145Z" fill="#111111"/>
<path d="M78.3424 29.9049C78.1987 31.762 79.3726 33.3674 80.9645 33.4906C82.5563 33.6138 83.9632 32.2081 84.107 30.351C84.2507 28.4938 83.0767 26.8884 81.4849 26.7652C79.893 26.642 78.4861 28.0477 78.3424 29.9049Z" fill="#111111"/>
<path d="M84.3023 28.9952C83.9496 31.6327 85.2316 33.9805 87.1658 34.2392C89.1 34.4979 90.9539 32.5694 91.3066 29.9319C91.6594 27.2944 90.3773 24.9466 88.4432 24.6879C86.509 24.4292 84.6551 26.3576 84.3023 28.9952Z" fill="white"/>
<path fill-rule="evenodd" clip-rule="evenodd" d="M85.5483 32.1424C85.116 31.3507 84.904 30.271 85.0611 29.0967C85.2181 27.9223 85.7064 26.9363 86.3316 26.286C86.9571 25.6353 87.6744 25.3574 88.3417 25.4466C89.009 25.5359 89.628 25.9925 90.0606 26.7847C90.4929 27.5764 90.7049 28.656 90.5479 29.8304C90.3908 31.0048 89.9026 31.9908 89.2774 32.6411C88.6518 33.2918 87.9346 33.5697 87.2673 33.4804C86.6 33.3912 85.9809 32.9346 85.5483 32.1424ZM87.1658 34.2392C85.2316 33.9805 83.9496 31.6327 84.3023 28.9952C84.6551 26.3576 86.509 24.4292 88.4432 24.6879C90.3773 24.9466 91.6594 27.2944 91.3066 29.9319C90.9539 32.5694 89.1 34.4979 87.1658 34.2392Z" fill="#111111"/>
<path d="M84.9257 29.8549C84.4599 31.6585 85.3355 33.4442 86.8813 33.8434C88.4272 34.2427 90.058 33.1043 90.5238 31.3007C90.9896 29.4972 90.114 27.7115 88.5681 27.3123C87.0222 26.913 85.3915 28.0514 84.9257 29.8549Z" fill="#111111"/>
<path d="M108.067 63.3685C109.081 62.3547 110.679 59.5756 108.961 56.5698C106.099 52.6336 101.805 49.7709 98.9421 48.1607C96.2584 47.0873 95.006 52.8126 95.006 53.8861C94.9464 54.3356 95.0776 55.3227 96.0795 55.6752C96.7952 55.8541 98.0833 56.1806 98.2265 57.3078C94.7655 57.0856 89.5353 56.9995 86.5971 57.8222C83.0188 58.8241 82.005 61.6987 81.9453 63.0107L83.7345 63.0352L86.2392 63.0695L108.067 63.3685Z" fill="#FDFBEF"/>
<path fill-rule="evenodd" clip-rule="evenodd" d="M95.6257 52.488C95.4684 53.1505 95.3985 53.6749 95.3985 53.898V53.9232L95.3951 53.9483C95.3732 54.1139 95.3862 54.4017 95.5055 54.6765C95.6178 54.9355 95.8229 55.1828 96.2003 55.3203C96.5528 55.4085 97.0934 55.5452 97.567 55.8153C97.9824 56.0522 98.3802 56.412 98.5483 56.9567C99.1895 57.0005 99.7632 57.0484 100.242 57.0953C100.452 57.1159 100.606 57.3032 100.585 57.5136C100.565 57.724 100.377 57.8778 100.167 57.8572C99.6275 57.8043 98.9618 57.7498 98.2116 57.7016C96.489 57.591 94.3281 57.5145 92.2351 57.5676C90.1348 57.621 88.1317 57.8046 86.71 58.2026C83.6608 59.0564 82.6006 61.3353 82.3809 62.6456L83.4341 62.66C84.0092 60.2698 86.0349 59.0489 87.0237 58.7229C87.2244 58.6568 87.4408 58.7659 87.507 58.9666C87.5732 59.1674 87.4641 59.3838 87.2633 59.45C86.447 59.719 84.769 60.7349 84.2226 62.6708L85.9204 62.6941C86.0923 61.8854 86.5919 61.2068 87.1336 60.6878C87.7559 60.0917 88.4743 59.6662 88.9563 59.4523C89.1495 59.3665 89.3756 59.4536 89.4614 59.6468C89.5471 59.8401 89.46 60.0662 89.2668 60.152C88.8542 60.3351 88.2129 60.714 87.6632 61.2406C87.2196 61.6656 86.8616 62.1615 86.7063 62.7049L107.915 62.9954C108.862 61.9653 110.169 59.4713 108.649 56.7896C105.842 52.9391 101.629 50.1198 98.7872 48.5192C98.2757 48.3227 97.8456 48.4353 97.4462 48.7603C97.019 49.1078 96.6409 49.6933 96.326 50.3881C96.0145 51.0756 95.7811 51.8337 95.6257 52.488ZM97.6787 56.9026C96.0481 56.8107 94.107 56.7543 92.2157 56.8024C90.1011 56.8561 88.02 57.0409 86.5035 57.4655C82.7318 58.5216 81.638 61.5668 81.5726 63.0052L81.5547 63.3999L108.233 63.7653L108.347 63.651C109.424 62.5746 111.142 59.6096 109.303 56.3918L109.293 56.3735L109.281 56.3565C106.37 52.354 102.019 49.4586 99.1394 47.839L99.1174 47.8266L99.094 47.8172C98.2735 47.489 97.5474 47.6911 96.963 48.1665C96.4005 48.6241 95.9624 49.3357 95.6287 50.0722C95.2916 50.8161 95.0442 51.6235 94.8809 52.3111C94.7238 52.9727 94.6375 53.5533 94.6331 53.8729C94.6001 54.1567 94.6266 54.5743 94.8032 54.9813C94.9905 55.4128 95.3479 55.832 95.9622 56.0482L95.979 56.0541L95.9963 56.0584C96.3601 56.1494 96.8108 56.2653 97.1878 56.4802C97.3928 56.5972 97.561 56.7344 97.6787 56.9026Z" fill="#111111"/>
<path d="M49.0406 54.0973C53.8207 50.9658 62.9168 54.7339 65.6796 57.4966L65.6797 57.4967C66.5742 58.3913 67.111 58.928 68.1844 60.3593C69.0686 61.5382 67.4091 62.0699 66.5742 62.1202L56.5536 64.7763C58.3704 66.5353 60.0461 68.8433 60.1319 71.2455C60.275 75.2531 56.0169 79.714 53.8699 81.4435C52.7964 81.9803 51.0073 82.0161 52.4386 77.8653C54.2277 72.6768 49.0403 71.2455 46.8933 67.3084C46.0453 65.7534 43.8518 57.4964 49.0406 54.0973Z" fill="#FFEB34"/>
<path fill-rule="evenodd" clip-rule="evenodd" d="M65.9501 57.222C65.9501 57.2219 65.9502 57.222 65.9501 57.222C66.8513 58.1231 67.402 58.6742 68.4905 60.1256C68.7535 60.4762 68.8713 60.8402 68.7982 61.1974C68.7269 61.5457 68.4918 61.7983 68.2436 61.9724C67.77 62.3045 67.0942 62.4617 66.6366 62.4956L57.2936 64.9722C58.9469 66.6887 60.4309 68.8919 60.5143 71.2278C60.5905 73.3603 59.5011 75.564 58.1706 77.418C56.8325 79.2825 55.2061 80.8546 54.11 81.7376L54.0779 81.7635L54.041 81.7819C53.7418 81.9315 53.3757 82.0557 53.0101 82.0729C52.6401 82.0904 52.2333 81.9975 51.9317 81.6657C51.6371 81.3417 51.5065 80.8586 51.5248 80.2357C51.5431 79.6097 51.7125 78.7926 52.0767 77.7365C52.5021 76.5028 52.5044 75.5219 52.2612 74.6831C52.0157 73.8364 51.5099 73.0984 50.8568 72.3689C50.4389 71.9021 49.9828 71.461 49.5066 71.0005C49.2251 70.7284 48.9367 70.4494 48.6449 70.1544C47.8757 69.3765 47.1195 68.5188 46.5572 67.4877C46.3215 67.0555 46.0159 66.2099 45.7686 65.1491C45.5195 64.0806 45.3233 62.7673 45.3203 61.3912C45.3145 58.6511 46.0789 55.5759 48.8308 53.7731C51.3639 52.1136 54.9734 52.3099 58.2192 53.2139C61.4754 54.1208 64.5071 55.779 65.9501 57.222ZM56.6631 64.3473L66.513 61.7364L66.5511 61.7341C66.9285 61.7114 67.4742 61.5769 67.8041 61.3456C67.9647 61.233 68.0309 61.1286 68.0482 61.044C68.0636 60.9684 68.0573 60.8238 67.8781 60.5849C66.821 59.1754 66.2981 58.6525 65.412 57.7665L65.4094 57.7638L65.409 57.7634C64.0892 56.4437 61.1914 54.8363 58.0138 53.9514C54.8258 53.0635 51.4973 52.9414 49.2503 54.4134C46.8134 56.0098 46.0802 58.7627 46.0859 61.3896C46.0887 62.6971 46.2755 63.952 46.5141 64.9753C46.7544 66.0062 47.041 66.7759 47.2293 67.1212C47.7405 68.0586 48.4378 68.8562 49.1892 69.6161C49.4538 69.8837 49.7302 70.1513 50.0072 70.4193C50.4997 70.896 50.994 71.3745 51.4271 71.8582C52.1156 72.6272 52.7053 73.4659 52.9964 74.4699C53.2898 75.4817 53.2696 76.6254 52.8004 77.986C52.4489 79.0053 52.3052 79.7403 52.29 80.2582C52.2747 80.7793 52.3901 81.0319 52.4981 81.1508C52.599 81.2618 52.7514 81.3187 52.974 81.3082C53.1896 81.2981 53.4351 81.224 53.6627 81.1148C54.7134 80.2632 56.2702 78.7531 57.5487 76.9716C58.8482 75.1609 59.8163 73.1303 59.7493 71.2551C59.6691 69.0081 58.0878 66.7905 56.2873 65.0473C55.0947 63.8927 53.8404 62.9796 52.956 62.4443C52.7751 62.3349 52.7173 62.0995 52.8267 61.9187C52.9362 61.7378 53.1715 61.68 53.3524 61.7894C54.2444 62.3293 55.4749 63.2216 56.6631 64.3473Z" fill="#111111"/>
<path d="M48.4716 86.6309C49.7598 85.9152 58.671 69.2778 60.818 65.1628C63.8983 59.2586 66.245 59.3182 68.5112 60.3321C70.3599 60.9881 73.8428 62.8727 72.984 65.1628C71.9105 68.0254 58.1329 94.1453 56.7016 95.7555C55.2702 97.3657 43.6409 93.4296 42.3886 90.0302C41.1362 86.6309 46.8614 87.5254 48.4716 86.6309Z" fill="#FFEB34"/>
<path fill-rule="evenodd" clip-rule="evenodd" d="M68.6691 59.9727C67.4984 59.4509 66.2195 59.1392 64.8212 59.8037C63.4502 60.4552 62.0447 62.0101 60.4942 64.9819C59.4222 67.0367 56.6593 72.2216 54.0041 76.9813C52.6762 79.3616 51.3772 81.6319 50.3309 83.3504C49.8074 84.2102 49.3501 84.927 48.9857 85.4488C48.8032 85.7101 48.6478 85.917 48.5218 86.0667C48.4588 86.1415 48.4065 86.198 48.3646 86.2383C48.3211 86.2801 48.3009 86.2927 48.3012 86.2925C48.1479 86.3777 47.9245 86.4519 47.6299 86.5167C47.339 86.5807 47.002 86.6307 46.6328 86.6779C46.4678 86.699 46.2959 86.7195 46.12 86.7405C45.5229 86.8118 44.8786 86.8887 44.2928 87.013C43.5445 87.1717 42.7934 87.4249 42.3217 87.924C42.0766 88.1832 41.9114 88.5041 41.8604 88.8911C41.8103 89.272 41.8737 89.6939 42.045 90.1587C42.2288 90.6577 42.5906 91.1377 43.0528 91.5885C43.5178 92.042 44.1031 92.4841 44.7618 92.9042C46.0792 93.7444 47.7209 94.5159 49.36 95.1263C50.9986 95.7366 52.6521 96.1923 53.9965 96.393C54.6673 96.4931 55.2767 96.5322 55.7758 96.4887C56.2541 96.447 56.7219 96.3225 57.0032 96.0059C57.1152 95.8799 57.2676 95.6595 57.4463 95.3808C57.6297 95.0947 57.8543 94.7257 58.1133 94.2868C58.6316 93.4086 59.2933 92.2417 60.0488 90.8805C61.5602 88.1577 63.4513 84.65 65.3307 81.1042C67.2102 77.5583 69.0788 73.9727 70.5449 71.094C72.0047 68.2278 73.0801 66.0344 73.358 65.2933C73.8779 63.9069 73.0493 62.7026 72.0254 61.8383C70.9893 60.9638 69.6192 60.3115 68.6691 59.9727ZM65.1498 60.4951C64.0108 61.0363 62.7028 62.4037 61.1729 65.336C60.098 67.3963 57.3318 72.5875 54.6726 77.3543C53.3433 79.7372 52.0387 82.0175 50.9848 83.7485C50.4582 84.6133 49.9912 85.3459 49.6133 85.8871C49.4247 86.1572 49.2544 86.3851 49.1073 86.5598C48.9718 86.7208 48.8218 86.879 48.6731 86.9616C48.4239 87.1001 48.1162 87.1936 47.7944 87.2644C47.4689 87.336 47.1042 87.3894 46.7298 87.4372C46.5504 87.4602 46.3689 87.4819 46.1869 87.5036C45.5962 87.5742 45.0002 87.6455 44.4516 87.7619C43.7238 87.9162 43.1778 88.1327 42.878 88.4499C42.7372 88.5988 42.6481 88.7728 42.6194 88.991C42.5899 89.2153 42.6215 89.5091 42.7633 89.8941C42.8926 90.245 43.1681 90.6316 43.5873 91.0405C44.0036 91.4465 44.5434 91.857 45.1734 92.2588C46.4335 93.0624 48.0234 93.8117 49.6271 94.4089C51.2313 95.0064 52.8318 95.4452 54.1095 95.6359C54.7499 95.7314 55.2936 95.7623 55.7093 95.7261C56.1458 95.6881 56.3546 95.5834 56.4311 95.4974C56.498 95.4221 56.621 95.2497 56.8019 94.9676C56.9781 94.6927 57.1973 94.3327 57.4541 93.8977C57.9674 93.028 58.6253 91.8678 59.3795 90.509C60.8876 87.7921 62.7763 84.289 64.6544 80.7457C66.5324 77.2025 68.399 73.6207 69.8628 70.7466C71.333 67.8598 72.3824 65.7148 72.6412 65.0245C72.9801 64.1208 72.4967 63.2379 71.5316 62.4233C70.584 61.6235 69.2969 61.0077 68.3988 60.689L68.3844 60.6839L68.3704 60.6777C67.2788 60.1893 66.2559 59.9694 65.1498 60.4951Z" fill="#111111"/>
<path fill-rule="evenodd" clip-rule="evenodd" d="M85.921 37.0981C87.1111 35.8428 88.7318 35.5371 89.859 35.6337C90.0696 35.6518 90.2257 35.8372 90.2076 36.0478C90.1896 36.2584 90.0042 36.4145 89.7936 36.3965C88.8334 36.3142 87.4662 36.581 86.4765 37.6248C85.4976 38.6573 84.8126 40.5314 85.3729 43.8231C85.4084 44.0315 85.2682 44.2292 85.0598 44.2646C84.8514 44.3001 84.6537 44.1599 84.6183 43.9515C84.0335 40.516 84.7203 38.3646 85.921 37.0981Z" fill="#111111"/>
<path fill-rule="evenodd" clip-rule="evenodd" d="M83.6156 39.1009C82.8353 39.0793 81.9103 39.166 81.2963 39.2537C81.087 39.2836 80.8932 39.1382 80.8633 38.9289C80.8334 38.7197 80.9788 38.5258 81.1881 38.4959C81.8265 38.4047 82.7979 38.3125 83.6368 38.3356C84.0529 38.3471 84.4614 38.3875 84.7862 38.4822C85.074 38.5662 85.4711 38.7448 85.5536 39.1576C85.5951 39.3649 85.4606 39.5665 85.2534 39.608C85.052 39.6482 84.8561 39.5226 84.8069 39.3254C84.7968 39.3148 84.7473 39.2683 84.5718 39.2171C84.3408 39.1497 84.0091 39.1117 83.6156 39.1009Z" fill="#111111"/>
<path fill-rule="evenodd" clip-rule="evenodd" d="M96.3776 39.2927C96.5438 39.1621 96.7844 39.191 96.9151 39.3572C97.2807 39.8226 97.6817 40.6178 97.6901 41.5134C97.6988 42.4384 97.2871 43.4219 96.1107 44.2061C95.9349 44.3234 95.6972 44.2758 95.5799 44.1C95.4627 43.9241 95.5102 43.6864 95.6861 43.5692C96.6567 42.9221 96.9308 42.1761 96.9246 41.5206C96.9182 40.8359 96.6035 40.1998 96.3131 39.8302C96.1825 39.664 96.2114 39.4233 96.3776 39.2927Z" fill="#111111"/>
<path d="M84.9854 63.0156C81.586 63.1945 76.7553 62.6578 70.1355 66.0572C67.9061 67.202 66.5919 71.0294 65.862 75.7185C64.8582 82.168 64.9595 90.2476 65.3049 95.2201C69.7783 96.3532 80.908 97.9396 89.639 95.2201C100.553 91.8207 111.109 68.2041 108.604 63.0156H84.9854Z" fill="#1659A5"/>
<path fill-rule="evenodd" clip-rule="evenodd" d="M84.9831 62.6328H108.612C108.823 62.6328 108.994 62.8042 108.994 63.0156C108.994 63.227 108.823 63.3983 108.612 63.3983H85.0032C84.4532 63.427 83.8704 63.4376 83.2526 63.4488C80.0076 63.5076 75.7973 63.584 70.3181 66.3976C69.3249 66.9076 68.4845 68.0475 67.7978 69.7052C67.1157 71.3517 66.6106 73.4475 66.248 75.7774C65.2503 82.1869 65.3501 90.2346 65.6945 95.1935C65.7091 95.4044 65.55 95.5872 65.3391 95.6019C65.1283 95.6165 64.9454 95.4574 64.9308 95.2466C64.5845 90.2604 64.4815 82.1489 65.4916 75.6596C65.8588 73.3003 66.3758 71.1378 67.0906 69.4122C67.8008 67.6977 68.7322 66.3514 69.9684 65.7166C75.6166 62.8162 80.0062 62.7392 83.2577 62.6821C83.8695 62.6714 84.441 62.6613 84.973 62.6333L84.9831 62.6328Z" fill="#111111"/>
<path d="M81.0647 41.2401C79.237 36.8473 77.1957 40.2636 76.4035 42.5208C76.0858 44.1395 76.1885 46.1371 76.5574 47.0796C76.9262 48.0221 83.5135 49.9274 86.8532 49.4356C89.525 49.0421 88.6357 47.7418 87.8571 47.1408C89.4758 47.4582 90.408 45.3275 89.8752 44.3132C89.4491 43.5018 87.7717 43.9137 86.9863 44.2211C87.577 43.7635 88.2074 42.4119 86.0027 40.6663C83.798 38.9206 81.7921 40.3215 81.0647 41.2401Z" fill="#F77D0E"/>
<path fill-rule="evenodd" clip-rule="evenodd" d="M83.0786 40.3224C82.3043 40.5426 81.6846 41.0666 81.3589 41.4779L80.9553 41.9877L80.7055 41.3873C80.2575 40.3106 79.8287 39.7999 79.4816 39.6024C79.3178 39.5092 79.1708 39.4845 79.033 39.5002C78.8897 39.5165 78.7318 39.5796 78.5596 39.7003C78.2077 39.9469 77.8548 40.3922 77.5339 40.9434C77.2222 41.4787 76.9591 42.0817 76.768 42.6216C76.6198 43.3905 76.5688 44.2534 76.5996 45.039C76.6309 45.8381 76.7453 46.5215 76.906 46.9352C76.9078 46.9377 76.9195 46.9559 76.9543 46.9889C77.0002 47.0324 77.0701 47.0863 77.1684 47.1489C77.3651 47.2741 77.644 47.4144 77.9946 47.5618C78.6936 47.8558 79.6366 48.1614 80.679 48.4245C82.7771 48.9541 85.1987 49.2916 86.7916 49.0571C87.4348 48.9623 87.8162 48.8187 88.0287 48.6771C88.2259 48.5457 88.2581 48.4328 88.2606 48.354C88.264 48.248 88.2147 48.0996 88.0866 47.9195C87.9626 47.745 87.7902 47.5773 87.6174 47.4439L87.9249 46.7653C88.5249 46.883 89.0222 46.5619 89.3382 46.0308C89.6662 45.4796 89.7137 44.8401 89.5305 44.4914C89.4839 44.4026 89.3972 44.3289 89.236 44.2792C89.0688 44.2277 88.8468 44.2113 88.5864 44.2296C88.0662 44.266 87.4898 44.4329 87.1199 44.5777L86.746 43.9187C86.9583 43.7542 87.1886 43.4185 87.1551 42.9543C87.1216 42.4889 86.816 41.8032 85.7592 40.9665C84.7547 40.1711 83.8297 40.1088 83.0786 40.3224ZM82.8692 39.5861C83.854 39.306 85.0343 39.4161 86.2344 40.3663C87.3824 41.2753 87.8639 42.1382 87.9187 42.8994C87.9361 43.1414 87.9097 43.3639 87.8534 43.5643C88.0755 43.5175 88.3064 43.4818 88.5329 43.4659C88.8432 43.4442 89.1696 43.4578 89.4613 43.5476C89.759 43.6393 90.0418 43.8185 90.2082 44.1354C90.5578 44.8009 90.4056 45.734 89.996 46.4223C89.7151 46.8944 89.2759 47.3119 88.7126 47.4788C88.886 47.7235 89.0367 48.0362 89.0258 48.3784C89.014 48.749 88.8162 49.0724 88.4531 49.3143C88.1052 49.546 87.5958 49.7124 86.9031 49.8144C85.1563 50.0717 82.6144 49.7025 80.4917 49.1667C79.4237 48.8972 78.442 48.5805 77.6978 48.2675C77.3268 48.1114 77.0045 47.9521 76.7572 47.7946C76.6336 47.7159 76.5209 47.6327 76.4281 47.5449C76.3388 47.4604 76.2471 47.3521 76.1951 47.2192C75.9879 46.6899 75.8674 45.9056 75.8347 45.0689C75.8016 44.2246 75.8566 43.2903 76.022 42.4472L76.0273 42.4202L76.0365 42.3942C76.2407 41.8122 76.5264 41.1525 76.8723 40.5582C77.2141 39.9713 77.6343 39.4139 78.1202 39.0734C78.3669 38.9005 78.6441 38.774 78.9464 38.7396C79.2541 38.7045 79.5631 38.768 79.8602 38.9371C80.3374 39.2086 80.7713 39.7443 81.1717 40.5598C81.593 40.1695 82.1752 39.7834 82.8692 39.5861Z" fill="#111111"/>
<path d="M75.7888 41.2734C74.3136 40.6281 74.8156 42.6053 74.3546 44.5517C74.0654 45.7733 71.1767 46.7469 68.8585 47.2945C66.6405 45.2223 65.3087 44.6954 63.2905 44.3984C61.676 44.1607 60.405 44.8936 59.9713 45.2897C58.2195 47.0621 56.6727 52.8298 65.1143 54.9605C71.8676 56.665 77.5648 52.9864 79.5693 50.934C80.1225 51.3062 81.6141 52.0629 83.1549 52.112C84.6957 52.1612 85.0205 51.3659 84.9904 50.9621C86.3511 50.8953 86.691 50.1202 86.6278 49.5303C86.1975 49.4723 84.3207 48.9116 80.2556 47.1332C75.1742 44.9103 77.264 41.9188 75.7888 41.2734Z" fill="#FDFBEF"/>
<path fill-rule="evenodd" clip-rule="evenodd" d="M74.9487 43.1584C74.9076 43.6116 74.8506 44.1222 74.7289 44.6362C74.6272 45.0656 74.3127 45.4232 73.9373 45.7165C73.5551 46.015 73.0631 46.2832 72.5243 46.522C71.4454 47.0002 70.1179 47.387 68.9484 47.6633C68.3037 47.8156 67.7018 47.9355 67.2085 48.0193C67.0001 48.0548 66.8024 47.9145 66.767 47.7061C66.7316 47.4977 66.8718 47.3001 67.0802 47.2647C67.37 47.2154 67.7 47.153 68.0555 47.0783C67.2119 46.3407 66.508 45.8555 65.8313 45.5198C65.018 45.1164 64.2237 44.9185 63.2366 44.7733C61.7681 44.5571 60.6134 45.2243 60.2382 45.5622C59.4447 46.3708 58.6803 48.1202 59.0949 49.9001C59.501 51.6435 61.074 53.5417 65.2098 54.5856C71.7834 56.2447 77.3481 52.6585 79.2973 50.6628L79.5201 50.4346L79.7848 50.6126C80.3033 50.9615 81.7252 51.6796 83.1689 51.7257C83.8756 51.7482 84.2333 51.5755 84.4075 51.4187C84.4376 51.3915 84.4636 51.3637 84.4859 51.3357C83.6125 51.2817 82.4699 51.0037 80.9849 50.404C80.7889 50.3249 80.6942 50.1018 80.7734 49.9058C80.8525 49.7098 81.0756 49.6151 81.2716 49.6942C83.029 50.4039 84.2079 50.6136 84.9734 50.576C85.5839 50.5461 85.8998 50.3617 86.0598 50.1832C86.1539 50.0781 86.2101 49.9573 86.2363 49.8336C85.9018 49.748 85.3892 49.5886 84.6774 49.3334C83.6361 48.9601 82.1424 48.3718 80.104 47.4801C78.7964 46.9081 77.925 46.2756 77.3385 45.6226C76.749 44.9662 76.463 44.3065 76.302 43.7072C76.2224 43.4107 76.1738 43.1305 76.1344 42.881C76.126 42.8283 76.1182 42.7777 76.1106 42.7288C76.0813 42.5396 76.0562 42.3775 76.0228 42.2286C75.9413 41.8645 75.8377 41.708 75.6372 41.6203C75.4782 41.5507 75.3747 41.5299 75.3127 41.528C75.2597 41.5264 75.2439 41.5382 75.238 41.5426L75.2378 41.5427C75.2012 41.57 75.1281 41.6762 75.0701 42.0037C75.0279 42.2414 75.0037 42.5235 74.9753 42.8549C74.967 42.9518 74.9583 43.053 74.9487 43.1584ZM85.3376 51.3103C85.9188 51.2288 86.3463 51.0105 86.6299 50.694C86.9626 50.3227 87.0511 49.8672 87.0102 49.4857L86.9782 49.1873L86.6808 49.1472C86.511 49.1243 85.9699 48.9836 84.9357 48.6128C83.9147 48.2467 82.4375 47.6654 80.4108 46.7788C79.1777 46.2393 78.4048 45.6643 77.908 45.111C77.414 44.5611 77.1775 44.0158 77.0414 43.5087C76.9724 43.252 76.9288 43.0037 76.8905 42.7614C76.8833 42.7161 76.8762 42.6704 76.8692 42.6245C76.8395 42.4324 76.8094 42.2377 76.7698 42.0612C76.6695 41.6134 76.4812 41.154 75.944 40.919C75.5368 40.7408 75.1177 40.6773 74.7801 40.9291C74.4816 41.1518 74.3747 41.5406 74.3163 41.87C74.2675 42.1452 74.2393 42.4748 74.2104 42.8131C74.2026 42.9048 74.1947 42.9971 74.1864 43.0892C74.1459 43.5339 74.0928 44.0005 73.984 44.4598C73.9411 44.6411 73.786 44.8632 73.466 45.1132C73.1528 45.3579 72.7235 45.5964 72.2141 45.8221C71.255 46.2472 70.0659 46.6039 68.9703 46.8708C67.9147 45.9002 67.0385 45.2642 66.1715 44.8341C65.2599 44.3818 64.3792 44.1677 63.3481 44.0159C61.5968 43.7582 60.2148 44.5468 59.715 45.0033L59.7077 45.0099L59.7009 45.0169C58.7452 45.9838 57.8661 47.9994 58.3493 50.0738C58.8423 52.19 60.7166 54.241 65.0224 55.3278C71.7232 57.0191 77.3936 53.5529 79.6255 51.4148C80.3416 51.8326 81.7139 52.4452 83.1445 52.4908C83.9787 52.5174 84.5538 52.317 84.9197 51.9876C85.1488 51.7813 85.2787 51.5392 85.3376 51.3103Z" fill="#111111"/>
</svg>
