<svg width="69" height="90" viewBox="0 0 69 90" fill="none" xmlns="http://www.w3.org/2000/svg">
<path d="M37.5709 0.588944C30.8348 2.22846 28.4662 19.3068 28.124 27.641C27.9639 30.3051 25.8649 30.7152 16.418 37.0683C8.86045 42.1508 12.5845 48.4766 15.3911 51.0042C9.98312 52.3705 -0.422206 56.9884 1.22074 64.5302C2.86369 72.072 10.5308 73.4109 14.1589 73.1377C13.8851 73.5476 14.4875 75.8019 19.0878 81.5402C23.688 87.2785 31.6837 83.9312 35.1065 81.5402C50.7145 96.1319 55.1641 85.9806 55.4379 79.0809C58.7923 80.5155 65.9528 80.8844 67.76 70.8833C69.5673 60.8823 58.2446 49.6379 52.3574 45.2659C68.1707 49.3647 56.8755 32.9694 51.1252 26.6163C45.3749 20.2632 45.991 -1.46045 37.5709 0.588944Z" fill="#00BC68"/>
<path fill-rule="evenodd" clip-rule="evenodd" d="M40.1299 1.26451C39.4343 0.907869 38.6357 0.799895 37.6808 1.03232C36.1705 1.39991 34.843 2.65113 33.6937 4.57064C32.5496 6.48137 31.6246 8.98501 30.8914 11.7236C29.4257 17.1979 28.7509 23.5157 28.5807 27.6612L28.5802 27.6698C28.5361 28.4053 28.3533 29.0168 27.928 29.6108C27.5157 30.1866 26.8921 30.7216 26.0198 31.3431C25.2011 31.9266 24.1277 32.6103 22.7456 33.4907C22.6508 33.5511 22.5545 33.6124 22.4567 33.6747C20.9299 34.6476 19.0311 35.8621 16.6741 37.4472C14.8351 38.6839 13.7115 39.9765 13.0841 41.2385C12.4581 42.4975 12.3134 43.7513 12.4711 44.9359C12.7892 47.3253 14.3426 49.4474 15.6978 50.6679C15.8226 50.7802 15.8753 50.9521 15.8349 51.1151C15.7945 51.278 15.6677 51.4055 15.5049 51.4466C12.8375 52.1205 8.94415 53.5966 5.9343 55.8188C2.91622 58.047 0.903282 60.9273 1.66742 64.435C2.45394 68.0454 4.67193 70.1627 7.14543 71.3566C9.63537 72.5586 12.3762 72.8177 14.1272 72.6858C14.3006 72.6728 14.4663 72.7598 14.554 72.91C14.6343 73.0475 14.6363 73.2159 14.5619 73.3544C14.5612 73.3615 14.5606 73.3717 14.5605 73.3856C14.5601 73.4474 14.571 73.5515 14.6101 73.7076C14.6882 74.0192 14.8648 74.484 15.2015 75.1329C15.8738 76.4281 17.1544 78.4002 19.4449 81.2573C21.6148 83.964 24.581 84.5437 27.4783 84.1399C30.3905 83.734 33.1784 82.3356 34.8485 81.169C35.0245 81.046 35.2626 81.063 35.4194 81.2096C39.2996 84.8371 42.4541 86.8954 44.993 87.8585C47.5226 88.8181 49.4122 88.6818 50.8187 87.9661C52.2373 87.2442 53.2474 85.8909 53.9226 84.2559C54.5969 82.6231 54.9191 80.7503 54.986 79.0645C54.9919 78.915 55.071 78.778 55.1974 78.6981C55.3239 78.6182 55.4816 78.6056 55.6191 78.6644C57.2222 79.35 59.7211 79.7707 62.012 78.8501C64.2676 77.9437 66.4318 75.6912 67.3149 70.804C68.1847 65.9909 65.8979 60.8108 62.5784 56.2322C59.2702 51.6692 55.0032 47.7969 52.0887 45.6325C51.914 45.5028 51.8557 45.2675 51.9496 45.0712C52.0435 44.8749 52.2633 44.7727 52.4739 44.8273C54.4265 45.3334 55.9288 45.5142 57.0568 45.4495C58.1844 45.3848 58.896 45.0781 59.3279 44.6522C59.7554 44.2307 59.9723 43.6298 59.9807 42.8382C59.9891 42.0407 59.784 41.0841 59.4019 40.0152C57.8668 35.7208 53.6547 30.0875 50.7905 26.923C49.2792 25.2533 48.2165 22.6169 47.3329 19.7151C46.7825 17.9077 46.2892 15.9502 45.8021 14.0176C45.5071 12.847 45.2144 11.6856 44.9127 10.5721C44.1034 7.58511 43.2264 4.92909 42.0549 3.14928C41.4725 2.26444 40.8366 1.62684 40.1299 1.26451ZM48.2029 19.4502C49.0842 22.3444 50.1008 24.8058 51.4647 26.3127C54.3507 29.5013 58.6615 35.2423 60.2582 39.7091C60.6591 40.8304 60.9 41.9008 60.89 42.8478C60.8799 43.8005 60.6139 44.6614 59.9664 45.2998C59.3234 45.9338 58.3679 46.2852 57.1089 46.3574C56.2934 46.4042 55.3328 46.3353 54.2133 46.1398C57.017 48.4363 60.5014 51.8181 63.3147 55.6984C66.6765 60.3353 69.1474 65.7778 68.2099 70.9658C67.2858 76.0796 64.9661 78.6432 62.3511 79.694C60.0482 80.6194 57.6029 80.3353 55.8587 79.7309C55.7401 81.3276 55.4028 83.0542 54.7632 84.6031C54.0393 86.356 52.9102 87.9222 51.2311 88.7766C49.5399 89.6373 47.3735 89.7341 44.6705 88.7088C42.0381 87.7102 38.8698 85.6392 35.0649 82.1217C33.2897 83.2999 30.5226 84.6338 27.6038 85.0406C24.4975 85.4736 21.1658 84.8578 18.7354 81.8262C16.4256 78.945 15.1049 76.9208 14.3944 75.5518C14.0397 74.8686 13.8296 74.3343 13.7279 73.9286C13.7008 73.8204 13.6804 73.7174 13.6675 73.6202C11.7998 73.6769 9.17323 73.3453 6.75009 72.1756C4.07229 70.883 1.63527 68.5599 0.77884 64.6286C-0.0999639 60.5945 2.26829 57.3949 5.39414 55.0871C8.24292 52.9839 11.8182 51.5399 14.5037 50.7744C13.2089 49.4207 11.8788 47.3782 11.5696 45.0559C11.3902 43.7078 11.5561 42.2691 12.2697 40.8336C12.982 39.4011 14.2269 37.997 16.1666 36.6925C18.5331 35.1011 20.4394 33.8818 21.968 32.9078C22.0619 32.848 22.1543 32.7891 22.2452 32.7312C23.6396 31.8429 24.6935 31.1716 25.4921 30.6025C26.3454 29.9944 26.8671 29.5303 27.1886 29.0813C27.4962 28.6517 27.636 28.2139 27.6722 27.6195C27.8445 23.4307 28.5252 17.0448 30.0129 11.4884C30.7566 8.71072 31.7081 6.11649 32.9134 4.10347C34.1134 2.09924 35.608 0.600854 37.4658 0.148688C38.6159 -0.13124 39.64 -0.00865717 40.5448 0.455257C41.4385 0.913492 42.1808 1.68646 42.8146 2.64927C44.0754 4.56478 44.9826 7.35248 45.7905 10.3343C46.1017 11.4828 46.3978 12.6585 46.6939 13.8338C47.1756 15.7463 47.6571 17.6579 48.2029 19.4502Z" fill="#111111"/>
<path d="M29.2777 32.8796C29.4671 36.2755 31.7706 38.9085 34.4227 38.7606C37.0748 38.6127 39.0713 35.7399 38.8819 32.3441C38.6926 28.9482 36.3891 26.3152 33.737 26.4631C31.0848 26.611 29.0884 29.4837 29.2777 32.8796Z" fill="white"/>
<path fill-rule="evenodd" clip-rule="evenodd" d="M34.3721 37.8526C32.4176 37.9616 30.3595 35.9451 30.1857 32.829C30.012 29.7128 31.8331 27.4801 33.7876 27.3711C35.7421 27.2621 37.8002 29.2785 37.9739 32.3947C38.1477 35.5109 36.3265 37.7436 34.3721 37.8526ZM34.4227 38.7606C31.7706 38.9085 29.4671 36.2755 29.2777 32.8796C29.0884 29.4837 31.0848 26.611 33.737 26.4631C36.3891 26.3152 38.6926 28.9482 38.8819 32.3441C39.0713 35.7399 37.0748 38.6127 34.4227 38.7606Z" fill="black"/>
<path d="M30.582 34.4555C30.6957 36.8336 32.4402 38.6825 34.4786 38.5851C36.5169 38.4876 38.0772 36.4809 37.9636 34.1028C37.8499 31.7247 36.1054 29.8758 34.067 29.9733C32.0287 30.0707 30.4684 32.0774 30.582 34.4555Z" fill="#111111"/>
<path d="M38.0128 32.3596C37.9857 35.7606 39.9856 38.5338 42.4797 38.5537C44.9738 38.5736 47.0176 35.8326 47.0447 32.4315C47.0718 29.0305 45.0719 26.2573 42.5778 26.2375C40.0837 26.2176 38.0399 28.9586 38.0128 32.3596Z" fill="white"/>
<path fill-rule="evenodd" clip-rule="evenodd" d="M40.0384 36.1926C39.3546 35.2444 38.91 33.8943 38.9222 32.3669C38.9344 30.8394 39.4004 29.4966 40.0992 28.5593C40.7985 27.6216 41.6828 27.1398 42.5706 27.1469C43.4583 27.1539 44.3348 27.6497 45.0191 28.5985C45.7029 29.5468 46.1475 30.8968 46.1353 32.4243C46.1231 33.9518 45.6571 35.2946 44.9583 36.2318C44.259 37.1696 43.3747 37.6514 42.4869 37.6443C41.5992 37.6372 40.7227 37.1414 40.0384 36.1926ZM42.4797 38.5537C39.9856 38.5338 37.9857 35.7606 38.0128 32.3596C38.0399 28.9586 40.0837 26.2176 42.5778 26.2375C45.0719 26.2573 47.0718 29.0305 47.0447 32.4315C47.0176 35.8326 44.9738 38.5736 42.4797 38.5537Z" fill="black"/>
<path d="M38.9335 33.3458C38.6302 35.7072 40.0251 37.8323 42.0491 38.0923C44.0732 38.3523 45.9599 36.6488 46.2633 34.2874C46.5666 31.926 45.1717 29.8009 43.1476 29.5409C41.1236 29.2809 39.2369 30.9844 38.9335 33.3458Z" fill="#111111"/>
<path fill-rule="evenodd" clip-rule="evenodd" d="M41.3823 42.6587C41.6726 42.8988 41.7132 43.3288 41.4731 43.619C40.4669 44.8352 39.173 45.2158 38.0139 45.0213C36.8959 44.8337 35.9021 44.1059 35.4858 43.1307C35.338 42.7843 35.4989 42.3835 35.8454 42.2356C36.1919 42.0878 36.5926 42.2487 36.7405 42.5952C36.9528 43.0927 37.5238 43.5559 38.2396 43.676C38.9143 43.7892 39.7233 43.5941 40.422 42.7495C40.6621 42.4592 41.0921 42.4186 41.3823 42.6587Z" fill="black"/>
<path d="M49.3026 50.6798C51.0115 49.4324 53.1509 48.6037 53.922 48.9188C54.9502 49.3389 56.2891 51.6216 57.486 53.4127C58.1057 54.34 62.9044 60.4928 62.2664 62.0558C61.6283 63.6187 59.4922 65.1779 55.92 65.8468C52.3477 66.5158 49.8797 58.8168 49.2768 57.3551C48.6739 55.8933 47.1665 52.2389 49.3026 50.6798Z" fill="#FDFBEF"/>
<path fill-rule="evenodd" clip-rule="evenodd" d="M53.0442 48.4358C53.4063 48.3788 53.7849 48.371 54.0938 48.4972C54.4396 48.6385 54.7692 48.915 55.0722 49.2309C55.3819 49.5537 55.697 49.9534 56.0089 50.3844C56.4258 50.9607 56.8571 51.6223 57.2733 52.2608C57.4748 52.5699 57.6727 52.8735 57.8638 53.1594C57.9526 53.2923 58.131 53.5371 58.3741 53.8706C58.5396 54.0978 58.7352 54.3661 58.9528 54.6682C59.4816 55.4023 60.1246 56.3141 60.7293 57.2481C61.332 58.1791 61.9056 59.1456 62.2892 59.987C62.4807 60.407 62.6321 60.8112 62.7131 61.1739C62.7912 61.5236 62.8197 61.9022 62.6871 62.227C61.9626 64.0017 59.6361 65.6128 56.0034 66.2931C54.9237 66.4953 53.963 66.0523 53.16 65.3493C52.3604 64.6493 51.6682 63.6528 51.0884 62.6223C50.1642 60.9801 49.4738 59.1511 49.0883 58.1298C48.9912 57.8726 48.9135 57.6666 48.8562 57.5278L48.851 57.5151C48.5506 56.7869 48.0055 55.4655 47.8122 54.1179C47.6198 52.7764 47.7563 51.2446 49.0343 50.3118C49.9196 49.6656 50.917 49.1269 51.801 48.7881C52.2427 48.6189 52.6677 48.4951 53.0442 48.4358ZM52.1264 49.6373C51.3208 49.946 50.394 50.4453 49.5704 51.0464C48.7123 51.6728 48.5344 52.7478 48.7124 53.9887C48.8884 55.2157 49.3932 56.4448 49.6969 57.181C49.7643 57.3445 49.8509 57.5734 49.9561 57.8518C50.3476 58.8874 50.9974 60.6064 51.8809 62.1763C52.4399 63.1697 53.0722 64.0638 53.759 64.665C54.4422 65.2631 55.1297 65.5315 55.836 65.3992C59.3478 64.7416 61.2936 63.2343 61.8451 61.8832C61.8721 61.8173 61.8902 61.6617 61.8255 61.3721C61.7638 61.0956 61.6401 60.7554 61.4618 60.3643C61.1057 59.5835 60.5605 58.6608 59.9659 57.7423C59.3731 56.8268 58.7402 55.9289 58.2149 55.1997C58.0137 54.9205 57.8259 54.6626 57.6619 54.4376C57.4043 54.0841 57.2058 53.8116 57.1077 53.6647C56.9037 53.3595 56.699 53.0454 56.4942 52.7311C56.0855 52.104 55.6764 51.4764 55.2721 50.9175C54.9711 50.5015 54.6839 50.1398 54.416 49.8605C54.1414 49.5742 53.9181 49.4078 53.7498 49.3391C53.6731 49.3077 53.4952 49.2854 53.1857 49.3341C52.8908 49.3806 52.5296 49.4829 52.1264 49.6373Z" fill="black"/>
<path d="M36.8177 58.6015C39.6866 60.3942 41.6532 61.4399 44.6298 62.6219C52.9004 65.9061 57.9875 68.3634 60.8934 65.4958C65.8271 60.627 58.8539 55.9688 53.7404 54.1883C50.3097 52.9937 47.0951 51.5275 44.6585 50.6052C42.222 49.6829 41.2512 48.9075 35.2184 45.8939C29.5048 43.0396 26.948 42.4386 26.1596 44.4784C25.5289 46.1102 29.9944 48.9315 32.306 50.1381C30.0102 49.0463 28.2642 48.7576 28.254 50.3496C28.2317 53.8484 33.2315 56.3606 36.8177 58.6015Z" fill="#FDFBEF"/>
<path fill-rule="evenodd" clip-rule="evenodd" d="M28.414 47.114C29.7098 48.1496 31.3766 49.1412 32.5171 49.7366L32.5224 49.7393L32.5276 49.7423C33.8885 50.499 34.7949 51.0519 35.6866 51.5999C35.7385 51.6317 35.7902 51.6635 35.842 51.6954C36.6796 52.2104 37.5254 52.7304 38.7529 53.4262C38.9713 53.55 39.0481 53.8275 38.9242 54.046C38.8004 54.2645 38.5229 54.3412 38.3044 54.2173C37.0627 53.5135 36.2051 52.9862 35.3668 52.4708C35.3146 52.4387 35.2626 52.4067 35.2105 52.3747C34.3258 51.831 33.4352 51.2878 32.0984 50.5441C30.9618 50.0046 30.0335 49.7018 29.4175 49.6936C29.1154 49.6896 28.9555 49.7575 28.8724 49.8318C28.7973 49.899 28.7114 50.0373 28.7094 50.354C28.6997 51.877 29.7868 53.2599 31.466 54.5926C32.7073 55.5777 34.1875 56.4722 35.6151 57.335C36.1067 57.6321 36.5921 57.9254 37.0593 58.2174C39.9103 59.9989 41.8523 61.031 44.7983 62.2008C45.5712 62.5077 46.3142 62.8065 47.0287 63.0938C50.1603 64.353 52.7426 65.3914 54.8842 65.9261C57.5116 66.5822 59.2979 66.4336 60.5747 65.1737C61.7416 64.0221 62.1569 62.9346 62.1225 61.9426C62.0876 60.9366 61.5875 59.9393 60.7447 58.9868C59.0521 57.0738 56.1131 55.4972 53.5915 54.6192C51.4648 53.8787 49.3888 53.0211 47.5503 52.2616C46.4308 51.7992 45.3994 51.3731 44.4982 51.032C43.2537 50.5609 42.3825 50.1263 41.0757 49.4376C40.8509 49.3191 40.613 49.193 40.3578 49.0577C39.1325 48.4082 37.5076 47.5469 35.0159 46.3022C32.1545 44.8728 30.1425 44.0396 28.7649 43.8004C28.0802 43.6815 27.6078 43.7203 27.2819 43.858C26.9759 43.9874 26.7457 44.2265 26.5844 44.6439C26.5136 44.8272 26.5551 45.1361 26.8996 45.6188C27.2299 46.0815 27.7635 46.5942 28.414 47.114ZM29.17 48.7938C28.8379 48.8239 28.5194 48.9274 28.2661 49.154C27.9392 49.4463 27.8031 49.8688 27.8 50.3482C27.7874 52.324 29.189 53.9466 30.9007 55.305C32.1917 56.3295 33.7469 57.2692 35.1871 58.1394C35.668 58.4301 36.1362 58.7129 36.5774 58.9886C39.4642 60.7925 41.4553 61.8519 44.4627 63.0461C45.2203 63.3469 45.9532 63.6417 46.6618 63.9267C49.7971 65.1878 52.4554 66.257 54.6639 66.8084C57.3741 67.4852 59.5843 67.4286 61.2135 65.821C62.5134 64.5382 63.0766 63.2175 63.0313 61.9111C62.9866 60.6188 62.3489 59.4274 61.4258 58.3842C59.5868 56.3057 56.4824 54.6629 53.8905 53.7604C51.7715 53.0225 49.7666 52.1934 47.9567 51.445C46.8289 50.9786 45.7769 50.5436 44.8202 50.1814C43.6281 49.7302 42.7957 49.316 41.4997 48.6331C41.2763 48.5153 41.0394 48.3897 40.7848 48.2548C39.5592 47.6051 37.9245 46.7386 35.4223 45.4886C32.5701 44.0638 30.4469 43.1694 28.9205 42.9044C28.1533 42.7712 27.4816 42.7863 26.9278 43.0204C26.3541 43.2628 25.969 43.7135 25.7361 44.316C25.4917 44.9486 25.7718 45.6042 26.1594 46.1472C26.5613 46.7102 27.1702 47.2842 27.8462 47.8244C28.262 48.1568 28.7121 48.4832 29.17 48.7938Z" fill="black"/>
<path d="M25.6661 49.7825C24.0183 48.4554 21.9207 47.5259 21.1355 47.8041C20.0885 48.1749 18.6427 50.3914 17.3621 52.1237C16.6991 53.0204 11.6135 58.9384 12.1766 60.5299C12.7397 62.1213 14.7993 63.7802 18.3358 64.6181C21.8722 65.456 24.7031 57.8829 25.3748 56.4514C26.0465 55.02 27.7257 51.4413 25.6661 49.7825Z" fill="#FDFBEF"/>
<path fill-rule="evenodd" clip-rule="evenodd" d="M22.0307 47.3664C21.6718 47.2922 21.294 47.2665 20.9795 47.3779C20.6273 47.5026 20.285 47.7631 19.9673 48.0643C19.6426 48.372 19.3089 48.7563 18.9769 49.172C18.5331 49.7279 18.0708 50.3682 17.6248 50.9862C17.4088 51.2853 17.1967 51.5793 16.9922 51.8558C16.8973 51.9842 16.7074 52.2203 16.4488 52.5419C16.2726 52.761 16.0646 53.0197 15.8328 53.3111C15.2697 54.0193 14.5842 54.8995 13.9358 55.8037C13.2895 56.7051 12.6707 57.6432 12.2475 58.4655C12.0363 58.8759 11.8659 59.2724 11.7678 59.6309C11.6732 59.9765 11.6267 60.3533 11.7437 60.684C12.3831 62.4912 14.6305 64.2109 18.2267 65.063C19.2957 65.3163 20.2763 64.9193 21.1118 64.2553C21.9437 63.5941 22.6824 62.6315 23.3106 61.6298C24.3117 60.0333 25.0882 58.2391 25.5218 57.2373C25.631 56.985 25.7184 56.783 25.7822 56.647L25.788 56.6346C26.1227 55.9215 26.7299 54.6274 26.987 53.2905C27.2429 51.9597 27.1793 50.4232 25.9471 49.4308C25.0934 48.7432 24.1228 48.1577 23.2558 47.7774C22.8226 47.5873 22.404 47.4435 22.0307 47.3664ZM22.8905 48.6102C23.6805 48.9568 24.5826 49.4995 25.3766 50.139C26.2041 50.8055 26.3307 51.8877 26.0939 53.1188C25.8599 54.336 25.2972 55.5398 24.9589 56.2607C24.8838 56.4208 24.7865 56.6454 24.6682 56.9184C24.2279 57.9342 23.4972 59.6204 22.5401 61.1467C21.9345 62.1124 21.2605 62.9755 20.546 63.5433C19.8351 64.1083 19.1357 64.3438 18.4364 64.1781C14.9598 63.3544 13.0878 61.7564 12.6011 60.3806C12.5773 60.3135 12.5666 60.1572 12.6449 59.871C12.7197 59.5977 12.8594 59.2638 13.0562 58.8816C13.4489 58.1186 14.0373 57.2229 14.6749 56.3337C15.3104 55.4473 15.9854 54.5805 16.5447 53.8771C16.7588 53.6078 16.9588 53.3591 17.1332 53.1421C17.4073 52.8012 17.6185 52.5384 17.7235 52.3964C17.9418 52.1012 18.1612 51.7972 18.3807 51.493C18.8187 50.886 19.2571 50.2785 19.6875 49.7395C20.008 49.3382 20.312 48.9906 20.5929 48.7243C20.8808 48.4514 21.1117 48.2958 21.2831 48.2351C21.3612 48.2075 21.54 48.1936 21.8467 48.257C22.1391 48.3174 22.4951 48.4367 22.8905 48.6102Z" fill="black"/>
<path d="M37.7591 58.2891C34.8083 59.9435 32.7943 60.8946 29.7648 61.9339C21.3476 64.8215 16.1495 67.0345 13.3831 64.0321C8.68619 58.9345 15.8729 54.6127 21.0652 53.0771C24.5486 52.0468 27.8293 50.7349 30.3069 49.9294C32.7846 49.1239 33.7911 48.3955 39.9601 45.6718C45.8029 43.0921 48.3854 42.6133 49.076 44.6882C49.6284 46.3481 45.034 48.9541 42.6677 50.0496C45.0128 49.068 46.7705 48.8626 46.7051 50.4532C46.5612 53.9492 41.4477 56.221 37.7591 58.2891Z" fill="#FDFBEF"/>
<path fill-rule="evenodd" clip-rule="evenodd" d="M46.7012 47.2163C45.3577 48.1891 43.6456 49.1004 42.4782 49.6409L42.4727 49.6435L42.4673 49.6461C41.0721 50.3374 40.1405 50.8466 39.2237 51.3516C39.1704 51.381 39.1172 51.4103 39.064 51.4396C38.2028 51.9143 37.3333 52.3935 36.0742 53.0302C35.8501 53.1435 35.7603 53.4171 35.8736 53.6412C35.9869 53.8653 36.2604 53.9551 36.4846 53.8418C37.7583 53.1977 38.64 52.7117 39.5018 52.2367C39.5554 52.2072 39.6089 52.1777 39.6625 52.1482C40.572 51.6471 41.4874 51.1468 42.8581 50.4675C44.019 49.9826 44.9606 49.7242 45.5763 49.7453C45.8782 49.7556 46.0347 49.831 46.1142 49.9092C46.186 49.9799 46.2652 50.1221 46.2522 50.4385C46.1896 51.9603 45.038 53.29 43.2974 54.5414C42.0107 55.4664 40.4897 56.2897 39.0228 57.0836C38.5176 57.3571 38.0188 57.627 37.5382 57.8965C34.6058 59.5406 32.617 60.4792 29.6188 61.5078C28.8322 61.7777 28.0758 62.0408 27.3485 62.2938C24.1606 63.4029 21.5319 64.3174 19.3673 64.7498C16.7117 65.2804 14.9345 65.0471 13.719 63.7279C12.6081 62.5222 12.245 61.4163 12.3264 60.4271C12.4091 59.4238 12.956 58.4514 13.843 57.54C15.6246 55.7095 18.6352 54.2744 21.1956 53.5171C23.3551 52.8784 25.4695 52.1204 27.3419 51.4491C28.4821 51.0404 29.5326 50.6637 30.449 50.3658C31.7145 49.9544 32.6054 49.5616 33.9434 48.9358C34.1736 48.8281 34.4172 48.7135 34.6786 48.5904C35.9333 47.9999 37.5973 47.2167 40.1453 46.0917C43.0714 44.7998 45.1207 44.0632 46.508 43.8897C47.1977 43.8035 47.6677 43.8646 47.9867 44.0177C48.2862 44.1614 48.5047 44.4112 48.646 44.8358C48.7081 45.0222 48.652 45.3289 48.2849 45.7947C47.933 46.2411 47.3756 46.7279 46.7012 47.2163ZM45.8663 48.8582C46.1966 48.9041 46.5097 49.0226 46.752 49.2609C47.0646 49.5684 47.1806 49.997 47.1609 50.4759C47.0796 52.4502 45.6025 54.0043 43.8283 55.2798C42.4901 56.2419 40.892 57.1067 39.4121 57.9075C38.9178 58.175 38.4368 58.4353 37.983 58.6897C35.0137 60.3545 32.9746 61.318 29.9139 62.368C29.1428 62.6325 28.3967 62.8922 27.6754 63.1432C24.4838 64.2539 21.7776 65.1957 19.5455 65.6416C16.8062 66.1889 14.6011 66.0274 13.0502 64.3442C11.8127 63.0011 11.3128 61.6552 11.4201 60.3524C11.5262 59.0637 12.2198 57.9039 13.1913 56.9057C15.127 54.9169 18.3059 53.4234 20.9377 52.645C23.0894 52.0087 25.1314 51.2757 26.9748 50.6141C28.1235 50.2018 29.195 49.8172 30.1678 49.501C31.38 49.1069 32.2312 48.7327 33.5581 48.112C33.7868 48.005 34.0295 47.8908 34.2902 47.7681C35.5453 47.1774 37.2192 46.3895 39.778 45.2598C42.6946 43.9721 44.858 43.1795 46.3952 42.9873C47.1678 42.8907 47.8381 42.9377 48.3801 43.1978C48.9417 43.4673 49.3049 43.9357 49.5089 44.5486C49.7231 45.1921 49.4121 45.8337 48.9991 46.3576C48.571 46.9008 47.9355 47.4453 47.2346 47.9528C46.8034 48.265 46.3384 48.5697 45.8663 48.8582Z" fill="black"/>
</svg>
