<svg width="127" height="145" viewBox="0 0 127 145" fill="none" xmlns="http://www.w3.org/2000/svg">
<path fill-rule="evenodd" clip-rule="evenodd" d="M43.9124 30.9994C55.449 30.9994 64.8013 24.0599 64.8013 15.4997C64.8013 6.93944 55.449 0 43.9124 0C32.3757 0 23.0234 6.93944 23.0234 15.4997C23.0234 22.1992 28.7519 27.906 36.7727 30.0704C36.5636 31.1408 36.0416 32.2451 35.5764 33.2294C34.8617 34.7415 34.2809 35.9703 35.1743 36.3573C36.3451 36.4841 40.0454 34.1529 43.2377 30.9914C43.4617 30.9967 43.6866 30.9994 43.9124 30.9994Z" fill="white"/>
<path fill-rule="evenodd" clip-rule="evenodd" d="M37.6702 29.5112L37.532 30.2187C37.3043 31.3845 36.7479 32.5615 36.2956 33.5182L36.2759 33.56C35.9034 34.348 35.6267 34.9438 35.527 35.3855C35.5121 35.4518 35.5031 35.5071 35.4983 35.5525C35.5082 35.55 35.5185 35.5474 35.529 35.5446C35.6961 35.5006 35.9084 35.4243 36.1644 35.3102C36.6761 35.0823 37.3107 34.727 38.0243 34.2601C39.4495 33.3275 41.1325 31.9875 42.6933 30.4417L42.9271 30.2102L43.2559 30.218C43.4739 30.2231 43.6927 30.2257 43.9124 30.2257C49.5314 30.2257 54.5881 28.5347 58.222 25.8383C61.8561 23.1418 64.0276 19.4781 64.0276 15.4997C64.0276 11.5213 61.8561 7.85753 58.222 5.16106C54.5881 2.46464 49.5314 0.773664 43.9124 0.773664C38.2933 0.773664 33.2366 2.46464 29.6027 5.16106C25.9686 7.85753 23.7971 11.5213 23.7971 15.4997C23.7971 21.7154 29.1411 27.2097 36.9742 29.3234L37.6702 29.5112ZM35.1743 36.3573C34.2809 35.9703 34.8617 34.7415 35.5764 33.2294C36.0416 32.2451 36.5636 31.1408 36.7727 30.0704C28.7519 27.906 23.0234 22.1992 23.0234 15.4997C23.0234 6.93944 32.3757 0 43.9124 0C55.449 0 64.8013 6.93944 64.8013 15.4997C64.8013 24.0599 55.449 30.9994 43.9124 30.9994C43.6866 30.9994 43.4617 30.9967 43.2377 30.9914C40.0454 34.1529 36.3451 36.4841 35.1743 36.3573Z" fill="#111111"/>
<path fill-rule="evenodd" clip-rule="evenodd" d="M95.8983 43.8925C102.983 42.2268 108.127 37.2333 108.127 31.332C108.127 24.0682 100.334 18.1797 90.7199 18.1797C81.1061 18.1797 73.3125 24.0682 73.3125 31.332C73.3125 38.5958 81.1061 44.4843 90.7199 44.4843C90.7565 44.4843 90.793 44.4842 90.8295 44.484C92.8389 47.1441 94.7515 49.1006 95.6816 49.1812C96.521 49.3194 96.6827 47.7696 96.3351 45.9496C96.2671 45.5949 96.1909 45.2571 96.1169 44.9296C96.0368 44.5747 95.9594 44.2318 95.8983 43.8925Z" fill="white"/>
<path fill-rule="evenodd" clip-rule="evenodd" d="M95.0066 43.3074L95.7212 43.1394C102.608 41.5204 107.354 36.7395 107.354 31.332C107.354 27.9957 105.566 24.9184 102.562 22.6492C99.5587 20.3797 95.3743 18.9534 90.7199 18.9534C86.0656 18.9534 81.8812 20.3797 78.8774 22.6492C75.8741 24.9184 74.0862 27.9957 74.0862 31.332C74.0862 34.6682 75.8741 37.7456 78.8774 40.0148C81.8812 42.2843 86.0656 43.7106 90.7199 43.7106C90.7389 43.7106 90.7579 43.7106 90.7768 43.7105C90.7932 43.7105 90.8095 43.7104 90.8259 43.7104L91.2133 43.7085L91.4468 44.0177C92.4385 45.3305 93.3937 46.4525 94.2028 47.2483C94.6083 47.6472 94.9623 47.9494 95.2539 48.1511C95.3991 48.2516 95.5177 48.3194 95.6102 48.3617C95.6218 48.367 95.6326 48.3717 95.6426 48.3759C95.6596 48.3226 95.6764 48.2544 95.6908 48.1697C95.7707 47.7013 95.7407 46.9618 95.5751 46.0947C95.5099 45.7546 95.4365 45.4289 95.3622 45.0999L95.3604 45.0915C95.2816 44.7424 95.2011 44.3857 95.1369 44.0298L95.0066 43.3074ZM96.3351 45.9496C96.6827 47.7696 96.521 49.3194 95.6816 49.1812C94.7515 49.1006 92.8389 47.1441 90.8295 44.484C90.793 44.4842 90.7565 44.4843 90.7199 44.4843C81.1061 44.4843 73.3125 38.5958 73.3125 31.332C73.3125 24.0682 81.1061 18.1797 90.7199 18.1797C100.334 18.1797 108.127 24.0682 108.127 31.332C108.127 37.2333 102.983 42.2268 95.8983 43.8925C95.9594 44.2318 96.0368 44.5747 96.1169 44.9296C96.1909 45.2571 96.2671 45.5949 96.3351 45.9496Z" fill="black"/>
<path d="M92.4222 136.512C91.9581 135.554 92.277 121.401 92.5823 115.679L91.2802 108.571L97.4556 110.396C97.465 116.044 97.5679 128.657 97.905 133.926C98.2421 139.196 98.0149 140.553 97.8591 140.573C96.2645 142.814 88.2222 141.27 86.6268 141.004C84.8867 140.715 78.3335 139.794 80.3931 136.802C81.9891 134.484 93.0023 137.71 92.4222 136.512Z" fill="#FFEB34"/>
<path fill-rule="evenodd" clip-rule="evenodd" d="M90.781 108.025L97.8367 110.111L97.8371 110.399C97.8465 116.051 97.9496 128.65 98.2857 133.905C98.4546 136.545 98.4829 138.216 98.4482 139.235C98.4308 139.743 98.3976 140.1 98.3549 140.339C98.334 140.456 98.3078 140.563 98.2716 140.65C98.2539 140.693 98.2263 140.749 98.1825 140.802C98.1687 140.819 98.1492 140.841 98.1237 140.862C97.6193 141.515 96.7056 141.844 95.7136 142.009C94.6695 142.182 93.4322 142.189 92.2156 142.119C90.0625 141.994 87.9103 141.623 86.8956 141.447C86.7626 141.424 86.6492 141.405 86.5579 141.39C86.4851 141.378 86.4032 141.364 86.3131 141.35C85.3461 141.192 83.4419 140.883 81.9359 140.279C81.1214 139.953 80.3492 139.513 79.9295 138.903C79.7123 138.587 79.5876 138.223 79.6065 137.815C79.6253 137.413 79.7827 137.002 80.0692 136.586C80.3396 136.193 80.7824 135.954 81.2754 135.806C81.773 135.657 82.3688 135.586 83.0091 135.564C84.2904 135.521 85.825 135.673 87.2673 135.857C87.8643 135.933 88.4419 136.014 88.9826 136.089C89.7653 136.199 90.4705 136.298 91.0451 136.355C91.4605 136.397 91.7747 136.413 91.9829 136.402C91.9725 136.349 91.9637 136.295 91.9561 136.243C91.931 136.072 91.91 135.857 91.8921 135.608C91.8563 135.108 91.8317 134.447 91.8164 133.669C91.7857 132.111 91.7916 130.069 91.8216 127.88C91.8812 123.527 92.036 118.582 92.1883 115.707L90.781 108.025ZM91.7688 109.124L92.9657 115.657L92.9633 115.703C92.8109 118.557 92.655 123.521 92.5952 127.891C92.5653 130.076 92.5594 132.109 92.5899 133.654C92.6051 134.426 92.6294 135.073 92.6638 135.553C92.681 135.793 92.7004 135.987 92.7216 136.131C92.745 136.291 92.765 136.347 92.765 136.347C92.8041 136.428 92.8384 136.539 92.8214 136.667C92.8032 136.803 92.7332 136.91 92.6486 136.983C92.5056 137.107 92.3134 137.144 92.1797 137.161C91.8828 137.198 91.4541 137.174 90.9679 137.125C90.3826 137.067 89.6478 136.964 88.8486 136.852C88.3095 136.777 87.741 136.697 87.1695 136.624C85.7314 136.441 84.2498 136.296 83.0353 136.337C82.4277 136.358 81.9059 136.425 81.498 136.547C81.0855 136.671 80.835 136.838 80.7064 137.025C80.478 137.357 80.3897 137.63 80.3794 137.851C80.3693 138.068 80.4322 138.269 80.5669 138.464C80.851 138.877 81.4397 139.247 82.2236 139.561C83.644 140.13 85.4625 140.427 86.4391 140.586C86.5284 140.601 86.6107 140.614 86.685 140.627C86.7794 140.642 86.8953 140.662 87.0303 140.686C88.0498 140.861 90.1555 141.225 92.2602 141.346C93.453 141.415 94.625 141.405 95.5871 141.245C96.5709 141.082 97.235 140.779 97.5386 140.353L97.5713 140.307C97.5775 140.283 97.5851 140.249 97.5933 140.203C97.6265 140.017 97.6581 139.702 97.6749 139.209C97.7084 138.226 97.6818 136.584 97.5136 133.954C97.1813 128.759 97.0763 116.464 97.064 110.689L91.7688 109.124Z" fill="#111111"/>
<path d="M103.579 135.488C103.042 134.594 102.246 121.544 102.129 115.803L100.297 108.745L106.634 109.755C107.061 115.38 108.098 127.933 108.826 133.139C109.554 138.345 108.916 138.89 108.916 138.89C107.481 141.332 100.96 141.408 99.3371 141.377C97.423 141.34 90.8162 141.721 92.3862 138.339C93.9562 134.958 104.25 136.605 103.579 135.488Z" fill="#FFEB34"/>
<path fill-rule="evenodd" clip-rule="evenodd" d="M99.7611 108.267L106.991 109.418L107.013 109.705C107.441 115.334 108.476 127.873 109.203 133.065C109.569 135.68 109.596 137.15 109.523 137.979C109.487 138.395 109.425 138.663 109.361 138.839C109.328 138.928 109.294 138.998 109.259 139.053C109.246 139.072 109.234 139.09 109.221 139.106C108.791 139.814 108.026 140.312 107.167 140.67C106.287 141.038 105.252 141.282 104.23 141.444C102.185 141.77 100.123 141.781 99.3014 141.765C99.1239 141.761 98.8992 141.762 98.6394 141.762C97.5534 141.764 95.8562 141.768 94.4539 141.493C93.5907 141.324 92.7584 141.037 92.2502 140.514C91.9877 140.245 91.8092 139.909 91.765 139.504C91.7212 139.102 91.8125 138.665 92.031 138.194C92.5035 137.177 93.5971 136.6 94.7986 136.254C96.0187 135.902 97.468 135.755 98.8173 135.679C99.4945 135.641 100.153 135.621 100.751 135.603L100.84 135.601C101.404 135.584 101.908 135.57 102.326 135.544C102.687 135.521 102.956 135.492 103.136 135.454C103.12 135.402 103.106 135.348 103.093 135.295C103.055 135.135 103.017 134.936 102.979 134.705C102.904 134.241 102.828 133.628 102.752 132.906C102.599 131.46 102.445 129.56 102.305 127.512C102.025 123.438 101.798 118.761 101.738 115.878L99.7611 108.267ZM100.82 109.226L102.509 115.729L102.51 115.774C102.568 118.636 102.796 123.327 103.076 127.416C103.216 129.46 103.369 131.349 103.521 132.781C103.596 133.498 103.671 134.095 103.743 134.539C103.779 134.761 103.813 134.939 103.845 135.072C103.861 135.139 103.876 135.19 103.889 135.227C103.901 135.263 103.908 135.276 103.908 135.276C103.908 135.276 103.907 135.276 103.907 135.276C103.95 135.347 103.99 135.444 103.991 135.561C103.991 135.687 103.947 135.802 103.875 135.894C103.752 136.052 103.567 136.124 103.444 136.162C103.172 136.247 102.774 136.289 102.33 136.316C101.898 136.343 101.383 136.358 100.824 136.374L100.729 136.377C100.131 136.395 99.482 136.415 98.8163 136.452C97.4798 136.527 96.1032 136.671 94.9726 136.997C93.8233 137.328 93.0415 137.814 92.729 138.487C92.555 138.861 92.5093 139.152 92.5338 139.377C92.5579 139.597 92.6529 139.788 92.8189 139.958C93.1677 140.317 93.8124 140.57 94.6439 140.733C95.9631 140.992 97.5489 140.989 98.6409 140.988C98.9162 140.987 99.1602 140.987 99.3605 140.991C100.162 141.006 102.172 140.995 104.152 140.68C105.142 140.522 106.108 140.291 106.905 139.958C107.71 139.622 108.288 139.205 108.58 138.71L108.615 138.649L108.624 138.642C108.627 138.634 108.632 138.624 108.636 138.611C108.669 138.522 108.721 138.328 108.753 137.956C108.818 137.211 108.799 135.806 108.437 133.215C107.719 128.081 106.703 115.845 106.264 110.093L100.82 109.226Z" fill="#111111"/>
<path d="M90.1811 68.612C89.446 70.6019 90.0331 72.6522 91.4925 73.1912C92.9518 73.7303 94.7307 72.5541 95.4658 70.5641C96.2009 68.5741 95.6139 66.5239 94.1545 65.9848C92.6952 65.4458 90.9163 66.622 90.1811 68.612Z" fill="white"/>
<path fill-rule="evenodd" clip-rule="evenodd" d="M90.7577 71.2327C90.5702 70.5781 90.5903 69.737 90.9069 68.88C91.2234 68.0231 91.755 67.3709 92.3229 66.9954C92.8914 66.6195 93.4435 66.547 93.8864 66.7106C94.3294 66.8742 94.7017 67.2882 94.8893 67.9434C95.0768 68.598 95.0567 69.4391 94.7401 70.2961C94.4236 71.153 93.892 71.8052 93.324 72.1807C92.7556 72.5566 92.2035 72.6291 91.7605 72.4655C91.3176 72.3019 90.9453 71.8878 90.7577 71.2327ZM91.4925 73.1912C90.0331 72.6522 89.446 70.6019 90.1811 68.612C90.9163 66.622 92.6952 65.4458 94.1545 65.9848C95.6139 66.5239 96.2009 68.5741 95.4658 70.5641C94.7307 72.5541 92.9518 73.7303 91.4925 73.1912Z" fill="black"/>
<path d="M90.7106 67.5715C90.0332 68.8931 90.4024 70.435 91.5351 71.0156C92.6679 71.5962 94.1352 70.9956 94.8126 69.6741C95.49 68.3526 95.1208 66.8106 93.9881 66.23C92.8553 65.6494 91.388 66.25 90.7106 67.5715Z" fill="#111111"/>
<path d="M100.66 54.9882C105.328 56.4551 106.207 68.614 106.064 74.51C106.053 76.3971 107.512 76.783 113.871 81.7006C118.957 85.6346 116.043 89.9263 113.951 91.5805C117.695 92.7935 124.808 96.5309 123.304 101.776C121.799 107.022 116.339 107.614 113.797 107.254C113.971 107.555 113.442 109.118 109.939 112.955C106.435 116.792 100.96 114.062 98.6602 112.218C86.9974 121.794 84.3329 114.427 84.4585 109.546C82.0306 110.404 76.9719 110.334 76.161 103.195C75.35 96.0553 83.841 88.6431 88.1879 85.8295C76.8648 87.9933 85.5741 76.9456 89.916 72.7279C94.2579 68.5101 94.8265 53.1545 100.66 54.9882Z" fill="#00BC68"/>
<path fill-rule="evenodd" clip-rule="evenodd" d="M98.8502 55.4072C99.3406 55.1944 99.8912 55.155 100.539 55.3585C101.56 55.6796 102.426 56.6048 103.144 58.0058C103.857 59.3991 104.392 61.2016 104.781 63.1648C105.559 67.0886 105.743 71.5722 105.671 74.5019L105.671 74.5092C105.668 75.04 105.771 75.4924 106.051 75.9433C106.32 76.3781 106.742 76.7899 107.328 77.2697C107.879 77.7202 108.605 78.253 109.537 78.9372C109.601 78.9844 109.666 79.0323 109.732 79.0809C110.762 79.8376 112.043 80.7815 113.628 82.0079C114.859 82.9598 115.582 83.9149 115.961 84.8216C116.338 85.7258 116.381 86.6038 116.218 87.4209C115.888 89.072 114.708 90.4854 113.705 91.2783C113.593 91.3668 113.539 91.5097 113.564 91.6502C113.589 91.7906 113.69 91.9058 113.826 91.9498C115.667 92.5464 118.332 93.7636 120.34 95.4629C122.355 97.1675 123.615 99.268 122.926 101.671C122.212 104.16 120.569 105.538 118.788 106.26C116.992 106.988 115.063 107.044 113.845 106.872C113.699 106.851 113.553 106.916 113.471 107.038C113.398 107.146 113.385 107.283 113.433 107.401C113.433 107.403 113.433 107.405 113.433 107.407C113.431 107.443 113.42 107.51 113.386 107.616C113.319 107.825 113.176 108.14 112.91 108.58C112.38 109.458 111.39 110.787 109.647 112.696C108.015 114.483 105.927 114.755 103.921 114.339C101.902 113.922 100.013 112.813 98.8965 111.917C98.7538 111.803 98.5504 111.804 98.409 111.92C95.5129 114.298 93.2046 115.599 91.3841 116.158C89.5717 116.715 88.268 116.53 87.3309 115.972C86.3837 115.408 85.7424 114.423 85.3453 113.247C84.9489 112.073 84.809 110.744 84.8396 109.557C84.8428 109.43 84.7833 109.309 84.6803 109.235C84.5773 109.16 84.4441 109.14 84.324 109.183C83.1748 109.589 81.4152 109.767 79.8653 109.022C78.3444 108.291 76.9341 106.625 76.5397 103.153C76.1524 99.7434 77.9874 96.2116 80.5325 93.138C83.0673 90.077 86.2449 87.5456 88.3924 86.1556C88.5477 86.055 88.6101 85.8585 88.5412 85.6868C88.4723 85.515 88.2914 85.4161 88.1096 85.4509C86.715 85.7174 85.6565 85.7746 84.8747 85.6782C84.0935 85.5818 83.6242 85.3371 83.354 85.0328C83.0872 84.7323 82.9644 84.3171 82.9944 83.7695C83.0247 83.2171 83.2102 82.5595 83.527 81.8265C84.8008 78.8793 88.0189 75.1059 90.1799 73.0066C91.3323 71.8872 92.2063 70.0637 92.9625 68.0565C93.4338 66.8055 93.8726 65.4439 94.3051 64.1013C94.5668 63.2894 94.8261 62.4844 95.0891 61.7152C95.7969 59.6445 96.5342 57.8202 97.4341 56.6276C97.881 56.0355 98.3499 55.6242 98.8502 55.4072ZM113.433 107.386C113.433 107.386 113.433 107.387 113.433 107.389C113.433 107.387 113.433 107.386 113.433 107.386ZM92.2385 67.7838C91.4846 69.7847 90.6593 71.4623 89.6408 72.4517C87.46 74.5702 84.1524 78.4295 82.8168 81.5196C82.4813 82.2959 82.2592 83.048 82.2219 83.7272C82.1844 84.4112 82.3343 85.0496 82.7754 85.5465C83.2132 86.0395 83.8873 86.3359 84.78 86.446C85.299 86.51 85.9038 86.5128 86.6017 86.45C84.5516 87.9415 82.0331 90.1129 79.9366 92.6446C77.3523 95.7654 75.3472 99.5095 75.7709 103.24C76.1874 106.907 77.712 108.845 79.5301 109.719C81.0925 110.471 82.8032 110.401 84.0634 110.071C84.0802 111.185 84.2402 112.392 84.6123 113.494C85.044 114.773 85.7742 115.946 86.9352 116.637C88.1063 117.334 89.6477 117.501 91.6112 116.898C93.5129 116.314 95.8337 115.003 98.6601 112.713C99.8633 113.624 101.739 114.678 103.764 115.097C105.946 115.549 108.347 115.267 110.219 113.217C111.979 111.289 113.006 109.918 113.572 108.98C113.855 108.512 114.03 108.14 114.123 107.852C114.141 107.795 114.156 107.741 114.169 107.688C115.487 107.806 117.333 107.685 119.079 106.977C121.039 106.182 122.879 104.641 123.67 101.884C124.485 99.0419 122.942 96.6509 120.84 94.8723C118.958 93.2798 116.553 92.1065 114.705 91.4345C115.663 90.5312 116.657 89.1705 116.977 87.5726C117.167 86.6183 117.116 85.5824 116.675 84.5237C116.234 83.4676 115.414 82.411 114.102 81.3959C112.508 80.1635 111.222 79.2151 110.19 78.4574C110.127 78.4111 110.065 78.3655 110.004 78.3207C109.062 77.6291 108.353 77.1079 107.818 76.6707C107.247 76.2035 106.908 75.8576 106.708 75.5356C106.519 75.2306 106.443 74.9279 106.445 74.517C106.517 71.5506 106.332 67.0089 105.54 63.0143C105.144 61.0174 104.592 59.1366 103.832 57.6532C103.077 56.1777 102.083 55.0329 100.771 54.6205C99.9598 54.3656 99.2165 54.4049 98.5423 54.6974C97.8778 54.9856 97.3112 55.5061 96.8166 56.1616C95.8335 57.4643 95.0633 59.3987 94.357 61.4649C94.0841 62.2634 93.821 63.0802 93.5582 63.8962C93.1313 65.2219 92.7051 66.5454 92.2385 67.7838Z" fill="#111111"/>
<path d="M94.4768 69.5659C93.9682 71.6255 94.7802 73.5974 96.2906 73.9704C97.8009 74.3434 99.4376 72.9762 99.9462 70.9167C100.455 68.8571 99.6428 66.8851 98.1325 66.5121C96.6221 66.1391 94.9854 67.5064 94.4768 69.5659Z" fill="white"/>
<path fill-rule="evenodd" clip-rule="evenodd" d="M95.342 72.106C95.0827 71.4764 95.0089 70.6383 95.2279 69.7514C95.4469 68.8645 95.9024 68.1571 96.425 67.7206C96.948 67.2837 97.4886 67.15 97.947 67.2632C98.4054 67.3764 98.8216 67.7464 99.0811 68.3765C99.3404 69.0061 99.4142 69.8443 99.1951 70.7312C98.9761 71.618 98.5206 72.3255 97.998 72.762C97.475 73.1989 96.9345 73.3325 96.4761 73.2193C96.0177 73.1061 95.6014 72.7362 95.342 72.106ZM96.2906 73.9704C94.7802 73.5974 93.9682 71.6255 94.4768 69.5659C94.9854 67.5064 96.6221 66.1391 98.1325 66.5121C99.6428 66.8851 100.455 68.8571 99.9462 70.9167C99.4376 72.9762 97.8009 74.3434 96.2906 73.9704Z" fill="black"/>
<path d="M94.8778 68.4725C94.352 69.8613 94.8908 71.3525 96.0812 71.8031C97.2716 72.2538 98.6628 71.4933 99.1886 70.1045C99.7144 68.7157 99.1756 67.2245 97.9852 66.7738C96.7948 66.3232 95.4036 67.0837 94.8778 68.4725Z" fill="#111111"/>
<path d="M85.4159 83.6754C86.284 82.4961 86.7124 80.5385 87.7911 80.5705C89.1394 80.6106 88.3417 83.3224 88.656 84.7974C88.9704 86.2724 91.3652 88.4047 94.0994 88.2416C96.8335 88.0785 96.9975 86.2569 98.2965 87.3744C99.1775 88.1321 99.5277 89.0344 99.8779 90.2602C100.228 91.4859 99.6994 92.9313 95.8504 94.1125C91.4495 95.4632 87.146 93.8735 85.3624 89.2922C84.3293 89.9585 83.7978 89.982 83.519 89.6293C83.6786 90.112 83.5974 90.5262 82.6312 90.1394C81.1269 89.5373 81.5436 88.5625 82.6768 87.4504L81.5842 88.4961C81.1877 88.8426 80.4245 89.3411 81.0002 87.0131C81.1128 86.4923 81.4652 86.0621 81.8123 85.7605C81.0395 86.3481 80.1364 86.944 78.6091 86.3558C76.41 85.5088 78.8342 84.8967 80.1047 84.739C81.3751 84.5813 85.2411 83.9083 85.4159 83.6754Z" fill="#FDFBEF"/>
<path fill-rule="evenodd" clip-rule="evenodd" d="M86.3396 82.8644C86.1584 83.2172 85.9574 83.5834 85.7213 83.9042L85.7192 83.9071L85.7191 83.9071C85.6741 83.967 85.6218 84.004 85.5935 84.0224C85.5606 84.0437 85.5272 84.0609 85.4982 84.0743C85.4403 84.1012 85.373 84.1259 85.3041 84.1485C85.1646 84.1943 84.9827 84.2431 84.7756 84.2932C84.3595 84.3937 83.8129 84.506 83.2369 84.615C82.0856 84.8329 80.7927 85.0421 80.1462 85.1224C79.8422 85.1601 79.468 85.2253 79.1134 85.3139C78.752 85.4041 78.4395 85.5118 78.2409 85.6247C78.1994 85.6483 78.1682 85.6692 78.1452 85.6866C78.1603 85.6993 78.1796 85.7142 78.204 85.731C78.3107 85.8049 78.4822 85.8942 78.742 85.9943C79.4341 86.2608 79.9549 86.2503 80.3798 86.127C80.8148 86.0008 81.1821 85.7481 81.5623 85.4594C81.6911 85.3482 81.8191 85.2529 81.9369 85.1747C82.1114 85.0589 82.3463 85.1028 82.467 85.2739C82.5877 85.445 82.5504 85.6811 82.3828 85.8066C82.3144 85.8578 82.248 85.9087 82.1788 85.9619C82.1375 85.9936 82.0951 86.0261 82.0507 86.0599C81.7381 86.3338 81.459 86.6929 81.3722 87.0943C81.3714 87.0981 81.3705 87.1018 81.3696 87.1055C81.2283 87.6769 81.1762 88.0486 81.1735 88.2797C81.1733 88.2956 81.1734 88.3105 81.1736 88.3244C81.2193 88.2918 81.268 88.2526 81.3172 88.2099L82.4015 87.172C82.4618 87.1128 82.5239 87.0535 82.5876 86.994C82.743 86.8487 82.9866 86.8562 83.1328 87.0107C83.279 87.1653 83.2729 87.4089 83.1192 87.556L82.9399 87.7276C82.6673 87.9953 82.4487 88.2443 82.2938 88.4721C82.1366 88.7032 82.0608 88.8895 82.0426 89.0341C82.0263 89.163 82.0532 89.2706 82.1403 89.3794C82.2375 89.5009 82.426 89.6426 82.7688 89.7798C82.9657 89.8586 83.0995 89.8915 83.1845 89.9013C83.18 89.8741 83.1729 89.8418 83.1623 89.8045C83.0537 89.6453 82.9854 89.4606 82.9392 89.2765C82.8917 89.0875 82.9922 88.8927 83.1738 88.8218C83.3554 88.751 83.5613 88.8264 83.6543 88.9977C83.7251 89.128 83.7957 89.2754 83.8513 89.4253C83.8679 89.439 83.8844 89.4476 83.9016 89.4537C83.9337 89.465 83.9922 89.4753 84.0937 89.4599C84.3082 89.4273 84.6436 89.2911 85.1467 88.9666C85.2443 88.9037 85.365 88.8879 85.4756 88.9237C85.5861 88.9595 85.6746 89.0431 85.7168 89.1514C86.574 91.3532 88.0255 92.8143 89.7726 93.5714C91.5242 94.3305 93.604 94.3949 95.7308 93.7422C97.6308 93.1591 98.6411 92.5297 99.1395 91.9503C99.612 91.4009 99.6446 90.8727 99.4998 90.3659C99.1536 89.154 98.8284 88.3469 98.0382 87.6671C97.7538 87.4225 97.5968 87.3943 97.497 87.401C97.3661 87.4098 97.2172 87.4813 96.933 87.6565C96.9023 87.6755 96.8708 87.695 96.8386 87.7151C96.2914 88.0553 95.5047 88.5444 94.1163 88.6272C92.6427 88.7151 91.275 88.1849 90.2399 87.4485C89.2181 86.7215 88.4567 85.7462 88.2716 84.8775C88.1829 84.4616 88.1755 83.9767 88.185 83.5119C88.1888 83.3281 88.1951 83.1498 88.2012 82.9758C88.2113 82.6898 88.2209 82.4156 88.2184 82.1491C88.2142 81.7198 88.1762 81.398 88.0885 81.1907C88.0475 81.0939 88.0035 81.0415 87.9643 81.0121C87.9284 80.9852 87.8731 80.9596 87.7735 80.9567C87.6373 80.9526 87.5039 81.0057 87.3489 81.1547C87.1866 81.3107 87.0274 81.5476 86.8568 81.8556C86.7448 82.0578 86.6385 82.2703 86.5262 82.4946C86.4663 82.6144 86.4046 82.7376 86.3396 82.8644ZM83.1893 89.9849C83.1893 89.9849 83.1894 89.9845 83.1896 89.9836C83.1894 89.9845 83.1893 89.9849 83.1893 89.9849ZM83.9197 90.2387C84.0146 90.245 84.1116 90.2397 84.2098 90.2248C84.4908 90.1821 84.8092 90.0565 85.171 89.8551C86.1159 92.0049 87.632 93.487 89.465 94.2813C91.4112 95.1247 93.6837 95.1798 95.9578 94.4818C97.9068 93.8837 99.0853 93.1997 99.726 92.4548C100.393 91.6798 100.449 90.8724 100.244 90.1534C99.8895 88.9138 99.5143 87.9163 98.5427 87.0806C98.1775 86.7665 97.8268 86.6034 97.4451 86.629C97.0944 86.6526 96.7879 86.8371 96.527 86.998C96.4962 87.0169 96.4651 87.0362 96.4335 87.0559C95.911 87.3805 95.2619 87.7838 94.0702 87.8549C92.8097 87.9301 91.6129 87.4758 90.6884 86.8181C89.7507 86.151 89.1575 85.3226 89.0283 84.7163C88.9597 84.3948 88.9491 83.9876 88.9585 83.5278C88.9618 83.3694 88.9676 83.2019 88.9735 83.0318C88.984 82.7309 88.9947 82.422 88.992 82.1416C88.9877 81.7035 88.9527 81.2477 88.801 80.8892C88.7222 80.703 88.6049 80.5255 88.4284 80.3932C88.2486 80.2583 88.0339 80.1904 87.7964 80.1834C87.3933 80.1714 87.0686 80.351 86.8128 80.5969C86.5643 80.8358 86.3599 81.156 86.18 81.4808C86.0606 81.6963 85.9412 81.9349 85.824 82.1689C85.7658 82.2852 85.7081 82.4004 85.6513 82.511C85.4872 82.8307 85.3222 83.1296 85.1414 83.3856C85.122 83.3932 85.0961 83.4025 85.0628 83.4135C84.9524 83.4497 84.7938 83.4929 84.5939 83.5412C84.1963 83.6372 83.6643 83.7467 83.0931 83.8548C81.9502 84.0711 80.6749 84.2772 80.0509 84.3546C79.7197 84.3957 79.3145 84.4662 78.9259 84.5633C78.5442 84.6586 78.1499 84.7865 77.8585 84.9521C77.7148 85.0338 77.5639 85.1425 77.4598 85.2886C77.3446 85.4502 77.2851 85.6647 77.3648 85.8944C77.435 86.0963 77.5931 86.2491 77.7636 86.3671C77.9402 86.4894 78.1741 86.6046 78.464 86.7162C79.2993 87.0379 79.9937 87.0446 80.5953 86.87C80.6079 86.8664 80.6204 86.8627 80.6329 86.8589C80.6274 86.8808 80.6221 86.9028 80.6173 86.925C80.4716 87.5149 80.4036 87.9522 80.3999 88.2706C80.398 88.4304 80.412 88.5782 80.4509 88.7077C80.4901 88.8381 80.5625 88.9738 80.6933 89.0693C80.8933 89.2155 81.1095 89.1929 81.2652 89.1433C81.2736 89.3985 81.3605 89.6433 81.5361 89.8628C81.7485 90.1281 82.0719 90.3342 82.4813 90.498C82.7413 90.6021 82.9717 90.6651 83.1719 90.6765C83.3725 90.6879 83.5915 90.6488 83.7581 90.4898C83.838 90.4137 83.8886 90.3264 83.9197 90.2387ZM81.0193 88.41C81.0195 88.4096 81.0228 88.4085 81.0287 88.4076C81.0221 88.4099 81.0191 88.4104 81.0193 88.41Z" fill="black"/>
<path fill-rule="evenodd" clip-rule="evenodd" d="M88.7094 78.4346C88.4713 78.6486 88.1048 78.629 87.8909 78.3909C87.7386 78.2213 87.4379 77.9697 87.0737 77.8123C86.7157 77.6576 86.3468 77.6133 85.9946 77.757C85.6982 77.8779 85.6371 77.9568 85.5162 77.6604C85.3952 77.364 85.7447 76.9025 86.0411 76.7816C86.7676 76.4852 86.9879 76.5124 87.5335 76.7481C88.073 76.9812 88.5062 77.3412 88.7532 77.6161C88.9671 77.8542 88.9475 78.2206 88.7094 78.4346Z" fill="black"/>
<path d="M32.6756 139.959C32.5446 139.085 32.2549 135.79 32.5446 134.376L33.6097 128.561L28.5582 130.055C28.5506 134.675 28.4664 133.533 28.1907 137.843C27.9149 142.154 28.1008 143.264 28.2282 143.281C29.5326 145.114 32.6763 143.999 33.9785 143.633C34.717 143.426 39.7039 142.137 39.0776 140.196C38.3707 138.005 32.8369 141.035 32.6756 139.959Z" fill="#FFEB34"/>
<path fill-rule="evenodd" clip-rule="evenodd" d="M34.1006 128.012L28.1689 129.766L28.1684 130.054C28.1633 133.172 28.1239 133.642 28.013 134.965C27.9602 135.596 27.891 136.421 27.8016 137.818C27.6634 139.979 27.6401 141.348 27.6687 142.185C27.6829 142.602 27.7102 142.898 27.746 143.098C27.7634 143.196 27.7859 143.289 27.8184 143.367C27.8342 143.405 27.8599 143.458 27.9019 143.51C27.9136 143.524 27.9298 143.542 27.9507 143.56C28.73 144.6 30.0028 144.763 31.1342 144.667C32.1116 144.583 33.0907 144.295 33.749 144.101C33.8711 144.066 33.9821 144.033 34.0801 144.005C34.1085 143.997 34.1438 143.988 34.1852 143.976C34.6706 143.843 36.0076 143.474 37.201 142.915C37.8453 142.613 38.4823 142.24 38.9216 141.794C39.3653 141.343 39.6614 140.754 39.4428 140.077C39.3248 139.711 39.0988 139.443 38.7993 139.267C38.5096 139.096 38.1691 139.022 37.8242 138.999C37.1405 138.954 36.3276 139.107 35.5809 139.282C35.285 139.352 35.0021 139.423 34.7353 139.491C34.3008 139.601 33.9091 139.701 33.5737 139.761C33.3205 139.806 33.147 139.818 33.0418 139.808C32.9783 139.341 32.8844 138.378 32.8358 137.351C32.783 136.239 32.7867 135.107 32.9206 134.453L32.9214 134.449L34.1006 128.012ZM33.1128 129.111L32.1618 134.302C32.0069 135.063 32.0106 136.283 32.063 137.388C32.116 138.506 32.2221 139.562 32.29 140.016C32.3147 140.18 32.3977 140.323 32.5301 140.423C32.6509 140.514 32.7899 140.553 32.9094 140.571C33.1433 140.605 33.4279 140.572 33.7095 140.522C34.0686 140.458 34.5114 140.346 34.9702 140.23C35.2315 140.164 35.4981 140.096 35.7572 140.036C36.5025 139.861 37.2156 139.735 37.7734 139.771C38.0492 139.789 38.2582 139.846 38.4071 139.934C38.5462 140.015 38.6478 140.132 38.7065 140.314C38.801 140.607 38.7086 140.907 38.3703 141.251C38.0276 141.599 37.4892 141.925 36.8727 142.214C35.7433 142.743 34.4679 143.096 33.9788 143.231C33.9369 143.242 33.9008 143.252 33.871 143.261C33.761 143.291 33.6408 143.327 33.512 143.364C32.8492 143.559 31.9597 143.819 31.0681 143.896C29.9959 143.988 29.0696 143.8 28.5404 143.056L28.5214 143.029C28.5172 143.012 28.5125 142.99 28.5076 142.962C28.4813 142.815 28.4556 142.561 28.4419 142.159C28.4146 141.358 28.4362 140.017 28.5737 137.868C28.6617 136.492 28.7303 135.672 28.7832 135.04C28.8919 133.743 28.9342 133.237 28.9415 130.344L33.1128 129.111Z" fill="#111111"/>
<path d="M23.5459 139.12C23.5459 138.225 23.7971 138.225 24.7316 134.477L26.2306 128.704L21.0469 129.529C20.7891 130.491 19.8495 132.94 19.2537 137.198C18.6579 141.457 19.1798 141.903 19.1798 141.903C20.3542 143.901 22.8231 143.963 24.1509 143.937C25.7167 143.907 31.121 144.218 29.8368 141.453C28.5525 138.687 23.5459 140.213 23.5459 139.12Z" fill="#FFEB34"/>
<path fill-rule="evenodd" clip-rule="evenodd" d="M26.7663 128.225L20.7398 129.185L20.6793 129.41C20.6318 129.588 20.5588 129.821 20.4676 130.114C20.0797 131.356 19.3627 133.652 18.8769 137.125C18.5773 139.266 18.5547 140.474 18.6143 141.16C18.6442 141.504 18.6958 141.73 18.7515 141.882C18.7797 141.96 18.8103 142.022 18.8424 142.072C18.8526 142.088 18.863 142.103 18.8736 142.117C19.5323 143.216 20.5417 143.774 21.5293 144.052C22.5189 144.331 23.5168 144.338 24.1867 144.325C24.3298 144.322 24.5119 144.323 24.7229 144.323C25.6106 144.325 27.0091 144.328 28.1637 144.102C28.8727 143.963 29.5706 143.725 30.0009 143.283C30.2243 143.053 30.378 142.766 30.416 142.417C30.4535 142.072 30.3747 141.701 30.192 141.307C29.8152 140.496 29.165 140.01 28.4451 139.718C27.7352 139.431 26.9387 139.325 26.2214 139.274C25.8989 139.251 25.5847 139.239 25.2978 139.227C25.2638 139.226 25.2303 139.225 25.1971 139.223C24.8791 139.211 24.6037 139.198 24.3748 139.173C24.153 139.149 24.0151 139.116 23.9391 139.083C23.9441 138.737 23.9957 138.548 24.1644 138.003C24.1733 137.975 24.1824 137.945 24.1917 137.915C24.3745 137.326 24.6664 136.384 25.1128 134.593L26.7663 128.225ZM25.7072 129.185L24.3623 134.364C23.9205 136.136 23.6329 137.064 23.4521 137.647C23.4426 137.678 23.4334 137.707 23.4246 137.736C23.2436 138.321 23.1654 138.591 23.1654 139.099C23.1654 139.247 23.21 139.392 23.3037 139.517C23.3925 139.636 23.508 139.714 23.6162 139.767C23.823 139.869 24.0829 139.915 24.3341 139.942C24.5945 139.971 24.8969 139.984 25.2107 139.997C25.2441 139.998 25.2777 139.999 25.3114 140.001C25.5997 140.012 25.9012 140.024 26.2105 140.046C26.9053 140.096 27.6013 140.195 28.1913 140.434C28.7713 140.668 29.2286 141.028 29.4939 141.6C29.6323 141.898 29.6655 142.122 29.6472 142.29C29.6293 142.453 29.5592 142.596 29.4321 142.726C29.1613 143.005 28.6511 143.209 27.9738 143.342C26.9022 143.552 25.615 143.55 24.7215 143.549C24.4948 143.548 24.2935 143.548 24.1275 143.551C23.4696 143.564 22.5691 143.553 21.6987 143.308C20.8353 143.065 20.0325 142.6 19.5163 141.723L19.4808 141.662L19.4783 141.66C19.4775 141.658 19.4768 141.656 19.476 141.654C19.4525 141.589 19.4108 141.438 19.3847 141.137C19.3323 140.535 19.3466 139.392 19.6429 137.275C20.1185 133.875 20.8106 131.655 21.2019 130.4C21.2637 130.202 21.3179 130.027 21.3627 129.877L25.7072 129.185Z" fill="#111111"/>
<path d="M19.7317 131.718C16.5072 131.718 17.3133 122.833 18.1195 118.39L36.6602 117.582V129.699C36.6602 132.93 23.7623 131.718 19.7317 131.718Z" fill="#8F602C"/>
<path fill-rule="evenodd" clip-rule="evenodd" d="M37.0511 117.18V129.701C37.0511 130.255 36.7662 130.694 36.3373 131.022C35.9187 131.343 35.3433 131.577 34.6861 131.753C33.368 132.106 31.5922 132.258 29.7219 132.309C27.8451 132.359 25.845 132.309 24.0674 132.245C23.5674 132.228 23.0861 132.209 22.6303 132.191C21.4581 132.146 20.4546 132.107 19.7357 132.107C18.699 132.107 18.0427 131.374 17.6515 130.407C17.2607 129.442 17.0824 128.138 17.0315 126.736C16.9294 123.921 17.3372 120.558 17.7428 118.322L17.798 118.019L37.0511 117.18ZM18.4502 118.764C18.0688 120.963 17.7098 124.093 17.8047 126.708C17.8546 128.082 18.0289 129.278 18.3687 130.117C18.7081 130.956 19.1602 131.333 19.7357 131.333C20.4707 131.333 21.4982 131.373 22.6783 131.419C23.1307 131.436 23.6055 131.455 24.0949 131.472C25.8693 131.535 27.8494 131.585 29.701 131.535C31.559 131.485 33.2596 131.334 34.4859 131.006C35.1008 130.841 35.5645 130.639 35.867 130.408C36.1592 130.184 36.2774 129.953 36.2774 129.701V117.988L18.4502 118.764Z" fill="black"/>
<path d="M25.2994 38.4336C21.5174 38.4336 19.7549 54.482 19.3463 62.5062C6.91491 72.0926 9.0161 76.3532 12.1677 81.253C15.3193 86.1527 1.13703 88.7091 0.611758 95.1C0.086489 101.491 11.2922 98.0825 2.8879 111.503C-5.51641 124.924 35.2795 122.368 50.3372 122.155C65.3949 121.942 37.3806 105.326 46.6603 101.491C55.9401 97.6564 31.9528 80.6139 40.0069 80.1878C48.0611 79.7617 39.8318 65.7017 36.33 61.441C32.8282 57.1804 30.0268 38.4336 25.2994 38.4336Z" fill="#00BC68"/>
<path fill-rule="evenodd" clip-rule="evenodd" d="M21.4339 47.534C20.4741 52.5252 19.9326 58.5239 19.7289 62.526L19.7198 62.7039L19.5788 62.8126C13.3724 67.5986 10.8904 70.988 10.2873 73.7206C9.69095 76.4229 10.9082 78.5858 12.4893 81.0438C12.9262 81.7232 13.0801 82.3938 12.9758 83.0531C12.8733 83.7017 12.528 84.2935 12.0536 84.8389C11.1148 85.9182 9.56762 86.9271 7.97267 87.9436C7.86942 88.0094 7.76587 88.0753 7.66214 88.1413C6.13944 89.1103 4.57735 90.1043 3.33669 91.2173C2.01077 92.4069 1.11282 93.68 0.993491 95.1318C0.93256 95.8732 1.04247 96.4536 1.25371 96.9336C1.46606 97.416 1.7902 97.8182 2.18779 98.1892C2.57832 98.5537 3.02638 98.8765 3.50025 99.218L3.53947 99.2463C4.01992 99.5925 4.52493 99.9589 4.96912 100.387C5.88051 101.266 6.53648 102.407 6.38564 104.21C6.23828 105.971 5.32268 108.338 3.21196 111.709C2.19491 113.333 1.96412 114.647 2.26483 115.719C2.56712 116.796 3.43364 117.728 4.8269 118.524C7.62549 120.123 12.332 121.051 17.8458 121.557C26.5859 122.359 37.17 122.088 44.9392 121.889C46.9512 121.837 48.7744 121.79 50.3279 121.768C52.195 121.742 53.3039 121.459 53.8971 121.046C54.1824 120.847 54.3431 120.623 54.4224 120.378C54.5035 120.128 54.5095 119.825 54.4287 119.459C54.2643 118.715 53.7623 117.802 53.0245 116.758C52.2925 115.722 51.3577 114.597 50.367 113.432C50.1744 113.205 49.9796 112.977 49.7837 112.748C47.9821 110.637 46.0929 108.425 45.09 106.485C44.5346 105.411 44.2123 104.351 44.3874 103.401C44.5694 102.414 45.2662 101.647 46.5088 101.134C47.5899 100.687 48.1272 100.077 48.3338 99.382C48.5468 98.6657 48.4333 97.7791 48.0378 96.7426C47.2449 94.6647 45.4088 92.2075 43.4872 89.8028C43.1228 89.3468 42.7551 88.8923 42.3917 88.4433C40.8643 86.5558 39.4139 84.7637 38.6131 83.3475C38.3626 82.9044 38.1662 82.4827 38.0507 82.0936C37.9361 81.7077 37.8918 81.323 37.9827 80.9715C38.0779 80.6035 38.3108 80.3133 38.6649 80.117C39.0056 79.9281 39.4493 79.8298 39.9827 79.8016C40.933 79.7514 41.5998 79.5025 42.0587 79.1334C42.5147 78.7666 42.8018 78.2517 42.9405 77.5979C43.2232 76.2647 42.8737 74.4211 42.1345 72.3845C40.664 68.3324 37.756 63.79 36.0274 61.6868C35.102 60.5608 34.2511 58.525 33.4253 56.1771C32.919 54.7378 32.4112 53.1472 31.8972 51.5367C31.5689 50.5082 31.238 49.4717 30.9033 48.4613C30.0388 45.8518 29.145 43.4042 28.1805 41.6129C27.698 40.7167 27.2091 40.0066 26.7136 39.5249C26.2188 39.0439 25.7494 38.8205 25.2956 38.8205C24.9724 38.8205 24.6275 38.9894 24.2577 39.3984C23.8871 39.8082 23.5264 40.4231 23.1825 41.2199C22.4958 42.811 21.9145 45.0351 21.4339 47.534ZM23.6838 38.8795C24.1358 38.3796 24.6732 38.0469 25.2956 38.0469C26.0236 38.0469 26.6759 38.4094 27.2529 38.9702C27.8291 39.5304 28.362 40.3181 28.8617 41.2461C29.8614 43.1029 30.7732 45.6083 31.6377 48.218C31.9787 49.2472 32.3117 50.2908 32.6406 51.3211C33.151 52.9206 33.6513 54.4882 34.1551 55.9204C34.9871 58.2858 35.7996 60.1912 36.6251 61.1955C38.3983 63.3529 41.3558 67.9708 42.8618 72.1205C43.6109 74.1847 44.0273 76.2024 43.6973 77.7584C43.5296 78.5492 43.1656 79.2359 42.5436 79.7362C41.9246 80.2342 41.0868 80.518 40.0236 80.5742C39.5502 80.5993 39.2375 80.6841 39.0401 80.7936C38.8562 80.8955 38.7696 81.019 38.7317 81.1652C38.6896 81.328 38.6988 81.5582 38.7924 81.8734C38.885 82.1855 39.0515 82.5509 39.2866 82.9667C40.0524 84.321 41.4464 86.0442 42.97 87.9276C43.3387 88.3833 43.7149 88.8484 44.0916 89.3198C46.0002 91.7083 47.9175 94.2574 48.7606 96.4668C49.1831 97.5739 49.3582 98.6512 49.0754 99.6025C48.7862 100.575 48.0431 101.337 46.8043 101.849C45.727 102.294 45.2692 102.885 45.1482 103.541C45.0204 104.235 45.2466 105.104 45.7772 106.13C46.7361 107.984 48.5626 110.125 50.3809 112.255C50.5732 112.481 50.7654 112.706 50.9564 112.931C51.9465 114.095 52.902 115.244 53.6563 116.311C54.4046 117.37 54.9846 118.389 55.1841 119.292C55.2852 119.75 55.2936 120.2 55.1584 120.617C55.0212 121.04 54.7468 121.397 54.3389 121.681C53.5458 122.233 52.2363 122.515 50.3389 122.542C48.8006 122.564 46.9894 122.61 44.9866 122.662C37.2179 122.861 26.5665 123.134 17.7752 122.327C12.2583 121.821 7.40057 120.885 4.4431 119.196C2.95831 118.347 1.89885 117.278 1.51993 115.928C1.13943 114.571 1.47222 113.029 2.55625 111.298C4.64767 107.958 5.48298 105.719 5.61467 104.145C5.74289 102.613 5.20606 101.69 4.43221 100.944C4.03379 100.56 3.57308 100.224 3.08712 99.8739L3.03241 99.8345C2.5707 99.5019 2.0871 99.1535 1.65994 98.7549C1.21217 98.337 0.8127 97.8521 0.545605 97.2452C0.277401 96.6359 0.15204 95.9249 0.222426 95.0685C0.365736 93.3248 1.43755 91.8818 2.82004 90.6414C4.11047 89.4837 5.72458 88.4569 7.2331 87.4973C7.34162 87.4282 7.4496 87.3596 7.55686 87.2912C9.1792 86.2573 10.6195 85.3089 11.4699 84.3312C11.8901 83.848 12.1399 83.3863 12.2117 82.9323C12.2818 82.489 12.1895 82.0079 11.8386 81.4624C10.268 79.0206 8.85886 76.6033 9.53184 73.5538C10.1931 70.5575 12.8407 67.0539 18.9654 62.3089C19.177 58.2881 19.7193 52.3532 20.6742 47.3879C21.1581 44.8716 21.752 42.5821 22.4722 40.9134C22.8318 40.0803 23.2325 39.3787 23.6838 38.8795Z" fill="#111111"/>
<path d="M32.8093 58.9196C32.8093 60.3702 33.9853 61.5462 35.4359 61.5462C36.8865 61.5462 38.0625 60.3702 38.0625 58.9196C38.0625 57.4689 36.8865 56.293 35.4359 56.293C33.9853 56.293 32.8093 57.4689 32.8093 58.9196Z" fill="black"/>
<path fill-rule="evenodd" clip-rule="evenodd" d="M35.4359 60.7725C34.4125 60.7725 33.5829 59.9429 33.5829 58.9196C33.5829 57.8962 34.4125 57.0666 35.4359 57.0666C36.4592 57.0666 37.2888 57.8962 37.2888 58.9196C37.2888 59.9429 36.4592 60.7725 35.4359 60.7725ZM35.4359 61.5462C33.9853 61.5462 32.8093 60.3702 32.8093 58.9196C32.8093 57.4689 33.9853 56.293 35.4359 56.293C36.8865 56.293 38.0625 57.4689 38.0625 58.9196C38.0625 60.3702 36.8865 61.5462 35.4359 61.5462Z" fill="black"/>
<path d="M30.0915 50.5212C30.1469 52.1661 30.8933 53.4758 31.7587 53.4467C32.624 53.4175 33.2807 52.0605 33.2253 50.4157C33.1699 48.7709 32.4235 47.4611 31.5581 47.4903C30.6927 47.5194 30.0361 48.8764 30.0915 50.5212Z" fill="white"/>
<path fill-rule="evenodd" clip-rule="evenodd" d="M29.9442 52.9971C30.2996 53.6209 30.917 54.2513 31.7797 54.2223C32.6425 54.1932 33.216 53.5227 33.5287 52.8764C33.859 52.1938 34.0246 51.3141 33.9935 50.3921C33.9625 49.47 33.7381 48.6034 33.3626 47.9446C33.0072 47.3209 32.3898 46.6904 31.5271 46.7194C30.6643 46.7485 30.0908 47.4191 29.7781 48.0653C29.4478 48.7479 29.2822 49.6276 29.3133 50.5497C29.3443 51.4717 29.5687 52.3383 29.9442 52.9971ZM31.7537 53.4491C30.8883 53.4782 30.1419 52.1684 30.0865 50.5236C30.0311 48.8788 30.6877 47.5218 31.5531 47.4926C32.4185 47.4635 33.1649 48.7733 33.2203 50.4181C33.2757 52.0629 32.619 53.4199 31.7537 53.4491Z" fill="black"/>
<path d="M25.5524 50.9705C25.6078 52.6153 26.3542 53.925 27.2196 53.8959C28.085 53.8668 28.7416 52.5097 28.6862 50.8649C28.6308 49.2201 27.8844 47.9103 27.019 47.9395C26.1537 47.9686 25.4971 49.3256 25.5524 50.9705Z" fill="white"/>
<path fill-rule="evenodd" clip-rule="evenodd" d="M25.4129 53.4464C25.7684 54.0701 26.3857 54.7006 27.2485 54.6715C28.1112 54.6425 28.6847 53.9719 28.9974 53.3257C29.3277 52.643 29.4933 51.7633 29.4623 50.8413C29.4312 49.9192 29.2068 49.0527 28.8314 48.3938C28.4759 47.7701 27.8586 47.1396 26.9958 47.1686C26.1331 47.1977 25.5595 47.8683 25.2469 48.5145C24.9165 49.1971 24.751 50.0768 24.782 50.9989C24.8131 51.9209 25.0374 52.7875 25.4129 53.4464ZM27.2224 53.8983C26.3571 53.9274 25.6106 52.6177 25.5553 50.9728C25.4999 49.328 26.1565 47.971 27.0219 47.9419C27.8872 47.9127 28.6336 49.2225 28.689 50.8673C28.7444 52.5121 28.0878 53.8691 27.2224 53.8983Z" fill="black"/>
<path d="M26.6576 51.7944C26.573 52.9838 27.1187 53.9917 27.8764 54.0456C28.6341 54.0995 29.3169 53.179 29.4015 51.9896C29.4861 50.8001 28.9404 49.7923 28.1827 49.7384C27.425 49.6845 26.7422 50.605 26.6576 51.7944Z" fill="black"/>
<path d="M30.8025 51.5539C30.5686 52.6038 30.9474 53.5816 31.6487 53.7378C32.35 53.8941 33.1081 53.1697 33.342 52.1198C33.576 51.0699 33.1971 50.0921 32.4959 49.9358C31.7946 49.7796 31.0365 50.504 30.8025 51.5539Z" fill="black"/>
<path d="M16.0981 89.421C15.2513 82.2034 20.0967 78.7227 22.6253 77.8846C23.3309 77.6381 24.9187 77.3818 25.6244 78.3283L25.6387 78.3476C26.5102 79.5164 26.8458 79.9666 24.3895 82.0259C22.6253 83.8007 21.7786 86.67 21.9198 89.8647C22.0609 93.0594 25.0363 96.0273 26.5064 97.1119L23.6839 100.07C21.5081 99.5277 16.9448 96.6386 16.0981 89.421Z" fill="#FDFBEF"/>
<path fill-rule="evenodd" clip-rule="evenodd" d="M24.1055 78.0457C23.5909 78.0247 23.0667 78.1391 22.7493 78.2499L22.7464 78.251L22.7435 78.2519C20.3354 79.0501 15.6593 82.3916 16.4788 89.376C17.2781 96.1892 21.4518 98.998 23.5602 99.6356L25.927 97.1553C25.1899 96.5595 24.2328 95.6343 23.4003 94.5099C22.4332 93.2034 21.6052 91.5884 21.5298 89.8819C21.3857 86.6209 22.246 83.6301 24.1117 81.7533L24.124 81.7408L24.1375 81.7296C24.7457 81.2196 25.1665 80.8212 25.4464 80.495C25.7282 80.1666 25.8435 79.9381 25.8808 79.7693C25.9146 79.617 25.893 79.4764 25.805 79.2946C25.7088 79.096 25.5501 78.8807 25.3251 78.5789L25.3107 78.5597C25.0581 78.2207 24.6252 78.0669 24.1055 78.0457ZM25.931 78.0973C25.4781 77.4896 24.7642 77.2983 24.1371 77.2727C23.5066 77.2469 22.8857 77.3832 22.4972 77.5185C19.8474 78.3982 14.8365 82.0181 15.7104 89.4662C16.5766 96.8497 21.2608 99.8657 23.5868 100.445L23.805 100.5L27.0859 97.0614L26.7326 96.8008C26.0257 96.2792 24.9425 95.2928 24.0221 94.0495C23.0988 92.8022 22.3684 91.3359 22.3027 89.8478C22.1648 86.727 22.9934 83.9849 24.6482 82.311C25.2612 81.7964 25.7152 81.3699 26.0336 80.9988C26.3525 80.6271 26.5594 80.2838 26.6362 79.9365C26.7167 79.5728 26.6445 79.253 26.5013 78.9573C26.3694 78.6852 26.1662 78.4126 25.9606 78.1369L25.931 78.0973Z" fill="black"/>
<path fill-rule="evenodd" clip-rule="evenodd" d="M28.165 95.2281C28.326 95.3685 28.3428 95.6128 28.2024 95.7739L22.2487 102.603C22.1083 102.764 21.864 102.781 21.7029 102.64C21.5419 102.5 21.5252 102.256 21.6656 102.095L27.6192 95.2654C27.7596 95.1044 28.004 95.0877 28.165 95.2281Z" fill="black"/>
<path d="M33.1584 64.3487C33.1584 65.3158 32.3744 66.0998 31.4073 66.0998C30.4402 66.0998 29.6562 65.3158 29.6562 64.3487C29.6562 63.3816 30.4402 62.5977 31.4073 62.5977C32.3744 62.5977 33.1584 63.3816 33.1584 64.3487Z" fill="black"/>
<path d="M86.2813 37.2809C85.0791 36.6376 84.7825 35.0703 84.7556 34.4169L97.3422 33.6521C96.9393 35.0146 96.3026 36.5734 93.7328 37.4192C92.1466 37.9414 88.4248 38.428 86.2813 37.2809Z" fill="#F2A04E"/>
<path fill-rule="evenodd" clip-rule="evenodd" d="M84.3696 34.4325C84.3609 34.222 84.5223 34.0433 84.7326 34.0305L97.3193 33.2657C97.4452 33.2581 97.5669 33.3123 97.6455 33.411C97.724 33.5098 97.7494 33.6406 97.7137 33.7616C97.5085 34.4552 97.2317 35.2445 96.653 35.9703C96.0697 36.702 95.2015 37.343 93.8543 37.7864C93.0216 38.0605 91.6574 38.3178 90.2286 38.3624C88.8078 38.4067 87.2601 38.2429 86.0992 37.6217C85.3916 37.243 84.9683 36.6023 84.7204 35.9995C84.4724 35.3965 84.3845 34.7956 84.3696 34.4325ZM85.1812 34.7783C85.2229 35.0486 85.3013 35.3779 85.4359 35.7053C85.6436 36.2103 85.9697 36.6749 86.4643 36.9396C87.4469 37.4654 88.8319 37.6319 90.2045 37.5891C91.569 37.5466 92.8588 37.2996 93.6124 37.0515C94.835 36.6491 95.57 36.0877 96.0481 35.488C96.4032 35.0426 96.6286 34.5616 96.8017 34.0723L85.1812 34.7783Z" fill="black"/>
<path d="M83.2236 30.6624C82.955 29.4861 83.9618 28.9463 84.6152 28.9195C88.2443 29.0103 95.7697 29.1182 96.8393 28.8222C98.1763 28.4523 98.7384 30.8243 98.0037 31.4601C97.1272 32.2186 97.9491 32.8333 97.4972 33.5558C97.0454 34.2783 95.7716 34.3863 95.3831 34.8469C94.9945 35.3075 94.0546 36.3277 92.8082 35.7492C92.4217 35.5698 91.1186 37.0043 90.6942 37.0405C90.0679 37.0938 89.4364 36.3198 89.0504 35.8113C88.7801 35.9764 87.912 36.5065 87.2255 36.4792C86.5443 36.4521 86.0952 35.6067 85.9049 35.0531C85.7637 35.0648 85.2774 34.9004 84.461 34.1486C83.6446 33.3968 83.8917 32.4868 84.1172 32.1258C84.1172 32.1258 83.5364 32.0326 83.2236 30.6624Z" fill="#71BC45"/>
<path fill-rule="evenodd" clip-rule="evenodd" d="M83.3086 29.0787C83.6844 28.721 84.1922 28.5488 84.6009 28.5319C84.6095 28.5316 84.618 28.5315 84.6265 28.5317C86.439 28.5771 89.2243 28.6267 91.6889 28.6281C92.9215 28.6287 94.0709 28.6173 94.9772 28.5874C95.4306 28.5725 95.8198 28.553 96.1266 28.5285C96.4431 28.5032 96.6438 28.4744 96.7378 28.4484C97.1987 28.3209 97.6103 28.4329 97.9294 28.6838C98.2345 28.9238 98.442 29.278 98.5657 29.637C98.6904 29.9987 98.7418 30.3989 98.7063 30.7641C98.6717 31.1199 98.5475 31.5014 98.2584 31.7516C98.0838 31.9027 98.0184 32.024 97.9901 32.1172C97.96 32.2164 97.9594 32.3237 97.9771 32.4757C97.9812 32.5108 97.987 32.55 97.9933 32.5926C98.0358 32.878 98.1016 33.3205 97.8268 33.7599C97.5268 34.2396 96.9784 34.4857 96.5657 34.6561C96.4971 34.6844 96.4322 34.7106 96.3704 34.7355C96.2268 34.7933 96.0997 34.8445 95.9816 34.9008C95.8112 34.9818 95.7219 35.0461 95.6803 35.0953C95.4813 35.3313 95.1107 35.7492 94.6046 36.0261C94.0977 36.3034 93.4449 36.4425 92.7142 36.1291C92.6831 36.1414 92.6372 36.1637 92.5751 36.201C92.4169 36.2958 92.2232 36.444 92.0082 36.6154C91.9611 36.653 91.9128 36.6919 91.864 36.7311C91.7 36.863 91.5303 36.9994 91.3784 37.11C91.2789 37.1825 91.1766 37.2515 91.0789 37.3052C90.9906 37.3538 90.8652 37.4133 90.7286 37.4249C90.2505 37.4656 89.831 37.1926 89.5282 36.9259C89.3145 36.7378 89.1198 36.5177 88.9561 36.3157C88.8146 36.3951 88.6417 36.4858 88.4529 36.5698C88.1013 36.7262 87.6459 36.882 87.2117 36.8647C86.7055 36.8446 86.3289 36.523 86.0775 36.2003C85.8784 35.9448 85.727 35.6507 85.6207 35.3907C85.6192 35.3902 85.6177 35.3897 85.6161 35.3892C85.5097 35.3545 85.3874 35.3005 85.2503 35.2246C84.9759 35.0726 84.6255 34.8235 84.2005 34.4321C83.4069 33.7013 83.4347 32.8365 83.6229 32.2818C83.5855 32.2499 83.5472 32.2138 83.5085 32.1729C83.2639 31.9148 83.0152 31.4797 82.8481 30.7475C82.6825 30.0225 82.9128 29.4554 83.3086 29.0787ZM84.2075 31.7482C84.3236 31.7756 84.4212 31.8552 84.471 31.9647C84.5246 32.0827 84.5156 32.2198 84.4469 32.3297C84.2819 32.5938 84.0919 33.2803 84.7246 33.863C85.1161 34.2235 85.417 34.4325 85.6251 34.5478C85.7293 34.6055 85.8061 34.6374 85.8561 34.6537C85.8781 34.6609 85.8919 34.664 85.8983 34.6653C86.0655 34.6617 86.2173 34.7665 86.2723 34.9263C86.3589 35.1783 86.5014 35.4856 86.6878 35.7248C86.8789 35.97 87.0675 36.0847 87.2425 36.0917C87.4948 36.1017 87.8168 36.006 88.1384 35.8629C88.4503 35.7242 88.7165 35.5619 88.8504 35.4802C89.0198 35.3767 89.2401 35.4183 89.3601 35.5764C89.5519 35.8291 89.7864 36.1225 90.0394 36.3452C90.2972 36.5722 90.5019 36.6612 90.6492 36.6549C90.6562 36.6522 90.6745 36.6447 90.7063 36.6273C90.7626 36.5963 90.8348 36.5488 90.9232 36.4845C91.0585 36.386 91.2075 36.2662 91.368 36.1371C91.4194 36.0958 91.4721 36.0535 91.5258 36.0106C91.738 35.8414 91.969 35.6623 92.1772 35.5375C92.2808 35.4754 92.3964 35.4157 92.5138 35.3803C92.6234 35.3473 92.7978 35.3162 92.9727 35.3973C93.4612 35.6241 93.877 35.5422 94.2333 35.3473C94.6058 35.1435 94.8995 34.8211 95.089 34.5964C95.2418 34.4154 95.4574 34.2934 95.6492 34.2021C95.79 34.1351 95.9515 34.0701 96.1045 34.0084C96.1615 33.9854 96.2172 33.963 96.2704 33.941C96.7046 33.7617 97.019 33.5925 97.1709 33.3497C97.2858 33.1659 97.2673 33.0236 97.2302 32.7378C97.2234 32.6855 97.2159 32.6283 97.2086 32.5652C97.1869 32.3784 97.1733 32.1447 97.2497 31.8927C97.328 31.6348 97.4884 31.3948 97.7521 31.1666C97.8303 31.0989 97.9114 30.9455 97.9363 30.6892C97.9603 30.4424 97.9254 30.1535 97.8343 29.889C97.7421 29.6217 97.6044 29.4126 97.4511 29.292C97.3117 29.1823 97.1517 29.1366 96.9441 29.194C96.7706 29.242 96.5021 29.2746 96.1882 29.2997C95.8645 29.3256 95.4619 29.3455 95.0027 29.3607C94.0838 29.391 92.9245 29.4024 91.6884 29.4017C89.2219 29.4004 86.4379 29.3509 84.6211 29.3055C84.3779 29.3186 84.0622 29.4295 83.842 29.6391C83.6381 29.8331 83.4993 30.124 83.6023 30.5753C83.748 31.2134 83.9461 31.5099 84.0701 31.6409C84.1321 31.7062 84.1788 31.734 84.1984 31.7439C84.2024 31.7459 84.2054 31.7473 84.2075 31.7482ZM92.7497 36.118C92.7497 36.1181 92.7482 36.1184 92.7454 36.1188C92.7484 36.1181 92.7498 36.1179 92.7497 36.118Z" fill="black"/>
<path d="M86.7704 34.975C85.518 34.4002 85.4793 32.8609 85.4793 32.8609C85.4793 32.8609 96.5842 28.7587 96.9455 28.9846C97.3067 29.2106 97.3937 31.1669 96.8785 32.1514C96.3633 33.1359 94.8996 34.0297 93.0747 34.6976C91.2498 35.3654 88.0228 35.5499 86.7704 34.975Z" fill="#802926"/>
<path fill-rule="evenodd" clip-rule="evenodd" d="M85.3457 32.4977L85.4797 32.8606L85.093 32.8703C85.0888 32.7048 85.1904 32.5551 85.3457 32.4977ZM85.8987 33.1185C85.921 33.2444 85.958 33.402 86.0191 33.5698C86.1647 33.9698 86.4329 34.394 86.9322 34.6232C87.1898 34.7414 87.5784 34.8318 88.0679 34.8831C88.5513 34.9337 89.1089 34.9438 89.6896 34.9156C90.8559 34.8591 92.0776 34.6504 92.9422 34.334C93.8358 34.0069 94.6296 33.6285 95.2567 33.219C95.8895 32.8057 96.3224 32.3803 96.5362 31.9717C96.7515 31.5604 96.8566 30.8984 96.8543 30.2848C96.8531 29.9837 96.8259 29.7159 96.7825 29.5194C96.771 29.467 96.759 29.4229 96.7472 29.3867C96.6697 29.4031 96.5705 29.4273 96.4495 29.4597C96.121 29.5476 95.6651 29.6869 95.1208 29.8628C94.0341 30.2139 92.6161 30.7041 91.2063 31.2024C89.7971 31.7005 88.3989 32.2058 87.3528 32.5866C86.8298 32.777 86.395 32.9363 86.0909 33.0479C86.0194 33.0741 85.9552 33.0977 85.8987 33.1185ZM96.9726 28.5935C97.0064 28.598 97.0776 28.6104 97.151 28.6564C97.2903 28.7435 97.3709 28.8795 97.4184 28.9813C97.4704 29.0927 97.5089 29.221 97.538 29.3526C97.5964 29.6172 97.6266 29.9425 97.6279 30.2818C97.6305 30.9489 97.5216 31.7573 97.2217 32.3305C96.9203 32.9063 96.3637 33.4201 95.6797 33.8668C94.9899 34.3173 94.1394 34.7197 93.2081 35.0605C92.2478 35.412 90.9435 35.6294 89.727 35.6884C89.1162 35.718 88.5181 35.7081 87.9873 35.6525C87.4624 35.5976 86.978 35.4955 86.6094 35.3263C85.8562 34.9806 85.4789 34.3478 85.2921 33.8344C85.1982 33.5764 85.1489 33.34 85.1228 33.1679C85.1098 33.0815 85.1024 33.0102 85.0983 32.9591C85.0962 32.9335 85.0949 32.9129 85.0941 32.8979C85.0937 32.8904 85.0935 32.8843 85.0933 32.8797L85.0931 32.8739L85.093 32.8718L85.093 32.871L85.093 32.8703C85.093 32.8701 85.093 32.8703 85.4797 32.8606C85.3457 32.4977 85.3456 32.4977 85.3457 32.4977L85.4708 32.4516C85.5524 32.4215 85.672 32.3775 85.8243 32.3216C86.1289 32.2098 86.5644 32.0503 87.0882 31.8596C88.1355 31.4784 89.5362 30.9722 90.9484 30.473C92.3599 29.9741 93.7859 29.481 94.883 29.1266C95.4306 28.9496 95.9015 28.8055 96.2494 28.7123C96.4222 28.6661 96.573 28.6301 96.6912 28.6095C96.7492 28.5994 96.8103 28.591 96.8673 28.589C96.8957 28.588 96.9326 28.5881 96.9726 28.5935Z" fill="black"/>
<path d="M89.8185 23.8507C86.5014 24.2688 84.5923 26.264 84.4964 28.6637C84.4599 29.579 84.6959 31.6229 85.9314 32.476C87.4757 33.5424 90.7096 33.3537 93.8716 32.3159C97.0335 31.2781 97.4047 28.5954 96.8995 26.6711C96.3942 24.7469 93.9649 23.3281 89.8185 23.8507Z" fill="#F2A04E"/>
<path d="M90.8661 24.1109C88.7131 24.1543 86.8196 24.7957 86.5796 26.2224C86.3964 26.6916 86.7457 27.783 87.3696 28.2555C88.1495 28.8461 90.2752 28.9562 92.4365 28.5105C94.5978 28.0649 95.2281 26.7476 94.6934 25.5421C94.2354 24.5094 93.5129 24.0575 90.8661 24.1109Z" fill="#E37921"/>
<path fill-rule="evenodd" clip-rule="evenodd" d="M89.8647 24.839C89.968 24.7166 90.151 24.701 90.2735 24.8044L90.7341 25.1929C90.8565 25.2963 90.8721 25.4793 90.7687 25.6018C90.6654 25.7242 90.4824 25.7398 90.3599 25.6364L89.8993 25.2479C89.7769 25.1445 89.7614 24.9615 89.8647 24.839Z" fill="black"/>
<path fill-rule="evenodd" clip-rule="evenodd" d="M91.5185 26.3777C91.5821 26.2307 91.7529 26.1631 91.9 26.2267L92.453 26.466C92.6001 26.5296 92.6677 26.7004 92.6041 26.8475C92.5405 26.9945 92.3697 27.0622 92.2226 26.9985L91.6696 26.7592C91.5225 26.6956 91.4549 26.5248 91.5185 26.3777Z" fill="black"/>
<path fill-rule="evenodd" clip-rule="evenodd" d="M90.2841 26.5794C90.381 26.707 90.3561 26.889 90.2285 26.9859L89.7487 27.3504C89.6211 27.4473 89.4391 27.4224 89.3421 27.2948C89.2452 27.1672 89.2701 26.9852 89.3977 26.8883L89.8776 26.5239C90.0052 26.4269 90.1872 26.4518 90.2841 26.5794Z" fill="black"/>
<path fill-rule="evenodd" clip-rule="evenodd" d="M83.7155 28.6344L83.7155 28.6343C83.8303 25.7626 86.1234 23.5372 89.7139 23.0846C93.9847 22.5463 96.9816 23.9687 97.64 26.4761C97.9232 27.5547 97.9732 28.885 97.4692 30.1198C96.9528 31.3851 95.8866 32.4678 94.105 33.0525C92.4684 33.5897 90.7956 33.9135 89.3112 33.9598C87.8541 34.0053 86.4586 33.7872 85.4839 33.1141C84.653 32.5404 84.2156 31.6148 83.9851 30.807C83.7508 29.9856 83.6945 29.1626 83.7155 28.6344ZM84.4886 28.6652C84.5845 26.2655 86.4935 24.2703 89.8106 23.8522C93.957 23.3296 96.3864 24.7484 96.8917 26.6726C97.3969 28.5969 97.0257 31.2796 93.8638 32.3174C90.7018 33.3552 87.4679 33.5439 85.9235 32.4775C84.6881 31.6244 84.4521 29.5805 84.4886 28.6652Z" fill="black"/>
<path d="M44.9827 5.85353C44.4463 6.25589 44.4798 7.08295 44.5636 7.44619C47.0779 8.20068 48.0847 10.0447 49.5097 12.4756C50.6497 14.4203 50.5156 16.7506 50.4318 17.6727C51.3538 17.7565 53.9189 17.5553 53.7847 16.08C53.6171 14.2359 53.2818 12.3917 51.5215 9.62554C49.7612 6.85935 47.1626 5.68588 46.7435 5.51824C46.3244 5.35059 45.6533 5.35059 44.9827 5.85353Z" fill="#C56332"/>
<path fill-rule="evenodd" clip-rule="evenodd" d="M46.6039 5.87754C46.3131 5.76124 45.7841 5.73923 45.2189 6.16314C45.0604 6.28196 44.9659 6.47871 44.9266 6.72555C44.9028 6.87492 44.9025 7.02455 44.9133 7.15055C47.3247 7.9654 48.3927 9.79217 49.6821 11.9975C49.7368 12.091 49.7918 12.1852 49.8474 12.2801C50.9064 14.0866 50.9216 16.187 50.8523 17.3021C51.2935 17.3009 51.8836 17.2463 52.3961 17.0909C52.7376 16.9874 53.0099 16.8494 53.1842 16.6832C53.345 16.5299 53.4251 16.353 53.4035 16.1152C53.2402 14.3184 52.9195 12.5368 51.1991 9.83337C49.5007 7.16441 46.9873 6.03093 46.6039 5.87754ZM44.7547 5.54421C45.5306 4.96223 46.3437 4.94022 46.8912 5.15921C47.346 5.34112 50.0297 6.55457 51.8519 9.41801C53.6521 12.2469 54.002 14.1536 54.174 16.0451C54.2194 16.5449 54.0292 16.9465 53.718 17.2432C53.4203 17.527 53.0188 17.7106 52.6206 17.8313C51.8235 18.0729 50.9003 18.1035 50.4008 18.058L50.0155 18.023L50.0505 17.6378C50.1337 16.7227 50.2533 14.5023 49.18 12.6713C49.1414 12.6054 49.1031 12.5401 49.0651 12.4753C47.687 10.1219 46.7381 8.50152 44.4565 7.81684L44.2412 7.75226L44.1907 7.53332C44.1393 7.31069 44.1054 6.96248 44.1626 6.6038C44.2196 6.2457 44.3766 5.82774 44.7547 5.54421Z" fill="black"/>
<path d="M33.0859 18.0911C33.0859 17.6217 33.4212 17.5051 33.4212 17.5051L51.1081 17.4204C51.1081 16.0122 52.114 15.772 52.6169 15.7441C53.1199 15.7159 54.1258 15.9963 54.1258 17.0853C54.1258 18.2923 53.2875 18.7617 52.8684 18.8456H33.5051C33.2815 18.7897 33.0859 18.5606 33.0859 18.0911Z" fill="#D38459"/>
<path fill-rule="evenodd" clip-rule="evenodd" d="M53.7658 15.6707C54.1807 15.9383 54.5088 16.3981 54.5088 17.0853C54.5088 18.5201 53.4944 19.1142 52.9405 19.225L52.9029 19.2325H33.4536L33.4074 19.2209C32.95 19.1066 32.6953 18.6655 32.6953 18.0912C32.6953 17.7533 32.8201 17.5121 32.97 17.3551C33.0414 17.2802 33.1137 17.2294 33.1707 17.1963C33.1993 17.1797 33.2246 17.1672 33.2449 17.1581C33.2551 17.1535 33.2641 17.1498 33.2717 17.1468C33.2755 17.1453 33.279 17.1439 33.2821 17.1428L33.2865 17.1412L33.2885 17.1405L33.2895 17.1401L33.2899 17.14C33.2901 17.1399 33.2904 17.1398 33.4174 17.5052L33.2904 17.1398L33.3512 17.1187L50.7418 17.0354C50.8206 16.4383 51.0844 16.0247 51.4356 15.757C51.8373 15.4509 52.3033 15.3739 52.5916 15.3579M33.5275 17.8915L51.4911 17.8055V17.4205C51.4911 16.8213 51.6982 16.5297 51.9046 16.3724C52.1315 16.1994 52.4199 16.1423 52.6346 16.1304C52.8182 16.1201 53.1116 16.1694 53.3465 16.3209C53.5603 16.4588 53.7352 16.6836 53.7352 17.0853C53.7352 18.0285 53.1212 18.3831 52.8218 18.4588H33.571C33.5608 18.4513 33.5488 18.439 33.5359 18.4185C33.5074 18.3728 33.469 18.2746 33.469 18.0912C33.469 17.9647 33.5087 17.9119 33.5275 17.8915ZM53.7658 15.6707C53.3721 15.4169 52.9109 15.3401 52.5916 15.3579L53.7658 15.6707Z" fill="black"/>
<path d="M49.2615 11.3012C47.585 8.61885 45.4335 7.61296 44.5673 7.44531L44.1068 7.85735L42.9463 8.89569L41.4873 10.2011L40.5648 11.0265L33.4187 17.4204C33.2688 17.5545 33.3562 17.588 33.4187 17.588H36.2687C36.6711 17.588 36.7717 18.4821 36.7717 18.9292C36.7437 19.4042 36.9058 20.3542 37.7776 20.3542C38.8673 20.3542 38.7834 19.0969 38.7834 18.3424C38.7834 17.7389 39.3423 17.588 39.6217 17.588H42.8908C43.4273 17.588 43.5614 18.0351 43.5614 18.2586V21.4439C43.5894 21.7233 43.8129 22.2822 44.4835 22.2822C45.1541 22.2822 45.3776 21.7233 45.4055 21.4439V18.3424C45.4055 17.588 46.16 17.4204 46.3276 17.4204C46.4953 17.4204 47.082 17.5042 47.082 18.3424C47.082 19.6836 47.585 20.1866 48.2556 20.1866C48.9262 20.1866 49.2615 19.2645 49.2615 18.3424C49.2615 17.6048 50.435 17.4204 51.0218 17.4204C51.1335 16.4983 50.9379 13.9836 49.2615 11.3012Z" fill="#E89023"/>
<path fill-rule="evenodd" clip-rule="evenodd" d="M44.4488 7.03125L44.6373 7.06772C45.6175 7.25743 47.8574 8.33266 49.5859 11.0984C51.3082 13.854 51.5249 16.4572 51.4022 17.4691L51.361 17.8094H51.0182C50.7533 17.8094 50.3634 17.8524 50.0545 17.9689C49.725 18.0932 49.6447 18.2311 49.6447 18.3446C49.6447 18.8447 49.555 19.3678 49.3545 19.7812C49.1559 20.1909 48.7996 20.5756 48.252 20.5756C47.8076 20.5756 47.3899 20.4017 47.099 19.9945C46.8229 19.6079 46.6916 19.0536 46.6916 18.3446C46.6916 18.0271 46.5872 17.9201 46.532 17.8787C46.4555 17.8213 46.3605 17.8094 46.3241 17.8094C46.325 17.8094 46.3245 17.8095 46.3226 17.8097C46.3139 17.8106 46.2759 17.8149 46.2176 17.8319C46.1516 17.8511 46.0778 17.8816 46.011 17.925C45.8883 18.0048 45.7888 18.1235 45.7888 18.3446V21.4654L45.7869 21.4846C45.7667 21.6862 45.6809 21.9717 45.4811 22.2153C45.2696 22.4732 44.939 22.6712 44.4799 22.6712C44.0208 22.6712 43.6903 22.4732 43.4788 22.2153C43.279 21.9717 43.1931 21.6862 43.173 21.4846L43.171 21.4654V18.2608C43.171 18.2109 43.1529 18.1275 43.1098 18.0677C43.0911 18.0417 43.069 18.0218 43.041 18.0073C43.0133 17.9931 42.9662 17.977 42.8873 17.977H39.6181C39.5327 17.977 39.4014 18.003 39.3046 18.0657C39.2287 18.1149 39.1667 18.187 39.1667 18.3446C39.1667 18.3885 39.1671 18.4361 39.1676 18.4867C39.1705 18.8341 39.1747 19.3245 39.0579 19.7384C38.9885 19.9846 38.8676 20.2413 38.6484 20.4368C38.4217 20.639 38.1265 20.7432 37.774 20.7432C37.1585 20.7432 36.7821 20.3903 36.5865 19.9927C36.4049 19.6233 36.3665 19.202 36.3813 18.9211C36.3805 18.7176 36.3565 18.4252 36.2941 18.194C36.2651 18.0869 36.2341 18.0164 36.2092 17.977H33.4152C33.3703 17.977 33.3061 17.9717 33.2374 17.9471C33.1744 17.9245 33.0468 17.8628 32.9807 17.7109C32.9101 17.5484 32.9597 17.4011 33.0029 17.3213C33.0452 17.243 33.1049 17.1811 33.1572 17.1343L44.4488 7.03125ZM44.6707 7.87087L34.2403 17.2034H36.2652C36.5319 17.2034 36.7167 17.3585 36.8264 17.5095C36.9324 17.6552 36.9979 17.8327 37.041 17.9923C37.1284 18.316 37.1549 18.6881 37.1549 18.9314V18.9428L37.1543 18.9541C37.1429 19.1483 37.1732 19.4325 37.2808 19.6513C37.3773 19.8475 37.5178 19.9696 37.774 19.9696C37.9664 19.9696 38.0693 19.9167 38.1334 19.8595C38.205 19.7957 38.2675 19.6909 38.3133 19.5284C38.3975 19.2298 38.3956 18.8644 38.3936 18.5046C38.3933 18.4511 38.3931 18.3977 38.3931 18.3446C38.3931 17.8988 38.6105 17.5936 38.8839 17.4165C39.1363 17.2529 39.4242 17.2034 39.6181 17.2034H42.8873C43.2816 17.2034 43.5654 17.3763 43.7377 17.6157C43.8958 17.8352 43.9447 18.0871 43.9447 18.2608V21.4234C43.9559 21.5027 43.996 21.6259 44.077 21.7247C44.1519 21.8161 44.2684 21.8975 44.4799 21.8975C44.6914 21.8975 44.8079 21.8161 44.8828 21.7247C44.9638 21.6259 45.0039 21.5027 45.0152 21.4234V18.3446C45.0152 17.8113 45.2929 17.469 45.5893 17.2764C45.8636 17.0981 46.1678 17.0357 46.3241 17.0357C46.4553 17.0357 46.7375 17.0657 46.9962 17.2598C47.2764 17.4699 47.4653 17.824 47.4653 18.3446C47.4653 18.9769 47.5856 19.3446 47.7285 19.5448C47.8568 19.7243 48.0258 19.8019 48.252 19.8019C48.375 19.8019 48.5217 19.7256 48.6584 19.4437C48.7932 19.1656 48.8711 18.7666 48.8711 18.3446C48.8711 17.7205 49.3776 17.3974 49.7815 17.245C50.0669 17.1374 50.382 17.0799 50.6557 17.0538C50.6807 16.0195 50.3851 13.8368 48.9299 11.5084C47.4214 9.09493 45.5347 8.11504 44.6707 7.87087Z" fill="black"/>
<path d="M43.9111 11.0281C42.6733 11.4923 41.8418 10.6717 41.4844 10.2032L44.1039 7.85938C45.071 8.3651 45.4585 10.4478 43.9111 11.0281Z" fill="#C5202E"/>
<path fill-rule="evenodd" clip-rule="evenodd" d="M44.0467 7.39062L44.2842 7.51481C44.9253 7.85007 45.3102 8.64838 45.338 9.39967C45.3671 10.1833 45.0114 11.0272 44.048 11.3885C43.318 11.6622 42.6882 11.5584 42.1943 11.3089C41.7139 11.0663 41.3744 10.6936 41.1779 10.436L40.9609 10.1516L44.0467 7.39062ZM44.1302 8.35412L42.0273 10.2356C42.1681 10.3767 42.3411 10.5163 42.543 10.6183C42.8636 10.7802 43.2685 10.8546 43.7764 10.6641C44.3603 10.4451 44.5845 9.95756 44.5649 9.42834C44.5486 8.98828 44.3655 8.58853 44.1302 8.35412Z" fill="black"/>
<path d="M44.6889 14.317C44.6889 15.3852 43.6497 16.2511 42.3679 16.2511C41.086 16.2511 40.0469 15.3852 40.0469 14.317C40.0469 13.2488 41.086 12.3828 42.3679 12.3828C43.6497 12.3828 44.6889 13.2488 44.6889 14.317Z" fill="#C5202E"/>
<path fill-rule="evenodd" clip-rule="evenodd" d="M42.3679 15.4775C43.3605 15.4775 43.9152 14.8318 43.9152 14.317C43.9152 13.8021 43.3605 13.1565 42.3679 13.1565C41.3752 13.1565 40.8205 13.8021 40.8205 14.317C40.8205 14.8318 41.3752 15.4775 42.3679 15.4775ZM42.3679 16.2511C43.6497 16.2511 44.6889 15.3852 44.6889 14.317C44.6889 13.2488 43.6497 12.3828 42.3679 12.3828C41.086 12.3828 40.0469 13.2488 40.0469 14.317C40.0469 15.3852 41.086 16.2511 42.3679 16.2511Z" fill="black"/>
<path d="M49.6521 15.0842C49.6521 16.149 48.7139 17.0122 47.5565 17.0122C46.3992 17.0122 45.4609 16.149 45.4609 15.0842C45.4609 14.0194 46.3992 13.1562 47.5565 13.1562C48.7139 13.1562 49.6521 14.0194 49.6521 15.0842Z" fill="#C5202E"/>
<path fill-rule="evenodd" clip-rule="evenodd" d="M47.5565 16.2385C48.3486 16.2385 48.8785 15.6622 48.8785 15.0842C48.8785 14.5062 48.3486 13.9299 47.5565 13.9299C46.7645 13.9299 46.2346 14.5062 46.2346 15.0842C46.2346 15.6622 46.7645 16.2385 47.5565 16.2385ZM47.5565 17.0122C48.7139 17.0122 49.6521 16.149 49.6521 15.0842C49.6521 14.0194 48.7139 13.1562 47.5565 13.1562C46.3992 13.1562 45.4609 14.0194 45.4609 15.0842C45.4609 16.149 46.3992 17.0122 47.5565 17.0122Z" fill="black"/>
<path fill-rule="evenodd" clip-rule="evenodd" d="M45.5107 17.2865C45.7854 17.0881 46.104 17.0352 46.3241 17.0352C46.4553 17.0352 46.7375 17.0652 46.9962 17.2592C47.2764 17.4693 47.4653 17.8234 47.4653 18.3441C47.4653 18.9763 47.5856 19.344 47.7285 19.5442C47.8568 19.7237 48.0258 19.8014 48.252 19.8014C48.375 19.8014 48.5217 19.725 48.6583 19.4431C48.7932 19.165 48.8711 18.766 48.8711 18.3441C48.8711 17.72 49.3776 17.3968 49.7815 17.2445C50.2061 17.0843 50.6963 17.0352 51.0182 17.0352V17.8088C50.7533 17.8088 50.3634 17.8519 50.0545 17.9683C49.725 18.0926 49.6447 18.2305 49.6447 18.3441C49.6447 18.8441 49.555 19.3672 49.3545 19.7807C49.1559 20.1903 48.7996 20.575 48.252 20.575C47.8076 20.575 47.3899 20.4012 47.099 19.9939C46.8229 19.6073 46.6916 19.053 46.6916 18.3441C46.6916 18.0265 46.5872 17.9195 46.532 17.8781C46.4555 17.8207 46.3605 17.8088 46.3241 17.8088C46.2085 17.8088 46.0662 17.8397 45.9637 17.9137C45.882 17.9727 45.7888 18.0832 45.7888 18.3441V21.4648L45.7869 21.484C45.7667 21.6856 45.6809 21.9711 45.4811 22.2147C45.2696 22.4727 44.939 22.6706 44.4799 22.6706C44.0208 22.6706 43.6903 22.4727 43.4788 22.2147C43.279 21.9711 43.1931 21.6856 43.173 21.484L43.171 21.4648V18.2602C43.171 18.2104 43.1529 18.127 43.1098 18.0671C43.0911 18.0411 43.069 18.0212 43.041 18.0068C43.0133 17.9925 42.9662 17.9765 42.8873 17.9765H39.6181C39.5327 17.9765 39.4014 18.0024 39.3046 18.0652C39.2287 18.1144 39.1667 18.1864 39.1667 18.3441C39.1667 18.3879 39.1671 18.4355 39.1676 18.4861C39.1705 18.8335 39.1747 19.3239 39.0579 19.7379C38.9885 19.9841 38.8676 20.2408 38.6484 20.4363C38.4217 20.6384 38.1265 20.7427 37.774 20.7427C37.1585 20.7427 36.7821 20.3897 36.5865 19.9922C36.4049 19.6227 36.3665 19.2014 36.3813 18.9205C36.3805 18.717 36.3565 18.4246 36.2941 18.1934C36.2651 18.0863 36.2341 18.0158 36.2092 17.9765H33.4152C33.3703 17.9765 33.3061 17.9711 33.2374 17.9465C33.1744 17.924 33.0468 17.8622 32.9807 17.7103C32.9101 17.5478 32.9597 17.4005 33.0029 17.3207C33.0452 17.2424 33.1049 17.1805 33.1572 17.1337L33.6715 17.7085C33.6749 17.7034 33.679 17.6969 33.6834 17.6889C33.7027 17.6531 33.75 17.5392 33.6903 17.4019C33.6352 17.2752 33.5318 17.2302 33.4981 17.2181C33.4587 17.204 33.4288 17.2028 33.4152 17.2028H36.2652C36.5319 17.2028 36.7167 17.3579 36.8264 17.5089C36.9324 17.6547 36.9979 17.8322 37.041 17.9917C37.1284 18.3155 37.1549 18.6875 37.1549 18.9308V18.9422L37.1543 18.9535C37.1429 19.1477 37.1732 19.4319 37.2808 19.6507C37.3773 19.8469 37.5178 19.969 37.774 19.969C37.9664 19.969 38.0693 19.9161 38.1334 19.8589C38.205 19.7951 38.2675 19.6903 38.3133 19.5278C38.3975 19.2293 38.3956 18.8638 38.3936 18.5041C38.3933 18.4505 38.3931 18.3971 38.3931 18.3441C38.3931 17.8982 38.6105 17.593 38.8839 17.4159C39.1363 17.2523 39.4242 17.2028 39.6181 17.2028H42.8873C43.2816 17.2028 43.5654 17.3758 43.7377 17.6151C43.8958 17.8347 43.9447 18.0866 43.9447 18.2602V21.4229C43.9559 21.5021 43.996 21.6254 44.077 21.7242C44.1519 21.8155 44.2684 21.897 44.4799 21.897C44.6914 21.897 44.8079 21.8155 44.8828 21.7242C44.9638 21.6254 45.0039 21.5021 45.0152 21.4229V18.3441C45.0152 17.8505 45.2152 17.5 45.5107 17.2865Z" fill="black"/>
<path d="M46.6243 11.028C46.3148 9.9449 47.1124 9.35752 47.5499 9.19922C47.9505 9.63847 48.9066 10.7614 49.5255 11.7394C49.2645 11.8491 48.6229 12.2114 48.1716 12.1885C47.7848 12.1885 46.9337 12.1112 46.6243 11.028Z" fill="#C5202E"/>
<path fill-rule="evenodd" clip-rule="evenodd" d="M47.6576 8.74609L47.8319 8.93713C48.2387 9.3831 49.2121 10.5253 49.8486 11.5311L50.093 11.9174L49.6717 12.0946C49.6293 12.1124 49.5745 12.1384 49.5005 12.1735C49.4783 12.184 49.4544 12.1953 49.4287 12.2075C49.3231 12.2573 49.1966 12.3158 49.0619 12.3706C48.8098 12.4731 48.4729 12.587 48.1587 12.574C47.9418 12.5734 47.5639 12.551 47.1877 12.3568C46.7906 12.1518 46.4318 11.7743 46.2485 11.1329C46.0601 10.4732 46.2075 9.9345 46.4882 9.54081C46.7574 9.16344 47.1363 8.93471 47.4145 8.83408L47.6576 8.74609ZM47.1181 9.99003C46.9681 10.2004 46.8714 10.4969 46.9924 10.9204C47.1187 11.3621 47.3401 11.5648 47.5426 11.6693C47.7606 11.7819 47.9963 11.8003 48.1678 11.8003H48.1776L48.1874 11.8008C48.3216 11.8076 48.5264 11.7532 48.7704 11.654C48.8318 11.629 48.8922 11.6027 48.9507 11.5763C48.4568 10.8601 47.8416 10.1176 47.4536 9.67513C47.3364 9.75064 47.2138 9.85588 47.1181 9.99003Z" fill="black"/>
<path d="M38.1118 13.2227L35.5938 15.4757C36.1107 16.0559 37.3375 16.8296 38.3046 15.8625C39.1803 14.9868 38.6921 13.6513 38.1118 13.2227Z" fill="#C5202E"/>
<path fill-rule="evenodd" clip-rule="evenodd" d="M38.0872 12.7227L38.3404 12.9097C38.7251 13.1939 39.0355 13.7315 39.1342 14.3078C39.2358 14.9008 39.1216 15.5894 38.5769 16.1342C37.9758 16.7352 37.2726 16.7962 36.6698 16.6185C36.0909 16.448 35.5965 16.0598 35.3037 15.7312L35.0469 15.443L38.0872 12.7227ZM38.0921 13.7564L36.1634 15.4821C36.3697 15.6475 36.6231 15.7982 36.8885 15.8764C37.2701 15.9889 37.6638 15.9532 38.0298 15.5871C38.3608 15.2562 38.4403 14.8392 38.3717 14.4384C38.3256 14.1694 38.2163 13.9308 38.0921 13.7564Z" fill="black"/>
</svg>
