<svg width="129" height="110" viewBox="0 0 129 110" fill="none" xmlns="http://www.w3.org/2000/svg">
<path d="M32.2811 100.635C32.1518 99.772 31.8657 96.5188 32.1518 95.1219L33.2035 89.3806L28.2154 90.8553C28.2079 95.4171 28.1248 94.2895 27.8525 98.5459C27.5802 102.802 27.7637 103.899 27.8895 103.915C29.1776 105.725 32.2818 104.624 33.5677 104.263C34.2969 104.059 39.2213 102.786 38.6029 100.869C37.9048 98.7052 32.4405 101.698 32.2811 100.635Z" fill="#FFEB34"/>
<path fill-rule="evenodd" clip-rule="evenodd" d="M33.6925 88.8389L27.8352 90.5706L27.8347 90.8555C27.8297 93.9344 27.7908 94.398 27.6813 95.705C27.6291 96.3278 27.5608 97.1422 27.4726 98.5223C27.3361 100.656 27.3131 102.008 27.3412 102.834C27.3553 103.246 27.3823 103.538 27.4176 103.736C27.4348 103.832 27.4571 103.924 27.4891 104.001C27.5047 104.039 27.5301 104.092 27.5716 104.142C27.5832 104.156 27.5992 104.174 27.6197 104.192C28.3893 105.219 29.6461 105.38 30.7633 105.285C31.7285 105.202 32.6952 104.918 33.3453 104.727C33.4658 104.691 33.5755 104.659 33.6723 104.632C33.7003 104.624 33.7351 104.614 33.7761 104.603C34.2553 104.471 35.5756 104.107 36.754 103.555C37.3902 103.257 38.0193 102.888 38.453 102.448C38.8912 102.003 39.1835 101.421 38.9677 100.752C38.8511 100.391 38.628 100.127 38.3322 99.9527C38.0462 99.7845 37.71 99.711 37.3694 99.6886C36.6943 99.6442 35.8916 99.7954 35.1542 99.9679C34.862 100.036 34.5827 100.107 34.3193 100.174C33.8902 100.283 33.5035 100.381 33.1722 100.44C32.9222 100.485 32.7509 100.497 32.647 100.487C32.5843 100.026 32.4916 99.075 32.4435 98.0614C32.3915 96.9629 32.3951 95.8451 32.5273 95.1994L32.5281 95.1955L33.6925 88.8389ZM32.7171 89.9239L31.7781 95.0501C31.625 95.8016 31.6287 97.0065 31.6804 98.0976C31.7328 99.2019 31.8375 100.244 31.9047 100.692C31.929 100.855 32.0109 100.996 32.1417 101.094C32.261 101.185 32.3982 101.223 32.5162 101.24C32.7472 101.274 33.0283 101.242 33.3063 101.192C33.6609 101.129 34.0982 101.018 34.5512 100.904C34.8092 100.838 35.0724 100.772 35.3283 100.712C36.0642 100.54 36.7685 100.415 37.3192 100.451C37.5916 100.469 37.798 100.525 37.945 100.611C38.0823 100.692 38.1826 100.807 38.2406 100.987C38.334 101.276 38.2427 101.573 37.9087 101.912C37.5702 102.256 37.0386 102.578 36.4298 102.863C35.3146 103.386 34.0552 103.733 33.5722 103.867C33.5308 103.878 33.4952 103.888 33.4658 103.896C33.3572 103.927 33.2384 103.962 33.1112 103.999C32.4568 104.191 31.5784 104.448 30.6981 104.524C29.6393 104.614 28.7246 104.429 28.202 103.694L28.1833 103.668C28.1792 103.651 28.1745 103.629 28.1697 103.601C28.1437 103.456 28.1183 103.205 28.1048 102.808C28.0778 102.018 28.0992 100.694 28.235 98.5711C28.3218 97.213 28.3896 96.4033 28.4419 95.7791C28.5491 94.4978 28.5909 93.9983 28.5981 91.1417L32.7171 89.9239Z" fill="#111111"/>
<path d="M23.2723 99.8074C23.2723 98.9241 23.5204 98.9241 24.4432 95.2224L25.9233 89.522L20.8048 90.3372C20.5502 91.2863 19.6224 93.705 19.034 97.91C18.4456 102.115 18.961 102.556 18.961 102.556C20.1207 104.528 22.5586 104.59 23.8698 104.564C25.4159 104.534 30.7524 104.842 29.4843 102.111C28.2162 99.3796 23.2723 100.887 23.2723 99.8074Z" fill="#FFEB34"/>
<path fill-rule="evenodd" clip-rule="evenodd" d="M26.4494 89.0471L20.4984 89.9949L20.4387 90.2175C20.3918 90.3924 20.3197 90.6233 20.2296 90.9119C19.8467 92.1385 19.1387 94.4062 18.6589 97.8348C18.3631 99.9491 18.3407 101.143 18.3996 101.82C18.4291 102.159 18.4801 102.383 18.5351 102.533C18.5629 102.609 18.5931 102.67 18.6248 102.72C18.6349 102.736 18.6452 102.751 18.6557 102.764C19.3061 103.85 20.3028 104.401 21.278 104.676C22.2552 104.951 23.2406 104.958 23.9021 104.945C24.0434 104.942 24.2233 104.943 24.4316 104.943C25.3081 104.945 26.6891 104.948 27.8293 104.725C28.5294 104.587 29.2185 104.352 29.6434 103.916C29.864 103.689 30.0157 103.405 30.0532 103.061C30.0903 102.721 30.0125 102.354 29.832 101.965C29.46 101.164 28.818 100.684 28.1071 100.396C27.4061 100.112 26.6196 100.008 25.9113 99.9572C25.5928 99.9345 25.2826 99.9223 24.9992 99.9112C24.9657 99.9099 24.9326 99.9086 24.8999 99.9073C24.5858 99.8948 24.3139 99.8824 24.0878 99.8575C23.8688 99.8334 23.7327 99.8012 23.6576 99.7687C23.6626 99.4269 23.7135 99.2409 23.8801 98.7025C23.8888 98.6744 23.8978 98.6454 23.9071 98.6154C24.0876 98.0332 24.3758 97.1034 24.8166 95.3352L26.4494 89.0471ZM25.4035 89.9945L24.0755 95.109C23.6393 96.8589 23.3553 97.775 23.1767 98.3511C23.1674 98.3812 23.1583 98.4104 23.1495 98.4388C22.9708 99.0163 22.8937 99.2824 22.8937 99.7843C22.8937 99.9306 22.9377 100.073 23.0302 100.197C23.1179 100.315 23.2319 100.392 23.3387 100.445C23.543 100.545 23.7996 100.59 24.0476 100.617C24.3048 100.646 24.6034 100.659 24.9133 100.671C24.9462 100.672 24.9794 100.674 25.0127 100.675C25.2974 100.686 25.5951 100.698 25.9005 100.72C26.5866 100.769 27.2738 100.867 27.8565 101.102C28.4292 101.334 28.8807 101.69 29.1428 102.254C29.2794 102.548 29.3122 102.769 29.2941 102.935C29.2765 103.097 29.2072 103.237 29.0817 103.366C28.8143 103.641 28.3105 103.843 27.6417 103.974C26.5835 104.181 25.3125 104.18 24.4302 104.178C24.2064 104.178 24.0076 104.178 23.8437 104.181C23.194 104.194 22.3048 104.183 21.4453 103.941C20.5928 103.7 19.8 103.242 19.2903 102.375L19.2552 102.315L19.2528 102.313C19.252 102.311 19.2513 102.309 19.2505 102.307C19.2273 102.244 19.1861 102.094 19.1603 101.797C19.1086 101.203 19.1227 100.074 19.4153 97.9829C19.885 94.6262 20.5683 92.434 20.9548 91.1943C21.0157 90.9987 21.0693 90.8268 21.1135 90.6778L25.4035 89.9945Z" fill="#111111"/>
<path d="M19.4993 92.498C16.3153 92.498 17.1113 83.7238 17.9073 79.3367L36.2155 78.5391V90.5038C36.2155 93.6944 23.4793 92.498 19.4993 92.498Z" fill="#8F602C"/>
<path fill-rule="evenodd" clip-rule="evenodd" d="M36.6044 78.1406V90.5044C36.6044 91.0523 36.3231 91.4851 35.8996 91.8094C35.4862 92.126 34.918 92.3571 34.2691 92.531C32.9676 92.8796 31.214 93.0297 29.3672 93.0798C27.5139 93.1299 25.539 93.0797 23.7837 93.0173C23.2899 92.9998 22.8146 92.9813 22.3645 92.9639C21.207 92.9189 20.2162 92.8805 19.5063 92.8805C18.4826 92.8805 17.8345 92.1566 17.4482 91.2023C17.0624 90.2489 16.8863 88.9619 16.836 87.5769C16.7351 84.7969 17.1378 81.4767 17.5384 79.2691L17.5929 78.9689L36.6044 78.1406ZM18.2369 79.7055C17.8603 81.8766 17.5058 84.9668 17.5995 87.5492C17.6487 88.9061 17.8209 90.0868 18.1564 90.9157C18.4915 91.7437 18.9379 92.1165 19.5063 92.1165C20.2321 92.1165 21.2466 92.1559 22.4119 92.2011C22.8587 92.2185 23.3275 92.2367 23.8108 92.2539C25.5629 92.3161 27.5182 92.3656 29.3465 92.3161C31.1812 92.2664 32.8605 92.1174 34.0714 91.793C34.6786 91.6304 35.1365 91.4315 35.4352 91.2028C35.7237 90.9819 35.8405 90.7541 35.8405 90.5044V78.9386L18.2369 79.7055Z" fill="black"/>
<path d="M24.9973 0.382812C21.2628 0.382812 19.5223 16.2299 19.1189 24.1534C6.84342 33.6196 8.91825 37.8268 12.0303 42.665C15.1424 47.5033 1.13802 50.0276 0.619345 56.3384C0.100665 62.6491 11.1658 59.2834 2.86693 72.536C-5.43194 85.7887 34.8522 83.2643 49.721 83.054C64.5898 82.8436 36.9269 66.4356 46.0902 62.6491C55.2536 58.8627 31.5672 42.0339 39.5203 41.6132C47.4734 41.1925 39.3474 27.3088 35.8895 23.1016C32.4317 18.8944 29.6654 0.382812 24.9973 0.382812Z" fill="#00BC68"/>
<path fill-rule="evenodd" clip-rule="evenodd" d="M21.1832 9.36809C20.2354 14.2967 19.7007 20.2202 19.4995 24.172L19.4906 24.3476L19.3513 24.4551C13.2228 29.181 10.7719 32.5278 10.1764 35.2262C9.58754 37.8946 10.7896 40.0304 12.3507 42.4575C12.7822 43.1284 12.9342 43.7906 12.8312 44.4417C12.7299 45.0821 12.389 45.6664 11.9206 46.205C10.9936 47.2708 9.46576 48.267 7.89082 49.2708C7.78887 49.3358 7.68662 49.4008 7.58419 49.466C6.0806 50.4228 4.5381 51.4043 3.31301 52.5034C2.00372 53.6781 1.11703 54.9352 0.9992 56.3688C0.939034 57.1009 1.04757 57.674 1.25616 58.148C1.46584 58.6244 1.78592 59.0215 2.17851 59.3878C2.56415 59.7477 3.00659 60.0665 3.47452 60.4037L3.51324 60.4316C3.98766 60.7736 4.48634 61.1354 4.92496 61.5581C5.82491 62.4256 6.47265 63.5525 6.3237 65.3326C6.17819 67.0719 5.27408 69.4095 3.18983 72.7379C2.18554 74.3417 1.95766 75.6391 2.25459 76.6975C2.55309 77.7616 3.40874 78.6814 4.78452 79.4675C7.548 81.0464 12.1955 81.9629 17.6401 82.4624C26.2706 83.2541 36.7219 82.9864 44.3936 82.7899C46.3804 82.739 48.1807 82.6929 49.7147 82.6712C51.5584 82.6451 52.6534 82.3652 53.2391 81.9577C53.5208 81.7617 53.6796 81.54 53.7578 81.2986C53.8379 81.0517 53.8438 80.7524 53.764 80.391C53.6017 79.6561 53.106 78.7542 52.3774 77.7233C51.6547 76.7006 50.7315 75.59 49.7533 74.4392C49.5631 74.2155 49.3707 73.9901 49.1773 73.7636C47.3983 71.6799 45.5328 69.4949 44.5425 67.5798C43.9941 66.5192 43.6758 65.4724 43.8487 64.5343C44.0284 63.5596 44.7165 62.8023 45.9435 62.2953C47.0111 61.8541 47.5416 61.252 47.7456 60.5657C47.956 59.8583 47.8439 58.9829 47.4533 57.9594C46.6704 55.9076 44.8573 53.4812 42.9599 51.1066C42.6 50.6563 42.2369 50.2076 41.878 49.7642C40.3698 47.9004 38.9376 46.1307 38.1469 44.7323C37.8995 44.2948 37.7056 43.8783 37.5915 43.4942C37.4784 43.1131 37.4346 42.7332 37.5244 42.3861C37.6184 42.0227 37.8484 41.7362 38.198 41.5423C38.5344 41.3558 38.9726 41.2588 39.4993 41.2309C40.4376 41.1813 41.0961 40.9356 41.5492 40.5711C41.9995 40.2089 42.283 39.7004 42.4199 39.0548C42.6992 37.7383 42.354 35.9179 41.6241 33.9068C40.172 29.9056 37.3005 25.4201 35.5936 23.3433C34.6798 22.2315 33.8396 20.2213 33.0241 17.9028C32.5242 16.4816 32.0228 14.9108 31.5152 13.3206C31.191 12.305 30.8643 11.2815 30.5338 10.2838C29.6802 7.70698 28.7975 5.29011 27.8451 3.52124C27.3687 2.63637 26.8859 1.93513 26.3966 1.45951C25.908 0.984516 25.4446 0.763958 24.9964 0.763958C24.6773 0.763958 24.3367 0.930676 23.9715 1.33456C23.6056 1.73926 23.2495 2.34641 22.9099 3.13325C22.2318 4.70433 21.6577 6.90055 21.1832 9.36809ZM23.4048 0.822202C23.8512 0.328503 24.3819 0 24.9964 0C25.7153 0 26.3595 0.35793 26.9291 0.911726C27.4982 1.46489 28.0244 2.24274 28.5178 3.15907C29.505 4.99261 30.4053 7.46658 31.259 10.0436C31.5957 11.0598 31.9245 12.0903 32.2492 13.1077C32.7533 14.6871 33.2473 16.235 33.7448 17.6493C34.5664 19.985 35.3687 21.8665 36.1838 22.8582C37.9347 24.9886 40.8551 29.5485 42.3422 33.6462C43.082 35.6845 43.4932 37.6768 43.1673 39.2133C43.0016 39.9943 42.6422 40.6723 42.0281 41.1664C41.4168 41.6581 40.5896 41.9383 39.5396 41.9938C39.0722 42.0186 38.7634 42.1023 38.5685 42.2104C38.3869 42.3111 38.3014 42.433 38.264 42.5774C38.2224 42.7381 38.2315 42.9655 38.3239 43.2767C38.4154 43.5849 38.5797 43.9457 38.8119 44.3562C39.5681 45.6936 40.9446 47.3951 42.4491 49.255C42.8131 49.7049 43.1846 50.1642 43.5567 50.6297C45.4413 52.9882 47.3346 55.5053 48.1671 57.687C48.5843 58.7802 48.7572 59.8441 48.4779 60.7834C48.1923 61.7438 47.4585 62.4959 46.2353 63.0013C45.1715 63.4409 44.7195 64.0247 44.6 64.6728C44.4738 65.3577 44.6971 66.2156 45.2211 67.2289C46.168 69.06 47.9716 71.1735 49.767 73.2775C49.9569 73.5 50.1467 73.7224 50.3354 73.9444C51.313 75.0944 52.2565 76.2286 53.0013 77.2824C53.7403 78.328 54.313 79.3342 54.51 80.2262C54.6099 80.6783 54.6181 81.1223 54.4846 81.5343C54.3492 81.9518 54.0782 82.3046 53.6754 82.5848C52.8922 83.1297 51.5991 83.4086 49.7255 83.4351C48.2065 83.4566 46.4181 83.5024 44.4404 83.5531C36.7692 83.7498 26.2514 84.0195 17.5703 83.2232C12.1227 82.7234 7.32591 81.7993 4.40553 80.1308C2.93937 79.2931 1.8932 78.2376 1.51903 76.9039C1.14331 75.5646 1.47192 74.0418 2.54235 72.3325C4.60754 69.0345 5.43237 66.8232 5.5624 65.269C5.68901 63.7557 5.15892 62.8447 4.39478 62.1082C4.00136 61.729 3.54643 61.3973 3.06656 61.0514L3.01254 61.0125C2.55662 60.684 2.07909 60.34 1.65729 59.9464C1.21514 59.5338 0.820678 59.0549 0.556934 58.4557C0.292094 57.854 0.168305 57.1519 0.237809 56.3062C0.379321 54.5845 1.43768 53.1595 2.80284 51.9348C4.07708 50.7916 5.67094 49.7776 7.16053 48.83C7.26769 48.7619 7.37431 48.694 7.48024 48.6265C9.08222 47.6056 10.5044 46.6691 11.3442 45.7036C11.7591 45.2266 12.0057 44.7706 12.0767 44.3223C12.1459 43.8846 12.0548 43.4096 11.7082 42.8708C10.1573 40.4597 8.7659 38.0727 9.43043 35.0615C10.0834 32.1027 12.6978 28.6431 18.7457 23.9576C18.9546 19.9873 19.4901 14.1269 20.433 9.22381C20.9108 6.73914 21.4973 4.47838 22.2085 2.83052C22.5635 2.00789 22.9592 1.3151 23.4048 0.822202Z" fill="#111111"/>
<path d="M32.4142 20.6132C32.4142 22.0456 33.5755 23.2068 35.0079 23.2068C36.4403 23.2068 37.6016 22.0456 37.6016 20.6132C37.6016 19.1808 36.4403 18.0195 35.0079 18.0195C33.5755 18.0195 32.4142 19.1808 32.4142 20.6132Z" fill="black"/>
<path fill-rule="evenodd" clip-rule="evenodd" d="M35.0079 22.4429C33.9974 22.4429 33.1782 21.6237 33.1782 20.6132C33.1782 19.6027 33.9974 18.7835 35.0079 18.7835C36.0184 18.7835 36.8376 19.6027 36.8376 20.6132C36.8376 21.6237 36.0184 22.4429 35.0079 22.4429ZM35.0079 23.2068C33.5755 23.2068 32.4142 22.0456 32.4142 20.6132C32.4142 19.1808 33.5755 18.0195 35.0079 18.0195C36.4403 18.0195 37.6016 19.1808 37.6016 20.6132C37.6016 22.0456 36.4403 23.2068 35.0079 23.2068Z" fill="black"/>
<path d="M29.7311 12.3185C29.7858 13.9427 30.5229 15.236 31.3774 15.2072C32.2319 15.1785 32.8803 13.8385 32.8256 12.2143C32.7709 10.5901 32.0338 9.29676 31.1793 9.32554C30.3248 9.35431 29.6764 10.6943 29.7311 12.3185Z" fill="white"/>
<path fill-rule="evenodd" clip-rule="evenodd" d="M29.5871 14.7611C29.9381 15.377 30.5477 15.9996 31.3997 15.9709C32.2516 15.9422 32.8179 15.2801 33.1267 14.642C33.4528 13.9679 33.6163 13.0992 33.5857 12.1887C33.555 11.2783 33.3335 10.4226 32.9627 9.77197C32.6117 9.15607 32.0021 8.5335 31.1502 8.56218C30.2983 8.59087 29.7319 9.25304 29.4232 9.89115C29.097 10.5652 28.9335 11.4339 28.9642 12.3444C28.9948 13.2549 29.2164 14.1106 29.5871 14.7611ZM31.3739 15.2074C30.5194 15.2362 29.7824 13.9428 29.7277 12.3187C29.673 10.6945 30.3214 9.35448 31.1759 9.32571C32.0304 9.29694 32.7675 10.5903 32.8221 12.2145C32.8768 13.8386 32.2285 15.1786 31.3739 15.2074Z" fill="black"/>
<path d="M25.2546 12.7638C25.3093 14.388 26.0463 15.6813 26.9008 15.6525C27.7553 15.6238 28.4037 14.2838 28.349 12.6596C28.2943 11.0354 27.5573 9.74208 26.7028 9.77085C25.8483 9.79962 25.1999 11.1396 25.2546 12.7638Z" fill="white"/>
<path fill-rule="evenodd" clip-rule="evenodd" d="M25.1106 15.2065C25.4616 15.8224 26.0712 16.4449 26.9231 16.4162C27.775 16.3876 28.3414 15.7254 28.6501 15.0873C28.9763 14.4132 29.1398 13.5446 29.1091 12.6341C29.0785 11.7236 28.8569 10.8679 28.4861 10.2173C28.1351 9.60139 27.5255 8.97881 26.6736 9.0075C25.8217 9.03618 25.2554 9.69836 24.9466 10.3365C24.6204 11.0105 24.4569 11.8792 24.4876 12.7897C24.5183 13.7002 24.7398 14.5559 25.1106 15.2065ZM26.8974 15.6527C26.0429 15.6815 25.3058 14.3882 25.2511 12.764C25.1964 11.1398 25.8448 9.7998 26.6993 9.77102C27.5538 9.74225 28.2909 11.0356 28.3456 12.6598C28.4003 14.284 27.7519 15.6239 26.8974 15.6527Z" fill="black"/>
<path d="M26.3424 13.5745C26.2588 14.749 26.7977 15.7443 27.5459 15.7975C28.2941 15.8507 28.9683 14.9417 29.0519 13.7672C29.1354 12.5927 28.5966 11.5975 27.8484 11.5443C27.1002 11.4911 26.4259 12.4 26.3424 13.5745Z" fill="black"/>
<path d="M30.4334 13.3379C30.2024 14.3747 30.5765 15.3402 31.269 15.4945C31.9615 15.6488 32.7101 14.9334 32.9411 13.8967C33.1721 12.86 32.798 11.8944 32.1055 11.7402C31.4131 11.5859 30.6644 12.3012 30.4334 13.3379Z" fill="black"/>
<path fill-rule="evenodd" clip-rule="evenodd" d="M33.2383 24.4657C32.8143 24.5671 32.5469 25.0196 32.6412 25.4762C32.6728 25.6295 32.6473 25.8066 32.5692 25.9113C32.5191 25.9787 32.2999 26.2135 31.508 26.1424C29.914 25.9994 29.6757 25.208 29.6654 25.1738C29.6651 25.1729 29.665 25.1725 29.665 25.1727C29.6036 24.7096 29.2052 24.3878 28.7752 24.454C28.3451 24.5202 28.0463 24.9492 28.1078 25.4123C28.2397 26.4069 29.2374 27.6385 31.3773 27.8306C32.4731 27.9289 33.3026 27.6344 33.7964 26.9711C34.2625 26.3454 34.2762 25.5908 34.1768 25.1088C34.0825 24.6521 33.6624 24.3642 33.2383 24.4657Z" fill="black"/>
<path d="M41.8502 56.7354C40.5863 52.507 29.0248 48.2077 24.5629 44.7784C21.9078 42.6576 24.2471 38.1274 25.7523 36.9513C26.9564 36.0103 29.0391 37.0726 31.9825 38.6257C34.782 40.103 39.1369 43.1758 41.2845 44.9086C46.3894 49.0273 51.5097 49.7579 53.122 50.302C55.0883 50.9657 55.294 51.7195 55.0899 52.5956C54.8859 53.4716 51.5902 53.2466 50.9165 53.661C50.2428 54.0754 51.9503 62.2858 50.961 63.3949C50.1696 64.2822 49.2907 62.5916 48.9501 61.6354C48.9177 62.5336 48.6926 62.8104 48.2043 62.8382C47.4866 62.8792 46.8554 61.5511 46.6294 60.882C46.6488 61.2919 46.6462 61.6941 46.614 62.0645C46.4654 63.7702 45.055 61.6435 44.4909 60.4246C44.471 60.5905 44.4473 60.7539 44.4192 60.9119C44.1692 62.3171 43.4299 62.021 41.8502 56.7354Z" fill="#FDFBEF"/>
<path fill-rule="evenodd" clip-rule="evenodd" d="M23.2316 40.4033C23.6895 38.7996 24.6885 37.2964 25.5185 36.6479C26.2801 36.0528 27.2707 36.1373 28.336 36.488C29.412 36.8423 30.6996 37.5138 32.1621 38.2856C34.9909 39.7782 39.3669 42.8671 41.5257 44.6089C45.66 47.9446 49.7754 49.0133 52.0446 49.6026C52.5387 49.7309 52.9453 49.8365 53.2455 49.9378C54.2511 50.2772 54.8892 50.6641 55.2322 51.145C55.5942 51.6525 55.5775 52.1897 55.4633 52.6799C55.4098 52.9095 55.2604 53.073 55.1016 53.1854C54.9448 53.2963 54.7545 53.3755 54.5616 53.4357C54.1756 53.556 53.6917 53.6259 53.2234 53.6786C53.0023 53.7035 52.7909 53.724 52.5879 53.7438C52.3379 53.768 52.1005 53.7911 51.8729 53.8195C51.6743 53.8444 51.5039 53.8712 51.3669 53.9023C51.2812 53.9218 51.2199 53.9405 51.1781 53.9563C51.1667 54.0036 51.1555 54.076 51.1479 54.1786C51.1301 54.4187 51.1364 54.7571 51.1611 55.1759C51.1997 55.8313 51.2807 56.6416 51.367 57.5054C51.3907 57.7429 51.4149 57.9845 51.4387 58.228C51.5481 59.3485 51.6494 60.507 51.66 61.4577C51.6653 61.9325 51.6483 62.3687 51.5947 62.7291C51.544 63.0699 51.4511 63.4185 51.2475 63.6468C50.9762 63.951 50.6354 64.0865 50.2715 63.9975C49.9531 63.9197 49.6928 63.6855 49.4951 63.4494C49.334 63.2571 49.1858 63.0285 49.0546 62.7916C48.8464 63.0929 48.5419 63.1993 48.2274 63.2172C47.9219 63.2347 47.658 63.1042 47.4518 62.9414C47.2618 62.7914 47.0952 62.5945 46.9531 62.3902C46.9276 62.5077 46.892 62.6151 46.8428 62.7089C46.7487 62.8882 46.5874 63.0442 46.3504 63.0756C46.1406 63.1034 45.9551 63.0202 45.8237 62.9376C45.6855 62.8507 45.553 62.7303 45.431 62.6003C45.165 62.3168 44.8891 61.9219 44.6464 61.5195C44.5887 61.6546 44.4987 61.8089 44.3497 61.9095C44.1565 62.0401 43.9339 62.0361 43.7436 61.9409C43.5804 61.8593 43.4441 61.7149 43.3276 61.5575C43.0898 61.236 42.8267 60.7086 42.5289 59.9532C42.2281 59.1903 41.8822 58.1696 41.4855 56.8424C41.2053 55.9049 40.3283 54.9055 39.0079 53.8629C37.7007 52.8306 36.0186 51.8014 34.2196 50.7876C33.1411 50.1799 32.0337 49.5848 30.9446 48.9996C30.212 48.606 29.4877 48.2168 28.786 47.8312C27.0552 46.8799 25.4726 45.9559 24.3315 45.0789L24.3286 45.0767L24.3258 45.0745C22.8201 43.8718 22.7731 42.0089 23.2316 40.4033ZM44.8841 60.3576C45.1628 60.9371 45.6074 61.6717 45.9882 62.0776C46.0701 62.1649 46.1403 62.2275 46.1969 62.2683C46.2111 62.2145 46.2254 62.1371 46.2348 62.029C46.2652 61.6796 46.2681 61.2951 46.2493 60.8976C46.1869 59.5799 45.8912 58.1942 45.6439 57.5783C45.5652 57.3826 45.6602 57.1601 45.856 57.0815C46.0517 57.0029 46.2742 57.0979 46.3528 57.2936C46.6371 58.0016 46.9391 59.4474 47.0096 60.8065C47.119 61.1178 47.3122 61.5557 47.5509 61.9111C47.6769 62.0986 47.8045 62.2464 47.9253 62.3418C48.0464 62.4375 48.1305 62.4576 48.1838 62.4545C48.3504 62.445 48.3958 62.4036 48.4302 62.3512C48.4907 62.2591 48.554 62.0564 48.5698 61.6193C48.5957 60.9012 48.492 59.7446 48.2894 57.8945C48.2665 57.6848 48.4179 57.4961 48.6276 57.4732C48.8373 57.4502 49.0259 57.6016 49.0489 57.8113C49.2432 59.5858 49.3545 60.7841 49.3355 61.5714C49.5029 62.0238 49.7773 62.5966 50.0807 62.9589C50.2442 63.154 50.3733 63.2359 50.4529 63.2554C50.4871 63.2637 50.5529 63.2778 50.6773 63.1383C50.721 63.0893 50.7911 62.9388 50.8391 62.6167C50.8841 62.3141 50.9012 61.9237 50.8961 61.4663C50.8859 60.5527 50.7879 59.4247 50.6783 58.3022C50.6551 58.0645 50.6313 57.8268 50.6079 57.5917C50.5213 56.7253 50.4381 55.8935 50.3984 55.2209C50.3733 54.7944 50.3644 54.4147 50.386 54.1222C50.3968 53.9772 50.4161 53.8362 50.4521 53.7151C50.483 53.6114 50.55 53.4364 50.7178 53.3333C50.8569 53.2477 51.0321 53.1949 51.1976 53.1573C51.3707 53.118 51.5698 53.0875 51.7781 53.0615C52.0049 53.0331 52.2691 53.0073 52.5355 52.9812C52.7404 52.9612 52.9466 52.941 53.138 52.9194C53.6034 52.8671 54.0237 52.8031 54.3342 52.7063C54.4894 52.6579 54.5953 52.6078 54.6604 52.5617C54.7043 52.5306 54.7168 52.511 54.7195 52.5055C54.8091 52.1201 54.7914 51.8427 54.6102 51.5886C54.4098 51.3076 53.9619 50.9858 53.0012 50.6616C52.7352 50.5718 52.3599 50.475 51.8946 50.3548C49.6557 49.7769 45.3306 48.6604 41.046 45.2035C38.9095 43.4797 34.5758 40.423 31.8056 38.9612C30.3248 38.1798 29.0993 37.5436 28.0971 37.2137C27.0842 36.8802 26.4314 36.9041 25.9889 37.2499C25.3136 37.7775 24.3904 39.1276 23.9662 40.6131C23.5428 42.0957 23.6531 43.5572 24.7999 44.4754C25.8895 45.3124 27.4242 46.211 29.154 47.1617C29.8411 47.5393 30.5607 47.926 31.2923 48.3191C32.3895 48.9088 33.5135 49.5128 34.5947 50.1221C36.4018 51.1404 38.126 52.1931 39.4814 53.2633C40.8237 54.3233 41.8658 55.447 42.2175 56.6237C42.6107 57.9393 42.9497 58.9376 43.2396 59.6729C43.5325 60.4157 43.7661 60.8656 43.9418 61.1031C43.9525 61.1176 43.9627 61.1309 43.9725 61.1431C43.9978 61.0665 44.0224 60.9668 44.0445 60.8426C44.0711 60.6928 44.0938 60.5366 44.113 60.3767C44.2311 59.3917 44.211 58.3106 44.181 57.8431C44.1675 57.6326 44.3272 57.4509 44.5377 57.4374C44.7482 57.4239 44.9299 57.5836 44.9434 57.7941C44.9743 58.2751 44.9953 59.3444 44.8841 60.3576ZM54.7202 52.5039C54.7202 52.5039 54.7201 52.5043 54.7196 52.5053C54.7199 52.5044 54.7201 52.5039 54.7202 52.5039ZM51.194 53.9067C51.1941 53.9069 51.1932 53.9091 51.1911 53.9129C51.1929 53.9084 51.194 53.9065 51.194 53.9067Z" fill="black"/>
<path d="M75.2911 83.9923C73.6268 76.8201 81.7632 74.5698 86.5093 73.516C87.2293 73.3843 88.8419 73.358 89.5322 74.3064C90.3952 75.4919 90.8266 77.0737 90.3952 77.4688C90.05 77.785 85.9367 78.592 83.9231 79.6454C87.7201 79.0131 90.6828 81.753 91.6896 83.2019C88.2378 82.8068 77.3652 92.9302 75.2911 83.9923Z" fill="#FDFBEF"/>
<path fill-rule="evenodd" clip-rule="evenodd" d="M86.5841 73.8897C84.2105 74.4169 81.0574 75.2315 78.7053 76.7781C77.5331 77.5489 76.5808 78.4884 76.0169 79.6444C75.4563 80.7938 75.264 82.1885 75.6624 83.9051C75.912 84.9808 76.2868 85.7377 76.7374 86.2571C77.1838 86.7718 77.7195 87.0709 78.3278 87.2108C79.5704 87.4967 81.1361 87.1234 82.831 86.4452C84.0653 85.9512 85.3166 85.3183 86.5095 84.715C86.9466 84.4939 87.376 84.2767 87.7937 84.0718C88.5649 83.6936 89.2977 83.3571 89.9517 83.1277C90.291 83.0088 90.622 82.9138 90.9353 82.8591C90.4068 82.2514 89.628 81.5407 88.6585 80.9718C87.373 80.2174 85.7734 79.7236 83.985 80.0214C82.0742 80.3396 80.6553 80.4734 79.6541 80.5104C78.6706 80.5467 78.0527 80.4913 77.7702 80.4051L77.9933 79.6744C78.1422 79.7199 78.6461 79.7831 79.6259 79.7469C80.5777 79.7118 81.9444 79.5846 83.8003 79.2776C84.8474 78.7415 86.3861 78.2769 87.6803 77.9122C87.9496 77.8363 88.2075 77.7649 88.4499 77.6979C88.81 77.5982 89.1357 77.5081 89.4131 77.4268C89.644 77.3591 89.8314 77.3002 89.9691 77.2501C90.0381 77.225 90.0886 77.2043 90.1231 77.1879C90.13 77.1846 90.1357 77.1818 90.1401 77.1795C90.1507 77.1604 90.1769 77.1008 90.1811 76.9623C90.1863 76.7903 90.1547 76.5583 90.0798 76.2837C89.9304 75.7364 89.6274 75.0865 89.2226 74.5303C88.9628 74.1735 88.5046 73.9705 87.9689 73.8822C87.4437 73.7957 86.9093 73.8311 86.5841 73.8897ZM85.9676 79.2291C86.5956 79.0194 87.2599 78.8244 87.8876 78.6475C88.1475 78.5742 88.402 78.5038 88.6438 78.4369C89.0099 78.3356 89.3467 78.2424 89.6281 78.1599C89.8628 78.091 90.0691 78.0267 90.2303 77.968C90.3108 77.9388 90.386 77.9088 90.4507 77.878C90.5076 77.851 90.5869 77.8096 90.6523 77.7497C90.8745 77.5462 90.9368 77.2438 90.9447 76.9854C90.953 76.7126 90.9037 76.4011 90.8168 76.0826C90.6425 75.4439 90.2983 74.7101 89.8402 74.0808C89.4097 73.4892 88.7164 73.2311 88.0932 73.1284C87.4632 73.0246 86.8352 73.0671 86.4397 73.1395L86.4327 73.1408L86.4257 73.1423C84.0539 73.6689 80.7698 74.5063 78.2856 76.1398C77.0385 76.9598 75.9721 77.9935 75.3303 79.3095C74.6851 80.6322 74.4844 82.2083 74.9182 84.0778C75.1871 85.2365 75.6058 86.1185 76.1603 86.7577C76.7189 87.4017 77.3998 87.7812 78.1565 87.9553C79.6437 88.2974 81.4007 87.8404 83.1148 87.1544C84.3829 86.6469 85.6805 85.9906 86.8821 85.3828C87.3123 85.1652 87.7303 84.9538 88.1301 84.7577C88.8961 84.3821 89.5953 84.0623 90.2046 83.8487C90.8232 83.6317 91.3028 83.5414 91.6453 83.5806L92.4843 83.6767L92.0024 82.9831C91.47 82.2168 90.4377 81.1301 89.0452 80.3129C88.1601 79.7936 87.1211 79.3785 85.9676 79.2291Z" fill="black"/>
<path d="M91.8797 56.8756C91.0224 58.7869 91.4637 60.846 92.8653 61.4747C94.267 62.1034 96.0982 61.0636 96.9555 59.1522C97.8128 57.2409 97.3715 55.1818 95.9699 54.5531C94.5682 53.9244 92.737 54.9642 91.8797 56.8756Z" fill="white"/>
<path fill-rule="evenodd" clip-rule="evenodd" d="M92.2724 59.4961C92.1315 58.8386 92.2076 58.0113 92.5767 57.1882C92.9459 56.3652 93.5132 55.7581 94.0979 55.4261C94.683 55.0939 95.2318 55.0593 95.6572 55.2501C96.0826 55.4409 96.4218 55.8738 96.5628 56.5317C96.7037 57.1892 96.6276 58.0165 96.2585 58.8396C95.8893 59.6626 95.322 60.2697 94.7373 60.6017C94.1522 60.9339 93.6034 60.9685 93.178 60.7777C92.7526 60.5869 92.4134 60.154 92.2724 59.4961ZM92.8653 61.4747C91.4637 60.846 91.0224 58.7869 91.8797 56.8756C92.737 54.9642 94.5682 53.9244 95.9699 54.5531C97.3715 55.1818 97.8128 57.2409 96.9555 59.1522C96.0982 61.0636 94.267 62.1034 92.8653 61.4747Z" fill="black"/>
<path d="M92.4733 55.8828C91.7175 57.1394 91.9781 58.6832 93.0552 59.331C94.1324 59.9787 95.6182 59.4851 96.3739 58.2285C97.1296 56.9718 96.869 55.428 95.7919 54.7803C94.7148 54.1325 93.229 54.6261 92.4733 55.8828Z" fill="#111111"/>
<path d="M103.116 44.1549C107.616 45.9122 107.67 57.9497 107.134 63.7488C106.998 65.6073 108.409 66.0851 114.344 71.355C119.093 75.5709 115.935 79.6042 113.763 81.0939C117.371 82.5393 124.128 86.697 122.295 91.7642C120.462 96.8314 115.043 97.0492 112.563 96.5246C112.714 96.8336 112.089 98.338 108.381 101.884C104.672 105.429 99.4608 102.374 97.3186 100.403C85.1882 109.058 83.0558 101.621 83.5059 96.8213C81.0566 97.5039 76.0775 97.0972 75.756 90.0092C75.4345 82.9211 84.2954 76.1866 88.766 73.7053C77.4659 75.0798 86.7851 64.7782 91.3447 60.9133C95.9043 57.0484 97.4914 41.9582 103.116 44.1549Z" fill="#00BC68"/>
<path fill-rule="evenodd" clip-rule="evenodd" d="M101.31 44.4453C101.808 44.2685 102.353 44.2665 102.977 44.5103C103.962 44.895 104.753 45.8643 105.367 47.2926C105.976 48.7129 106.382 50.5245 106.634 52.4846C107.139 56.4024 107.02 60.8319 106.753 63.7134L106.753 63.7206C106.714 64.2433 106.785 64.6959 107.031 65.1588C107.267 65.6052 107.655 66.039 108.201 66.5509C108.713 67.0316 109.393 67.6051 110.265 68.3415C110.325 68.3923 110.386 68.4438 110.448 68.4961C111.412 69.3105 112.61 70.326 114.091 71.6403C115.239 72.6604 115.888 73.6497 116.2 74.5683C116.511 75.4843 116.495 76.3522 116.28 77.1463C115.844 78.7509 114.587 80.0645 113.546 80.7785C113.43 80.8582 113.367 80.9954 113.383 81.1355C113.398 81.2755 113.489 81.3957 113.62 81.4481C115.395 82.159 117.938 83.5365 119.803 85.3448C121.674 87.1589 122.776 89.3126 121.936 91.6339C121.066 94.0381 119.355 95.2856 117.552 95.8781C115.734 96.4754 113.83 96.4018 112.642 96.1506C112.499 96.1204 112.351 96.1743 112.261 96.2895C112.182 96.391 112.16 96.5246 112.2 96.6446C112.2 96.6462 112.2 96.6479 112.2 96.6497C112.195 96.6855 112.18 96.7511 112.139 96.8524C112.059 97.0545 111.897 97.3553 111.606 97.7709C111.025 98.6003 109.961 99.8434 108.117 101.607C106.389 103.259 104.313 103.387 102.365 102.844C100.404 102.297 98.6169 101.078 97.5769 100.121C97.444 99.999 97.2435 99.9866 97.0965 100.092C94.0843 102.241 91.7231 103.368 89.8921 103.797C88.0694 104.224 86.7974 103.955 85.9115 103.343C85.0159 102.724 84.4501 101.71 84.1375 100.525C83.8255 99.342 83.7765 98.024 83.886 96.8566C83.8977 96.7314 83.8471 96.6085 83.7507 96.5279C83.6542 96.4472 83.5242 96.4192 83.4031 96.453C82.2438 96.7761 80.4984 96.8344 79.0212 95.9967C77.5717 95.1746 76.2937 93.4393 76.1373 89.9916C75.9838 86.607 78.0277 83.2502 80.7407 80.3924C83.4426 77.5462 86.7425 75.2648 88.9511 74.039C89.1109 73.9503 89.1855 73.7608 89.1291 73.587C89.0727 73.4132 88.901 73.3037 88.7196 73.3258C87.3278 73.4951 86.2812 73.4807 85.5175 73.3334C84.7542 73.1862 84.3083 72.9138 84.0624 72.5959C83.8197 72.282 83.7265 71.8648 83.7927 71.3273C83.8595 70.785 84.0862 70.1496 84.4473 69.4487C85.8993 66.6302 89.322 63.128 91.5914 61.2043C92.8016 60.1785 93.7846 58.4405 94.6639 56.5136C95.2118 55.3127 95.7351 54.0005 96.2511 52.7068C96.5631 51.9244 96.8725 51.1487 97.183 50.4084C98.0188 48.4158 98.8671 46.6677 99.8335 45.553C100.313 44.9995 100.803 44.6257 101.31 44.4453ZM112.201 96.6291C112.201 96.6292 112.201 96.6302 112.201 96.632C112.201 96.6299 112.201 96.629 112.201 96.6291ZM93.9688 56.1965C93.0923 58.1174 92.1671 59.7149 91.0975 60.6216C88.8072 62.5628 85.2906 66.1438 83.7681 69.0988C83.3856 69.8412 83.1165 70.5673 83.0344 71.2339C82.9518 71.9053 83.0567 72.5443 83.4581 73.0633C83.8564 73.5783 84.5007 73.9153 85.3729 74.0835C85.8798 74.1813 86.4755 74.2245 87.1672 74.2093C85.0478 75.5416 82.4214 77.5124 80.1867 79.8664C77.4319 82.7682 75.2062 86.3227 75.3742 90.0262C75.5393 93.6665 76.9116 95.6785 78.6443 96.6612C80.1333 97.5056 81.8234 97.5518 83.0869 97.3106C83.029 98.4092 83.106 99.6094 83.3988 100.72C83.7386 102.009 84.3796 103.213 85.4772 103.972C86.5844 104.737 88.0917 105.004 90.0664 104.541C91.9791 104.093 94.3531 102.956 97.2908 100.89C98.4152 101.867 100.193 103.031 102.159 103.58C104.279 104.171 106.664 104.053 108.644 102.159C110.508 100.378 111.611 99.0957 112.232 98.2092C112.542 97.7669 112.739 97.4121 112.849 97.1344C112.871 97.0802 112.89 97.0272 112.906 96.9757C114.196 97.1801 116.023 97.1845 117.791 96.6039C119.775 95.9518 121.691 94.5569 122.654 91.8939C123.648 89.148 122.287 86.6892 120.335 84.7964C118.587 83.1016 116.297 81.785 114.521 80.9993C115.525 80.1735 116.595 78.8993 117.017 77.3465C117.269 76.4191 117.288 75.3951 116.924 74.3226C116.56 73.2526 115.823 72.1569 114.598 71.069C113.11 69.7483 111.906 68.728 110.941 67.9125C110.882 67.8626 110.824 67.8136 110.767 67.7653C109.885 67.021 109.221 66.4601 108.723 65.9936C108.192 65.4951 107.881 65.1317 107.706 64.801C107.54 64.488 107.485 64.1847 107.514 63.78C107.784 60.8623 107.905 56.3756 107.392 52.3871C107.135 50.3933 106.718 48.5035 106.069 46.9913C105.423 45.4871 104.52 44.2928 103.255 43.7987C102.473 43.4934 101.738 43.4824 101.054 43.7255C100.38 43.965 99.7874 44.4399 99.2563 45.0526C98.2006 46.2703 97.3125 48.1245 96.4785 50.1129C96.1562 50.8813 95.8424 51.6684 95.529 52.4547C95.0197 53.7323 94.5113 55.0076 93.9688 56.1965Z" fill="#111111"/>
<path d="M96.0452 58.1034C95.4064 60.0984 96.0746 62.0955 97.5376 62.5639C99.0006 63.0324 100.704 61.7949 101.343 59.7998C101.982 57.8048 101.314 55.8077 99.851 55.3393C98.3879 54.8708 96.6841 56.1083 96.0452 58.1034Z" fill="white"/>
<path fill-rule="evenodd" clip-rule="evenodd" d="M96.7277 60.6637C96.5144 60.0261 96.4977 59.1954 96.7728 58.3363C97.0479 57.4772 97.5439 56.8107 98.088 56.4156C98.6324 56.0202 99.1739 55.9246 99.618 56.0668C100.062 56.209 100.447 56.6013 100.661 57.2395C100.874 57.8771 100.891 58.7078 100.616 59.5669C100.341 60.4259 99.8446 61.0924 99.3006 61.4876C98.7561 61.883 98.2146 61.9785 97.7706 61.8364C97.3265 61.6942 96.9412 61.3019 96.7277 60.6637ZM97.5376 62.5639C96.0746 62.0955 95.4064 60.0984 96.0452 58.1034C96.6841 56.1083 98.3879 54.8708 99.851 55.3393C101.314 55.8077 101.982 57.8048 101.343 59.7998C100.704 61.7949 99.0006 63.0324 97.5376 62.5639Z" fill="black"/>
<path d="M96.5217 57.0528C95.9108 58.3859 96.3419 59.891 97.4846 60.4146C98.6272 60.9382 100.049 60.282 100.66 58.9489C101.27 57.6158 100.839 56.1107 99.6967 55.5871C98.5541 55.0635 97.1326 55.7197 96.5217 57.0528Z" fill="#111111"/>
<path fill-rule="evenodd" clip-rule="evenodd" d="M89.7723 66.455C89.5234 66.6499 89.1637 66.6061 88.9688 66.3572C88.8301 66.18 88.5508 65.9119 88.2025 65.7325C87.8601 65.5562 87.4997 65.4879 87.1431 65.6059C86.843 65.7052 86.7775 65.7788 86.6781 65.4787C86.5788 65.1786 86.954 64.7473 87.2541 64.648C87.9896 64.4046 88.2048 64.4461 88.7266 64.7149C89.2425 64.9806 89.6452 65.3642 89.8702 65.6515C90.065 65.9004 90.0212 66.2601 89.7723 66.455Z" fill="black"/>
<path d="M75.8272 83.8784C78.4246 80.517 86.4589 84.6424 90.1514 87.1252C90.788 87.6983 91.7175 89.2645 90.3423 90.9452C88.9672 92.6259 86.7569 93.6827 85.8236 94.001C87.7332 97.9755 89.6838 102.325 89.5784 103.169C89.3874 104.696 86.1406 104.887 79.8379 104.887C73.5353 104.887 75.8272 102.787 78.31 102.214C80.2963 101.755 79.5196 100.24 78.883 99.5397C78.501 99.0941 77.4315 97.7826 76.2091 96.1019C74.6812 94.001 72.5803 88.0802 75.8272 83.8784Z" fill="#FFEB34"/>
<path fill-rule="evenodd" clip-rule="evenodd" d="M82.6973 82.9505C85.5362 83.8866 88.4999 85.5581 90.3636 86.8113L90.386 86.8263L90.406 86.8444C90.7733 87.175 91.2148 87.7785 91.3743 88.5451C91.5379 89.3316 91.3975 90.2607 90.637 91.1902C89.3715 92.7369 87.4499 93.765 86.3471 94.2144C87.2434 96.0886 88.1359 98.022 88.8076 99.6134C89.1657 100.462 89.4635 101.219 89.6658 101.82C89.7669 102.121 89.8463 102.389 89.8973 102.614C89.9455 102.827 89.9785 103.043 89.9565 103.219C89.8889 103.759 89.5448 104.149 89.0432 104.421C88.5541 104.686 87.8804 104.86 87.0547 104.982C85.3986 105.225 82.9825 105.272 79.837 105.272C78.25 105.272 77.1629 105.141 76.4719 104.917C76.1277 104.804 75.8467 104.658 75.6556 104.462C75.4506 104.252 75.3564 103.989 75.4013 103.708C75.4424 103.451 75.5921 103.229 75.7638 103.05C75.9394 102.867 76.1667 102.698 76.4184 102.548C76.9225 102.248 77.5692 101.995 78.2232 101.844C78.6742 101.74 78.9163 101.588 79.0427 101.448C79.1616 101.316 79.2062 101.166 79.1976 100.989C79.1786 100.598 78.8968 100.127 78.5994 99.7997L78.5956 99.7956L78.592 99.7914C78.203 99.3376 77.1272 98.0181 75.8993 96.3297C75.0961 95.2253 74.1666 93.1597 73.8482 90.8328C73.5291 88.5007 73.8181 85.8555 75.524 83.6479C76.2649 82.689 77.3796 82.2898 78.6256 82.2399C79.8667 82.1901 81.2793 82.483 82.6973 82.9505ZM86.0158 93.5245C87.0308 93.1177 88.8692 92.1444 90.0458 90.7064C90.6605 89.9551 90.7429 89.2608 90.6264 88.7007C90.5085 88.1343 90.18 87.6764 89.9139 87.4295C88.0838 86.2017 85.1971 84.5792 82.4581 83.676C81.0813 83.2221 79.7676 82.9587 78.6562 83.0032C77.55 83.0476 76.6862 83.3932 76.1285 84.115C74.5875 86.1092 74.3036 88.5253 74.6051 90.7293C74.9074 92.9385 75.7924 94.8838 76.5171 95.8803C77.7301 97.5481 78.7905 98.8487 79.1686 99.2901C79.5071 99.6638 79.9289 100.298 79.9607 100.952C79.9775 101.299 79.8837 101.657 79.6095 101.96C79.3428 102.255 78.9371 102.464 78.395 102.589C77.8075 102.724 77.2367 102.95 76.8096 103.204C76.5959 103.332 76.4292 103.46 76.3154 103.579C76.1976 103.702 76.1623 103.787 76.1556 103.829L76.1556 103.829C76.1528 103.847 76.1485 103.873 76.2027 103.929C76.2713 103.999 76.42 104.096 76.7084 104.19C77.2827 104.377 78.2727 104.509 79.837 104.509C82.9942 104.509 85.3527 104.46 86.9435 104.226C87.7411 104.109 88.3089 103.95 88.6793 103.749C89.0372 103.555 89.1705 103.348 89.1984 103.124C89.2028 103.089 89.1979 102.985 89.1522 102.783C89.1092 102.593 89.0386 102.352 88.9417 102.064C88.7483 101.489 88.4589 100.752 88.1038 99.9105C87.3941 98.2293 86.4322 96.1547 85.4784 94.1695C84.6225 92.3881 83.7749 90.682 83.1252 89.4023L83.8064 89.0564C84.4201 90.2653 85.2093 91.8522 86.0158 93.5245Z" fill="#111111"/>
<path d="M82.3193 83.8784C84.9168 80.517 92.9511 84.6424 96.6436 87.1252C97.2802 87.6983 98.2097 89.2645 96.8345 90.9452C95.4594 92.6259 93.2491 93.6827 92.3158 94.001C94.2254 97.9755 96.176 102.325 96.0706 103.169C95.8796 104.696 92.6328 104.887 86.3301 104.887C80.0275 104.887 82.3193 102.787 84.8022 102.214C86.7885 101.755 86.0118 100.24 85.3752 99.5397C84.9932 99.0941 83.9237 97.7826 82.7013 96.1019C81.1734 94.001 79.0725 88.0802 82.3193 83.8784Z" fill="#FFEB34"/>
<path fill-rule="evenodd" clip-rule="evenodd" d="M89.1895 82.9505C92.0284 83.8866 94.9921 85.5581 96.8558 86.8113L96.8781 86.8263L96.8982 86.8444C97.2655 87.175 97.707 87.7785 97.8665 88.5451C98.0301 89.3316 97.8897 90.2607 97.1292 91.1902C95.8637 92.7369 93.9421 93.765 92.8393 94.2144C93.7355 96.0886 94.6281 98.022 95.2998 99.6134C95.6579 100.462 95.9557 101.219 96.158 101.82C96.2591 102.121 96.3385 102.389 96.3894 102.614C96.4376 102.827 96.4707 103.043 96.4487 103.219C96.3811 103.759 96.0369 104.149 95.5354 104.421C95.0463 104.686 94.3726 104.86 93.5469 104.982C91.8908 105.225 89.4746 105.272 86.3292 105.272C84.7421 105.272 83.6551 105.141 82.9641 104.917C82.6199 104.804 82.3389 104.658 82.1478 104.462C81.9428 104.252 81.8485 103.989 81.8935 103.708C81.9346 103.451 82.0843 103.229 82.2559 103.05C82.4316 102.867 82.6588 102.698 82.9106 102.548C83.4147 102.248 84.0614 101.995 84.7154 101.844C85.1663 101.74 85.4084 101.588 85.5349 101.448C85.6538 101.316 85.6984 101.166 85.6898 100.989C85.6708 100.598 85.389 100.127 85.0916 99.7997L85.0878 99.7956L85.0842 99.7914C84.6952 99.3376 83.6194 98.0181 82.3915 96.3297C81.5883 95.2253 80.6588 93.1597 80.3404 90.8328C80.0213 88.5007 80.3103 85.8555 82.0162 83.6479C82.7571 82.689 83.8717 82.2898 85.1178 82.2399C86.3588 82.1901 87.7715 82.483 89.1895 82.9505ZM92.508 93.5245C93.5229 93.1177 95.3614 92.1444 96.538 90.7064C97.1527 89.9551 97.2351 89.2608 97.1185 88.7007C97.0007 88.1343 96.6722 87.6764 96.406 87.4295C94.576 86.2017 91.6893 84.5792 88.9503 83.676C87.5735 83.2221 86.2597 82.9587 85.1484 83.0032C84.0421 83.0476 83.1784 83.3932 82.6207 84.115C81.0797 86.1092 80.7957 88.5253 81.0973 90.7293C81.3996 92.9385 82.2846 94.8838 83.0093 95.8803C84.2223 97.5481 85.2827 98.8487 85.6608 99.2901C85.9993 99.6638 86.4211 100.298 86.4529 100.952C86.4697 101.299 86.3759 101.657 86.1016 101.96C85.835 102.255 85.4293 102.464 84.8871 102.589C84.2997 102.724 83.7288 102.95 83.3018 103.204C83.0881 103.332 82.9214 103.46 82.8076 103.579C82.6898 103.702 82.6545 103.787 82.6478 103.829L82.6478 103.829C82.6449 103.847 82.6407 103.873 82.6949 103.929C82.7634 103.999 82.9122 104.096 83.2006 104.19C83.7749 104.377 84.7649 104.509 86.3292 104.509C89.4864 104.509 91.8449 104.46 93.4357 104.226C94.2333 104.109 94.8011 103.95 95.1715 103.749C95.5294 103.555 95.6627 103.348 95.6906 103.124C95.695 103.089 95.6901 102.985 95.6444 102.783C95.6014 102.593 95.5308 102.352 95.4339 102.064C95.2405 101.489 94.9511 100.752 94.596 99.9105C93.8863 98.2293 92.9244 96.1547 91.9706 94.1695C91.1147 92.3881 90.2671 90.682 89.6174 89.4023L90.2986 89.0564C90.9123 90.2653 91.7015 91.8522 92.508 93.5245Z" fill="#111111"/>
<path d="M80.9345 83.2125C78.8261 84.761 78.5919 85.6643 78.7383 85.9223C79.1772 87.0838 82.1635 89.5616 90.5969 90.181C101.139 90.9552 104.083 85.4985 105.092 82.8258C106.206 79.8759 104.745 74.8515 99.4743 73.303C96.8388 72.1417 93.2324 75.5118 94.9893 77.8345C96.3949 79.6926 97.221 79.7516 96.7817 80.9138C96.3425 82.076 94.1108 83.2125 91.9146 83.5997C89.7184 83.9868 83.5699 81.277 80.9345 83.2125Z" fill="#FDFBEF"/>
<path fill-rule="evenodd" clip-rule="evenodd" d="M99.6042 72.9435C105.076 74.5645 106.637 79.8139 105.448 82.9608C104.93 84.3324 103.907 86.4413 101.644 88.1039C99.3767 89.7699 95.91 90.9544 90.5681 90.562C86.3199 90.25 83.4183 89.4684 81.5109 88.6029C80.5572 88.1701 79.8471 87.714 79.3411 87.2809C78.8505 86.8609 78.5337 86.4468 78.3888 86.08C78.3029 85.9059 78.3071 85.704 78.3506 85.52C78.3985 85.3173 78.504 85.0894 78.673 84.8382C79.0108 84.3361 79.6345 83.6928 80.7075 82.9047C81.4565 82.3546 82.4258 82.1542 83.4428 82.1291C84.4637 82.1039 85.5785 82.2547 86.6564 82.4496C87.1968 82.5473 87.7328 82.6571 88.2464 82.7629L88.3323 82.7806C88.8163 82.8803 89.2783 82.9755 89.7109 83.0546C90.6449 83.2254 91.3756 83.3067 91.8475 83.2236C92.9082 83.0366 93.976 82.6683 94.8251 82.2111C95.6957 81.7423 96.2553 81.2238 96.4235 80.7788C96.5199 80.5238 96.528 80.3779 96.5085 80.2751C96.4886 80.1707 96.4303 80.0563 96.2831 79.8799C96.1811 79.7576 96.0587 79.6303 95.9053 79.4707C95.8271 79.3894 95.7408 79.2997 95.6451 79.198C95.3708 78.9066 95.0459 78.5437 94.6838 78.065C93.6388 76.6834 94.2375 75.0431 95.3169 73.989C96.3916 72.9396 98.1016 72.2956 99.6042 72.9435ZM95.8506 74.5356C94.9071 75.457 94.5812 76.663 95.2931 77.6041C95.6337 78.0544 95.9392 78.3958 96.2014 78.6744C96.2797 78.7576 96.3571 78.8381 96.4316 78.9157C96.5978 79.0886 96.7502 79.2472 96.8697 79.3905C97.0499 79.6064 97.2036 79.8408 97.259 80.1324C97.3147 80.4256 97.2614 80.7228 97.1382 81.0489C96.8671 81.7661 96.0913 82.397 95.1873 82.8838C94.2617 83.3822 93.1156 83.7758 91.9801 83.9759C91.3538 84.0863 90.4923 83.9741 89.5735 83.8061C89.1322 83.7254 88.6623 83.6286 88.1809 83.5294C88.1514 83.5233 88.1218 83.5172 88.0923 83.5111C87.5782 83.4052 87.0506 83.2972 86.5204 83.2014C85.4572 83.0091 84.4035 82.8696 83.4616 82.8928C82.516 82.9161 81.7284 83.1028 81.1597 83.5205C80.1244 84.2809 79.5767 84.8635 79.3069 85.2646C79.1721 85.4651 79.1147 85.6082 79.094 85.6958C79.0865 85.7276 79.0845 85.7482 79.0842 85.7596L79.0842 85.7597L79.0947 85.7874C79.1735 85.9959 79.3917 86.3186 79.8379 86.7006C80.2789 87.078 80.9248 87.4979 81.8266 87.9072C83.6306 88.7258 86.4388 89.4927 90.624 89.8001C95.8238 90.182 99.1 89.0253 101.192 87.4883C103.289 85.9479 104.242 83.9921 104.734 82.691C105.771 79.9426 104.417 75.1535 99.3657 73.6696L99.342 73.6626L99.3194 73.6527C98.1922 73.1559 96.7933 73.6151 95.8506 74.5356Z" fill="black"/>
<path d="M88.2529 82.8216C85.522 82.4268 76.9845 90.6352 75.2792 83.611C75.1925 82.6533 75.481 80.523 77.3294 79.6636C77.6708 79.7952 79.1045 79.9005 82.1085 79.2689C85.1124 78.6373 87.4564 81.3742 88.2529 82.8216Z" fill="#FDFBEF"/>
<path fill-rule="evenodd" clip-rule="evenodd" d="M86.33 80.0466C87.4 80.9155 88.1854 82.0531 88.5865 82.8223L88.9346 83.4901L88.1901 83.3765C87.963 83.3419 87.5924 83.4075 87.0625 83.5947C86.5479 83.7764 85.9426 84.05 85.2713 84.3686C85.0413 84.4778 84.8039 84.5921 84.5607 84.7092C83.3996 85.2683 82.1074 85.8906 80.8688 86.3137C79.3892 86.8191 77.8609 87.0873 76.6726 86.5089C75.4386 85.9083 74.7364 84.4903 74.6876 82.0516C74.6834 81.8407 74.8509 81.6663 75.0618 81.662C75.2728 81.6578 75.4472 81.8254 75.4514 82.0363C75.4981 84.3723 76.1626 85.411 77.007 85.822C77.8972 86.2554 79.159 86.0904 80.6219 85.5907C81.8127 85.184 83.0538 84.5865 84.2147 84.0278C84.4617 83.9088 84.7052 83.7917 84.9437 83.6784C85.616 83.3594 86.2526 83.0705 86.8081 82.8743C87.0806 82.7781 87.3499 82.6979 87.6051 82.6504C87.2012 82.0119 86.5982 81.2486 85.8484 80.6397C84.8791 79.8526 83.7101 79.3571 82.4211 79.6432C80.9472 79.9702 79.7513 80.0528 78.8752 80.0347C78.0144 80.0169 77.4335 79.9013 77.2044 79.8081C77.009 79.7286 76.915 79.5058 76.9945 79.3104C77.0741 79.1149 77.2969 79.021 77.4923 79.1005C77.5915 79.1408 78.0611 79.2538 78.8909 79.2709C79.7054 79.2877 80.8404 79.2114 82.2555 78.8973C83.8556 78.5423 85.2583 79.1764 86.33 80.0466Z" fill="black"/>
<path d="M89.9872 43.9272C89.9872 44.5601 89.4741 45.0731 88.8412 45.0731C88.2084 45.0731 87.6953 44.5601 87.6953 43.9272C87.6953 43.2943 88.2084 42.7812 88.8412 42.7812C89.4741 42.7812 89.9872 43.2943 89.9872 43.9272Z" fill="#FAA71E"/>
<path fill-rule="evenodd" clip-rule="evenodd" d="M90.7495 43.9294C90.7495 44.9842 89.8944 45.8393 88.8396 45.8393C87.7848 45.8393 86.9297 44.9842 86.9297 43.9294C86.9297 42.8746 87.7848 42.0195 88.8396 42.0195C89.8944 42.0195 90.7495 42.8746 90.7495 43.9294ZM88.8396 45.0754C89.4725 45.0754 89.9855 44.5623 89.9855 43.9294C89.9855 43.2965 89.4725 42.7835 88.8396 42.7835C88.2067 42.7835 87.6936 43.2965 87.6936 43.9294C87.6936 44.5623 88.2067 45.0754 88.8396 45.0754Z" fill="#111111"/>
<path d="M87.7192 27.8828C87.2139 27.8828 86.9823 28.541 86.9297 28.87C87.1402 31.5758 87.5613 37.097 87.5613 37.5358C87.5613 37.9745 87.9823 38.3768 88.1929 38.523C88.5613 38.5961 89.3929 38.6985 89.7719 38.523C90.1508 38.3475 90.2982 37.7917 90.3245 37.5358C90.535 34.9397 90.9561 29.5721 90.9561 28.87C90.9561 28.168 90.4824 27.9194 90.2456 27.8828H87.7192Z" fill="#FAA71E"/>
<path fill-rule="evenodd" clip-rule="evenodd" d="M86.1562 28.8412L86.1706 28.7516C86.2082 28.5163 86.306 28.1663 86.5008 27.8524C86.6918 27.5447 87.0799 27.1211 87.7144 27.1211H90.2994L90.3574 27.13C90.8911 27.2124 91.7153 27.7216 91.7153 28.8723C91.7153 29.6151 91.2894 35.033 91.0812 37.5998L91.0806 37.608L91.0797 37.6162C91.0594 37.8138 90.9978 38.0988 90.8714 38.3774C90.7509 38.643 90.5181 39.0194 90.0882 39.2185C89.716 39.3908 89.2466 39.3947 88.9413 39.3818C88.5946 39.367 88.2552 39.3174 88.0394 39.2746L87.8831 39.2436L87.7523 39.1527C87.5886 39.039 87.37 38.8475 87.1844 38.6027C87.0055 38.3664 86.7926 37.9946 86.7926 37.538C86.7926 37.5383 86.7926 37.5361 86.7925 37.5304C86.7923 37.525 86.7921 37.5178 86.7918 37.5084C86.7912 37.4897 86.7901 37.4653 86.7887 37.4348C86.7857 37.3739 86.7813 37.2942 86.7754 37.1965C86.7637 37.0015 86.7466 36.7418 86.7253 36.4318C86.6827 35.8123 86.6236 34.998 86.5578 34.1118C86.4263 32.3396 86.2685 30.2839 86.1633 28.9316L86.1562 28.8412ZM90.2408 27.8851C90.4777 27.9216 90.9514 28.1703 90.9514 28.8723C90.9514 29.5743 90.5303 34.942 90.3198 37.538C90.2934 37.794 90.1461 38.3497 89.7671 38.5253C89.3882 38.7008 88.5566 38.5984 88.1881 38.5253C87.9776 38.379 87.5565 37.9768 87.5565 37.538C87.5565 37.0992 87.1355 31.578 86.9249 28.8723C86.9776 28.5432 87.2092 27.8851 87.7144 27.8851H90.2408Z" fill="#111111"/>
</svg>
