<svg width="75" height="111" viewBox="0 0 75 111" fill="none" xmlns="http://www.w3.org/2000/svg">
<path d="M37.4221 102.069C36.8415 100.87 37.1089 88.2477 36.6709 80.5813L35.9936 71.498L43.7183 73.7818C43.73 80.8463 43.8588 92.2424 44.2804 98.834C44.7021 105.426 44.4179 107.124 44.2231 107.149C42.2284 109.952 35.673 108.021 33.6773 107.688C31.5007 107.325 23.3034 106.174 25.8798 102.431C27.8761 99.5312 38.1478 103.567 37.4221 102.069Z" fill="#FFEB34"/>
<path fill-rule="evenodd" clip-rule="evenodd" d="M35.5589 70.9543L44.1274 73.4876L44.1279 73.7867C44.1396 80.852 44.2684 92.2364 44.6892 98.814C44.9004 102.115 44.9356 104.203 44.8922 105.473C44.8706 106.106 44.8292 106.549 44.7768 106.842C44.7511 106.986 44.7196 107.113 44.6777 107.214C44.6572 107.263 44.6264 107.326 44.5788 107.384C44.5627 107.403 44.54 107.428 44.5103 107.453C43.9337 108.22 43.067 108.645 42.1107 108.859C41.1286 109.08 40.0144 109.088 38.9265 109C37.3754 108.873 35.7922 108.538 34.6776 108.302C34.2445 108.21 33.8821 108.133 33.6199 108.089C33.5287 108.074 33.4261 108.057 33.3135 108.039C32.1028 107.842 29.7301 107.456 27.8555 106.705C26.84 106.298 25.8937 105.756 25.3831 105.013C25.1203 104.631 24.9709 104.193 24.9936 103.704C25.0162 103.219 25.2057 102.721 25.5579 102.209C26.1733 101.315 27.3698 101.02 28.6188 100.967C29.8957 100.912 31.3791 101.104 32.7468 101.334C33.3549 101.437 33.9328 101.545 34.4649 101.645C35.1541 101.774 35.7665 101.889 36.2684 101.958C36.5864 102.001 36.8241 102.021 36.9873 102.019C36.9678 101.947 36.9514 101.871 36.937 101.794C36.9042 101.619 36.8757 101.406 36.8506 101.163C36.8002 100.676 36.7609 100.046 36.7291 99.3068C36.6654 97.8285 36.6307 95.8932 36.6004 93.7619C36.5926 93.211 36.5851 92.6469 36.5775 92.0741C36.526 88.2085 36.4691 83.9418 36.2791 80.6133L35.5589 70.9543ZM37.1919 101.997C37.192 101.997 37.1902 101.998 37.1859 101.999C37.1896 101.997 37.1918 101.997 37.1919 101.997ZM36.4453 72.0529L37.0796 80.5606L37.0798 80.5641C37.2711 83.9122 37.3282 88.2008 37.3797 92.0652C37.3873 92.6377 37.3948 93.201 37.4026 93.7505C37.4328 95.883 37.4675 97.8072 37.5306 99.2723C37.5622 100.005 37.6007 100.617 37.6485 101.08C37.6725 101.312 37.6983 101.501 37.7255 101.646C37.7543 101.8 37.7797 101.875 37.7915 101.9C37.8638 102.049 37.9274 102.291 37.7755 102.517C37.6448 102.712 37.429 102.772 37.2957 102.796C37.0095 102.847 36.6001 102.813 36.1594 102.753C35.6472 102.682 34.9954 102.56 34.282 102.427C33.7494 102.327 33.1825 102.221 32.6135 102.125C31.2544 101.897 29.8409 101.717 28.6532 101.768C27.4374 101.82 26.6014 102.108 26.2186 102.664C25.9267 103.088 25.8088 103.445 25.795 103.741C25.7814 104.033 25.8667 104.301 26.0441 104.559C26.4139 105.097 27.1699 105.566 28.1538 105.96C29.9398 106.676 32.2235 107.048 33.4441 107.248C33.556 107.266 33.6589 107.283 33.7517 107.298C34.0633 107.35 34.4617 107.434 34.9229 107.532C36.0284 107.767 37.4947 108.078 38.9916 108.2C40.0412 108.285 41.0647 108.272 41.935 108.077C42.8043 107.881 43.4832 107.514 43.9047 106.922L43.9543 106.852C43.9636 106.818 43.975 106.769 43.9871 106.701C44.0296 106.463 44.0694 106.064 44.0905 105.446C44.1325 104.213 44.0991 102.155 43.8886 98.8652C43.472 92.352 43.341 81.1703 43.3262 74.0873L36.4453 72.0529Z" fill="#111111"/>
<path d="M32.1906 6.07139C26.6669 8.7054 27.7061 23.919 28.9162 31.1965C29.2592 33.532 27.5198 34.2654 20.5055 41.4693C14.8941 47.2324 19.2546 52.0378 22.1362 53.7202C17.7105 55.8782 9.5547 61.7525 12.3368 67.986C15.119 74.2195 21.9852 73.9964 25.0706 73.1057C24.908 73.5099 25.8358 75.3531 30.8472 79.492C35.8586 83.6308 42.1621 79.291 44.6874 76.6038C60.8091 86.4233 62.8194 76.8319 61.8094 70.8088C64.9668 71.4461 71.2201 70.4744 70.9746 61.4896C70.7291 52.5048 58.9147 44.8108 53.0382 42.0869C67.4415 42.7846 54.7202 30.626 48.6041 26.1622C42.488 21.6984 39.0953 2.77887 32.1906 6.07139Z" fill="#00BC68"/>
<path fill-rule="evenodd" clip-rule="evenodd" d="M34.5118 6.19101C33.8464 6.00766 33.1371 6.05814 32.3542 6.43149C31.1158 7.022 30.1948 8.34471 29.5485 10.2141C28.9052 12.0749 28.5583 14.4095 28.4196 16.9129C28.1423 21.9169 28.7008 27.5087 29.3027 31.1287L29.3039 31.1362C29.3986 31.7807 29.3512 32.3427 29.0911 32.9335C28.839 33.5062 28.397 34.0818 27.7556 34.7772C27.1536 35.43 26.3497 36.2155 25.3147 37.2269C25.2437 37.2963 25.1716 37.3668 25.0984 37.4383C23.9549 38.556 22.5339 39.9498 20.7838 41.7471C19.4183 43.1495 18.6809 44.4713 18.3668 45.6773C18.0534 46.8806 18.1549 47.9925 18.5053 48.9901C19.212 51.0021 20.9379 52.5595 22.3293 53.3718C22.4571 53.4464 22.5335 53.5853 22.5279 53.7332C22.5224 53.8811 22.4359 54.0139 22.3029 54.0788C20.1201 55.1431 17.0229 57.1231 14.8239 59.5897C12.619 62.063 11.3996 64.9203 12.694 67.8206C14.0261 70.8053 16.3254 72.2386 18.6781 72.8263C21.0465 73.418 23.4613 73.1482 24.9502 72.7183C25.0976 72.6758 25.2563 72.721 25.3591 72.8348C25.4533 72.9391 25.4855 73.0842 25.4462 73.2172C25.4469 73.2236 25.4482 73.2328 25.4507 73.2451C25.4615 73.2988 25.4898 73.3872 25.5518 73.5154C25.6757 73.7712 25.9123 74.1419 26.3205 74.643C27.1355 75.6433 28.5983 77.1199 31.0935 79.1807C33.4575 81.1331 36.125 81.1001 38.555 80.2281C40.9977 79.3516 43.1538 77.6383 44.386 76.3271C44.5159 76.1889 44.7249 76.1606 44.8869 76.2593C48.8949 78.7004 51.9923 79.9137 54.3599 80.2898C56.7187 80.6645 58.3266 80.2059 59.4123 79.3327C60.5076 78.4519 61.1359 77.0979 61.4239 75.5603C61.7116 74.0248 61.6515 72.345 61.4047 70.8731C61.3829 70.7429 61.4265 70.6103 61.5214 70.5185C61.6163 70.4267 61.7503 70.3875 61.8797 70.4136C63.3885 70.7182 65.6234 70.6318 67.4363 69.4219C69.2214 68.2304 70.6845 65.8898 70.5645 61.4986C70.4463 57.1737 67.5341 53.1006 63.8388 49.735C60.156 46.3807 55.7696 43.7973 52.8605 42.4489C52.6864 42.3682 52.5938 42.1755 52.6396 41.9891C52.6855 41.8028 52.8569 41.675 53.0485 41.6843C54.8271 41.7705 56.1576 41.6562 57.1205 41.3968C58.0829 41.1375 58.6422 40.7438 58.9385 40.297C59.2319 39.8548 59.3107 39.2949 59.1749 38.6076C59.038 37.9153 58.6879 37.1239 58.1645 36.2672C56.0621 32.8256 51.405 28.7077 48.3585 26.4842C46.7513 25.3112 45.3569 23.2204 44.0692 20.8674C43.2672 19.4018 42.4873 17.796 41.7173 16.2105C41.2509 15.2503 40.7882 14.2975 40.3263 13.3878C39.0873 10.9475 37.8497 8.80583 36.5158 7.47592C35.8526 6.81471 35.1878 6.3773 34.5118 6.19101ZM44.773 20.4823C46.0573 22.8293 47.3806 24.7773 48.8314 25.8362C51.9011 28.0766 56.6627 32.2698 58.8491 35.849C59.398 36.7475 59.7995 37.6307 59.9619 38.452C60.1252 39.2783 60.0509 40.0712 59.607 40.7405C59.1661 41.4053 58.404 41.8818 57.3291 42.1714C56.6322 42.3591 55.7888 42.4727 54.7848 42.5052C57.6227 43.9879 61.246 46.2884 64.379 49.1419C68.1214 52.5504 71.2391 56.8167 71.3664 61.4767C71.4919 66.0703 69.9512 68.7078 67.8816 70.0891C66.059 71.3056 63.8948 71.5006 62.2786 71.2918C62.4647 72.6957 62.4852 74.2516 62.2124 75.708C61.9038 77.3559 61.2113 78.9154 59.915 79.9579C58.6092 81.008 56.7548 81.4825 54.234 81.0821C51.7792 80.6921 48.6677 79.4703 44.7448 77.111C43.424 78.451 41.2742 80.1047 38.8259 80.9832C36.22 81.9183 33.2301 81.9857 30.5827 79.7993C28.0665 77.7212 26.5598 76.2068 25.6986 75.1497C25.2688 74.6221 24.9907 74.1975 24.8297 73.8648C24.7866 73.7757 24.7503 73.6901 24.7216 73.6081C23.118 73.994 20.7887 74.1805 18.4837 73.6046C15.9364 72.9682 13.4114 71.3963 11.9614 68.1475C10.4738 64.8143 11.9412 61.6177 14.2251 59.0559C16.3069 56.7208 19.1358 54.8256 21.3181 53.6787C19.9543 52.7403 18.4352 51.2113 17.7484 49.256C17.3499 48.1215 17.2333 46.8463 17.5905 45.4751C17.9469 44.1067 18.7688 42.6666 20.209 41.1875C21.9661 39.3829 23.3928 37.9836 24.5376 36.8646C24.6079 36.796 24.677 36.7284 24.7451 36.6618C25.7895 35.6413 26.5787 34.8701 27.1659 34.2333C27.7933 33.553 28.1602 33.0571 28.3569 32.6103C28.5452 32.1825 28.5869 31.778 28.5107 31.2565C27.9028 27.5988 27.3372 21.9473 27.6186 16.8685C27.7593 14.3295 28.1127 11.912 28.7903 9.95199C29.4649 8.00061 30.4854 6.43387 32.0089 5.70738C32.9521 5.25759 33.8592 5.17908 34.7249 5.41761C35.5799 5.65321 36.3608 6.18858 37.0822 6.90781C38.5174 8.33878 39.8048 10.5886 41.0416 13.0246C41.5179 13.9628 41.9862 14.9273 42.4544 15.8916C43.2161 17.4605 43.9776 19.0289 44.773 20.4823Z" fill="#111111"/>
<path d="M51.3852 102.101C50.7135 100.983 50.1861 90.7424 48.7307 81.6768C48.1022 77.7619 46.7599 73.5725 47.2798 71.7165C47.7996 69.8604 54.2075 70.068 55.2066 72.9789C56.2056 75.8899 57.0376 92.651 57.9488 99.1629C58.86 105.675 58.0618 106.358 58.0618 106.358C56.266 109.412 50.3001 109.507 48.2696 109.468C45.8752 109.421 37.611 109.898 39.5748 105.668C41.5387 101.439 52.2248 103.499 51.3852 102.101Z" fill="#FFEB34"/>
<path fill-rule="evenodd" clip-rule="evenodd" d="M53.8181 70.9432C54.6176 71.3697 55.2903 71.9896 55.581 72.8366C55.8473 73.6125 56.0899 75.2527 56.3213 77.3226C56.5547 79.4112 56.7812 81.9876 57.0046 84.6718C57.0819 85.6004 57.1588 86.5417 57.2355 87.4802C57.6029 91.977 57.9651 96.4103 58.3403 99.0923C58.7976 102.361 58.8302 104.193 58.7408 105.221C58.696 105.736 58.6196 106.063 58.5423 106.275C58.5034 106.382 58.4627 106.463 58.423 106.525C58.408 106.548 58.393 106.569 58.3781 106.588C57.371 108.263 55.2777 109.072 53.3061 109.473C51.2921 109.883 49.2579 109.896 48.2334 109.876C48.0091 109.872 47.7258 109.872 47.3993 109.873C46.0399 109.876 43.9289 109.88 42.1838 109.538C41.1074 109.327 40.0864 108.971 39.4677 108.335C39.1497 108.009 38.9354 107.605 38.8822 107.117C38.8295 106.634 38.9388 106.102 39.2073 105.524C39.7713 104.309 40.9422 103.59 42.2539 103.15C43.5707 102.709 45.1069 102.524 46.5218 102.429C47.232 102.382 47.9189 102.357 48.5383 102.335L48.6174 102.332C49.2079 102.311 49.729 102.293 50.1571 102.26C50.5201 102.233 50.7806 102.197 50.9478 102.154C50.8662 101.952 50.7995 101.682 50.7392 101.382C50.6551 100.965 50.5724 100.428 50.4886 99.7952C50.3211 98.5296 50.1461 96.8552 49.9474 94.9405L49.925 94.724C49.5309 90.925 49.0412 86.205 48.3292 81.7695C48.1264 80.5064 47.8511 79.2257 47.5861 77.9927C47.4418 77.3212 47.3005 76.6638 47.1755 76.031C47.0002 75.1427 46.8582 74.3063 46.7938 73.57C46.7301 72.8413 46.7383 72.1728 46.8886 71.6361C47.0826 70.9434 47.7832 70.5475 48.5027 70.3429C49.2543 70.1291 50.1887 70.0723 51.1212 70.1679C52.0554 70.2637 53.0165 70.5155 53.8181 70.9432ZM51.1073 102.097C51.1074 102.097 51.1064 102.098 51.104 102.099C51.1061 102.098 51.1072 102.097 51.1073 102.097ZM48.6804 71.1141C48.0211 71.3016 47.7258 71.5757 47.6598 71.8111C47.5502 72.2024 47.5313 72.7537 47.5926 73.4548C47.6533 74.1484 47.7887 74.9521 47.9625 75.8325C48.0822 76.4388 48.2207 77.0835 48.3637 77.7491C48.6317 78.9966 48.9155 80.3178 49.121 81.5984C49.8366 86.0557 50.3282 90.7941 50.7218 94.5886L50.745 94.8126C50.9441 96.7311 51.1179 98.3931 51.2836 99.6454C51.3666 100.272 51.4466 100.789 51.5256 101.181C51.6086 101.593 51.6807 101.811 51.7263 101.887C51.8158 102.036 51.8845 102.263 51.7603 102.501C51.6539 102.706 51.4582 102.808 51.3229 102.861C51.04 102.974 50.6238 103.026 50.1721 103.061C49.7272 103.094 49.1911 103.113 48.609 103.134L48.5207 103.137C47.9008 103.159 47.2255 103.184 46.5296 103.23C45.1325 103.324 43.6814 103.504 42.4685 103.91C41.2504 104.318 40.3491 104.927 39.9311 105.827C39.7087 106.306 39.6466 106.685 39.6794 106.985C39.7116 107.281 39.8394 107.535 40.0575 107.759C40.5108 108.225 41.3373 108.545 42.3808 108.75C44.0398 109.075 46.0353 109.072 47.4008 109.07C47.7436 109.069 48.0466 109.069 48.2947 109.074C49.3007 109.093 51.2647 109.079 53.1901 108.687C55.1445 108.289 56.9168 107.532 57.7137 106.176L57.7506 106.114L57.7647 106.101C57.7711 106.088 57.7802 106.068 57.7911 106.038C57.835 105.918 57.9011 105.667 57.942 105.197C58.0239 104.256 57.9999 102.491 57.5461 99.2479C57.1674 96.5411 56.8027 92.0768 56.4354 87.5807C56.3589 86.6445 56.2824 85.707 56.2055 84.7836C55.9821 82.0997 55.7564 79.533 55.5243 77.4567C55.2902 75.3617 55.0542 73.8151 54.821 73.1356C54.6122 72.5271 54.1092 72.0294 53.41 71.6563C52.7129 71.2844 51.8522 71.0544 50.9946 70.9664C50.1352 70.8783 49.3078 70.9357 48.6804 71.1141Z" fill="#111111"/>
<path d="M23.659 50.2949C24.6921 52.1166 26.7357 51.4975 27.6283 50.9602C28.8623 49.7932 29.7516 47.986 29.3611 47.5084C29.0615 47.1421 29.0882 44.9626 28.9991 43.5739C28.91 42.1852 27.3122 38.7504 28.9991 35.4613C30.686 32.1722 30.9514 32.6278 30.8916 32.2056C30.8438 31.8679 30.5112 31.5466 30.3509 31.4281C30.5926 30.0948 29.5504 29.5767 28.9991 29.4843C29.2298 29.3398 29.6252 28.8886 29.3611 28.2399C29.0309 27.429 26.8058 26.9187 24.4879 29.5525C22.17 32.1864 21.6262 35.1862 21.805 37.2082C21.9838 39.2301 22.3243 40.5769 22.4915 43.5739C22.6271 46.0059 22.3676 48.0179 23.659 50.2949Z" fill="#FDFBEF"/>
<path fill-rule="evenodd" clip-rule="evenodd" d="M27.7055 28.0092C26.939 28.0959 25.8888 28.5634 24.7795 29.8238C22.5427 32.3655 22.0248 35.253 22.1951 37.179C22.2637 37.9546 22.3559 38.6266 22.4544 39.3435C22.4828 39.5503 22.5117 39.7608 22.5407 39.9787C22.67 40.9494 22.7982 42.046 22.8825 43.5578C22.911 44.0695 22.9232 44.5545 22.9348 45.0208C22.9802 46.8404 23.0186 48.3756 23.9984 50.1033C24.4338 50.871 25.059 51.1125 25.6899 51.1173C26.328 51.1222 26.9699 50.8802 27.3753 50.6445C27.9431 50.0993 28.4334 49.4088 28.7355 48.803C28.8898 48.4935 28.9864 48.2231 29.0249 48.0175C29.0609 47.8252 29.0335 47.7625 29.0353 47.7616C29.0357 47.7615 29.0373 47.764 29.0411 47.7686C28.9509 47.6583 28.9005 47.5201 28.8683 47.4087C28.8333 47.2873 28.8063 47.1472 28.7844 46.9993C28.7406 46.703 28.7123 46.3379 28.6912 45.9527C28.6717 45.5962 28.6578 45.2126 28.6443 44.8384C28.6431 44.8068 28.642 44.7752 28.6408 44.7438C28.6261 44.3376 28.6112 43.9465 28.5894 43.6058C28.5704 43.3096 28.4703 42.891 28.3354 42.3271L28.3248 42.2825C28.1888 41.7136 28.0292 41.0344 27.9264 40.2914C27.7206 38.8042 27.7375 37.0302 28.6328 35.2845C29.4832 33.6264 29.9839 32.8952 30.2732 32.5197C30.3372 32.4367 30.39 32.3722 30.4301 32.3233C30.4348 32.3174 30.4394 32.3118 30.4439 32.3064C30.4611 32.2853 30.4738 32.2695 30.4833 32.2576C30.4707 32.1909 30.4249 32.0973 30.34 31.9904C30.2596 31.8893 30.169 31.8075 30.1135 31.7648C29.8697 31.6133 29.423 31.4662 28.907 31.5554C28.3977 31.6434 27.7731 31.9701 27.1863 32.8568C25.9218 34.7673 25.2575 36.2138 25.0902 36.673C25.0143 36.8811 24.7841 36.9884 24.576 36.9125C24.3678 36.8367 24.2606 36.6065 24.3364 36.3983C24.5308 35.8649 25.2283 34.3617 26.5173 32.414C27.2072 31.3716 28.0118 30.896 28.7704 30.7649C29.2093 30.6891 29.6169 30.7314 29.9574 30.8301C29.9148 30.5867 29.8043 30.4094 29.6754 30.2768C29.4486 30.0435 29.1351 29.9216 28.9234 29.8862C28.6823 29.8458 28.0719 29.9266 27.2193 30.5271C26.3795 31.1188 25.3369 32.1947 24.25 34.0604C24.1385 34.2518 23.8929 34.3166 23.7015 34.2051C23.5101 34.0935 23.4453 33.848 23.5569 33.6566C24.6866 31.7174 25.8012 30.5448 26.7574 29.8713C27.5945 29.2816 28.338 29.0571 28.8656 29.0762C28.9099 29.0305 28.9565 28.9688 28.99 28.8939C29.0423 28.7767 29.0689 28.6155 28.9801 28.3974C28.9503 28.3241 28.8503 28.2034 28.6233 28.1093C28.4031 28.018 28.0912 27.9656 27.7055 28.0092ZM29.6814 29.304C29.8457 28.9975 29.9227 28.585 29.7231 28.0949C29.5879 27.7627 29.2859 27.5155 28.9304 27.3682C28.5681 27.218 28.1169 27.1554 27.6154 27.2121C26.6073 27.326 25.386 27.9204 24.1773 29.2938C21.7784 32.0197 21.2087 35.1319 21.396 37.2497C21.4664 38.0464 21.5621 38.7426 21.661 39.463C21.6891 39.6673 21.7174 39.8735 21.7455 40.0845C21.873 41.042 21.9987 42.1172 22.0815 43.6024C22.1072 44.0625 22.1178 44.515 22.1282 44.9631C22.1714 46.8093 22.2128 48.5809 23.3006 50.499C23.8983 51.553 24.8115 51.9128 25.6838 51.9195C26.5293 51.926 27.3356 51.605 27.8257 51.3101L27.8629 51.2877L27.8945 51.2578C28.5471 50.6407 29.1056 49.8586 29.4534 49.161C29.6268 48.8132 29.7565 48.4693 29.8134 48.1652C29.8653 47.8882 29.8792 47.5262 29.6621 47.2607C29.6663 47.2659 29.6683 47.2688 29.6684 47.2687C29.6689 47.2685 29.6565 47.2466 29.6391 47.1861C29.6179 47.1128 29.5972 47.0116 29.578 46.882C29.5398 46.6232 29.513 46.2879 29.4922 45.9088C29.4731 45.5602 29.4595 45.1841 29.4459 44.8081C29.4448 44.777 29.4437 44.7458 29.4425 44.7147C29.4279 44.3102 29.4126 43.908 29.39 43.5544C29.3664 43.1871 29.2515 42.7075 29.1283 42.1932C29.1205 42.1609 29.1128 42.1285 29.105 42.0959C28.969 41.5273 28.8179 40.8819 28.721 40.1815C28.5274 38.782 28.555 37.194 29.3466 35.6506C30.183 34.0197 30.6585 33.334 30.9086 33.0094C30.9651 32.9362 31.0109 32.8802 31.0508 32.8314C31.0556 32.8255 31.0604 32.8198 31.065 32.8141L31.0668 32.8119C31.1049 32.7653 31.1518 32.7079 31.1884 32.6498C31.2324 32.5799 31.2699 32.4969 31.2844 32.3938C31.2973 32.3023 31.2882 32.2181 31.2793 32.1556C31.241 31.8849 31.0968 31.6534 30.968 31.4913C30.903 31.4095 30.8341 31.3356 30.7682 31.2723C30.8303 30.5945 30.601 30.078 30.2505 29.7175C30.0765 29.5386 29.8781 29.4032 29.6814 29.304Z" fill="#111111"/>
<path d="M35.1278 70.0749C35.1278 73.946 31.9897 76.646 28.1186 76.646C24.2475 76.646 21.1094 73.946 21.1094 70.0749C21.1094 68.0349 23.0558 63.5707 24.8973 60.2181C26.5502 57.2088 27.8996 54.7424 28.1186 54.7422C28.3376 54.742 28.7899 55.7979 29.7169 57.3706C31.7856 60.88 35.1278 67.4018 35.1278 70.0749Z" fill="#B4E6FF"/>
<path fill-rule="evenodd" clip-rule="evenodd" d="M28.1186 75.8438C31.6164 75.8438 34.3256 73.4363 34.3256 70.0749C34.3256 69.5404 34.1515 68.7323 33.8119 67.7082C33.4784 66.7028 33.0083 65.5555 32.468 64.3688C31.3877 61.9958 30.0487 59.5133 29.0259 57.778C28.6844 57.1987 28.4007 56.6784 28.1773 56.2687C28.1519 56.2221 28.1272 56.1769 28.1034 56.1332C27.9947 56.3144 27.8736 56.5213 27.741 56.7519C27.2008 57.6905 26.4973 58.9714 25.7146 60.3964C25.6767 60.4654 25.6387 60.5347 25.6004 60.6044C24.6926 62.2571 23.7603 64.1817 23.0575 65.9369C22.3388 67.7319 21.9116 69.2269 21.9116 70.0749C21.9116 73.4363 24.6208 75.8438 28.1186 75.8438ZM28.5979 55.3695C28.3719 54.9692 28.2202 54.7421 28.1186 54.7422C27.9047 54.7424 26.6134 57.0935 25.014 60.0057C24.9753 60.0762 24.9364 60.147 24.8973 60.2181C23.0558 63.5707 21.1094 68.0349 21.1094 70.0749C21.1094 73.946 24.2475 76.646 28.1186 76.646C31.9897 76.646 35.1278 73.946 35.1278 70.0749C35.1278 67.4018 31.7856 60.88 29.7169 57.3706C29.3828 56.8039 29.1104 56.3042 28.8883 55.8969C28.7803 55.6987 28.6842 55.5224 28.5987 55.3709C28.5984 55.3705 28.5982 55.37 28.5979 55.3695Z" fill="#111111"/>
<path fill-rule="evenodd" clip-rule="evenodd" d="M38.8631 32.4438C39.0819 32.6938 39.0565 33.0739 38.8065 33.2928C37.3159 34.597 35.9989 34.7576 35.3393 34.4938C35.0308 34.3704 34.8807 34.0202 35.0041 33.7117C35.1275 33.4032 35.4777 33.2531 35.7862 33.3765C35.786 33.3764 35.786 33.3764 35.7862 33.3765C35.7878 33.3771 35.802 33.382 35.8311 33.3868C35.8628 33.3921 35.9073 33.3965 35.9646 33.3965C36.0792 33.3965 36.2372 33.3789 36.4341 33.3233C36.8266 33.2124 37.3697 32.9509 38.0141 32.3872C38.2641 32.1683 38.6442 32.1937 38.8631 32.4438Z" fill="#111111"/>
<path d="M35.2219 45.9333C34.2879 49.4852 38.7635 47.6664 41.1181 46.3131C43.5158 45.268 45.0839 47.4606 45.8211 48.7201C46.9227 50.6022 45.4502 52.4966 44.6428 52.8945C39.5304 55.4137 35.7722 58.4502 31.6265 53.2187C29.9035 51.0444 27.6593 43.7289 27.5412 42.909C27.4146 42.0295 27.1663 39.4633 27.3402 36.9705C27.519 34.406 29.2962 30.2841 30.6703 29.8846C31.5804 29.62 31.9939 30.3352 32.0572 30.9095C32.809 30.537 33.3087 31.5605 33.4771 32.2126C33.9799 32.2814 34.1615 32.9566 34.442 33.1639C36.2313 33.5581 35.909 36.2776 35.3177 37.8845C37.8962 37.6275 36.3895 41.4934 35.2219 45.9333Z" fill="#FDFBEF"/>
<path fill-rule="evenodd" clip-rule="evenodd" d="M32.3389 30.4276C32.4572 30.4257 32.5737 30.4447 32.6865 30.4837C32.9353 30.5699 33.1305 30.7413 33.278 30.92C33.5129 31.2047 33.6795 31.5723 33.7835 31.8903C34.0574 32.0123 34.237 32.2386 34.3534 32.4037C34.3938 32.461 34.4314 32.5183 34.4646 32.5694C34.4686 32.5754 34.4724 32.5813 34.4762 32.5871C34.5058 32.6325 34.5313 32.6717 34.5567 32.7086C34.5847 32.7494 34.6067 32.7783 34.6235 32.7985C35.1224 32.9365 35.4901 33.2331 35.7385 33.6259C35.998 34.0362 36.1178 34.5347 36.1552 35.0382C36.2152 35.8442 36.0694 36.738 35.8501 37.4928C35.9903 37.5143 36.1228 37.5514 36.2465 37.606C36.5406 37.7359 36.7542 37.9518 36.8942 38.2246C37.1582 38.7389 37.156 39.4467 37.0548 40.1995C36.9088 41.2848 36.5191 42.6799 36.0995 44.1819C35.9307 44.7863 35.7571 45.408 35.5925 46.0338C35.3701 46.8796 35.516 47.2366 35.6765 47.3886C35.8603 47.5627 36.2392 47.6506 36.8643 47.5638C38.0812 47.395 39.7333 46.6349 40.9008 45.9638L40.9201 45.9527L40.9404 45.9439C42.2951 45.3535 43.4367 45.6853 44.3122 46.3274C45.165 46.953 45.7752 47.8758 46.1499 48.516C46.7797 49.592 46.6683 50.6753 46.298 51.5229C45.937 52.3495 45.3081 53.0037 44.8027 53.2528C44.1686 53.5652 43.5549 53.886 42.9542 54.2002L42.9316 54.212C42.3404 54.5213 41.7608 54.8244 41.1944 55.1022C40.0501 55.6635 38.934 56.1344 37.8336 56.3549C36.7248 56.577 35.6245 56.5465 34.5223 56.0995C33.4248 55.6546 32.3603 54.8109 31.2948 53.4663C30.8319 52.8822 30.3521 51.9795 29.8951 50.9697C29.4347 49.9522 28.9849 48.7976 28.5872 47.69C28.1892 46.5818 27.8417 45.5163 27.586 44.6752C27.3349 43.8494 27.1617 43.2063 27.1269 42.9646C26.9975 42.0661 26.7463 39.4703 26.9227 36.9411C27.0164 35.5973 27.523 33.878 28.1747 32.4479C28.5015 31.7306 28.872 31.0703 29.2574 30.5573C29.6297 30.0616 30.0652 29.6363 30.541 29.498C31.125 29.3282 31.6075 29.4686 31.9427 29.7926C32.1309 29.9744 32.2587 30.2001 32.3389 30.4276ZM34.9931 37.5469C35.2402 36.8062 35.4135 35.8819 35.3552 35.0977C35.3235 34.6711 35.2253 34.3154 35.0605 34.0547C34.9029 33.8054 34.6764 33.6285 34.3384 33.5541C34.3383 33.5541 34.3382 33.554 34.3381 33.554C34.3354 33.5532 34.3153 33.5474 34.2603 33.5824C34.1957 33.6235 34.1085 33.7065 34.005 33.8509C33.7983 34.1395 33.5874 34.586 33.3863 35.1346C32.9871 36.2241 32.6639 37.6106 32.4822 38.6521C32.4441 38.8703 32.2363 39.0163 32.0181 38.9783C31.7999 38.9402 31.6538 38.7324 31.6919 38.5142C31.8784 37.445 32.2118 36.0083 32.6331 34.8586C32.8424 34.2876 33.0828 33.7606 33.3529 33.3837C33.4606 33.2334 33.5963 33.0756 33.7583 32.9551C33.7378 32.9241 33.7179 32.8945 33.6977 32.8659C33.5619 32.6733 33.4769 32.6183 33.4053 32.6085C33.1768 32.5772 33.0836 32.6051 33.0048 32.6538C32.8937 32.7223 32.7612 32.8639 32.5228 33.1866C32.1219 33.7291 31.7789 34.5843 31.4963 35.4978C31.226 36.3719 31.0233 37.2567 30.8776 37.8929C30.8728 37.9142 30.8679 37.9353 30.8632 37.956C30.8137 38.172 30.5985 38.3069 30.3826 38.2574C30.1667 38.2079 30.0317 37.9928 30.0812 37.7768C30.0864 37.7543 30.0916 37.7314 30.097 37.708C30.2421 37.0744 30.4505 36.1642 30.7299 35.2607C31.0166 34.334 31.3914 33.3679 31.8776 32.7099C32.1085 32.3974 32.3232 32.1317 32.5834 31.9711C32.6879 31.9066 32.7937 31.8622 32.9019 31.8339C32.833 31.6835 32.7509 31.5418 32.6592 31.4306C32.5667 31.3185 32.4854 31.2631 32.4239 31.2418C32.3762 31.2253 32.3153 31.2192 32.2179 31.2674C31.6983 31.525 31.1385 32.1702 30.6426 33.2489C30.1525 34.3147 29.7492 35.7515 29.508 37.5065C29.4778 37.726 29.2755 37.8795 29.056 37.8493C28.8365 37.8191 28.6831 37.6168 28.7132 37.3973C28.962 35.587 29.3822 34.0696 29.9137 32.9137C30.3751 31.9102 30.94 31.1372 31.587 30.7076C31.5417 30.5743 31.4727 30.454 31.3852 30.3694C31.2703 30.2584 31.091 30.1735 30.7649 30.2683C30.5536 30.3297 30.2517 30.5694 29.8988 31.0391C29.5589 31.4914 29.2162 32.0968 28.9047 32.7805C28.2796 34.1523 27.8081 35.7762 27.723 36.9969C27.5517 39.4534 27.7969 41.9897 27.9209 42.8503C27.9451 43.0186 28.0967 43.5975 28.3535 44.4418C28.6056 45.271 28.949 46.3239 29.3422 47.4189C29.7356 48.5145 30.1774 49.6476 30.626 50.6389C31.0781 51.6379 31.525 52.4651 31.9236 52.9681C32.9309 54.2392 33.8908 54.9778 34.8237 55.3561C35.7519 55.7325 36.6879 55.7662 37.676 55.5683C38.6723 55.3687 39.7134 54.9351 40.8412 54.382C41.3981 54.1088 41.9699 53.8097 42.5647 53.4986L42.5824 53.4893C43.182 53.1757 43.8041 52.8505 44.4481 52.5332C44.7501 52.3843 45.2612 51.8924 45.5629 51.2018C45.8553 50.5323 45.9293 49.7273 45.4576 48.9212C45.0951 48.3019 44.5526 47.4987 43.8377 46.9743C43.1497 46.4697 42.3147 46.2277 41.2807 46.6708C40.0939 47.3508 38.3429 48.1686 36.9745 48.3584C36.3032 48.4516 35.5911 48.4127 35.1249 47.9711C34.6353 47.5074 34.5721 46.7599 34.8167 45.8298C34.992 45.1631 35.1724 44.5171 35.3448 43.9001C35.7564 42.4268 36.1216 41.1194 36.2597 40.0926C36.3588 39.3561 36.3228 38.8681 36.1805 38.591C36.1175 38.4681 36.0349 38.3895 35.9224 38.3398C35.8018 38.2866 35.6181 38.2544 35.3401 38.2821C35.2476 38.2913 35.0906 38.3759 34.888 38.6776C34.6953 38.9646 34.5149 39.3694 34.3491 39.8388C34.09 40.5722 33.8887 41.3954 33.727 42.0564C33.6816 42.2422 33.6392 42.4151 33.5997 42.5697C33.5447 42.7843 33.3262 42.9137 33.1116 42.8588C32.897 42.8038 32.7676 42.5853 32.8225 42.3707C32.8585 42.2302 32.8982 42.0678 32.9417 41.8898C33.1036 41.2271 33.3186 40.3475 33.5927 39.5716C33.7668 39.0789 33.9737 38.6002 34.222 38.2304C34.4118 37.9478 34.6646 37.6711 34.9931 37.5469Z" fill="#111111"/>
<path d="M27.2595 66.5681C27.2595 67.294 26.9653 67.8824 26.6024 67.8824C26.2395 67.8824 25.9453 67.294 25.9453 66.5681C25.9453 65.8423 26.2395 65.2539 26.6024 65.2539C26.9653 65.2539 27.2595 65.8423 27.2595 66.5681Z" fill="#111111"/>
<path d="M30.3142 66.5681C30.3142 67.294 30.02 67.8824 29.6571 67.8824C29.2942 67.8824 29 67.294 29 66.5681C29 65.8423 29.2942 65.2539 29.6571 65.2539C30.02 65.2539 30.3142 65.8423 30.3142 66.5681Z" fill="#111111"/>
<path d="M25.0703 71.1688C25.0703 70.8059 25.3645 70.5117 25.7274 70.5117H30.5463C30.9092 70.5117 31.2034 70.8059 31.2034 71.1688C31.2034 71.5317 30.9092 71.8259 30.5463 71.8259H25.7274C25.3645 71.8259 25.0703 71.5317 25.0703 71.1688Z" fill="#111111"/>
</svg>
