<svg width="139" height="145" viewBox="0 0 139 145" fill="none" xmlns="http://www.w3.org/2000/svg">
<path d="M103.194 136.835C102.645 135.702 102.897 123.765 102.483 116.515L101.843 107.925L109.148 110.084C109.159 116.765 109.281 127.542 109.679 133.776C110.078 140.009 109.809 141.615 109.625 141.639C107.739 144.29 101.54 142.464 99.6522 142.149C97.5938 141.806 89.8417 140.717 92.2782 137.178C94.1661 134.435 103.88 138.252 103.194 136.835Z" fill="#FFEB34"/>
<path fill-rule="evenodd" clip-rule="evenodd" d="M101.362 107.329L109.579 109.759L109.579 110.082C109.59 116.764 109.712 127.528 110.11 133.747C110.31 136.87 110.343 138.845 110.302 140.049C110.282 140.649 110.242 141.071 110.192 141.352C110.168 141.489 110.137 141.614 110.095 141.715C110.075 141.764 110.043 141.829 109.993 141.889C109.977 141.908 109.955 141.933 109.926 141.957C109.371 142.694 108.539 143.099 107.629 143.303C106.693 143.513 105.633 143.521 104.602 143.437C103.131 143.317 101.626 142.998 100.571 142.774C100.164 142.688 99.8236 142.616 99.5788 142.575C99.4928 142.561 99.3958 142.545 99.2893 142.528C98.145 142.342 95.8951 141.976 94.1163 141.263C93.1538 140.877 92.246 140.359 91.7537 139.644C91.4994 139.274 91.3537 138.848 91.3759 138.372C91.3978 137.901 91.5819 137.42 91.919 136.93C92.5167 136.062 93.6726 135.783 94.856 135.732C96.0696 135.68 97.4772 135.862 98.7711 136.08C99.3488 136.178 99.896 136.28 100.399 136.375C101.049 136.496 101.626 136.605 102.1 136.67C102.358 136.705 102.557 136.723 102.703 136.726C102.691 136.678 102.681 136.628 102.671 136.578C102.64 136.411 102.613 136.208 102.589 135.977C102.541 135.515 102.504 134.918 102.474 134.219C102.414 132.82 102.381 130.989 102.352 128.973C102.345 128.452 102.338 127.919 102.331 127.377C102.282 123.721 102.228 119.688 102.048 116.542L101.362 107.329ZM102.949 136.709C102.949 136.709 102.947 136.71 102.941 136.711C102.946 136.709 102.949 136.709 102.949 136.709ZM102.32 108.517L102.914 116.485L102.914 116.488C103.095 119.656 103.149 123.713 103.198 127.367C103.205 127.909 103.212 128.441 103.219 128.961C103.248 130.978 103.281 132.797 103.34 134.181C103.37 134.874 103.406 135.452 103.452 135.888C103.474 136.106 103.498 136.283 103.524 136.418C103.551 136.563 103.574 136.628 103.582 136.645C103.654 136.793 103.722 137.045 103.563 137.282C103.426 137.486 103.203 137.546 103.074 137.569C102.793 137.62 102.398 137.586 101.982 137.529C101.497 137.462 100.878 137.346 100.202 137.22C99.6979 137.126 99.1625 137.025 98.6271 136.935C97.3424 136.719 96.0104 136.55 94.8931 136.598C93.7457 136.647 92.9794 136.919 92.6332 137.422C92.3611 137.817 92.2545 138.144 92.242 138.412C92.2298 138.675 92.3061 138.917 92.4681 139.152C92.8083 139.647 93.5104 140.086 94.4387 140.458C96.1217 141.132 98.2755 141.484 99.4304 141.672C99.5361 141.689 99.6335 141.705 99.7213 141.72C100.019 141.77 100.399 141.85 100.836 141.943C101.881 142.165 103.26 142.458 104.672 142.572C105.662 142.653 106.624 142.64 107.439 142.457C108.254 142.274 108.882 141.932 109.27 141.386L109.311 141.328C109.319 141.299 109.328 141.257 109.339 141.199C109.378 140.978 109.416 140.604 109.436 140.02C109.475 138.857 109.444 136.913 109.245 133.802C108.851 127.653 108.727 117.107 108.713 110.407L102.32 108.517Z" fill="#111111"/>
<path d="M98.241 46.0398C93.0173 48.5308 94.0001 62.9181 95.1444 69.8003C95.4688 72.009 93.8239 72.7026 87.1906 79.5152C81.8839 84.9653 86.0075 89.5098 88.7327 91.1008C84.5474 93.1415 76.8345 98.6968 79.4655 104.592C82.0965 110.487 88.5899 110.276 91.5077 109.433C91.354 109.816 92.2314 111.559 96.9706 115.473C101.71 119.387 107.671 115.283 110.059 112.742C125.305 122.028 127.206 112.957 126.251 107.261C129.237 107.864 135.151 106.945 134.919 98.4482C134.686 89.9513 123.514 82.6753 117.956 80.0993C131.577 80.759 119.547 69.2608 113.763 65.0395C107.979 60.8181 104.771 42.9261 98.241 46.0398Z" fill="#00BC68"/>
<path fill-rule="evenodd" clip-rule="evenodd" d="M100.428 46.2068C99.8127 46.0371 99.1552 46.0829 98.4257 46.4308C97.2738 46.9801 96.4095 48.2145 95.8003 49.9768C95.1942 51.7298 94.8666 53.932 94.7356 56.297C94.4736 61.0241 95.0013 66.3081 95.5701 69.7289L95.5714 69.737C95.6621 70.3546 95.6169 70.8968 95.3661 71.4664C95.1239 72.0165 94.7008 72.5662 94.0934 73.2249C93.5231 73.8433 92.7618 74.5871 91.7836 75.543C91.7163 75.6088 91.6479 75.6756 91.5785 75.7435C90.4972 76.8003 89.1537 78.1181 87.4992 79.8173C86.2129 81.1384 85.5213 82.3804 85.2271 83.5099C84.9337 84.6365 85.0286 85.677 85.3567 86.6112C86.0194 88.4976 87.6401 89.9618 88.9493 90.7261C89.0874 90.8067 89.1699 90.9568 89.1639 91.1167C89.158 91.2765 89.0645 91.42 88.9207 91.4901C86.8605 92.4947 83.9381 94.3633 81.8646 96.6891C79.7848 99.022 78.6483 101.701 79.8594 104.415C81.1112 107.22 83.2704 108.566 85.4822 109.118C87.7109 109.675 89.9847 109.421 91.3855 109.017C91.5447 108.971 91.7162 109.019 91.8274 109.142C91.9265 109.252 91.9621 109.404 91.9247 109.544C91.9253 109.548 91.926 109.552 91.9269 109.556C91.936 109.601 91.9608 109.68 92.0182 109.799C92.1328 110.036 92.3538 110.382 92.7384 110.855C93.506 111.797 94.8864 113.191 97.2447 115.138C99.4611 116.969 101.962 116.94 104.248 116.12C106.548 115.294 108.58 113.68 109.741 112.444C109.882 112.295 110.107 112.264 110.283 112.371C114.07 114.678 116.992 115.821 119.221 116.175C121.441 116.528 122.945 116.095 123.957 115.282C124.979 114.459 125.569 113.193 125.84 111.746C126.111 110.302 126.054 108.72 125.822 107.333C125.798 107.192 125.845 107.049 125.948 106.949C126.05 106.85 126.195 106.808 126.335 106.836C127.752 107.122 129.85 107.04 131.549 105.906C133.218 104.792 134.596 102.599 134.483 98.4597C134.372 94.3924 131.632 90.5536 128.141 87.3736C124.663 84.206 120.519 81.7657 117.772 80.4923C117.584 80.4051 117.484 80.1968 117.533 79.9955C117.583 79.7941 117.768 79.656 117.975 79.666C119.654 79.7473 120.906 79.6391 121.809 79.3959C122.712 79.1527 123.227 78.786 123.498 78.3782C123.765 77.9753 123.84 77.4616 123.713 76.821C123.585 76.1751 123.258 75.4328 122.765 74.6255C120.782 71.3801 116.385 67.4909 113.506 65.3893C111.975 64.2723 110.652 62.2854 109.434 60.0598C108.675 58.6729 107.936 57.1518 107.207 55.6514C106.766 54.7435 106.329 53.8433 105.893 52.985C104.721 50.6769 103.554 48.6589 102.3 47.408C101.676 46.7866 101.056 46.3796 100.428 46.2068ZM91.923 109.528C91.923 109.528 91.9231 109.529 91.9231 109.531C91.9229 109.529 91.9229 109.528 91.923 109.528ZM110.194 59.6436C111.409 61.8627 112.655 63.6953 114.017 64.689C116.921 66.8088 121.431 70.7794 123.505 74.1735C124.025 75.026 124.408 75.8674 124.564 76.6529C124.72 77.4437 124.65 78.2093 124.22 78.8575C123.793 79.5009 123.059 79.9572 122.035 80.2331C121.419 80.3991 120.684 80.5039 119.819 80.5427C122.479 81.949 125.823 84.0902 128.724 86.7326C132.267 89.9589 135.229 94.0065 135.35 98.436C135.469 102.794 134.007 105.308 132.03 106.627C130.319 107.769 128.294 107.966 126.764 107.782C126.932 109.096 126.947 110.546 126.692 111.906C126.399 113.472 125.74 114.96 124.5 115.957C123.251 116.962 121.48 117.412 119.085 117.032C116.762 116.663 113.824 115.51 110.129 113.291C108.873 114.557 106.847 116.108 104.541 116.936C102.065 117.824 99.2153 117.89 96.6926 115.807C94.3116 113.84 92.8838 112.406 92.0662 111.402C91.6583 110.901 91.3926 110.496 91.2378 110.176C91.2042 110.107 91.1748 110.04 91.1499 109.974C89.6282 110.333 87.4393 110.501 85.272 109.959C82.85 109.354 80.4469 107.858 79.0677 104.768C77.6478 101.587 79.0522 98.5409 81.2174 96.1122C83.1666 93.9258 85.8049 92.1474 87.8615 91.0567C86.5845 90.1608 85.1808 88.7264 84.5387 86.8985C84.1586 85.8164 84.0473 84.5995 84.3881 83.2914C84.728 81.9863 85.5109 80.6165 86.878 79.2125C88.5401 77.5054 89.8897 76.1817 90.9724 75.1235C91.0387 75.0587 91.1039 74.9949 91.1681 74.9322C92.1564 73.9665 92.9017 73.2381 93.456 72.6371C94.0484 71.9947 94.3903 71.5311 94.5726 71.1171C94.7458 70.7236 94.7848 70.3518 94.7141 69.867C94.1388 66.4055 93.6035 61.057 93.8699 56.2491C94.0031 53.8456 94.3377 51.5538 94.9808 49.6935C95.6207 47.8426 96.5925 46.3445 98.0525 45.6482C98.9553 45.2177 99.8265 45.1416 100.659 45.3709C101.479 45.597 102.226 46.1099 102.912 46.794C104.276 48.1541 105.497 50.289 106.666 52.5924C107.118 53.4816 107.561 54.3945 108.004 55.3066C108.724 56.7893 109.442 58.27 110.194 59.6436Z" fill="#111111"/>
<path d="M116.384 136.863C115.748 135.806 115.25 126.121 113.873 117.548C113.279 113.846 112.01 109.884 112.501 108.129C112.993 106.374 119.053 106.57 119.997 109.323C120.942 112.076 121.729 127.926 122.591 134.085C123.452 140.243 122.698 140.889 122.698 140.889C120.999 143.777 115.357 143.867 113.437 143.83C111.173 143.786 103.357 144.237 105.215 140.237C107.072 136.237 117.178 138.185 116.384 136.863Z" fill="#FFEB34"/>
<path fill-rule="evenodd" clip-rule="evenodd" d="M118.72 107.342C119.483 107.749 120.13 108.343 120.411 109.16C120.665 109.901 120.895 111.458 121.113 113.414C121.334 115.39 121.549 117.827 121.76 120.365C121.833 121.244 121.906 122.135 121.978 123.022C122.326 127.275 122.668 131.465 123.023 134C123.455 137.092 123.487 138.83 123.402 139.808C123.359 140.298 123.286 140.613 123.211 140.819C123.173 140.923 123.133 141.004 123.092 141.067C123.078 141.089 123.063 141.11 123.049 141.128C122.082 142.733 120.081 143.501 118.216 143.881C116.305 144.269 114.377 144.282 113.407 144.263C113.196 144.259 112.93 144.259 112.622 144.26C111.337 144.262 109.333 144.266 107.677 143.942C106.657 143.742 105.678 143.403 105.082 142.79C104.774 142.474 104.566 142.082 104.514 141.608C104.463 141.139 104.569 140.626 104.826 140.072C105.369 138.902 106.495 138.214 107.742 137.797C108.994 137.377 110.453 137.202 111.792 137.112C112.464 137.067 113.115 137.043 113.701 137.023L113.774 137.02C114.334 137 114.825 136.983 115.229 136.952C115.53 136.929 115.752 136.901 115.904 136.868C115.835 136.68 115.779 136.444 115.728 136.19C115.648 135.793 115.569 135.284 115.49 134.685C115.331 133.487 115.166 131.903 114.978 130.093L114.957 129.888C114.584 126.295 114.121 121.833 113.448 117.64C113.256 116.447 112.997 115.238 112.746 114.073C112.61 113.438 112.476 112.815 112.357 112.215C112.191 111.374 112.057 110.581 111.996 109.882C111.935 109.191 111.942 108.551 112.087 108.034C112.279 107.348 112.969 106.965 113.654 106.77C114.373 106.566 115.264 106.512 116.15 106.603C117.039 106.694 117.955 106.934 118.72 107.342ZM116.103 136.806C116.104 136.806 116.102 136.807 116.098 136.809C116.101 136.807 116.103 136.806 116.103 136.806ZM113.846 107.604C113.226 107.78 112.974 108.031 112.921 108.223C112.82 108.583 112.801 109.096 112.859 109.758C112.916 110.411 113.044 111.168 113.208 112C113.321 112.572 113.452 113.181 113.587 113.81C113.84 114.991 114.109 116.243 114.304 117.455C114.981 121.672 115.446 126.154 115.818 129.742L115.84 129.955C116.028 131.769 116.193 133.34 116.349 134.523C116.428 135.115 116.503 135.603 116.577 135.972C116.656 136.363 116.723 136.561 116.761 136.624C116.851 136.773 116.924 137.007 116.794 137.257C116.683 137.47 116.482 137.573 116.35 137.625C116.074 137.735 115.672 137.785 115.245 137.817C114.823 137.849 114.315 137.867 113.765 137.887L113.682 137.89C113.095 137.91 112.457 137.934 111.8 137.978C110.48 138.066 109.114 138.236 107.974 138.618C106.828 139.001 105.994 139.57 105.609 140.4C105.401 140.846 105.346 141.194 105.375 141.466C105.404 141.733 105.519 141.962 105.719 142.167C106.137 142.596 106.905 142.897 107.89 143.09C109.453 143.396 111.332 143.394 112.624 143.392C112.949 143.391 113.237 143.391 113.473 143.395C114.423 143.414 116.276 143.4 118.091 143.031C119.937 142.655 121.59 141.943 122.33 140.684L122.37 140.616L122.381 140.607C122.386 140.596 122.392 140.582 122.399 140.563C122.438 140.455 122.5 140.224 122.538 139.782C122.615 138.898 122.593 137.234 122.164 134.168C121.806 131.607 121.461 127.383 121.114 123.131C121.041 122.246 120.969 121.359 120.896 120.486C120.685 117.948 120.471 115.522 120.252 113.559C120.031 111.576 119.808 110.12 119.589 109.484C119.397 108.924 118.933 108.462 118.279 108.113C117.627 107.765 116.819 107.549 116.014 107.466C115.206 107.383 114.431 107.437 113.846 107.604Z" fill="#111111"/>
<path d="M90.177 87.8686C91.1539 89.5913 93.0866 89.0058 93.9307 88.4977C95.0977 87.3941 95.9387 85.6851 95.5694 85.2334C95.2861 84.887 95.3113 82.8258 95.2271 81.5125C95.1428 80.1992 93.6318 76.951 95.2271 73.8406C96.8223 70.7301 97.0734 71.1609 97.0168 70.7617C96.9716 70.4423 96.6571 70.1384 96.5055 70.0264C96.734 68.7656 95.7484 68.2756 95.2271 68.1882C95.4453 68.0516 95.8191 67.6249 95.5694 67.0114C95.2571 66.2445 93.1529 65.7619 90.9609 68.2527C88.7688 70.7435 88.2546 73.5804 88.4237 75.4925C88.5928 77.4047 88.9147 78.6783 89.0729 81.5125C89.2012 83.8125 88.9557 85.7152 90.177 87.8686Z" fill="#FDFBEF"/>
<path fill-rule="evenodd" clip-rule="evenodd" d="M94.0161 66.8419C93.3075 66.922 92.3259 67.3556 91.2837 68.5399C89.1792 70.9311 88.6929 73.6466 88.8529 75.4551C88.9176 76.1871 89.0046 76.821 89.0977 77.4987C89.1246 77.6944 89.152 77.8938 89.1795 78.1003C89.3018 79.0192 89.4232 80.0577 89.5031 81.4891C89.5303 81.9767 89.5418 82.4376 89.5529 82.8798C89.596 84.5984 89.6321 86.0343 90.5514 87.6555C90.9522 88.3621 91.524 88.5825 92.1043 88.5869C92.6926 88.5914 93.2872 88.3688 93.6649 88.1504C94.1952 87.64 94.6534 86.9943 94.9356 86.4284C95.0802 86.1383 95.1694 85.8874 95.2045 85.6997C95.2309 85.559 95.2188 85.5015 95.217 85.4907C95.1336 85.3812 95.087 85.2506 95.0576 85.1489C95.0236 85.0309 94.9976 84.8958 94.9767 84.7547C94.9349 84.4719 94.9081 84.1247 94.8881 83.76C94.8696 83.4223 94.8564 83.0591 94.8436 82.7053C94.8426 82.6754 94.8415 82.6455 94.8404 82.6157C94.8265 82.2315 94.8124 81.8624 94.7918 81.541C94.7742 81.2656 94.6804 80.8735 94.5517 80.3355L94.5429 80.2987C94.4143 79.7608 94.2628 79.1162 94.1652 78.4107C93.9698 76.9982 93.985 75.3081 94.8387 73.6435C95.6439 72.0736 96.1191 71.3791 96.3954 71.0206C96.4564 70.9414 96.5068 70.8797 96.5447 70.8335C96.5492 70.828 96.5535 70.8227 96.5577 70.8176C96.5653 70.8083 96.572 70.8 96.578 70.7927C96.5629 70.7423 96.526 70.6711 96.459 70.5868C96.3869 70.4961 96.3057 70.4226 96.2563 70.3843C96.0352 70.2478 95.6273 70.1135 95.1555 70.1951C94.6907 70.2754 94.1122 70.5743 93.5642 71.4023C92.3701 73.2065 91.744 74.5707 91.5876 74.9999C91.5057 75.2248 91.2568 75.3407 91.0319 75.2588C90.8069 75.1768 90.691 74.928 90.773 74.703C90.9587 74.1935 91.6205 72.7681 92.8412 70.9237C93.5006 69.9274 94.2736 69.4676 95.0078 69.3407C95.3948 69.2738 95.7568 69.302 96.0677 69.3802C96.0209 69.204 95.933 69.072 95.8341 68.9702C95.6293 68.7597 95.3444 68.6486 95.1528 68.6165C94.9444 68.5816 94.3816 68.6499 93.5815 69.2136C92.7951 69.7675 91.814 70.7785 90.789 72.5379C90.6685 72.7448 90.4031 72.8148 90.1962 72.6942C89.9894 72.5737 89.9194 72.3083 90.0399 72.1014C91.1111 70.2627 92.1701 69.1472 93.0822 68.5047C93.8662 67.9525 94.5709 67.7314 95.0842 67.7422C95.117 67.7054 95.1504 67.6582 95.1752 67.6026C95.219 67.5046 95.2434 67.3675 95.1652 67.1756C95.1441 67.1238 95.0632 67.0182 94.8572 66.9328C94.6586 66.8505 94.373 66.8016 94.0161 66.8419ZM95.9513 67.9893C96.0956 67.6931 96.154 67.305 95.9682 66.8486C95.8332 66.517 95.534 66.2747 95.1892 66.1318C94.8369 65.9858 94.4008 65.9259 93.9187 65.9804C92.9491 66.09 91.7825 66.6606 90.6328 67.9671C88.3532 70.5574 87.8109 73.5158 87.9892 75.5315C88.056 76.2863 88.1466 76.9464 88.2402 77.6278C88.2668 77.8208 88.2935 78.0156 88.32 78.2147C88.4405 79.1192 88.5591 80.1346 88.6374 81.5374C88.6615 81.9692 88.6714 82.3949 88.6812 82.8174C88.7218 84.5648 88.7612 86.2563 89.7972 88.0832C90.3735 89.0992 91.2564 89.4475 92.0977 89.4539C92.9099 89.4602 93.6823 89.1524 94.1516 88.8698L94.1919 88.8456L94.226 88.8134C94.8479 88.2252 95.3798 87.4804 95.7115 86.8153C95.8768 86.4837 96.0016 86.1536 96.0567 85.8594C96.1055 85.5987 96.1232 85.2424 95.9131 84.9732C95.9104 84.967 95.9019 84.9476 95.8906 84.9084C95.8715 84.8423 95.8524 84.7493 95.8344 84.6279C95.7986 84.3858 95.7734 84.0707 95.7538 83.7126C95.7358 83.3833 95.7229 83.0281 95.7101 82.6724C95.709 82.6431 95.7079 82.6137 95.7069 82.5843C95.693 82.2018 95.6786 81.8208 95.6571 81.4855C95.6345 81.1333 95.5247 80.6754 95.4088 80.1914C95.4013 80.16 95.3937 80.1286 95.3862 80.0971C95.2576 79.5594 95.1153 78.9513 95.024 78.2918C94.8417 76.9742 94.8686 75.4851 95.6102 74.0392C96.4003 72.4987 96.8482 71.8533 97.0821 71.5498C97.135 71.4812 97.1779 71.4288 97.2156 71.3827C97.2201 71.3771 97.2246 71.3717 97.229 71.3663L97.2315 71.3633C97.267 71.3198 97.3132 71.2633 97.3496 71.2055C97.3942 71.1345 97.4332 71.0489 97.4482 70.9421C97.4615 70.8478 97.4519 70.762 97.4434 70.7016C97.4052 70.432 97.2622 70.2039 97.1378 70.0473C97.0808 69.9757 97.0208 69.9103 96.9625 69.853C97.0146 69.2089 96.7937 68.7135 96.4556 68.3658C96.3008 68.2065 96.1262 68.0829 95.9513 67.9893Z" fill="black"/>
<path d="M101.038 106.57C101.038 110.231 98.0706 112.785 94.4098 112.785C90.749 112.785 87.7812 110.231 87.7812 106.57C87.7812 104.641 89.622 100.419 91.3634 97.2489C92.9266 94.4029 94.2027 92.0705 94.4098 92.0703C94.6169 92.0701 95.0446 93.0687 95.9213 94.556C97.8776 97.8748 101.038 104.042 101.038 106.57Z" fill="#79DFFF"/>
<path fill-rule="evenodd" clip-rule="evenodd" d="M94.4098 111.917C97.6671 111.917 100.171 109.68 100.171 106.57C100.171 106.083 100.011 105.332 99.691 104.366C99.3773 103.42 98.9344 102.339 98.4243 101.219C97.4045 98.979 96.1402 96.6347 95.1744 94.9963C94.8616 94.4657 94.5993 93.986 94.3913 93.6046C94.3153 93.7333 94.2337 93.8736 94.1466 94.0249C93.6363 94.9116 92.9715 96.122 92.231 97.4702C92.1953 97.5353 92.1594 97.6006 92.1234 97.6663C91.2666 99.226 90.3869 101.042 89.7242 102.697C89.0442 104.395 88.6483 105.792 88.6483 106.57C88.6483 109.68 91.1524 111.917 94.4098 111.917ZM93.8978 92.7441C93.3643 93.6058 92.484 95.2085 91.4738 97.0479C91.4372 97.1146 91.4004 97.1816 91.3634 97.2489C89.622 100.419 87.7812 104.641 87.7812 106.57C87.7812 110.231 90.749 112.785 94.4098 112.785C98.0706 112.785 101.038 110.231 101.038 106.57C101.038 104.042 97.8776 97.8748 95.9213 94.556C95.6054 94.02 95.3477 93.5475 95.1377 93.1623C95.0591 93.018 94.9871 92.886 94.9212 92.7674C94.9199 92.7651 94.9185 92.7627 94.9172 92.7603C94.6733 92.3217 94.5138 92.0702 94.4098 92.0703C94.3427 92.0704 94.1636 92.3149 93.8989 92.7423C93.8986 92.7429 93.8982 92.7435 93.8978 92.7441Z" fill="black"/>
<path fill-rule="evenodd" clip-rule="evenodd" d="M104.63 70.9291C104.866 71.1994 104.839 71.6102 104.568 71.8467C103.147 73.0905 101.869 73.2622 101.206 72.9968C100.872 72.8634 100.71 72.485 100.844 72.1515C100.977 71.8181 101.355 71.6559 101.689 71.7893C101.689 71.7892 101.689 71.7893 101.689 71.7894C101.7 71.7922 101.886 71.8387 102.249 71.7362C102.607 71.6351 103.11 71.3944 103.712 70.8679C103.982 70.6314 104.393 70.6588 104.63 70.9291Z" fill="black"/>
<path d="M101.108 83.7426C100.225 87.1015 104.457 85.3816 106.684 84.1018C108.951 83.1135 110.434 85.1869 111.132 86.3781C112.173 88.1579 110.781 89.9494 110.017 90.3257C105.182 92.7081 101.628 95.5797 97.7079 90.6323C96.0785 88.5761 93.9562 81.658 93.8445 80.8825C93.7247 80.0508 93.49 77.624 93.6544 75.2666C93.8235 72.8414 95.5042 68.9433 96.8036 68.5656C97.6643 68.3153 98.0553 68.9917 98.1152 69.5348C98.8262 69.1825 99.2987 70.1504 99.4579 70.7671C99.9334 70.8322 100.105 71.4706 100.37 71.6667C102.063 72.0395 101.758 74.6113 101.199 76.1309C103.637 75.8879 102.212 79.5439 101.108 83.7426Z" fill="#FDFBEF"/>
<path fill-rule="evenodd" clip-rule="evenodd" d="M98.4332 69.0273C98.5379 69.0296 98.6413 69.0484 98.7417 69.0832C98.9897 69.1691 99.182 69.339 99.3251 69.5125C99.5472 69.7817 99.7052 70.1253 99.8055 70.4252C100.066 70.549 100.237 70.7659 100.345 70.9188C100.383 70.9739 100.419 71.0289 100.451 71.0771C100.455 71.0828 100.458 71.0884 100.462 71.0939C100.49 71.1369 100.514 71.1734 100.537 71.2077C100.557 71.2357 100.573 71.258 100.587 71.276C101.064 71.4121 101.417 71.699 101.656 72.0769C101.908 72.4751 102.023 72.9561 102.058 73.4375C102.114 74.1869 101.984 75.0136 101.784 75.7196C101.899 75.7414 102.009 75.7745 102.113 75.8203C102.403 75.9485 102.614 76.162 102.751 76.4301C103.009 76.9325 103.005 77.6167 102.909 78.3297C102.77 79.36 102.4 80.6853 102.003 82.1076C101.843 82.6783 101.679 83.2645 101.525 83.8537C101.316 84.6478 101.459 84.9591 101.589 85.0818C101.744 85.2284 102.079 85.3147 102.667 85.2332C103.807 85.075 105.362 84.3606 106.465 83.7267L106.486 83.7148L106.508 83.7052C107.81 83.1377 108.91 83.4576 109.75 84.0739C110.566 84.6723 111.148 85.553 111.503 86.1599C112.109 87.1958 112.001 88.239 111.646 89.0526C111.3 89.8435 110.698 90.4731 110.206 90.7154C109.607 91.0105 109.027 91.3136 108.459 91.6108L108.437 91.6222C107.878 91.9145 107.33 92.2015 106.794 92.4644C105.71 92.9958 104.65 93.4436 103.602 93.6536C102.545 93.8653 101.494 93.8366 100.44 93.4092C99.3907 92.9839 98.377 92.1789 97.3654 90.9024C96.9233 90.3445 96.4674 89.4858 96.0349 88.5301C95.5986 87.5661 95.1727 86.4727 94.7963 85.4245C94.4196 84.3756 94.0907 83.3671 93.8486 82.5709C93.6115 81.7911 93.4463 81.1786 93.4127 80.9452C93.2899 80.0929 93.052 77.634 93.2192 75.2373C93.3084 73.9582 93.7898 72.3258 94.4079 70.9694C94.718 70.2888 95.0702 69.6606 95.4378 69.1714C95.7912 68.7009 96.2121 68.2861 96.6799 68.1501C97.2496 67.9845 97.7263 68.121 98.0582 68.4418C98.2332 68.6108 98.3544 68.8176 98.4332 69.0273ZM100.862 75.7727C101.09 75.0811 101.248 74.2258 101.194 73.5017C101.164 73.1036 101.073 72.7768 100.923 72.5403C100.783 72.3182 100.583 72.1607 100.282 72.0926C100.267 72.0955 100.179 72.1214 100.015 72.3503C99.8237 72.6172 99.6263 73.034 99.4367 73.5513C99.0606 74.5776 98.7557 75.8854 98.5842 76.8684C98.543 77.1043 98.3184 77.2621 98.0826 77.221C97.8467 77.1798 97.6889 76.9553 97.73 76.7194C97.9067 75.7064 98.2227 74.3443 98.6226 73.253C98.8211 72.7115 99.0505 72.2077 99.3102 71.8453C99.4037 71.7148 99.5223 71.5741 99.6645 71.4597C99.6549 71.4456 99.6455 71.4319 99.636 71.4184C99.5086 71.2377 99.4399 71.2034 99.3964 71.1974C99.1876 71.1688 99.1136 71.1956 99.0534 71.2327C98.9585 71.2913 98.8387 71.4168 98.6127 71.7227C98.2394 72.2279 97.9171 73.0292 97.6502 73.8921C97.3952 74.7168 97.2039 75.5519 97.0661 76.1537C97.0615 76.1737 97.057 76.1935 97.0525 76.213C96.999 76.4463 96.7665 76.5922 96.5331 76.5387C96.2998 76.4852 96.1539 76.2527 96.2074 76.0193C96.2123 75.9979 96.2173 75.976 96.2224 75.9539C96.3596 75.3548 96.557 74.4923 96.8219 73.6359C97.0933 72.7586 97.4499 71.8375 97.9154 71.2074C98.1333 70.9126 98.3419 70.653 98.598 70.4949C98.6816 70.4433 98.766 70.4047 98.8515 70.377C98.794 70.2599 98.7282 70.1514 98.6563 70.0643C98.5726 69.9628 98.5035 69.9182 98.4579 69.9025C98.4274 69.8919 98.3848 69.8845 98.3049 69.9241C97.8299 70.1595 97.3073 70.7562 96.8403 71.772C96.3796 72.7739 95.9994 74.1272 95.7718 75.7831C95.7392 76.0203 95.5205 76.1862 95.2833 76.1536C95.0461 76.121 94.8802 75.9023 94.9128 75.6651C95.1486 73.9494 95.5472 72.5089 96.0525 71.4098C96.4823 70.4752 97.0097 69.7435 97.6189 69.3249C97.5788 69.2214 97.523 69.1302 97.4557 69.0652C97.3619 68.9746 97.2129 68.8981 96.9219 68.9827C96.74 69.0356 96.4634 69.2497 96.131 69.6922C95.8127 70.1158 95.4905 70.6846 95.1969 71.3289C94.6075 72.6222 94.164 74.1515 94.0841 75.2976C93.9224 77.6157 94.154 80.0103 94.2708 80.8216C94.2931 80.9758 94.435 81.5189 94.6781 82.3186C94.9163 83.1019 95.2408 84.0968 95.6123 85.1314C95.9841 86.1667 96.4013 87.2369 96.8248 88.1726C97.252 89.1166 97.6724 89.8937 98.045 90.3639C98.9936 91.5611 99.8943 92.2525 100.765 92.6057C101.631 92.9568 102.506 92.989 103.432 92.8034C104.367 92.6161 105.347 92.2086 106.412 91.686C106.938 91.428 107.478 91.1454 108.041 90.8511L108.057 90.8425C108.624 90.5459 109.213 90.2381 109.823 89.9377C110.095 89.8037 110.57 89.3494 110.851 88.7055C111.123 88.0844 111.19 87.3419 110.755 86.5979C110.413 86.0136 109.904 85.2621 109.238 84.773C108.6 84.3053 107.831 84.0825 106.876 84.4909C105.752 85.1345 104.09 85.9111 102.787 86.092C102.149 86.1805 101.453 86.147 100.993 85.7113C100.507 85.2518 100.453 84.5185 100.686 83.6332C100.853 82.9999 101.024 82.3873 101.187 81.803C101.576 80.4118 101.919 79.1812 102.049 78.2141C102.143 77.5187 102.106 77.0721 101.98 76.8261C101.926 76.72 101.856 76.6549 101.762 76.6134C101.659 76.5679 101.496 76.5375 101.239 76.5631C101.176 76.5693 101.04 76.6317 100.851 76.9135C100.672 77.1793 100.504 77.5571 100.347 77.9994C100.103 78.6901 99.9139 79.4648 99.761 80.0897C99.7179 80.2659 99.6777 80.4302 99.6401 80.5774C99.5807 80.8093 99.3445 80.9492 99.1126 80.8898C98.8806 80.8304 98.7407 80.5942 98.8001 80.3623C98.8339 80.2304 98.8713 80.0775 98.9123 79.9097C99.0654 79.283 99.2697 78.4473 99.5299 77.7106C99.695 77.2431 99.8925 76.7854 100.131 76.4301C100.308 76.1667 100.547 75.9003 100.862 75.7727Z" fill="black"/>
<path d="M93.5788 103.258C93.5788 103.945 93.3006 104.501 92.9574 104.501C92.6142 104.501 92.3359 103.945 92.3359 103.258C92.3359 102.572 92.6142 102.016 92.9574 102.016C93.3006 102.016 93.5788 102.572 93.5788 103.258Z" fill="black"/>
<path d="M96.4772 103.258C96.4772 103.945 96.199 104.501 95.8558 104.501C95.5126 104.501 95.2344 103.945 95.2344 103.258C95.2344 102.572 95.5126 102.016 95.8558 102.016C96.199 102.016 96.4772 102.572 96.4772 103.258Z" fill="black"/>
<path d="M91.5078 107.606C91.5078 107.263 91.786 106.984 92.1292 106.984H96.6864C97.0296 106.984 97.3078 107.263 97.3078 107.606C97.3078 107.949 97.0296 108.227 96.6864 108.227H92.1292C91.786 108.227 91.5078 107.949 91.5078 107.606Z" fill="black"/>
<path d="M36.6999 139.356C36.5531 138.377 36.2285 134.685 36.5531 133.099L37.7468 126.584L32.0857 128.257C32.0771 133.434 31.9828 132.155 31.6738 136.985C31.3648 141.816 31.573 143.06 31.7158 143.079C33.1776 145.133 36.7007 143.884 38.1601 143.474C38.9877 143.242 44.5764 141.797 43.8745 139.622C43.0823 137.166 36.8808 140.562 36.6999 139.356Z" fill="#FFEB34"/>
<path fill-rule="evenodd" clip-rule="evenodd" d="M38.3033 125.966L31.6557 127.931L31.6552 128.254C31.6494 131.749 31.6053 132.275 31.481 133.758C31.4218 134.465 31.3443 135.389 31.2441 136.956C31.0893 139.377 31.0631 140.912 31.0951 141.849C31.111 142.316 31.1417 142.648 31.1818 142.872C31.2013 142.982 31.2266 143.086 31.2629 143.174C31.2807 143.217 31.3095 143.276 31.3565 143.334C31.3697 143.35 31.3878 143.37 31.4112 143.39C32.2846 144.555 33.711 144.739 34.9789 144.63C36.0743 144.536 37.1715 144.214 37.9092 143.997C38.046 143.957 38.1705 143.92 38.2803 143.889C38.3121 143.88 38.3516 143.87 38.3981 143.857C38.942 143.707 40.4404 143.294 41.7778 142.667C42.4999 142.329 43.2138 141.911 43.706 141.411C44.2033 140.906 44.5351 140.246 44.2901 139.486C44.1579 139.077 43.9046 138.776 43.569 138.579C43.2443 138.388 42.8627 138.305 42.4762 138.279C41.71 138.229 40.799 138.4 39.9622 138.596C39.6305 138.674 39.3135 138.754 39.0146 138.83C38.5276 138.954 38.0887 139.065 37.7128 139.132C37.4291 139.183 37.2346 139.197 37.1167 139.185C37.0455 138.662 36.9403 137.583 36.8858 136.432C36.8267 135.186 36.8308 133.917 36.9808 133.184L36.9817 133.18L38.3033 125.966ZM37.1963 127.197L36.1305 133.015C35.9569 133.868 35.961 135.235 36.0197 136.473C36.0791 137.727 36.198 138.91 36.2742 139.418C36.3019 139.603 36.3948 139.762 36.5432 139.875C36.6786 139.977 36.8344 140.021 36.9683 140.04C37.2304 140.078 37.5494 140.042 37.8649 139.986C38.2674 139.914 38.7637 139.788 39.2778 139.658C39.5707 139.584 39.8694 139.508 40.1598 139.44C40.995 139.245 41.7942 139.103 42.4193 139.144C42.7284 139.165 42.9626 139.228 43.1295 139.326C43.2853 139.418 43.3992 139.549 43.465 139.753C43.5709 140.081 43.4673 140.417 43.0882 140.802C42.7042 141.192 42.1007 141.558 41.4099 141.882C40.1441 142.475 38.7149 142.87 38.1667 143.021C38.1198 143.034 38.0793 143.045 38.0459 143.055C37.9227 143.089 37.7879 143.129 37.6436 143.171C36.9009 143.389 35.904 143.681 34.9049 143.766C33.7032 143.869 32.6651 143.659 32.072 142.825L32.0508 142.796C32.0461 142.776 32.0408 142.751 32.0353 142.72C32.0059 142.555 31.977 142.27 31.9616 141.82C31.9311 140.923 31.9553 139.42 32.1094 137.011C32.208 135.47 32.2849 134.551 32.3442 133.842C32.466 132.388 32.5134 131.821 32.5215 128.579L37.1963 127.197Z" fill="#111111"/>
<path d="M26.475 138.416C26.475 137.413 26.7565 137.413 27.8038 133.212L29.4836 126.743L23.6745 127.668C23.3855 128.745 22.3326 131.49 21.6648 136.262C20.9971 141.035 21.582 141.535 21.582 141.535C22.8981 143.773 25.6649 143.843 27.153 143.814C28.9077 143.78 34.9642 144.129 33.525 141.03C32.0858 137.93 26.475 139.641 26.475 138.416Z" fill="#FFEB34"/>
<path fill-rule="evenodd" clip-rule="evenodd" d="M30.0769 126.202L23.3231 127.278L23.2553 127.53C23.2021 127.729 23.1203 127.991 23.018 128.319C22.5834 129.711 21.7799 132.284 21.2354 136.175C20.8997 138.575 20.8743 139.93 20.9412 140.698C20.9746 141.083 21.0324 141.337 21.0949 141.508C21.1265 141.594 21.1607 141.663 21.1967 141.72C21.2082 141.738 21.2199 141.754 21.2318 141.77C21.97 143.002 23.1011 143.627 24.2079 143.939C25.3169 144.252 26.4352 144.26 27.186 144.245C27.3463 144.242 27.5505 144.242 27.7869 144.243C28.7817 144.245 30.349 144.248 31.643 143.995C32.4375 143.839 33.2197 143.572 33.7018 143.077C33.9523 142.819 34.1244 142.497 34.167 142.106C34.2091 141.72 34.1208 141.304 33.916 140.863C33.4937 139.954 32.7651 139.409 31.9583 139.082C31.1628 138.76 30.2701 138.642 29.4662 138.584C29.1048 138.558 28.7527 138.545 28.4311 138.532C28.3931 138.53 28.3555 138.529 28.3184 138.528C27.962 138.513 27.6534 138.499 27.3968 138.471C27.1482 138.444 26.9937 138.407 26.9086 138.37C26.9142 137.982 26.972 137.771 27.161 137.16C27.1709 137.128 27.1811 137.095 27.1917 137.061C27.3965 136.401 27.7236 135.345 28.2239 133.339L30.0769 126.202ZM28.89 127.277L27.3828 133.082C26.8877 135.068 26.5654 136.108 26.3627 136.761C26.3521 136.796 26.3418 136.829 26.3319 136.861C26.129 137.516 26.0415 137.818 26.0415 138.388C26.0415 138.554 26.0915 138.716 26.1964 138.857C26.296 138.99 26.4254 139.078 26.5466 139.137C26.7784 139.251 27.0696 139.302 27.3511 139.333C27.6431 139.365 27.9819 139.38 28.3336 139.394C28.371 139.396 28.4086 139.397 28.4465 139.399C28.7695 139.411 29.1074 139.425 29.454 139.449C30.2327 139.505 31.0126 139.616 31.6739 139.884C32.3239 140.147 32.8363 140.55 33.1337 141.191C33.2887 141.525 33.326 141.776 33.3054 141.964C33.2854 142.147 33.2068 142.307 33.0644 142.453C32.761 142.765 32.1891 142.994 31.4301 143.143C30.2292 143.378 28.7867 143.376 27.7853 143.375C27.5313 143.375 27.3057 143.374 27.1197 143.378C26.3823 143.392 25.3732 143.38 24.3978 143.105C23.4302 142.832 22.5305 142.312 21.952 141.328L21.9122 141.261L21.9094 141.258C21.9086 141.256 21.9077 141.254 21.9068 141.251C21.8804 141.179 21.8338 141.009 21.8045 140.672C21.7458 139.998 21.7618 138.716 22.0938 136.344C22.6269 132.534 23.4024 130.046 23.841 128.639C23.9102 128.417 23.971 128.222 24.0212 128.053L28.89 127.277Z" fill="#111111"/>
<path d="M22.2008 130.12C18.5872 130.12 19.4906 120.162 20.394 115.183L41.1722 114.277V127.856C41.1722 131.477 26.7177 130.12 22.2008 130.12Z" fill="#8F602C"/>
<path fill-rule="evenodd" clip-rule="evenodd" d="M41.6017 113.824V127.856C41.6017 128.478 41.2825 128.969 40.8019 129.337C40.3327 129.696 39.6878 129.959 38.9513 130.156C37.4742 130.552 35.4841 130.722 33.3881 130.779C31.2848 130.836 29.0434 130.779 27.0513 130.708C26.4909 130.688 25.9515 130.667 25.4406 130.647C24.127 130.596 23.0025 130.553 22.1968 130.553C21.035 130.553 20.2994 129.731 19.8611 128.648C19.4231 127.566 19.2233 126.105 19.1663 124.534C19.0518 121.379 19.5088 117.61 19.9634 115.105L20.0252 114.764L41.6017 113.824ZM20.7561 115.6C20.3288 118.064 19.9264 121.571 20.0327 124.502C20.0886 126.042 20.284 127.382 20.6648 128.323C21.0451 129.263 21.5518 129.686 22.1968 129.686C23.0205 129.686 24.1719 129.73 25.4944 129.782C26.0014 129.801 26.5336 129.822 27.082 129.842C29.0705 129.912 31.2897 129.968 33.3646 129.912C35.4469 129.856 37.3526 129.687 38.7269 129.319C39.4161 129.134 39.9358 128.908 40.2747 128.649C40.6022 128.398 40.7347 128.139 40.7347 127.856V114.73L20.7561 115.6Z" fill="black"/>
<path d="M28.4292 25.5781C24.1909 25.5781 22.2156 43.5632 21.7578 52.5557C7.82616 63.299 10.1809 68.0738 13.7129 73.5648C17.2448 79.0559 1.35103 81.9207 0.762369 89.0829C0.173711 96.2451 12.7317 92.4253 3.31319 107.466C-6.10533 122.507 39.6137 119.642 56.4886 119.403C73.3634 119.164 41.9683 100.542 52.368 96.2451C62.7676 91.9478 35.8856 72.8486 44.9116 72.3711C53.9377 71.8937 44.7154 56.1368 40.791 51.362C36.8667 46.5872 33.7272 25.5781 28.4292 25.5781Z" fill="#00BC68"/>
<path fill-rule="evenodd" clip-rule="evenodd" d="M24.1054 35.7765C23.0297 41.37 22.4229 48.0927 22.1946 52.5777L22.1844 52.777L22.0263 52.8989C15.071 58.2625 12.2895 62.0609 11.6136 65.1232C10.9453 68.1517 12.3095 70.5756 14.0813 73.3302C14.571 74.0916 14.7435 74.8431 14.6266 75.582C14.5116 76.3089 14.1247 76.9721 13.5931 77.5833C12.541 78.7929 10.8071 79.9235 9.01965 81.0627C8.90394 81.1364 8.7879 81.2103 8.67165 81.2842C6.9652 82.3701 5.21459 83.4841 3.82422 84.7315C2.33829 86.0646 1.33197 87.4913 1.19824 89.1184C1.12996 89.9492 1.25314 90.5997 1.48987 91.1375C1.72785 91.6782 2.0911 92.1289 2.53666 92.5447C2.97433 92.9531 3.47646 93.315 4.00752 93.6976L4.05147 93.7293C4.58989 94.1174 5.15585 94.528 5.65365 95.0078C6.67502 95.9923 7.41014 97.2712 7.2411 99.2915C7.07596 101.265 6.04987 103.918 3.68443 107.696C2.54464 109.516 2.28601 110.988 2.62301 112.19C2.96178 113.397 3.93287 114.441 5.49426 115.333C8.63058 117.125 13.9051 118.166 20.0843 118.732C29.8791 119.631 41.7405 119.327 50.4472 119.104C52.702 119.046 54.7453 118.994 56.4863 118.969C58.5786 118.94 59.8214 118.622 60.4861 118.16C60.8058 117.937 60.986 117.686 61.0748 117.412C61.1657 117.131 61.1724 116.792 61.0819 116.381C60.8977 115.547 60.3351 114.524 59.5082 113.354C58.6879 112.193 57.6402 110.933 56.53 109.627C56.3142 109.373 56.0958 109.117 55.8763 108.86C53.8573 106.495 51.7402 104.015 50.6162 101.842C49.9938 100.638 49.6326 99.4501 49.8288 98.3855C50.0328 97.2793 50.8136 96.4198 52.2062 95.8444C53.4178 95.3437 54.0199 94.6603 54.2515 93.8814C54.4902 93.0786 54.363 92.0851 53.9198 90.9235C53.0312 88.5949 50.9735 85.8412 48.82 83.1462C48.4116 82.6352 47.9995 82.1259 47.5923 81.6227C45.8805 79.5074 44.2551 77.499 43.3577 75.9119C43.077 75.4154 42.8569 74.9427 42.7274 74.5067C42.599 74.0742 42.5493 73.6431 42.6512 73.2492C42.7579 72.8367 43.0189 72.5116 43.4158 72.2915C43.7975 72.0798 44.2948 71.9698 44.8926 71.9381C45.9575 71.8818 46.7049 71.603 47.2191 71.1893C47.7301 70.7782 48.0519 70.2011 48.2073 69.4685C48.5242 67.9744 48.1324 65.9083 47.3041 63.6259C45.6561 59.0849 42.3972 53.9942 40.46 51.6372C39.4228 50.3754 38.4693 48.094 37.5438 45.4627C36.9764 43.8497 36.4074 42.0671 35.8313 40.2622C35.4634 39.1097 35.0926 37.9481 34.7175 36.8158C33.7487 33.8913 32.747 31.1484 31.6661 29.1408C31.1254 28.1366 30.5774 27.3407 30.0222 26.8009C29.4676 26.2619 28.9417 26.0116 28.4331 26.0116C28.0709 26.0116 27.6843 26.2008 27.2699 26.6591C26.8546 27.1184 26.4504 27.8075 26.065 28.7005C25.2955 30.4835 24.6439 32.9761 24.1054 35.7765ZM26.6267 26.0777C27.1334 25.5174 27.7356 25.1445 28.4331 25.1445C29.2489 25.1445 29.98 25.5508 30.6265 26.1793C31.2723 26.8071 31.8695 27.6899 32.4295 28.7298C33.5499 30.8107 34.5717 33.6185 35.5406 36.5431C35.9226 37.6965 36.2959 38.866 36.6644 40.0207C37.2365 41.8132 37.7971 43.5699 38.3617 45.175C39.2941 47.8259 40.2047 49.9612 41.1298 51.0867C43.1169 53.5045 46.4314 58.6796 48.1191 63.3301C48.9586 65.6434 49.4253 67.9045 49.0554 69.6484C48.8675 70.5346 48.4595 71.3042 47.7626 71.8649C47.0688 72.4229 46.1299 72.7409 44.9384 72.804C44.4078 72.832 44.0574 72.9271 43.8362 73.0498C43.6302 73.164 43.533 73.3024 43.4906 73.4663C43.4435 73.6487 43.4537 73.9067 43.5586 74.2599C43.6624 74.6096 43.849 75.0192 44.1124 75.4851C44.9707 77.0029 46.5329 78.934 48.2404 81.0447C48.6535 81.5554 49.0752 82.0766 49.4974 82.605C51.6362 85.2817 53.785 88.1384 54.7298 90.6144C55.2032 91.8551 55.3995 93.0625 55.0826 94.1286C54.7584 95.2186 53.9256 96.072 52.5373 96.6457C51.33 97.1446 50.8171 97.8071 50.6815 98.5427C50.5382 99.32 50.7917 100.294 51.3864 101.444C52.461 103.522 54.5079 105.92 56.5456 108.308C56.7611 108.561 56.9765 108.813 57.1906 109.065C58.3001 110.37 59.371 111.658 60.2162 112.854C61.0549 114.04 61.7049 115.182 61.9285 116.195C62.0418 116.708 62.0512 117.211 61.8996 117.679C61.7459 118.153 61.4384 118.553 60.9813 118.871C60.0924 119.49 58.6249 119.806 56.4985 119.836C54.7746 119.861 52.7448 119.913 50.5004 119.97C41.7942 120.194 29.8573 120.5 20.0051 119.596C13.8225 119.029 8.37852 117.98 5.06414 116.086C3.40018 115.136 2.21286 113.938 1.78821 112.424C1.3618 110.904 1.73474 109.176 2.94959 107.236C5.2934 103.493 6.22951 100.983 6.3771 99.2193C6.52079 97.5019 5.91918 96.468 5.05194 95.632C4.60544 95.2017 4.08913 94.8252 3.54452 94.4327L3.48321 94.3885C2.96579 94.0158 2.42383 93.6253 1.94512 93.1786C1.44332 92.7103 0.995637 92.1669 0.69631 91.4868C0.39574 90.8039 0.25525 90.0071 0.334131 89.0473C0.494735 87.0933 1.69589 85.4761 3.24522 84.0861C4.69137 82.7887 6.50027 81.6379 8.19084 80.5625C8.31245 80.4851 8.43346 80.4081 8.55367 80.3315C10.3718 79.1728 11.9859 78.11 12.9389 77.0143C13.4098 76.4729 13.6897 75.9554 13.7702 75.4466C13.8488 74.9498 13.7454 74.4107 13.3521 73.7993C11.592 71.0629 10.0128 68.3539 10.767 64.9364C11.508 61.5784 14.4752 57.6521 21.339 52.3344C21.5761 47.8284 22.1838 41.1774 23.2539 35.6128C23.7962 32.7929 24.4618 30.2271 25.269 28.3569C25.6719 27.4233 26.121 26.6371 26.6267 26.0777Z" fill="#111111"/>
<path d="M36.855 48.5373C36.855 50.163 38.1729 51.4809 39.7986 51.4809C41.4243 51.4809 42.7422 50.163 42.7422 48.5373C42.7422 46.9116 41.4243 45.5938 39.7986 45.5938C38.1729 45.5938 36.855 46.9116 36.855 48.5373Z" fill="black"/>
<path fill-rule="evenodd" clip-rule="evenodd" d="M39.7986 50.6139C38.6518 50.6139 37.7221 49.6842 37.7221 48.5373C37.7221 47.3905 38.6518 46.4608 39.7986 46.4608C40.9455 46.4608 41.8752 47.3905 41.8752 48.5373C41.8752 49.6842 40.9455 50.6139 39.7986 50.6139ZM39.7986 51.4809C38.1729 51.4809 36.855 50.163 36.855 48.5373C36.855 46.9116 38.1729 45.5938 39.7986 45.5938C41.4243 45.5938 42.7422 46.9116 42.7422 48.5373C42.7422 50.163 41.4243 51.4809 39.7986 51.4809Z" fill="black"/>
<path d="M33.8036 39.1277C33.8656 40.9711 34.7021 42.4389 35.6719 42.4062C36.6417 42.3736 37.3776 40.8528 37.3155 39.0095C37.2534 37.1662 36.4169 35.6983 35.4471 35.731C34.4773 35.7637 33.7415 37.2844 33.8036 39.1277Z" fill="white"/>
<path fill-rule="evenodd" clip-rule="evenodd" d="M33.6426 41.897C34.041 42.596 34.7328 43.3026 35.6997 43.27C36.6665 43.2375 37.3093 42.486 37.6597 41.7618C38.0299 40.9968 38.2154 40.0109 38.1806 38.9776C38.1458 37.9443 37.8944 36.9731 37.4736 36.2347C37.0753 35.5358 36.3834 34.8292 35.4165 34.8617C34.4497 34.8943 33.8069 35.6458 33.4565 36.37C33.0864 37.135 32.9008 38.1209 32.9356 39.1542C32.9704 40.1875 33.2218 41.1587 33.6426 41.897ZM35.6705 42.4035C34.7007 42.4362 33.8642 40.9683 33.8021 39.125C33.7401 37.2817 34.4759 35.7609 35.4457 35.7283C36.4155 35.6956 37.252 37.1635 37.3141 39.0068C37.3762 40.8501 36.6403 42.3708 35.6705 42.4035Z" fill="black"/>
<path d="M28.7254 39.6317C28.7875 41.475 29.624 42.9428 30.5938 42.9101C31.5636 42.8775 32.2995 41.3567 32.2374 39.5134C32.1753 37.6701 31.3388 36.2023 30.369 36.2349C29.3992 36.2676 28.6634 37.7883 28.7254 39.6317Z" fill="white"/>
<path fill-rule="evenodd" clip-rule="evenodd" d="M28.5645 42.4009C28.9628 43.0999 29.6547 43.8065 30.6216 43.7739C31.5884 43.7414 32.2312 42.9899 32.5816 42.2657C32.9517 41.5007 33.1373 40.5148 33.1025 39.4815C33.0677 38.4482 32.8163 37.477 32.3955 36.7387C31.9971 36.0397 31.3053 35.3331 30.3384 35.3657C29.3716 35.3982 28.7288 36.1497 28.3784 36.8739C28.0082 37.6389 27.8227 38.6248 27.8575 39.6581C27.8923 40.6914 28.1437 41.6626 28.5645 42.4009ZM30.5924 42.9074C29.6226 42.9401 28.7861 41.4722 28.724 39.6289C28.6619 37.7856 29.3978 36.2648 30.3676 36.2322C31.3374 36.1995 32.1739 37.6674 32.236 39.5107C32.298 41.354 31.5622 42.8748 30.5924 42.9074Z" fill="black"/>
<path d="M29.9642 40.5503C29.8694 41.8832 30.4809 43.0127 31.3301 43.0731C32.1793 43.1335 32.9445 42.1019 33.0393 40.769C33.1341 39.436 32.5226 38.3065 31.6734 38.2461C30.8242 38.1857 30.059 39.2173 29.9642 40.5503Z" fill="black"/>
<path d="M34.6012 40.2814C34.339 41.458 34.7636 42.5538 35.5495 42.7289C36.3354 42.904 37.185 42.0922 37.4472 40.9156C37.7093 39.739 37.2848 38.6432 36.4989 38.4681C35.713 38.293 34.8634 39.1048 34.6012 40.2814Z" fill="black"/>
<path d="M18.1255 82.7197C17.1766 74.631 22.6067 70.7304 25.4404 69.7911C26.2313 69.5149 28.0107 69.2276 28.8014 70.2884L28.8175 70.31C29.7942 71.6198 30.1703 72.1243 27.4176 74.4321C25.4404 76.4211 24.4916 79.6367 24.6498 83.2169C24.8079 86.7971 28.1425 90.1232 29.7899 91.3387L26.6268 94.6537C24.1884 94.046 19.0745 90.8083 18.1255 82.7197Z" fill="#FDFBEF"/>
<path fill-rule="evenodd" clip-rule="evenodd" d="M27.0996 69.9714C26.5229 69.9479 25.9354 70.076 25.5797 70.2003L25.5764 70.2014L25.5731 70.2025C22.8744 71.097 17.6341 74.8418 18.5524 82.6691C19.4482 90.3044 24.1256 93.4522 26.4884 94.1668L29.1409 91.387C28.3148 90.7194 27.2422 89.6826 26.3093 88.4224C25.2254 86.9583 24.2975 85.1484 24.213 83.236C24.0516 79.5814 25.0157 76.2297 27.1064 74.1264L27.1203 74.1125L27.1354 74.0998C27.817 73.5283 28.2886 73.0818 28.6023 72.7163C28.918 72.3482 29.0473 72.0922 29.0891 71.9031C29.1269 71.7323 29.1028 71.5748 29.0041 71.371C28.8963 71.1484 28.7185 70.9072 28.4663 70.569L28.4502 70.5474C28.1671 70.1675 27.682 69.9952 27.0996 69.9714ZM29.1454 70.0292C28.6377 69.3482 27.8377 69.1338 27.135 69.1051C26.4284 69.0762 25.7325 69.229 25.2971 69.3806C22.3276 70.3665 16.712 74.4231 17.6913 82.7701C18.6621 91.0446 23.9116 94.4246 26.5182 95.0743L26.7628 95.1352L30.4396 91.2819L30.0437 90.9898C29.2514 90.4053 28.0375 89.2998 27.0061 87.9065C25.9713 86.5087 25.1529 84.8654 25.0792 83.1977C24.9247 79.7003 25.8533 76.6273 27.7078 74.7514C28.3947 74.1747 28.9034 73.6967 29.2603 73.2808C29.6177 72.8643 29.8495 72.4796 29.9357 72.0904C30.0259 71.6828 29.9449 71.3244 29.7844 70.9931C29.6367 70.688 29.4089 70.3826 29.1785 70.0736L29.1454 70.0292Z" fill="black"/>
<path fill-rule="evenodd" clip-rule="evenodd" d="M31.6483 89.2239C31.8288 89.3813 31.8476 89.6551 31.6902 89.8356L25.0181 97.4889C24.8608 97.6694 24.5869 97.6881 24.4065 97.5308C24.226 97.3735 24.2072 97.0996 24.3646 96.9191L31.0367 89.2658C31.194 89.0854 31.4679 89.0666 31.6483 89.2239Z" fill="black"/>
<path d="M37.2451 54.6225C37.2451 55.7063 36.3665 56.5849 35.2827 56.5849C34.1989 56.5849 33.3203 55.7063 33.3203 54.6225C33.3203 53.5387 34.1989 52.6602 35.2827 52.6602C36.3665 52.6602 37.2451 53.5387 37.2451 54.6225Z" fill="black"/>
<path fill-rule="evenodd" clip-rule="evenodd" d="M64.4722 34.7403C77.4011 34.7403 87.882 26.9634 87.882 17.3701C87.882 7.77688 77.4011 0 64.4722 0C51.5434 0 41.0625 7.77688 41.0625 17.3701C41.0625 24.8782 47.4823 31.2737 56.471 33.6992C56.2367 34.8987 55.6517 36.1364 55.1303 37.2395C54.3294 38.934 53.6785 40.3111 54.6797 40.7448C55.9917 40.8869 60.1386 38.2744 63.7162 34.7314C63.9672 34.7373 64.2193 34.7403 64.4722 34.7403Z" fill="white"/>
<path fill-rule="evenodd" clip-rule="evenodd" d="M57.4768 33.0726L57.3219 33.8654C57.0667 35.1719 56.4432 36.491 55.9363 37.5631L55.9142 37.61C55.4968 38.493 55.1867 39.1607 55.075 39.6558C55.0582 39.73 55.0481 39.792 55.0427 39.8429C55.0539 39.8401 55.0654 39.8372 55.0772 39.834C55.2645 39.7847 55.5024 39.6992 55.7892 39.5714C56.3627 39.3159 57.0739 38.9177 57.8737 38.3945C59.4709 37.3494 61.3569 35.8477 63.1061 34.1153L63.368 33.8559L63.7366 33.8646C63.9808 33.8704 64.2261 33.8733 64.4722 33.8733C70.7694 33.8733 76.4363 31.9782 80.5088 28.9564C84.5814 25.9345 87.015 21.8287 87.015 17.3701C87.015 12.9116 84.5814 8.80575 80.5088 5.78388C76.4363 2.76207 70.7694 0.867028 64.4722 0.867028C58.1751 0.867028 52.5082 2.76207 48.4357 5.78388C44.3631 8.80575 41.9295 12.9116 41.9295 17.3701C41.9295 24.3359 47.9184 30.4933 56.6968 32.8621L57.4768 33.0726ZM54.6797 40.7448C53.6785 40.3111 54.3294 38.934 55.1303 37.2395C55.6517 36.1364 56.2367 34.8987 56.471 33.6992C47.4823 31.2737 41.0625 24.8782 41.0625 17.3701C41.0625 7.77688 51.5434 0 64.4722 0C77.4011 0 87.882 7.77688 87.882 17.3701C87.882 26.9634 77.4011 34.7403 64.4722 34.7403C64.2193 34.7403 63.9672 34.7373 63.7162 34.7314C60.1386 38.2744 55.9917 40.8869 54.6797 40.7448Z" fill="#111111"/>
<path d="M66 17.5C66 18.3284 65.3284 19 64.5 19C63.6716 19 63 18.3284 63 17.5C63 16.6716 63.6716 16 64.5 16C65.3284 16 66 16.6716 66 17.5Z" fill="#111111"/>
<path d="M56 17.5C56 18.3284 55.3284 19 54.5 19C53.6716 19 53 18.3284 53 17.5C53 16.6716 53.6716 16 54.5 16C55.3284 16 56 16.6716 56 17.5Z" fill="#111111"/>
<path d="M76 17.5C76 18.3284 75.3284 19 74.5 19C73.6716 19 73 18.3284 73 17.5C73 16.6716 73.6716 16 74.5 16C75.3284 16 76 16.6716 76 17.5Z" fill="#111111"/>
</svg>
