<svg width="117" height="137" viewBox="0 0 117 137" fill="none" xmlns="http://www.w3.org/2000/svg">
<path d="M5.77267 50.8248C2.75279 41.5306 7.83917 31.548 17.1334 28.5281L88.1056 5.46783C97.3999 2.44795 107.382 7.53432 110.402 16.8286C113.422 26.1228 108.336 36.1054 99.0416 39.1253L28.0694 62.1856C18.7752 65.2055 8.79256 60.1191 5.77267 50.8248Z" fill="#51C6FF"/>
<path fill-rule="evenodd" clip-rule="evenodd" d="M88.3535 6.23079L17.3813 29.2911C8.50844 32.174 3.65265 41.704 6.53563 50.5769C9.4186 59.4498 18.9486 64.3056 27.8215 61.4226L98.7937 38.3623C107.667 35.4794 112.522 25.9494 109.639 17.0765C106.756 8.20359 97.2264 3.34781 88.3535 6.23079ZM17.1334 28.5281C7.83917 31.548 2.75279 41.5306 5.77267 50.8248C8.79256 60.1191 18.7752 65.2055 28.0694 62.1856L99.0416 39.1253C108.336 36.1054 113.422 26.1228 110.402 16.8286C107.382 7.53432 97.3999 2.44795 88.1056 5.46783L17.1334 28.5281Z" fill="#111111"/>
<path d="M76.8172 20.8956L69.575 23.2487L70.1996 25.171L76.8606 23.0067L77.4924 24.9514L70.8315 27.1157L71.4633 29.0603L72.2457 28.8061C74.0338 28.2251 75.5019 27.711 76.6499 27.2639C77.8053 26.8143 78.9365 26.3027 80.0433 25.7289L80.9283 27.616C79.702 28.2533 78.4416 28.8234 77.1471 29.3264C75.8575 29.8196 74.1808 30.4014 72.117 31.072L71.3123 31.3335L69.5912 31.8927L66.4101 22.1024L76.178 18.9286L76.8172 20.8956ZM73.2582 36.4097C73.0016 35.6199 73.0532 34.8535 73.4132 34.1105C73.7781 33.3577 74.4312 32.6677 75.3724 32.0406C76.3187 31.4037 77.5071 30.8528 78.9376 30.388C80.3458 29.9304 81.6162 29.6824 82.7487 29.6439C83.8886 29.6031 84.83 29.775 85.5728 30.1596C86.3156 30.5443 86.8153 31.1316 87.0719 31.9213C87.3285 32.7111 87.2694 33.4799 86.8946 34.2277C86.5198 34.9756 85.8592 35.668 84.9129 36.3049C83.9741 36.9394 82.8006 37.4855 81.3924 37.943C79.9619 38.4078 78.6767 38.6607 77.5367 38.7016C76.4042 38.7401 75.4703 38.5658 74.735 38.1786C74.0071 37.7891 73.5148 37.1995 73.2582 36.4097ZM75.7393 35.6035C75.9279 36.2095 76.4543 36.5491 77.3184 36.6226C78.18 36.6886 79.3299 36.488 80.7678 36.0207C82.176 35.5632 83.2118 35.0496 83.8751 34.4798C84.5459 33.9077 84.7845 33.3236 84.5908 32.7275C84.3971 32.1314 83.8608 31.7991 82.9818 31.7305C82.1103 31.6595 80.9704 31.8527 79.5622 32.3103C78.1242 32.7775 77.0773 33.2948 76.4214 33.8621C75.7656 34.4294 75.5382 35.0099 75.7393 35.6035ZM79.1555 16.3796L81.6589 15.5662L85.6607 27.8823L83.1572 28.6957L79.1555 16.3796Z" fill="#111111"/>
<path d="M68.9756 42.0286L66.4721 42.842L59.8994 22.6133L62.4028 21.7999L68.9756 42.0286ZM49.0383 35.6564C48.5759 34.2333 48.3927 32.9089 48.4888 31.6833C48.5848 30.4577 48.937 29.4248 49.5454 28.5846C50.1588 27.7346 50.9759 27.1437 51.9966 26.812C53.0025 26.4852 53.9997 26.4866 54.9881 26.8162C55.9817 27.1359 56.8812 27.7621 57.6867 28.6947C58.4922 29.6274 59.1262 30.8053 59.5886 32.2284C60.0558 33.6664 60.2377 34.9994 60.1342 36.2274C60.0308 37.4555 59.6723 38.4945 59.0589 39.3446C58.4505 40.1848 57.6433 40.7683 56.6375 41.0951C55.6167 41.4268 54.6096 41.4327 53.6161 41.113C52.6276 40.7835 51.7344 40.1511 50.9363 39.216C50.1382 38.2809 49.5056 37.0944 49.0383 35.6564ZM51.43 34.8793C51.7617 35.9 52.1665 36.7405 52.6446 37.4006C53.1302 38.0584 53.652 38.5108 54.21 38.7578C54.768 39.0048 55.3351 39.0388 55.9112 38.8599C56.4751 38.6684 56.9101 38.3088 57.2164 37.781C57.5226 37.2531 57.6751 36.5816 57.6739 35.7665C57.6726 34.9514 57.5062 34.0335 57.1745 33.0128C56.8453 31.9995 56.4428 31.1665 55.9672 30.5138C55.4891 29.8536 54.971 29.4 54.413 29.153C53.8525 28.8985 53.2892 28.8633 52.7229 29.0473C52.1492 29.2337 51.7104 29.5945 51.4066 30.1298C51.1003 30.6577 50.9441 31.3304 50.9379 32.1479C50.9367 32.9555 51.1008 33.866 51.43 34.8793Z" fill="#111111"/>
<path d="M45.0851 36.6428L47.9239 35.7204L48.5993 37.7992L45.7606 38.7216L48.9416 48.5118L46.4382 49.3252L39.8727 29.1188L42.3762 28.3054L45.0851 36.6428ZM30.891 48.1741C33.0964 47.4575 34.8127 46.8834 36.0398 46.4517L35.4261 44.563C34.6548 44.6736 33.939 44.6508 33.2787 44.4947C32.6258 44.3361 32.0681 44.0519 31.6054 43.6421C31.1502 43.2299 30.821 42.7108 30.6176 42.0849C30.3731 41.3324 30.3625 40.6027 30.5859 39.8959C30.8093 39.189 31.239 38.5593 31.8749 38.0067C32.5159 37.4442 33.3169 37.0068 34.2781 36.6945C35.2318 36.3847 36.1295 36.2701 36.9712 36.3508C37.818 36.4216 38.5432 36.6761 39.1468 37.1143C39.7505 37.5524 40.1783 38.1465 40.4302 38.8966C40.6261 39.5249 40.6549 40.1457 40.5164 40.7591C40.3756 41.365 40.0802 41.9264 39.6303 42.4432C39.1879 42.9577 38.621 43.3931 37.9296 43.7496L38.5142 45.5489C40.4101 44.8176 42.0231 44.1287 43.3535 43.4823L44.0982 45.242C42.2972 46.2143 40.4152 47.0771 38.4523 47.8302C36.487 48.5758 34.3085 49.3372 31.9168 50.1143L30.891 48.1741ZM27.2837 35.7793L32.0671 34.2251L31.3409 31.9899L33.8443 31.1764L34.5706 33.4117L39.3316 31.8647L39.9707 33.8317L27.9229 37.7463L27.2837 35.7793ZM32.9646 41.3224C33.1411 41.891 33.5099 42.2655 34.0709 42.4456C34.6394 42.6234 35.3073 42.5875 36.0747 42.3382C36.8571 42.084 37.4272 41.7217 37.785 41.2512C38.1429 40.7807 38.2274 40.2549 38.0385 39.6737C37.8497 39.0926 37.4698 38.7094 36.899 38.5242C36.3257 38.3316 35.6578 38.355 34.8954 38.5945C34.123 38.8537 33.5577 39.2309 33.1997 39.7262C32.8467 40.2116 32.7683 40.7436 32.9646 41.3224Z" fill="#111111"/>
<path d="M68.4962 129.158C65.9895 122.08 69.0145 111.965 71.1034 110.306L76.3178 111.209C75.3347 115.141 73.9584 128.261 76.3178 130.03C79.2669 132.242 79.6355 135.56 75.7648 135.56C71.8941 135.56 57.5171 138.509 58.623 133.717C59.5077 129.883 64.9941 128.974 68.4962 129.158Z" fill="#FFEB34"/>
<path d="M89.9556 127.158C83.32 120.522 86.1266 106.882 88.9528 103.688L95.639 104.834C90.6623 113.497 94.3678 124.545 98.2194 127.158C102.866 130.31 101.187 132.233 100.184 132.567C98.9806 132.969 84.6254 137.588 84.0268 134.162C83.5378 131.364 85.1633 131.028 88.481 129.554C91.1352 128.374 90.57 127.465 89.9556 127.158Z" fill="#FFEB34"/>
<path fill-rule="evenodd" clip-rule="evenodd" d="M88.7951 103.258L96.2676 104.539L95.9815 105.037C93.5518 109.267 93.2349 114.092 94.0075 118.194C94.3935 120.243 95.0498 122.102 95.841 123.602C96.6357 125.109 97.5514 126.227 98.4393 126.829C100.786 128.421 101.672 129.789 101.716 130.907C101.76 132.052 100.923 132.746 100.305 132.951C99.6985 133.154 95.791 134.415 91.9533 135.196C90.0391 135.586 88.1141 135.863 86.6176 135.819C85.8723 135.797 85.1973 135.695 84.6755 135.463C84.1412 135.226 83.7309 134.832 83.6264 134.234C83.4981 133.5 83.5005 132.886 83.6607 132.356C83.8236 131.817 84.1385 131.403 84.5681 131.054C84.9887 130.712 85.5257 130.427 86.1431 130.142C86.4916 129.981 86.8847 129.811 87.3086 129.628C87.6278 129.491 87.9644 129.346 88.3129 129.191C88.9573 128.904 89.3844 128.644 89.6573 128.419C89.9325 128.192 90.0252 128.023 90.052 127.926C90.0745 127.844 90.0598 127.783 90.0186 127.722C89.97 127.649 89.8817 127.575 89.7709 127.52L89.7127 127.491L89.6667 127.445C86.2328 124.011 85.2723 118.804 85.5001 114.116C85.6145 111.764 86.0285 109.52 86.595 107.656C87.1579 105.805 87.8838 104.288 88.6471 103.425L88.7951 103.258ZM89.1073 104.125C88.5004 104.893 87.8738 106.208 87.3626 107.89C86.8153 109.69 86.4125 111.869 86.3014 114.155C86.0793 118.725 87.0239 123.632 90.1917 126.835C90.3699 126.934 90.5543 127.079 90.6861 127.277C90.8408 127.509 90.9167 127.807 90.8255 128.138C90.7387 128.454 90.5134 128.753 90.1674 129.038C89.8189 129.325 89.3214 129.62 88.6387 129.924C88.2689 130.088 87.9273 130.235 87.6088 130.373C87.1973 130.55 86.8244 130.711 86.4796 130.87C85.8744 131.15 85.4135 131.4 85.0742 131.676C84.7437 131.945 84.5366 132.231 84.4286 132.588C84.3178 132.955 84.3005 133.432 84.4166 134.096C84.4618 134.355 84.631 134.566 85.001 134.73C85.3836 134.9 85.9376 134.996 86.6411 135.017C88.0422 135.058 89.8935 134.797 91.7933 134.41C95.5837 133.638 99.4555 132.389 100.052 132.19C100.437 132.062 100.941 131.626 100.914 130.938C100.886 130.223 100.289 129.053 97.989 127.493C96.9512 126.789 95.9592 125.546 95.1314 123.976C94.3001 122.4 93.6189 120.465 93.2191 118.342C92.4501 114.26 92.7167 109.446 95.0095 105.137L89.1073 104.125ZM70.9895 109.883L76.8063 110.891L76.7016 111.309C76.2187 113.241 75.6312 117.475 75.4598 121.451C75.3742 123.438 75.3935 125.342 75.5771 126.851C75.669 127.606 75.8004 128.248 75.9737 128.747C76.1503 129.255 76.3533 129.563 76.5532 129.713C78.0753 130.855 79.0214 132.345 78.9945 133.636C78.9806 134.304 78.7036 134.907 78.1333 135.332C77.5763 135.747 76.7778 135.965 75.7595 135.965C74.8915 135.965 73.4654 136.118 71.7641 136.302C71.6231 136.317 71.4802 136.333 71.3355 136.348C69.4616 136.55 67.3227 136.77 65.3364 136.84C63.3623 136.909 61.4877 136.832 60.164 136.412C59.501 136.202 58.9274 135.891 58.5617 135.422C58.1814 134.934 58.0658 134.328 58.2269 133.63C58.7138 131.52 60.4604 130.26 62.4383 129.556C64.2121 128.925 66.2415 128.711 67.9291 128.741C66.8419 125.223 67.0021 121.1 67.6774 117.627C68.0339 115.793 68.5368 114.126 69.0867 112.805C69.3617 112.145 69.6507 111.566 69.9424 111.094C70.2311 110.627 70.5356 110.244 70.8487 109.995L70.9895 109.883ZM71.2191 110.737C71.0399 110.912 70.8387 111.17 70.6247 111.516C70.361 111.943 70.0905 112.482 69.8273 113.114C69.3009 114.378 68.8125 115.992 68.4649 117.78C67.768 121.364 67.6488 125.582 68.8691 129.027L69.0695 129.593L68.4699 129.562C66.7551 129.472 64.5639 129.651 62.7074 130.312C60.8453 130.975 59.4064 132.087 59.0086 133.81C58.8931 134.311 58.985 134.66 59.1943 134.929C59.4183 135.216 59.8166 135.461 60.4065 135.648C61.5884 136.023 63.3426 136.107 65.3083 136.038C67.2619 135.97 69.3739 135.752 71.2498 135.551C71.4018 135.534 71.5525 135.518 71.7016 135.502C73.376 135.321 74.8455 135.162 75.7595 135.162C76.6766 135.162 77.2835 134.965 77.6539 134.689C78.0111 134.423 78.1833 134.058 78.1924 133.62C78.2116 132.7 77.4988 131.425 76.0718 130.355C75.6819 130.062 75.4117 129.573 75.2159 129.01C75.0167 128.437 74.8763 127.733 74.7807 126.948C74.5895 125.376 74.5719 123.423 74.6584 121.417C74.8199 117.669 75.3478 113.674 75.8245 111.535L71.2191 110.737Z" fill="#111111"/>
<path d="M59.8373 38.7787C54.8582 42.5115 58.9426 57.4704 61.6072 64.4832C62.4172 66.7428 60.8301 67.8226 55.2807 76.4099C50.8411 83.2798 56.1512 87.1969 59.3611 88.2967C55.3814 91.3349 48.4275 98.8255 52.4502 104.482C56.4728 110.139 63.2734 108.541 66.1709 107.035C66.0898 107.471 67.3841 109.122 73.2095 112.244C79.0349 115.366 84.4496 109.777 86.4287 106.592C104.469 113.151 104.551 103.186 102.337 97.3836C105.613 97.3863 111.652 95.1646 109.607 86.2564C107.562 77.3483 94.2422 72.0451 87.8378 70.507C102.337 68.3164 87.2182 58.744 80.2263 55.5194C73.2344 52.2947 66.0612 34.1127 59.8373 38.7787Z" fill="#00BC68"/>
<path fill-rule="evenodd" clip-rule="evenodd" d="M62.1812 38.43C61.4794 38.3804 60.7808 38.5734 60.0738 39.1034C58.9554 39.9419 58.3018 41.4473 58.032 43.4412C57.7634 45.426 57.8855 47.8237 58.2488 50.3476C58.9751 55.3925 60.6526 60.8559 61.9781 64.3445L61.9807 64.3516C62.2039 64.9742 62.2691 65.5427 62.1285 66.1823C61.9921 66.8026 61.6672 67.4643 61.1673 68.2859C60.698 69.0572 60.0541 70.0013 59.2248 71.2171C59.1679 71.3005 59.1102 71.3851 59.0516 71.4711C58.1356 72.8144 56.9981 74.4888 55.6135 76.6314C54.5327 78.3039 54.0619 79.7705 53.9903 81.0372C53.9189 82.301 54.2432 83.3906 54.7931 84.3159C55.9019 86.182 57.9362 87.3896 59.4871 87.921C59.627 87.969 59.7292 88.0901 59.753 88.2362C59.7767 88.3822 59.7181 88.5295 59.6004 88.6193C57.6371 90.1181 54.9454 92.7133 53.2468 95.614C51.5437 98.5223 50.899 101.618 52.773 104.254C54.7005 106.964 57.282 107.933 59.747 108.048C62.2282 108.163 64.5827 107.41 65.9818 106.683C66.1178 106.612 66.2823 106.625 66.4056 106.716C66.5188 106.8 66.579 106.937 66.5662 107.076C66.5682 107.082 66.5715 107.092 66.5769 107.104C66.5987 107.156 66.645 107.239 66.7327 107.355C66.9079 107.586 67.2185 107.908 67.7261 108.326C68.7395 109.161 70.4942 110.34 73.3949 111.895C76.1456 113.369 78.8009 112.801 81.0502 111.444C83.311 110.08 85.1178 107.939 86.0839 106.384C86.1841 106.223 86.3834 106.154 86.5617 106.219C91.0469 107.849 94.3789 108.439 96.8159 108.339C99.244 108.24 100.757 107.46 101.666 106.37C102.583 105.271 102.938 103.793 102.917 102.202C102.896 100.612 102.5 98.9488 101.958 97.5304C101.911 97.4071 101.928 97.2685 102.003 97.1598C102.078 97.0511 102.202 96.9862 102.334 96.9863C103.9 96.9876 106.113 96.4534 107.679 94.8822C109.222 93.3347 110.212 90.7054 109.212 86.35C108.227 82.0592 104.506 78.5809 100.147 75.9657C95.8024 73.3592 90.9111 71.6623 87.7401 70.9008C87.5535 70.856 87.4248 70.6853 87.433 70.4936C87.4412 70.3019 87.5841 70.1428 87.7738 70.1142C89.5645 69.8436 90.8689 69.4629 91.7777 69.011C92.6861 68.5592 93.1663 68.0536 93.3731 67.5468C93.5778 67.0449 93.5438 66.4691 93.2702 65.81C92.9946 65.1462 92.4864 64.4267 91.7927 63.6772C89.0062 60.6664 83.5371 57.4937 80.0542 55.8874C78.2184 55.0407 76.4101 53.2367 74.6549 51.149C73.5617 49.8486 72.4627 48.4043 71.3774 46.9781C70.7201 46.1142 70.0677 45.2569 69.4249 44.4423C67.7007 42.2578 66.0371 40.3698 64.4398 39.3106C63.6455 38.7839 62.8941 38.4804 62.1812 38.43ZM75.269 50.6327C77.0197 52.7152 78.7301 54.3932 80.3902 55.1589C83.8991 56.7772 89.4854 60.0031 92.3815 63.1323C93.1084 63.9178 93.685 64.7171 94.0111 65.5024C94.339 66.2923 94.4235 67.0958 94.1159 67.8498C93.8103 68.5989 93.1476 69.2256 92.1349 69.7293C91.4727 70.0585 90.6469 70.3426 89.6415 70.5772C92.7706 71.4855 96.855 73.0552 100.559 75.2778C104.973 77.9257 108.934 81.553 109.994 86.1705C111.039 90.7233 110.032 93.6589 108.247 95.4486C106.673 97.0279 104.551 97.655 102.898 97.7689C103.366 99.1327 103.699 100.682 103.719 102.191C103.742 103.895 103.364 105.587 102.282 106.884C101.192 108.191 99.4405 109.035 96.8486 109.141C94.3234 109.244 90.9759 108.649 86.5902 107.082C85.5428 108.682 83.7304 110.763 81.4646 112.13C79.0553 113.584 76.0907 114.249 73.016 112.602C70.0913 111.034 68.2861 109.827 67.2162 108.946C66.6822 108.506 66.3204 108.139 66.0936 107.84C66.0315 107.758 65.9773 107.678 65.9317 107.601C64.4112 108.308 62.1248 108.962 59.7097 108.849C57.0444 108.725 54.2143 107.665 52.1192 104.719C49.9705 101.697 50.7914 98.2194 52.5545 95.2086C54.1639 92.4603 56.6088 90.0014 58.5555 88.4213C57.0066 87.7605 55.1814 86.54 54.1034 84.7257C53.4795 83.6756 53.1081 82.4291 53.1894 80.9919C53.2704 79.5576 53.8007 77.9584 54.9397 76.196C56.3298 74.0449 57.4717 72.364 58.3888 71.0191C58.4451 70.9365 58.5005 70.8552 58.5551 70.7752C59.3917 69.5487 60.0241 68.6215 60.482 67.8689C60.9712 67.0648 61.2381 66.4961 61.345 66.0101C61.4473 65.5445 61.4076 65.1315 61.2268 64.6258C59.888 61.1015 58.1918 55.581 57.4548 50.4619C57.0864 47.9028 56.9543 45.4226 57.237 43.3336C57.5185 41.2537 58.2215 39.4895 59.5926 38.4616C60.4417 37.825 61.3287 37.5656 62.2377 37.6298C63.1357 37.6932 64.0204 38.0699 64.8831 38.642C66.5998 39.7803 68.3334 41.7645 70.0546 43.9453C70.7173 44.785 71.3773 45.6526 72.0372 46.5201C73.1111 47.9318 74.1848 49.3431 75.269 50.6327Z" fill="#111111"/>
<path d="M79.5542 63.8836C80.3586 66.8297 79.1455 69.7272 76.8446 70.3554C74.5438 70.9837 72.0265 69.1047 71.2221 66.1586C70.4177 63.2125 71.6308 60.3149 73.9317 59.6867C76.2326 59.0585 78.7499 60.9375 79.5542 63.8836Z" fill="white"/>
<path fill-rule="evenodd" clip-rule="evenodd" d="M76.6333 69.5816C78.3396 69.1157 79.5196 66.8026 78.7803 64.0949C78.0411 61.3872 75.8492 59.9948 74.143 60.4606C72.4367 60.9265 71.2567 63.2396 71.996 65.9473C72.7353 68.655 74.9271 70.0474 76.6333 69.5816ZM76.8446 70.3554C79.1455 69.7272 80.3586 66.8297 79.5542 63.8836C78.7499 60.9375 76.2326 59.0585 73.9317 59.6867C71.6308 60.3149 70.4177 63.2125 71.2221 66.1586C72.0265 69.1047 74.5438 70.9837 76.8446 70.3554Z" fill="#111111"/>
<path d="M78.4363 62.271C79.0158 64.3287 78.0557 66.3994 76.2919 66.8961C74.5282 67.3928 72.6286 66.1273 72.0492 64.0696C71.4697 62.0119 72.4298 59.9411 74.1936 59.4444C75.9573 58.9478 77.8569 60.2133 78.4363 62.271Z" fill="#111111"/>
<path d="M92.3713 53.3522C92.3713 55.9594 91.168 68.4367 91.168 71.2015C91.168 75.2117 91.5237 77.4187 94.9787 77.4187C95.781 77.4187 97.2207 77.301 97.586 74.4096C97.9871 71.2346 99.9926 50.7443 94.9787 44.5279C93.1813 42.2993 92.3713 41.1182 91.3687 41.3189C90.7543 41.4417 88.6966 42.0798 87.9593 42.5222C87.0377 43.0752 86.3681 43.1787 84.7092 42.6257C83.0503 42.0727 78.3686 41.4458 80.7393 44.5277C82.7449 47.135 86.756 47.135 88.7643 45.9435C89.9931 46.435 92.3713 49.2737 92.3713 53.3522Z" fill="#FDFBEF"/>
<path d="M43.436 55.9594C41.2299 57.3633 38.422 58.3642 37.6199 58.7662C35.408 62.7476 36.8324 68.9945 37.62 71.2006C38.6228 74.0093 41.2682 80.7487 48.8511 84.2368C52.7366 86.024 61.2854 85.5648 61.2854 83.4345C61.2854 81.3042 60.2826 78.0195 58.6781 78.0195C57.0737 78.0195 55.2687 78.6212 51.2576 77.8199C45.3637 76.6424 42.0808 65.3552 42.6338 61.976C45.3986 62.3447 46.3625 59.2761 46.8454 57.9649C47.5226 56.1263 48.388 53.5064 46.8454 52.3494C45.241 51.1461 45.8147 54.4456 43.436 55.9594Z" fill="#FDFBEF"/>
<path fill-rule="evenodd" clip-rule="evenodd" d="M92.5644 42.2922C92.031 41.7624 91.711 41.6489 91.4189 41.7074L91.4188 41.7074C91.1372 41.7637 90.4886 41.9473 89.8096 42.1761C89.1236 42.4071 88.4638 42.6653 88.1371 42.8613C87.6461 43.156 87.1834 43.3538 86.6033 43.3844C86.0378 43.4143 85.3987 43.283 84.5538 43.0014C84.1657 42.8721 83.5864 42.7342 82.9719 42.6487C82.3538 42.5627 81.7299 42.5339 81.2431 42.6057C80.7216 42.6825 80.5245 42.8459 80.4751 42.9834C80.4492 43.0555 80.4361 43.1837 80.5118 43.4027C80.5882 43.6238 80.7472 43.9125 81.0287 44.2784C81.9493 45.4752 83.3423 46.0891 84.7691 46.257C86.2021 46.4255 87.6154 46.137 88.531 45.5937C88.6382 45.5301 88.7689 45.52 88.8847 45.5662C89.2624 45.7173 89.6864 46.0282 90.1025 46.4476C90.5238 46.8724 90.9565 47.4281 91.3464 48.0956C92.1264 49.431 92.7439 51.2295 92.7439 53.3474C92.7439 54.6479 92.4515 58.3314 92.1571 62.0411L92.141 62.2447C91.8391 66.0478 91.5406 69.835 91.5406 71.1967C91.5406 73.2202 91.6365 74.6766 92.1087 75.6313C92.3355 76.09 92.6465 76.4244 93.082 76.6505C93.5254 76.8807 94.1258 77.0128 94.9502 77.0128C95.3351 77.0128 95.7781 76.9809 96.1724 76.6762C96.5627 76.3747 96.9842 75.7413 97.1594 74.3545C97.3584 72.7793 97.9582 66.8822 97.8833 60.6092C97.8458 57.4725 97.6397 54.2535 97.1344 51.439C96.6267 48.6118 95.8262 46.2482 94.6379 44.7749C94.4463 44.5373 94.2671 44.3133 94.0988 44.1027C93.4653 43.3107 92.9845 42.7095 92.5644 42.2922ZM94.7444 43.6254C94.9089 43.8311 95.0812 44.0467 95.2624 44.2713C96.581 45.9061 97.41 48.435 97.924 51.2973C98.4402 54.1723 98.6477 57.4399 98.6855 60.5997C98.761 66.9197 98.1574 72.8552 97.9553 74.455C97.7652 75.9597 97.2843 76.8308 96.6629 77.311C96.0454 77.7881 95.3675 77.8151 94.9502 77.8151C94.047 77.8151 93.3073 77.6713 92.7123 77.3624C92.1093 77.0494 91.6836 76.5814 91.3896 75.987C90.8202 74.8356 90.7383 73.1835 90.7383 71.1967C90.7383 69.7937 91.0414 65.9598 91.3412 62.1812L91.3514 62.0532C91.6498 58.2935 91.9417 54.6158 91.9417 53.3474C91.9417 51.3868 91.37 49.7267 90.6537 48.5002C90.2954 47.8868 89.9032 47.3858 89.5329 47.0126C89.2375 46.7148 88.9677 46.5099 88.7508 46.39C87.6678 46.9649 86.1624 47.2286 84.6753 47.0537C83.0931 46.8676 81.4777 46.1779 80.3928 44.7675C80.0816 44.3629 79.8684 43.997 79.7535 43.6647C79.638 43.3302 79.6146 43.0061 79.7201 42.7122C79.9337 42.1177 80.5662 41.8946 81.1261 41.812C81.7208 41.7244 82.4302 41.7634 83.0824 41.8541C83.7381 41.9454 84.3661 42.0933 84.8075 42.2404C85.6215 42.5117 86.1466 42.6052 86.561 42.5833C86.9608 42.5622 87.2938 42.4318 87.7244 42.1735C88.135 41.9271 88.8727 41.6451 89.5535 41.4158C90.2413 41.1842 90.9287 40.9873 91.2615 40.9208L91.3402 41.3141L91.2614 40.9208C91.2615 40.9208 91.2615 40.9208 91.2615 40.9208C91.972 40.7786 92.5582 41.1553 93.1298 41.723C93.5856 42.1758 94.1056 42.8263 94.7444 43.6254ZM45.7209 53.4119C45.3766 54.2574 44.8711 55.4986 43.6228 56.293C42.4943 57.011 41.2193 57.6218 40.1349 58.1006C39.6356 58.3211 39.1737 58.5149 38.7842 58.6783C38.7501 58.6926 38.7165 58.7067 38.6835 58.7205C38.3416 58.864 38.0706 58.9787 37.8819 59.0667C36.8846 60.9411 36.6942 63.3537 36.8665 65.6138C37.0416 67.9102 37.5863 69.9884 37.9692 71.061L37.5915 71.1958L37.9692 71.061C38.9648 73.8494 41.5629 80.4511 48.9902 83.8676C50.8479 84.7221 53.8811 85.0553 56.4727 84.8995C57.7644 84.8218 58.9116 84.6244 59.7228 84.3283C60.1298 84.1797 60.4274 84.0152 60.6165 83.8483C60.8014 83.6852 60.8557 83.5463 60.8557 83.4297C60.8557 82.4156 60.6147 81.1142 60.1844 80.0771C59.9691 79.5584 59.7159 79.1288 59.4411 78.8354C59.1672 78.543 58.9023 78.4158 58.6496 78.4158C58.2635 78.4158 57.8481 78.4558 57.3749 78.5013C56.0099 78.6327 54.1638 78.8104 51.1505 78.2084C49.5616 77.891 48.1792 76.8991 47.0167 75.5835C45.853 74.2665 44.8873 72.6004 44.1322 70.88C43.3765 69.1579 42.8254 67.3666 42.4978 65.7884C42.1727 64.2219 42.0591 62.8249 42.2093 61.9064C42.2444 61.6924 42.4432 61.545 42.6582 61.5736C43.8484 61.7323 44.6508 61.1688 45.2429 60.3589C45.7907 59.6096 46.123 58.6945 46.3657 58.0263C46.3916 57.955 46.4165 57.8866 46.4404 57.8215C46.78 56.8995 47.1481 55.8283 47.2504 54.8548C47.3533 53.8757 47.1773 53.1163 46.5762 52.6655C46.3994 52.5329 46.2952 52.4961 46.2461 52.4886C46.2192 52.4844 46.2113 52.4865 46.1891 52.5038C46.1499 52.5346 46.091 52.6044 46.0136 52.7486C45.9382 52.8891 45.8627 53.0657 45.7736 53.283C45.7564 53.3248 45.7389 53.3678 45.7209 53.4119ZM46.3684 51.6957C46.6043 51.7321 46.8332 51.8555 47.0575 52.0237C47.999 52.7298 48.1616 53.8589 48.0482 54.9387C47.9341 56.0241 47.5308 57.1821 47.1932 58.0987C47.1703 58.1611 47.1459 58.2285 47.1199 58.3003C46.8815 58.9592 46.5107 59.984 45.8905 60.8323C45.2511 61.707 44.3126 62.4376 42.9599 62.4017C42.9055 63.183 43.0104 64.3105 43.2833 65.6253C43.5999 67.1506 44.1343 68.8883 44.8668 70.5576C45.6002 72.2286 46.5257 73.8162 47.6179 75.0523C48.7114 76.2899 49.9495 77.1504 51.3076 77.4217C54.192 77.9979 55.8611 77.8372 57.2146 77.7069C57.7214 77.6581 58.184 77.6136 58.6496 77.6136C59.1991 77.6136 59.6612 77.8969 60.0266 78.287C60.391 78.676 60.6893 79.2008 60.9253 79.7696C61.3974 80.9073 61.6579 82.3135 61.6579 83.4297C61.6579 83.8456 61.4451 84.1871 61.1472 84.4499C60.8537 84.7089 60.453 84.9157 59.9979 85.0819C59.0848 85.4152 57.8519 85.6203 56.5208 85.7003C53.8666 85.8599 50.6827 85.5291 48.6549 84.5964C40.9164 81.0368 38.2238 74.1597 37.2137 71.3307C36.809 70.1971 36.2476 68.0488 36.0666 65.6748C35.8862 63.3093 36.0786 60.6585 37.2407 58.5666C37.2799 58.4961 37.3394 58.439 37.4116 58.4028C37.6271 58.2948 37.9679 58.1509 38.373 57.9808C38.406 57.967 38.4394 57.953 38.4734 57.9387C38.8635 57.7751 39.3188 57.5841 39.8109 57.3668C40.8824 56.8936 42.1144 56.302 43.1921 55.6162C44.2196 54.9623 44.6388 53.9379 44.9926 53.0731C45.0056 53.0413 45.0186 53.0097 45.0314 52.9784C45.1195 52.7638 45.2092 52.551 45.3068 52.3691C45.4025 52.191 45.5246 52.0054 45.6944 51.8724C45.8812 51.726 46.1103 51.6559 46.3684 51.6957Z" fill="#111111"/>
<path d="M74.2871 66.089C74.7577 69.1064 73.3453 71.8323 71.1325 72.1774C68.9197 72.5224 66.7444 70.356 66.2739 67.3386C65.8033 64.3211 67.2157 61.5953 69.4285 61.2502C71.6413 60.9051 73.8166 63.0715 74.2871 66.089Z" fill="white"/>
<path fill-rule="evenodd" clip-rule="evenodd" d="M73.0038 69.7663C73.4883 68.8312 73.7063 67.5705 73.4945 66.2126C73.2827 64.8547 72.6913 63.7202 71.9451 62.9771C71.1985 62.2335 70.3453 61.9191 69.5521 62.0428C68.7589 62.1665 68.042 62.7257 67.5572 63.6613C67.0727 64.5964 66.8548 65.8571 67.0665 67.215C67.2783 68.5729 67.8698 69.7074 68.6159 70.4505C69.3626 71.1941 70.2157 71.5084 71.0089 71.3847C71.8021 71.261 72.519 70.7018 73.0038 69.7663ZM71.1325 72.1774C73.3453 71.8323 74.7577 69.1064 74.2871 66.089C73.8166 63.0715 71.6413 60.9051 69.4285 61.2502C67.2157 61.5953 65.8033 64.3211 66.2739 67.3386C66.7444 70.356 68.9197 72.5224 71.1325 72.1774Z" fill="#111111"/>
<path d="M73.8113 64.4663C74.3908 66.524 73.4307 68.5947 71.6669 69.0914C69.9032 69.5881 68.0036 68.3226 67.4242 66.2649C66.8447 64.2072 67.8048 62.1364 69.5686 61.6398C71.3323 61.1431 73.2319 62.4086 73.8113 64.4663Z" fill="#111111"/>
<path d="M71.0297 75.9216C73.0524 74.5318 72.5054 75.9378 71.9791 76.8145C72.609 78.5778 74.599 82.3033 77.5195 83.099C80.4399 83.8946 81.6512 78.425 80.7814 75.3782C80.413 75.3895 79.214 75.2327 79.4692 74.6808C79.6421 74.3068 80.5407 73.5416 81.6405 73.3234C82.742 73.1049 81.9946 74.8493 81.5184 75.3556C82.3619 76.8051 82.2103 80.1337 80.9696 82.9747C79.4188 86.5259 76.4705 84.9752 74.756 83.1837C73.3843 81.7504 71.7303 78.7277 71.0748 77.3954C70.2169 77.4832 69.0069 77.3113 71.0297 75.9216Z" fill="#111111"/>
</svg>
