<svg width="85" height="126" viewBox="0 0 85 126" fill="none" xmlns="http://www.w3.org/2000/svg">
<path d="M37.0281 36.2375C30.2841 37.879 27.9127 54.9775 27.57 63.3215C27.4098 65.9888 25.3083 66.3993 15.8502 72.76C8.28375 77.8485 12.0121 84.1818 14.8222 86.7124C9.40774 88.0802 -1.00988 92.7037 0.635008 100.254C2.27989 107.805 9.95602 109.146 13.5885 108.872C13.3143 109.282 13.9174 111.539 18.5231 117.284C23.1288 123.03 31.1339 119.678 34.5608 117.284C50.1872 131.893 54.6421 121.73 54.9162 114.822C58.2746 116.259 65.4435 116.628 67.2529 106.615C69.0623 96.6021 57.7263 85.3445 51.8321 80.9673C67.6641 85.0709 56.3555 68.6563 50.5984 62.2956C44.8413 55.935 45.4582 34.1857 37.0281 36.2375Z" fill="#00BC68"/>
<path fill-rule="evenodd" clip-rule="evenodd" d="M39.608 36.859C38.8991 36.4956 38.0862 36.3866 37.1185 36.6221C35.5858 36.9952 34.2467 38.2626 33.093 40.1894C31.944 42.1085 31.0163 44.6205 30.2816 47.3646C28.8128 52.8504 28.1369 59.1799 27.9664 63.3328L27.966 63.3404C27.9222 64.0685 27.7419 64.6705 27.3229 65.2555C26.9156 65.8244 26.2973 66.3558 25.4252 66.9773C24.6067 67.5605 23.5331 68.2444 22.1488 69.1262C22.054 69.1865 21.9578 69.2478 21.8602 69.31C20.3314 70.2842 18.43 71.5003 16.0696 73.0877C14.2224 74.3299 13.0903 75.6307 12.4571 76.9043C11.8252 78.1753 11.679 79.4416 11.8382 80.6373C12.1589 83.0466 13.7236 85.1821 15.0861 86.4091C15.1962 86.5082 15.2427 86.6599 15.2071 86.8036C15.1715 86.9474 15.0596 87.0598 14.916 87.0961C12.241 87.7719 8.33596 89.2521 5.31515 91.4823C2.28709 93.7179 0.250624 96.6206 1.02249 100.164C1.8141 103.798 4.04775 105.93 6.53634 107.131C9.03942 108.339 11.7934 108.599 13.5539 108.467C13.7069 108.455 13.8531 108.532 13.9304 108.665C14.0029 108.789 14.0031 108.941 13.9327 109.065C13.9314 109.073 13.9297 109.089 13.9296 109.113C13.9291 109.181 13.941 109.29 13.9808 109.449C14.0604 109.767 14.2392 110.236 14.5774 110.888C15.2528 112.189 16.5373 114.166 18.8317 117.028C21.0196 119.758 24.0111 120.34 26.9242 119.934C29.8506 119.526 32.6497 118.122 34.3267 116.95C34.4819 116.842 34.6919 116.857 34.8303 116.986C38.7176 120.621 41.8819 122.686 44.433 123.654C46.9759 124.619 48.8842 124.485 50.3093 123.76C51.7451 123.029 52.7635 121.661 53.4424 120.017C54.1204 118.375 54.4439 116.494 54.511 114.801C54.5163 114.669 54.586 114.549 54.6976 114.478C54.8091 114.408 54.9482 114.396 55.0696 114.448C56.6833 115.138 59.2007 115.563 61.5115 114.635C63.7912 113.719 65.9671 111.445 66.8538 106.539C67.7286 101.697 65.4281 96.4955 62.1022 91.908C58.7862 87.3344 54.5099 83.4536 51.5885 81.2841C51.4344 81.1697 51.383 80.9622 51.4658 80.789C51.5487 80.6159 51.7425 80.5257 51.9283 80.5738C53.8861 81.0813 55.3962 81.2637 56.5333 81.1984C57.6701 81.1332 58.397 80.8235 58.842 80.3847C59.2831 79.9498 59.5032 79.3327 59.5117 78.5305C59.5202 77.7232 59.3127 76.7588 58.9291 75.6854C57.3885 71.3757 53.1656 65.7294 50.2966 62.5596C48.7924 60.8977 47.7311 58.2686 46.8466 55.3638C46.2959 53.5551 45.8027 51.5981 45.3153 49.6643C45.0199 48.4921 44.7267 47.3285 44.424 46.2117C43.6138 43.2214 42.734 40.5544 41.5558 38.7644C40.9697 37.8739 40.3267 37.2275 39.608 36.859ZM47.6141 55.1301C48.4965 58.0282 49.5171 60.503 50.8914 62.0213C53.7795 65.2122 58.0895 70.9536 59.6845 75.4154C60.0847 76.5349 60.3238 77.5999 60.3138 78.539C60.3039 79.4833 60.0404 80.3297 59.4053 80.956C58.774 81.5784 57.832 81.9275 56.5793 81.9993C55.7184 82.0487 54.6933 81.9685 53.4868 81.7452C56.3178 84.0432 59.8837 87.4814 62.7517 91.4372C66.1149 96.076 68.5778 101.509 67.6432 106.681C66.7205 111.788 64.4073 114.336 61.8106 115.379C59.4907 116.311 57.023 116.01 55.2818 115.392C55.1682 117.006 54.831 118.756 54.1838 120.324C53.462 122.072 52.3386 123.627 50.6731 124.474C48.9969 125.327 46.8444 125.427 44.1485 124.404C41.5147 123.405 38.3385 121.328 34.5178 117.791C32.7471 118.973 29.9667 120.32 27.035 120.729C23.9374 121.16 20.6235 120.546 18.2057 117.53C15.8944 114.647 14.5745 112.624 13.8654 111.257C13.5114 110.575 13.303 110.045 13.2027 109.644C13.1713 109.519 13.1492 109.401 13.1374 109.293C11.2718 109.357 8.62592 109.03 6.1876 107.853C3.5188 106.565 1.09194 104.251 0.238659 100.335C-0.634357 96.3271 1.71554 93.1427 4.83867 90.837C7.715 88.7134 11.3348 87.2616 14.0285 86.5031C12.7182 85.1544 11.3555 83.091 11.043 80.7432C10.8646 79.4032 11.0294 77.9739 11.7387 76.5472C12.4467 75.1231 13.6859 73.724 15.622 72.422C17.9907 70.829 19.8987 69.6086 21.4291 68.6335C21.5232 68.5735 21.6158 68.5145 21.707 68.4564C23.1025 67.5675 24.1588 66.8946 24.9596 66.3239C25.8151 65.7143 26.3434 65.2455 26.6707 64.7884C26.9858 64.3484 27.1282 63.8998 27.165 63.2961C27.3373 59.105 28.0185 52.7154 29.5067 47.1572C30.2506 44.3785 31.2017 41.7866 32.4048 39.7773C33.6032 37.7757 35.0896 36.2903 36.9288 35.8426C38.0687 35.5652 39.0806 35.6871 39.974 36.1451C40.8577 36.5982 41.5945 37.364 42.2259 38.3233C43.4829 40.233 44.3894 43.0162 45.1983 46.0019C45.5093 47.1496 45.8056 48.3258 46.102 49.5023C46.5846 51.4182 47.0674 53.3348 47.6141 55.1301Z" fill="#111111"/>
<path fill-rule="evenodd" clip-rule="evenodd" d="M33.4578 80.3819C33.1698 80.2162 33.0706 79.8484 33.2363 79.5604C33.6124 78.9067 34.0975 78.4649 34.6535 78.2106C35.2042 77.9586 35.7826 77.9096 36.3221 77.97C37.3825 78.0887 38.3743 78.6381 38.9676 79.0957C39.2307 79.2987 39.2794 79.6765 39.0764 79.9396C38.8735 80.2027 38.4957 80.2515 38.2326 80.0485C37.7462 79.6733 36.9582 79.2521 36.1882 79.1658C35.8124 79.1237 35.4628 79.1636 35.1541 79.3048C34.8505 79.4437 34.5447 79.6993 34.2794 80.1605C34.1137 80.4485 33.7458 80.5476 33.4578 80.3819Z" fill="#111111"/>
<path d="M56.4553 47.0659C56.3496 47.9456 55.5506 48.5731 54.6708 48.4673C53.7911 48.3615 53.1636 47.5626 53.2694 46.6828C53.3752 45.803 54.1741 45.1756 55.0539 45.2814C55.9337 45.3872 56.5611 46.1861 56.4553 47.0659Z" fill="white"/>
<path fill-rule="evenodd" clip-rule="evenodd" d="M54.7666 47.6708C55.2065 47.7237 55.606 47.41 55.6588 46.9701C55.7117 46.5302 55.398 46.1308 54.9581 46.0779C54.5182 46.025 54.1188 46.3387 54.0659 46.7786C54.013 47.2185 54.3267 47.6179 54.7666 47.6708ZM54.6708 48.4673C55.5506 48.5731 56.3496 47.9456 56.4553 47.0659C56.5611 46.1861 55.9337 45.3872 55.0539 45.2814C54.1741 45.1756 53.3752 45.803 53.2694 46.6828C53.1636 47.5626 53.7911 48.3615 54.6708 48.4673Z" fill="#111111"/>
<path d="M60.819 40.9181C60.6471 42.3477 59.3488 43.3673 57.9192 43.1954C56.4896 43.0235 55.47 41.7252 55.6419 40.2956C55.8138 38.866 57.1121 37.8464 58.5417 38.0183C59.9713 38.1902 60.9909 39.4885 60.819 40.9181Z" fill="white"/>
<path fill-rule="evenodd" clip-rule="evenodd" d="M58.015 42.3989C59.0047 42.5179 59.9035 41.8121 60.0225 40.8223C60.1415 39.8326 59.4357 38.9338 58.4459 38.8148C57.4562 38.6958 56.5574 39.4016 56.4384 40.3914C56.3194 41.3811 57.0252 42.2799 58.015 42.3989ZM57.9192 43.1954C59.3488 43.3673 60.6471 42.3477 60.819 40.9181C60.9909 39.4885 59.9713 38.1902 58.5417 38.0183C57.1121 37.8464 55.8138 38.866 55.6419 40.2956C55.47 41.7252 56.4896 43.0235 57.9192 43.1954Z" fill="#111111"/>
<path d="M82.866 22.1598C81.7156 31.7273 71.779 38.4006 60.6719 37.0651C49.5648 35.7296 41.4932 26.891 42.6436 17.3235C43.794 7.75599 53.7306 1.08263 64.8377 2.41813C75.9448 3.75363 84.0164 12.5923 82.866 22.1598Z" fill="white"/>
<path fill-rule="evenodd" clip-rule="evenodd" d="M60.7676 36.2686C71.5505 37.5651 80.9849 31.0842 82.0695 22.064C83.1541 13.0438 75.5249 4.51113 64.742 3.21461C53.9591 1.9181 44.5247 8.39903 43.4401 17.4193C42.3555 26.4395 49.9847 34.9721 60.7676 36.2686ZM60.6719 37.0651C71.779 38.4006 81.7156 31.7273 82.866 22.1598C84.0164 12.5923 75.9448 3.75363 64.8377 2.41813C53.7306 1.08263 43.794 7.75599 42.6436 17.3235C41.4932 26.891 49.5648 35.7296 60.6719 37.0651Z" fill="#111111"/>
<path fill-rule="evenodd" clip-rule="evenodd" d="M72.4618 12.7096C73.0975 13.9154 73.1815 15.4462 72.5813 16.6864C72.3726 17.1175 72.1062 17.525 71.7952 17.9063C72.2077 18.1566 72.5736 18.485 72.8491 18.8705C73.3458 19.5656 73.5544 20.4611 73.1792 21.3912C72.725 22.517 71.8378 23.1881 70.763 23.5424C70.4958 23.6305 70.2161 23.6994 69.927 23.7515C69.2159 25.3181 68.0492 26.6308 66.4551 27.2111C64.5355 27.91 62.6765 27.0769 61.5957 25.7183C61.4899 25.5854 61.391 25.4466 61.2997 25.3028C61.287 25.3074 61.2741 25.3117 61.261 25.3155C61.1785 25.3394 61.0565 25.354 60.9264 25.3006C60.7935 25.2459 60.7128 25.1452 60.6675 25.0555C60.5581 24.8388 60.5373 24.6146 60.5413 24.4269C60.542 24.3927 60.5437 24.3581 60.546 24.3237C59.9939 24.175 59.4442 23.9736 58.9263 23.7185C57.7972 23.1622 56.7831 22.332 56.2519 21.1974C55.2934 19.15 56.0449 16.8275 57.0398 15.1393C57.6158 14.1618 58.3096 13.3724 59.1877 12.8565C60.0562 12.3463 61.0752 12.1212 62.2799 12.2129C62.5375 11.9495 62.8184 11.7109 63.1213 11.5038C64.2857 10.7074 65.7512 10.3953 67.3957 10.9058C67.8654 10.751 68.3708 10.6572 68.915 10.637C70.5932 10.5748 71.8186 11.4894 72.4618 12.7096ZM68.6539 11.458C68.7495 11.4488 68.8465 11.4423 68.9448 11.4387C70.2724 11.3894 71.2318 12.0966 71.7522 13.0837C72.2801 14.0851 72.3383 15.3469 71.8592 16.3369C71.6511 16.7667 71.3729 17.1744 71.0421 17.5547C70.952 17.5241 70.861 17.4972 70.7695 17.474C70.639 17.4409 70.5071 17.4114 70.374 17.3853C70.246 16.9859 70.0844 16.6028 69.8875 16.2434C69.981 16.001 70.0605 15.7495 70.1247 15.4889C70.5097 13.9272 70.0664 12.3357 68.6539 11.458ZM67.4068 11.7558C67.575 11.8171 67.746 11.8885 67.9196 11.9705C69.2258 12.5876 69.6926 13.89 69.3458 15.2969C69.3375 15.3305 69.3289 15.364 69.32 15.3974C69.2104 15.263 69.0942 15.1341 68.9712 15.0112C68.0887 14.129 66.8861 13.4427 65.6144 12.9672C66.1413 12.4385 66.7345 12.0207 67.4068 11.7558ZM66.1911 11.4763C65.1864 11.385 64.3065 11.6651 63.5741 12.1659C63.4905 12.2231 63.4086 12.2833 63.3285 12.3463C63.8044 12.429 64.2916 12.5428 64.7767 12.6868C65.1978 12.219 65.6671 11.8065 66.1911 11.4763ZM63.8119 13.2618C63.0444 13.3428 62.3952 13.6877 61.8582 14.161C62.0665 13.7617 62.3159 13.3866 62.6015 13.0505C62.9963 13.097 63.4028 13.1678 63.8119 13.2618ZM63.7417 14.0813C62.9987 14.2094 62.3768 14.6742 61.8632 15.3209C61.5925 15.6617 61.3589 16.0452 61.1617 16.4388C61.0962 17.0447 61.1279 17.6316 61.2597 18.162C61.2816 18.1288 61.3089 18.0984 61.3413 18.0721C61.5133 17.9324 61.7659 17.9585 61.9056 18.1305C61.9154 18.1426 61.9252 18.1548 61.9349 18.1673C62.3187 16.9964 62.7976 15.7566 63.4188 14.633C63.522 14.4464 63.6295 14.2622 63.7417 14.0813ZM61.3597 20.0791C61.3402 20.1486 61.3209 20.2173 61.302 20.2852C61.088 20.2554 60.889 20.2077 60.7096 20.1397C60.4402 20.0377 60.3088 19.7753 60.3205 19.2805C60.3281 18.9605 60.3974 18.6193 60.4729 18.3232C60.617 18.9223 60.8714 19.4791 61.2523 19.9518C61.2871 19.9951 61.3229 20.0376 61.3597 20.0791ZM60.3817 16.2072C60.4108 15.9826 60.4512 15.7585 60.5023 15.5366C60.7077 14.6442 61.0907 13.7614 61.6296 12.9967C60.8333 13.0164 60.167 13.2116 59.5941 13.5482C58.8683 13.9746 58.2616 14.646 57.7309 15.5465C56.778 17.1635 56.1919 19.1772 56.9785 20.8572C57.407 21.7724 58.2518 22.4919 59.2808 22.9988C59.7122 23.2114 60.1698 23.3833 60.6315 23.515C60.5729 23.0903 60.5809 22.6557 60.6682 22.2257C60.6165 22.2058 60.5662 22.1862 60.5172 22.1669C60.3111 22.0858 60.2098 21.8529 60.2909 21.6468C60.3721 21.4406 60.605 21.3393 60.8111 21.4205C60.8445 21.4336 60.8785 21.4469 60.9132 21.4604C60.957 21.362 61.0055 21.2644 61.059 21.1678C61.0679 21.133 61.077 21.0983 61.0862 21.0637C60.8558 21.0257 60.634 20.969 60.4255 20.89C59.6568 20.5988 59.5045 19.8509 59.5185 19.2615C59.5327 18.6656 59.7129 18.0446 59.8115 17.7049L59.8147 17.694C59.9482 17.2337 60.1356 16.7188 60.3817 16.2072ZM61.7418 21.7644C61.7633 21.6664 61.7859 21.5688 61.8098 21.4717C61.856 21.3936 61.9063 21.3166 61.9609 21.2407C61.989 21.2016 62.0177 21.1627 62.0469 21.1242C62.0903 21.1232 62.1337 21.1217 62.1771 21.1198C62.1931 21.2432 62.2058 21.3677 62.2149 21.4925C62.2257 21.6399 62.2313 21.786 62.2315 21.9297C62.062 21.8742 61.8985 21.8189 61.7418 21.7644ZM61.4481 23.5469C61.4913 23.2148 61.5371 22.886 61.5906 22.5609C61.7744 22.624 61.9668 22.688 62.1666 22.752C62.1464 22.8702 62.1212 22.9845 62.091 23.0942C62.0201 23.3516 61.9235 23.5757 61.802 23.763C61.696 23.7482 61.5893 23.7311 61.4821 23.7119C61.4693 23.6571 61.458 23.6021 61.4481 23.5469ZM61.9274 24.7941C62.0162 24.9408 62.1152 25.0827 62.2235 25.2189C63.1387 26.3693 64.6537 27.0132 66.1807 26.4573C67.3794 26.0209 68.3312 25.0696 68.9784 23.8632C68.3929 23.8995 67.7847 23.8829 67.1756 23.8295C66.9268 23.8077 66.6766 23.7796 66.4263 23.7462C65.2401 24.3925 63.8915 24.7002 62.4705 24.6315C62.3624 24.6262 62.2529 24.6188 62.1422 24.609C62.0769 24.673 62.0072 24.7334 61.9331 24.7897C61.9313 24.7911 61.9294 24.7926 61.9274 24.7941ZM62.6737 23.8363C63.482 23.8571 64.2598 23.7421 64.9882 23.4999C64.2742 23.3526 63.5805 23.1746 62.9389 22.9881C62.9179 23.0964 62.8931 23.203 62.8644 23.3073C62.8142 23.4893 62.7513 23.667 62.6737 23.8363ZM63.0293 22.1785C64.019 22.4716 65.1421 22.7461 66.267 22.9136C66.693 22.6591 67.0936 22.3539 67.4635 22.0004C68.0476 21.4425 68.4107 20.8921 68.5993 20.3484C67.8318 20.7215 67.0391 20.998 66.2857 21.1644C64.9691 21.4551 63.8698 21.4209 62.9867 21.1326C62.9982 21.2332 63.0076 21.3338 63.015 21.434C63.0331 21.6818 63.0386 21.9316 63.0293 22.1785ZM64.9714 20.5509C65.3224 20.5268 65.7023 20.4716 66.1128 20.381C66.9888 20.1876 67.9074 19.8367 68.76 19.3607C68.7598 19.3471 68.7595 19.3336 68.7592 19.32C68.7503 18.9939 68.6874 18.6601 68.5729 18.3185C67.8067 19.1361 66.839 19.7759 65.7745 20.2407C65.5366 20.3445 65.2653 20.4503 64.9714 20.5509ZM69.3313 18.0568C69.4239 18.3314 69.4903 18.6075 69.5276 18.885C69.6374 18.8096 69.7453 18.7321 69.8511 18.6525C69.8211 18.464 69.7842 18.2783 69.7402 18.0962C69.6051 18.0793 69.4687 18.0662 69.3313 18.0568ZM69.4788 17.2633C69.4661 17.231 69.4532 17.1988 69.44 17.1669C69.4222 17.1969 69.4043 17.2267 69.3861 17.2564C69.417 17.2585 69.448 17.2608 69.4788 17.2633ZM68.7268 16.7954C68.8223 16.6368 68.9099 16.4731 68.9892 16.3043C68.8175 16.0403 68.6225 15.7969 68.4041 15.5786C67.9022 15.0768 67.274 14.6396 66.5799 14.2743C67.2162 14.8082 67.7533 15.4582 68.1519 15.9712C68.3637 16.2438 68.5565 16.5186 68.7268 16.7954ZM68.0727 17.2634C67.9141 17.0011 67.7291 16.7345 67.5185 16.4635C67.1185 15.9488 66.6096 15.3379 66.0245 14.8557C65.5904 14.4979 65.138 14.2307 64.6779 14.1126C64.4813 14.4004 64.296 14.7044 64.1209 15.0211C63.4048 16.3163 62.8837 17.7813 62.4747 19.1222C62.5149 19.218 62.5534 19.3166 62.5899 19.4177C63.442 18.7146 64.4612 18.1642 65.5387 17.7927C66.3562 17.5108 67.2158 17.329 68.0727 17.2634ZM62.9075 20.2417C62.9652 20.233 63.0232 20.2236 63.0813 20.2136C63.9671 20.0611 64.8376 19.7744 65.4535 19.5054C66.277 19.1459 67.0199 18.6818 67.6383 18.1152C67.019 18.1974 66.3994 18.3445 65.8002 18.5511C64.6988 18.9308 63.6843 19.5054 62.8778 20.228C62.8876 20.2326 62.8975 20.2372 62.9075 20.2417ZM69.9409 19.5742C69.8083 19.6642 69.6735 19.7511 69.5369 19.8349C69.4231 20.7925 68.9281 21.7107 68.0177 22.5805C67.8443 22.7462 67.6648 22.9024 67.4797 23.0489C68.1416 23.0958 68.7778 23.0924 69.3641 23.024C69.5481 22.5517 69.6907 22.0535 69.789 21.5418C69.9151 20.8861 69.9661 20.2211 69.9409 19.5742ZM70.2772 22.8512C70.4017 22.472 70.5017 22.0841 70.5768 21.6933C70.7468 20.8093 70.7937 19.89 70.7042 19.0004C70.8909 18.8447 71.0705 18.6823 71.2416 18.5134C71.6219 18.718 71.9578 19.0031 72.1964 19.3369C72.561 19.8472 72.6914 20.4561 72.4352 21.091C72.0885 21.9506 71.4159 22.4825 70.5119 22.7805C70.4352 22.8058 70.3569 22.8293 70.2772 22.8512Z" fill="#111111"/>
<path fill-rule="evenodd" clip-rule="evenodd" d="M63.7834 9.31365C63.8957 9.50459 63.832 9.75043 63.6411 9.86274C63.3705 10.0219 63.1003 10.18 62.8307 10.3377C61.1437 11.3247 59.4813 12.2973 57.8996 13.4309C57.8327 13.4789 57.7651 13.5272 57.6971 13.5759C56.4827 14.4452 55.0982 15.4362 53.9365 16.6048C52.7102 17.8383 51.7709 19.2325 51.5356 20.8358C51.2494 22.7864 52.5742 24.2459 54.3197 24.6906C54.319 24.6742 54.3183 24.6577 54.3177 24.6412C54.271 23.395 54.543 22.1032 54.891 21.138C55.7699 18.7006 57.5346 16.7847 59.7677 15.6061C60.7218 15.1026 61.922 14.6482 63.1463 14.4837C64.3692 14.3194 65.6543 14.44 66.7322 15.1368C67.7119 15.7702 68.1117 16.7725 68.1853 17.7859C68.2584 18.792 68.0159 19.8455 67.6745 20.6791C66.494 23.5611 63.488 25.9269 60.1934 24.9417C59.9548 24.8704 59.7339 24.7827 59.5306 24.6801C58.1689 25.3494 56.6383 25.7043 55.2504 25.6335C55.413 26.3275 55.7298 26.9198 56.2437 27.3306C56.9011 27.856 57.8409 28.1707 58.8646 28.3453C59.8811 28.5186 60.9379 28.5471 61.7939 28.5308C64.9759 28.4705 68.0054 27.4767 70.4134 25.3401C71.6281 24.2624 72.1709 22.9754 72.4798 21.363C72.5215 21.1454 72.7317 21.0028 72.9492 21.0445C73.1668 21.0862 73.3094 21.2963 73.2677 21.5139C72.9387 23.2315 72.337 24.7059 70.9459 25.9402C68.3723 28.2235 65.1495 29.2695 61.8091 29.3329C60.9284 29.3496 59.8158 29.3213 58.7297 29.1361C57.6508 28.9521 56.5549 28.6063 55.7428 27.9572C54.9742 27.3429 54.5777 26.4637 54.4112 25.5329C52.2437 25.1034 50.3632 23.3002 50.7419 20.7193C51.0126 18.8748 52.0834 17.331 53.3676 16.0393C54.5785 14.8212 56.0135 13.7942 57.2181 12.9322C57.2903 12.8805 57.3618 12.8294 57.4322 12.7789C59.0466 11.6219 60.7444 10.6287 62.4296 9.64287C62.6983 9.48569 62.9667 9.32871 63.2343 9.17127C63.4253 9.05896 63.6711 9.1227 63.7834 9.31365ZM55.1308 24.8219C56.2664 24.9116 57.5592 24.6682 58.7636 24.1503C58.4924 23.8982 58.2742 23.6049 58.1072 23.2776C57.7159 22.5109 57.6238 21.5931 57.7329 20.6446C57.8025 20.0396 58.0578 18.5951 58.5743 17.4293C58.5948 17.3832 58.6158 17.3371 58.6374 17.2913C57.2912 18.3498 56.2441 19.7506 55.6457 21.4101C55.3247 22.3003 55.0773 23.4886 55.1194 24.6111C55.122 24.682 55.1258 24.7522 55.1308 24.8219ZM61.2874 15.7962C61.3272 15.8145 61.367 15.8343 61.4068 15.8556C63.2224 16.8258 64.0435 19.1812 63.2167 21.0885C62.6679 22.3546 61.6423 23.4056 60.4308 24.1754C63.1774 24.9916 65.8415 23.0376 66.9321 20.375C67.2401 19.6231 67.447 18.6954 67.3852 17.844C67.3239 16.9998 67.0045 16.2681 66.2967 15.8105C65.4341 15.2529 64.3631 15.1296 63.2531 15.2788C62.5821 15.369 61.9108 15.5571 61.2874 15.7962ZM59.5557 23.7624C60.8653 23.0378 61.9482 21.9978 62.4807 20.7694C63.1423 19.243 62.4738 17.3353 61.0287 16.5631C60.8223 16.4528 60.6554 16.4232 60.5197 16.4331C60.3838 16.4431 60.2486 16.4951 60.1096 16.597C59.8182 16.8106 59.5454 17.2179 59.3078 17.7543C58.8375 18.8156 58.595 20.1703 58.5299 20.7363C58.4322 21.5853 58.5247 22.3308 58.8217 22.913C58.9896 23.2421 59.2286 23.5307 59.5557 23.7624Z" fill="#111111"/>
<path d="M25.6559 66.9929C25.65 70.398 27.8012 73.1621 30.4606 73.1667C33.1199 73.1712 35.2805 70.4145 35.2863 67.0093C35.2922 63.6042 33.141 60.8401 30.4816 60.8355C27.8223 60.831 25.6617 63.5877 25.6559 66.9929Z" fill="white"/>
<path fill-rule="evenodd" clip-rule="evenodd" d="M30.4619 72.3644C28.4189 72.361 26.4527 70.1523 26.4581 66.9942C26.4635 63.8362 28.4372 61.6342 30.4803 61.6377C32.5233 61.6412 34.4895 63.8499 34.4841 67.008C34.4787 70.166 32.5049 72.3679 30.4619 72.3644ZM30.4606 73.1667C27.8012 73.1621 25.65 70.398 25.6559 66.9929C25.6617 63.5877 27.8222 60.831 30.4816 60.8355C33.141 60.8401 35.2922 63.6042 35.2863 67.0093C35.2805 70.4145 33.1199 73.1712 30.4606 73.1667Z" fill="#111111"/>
<path d="M26.8725 68.6466C26.8494 71.0301 28.4869 72.9783 30.5299 72.998C32.5729 73.0178 34.2478 71.1015 34.2708 68.7181C34.2938 66.3346 32.6563 64.3863 30.6133 64.3666C28.5703 64.3469 26.8955 66.2631 26.8725 68.6466Z" fill="#111111"/>
<path d="M37.468 66.7376C37.4306 70.1426 39.4244 72.9251 41.9214 72.9526C44.4183 72.98 46.4729 70.242 46.5103 66.8371C46.5478 63.4321 44.5539 60.6496 42.057 60.6221C39.56 60.5947 37.5055 63.3327 37.468 66.7376Z" fill="white"/>
<path fill-rule="evenodd" clip-rule="evenodd" d="M39.3964 70.6444C38.6998 69.6724 38.2531 68.2963 38.2702 66.7465C38.2872 65.1966 38.7641 63.8307 39.4818 62.8742C40.1999 61.9173 41.1166 61.4141 42.0481 61.4243C42.9797 61.4346 43.8851 61.9578 44.582 62.9303C45.2785 63.9024 45.7252 65.2784 45.7081 66.8283C45.6911 68.3781 45.2142 69.744 44.4965 70.7005C43.7784 71.6575 42.8617 72.1606 41.9302 72.1504C40.9986 72.1402 40.0932 71.6169 39.3964 70.6444ZM41.9214 72.9526C39.4244 72.9251 37.4306 70.1426 37.468 66.7376C37.5055 63.3327 39.56 60.5947 42.057 60.6221C44.5539 60.6496 46.5478 63.4321 46.5103 66.8371C46.4729 70.242 44.4183 72.98 41.9214 72.9526Z" fill="#111111"/>
<path d="M38.3829 67.7243C38.072 70.0875 39.4621 72.2193 41.4877 72.4858C43.5134 72.7522 45.4075 71.0525 45.7184 68.6892C46.0292 66.3259 44.6391 64.1941 42.6135 63.9277C40.5879 63.6612 38.6937 65.361 38.3829 67.7243Z" fill="#111111"/>
</svg>
