<svg width="127" height="145" viewBox="0 0 127 145" fill="none" xmlns="http://www.w3.org/2000/svg">
<path d="M92.1747 136.579C91.7147 135.63 92.0308 121.599 92.3335 115.927L91.0427 108.88L97.1645 110.69C97.1738 116.289 97.2758 128.792 97.61 134.016C97.9441 139.24 97.7189 140.585 97.5645 140.605C95.9837 142.827 88.0112 141.296 86.4296 141.033C84.7046 140.745 78.2083 139.833 80.2501 136.867C81.8322 134.568 92.7498 137.767 92.1747 136.579Z" fill="#FFEB34"/>
<path fill-rule="evenodd" clip-rule="evenodd" d="M90.5423 108.327L97.5508 110.399L97.5513 110.689C97.5605 116.291 97.6627 128.781 97.9959 133.991C98.1633 136.608 98.1914 138.265 98.157 139.275C98.1398 139.778 98.1068 140.133 98.0644 140.37C98.0437 140.486 98.0176 140.592 97.9815 140.679C97.9639 140.722 97.9362 140.779 97.8922 140.832C97.8784 140.849 97.859 140.87 97.8336 140.892C97.332 141.541 96.4244 141.867 95.441 142.03C94.4053 142.202 93.1782 142.209 91.972 142.139C89.8372 142.016 87.7033 141.648 86.6974 141.474C86.5656 141.451 86.4532 141.432 86.3627 141.417C86.2906 141.405 86.2094 141.391 86.1201 141.377C85.1615 141.221 83.2731 140.914 81.7795 140.315C80.9719 139.992 80.2049 139.555 79.7878 138.949C79.5718 138.635 79.4477 138.272 79.4665 137.867C79.4852 137.466 79.6418 137.059 79.9262 136.645C80.1954 136.254 80.6359 136.017 81.1253 135.87C81.6193 135.721 82.2106 135.651 82.8455 135.629C84.1162 135.586 85.6379 135.737 87.0677 135.92C87.6598 135.995 88.2325 136.075 88.7684 136.15C89.5442 136.259 90.243 136.357 90.8126 136.414C91.2198 136.455 91.5285 136.471 91.7343 136.46C91.7245 136.41 91.7163 136.359 91.709 136.309C91.6841 136.14 91.6633 135.927 91.6456 135.679C91.6101 135.184 91.5857 134.528 91.5705 133.757C91.54 132.213 91.5459 130.188 91.5756 128.018C91.6347 123.703 91.7882 118.801 91.9391 115.951L90.5423 108.327ZM91.5373 109.433L92.7221 115.901L92.7196 115.947C92.5686 118.777 92.4141 123.697 92.3548 128.029C92.3251 130.195 92.3193 132.21 92.3495 133.741C92.3646 134.508 92.3887 135.148 92.4228 135.624C92.4399 135.862 92.4591 136.054 92.48 136.196C92.5015 136.344 92.5201 136.402 92.5223 136.409C92.5225 136.409 92.5225 136.409 92.5225 136.409C92.5616 136.49 92.596 136.601 92.5789 136.729C92.5607 136.866 92.4905 136.973 92.4056 137.047C92.2624 137.171 92.0702 137.208 91.9375 137.225C91.6424 137.261 91.2168 137.238 90.7349 137.189C90.1545 137.131 89.4258 137.029 88.6334 136.918C88.099 136.843 87.5356 136.765 86.9692 136.692C85.5437 136.511 84.0753 136.367 82.8719 136.408C82.2699 136.429 81.7531 136.495 81.3495 136.616C80.9412 136.738 80.6944 136.904 80.5681 137.087C80.3421 137.415 80.2551 137.685 80.2449 137.903C80.235 138.116 80.2968 138.314 80.4298 138.507C80.7103 138.915 81.2924 139.281 82.0693 139.592C83.4768 140.156 85.2788 140.45 86.2469 140.608C86.3355 140.622 86.4171 140.636 86.4907 140.648C86.5843 140.664 86.6993 140.683 86.8331 140.706C87.8437 140.881 89.9308 141.241 92.0169 141.361C93.1991 141.43 94.3605 141.419 95.3136 141.261C96.2886 141.1 96.9447 140.8 97.2442 140.379L97.2759 140.334C97.282 140.311 97.2894 140.278 97.2973 140.233C97.3302 140.049 97.3615 139.737 97.3782 139.248C97.4114 138.275 97.385 136.647 97.2183 134.04C96.8889 128.891 96.7848 116.708 96.7726 110.981L91.5373 109.433Z" fill="#111111"/>
<path d="M103.235 135.563C102.703 134.677 101.914 121.74 101.798 116.049L99.9814 109.053L106.263 110.053C106.687 115.63 107.715 128.073 108.437 133.234C109.159 138.395 108.526 138.936 108.526 138.936C107.103 141.357 100.639 141.432 99.03 141.401C97.1324 141.364 90.583 141.742 92.1393 138.39C93.6957 135.038 103.9 136.67 103.235 135.563Z" fill="#FFEB34"/>
<path fill-rule="evenodd" clip-rule="evenodd" d="M99.4446 108.566L106.626 109.71L106.648 109.998C107.072 115.579 108.099 128.009 108.819 133.155C109.182 135.748 109.208 137.206 109.137 138.029C109.101 138.441 109.039 138.707 108.975 138.883C108.943 138.971 108.908 139.041 108.873 139.096C108.861 139.115 108.848 139.133 108.836 139.149C108.408 139.852 107.648 140.347 106.797 140.702C105.924 141.066 104.897 141.308 103.884 141.469C101.856 141.792 99.8113 141.803 98.9967 141.787C98.821 141.784 98.5983 141.784 98.341 141.785C97.2644 141.787 95.581 141.79 94.1903 141.518C93.3343 141.35 92.5078 141.065 92.0027 140.546C91.7417 140.278 91.5641 139.944 91.5201 139.541C91.4766 139.141 91.5674 138.706 91.7843 138.239C92.254 137.228 93.3406 136.655 94.5321 136.312C95.7423 135.964 97.1796 135.817 98.5173 135.742C99.1888 135.704 99.8418 135.685 100.434 135.667L100.522 135.665C101.082 135.648 101.581 135.634 101.996 135.608C102.349 135.586 102.613 135.557 102.791 135.521C102.776 135.471 102.762 135.419 102.75 135.369C102.712 135.211 102.674 135.013 102.637 134.784C102.563 134.324 102.487 133.716 102.411 133C102.26 131.567 102.108 129.683 101.968 127.653C101.691 123.614 101.466 118.978 101.406 116.12L99.4446 108.566ZM100.511 109.532L102.183 115.97L102.184 116.015C102.242 118.853 102.467 123.503 102.745 127.556C102.884 129.582 103.036 131.455 103.186 132.874C103.261 133.585 103.335 134.177 103.406 134.617C103.442 134.837 103.476 135.013 103.508 135.145C103.524 135.211 103.538 135.261 103.551 135.298C103.562 135.333 103.569 135.346 103.569 135.346C103.569 135.346 103.569 135.346 103.568 135.345C103.611 135.416 103.651 135.513 103.652 135.631C103.653 135.757 103.608 135.872 103.536 135.965C103.413 136.123 103.228 136.195 103.105 136.233C102.835 136.317 102.439 136.359 101.999 136.386C101.572 136.413 101.06 136.428 100.506 136.444L100.413 136.446C99.8197 136.464 99.1761 136.483 98.5164 136.52C97.1915 136.595 95.8274 136.738 94.7073 137.061C93.5685 137.389 92.7959 137.869 92.4874 138.534C92.3152 138.905 92.2703 139.191 92.2944 139.413C92.3181 139.63 92.4116 139.817 92.5755 139.986C92.92 140.34 93.5576 140.591 94.3816 140.752C95.6887 141.009 97.2599 141.006 98.3424 141.005C98.6155 141.004 98.8575 141.004 99.0563 141.008C99.8509 141.023 101.843 141.012 103.805 140.7C104.787 140.543 105.743 140.314 106.533 139.985C107.331 139.652 107.902 139.239 108.19 138.75L108.226 138.689L108.234 138.682C108.237 138.674 108.241 138.665 108.245 138.652C108.277 138.565 108.329 138.374 108.361 138.005C108.425 137.267 108.407 135.875 108.047 133.306C107.336 128.219 106.33 116.093 105.894 110.39L100.511 109.532Z" fill="#111111"/>
<path d="M32.9403 139.993C32.8105 139.127 32.5233 135.861 32.8105 134.459L33.8663 128.695L28.8587 130.175C28.8511 134.755 28.7676 133.623 28.4943 137.896C28.221 142.169 28.4052 143.27 28.5315 143.286C29.8246 145.103 32.941 143.998 34.232 143.636C34.964 143.43 39.9077 142.152 39.2868 140.228C38.586 138.056 33.1003 141.06 32.9403 139.993Z" fill="#FFEB34"/>
<path fill-rule="evenodd" clip-rule="evenodd" d="M34.3662 128.145L28.472 129.887L28.4715 130.178C28.4664 133.269 28.4274 133.734 28.3174 135.046C28.265 135.671 28.1965 136.489 28.1079 137.875C27.9709 140.017 27.9478 141.374 27.9761 142.204C27.9901 142.617 28.0173 142.911 28.0528 143.11C28.0701 143.207 28.0925 143.3 28.1249 143.378C28.1408 143.416 28.1665 143.469 28.2087 143.521C28.2204 143.535 28.2365 143.553 28.2572 143.571C29.0318 144.604 30.2962 144.766 31.4182 144.67C32.3878 144.587 33.3591 144.301 34.0116 144.11C34.1326 144.074 34.2426 144.042 34.3397 144.014C34.3678 144.006 34.4027 143.997 34.4438 143.986C34.9249 143.853 36.2509 143.487 37.4345 142.933C38.0734 142.633 38.7057 142.263 39.1419 141.82C39.5826 141.373 39.8777 140.787 39.66 140.112C39.5426 139.748 39.3175 139.481 39.0194 139.306C38.7311 139.136 38.3925 139.062 38.05 139.04C37.3713 138.995 36.5646 139.147 35.8244 139.32C35.5307 139.389 35.2502 139.46 34.9857 139.527C34.5552 139.637 34.1673 139.735 33.8349 139.794C33.5878 139.838 33.418 139.851 33.3142 139.841C33.2512 139.378 33.1586 138.426 33.1106 137.412C33.0583 136.309 33.062 135.188 33.1946 134.54L33.1954 134.536L34.3662 128.145ZM33.3713 129.252L32.4304 134.388C32.2766 135.143 32.2803 136.354 32.3322 137.449C32.3848 138.558 32.49 139.604 32.5574 140.054C32.5821 140.219 32.6652 140.362 32.7977 140.462C32.9186 140.553 33.0576 140.592 33.1766 140.609C33.4095 140.643 33.6925 140.611 33.9717 140.562C34.3279 140.498 34.7673 140.387 35.2222 140.272C35.4813 140.206 35.7453 140.139 36.002 140.079C36.7407 139.906 37.4469 139.781 37.9989 139.817C38.2717 139.835 38.4779 139.891 38.6244 139.977C38.761 140.058 38.8607 140.172 38.9184 140.351C39.0112 140.639 38.9211 140.934 38.5866 141.274C38.2477 141.618 37.7147 141.941 37.1038 142.227C35.9846 142.752 34.7209 143.101 34.2359 143.234C34.1944 143.246 34.1586 143.256 34.1291 143.264C34.0199 143.295 33.9006 143.33 33.7729 143.367C33.1159 143.56 32.2348 143.818 31.3517 143.894C30.2894 143.985 29.374 143.798 28.8513 143.064L28.8332 143.038C28.8292 143.021 28.8247 143 28.8199 142.973C28.7939 142.827 28.7684 142.576 28.7548 142.178C28.7278 141.385 28.7492 140.055 28.8855 137.924C28.9727 136.561 29.0408 135.748 29.0932 135.122C29.2008 133.836 29.2428 133.334 29.2501 130.47L33.3713 129.252Z" fill="#111111"/>
<path d="M23.8967 139.164C23.8967 138.277 24.1458 138.277 25.0721 134.561L26.5581 128.838L21.4195 129.656C21.1639 130.609 20.2324 133.037 19.6418 137.259C19.0511 141.48 19.5685 141.923 19.5685 141.923C20.7327 143.903 23.1802 143.965 24.4965 143.939C26.0487 143.909 31.4061 144.218 30.133 141.476C28.8599 138.734 23.8967 140.247 23.8967 139.164Z" fill="#FFEB34"/>
<path fill-rule="evenodd" clip-rule="evenodd" d="M27.095 128.355L21.1073 129.309L21.0464 129.536C20.9994 129.711 20.927 129.943 20.8366 130.233C20.4522 131.464 19.7412 133.741 19.2595 137.184C18.9625 139.307 18.94 140.505 18.9992 141.186C19.0288 141.527 19.08 141.752 19.1355 141.903C19.1636 141.98 19.1941 142.042 19.2263 142.093C19.2364 142.108 19.2468 142.123 19.2573 142.137C19.9115 143.229 20.9136 143.782 21.8936 144.058C22.8756 144.335 23.8656 144.342 24.5298 144.329C24.6715 144.327 24.8519 144.327 25.0609 144.327C25.9408 144.329 27.3281 144.332 28.4734 144.108C29.1765 143.97 29.8698 143.734 30.2976 143.294C30.5199 143.066 30.6728 142.78 30.7106 142.432C30.748 142.09 30.6695 141.72 30.488 141.329C30.1137 140.523 29.4676 140.04 28.7528 139.751C28.0481 139.466 27.2577 139.36 26.5464 139.31C26.2266 139.287 25.9151 139.275 25.6307 139.263C25.597 139.262 25.5637 139.261 25.5309 139.26C25.2156 139.247 24.9428 139.234 24.7161 139.21C24.5002 139.186 24.3653 139.154 24.2901 139.123C24.2954 138.783 24.3466 138.596 24.5131 138.058C24.5219 138.03 24.5309 138.001 24.5402 137.971C24.7214 137.386 25.0108 136.453 25.4533 134.677L27.095 128.355ZM19.8669 141.678C19.8663 141.676 19.8658 141.675 19.8652 141.673C19.8421 141.61 19.8009 141.46 19.7751 141.163C19.7232 140.567 19.7373 139.434 20.031 137.335C20.5024 133.966 21.1883 131.765 21.5762 130.521C21.637 130.326 21.6905 130.154 21.7347 130.005L26.0282 129.322L24.6974 134.447C24.2595 136.203 23.9745 137.123 23.7952 137.701C23.7858 137.731 23.7767 137.761 23.7679 137.789C23.5885 138.369 23.5108 138.637 23.5108 139.142C23.5108 139.29 23.5554 139.435 23.6491 139.56C23.738 139.679 23.8534 139.758 23.9613 139.81C24.1674 139.911 24.426 139.957 24.6751 139.984C24.9336 140.013 25.2335 140.026 25.5445 140.039C25.5777 140.04 25.611 140.041 25.6445 140.042C25.9302 140.054 26.229 140.065 26.5354 140.087C27.2241 140.136 27.9132 140.235 28.4972 140.471C29.0711 140.703 29.5228 141.059 29.785 141.624C29.9217 141.918 29.9543 142.139 29.9363 142.304C29.9188 142.465 29.8499 142.605 29.7247 142.734C29.4575 143.008 28.9532 143.211 28.2821 143.342C27.2204 143.55 25.9452 143.549 25.0595 143.547C24.8347 143.547 24.635 143.547 24.4702 143.55C23.818 143.563 22.9262 143.552 22.0643 143.309C21.2094 143.068 20.4153 142.609 19.9047 141.74L19.8689 141.679L19.8669 141.678Z" fill="#111111"/>
<path d="M20.1177 131.826C16.9212 131.826 17.7203 123.018 18.5194 118.613L36.8994 117.812V129.824C36.8994 133.027 24.1133 131.826 20.1177 131.826Z" fill="#8F602C"/>
<path fill-rule="evenodd" clip-rule="evenodd" d="M37.288 117.406V129.825C37.288 130.377 37.0043 130.813 36.578 131.14C36.1621 131.458 35.5908 131.691 34.9389 131.865C33.6316 132.216 31.8706 132.366 30.0164 132.416C28.1557 132.467 26.1728 132.416 24.4106 132.354C23.9148 132.336 23.4376 132.318 22.9858 132.3C21.8238 132.255 20.8292 132.216 20.1167 132.216C19.0853 132.216 18.4331 131.487 18.0449 130.528C17.6571 129.57 17.4803 128.277 17.4298 126.886C17.3285 124.095 17.7329 120.761 18.1351 118.544L18.1906 118.238L37.288 117.406ZM18.8475 118.99C18.4698 121.169 18.1146 124.268 18.2085 126.858C18.258 128.22 18.4308 129.404 18.7672 130.235C19.1032 131.066 19.5498 131.437 20.1167 131.437C20.8454 131.437 21.8642 131.477 23.0341 131.522C23.4826 131.54 23.9532 131.558 24.4383 131.575C26.1972 131.638 28.1601 131.687 29.9953 131.638C31.8371 131.588 33.5223 131.438 34.7373 131.113C35.3466 130.949 35.8054 130.75 36.1043 130.521C36.3929 130.3 36.5087 130.073 36.5087 129.825V118.22L18.8475 118.99Z" fill="black"/>
<path d="M25.6319 39.3516C21.8828 39.3516 20.1355 55.2607 19.7305 63.2153C7.40694 72.7186 9.48991 76.9422 12.6142 81.7995C15.7385 86.6567 1.67919 89.1909 1.15848 95.5264C0.637765 101.862 11.7463 98.483 3.41487 111.788C-4.91653 125.092 35.5255 122.558 50.4526 122.347C65.3796 122.136 37.6083 105.663 46.8076 101.862C56.0068 98.0606 32.2276 81.1659 40.2119 80.7436C48.1961 80.3212 40.0383 66.3831 36.5669 62.1594C33.0955 57.9357 30.3183 39.3516 25.6319 39.3516Z" fill="#00BC68"/>
<path fill-rule="evenodd" clip-rule="evenodd" d="M21.8088 48.373C20.8573 53.3205 20.3206 59.267 20.1186 63.2341L20.1095 63.4133L19.9674 63.5228C13.815 68.2672 11.3562 71.626 10.7588 74.3326C10.1682 77.0088 11.3734 79.1509 12.9408 81.5877C13.3747 82.2622 13.5278 82.9285 13.4241 83.5839C13.3222 84.2284 12.9792 84.816 12.5085 85.3572C11.5771 86.428 10.0425 87.4286 8.46157 88.4361C8.35925 88.5013 8.25665 88.5666 8.15386 88.632C6.64425 89.5926 5.09611 90.5778 3.86661 91.6808C2.55264 92.8597 1.66385 94.1204 1.54575 95.5573C1.48543 96.2913 1.59427 96.8657 1.80322 97.3404C2.01329 97.8177 2.33402 98.2157 2.72776 98.5832C3.11462 98.9442 3.55853 99.2641 4.02841 99.6027L4.06712 99.6306C4.54335 99.9738 5.04434 100.337 5.48504 100.762C6.38961 101.634 7.04083 102.767 6.89112 104.556C6.74491 106.304 5.83663 108.652 3.74406 111.993C2.73636 113.603 2.50839 114.903 2.80586 115.964C3.10492 117.03 3.96239 117.952 5.34283 118.741C8.11589 120.325 12.7804 121.245 18.2463 121.747C26.9102 122.541 37.4019 122.273 45.1037 122.075C47.0984 122.024 48.9059 121.978 50.446 121.956C52.2966 121.93 53.3943 121.649 53.9808 121.241C54.2626 121.045 54.4211 120.823 54.4992 120.582C54.5792 120.336 54.5852 120.037 54.5053 119.674C54.3426 118.938 53.8456 118.033 53.1142 116.999C52.3888 115.972 51.4622 114.857 50.4801 113.702C50.2892 113.477 50.0961 113.251 49.9019 113.024C48.116 110.932 46.2427 108.738 45.2482 106.815C44.6974 105.749 44.3771 104.697 44.5511 103.753C44.732 102.772 45.4246 102.01 46.6578 101.501C47.7283 101.058 48.2592 100.455 48.4634 99.7684C48.674 99.0601 48.562 98.1828 48.1701 97.1558C47.3845 95.097 45.5649 92.6618 43.6599 90.2778C43.2988 89.8259 42.9343 89.3755 42.5741 88.9304C41.0599 87.0593 39.6217 85.2821 38.8276 83.8777C38.5791 83.4383 38.3842 83.0197 38.2695 82.6334C38.1557 82.2503 38.1115 81.8677 38.202 81.5177C38.2969 81.1512 38.5289 80.8622 38.8813 80.6668C39.2201 80.4789 39.6611 80.3815 40.1903 80.3535C41.1314 80.3037 41.7911 80.0573 42.2448 79.6924C42.6955 79.3298 42.9795 78.8207 43.1167 78.1737C43.3967 76.8538 43.0506 75.0276 42.318 73.0089C40.8605 68.9928 37.9781 64.4903 36.2649 62.4058C35.3467 61.2886 34.5029 59.2695 33.6843 56.9421C33.1824 55.5152 32.679 53.9381 32.1693 52.3415C31.8439 51.322 31.5159 50.2945 31.1842 49.2931C30.3272 46.7062 29.4412 44.2803 28.4854 42.505C28.0072 41.6169 27.5229 40.9136 27.0323 40.4367C26.5424 39.9605 26.0786 39.7402 25.6309 39.7402C25.3129 39.7402 24.9725 39.9062 24.6065 40.311C24.2398 40.7165 23.8826 41.3254 23.5418 42.115C22.8614 43.6917 22.2851 45.896 21.8088 48.373ZM24.0285 39.7884C24.4773 39.292 25.0116 38.9609 25.6309 38.9609C26.3548 38.9609 27.0029 39.3214 27.5755 39.878C28.1474 40.4339 28.676 41.2154 29.1715 42.1356C30.1628 43.9769 31.0668 46.461 31.9239 49.0481C32.2619 50.0684 32.592 51.103 32.918 52.1244C33.424 53.7099 33.9199 55.2637 34.4193 56.6835C35.2442 59.0285 36.0494 60.9163 36.8669 61.911C38.625 64.0501 41.5573 68.6285 43.0505 72.743C43.7932 74.7895 44.2065 76.7911 43.879 78.3354C43.7125 79.1204 43.351 79.8025 42.7332 80.2995C42.1183 80.7942 41.2864 81.0758 40.2314 81.1316C39.7626 81.1564 39.4537 81.2404 39.2592 81.3483C39.0782 81.4486 38.9935 81.5697 38.9564 81.7129C38.9151 81.8727 38.9239 82.0998 39.0165 82.4116C39.1082 82.7204 39.2729 83.0822 39.5059 83.4941C40.2648 84.8362 41.6462 86.5439 43.1566 88.411C43.5221 88.8628 43.8951 89.3239 44.2687 89.7914C46.1606 92.159 48.062 94.6867 48.8981 96.878C49.3171 97.976 49.4913 99.0455 49.2103 99.9904C48.9229 100.957 48.1846 101.713 46.9553 102.221C45.8887 102.662 45.4368 103.246 45.3174 103.894C45.191 104.58 45.4145 105.44 45.9403 106.457C46.8905 108.294 48.7007 110.415 50.5033 112.528C50.6939 112.751 50.8844 112.974 51.0738 113.197C52.0552 114.352 53.0027 115.491 53.7506 116.549C54.4925 117.599 55.0681 118.61 55.2662 119.506C55.3665 119.961 55.375 120.408 55.2404 120.823C55.1041 121.243 54.8311 121.599 54.4258 121.881C53.6379 122.429 52.3382 122.709 50.457 122.735C48.9322 122.757 47.1368 122.803 45.1515 122.854C37.4502 123.051 26.8906 123.322 18.1752 122.522C12.7062 122.021 7.88936 121.093 4.95628 119.417C3.48365 118.576 2.43185 117.515 2.05561 116.174C1.67778 114.827 2.00849 113.297 3.08364 111.58C5.15677 108.269 5.98419 106.05 6.11462 104.491C6.24154 102.974 5.71032 102.061 4.94428 101.323C4.54967 100.943 4.09331 100.61 3.61152 100.263L3.5572 100.224C3.09957 99.8939 2.61988 99.5483 2.19613 99.1529C1.75184 98.7383 1.35524 98.2569 1.09003 97.6543C0.8237 97.0493 0.699303 96.3434 0.769155 95.4935C0.911411 93.7626 1.9753 92.3308 3.34625 91.1008C4.62586 89.9528 6.22635 88.9347 7.72165 87.9834C7.82929 87.9149 7.93639 87.8468 8.04278 87.779C9.65126 86.7539 11.0782 85.8143 11.9205 84.8458C12.3366 84.3674 12.5835 83.9106 12.6545 83.4621C12.7237 83.0244 12.6327 82.549 12.2855 82.0092C10.7286 79.5888 9.33018 77.1905 9.99793 74.1647C10.6539 71.1924 13.2795 67.7186 19.3497 63.0155C19.5595 59.0294 20.0971 53.1474 21.0436 48.2259C21.5233 45.7313 22.1121 43.4612 22.8264 41.8063C23.1829 40.9801 23.5805 40.2839 24.0285 39.7884Z" fill="#111111"/>
<path fill-rule="evenodd" clip-rule="evenodd" d="M33.117 64.7122C32.6845 64.8157 32.4118 65.2772 32.5079 65.7429C32.5402 65.8992 32.5141 66.0799 32.4346 66.1867C32.3834 66.2554 32.1598 66.4949 31.3521 66.4224C29.7263 66.2765 29.4832 65.4693 29.4727 65.4344C29.4724 65.4335 29.4723 65.4332 29.4723 65.4333C29.4097 64.961 29.0033 64.6328 28.5647 64.7003C28.1261 64.7678 27.8213 65.2054 27.884 65.6777C28.0186 66.6921 29.0362 67.9484 31.2189 68.1443C32.3365 68.2446 33.1825 67.9441 33.6863 67.2677C34.1616 66.6294 34.1757 65.8597 34.0742 65.3681C33.9781 64.9023 33.5496 64.6087 33.117 64.7122Z" fill="black"/>
<path d="M33.0814 59.6585C33.0814 61.0966 34.2472 62.2623 35.6852 62.2623C37.1233 62.2623 38.2891 61.0966 38.2891 59.6585C38.2891 58.2205 37.1233 57.0547 35.6852 57.0547C34.2472 57.0547 33.0814 58.2205 33.0814 59.6585Z" fill="black"/>
<path fill-rule="evenodd" clip-rule="evenodd" d="M35.6852 61.4831C34.6775 61.4831 33.8606 60.6662 33.8606 59.6585C33.8606 58.6508 34.6775 57.8339 35.6852 57.8339C36.6929 57.8339 37.5098 58.6508 37.5098 59.6585C37.5098 60.6662 36.6929 61.4831 35.6852 61.4831ZM35.6852 62.2623C34.2472 62.2623 33.0814 61.0966 33.0814 59.6585C33.0814 58.2205 34.2472 57.0547 35.6852 57.0547C37.1233 57.0547 38.2891 58.2205 38.2891 59.6585C38.2891 61.0966 37.1233 62.2623 35.6852 62.2623Z" fill="black"/>
<path d="M30.3834 51.3343C30.4384 52.9649 31.1783 54.2633 32.0362 54.2344C32.894 54.2055 33.5449 52.8603 33.49 51.2297C33.4351 49.5992 32.6952 48.3008 31.8373 48.3296C30.9795 48.3585 30.3285 49.7038 30.3834 51.3343Z" fill="white"/>
<path fill-rule="evenodd" clip-rule="evenodd" d="M30.2291 53.7928C30.5824 54.4126 31.1978 55.0425 32.0598 55.0135C32.9219 54.9845 33.4935 54.3145 33.8043 53.6724C34.1327 52.9936 34.2971 52.1194 34.2663 51.2038C34.2354 50.2882 34.0126 49.4271 33.6392 48.7719C33.286 48.1521 32.6706 47.5222 31.8086 47.5512C30.9465 47.5802 30.3749 48.2501 30.0641 48.8923C29.7357 49.5711 29.5713 50.4452 29.6021 51.3609C29.6329 52.2765 29.8558 53.1376 30.2291 53.7928ZM32.0336 54.2347C31.1757 54.2636 30.4358 52.9652 30.3809 51.3346C30.326 49.7041 30.9769 48.3588 31.8348 48.33C32.6926 48.3011 33.4326 49.5995 33.4875 51.23C33.5424 52.8606 32.8915 54.2058 32.0336 54.2347Z" fill="black"/>
<path d="M25.8913 51.7796C25.9462 53.4102 26.6861 54.7086 27.544 54.6797C28.4018 54.6508 29.0528 53.3056 28.9979 51.675C28.9429 50.0445 28.203 48.7461 27.3451 48.775C26.4873 48.8038 25.8364 50.1491 25.8913 51.7796Z" fill="white"/>
<path fill-rule="evenodd" clip-rule="evenodd" d="M25.737 54.2381C26.0902 54.8579 26.7056 55.4878 27.5676 55.4588C28.4297 55.4298 29.0013 54.7599 29.3121 54.1177C29.6405 53.4389 29.8049 52.5648 29.7741 51.6491C29.7432 50.7335 29.5204 49.8724 29.1471 49.2172C28.7938 48.5974 28.1784 47.9675 27.3164 47.9965C26.4543 48.0255 25.8827 48.6954 25.5719 49.3376C25.2435 50.0164 25.0791 50.8905 25.1099 51.8062C25.1408 52.7218 25.3636 53.5829 25.737 54.2381ZM27.5414 54.68C26.6836 54.7089 25.9436 53.4105 25.8887 51.7799C25.8338 50.1494 26.4847 48.8042 27.3426 48.7753C28.2005 48.7464 28.9404 50.0448 28.9953 51.6753C29.0502 53.3059 28.3993 54.6511 27.5414 54.68Z" fill="black"/>
<path d="M26.9796 52.5938C26.8957 53.7729 27.4367 54.7721 28.1878 54.8255C28.939 54.8789 29.6159 53.9664 29.6997 52.7873C29.7836 51.6082 29.2426 50.609 28.4915 50.5556C27.7404 50.5022 27.0634 51.4147 26.9796 52.5938Z" fill="black"/>
<path d="M31.086 52.3587C30.8541 53.3995 31.2297 54.3688 31.9249 54.5237C32.6201 54.6786 33.3716 53.9605 33.6035 52.9197C33.8354 51.8789 33.4599 50.9096 32.7647 50.7547C32.0695 50.5998 31.3179 51.3179 31.086 52.3587Z" fill="black"/>
<path d="M89.9573 69.2656C89.2285 71.2383 89.8105 73.2708 91.2572 73.8052C92.7039 74.3396 94.4674 73.1736 95.1961 71.2009C95.9249 69.2281 95.3429 67.1957 93.8962 66.6613C92.4495 66.1269 90.686 67.2929 89.9573 69.2656Z" fill="white"/>
<path fill-rule="evenodd" clip-rule="evenodd" d="M90.5406 71.8602C90.3556 71.2141 90.3752 70.3829 90.6882 69.5356C91.0012 68.6883 91.5266 68.0439 92.0873 67.6733C92.6484 67.3022 93.1917 67.2317 93.6262 67.3922C94.0607 67.5527 94.4276 67.9595 94.6128 68.6062C94.7979 69.2524 94.7782 70.0836 94.4652 70.9308C94.1522 71.7781 93.6268 72.4225 93.0661 72.7932C92.505 73.1642 91.9618 73.2347 91.5272 73.0742C91.0927 72.9137 90.7258 72.5069 90.5406 71.8602ZM91.2572 73.8052C89.8105 73.2708 89.2285 71.2383 89.9573 69.2656C90.686 67.2929 92.4495 66.1269 93.8962 66.6613C95.3429 67.1957 95.9249 69.2281 95.1961 71.2009C94.4674 73.1736 92.7039 74.3396 91.2572 73.8052Z" fill="black"/>
<path d="M90.4756 68.2331C89.8041 69.5431 90.17 71.0717 91.2929 71.6473C92.4158 72.2228 93.8705 71.6274 94.542 70.3174C95.2135 69.0073 94.8475 67.4787 93.7246 66.9032C92.6017 66.3276 91.1471 66.923 90.4756 68.2331Z" fill="#111111"/>
<path d="M100.337 55.7597C104.963 57.214 105.835 69.2673 105.693 75.1122C105.683 76.9829 107.129 77.3655 113.432 82.2404C118.475 86.1403 115.586 90.3948 113.512 92.0346C117.224 93.2371 124.275 96.942 122.783 102.142C121.292 107.342 115.879 107.929 113.359 107.572C113.531 107.871 113.008 109.42 109.535 113.224C106.061 117.027 100.633 114.321 98.3538 112.493C86.7923 121.986 84.1509 114.683 84.2754 109.844C81.8685 110.695 76.8537 110.626 76.0498 103.548C75.2459 96.4706 83.6632 89.1228 87.9723 86.3335C76.7475 88.4785 85.3813 77.5267 89.6855 73.3455C93.9897 69.1644 94.5534 53.942 100.337 55.7597Z" fill="#00BC68"/>
<path fill-rule="evenodd" clip-rule="evenodd" d="M98.5494 56.1794C99.0341 55.9691 99.5785 55.9301 100.219 56.1314C101.229 56.449 102.087 57.3644 102.798 58.7527C103.505 60.1331 104.034 61.9194 104.42 63.8653C105.192 67.7545 105.373 72.1988 105.303 75.1027L105.303 75.1101C105.3 75.6372 105.402 76.0869 105.68 76.535C105.948 76.9669 106.366 77.3756 106.948 77.8514C107.494 78.2981 108.213 78.8264 109.137 79.5046C109.201 79.5514 109.265 79.5989 109.331 79.6471C110.352 80.3972 111.621 81.3329 113.193 82.5486C114.413 83.4917 115.129 84.4378 115.503 85.3354C115.877 86.2305 115.92 87.0997 115.758 87.9086C115.431 89.5435 114.263 90.9435 113.269 91.7289C113.156 91.8181 113.102 91.962 113.127 92.1035C113.153 92.245 113.254 92.3609 113.391 92.4052C115.216 92.9965 117.857 94.2029 119.846 95.8867C121.843 97.576 123.09 99.6559 122.408 102.035C121.701 104.5 120.074 105.864 118.31 106.58C116.531 107.301 114.619 107.357 113.413 107.186C113.265 107.165 113.119 107.23 113.035 107.354C112.962 107.462 112.949 107.599 112.997 107.718C112.997 107.719 112.997 107.72 112.997 107.722C112.995 107.757 112.984 107.823 112.951 107.927C112.884 108.135 112.743 108.446 112.48 108.882C111.954 109.752 110.974 111.069 109.246 112.961C107.63 114.731 105.562 115 103.575 114.589C101.575 114.175 99.7029 113.076 98.5967 112.189C98.453 112.073 98.2481 112.075 98.1057 112.192C95.2351 114.549 92.9475 115.838 91.1438 116.392C89.3484 116.943 88.0579 116.76 87.1308 116.208C86.1934 115.65 85.5584 114.675 85.1651 113.51C84.7724 112.347 84.6338 111.031 84.664 109.854C84.6673 109.726 84.6073 109.605 84.5036 109.529C84.3999 109.454 84.2657 109.434 84.1448 109.477C83.0065 109.879 81.264 110.056 79.7294 109.318C78.2241 108.594 76.827 106.945 76.4361 103.504C76.0525 100.127 77.8702 96.6277 80.3929 93.5812C82.9052 90.5474 86.0548 88.0383 88.1832 86.6606C88.3397 86.5593 88.4025 86.3614 88.3331 86.1884C88.2637 86.0154 88.0815 85.9159 87.8984 85.9508C86.5162 86.215 85.4676 86.2716 84.6935 86.1761C83.9199 86.0807 83.4563 85.8385 83.1898 85.5384C82.9267 85.242 82.8052 84.8322 82.8349 84.2904C82.8649 83.7438 83.0484 83.0927 83.3623 82.3664C84.6246 79.4458 87.814 75.7059 89.9562 73.625C91.0996 72.5142 91.9664 70.7054 92.7161 68.7156C93.1834 67.4753 93.6184 66.1252 94.0473 64.7941C94.3066 63.9893 94.5637 63.1914 94.8243 62.4291C95.526 60.3763 96.2566 58.5687 97.1481 57.3874C97.5907 56.8008 98.0548 56.394 98.5494 56.1794ZM112.997 107.702C112.997 107.702 112.997 107.703 112.997 107.705C112.997 107.703 112.997 107.702 112.997 107.702ZM91.9869 68.4409C91.2396 70.4244 90.4219 72.0863 89.4132 73.0661C87.2511 75.1663 83.9715 78.9929 82.6471 82.0573C82.3143 82.8272 82.0938 83.5735 82.0568 84.2478C82.0196 84.927 82.1684 85.5616 82.6071 86.0557C83.0424 86.546 83.7122 86.8402 84.5981 86.9495C85.1076 87.0123 85.7004 87.0157 86.3832 86.9554C84.3538 88.4338 81.8653 90.5814 79.7928 93.0842C77.2306 96.1784 75.2415 99.8916 75.6619 103.592C76.0749 107.229 77.5871 109.153 79.3918 110.02C80.9392 110.764 82.6329 110.697 83.8824 110.371C83.8997 111.474 84.0586 112.668 84.4268 113.759C84.855 115.027 85.5796 116.192 86.7322 116.878C87.8951 117.57 89.4249 117.735 91.3726 117.137C93.258 116.558 95.5581 115.258 98.3586 112.991C99.5521 113.893 101.41 114.937 103.417 115.352C105.582 115.8 107.964 115.52 109.821 113.487C111.567 111.575 112.585 110.216 113.147 109.285C113.427 108.821 113.601 108.452 113.693 108.165C113.71 108.111 113.725 108.058 113.737 108.007C115.044 108.123 116.873 108.003 118.602 107.302C120.547 106.513 122.373 104.985 123.157 102.249C123.966 99.4282 122.434 97.0556 120.35 95.2918C118.487 93.7153 116.107 92.5532 114.276 91.8862C115.224 90.9902 116.206 89.643 116.522 88.0614C116.711 87.1143 116.661 86.0861 116.222 85.0354C115.785 83.9873 114.972 82.939 113.67 81.9322C112.09 80.7105 110.815 79.7703 109.792 79.0191C109.73 78.9732 109.668 78.9281 109.608 78.8836C108.674 78.198 107.971 77.6814 107.441 77.2481C106.875 76.785 106.539 76.4427 106.342 76.1243C106.155 75.8232 106.08 75.5243 106.082 75.1179C106.153 72.1769 105.97 67.6743 105.185 63.7137C104.792 61.7339 104.245 59.8688 103.491 58.3976C102.742 56.9342 101.756 55.7976 100.453 55.3881C99.6475 55.135 98.9091 55.174 98.2393 55.4646C97.5793 55.7509 97.0168 56.2677 96.5261 56.918C95.5509 58.2103 94.7871 60.1287 94.087 62.177C93.8163 62.9688 93.5555 63.7786 93.295 64.5876C92.8718 65.9017 92.4494 67.2133 91.9869 68.4409Z" fill="#111111"/>
<path d="M94.2119 70.2133C93.7077 72.2549 94.5127 74.2098 96.01 74.5796C97.5072 74.9493 99.1297 73.594 99.6339 71.5523C100.138 69.5106 99.3331 67.5557 97.8359 67.186C96.3387 66.8162 94.7162 68.1716 94.2119 70.2133Z" fill="white"/>
<path fill-rule="evenodd" clip-rule="evenodd" d="M95.0809 72.7267C94.825 72.1052 94.7519 71.277 94.9684 70.4001C95.185 69.5232 95.6353 68.8242 96.1511 68.3933C96.6674 67.9621 97.1993 67.8314 97.6491 67.9425C98.0988 68.0535 98.5088 68.4168 98.7649 69.0388C99.0209 69.6603 99.094 70.4885 98.8774 71.3654C98.6609 72.2423 98.2106 72.9413 97.6948 73.3722C97.1785 73.8035 96.6465 73.9341 96.1968 73.8231C95.7471 73.712 95.3371 73.3487 95.0809 72.7267ZM96.01 74.5796C94.5127 74.2098 93.7077 72.2549 94.2119 70.2133C94.7162 68.1716 96.3387 66.8162 97.8359 67.186C99.3331 67.5557 100.138 69.5106 99.6339 71.5523C99.1297 73.594 97.5072 74.9493 96.01 74.5796Z" fill="black"/>
<path d="M94.6109 69.125C94.0897 70.5017 94.6238 71.98 95.8039 72.4267C96.984 72.8735 98.3632 72.1196 98.8844 70.7428C99.4056 69.3661 98.8715 67.8878 97.6914 67.4411C96.5113 66.9943 95.1322 67.7482 94.6109 69.125Z" fill="#111111"/>
<path d="M16.5113 89.8971C15.6718 82.7421 20.4752 79.2916 22.9818 78.4608C23.6814 78.2164 25.2554 77.9623 25.9549 78.9006L25.9692 78.9197C26.8331 80.0784 27.1658 80.5247 24.7308 82.5661C22.9818 84.3255 22.1426 87.17 22.2825 90.3369C22.4224 93.5039 25.372 96.4461 26.8293 97.5213L24.0313 100.454C21.8744 99.916 17.3507 97.0521 16.5113 89.8971Z" fill="#FDFBEF"/>
<path fill-rule="evenodd" clip-rule="evenodd" d="M24.4518 78.6255C23.9426 78.6047 23.4237 78.7179 23.1096 78.8276L23.1067 78.8286L23.1037 78.8296C20.7184 79.6202 16.0856 82.9305 16.8975 89.8507C17.6891 96.5983 21.8206 99.3815 23.9096 100.015L26.2487 97.5637C25.5183 96.9727 24.5716 96.0568 23.748 94.9443C22.7889 93.6487 21.9673 92.0466 21.8925 90.3531C21.7497 87.1194 22.6027 84.1525 24.4537 82.2904L24.4662 82.2779L24.4797 82.2665C25.0827 81.7611 25.4995 81.3664 25.7766 81.0434C26.0556 80.7181 26.1692 80.4926 26.2059 80.3267C26.239 80.1773 26.2181 80.0394 26.1312 79.86C26.0361 79.6638 25.8793 79.4509 25.6561 79.1516L25.6419 79.1325C25.393 78.7986 24.9661 78.6465 24.4518 78.6255ZM26.2666 78.6667C25.816 78.0623 25.1061 77.8723 24.4836 77.8469C23.8576 77.8213 23.2413 77.9566 22.8556 78.0909C20.2269 78.9636 15.2569 82.5543 16.1236 89.9415C16.9826 97.2635 21.6281 100.255 23.9363 100.831L24.1561 100.885L27.4158 97.4693L27.0599 97.2067C26.3596 96.69 25.2863 95.7126 24.3743 94.4807C23.4593 93.2447 22.7361 91.7922 22.671 90.3187C22.5343 87.2262 23.3555 84.5099 24.9942 82.8521C25.6018 82.342 26.0521 81.919 26.368 81.5507C26.6844 81.1819 26.8902 80.8407 26.9667 80.4951C27.0469 80.1329 26.9749 79.8144 26.8325 79.5204C26.7015 79.25 26.4997 78.9794 26.2961 78.7063L26.2808 78.6859L26.2666 78.6667C26.2666 78.6668 26.2666 78.6667 26.2666 78.6667Z" fill="black"/>
<path fill-rule="evenodd" clip-rule="evenodd" d="M88.6616 76.1035C88.9747 76.0252 89.292 76.2156 89.3703 76.5287C89.4969 77.0353 89.8248 77.4599 90.501 77.6209C91.2278 77.7939 92.4292 77.6786 94.2899 76.8328C94.5837 76.6993 94.9302 76.8292 95.0637 77.123C95.1973 77.4168 95.0674 77.7633 94.7735 77.8969C92.8153 78.787 91.3261 79.0188 90.2302 78.7579C89.0837 78.4849 88.4569 77.6944 88.2363 76.8122C88.1581 76.4991 88.3484 76.1818 88.6616 76.1035Z" fill="black"/>
<path fill-rule="evenodd" clip-rule="evenodd" d="M28.4773 95.6467C28.6395 95.7881 28.6564 96.0342 28.515 96.1964L22.613 102.966C22.4716 103.129 22.2255 103.145 22.0633 103.004C21.9011 102.863 21.8842 102.616 22.0256 102.454L27.9276 95.6844C28.069 95.5222 28.3151 95.5053 28.4773 95.6467Z" fill="black"/>
<path d="M105.572 103.543C103.038 100.635 105.261 92.4246 104.811 87.5273C104.484 84.5757 100.046 84.1884 98.4739 84.7511C97.2166 85.2013 97.0288 87.2358 96.8017 90.1353C96.5858 92.893 96.8222 95.2072 97.0994 97.6028C97.7582 103.297 95.9071 107.42 95.5562 108.866C95.1282 110.628 95.5891 111.132 96.3315 111.39C97.0739 111.649 98.4466 109.109 99.0673 108.805C99.688 108.501 104.956 113.596 106.237 113.383C107.262 113.213 106.424 111.774 105.876 111.076C106.555 111.471 106.864 111.434 107.113 111.086C107.478 110.575 106.792 109.489 106.403 109.01C106.697 109.215 106.995 109.401 107.284 109.55C108.613 110.237 107.701 108.202 107.064 107.216C107.196 107.279 107.328 107.338 107.457 107.391C108.612 107.862 108.739 107.178 105.572 103.543Z" fill="#FDFBEF"/>
<path fill-rule="evenodd" clip-rule="evenodd" d="M102.22 84.4457C100.813 84.0326 99.224 84.0674 98.3438 84.3825C97.5207 84.6772 97.1142 85.4735 96.8748 86.4281C96.6327 87.3939 96.5273 88.6638 96.4146 90.103C96.1954 92.9011 96.4361 95.2473 96.7136 97.6457C97.2456 102.243 96.1186 105.768 95.4939 107.721C95.3573 108.148 95.2448 108.5 95.1788 108.772C94.9592 109.677 94.9437 110.343 95.1455 110.837C95.36 111.363 95.782 111.609 96.2047 111.756C96.4163 111.83 96.6216 111.792 96.7866 111.724C96.9494 111.657 97.1018 111.549 97.2386 111.433C97.5121 111.2 97.7925 110.872 98.0503 110.55C98.1733 110.397 98.2873 110.25 98.3966 110.109C98.5305 109.937 98.6572 109.774 98.7846 109.619C98.8952 109.484 98.9932 109.373 99.0782 109.288C99.1185 109.248 99.1513 109.218 99.1769 109.197C99.2117 109.211 99.2586 109.233 99.319 109.265C99.5013 109.362 99.7459 109.523 100.043 109.736C100.508 110.07 101.068 110.507 101.665 110.974C101.83 111.103 101.997 111.234 102.166 111.365C102.943 111.969 103.753 112.586 104.453 113.04C104.802 113.266 105.135 113.459 105.43 113.589C105.707 113.712 106.021 113.812 106.302 113.765C106.669 113.704 106.949 113.505 107.061 113.171C107.157 112.882 107.102 112.567 107.019 112.307C106.959 112.119 106.873 111.926 106.774 111.739C107.07 111.7 107.279 111.524 107.431 111.311C107.597 111.079 107.624 110.807 107.6 110.571C107.581 110.393 107.531 110.212 107.466 110.041C107.529 110.058 107.591 110.069 107.652 110.074C107.841 110.09 108.052 110.04 108.2 109.862C108.331 109.705 108.357 109.514 108.357 109.373C108.358 109.223 108.33 109.064 108.29 108.911C108.211 108.605 108.066 108.25 107.899 107.908C108.01 107.916 108.134 107.907 108.253 107.855C108.46 107.764 108.572 107.579 108.592 107.376C108.609 107.205 108.563 107.027 108.5 106.864C108.37 106.531 108.1 106.086 107.681 105.512C107.256 104.932 106.663 104.199 105.867 103.285C105.309 102.645 104.987 101.678 104.835 100.453C104.685 99.2341 104.709 97.8109 104.8 96.3028C104.853 95.4369 104.925 94.5632 104.998 93.6893C105.053 93.0294 105.107 92.3694 105.153 91.7123C105.259 90.2053 105.316 88.7474 105.2 87.4898L105.2 87.4862L105.2 87.4826C105.011 85.7756 103.629 84.8593 102.22 84.4457ZM106.796 107.517C105.997 107.125 105.221 106.613 104.88 106.366C104.706 106.239 104.668 105.996 104.794 105.822C104.92 105.647 105.164 105.609 105.338 105.735C105.668 105.974 106.454 106.492 107.233 106.863L107.065 107.215L107.233 106.863C107.359 106.923 107.484 106.979 107.606 107.028C107.657 107.049 107.704 107.067 107.746 107.081C107.642 106.845 107.427 106.485 107.052 105.972C106.645 105.416 106.067 104.701 105.279 103.797C104.571 102.984 104.221 101.834 104.062 100.548C103.903 99.2568 103.931 97.776 104.023 96.2558C104.075 95.3909 104.149 94.4929 104.223 93.605C104.278 92.9444 104.332 92.2893 104.376 91.6577C104.481 90.1586 104.534 88.755 104.425 87.5648C104.286 86.3223 103.285 85.5702 102.001 85.1933C100.714 84.8156 99.298 84.8685 98.6065 85.1161C98.1723 85.2715 97.8563 85.7176 97.6306 86.6176C97.4078 87.5065 97.3058 88.7036 97.1914 90.1639C96.9786 92.8813 97.2108 95.1634 97.4877 97.5561C98.0423 102.349 96.8422 106.081 96.2242 108.002C96.0963 108.4 95.9933 108.72 95.9361 108.956C95.7278 109.813 95.7597 110.28 95.8669 110.543C95.9604 110.772 96.137 110.906 96.4497 111.017C96.4564 111.015 96.4691 111.012 96.4894 111.004C96.5462 110.98 96.6277 110.93 96.7337 110.839C96.9458 110.659 97.1865 110.382 97.4423 110.063C97.5462 109.933 97.6571 109.791 97.7677 109.649C97.9121 109.463 98.0558 109.278 98.1826 109.124C98.2996 108.982 98.4164 108.847 98.5282 108.736C98.6343 108.63 98.7604 108.52 98.8971 108.453C99.0709 108.368 99.2488 108.405 99.3429 108.432C99.4547 108.463 99.5719 108.517 99.6855 108.577C99.9151 108.7 100.194 108.885 100.498 109.103C100.977 109.448 101.554 109.898 102.154 110.367C102.316 110.494 102.48 110.622 102.645 110.75C103.423 111.355 104.209 111.953 104.877 112.386C105.211 112.602 105.505 112.77 105.745 112.877C106.004 112.991 106.135 113.003 106.174 112.997C106.31 112.974 106.319 112.934 106.322 112.924C106.322 112.924 106.322 112.923 106.322 112.923C106.339 112.872 106.343 112.752 106.276 112.544C106.154 112.163 105.867 111.703 105.615 111.371C105.021 111.014 104.187 110.371 102.974 109.405C102.806 109.271 102.778 109.026 102.912 108.858C103.046 108.689 103.291 108.662 103.46 108.796C104.733 109.81 105.535 110.424 106.074 110.737C106.402 110.929 106.57 110.97 106.65 110.968L106.651 110.968C106.682 110.968 106.719 110.967 106.797 110.858C106.814 110.835 106.838 110.779 106.825 110.653C106.812 110.527 106.764 110.369 106.686 110.192C106.539 109.858 106.311 109.518 106.135 109.294C105.163 108.606 104.234 107.706 103.84 107.161C103.714 106.986 103.754 106.743 103.928 106.617C104.102 106.491 104.346 106.53 104.472 106.705C104.807 107.168 105.687 108.03 106.628 108.689C106.911 108.887 107.195 109.063 107.464 109.202C107.503 109.223 107.537 109.239 107.567 109.251C107.56 109.21 107.55 109.162 107.536 109.107C107.417 108.648 107.09 107.99 106.796 107.517ZM107.575 109.41C107.575 109.41 107.575 109.409 107.576 109.408C107.575 109.409 107.575 109.41 107.575 109.41ZM96.4439 111.017C96.4439 111.017 96.4444 111.017 96.4456 111.017C96.4445 111.017 96.4439 111.017 96.4439 111.017ZM99.1131 109.178C99.1132 109.178 99.116 109.178 99.1211 109.179C99.1155 109.178 99.113 109.177 99.1131 109.178Z" fill="black"/>
<path fill-rule="evenodd" clip-rule="evenodd" d="M44.3826 31.2219C56.0021 31.2219 65.4215 24.2326 65.4215 15.6109C65.4215 6.98926 56.0021 0 44.3826 0C32.7632 0 23.3438 6.98926 23.3438 15.6109C23.3438 22.3586 29.1133 28.1063 37.1917 30.2862C36.9811 31.3643 36.4554 32.4766 35.9868 33.4679C35.267 34.9909 34.682 36.2285 35.5818 36.6183C36.761 36.746 40.4879 34.3981 43.7031 31.2139C43.9288 31.2192 44.1553 31.2219 44.3826 31.2219Z" fill="white"/>
<path fill-rule="evenodd" clip-rule="evenodd" d="M38.0956 29.7231L37.9565 30.4356C37.7271 31.6098 37.1667 32.7953 36.7112 33.7589L36.6913 33.8009C36.3162 34.5946 36.0375 35.1946 35.9371 35.6395C35.922 35.7063 35.913 35.7619 35.9081 35.8077C35.9181 35.8052 35.9285 35.8026 35.9391 35.7998C36.1074 35.7555 36.3212 35.6785 36.579 35.5637C37.0944 35.3341 37.7336 34.9763 38.4523 34.506C39.8878 33.5668 41.5828 32.2171 43.1548 30.6602L43.3902 30.4271L43.7215 30.4349C43.941 30.4401 44.1614 30.4427 44.3826 30.4427C50.042 30.4427 55.135 28.7395 58.795 26.0238C62.4552 23.308 64.6423 19.6179 64.6423 15.6109C64.6423 11.604 62.4552 7.91393 58.795 5.19811C55.135 2.48234 50.042 0.779218 44.3826 0.779218C38.7233 0.779218 33.6303 2.48234 29.9702 5.19811C26.3101 7.91393 24.123 11.604 24.123 15.6109C24.123 21.8712 29.5053 27.405 37.3947 29.5339L38.0956 29.7231ZM35.5818 36.6183C34.682 36.2285 35.267 34.9909 35.9868 33.4679C36.4554 32.4766 36.9811 31.3643 37.1917 30.2862C29.1133 28.1063 23.3438 22.3586 23.3438 15.6109C23.3438 6.98926 32.7632 0 44.3826 0C56.0021 0 65.4215 6.98926 65.4215 15.6109C65.4215 24.2326 56.0021 31.2219 44.3826 31.2219C44.1553 31.2219 43.9288 31.2192 43.7031 31.2139C40.4879 34.3981 36.761 36.746 35.5818 36.6183Z" fill="#111111"/>
<path fill-rule="evenodd" clip-rule="evenodd" d="M96.7479 44.2099C103.884 42.5323 109.065 37.5029 109.065 31.5592C109.065 24.2432 101.215 18.3125 91.5324 18.3125C81.8495 18.3125 74 24.2432 74 31.5592C74 38.8751 81.8495 44.8059 91.5324 44.8059C91.5692 44.8059 91.606 44.8058 91.6427 44.8056C93.6665 47.4848 95.5929 49.4554 96.5297 49.5365C97.3751 49.6758 97.5379 48.1149 97.1878 46.2817C97.1194 45.9245 97.0426 45.5843 96.9681 45.2544C96.8875 44.897 96.8095 44.5516 96.7479 44.2099Z" fill="white"/>
<path fill-rule="evenodd" clip-rule="evenodd" d="M95.8498 43.6206L96.5696 43.4514C103.505 41.8208 108.286 37.0055 108.286 31.5592C108.286 28.199 106.485 25.0995 103.46 22.8141C100.435 20.5283 96.2202 19.0917 91.5324 19.0917C86.8446 19.0917 82.6302 20.5283 79.6049 22.8141C76.58 25.0995 74.7792 28.199 74.7792 31.5592C74.7792 34.9194 76.58 38.0189 79.6049 40.3043C82.6302 42.5901 86.8446 44.0267 91.5324 44.0267C91.5515 44.0267 91.5706 44.0267 91.5897 44.0266C91.6062 44.0266 91.6226 44.0265 91.6391 44.0264L92.0293 44.0246L92.2645 44.336C93.2633 45.6582 94.2254 46.7883 95.0402 47.5898C95.4487 47.9916 95.8052 48.2959 96.0989 48.4991C96.2452 48.6003 96.3646 48.6686 96.4577 48.7112C96.4694 48.7165 96.4803 48.7213 96.4904 48.7255C96.5075 48.6718 96.5244 48.6031 96.5389 48.5178C96.6194 48.046 96.5892 47.3012 96.4224 46.4279C96.3568 46.0853 96.2828 45.7573 96.208 45.4259L96.2061 45.4175C96.1268 45.0659 96.0457 44.7067 95.981 44.3482L95.8498 43.6206ZM97.1878 46.2817C97.5379 48.1149 97.3751 49.6758 96.5297 49.5365C95.5929 49.4554 93.6665 47.4848 91.6427 44.8056C91.606 44.8058 91.5692 44.8059 91.5324 44.8059C81.8495 44.8059 74 38.8751 74 31.5592C74 24.2432 81.8495 18.3125 91.5324 18.3125C101.215 18.3125 109.065 24.2432 109.065 31.5592C109.065 37.5029 103.884 42.5323 96.7479 44.2099C96.8095 44.5516 96.8875 44.8969 96.9681 45.2544C97.0426 45.5843 97.1194 45.9245 97.1878 46.2817Z" fill="black"/>
<path d="M39.9985 21.1003C38.7877 20.4524 38.489 18.8739 38.4619 18.2158L51.1389 17.4455C50.733 18.8177 50.0918 20.3877 47.5036 21.2396C45.906 21.7655 42.1574 22.2556 39.9985 21.1003Z" fill="#F2A04E"/>
<path fill-rule="evenodd" clip-rule="evenodd" d="M38.0691 18.2324C38.0604 18.0204 38.2229 17.8404 38.4347 17.8275L51.1118 17.0572C51.2386 17.0495 51.3612 17.1041 51.4403 17.2036C51.5194 17.303 51.545 17.4348 51.509 17.5566C51.3024 18.2552 51.0236 19.0502 50.4407 19.7812C49.8532 20.5182 48.9788 21.1637 47.6219 21.6104C46.7833 21.8864 45.4093 22.1456 43.9702 22.1905C42.5392 22.2351 40.9804 22.0702 39.8112 21.4445C39.0985 21.0631 38.6721 20.4178 38.4225 19.8107C38.1727 19.2033 38.0841 18.5981 38.0691 18.2324ZM38.8866 18.5807C38.9286 18.8529 39.0075 19.1846 39.1431 19.5143C39.3523 20.0229 39.6807 20.4909 40.1789 20.7574C41.1686 21.2871 42.5634 21.4547 43.9459 21.4116C45.3202 21.3688 46.6193 21.12 47.3783 20.8702C48.6096 20.4649 49.3499 19.8995 49.8315 19.2955C50.1891 18.8468 50.4161 18.3624 50.5904 17.8696L38.8866 18.5807Z" fill="black"/>
<path d="M36.9198 14.4308C36.6493 13.2461 37.6634 12.7024 38.3215 12.6753C41.9765 12.7669 49.556 12.8755 50.6333 12.5774C51.9799 12.2048 52.546 14.5938 51.806 15.2342C50.9232 15.9982 51.7511 16.6173 51.2959 17.345C50.8408 18.0727 49.5579 18.1814 49.1666 18.6453C48.7752 19.1092 47.8286 20.1368 46.5733 19.5541C46.184 19.3734 44.8715 20.8182 44.444 20.8546C43.8132 20.9083 43.1773 20.1288 42.7885 19.6167C42.5163 19.7829 41.6419 20.3168 40.9505 20.2893C40.2644 20.262 39.812 19.4106 39.6203 18.853C39.4782 18.8648 38.9883 18.6992 38.1661 17.942C37.3439 17.1848 37.5927 16.2683 37.8199 15.9047C37.8199 15.9047 37.2349 15.8108 36.9198 14.4308Z" fill="#71BC45"/>
<path fill-rule="evenodd" clip-rule="evenodd" d="M37.0014 12.8406C37.3799 12.4803 37.8914 12.3068 38.303 12.2899C38.3116 12.2895 38.3202 12.2894 38.3288 12.2897C40.1543 12.3354 42.9596 12.3854 45.4418 12.3867C46.6833 12.3873 47.841 12.3758 48.7538 12.3457C49.2105 12.3307 49.6025 12.3111 49.9114 12.2864C50.2302 12.2609 50.4324 12.2319 50.527 12.2057C50.9912 12.0773 51.4058 12.1901 51.7271 12.4429C52.0344 12.6845 52.2435 13.0413 52.3681 13.4028C52.4936 13.7672 52.5454 14.1702 52.5097 14.538C52.4749 14.8964 52.3498 15.2806 52.0585 15.5326C51.8827 15.6848 51.8168 15.807 51.7883 15.9009C51.758 16.0008 51.7574 16.1088 51.7752 16.262C51.7793 16.2973 51.7852 16.3367 51.7916 16.3797C51.8343 16.6671 51.9007 17.1128 51.6239 17.5554C51.3217 18.0385 50.7694 18.2863 50.3537 18.458C50.2846 18.4865 50.2193 18.5128 50.157 18.5379C50.0124 18.5962 49.8844 18.6478 49.7654 18.7044C49.5938 18.7861 49.5038 18.8508 49.462 18.9004C49.2615 19.138 48.8882 19.559 48.3785 19.8378C47.868 20.1171 47.2105 20.2572 46.4746 19.9416C46.4432 19.9539 46.397 19.9764 46.3344 20.014C46.1752 20.1094 45.9801 20.2587 45.7635 20.4314C45.716 20.4693 45.6674 20.5084 45.6183 20.5479C45.4531 20.6807 45.2822 20.8182 45.1292 20.9295C45.0289 21.0025 44.926 21.0721 44.8276 21.1261C44.7386 21.1751 44.6123 21.235 44.4747 21.2467C43.9932 21.2877 43.5707 21.0126 43.2656 20.7441C43.0504 20.5546 42.8544 20.3329 42.6895 20.1296C42.547 20.2095 42.3728 20.3008 42.1826 20.3854C41.8285 20.543 41.3699 20.6999 40.9326 20.6824C40.4227 20.6622 40.0434 20.3383 39.7902 20.0133C39.5897 19.7559 39.4372 19.4597 39.3302 19.1978C39.3286 19.1973 39.3271 19.1968 39.3256 19.1963C39.2183 19.1614 39.0952 19.107 38.9571 19.0305C38.6807 18.8775 38.3278 18.6266 37.8998 18.2324C37.1005 17.4963 37.1284 16.6253 37.318 16.0666C37.2804 16.0346 37.2418 15.9982 37.2027 15.957C36.9565 15.697 36.706 15.2588 36.5376 14.5214C36.3709 13.7911 36.6028 13.2199 37.0014 12.8406ZM37.9068 15.5293C38.0237 15.5568 38.122 15.637 38.1721 15.7472C38.2262 15.8661 38.2171 16.0042 38.1479 16.1149C37.9817 16.3809 37.7903 17.0723 38.4277 17.6592C38.8219 18.0223 39.125 18.2328 39.3346 18.3489C39.4395 18.407 39.5169 18.4391 39.5672 18.4555C39.5894 18.4628 39.6033 18.466 39.6097 18.4673C39.7781 18.4637 39.9311 18.5692 39.9864 18.7302C40.0736 18.984 40.2172 19.2934 40.4049 19.5344C40.5974 19.7814 40.7873 19.8968 40.9636 19.9038C41.2177 19.914 41.542 19.8176 41.8659 19.6735C42.18 19.5338 42.4481 19.3703 42.583 19.288C42.7537 19.1838 42.9755 19.2256 43.0964 19.3849C43.2896 19.6394 43.5258 19.9349 43.7806 20.1592C44.0402 20.3879 44.2463 20.4775 44.3947 20.4711C44.4017 20.4684 44.4202 20.4609 44.4522 20.4433C44.5089 20.4121 44.5817 20.3643 44.6707 20.2995C44.807 20.2003 44.957 20.0797 45.1187 19.9496C45.1705 19.908 45.2235 19.8654 45.2776 19.8222C45.4913 19.6518 45.724 19.4714 45.9337 19.3457C46.038 19.2831 46.1544 19.2231 46.2728 19.1874C46.3831 19.1542 46.5588 19.1228 46.7349 19.2046C47.2269 19.4329 47.6457 19.3505 48.0045 19.1542C48.3798 18.9489 48.6755 18.6242 48.8664 18.3979C49.0203 18.2155 49.2374 18.0927 49.4306 18.0008C49.5724 17.9333 49.7351 17.8677 49.8892 17.8056C49.9466 17.7825 50.0027 17.7599 50.0562 17.7378C50.4936 17.5572 50.8103 17.3867 50.9632 17.1422C51.079 16.9571 51.0603 16.8138 51.0229 16.526C51.0161 16.4732 51.0086 16.4156 51.0012 16.3521C50.9793 16.164 50.9657 15.9285 51.0427 15.6747C51.1214 15.415 51.2831 15.1733 51.5486 14.9434C51.6274 14.8753 51.709 14.7207 51.7341 14.4627C51.7583 14.214 51.7232 13.9231 51.6314 13.6567C51.5386 13.3875 51.3999 13.1768 51.2454 13.0553C51.1051 12.9449 50.9439 12.8989 50.7348 12.9567C50.5601 13.005 50.2897 13.0379 49.9735 13.0631C49.6475 13.0892 49.242 13.1093 48.7795 13.1245C47.854 13.1551 46.6863 13.1666 45.4414 13.1659C42.9572 13.1646 40.1532 13.1147 38.3233 13.069C38.0784 13.0821 37.7605 13.1938 37.5386 13.405C37.3333 13.6004 37.1935 13.8934 37.2973 14.3479C37.444 14.9905 37.6435 15.2892 37.7685 15.4211C37.8308 15.487 37.8778 15.5149 37.8976 15.5249C37.9016 15.5269 37.9047 15.5283 37.9068 15.5293ZM46.5104 19.9304C46.5103 19.9305 46.5088 19.9308 46.506 19.9312C46.509 19.9305 46.5104 19.9303 46.5104 19.9304Z" fill="black"/>
<path d="M40.4849 18.778C39.2235 18.199 39.1845 16.6487 39.1845 16.6487C39.1845 16.6487 50.3692 12.517 50.733 12.7446C51.0969 12.9721 51.1845 14.9426 50.6656 15.9341C50.1467 16.9256 48.6725 17.8258 46.8345 18.4985C44.9965 19.1712 41.7463 19.357 40.4849 18.778Z" fill="#802926"/>
<path fill-rule="evenodd" clip-rule="evenodd" d="M39.0537 16.2799L39.1887 16.6454L38.7993 16.6552C38.7951 16.4885 38.8974 16.3377 39.0537 16.2799ZM39.6107 16.9051C39.6332 17.032 39.6705 17.1907 39.732 17.3597C39.8786 17.7625 40.1488 18.1898 40.6516 18.4206C40.9111 18.5397 41.3025 18.6308 41.7955 18.6824C42.2824 18.7334 42.844 18.7435 43.4288 18.7152C44.6036 18.6583 45.834 18.4481 46.7048 18.1294C47.6049 17.8 48.4043 17.4188 49.0359 17.0064C49.6733 16.5901 50.1092 16.1617 50.3246 15.7502C50.5414 15.3359 50.6474 14.6691 50.6449 14.0511C50.6438 13.7478 50.6164 13.4781 50.5727 13.2802C50.5611 13.2275 50.549 13.183 50.5372 13.1465C50.4591 13.1631 50.3591 13.1875 50.2373 13.2201C49.9064 13.3086 49.4472 13.4489 48.8991 13.626C47.8045 13.9797 46.3764 14.4734 44.9564 14.9753C43.5371 15.477 42.1289 15.9859 41.0753 16.3695C40.5486 16.5612 40.1106 16.7216 39.8043 16.834C39.7323 16.8605 39.6676 16.8842 39.6107 16.9051ZM50.7641 12.3476C50.7982 12.3522 50.8699 12.3647 50.9438 12.411C51.0841 12.4987 51.1653 12.6357 51.2132 12.7383C51.2655 12.8504 51.3043 12.9796 51.3336 13.1122C51.3925 13.3787 51.4228 13.7063 51.4242 14.048C51.4268 14.72 51.3171 15.5342 51.015 16.1115C50.7115 16.6914 50.1509 17.2089 49.462 17.6588C48.7672 18.1125 47.9106 18.5178 46.9726 18.8611C46.0054 19.2151 44.6917 19.4341 43.4665 19.4935C42.8513 19.5233 42.249 19.5134 41.7143 19.4574C41.1857 19.402 40.6978 19.2992 40.3266 19.1288C39.568 18.7806 39.188 18.1433 38.9998 17.6262C38.9052 17.3663 38.8555 17.1283 38.8293 16.955C38.8161 16.8679 38.8087 16.7961 38.8045 16.7446C38.8025 16.7188 38.8012 16.6981 38.8004 16.683C38.8 16.6754 38.7997 16.6693 38.7996 16.6646L38.7994 16.6588L38.7993 16.6567L38.7993 16.6558L38.7993 16.6552C38.7993 16.655 38.7993 16.6552 39.1887 16.6454C39.0537 16.2799 39.0537 16.2799 39.0537 16.2799L39.1798 16.2334C39.2619 16.2032 39.3824 16.1589 39.5358 16.1025C39.8426 15.9899 40.2813 15.8293 40.8088 15.6373C41.8637 15.2532 43.2743 14.7434 44.6967 14.2407C46.1184 13.7381 47.5546 13.2416 48.6595 12.8846C49.2111 12.7063 49.6854 12.5612 50.0358 12.4674C50.2098 12.4208 50.3617 12.3846 50.4807 12.3638C50.5391 12.3536 50.6007 12.3452 50.6581 12.3431C50.6867 12.3421 50.7239 12.3422 50.7641 12.3476Z" fill="black"/>
<path d="M43.5578 7.57506C40.2168 7.99615 38.2941 10.0056 38.1975 12.4226C38.1608 13.3445 38.3984 15.403 39.6428 16.2623C41.1982 17.3363 44.4554 17.1463 47.64 16.101C50.8246 15.0558 51.1985 12.3538 50.6896 10.4157C50.1808 8.47769 47.7339 7.04869 43.5578 7.57506Z" fill="#F2A04E"/>
<path d="M44.6122 7.83183C42.4438 7.87559 40.5366 8.52155 40.295 9.95855C40.1104 10.4311 40.4622 11.5303 41.0906 12.0062C41.8761 12.601 44.0171 12.7119 46.1939 12.2631C48.3707 11.8142 49.0055 10.4875 48.467 9.2733C48.0057 8.23322 47.278 7.77804 44.6122 7.83183Z" fill="#E37921"/>
<path fill-rule="evenodd" clip-rule="evenodd" d="M43.6081 8.56885C43.7122 8.4455 43.8966 8.42987 44.0199 8.53393L44.4838 8.9253C44.6071 9.02936 44.6228 9.21371 44.5187 9.33706C44.4146 9.46041 44.2303 9.47604 44.1069 9.37197L43.643 8.98061C43.5197 8.87655 43.5041 8.69219 43.6081 8.56885Z" fill="black"/>
<path fill-rule="evenodd" clip-rule="evenodd" d="M45.2774 10.115C45.3414 9.96692 45.5135 9.89881 45.6616 9.9629L46.2186 10.2039C46.3667 10.268 46.4348 10.44 46.3707 10.5881C46.3066 10.7362 46.1346 10.8044 45.9865 10.7403L45.4295 10.4992C45.2814 10.4352 45.2133 10.2631 45.2774 10.115Z" fill="black"/>
<path fill-rule="evenodd" clip-rule="evenodd" d="M44.0345 10.3191C44.1321 10.4476 44.107 10.6309 43.9785 10.7285L43.4952 11.0956C43.3667 11.1932 43.1833 11.1682 43.0857 11.0396C42.9881 10.9111 43.0132 10.7278 43.1417 10.6302L43.625 10.2631C43.7535 10.1655 43.9368 10.1906 44.0345 10.3191Z" fill="black"/>
<path fill-rule="evenodd" clip-rule="evenodd" d="M37.4265 12.3832L37.4265 12.3831C37.5421 9.49081 39.8517 7.24936 43.468 6.79356C47.7694 6.2514 50.7878 7.68394 51.4509 10.2094C51.7361 11.2957 51.7866 12.6356 51.2789 13.8792C50.7588 15.1536 49.6849 16.2441 47.8906 16.833C46.2422 17.374 44.5574 17.7002 43.0624 17.7468C41.5948 17.7926 40.1893 17.5729 39.2076 16.8951C38.3707 16.3172 37.9302 15.385 37.698 14.5713C37.462 13.7441 37.4053 12.9152 37.4265 12.3832ZM38.2051 12.4142C38.3017 9.99722 40.2245 7.98775 43.5654 7.56666C47.7416 7.04029 50.1884 8.46929 50.6972 10.4073C51.2061 12.3454 50.8323 15.0474 47.6476 16.0926C44.463 17.1379 41.2058 17.3279 39.6504 16.2539C38.4061 15.3946 38.1684 13.3361 38.2051 12.4142Z" fill="black"/>
<path d="M87.0532 37.5456C85.8424 36.8977 85.5437 35.3192 85.5166 34.6611L98.1936 33.8908C97.7877 35.263 97.1465 36.833 94.5583 37.6849C92.9607 38.2108 89.2121 38.7009 87.0532 37.5456Z" fill="#F2A04E"/>
<path fill-rule="evenodd" clip-rule="evenodd" d="M85.1238 34.6777C85.1151 34.4657 85.2776 34.2857 85.4894 34.2728L98.1664 33.5025C98.2933 33.4948 98.4159 33.5495 98.495 33.6489C98.5741 33.7483 98.5997 33.8801 98.5637 34.0019C98.3571 34.7006 98.0782 35.4955 97.4954 36.2265C96.9079 36.9635 96.0334 37.609 94.6766 38.0557C93.838 38.3317 92.4639 38.5909 91.0249 38.6358C89.5939 38.6804 88.0351 38.5155 86.8659 37.8898C86.1532 37.5084 85.7268 36.8631 85.4772 36.256C85.2274 35.6486 85.1388 35.0434 85.1238 34.6777ZM85.9413 35.026C85.9833 35.2982 86.0622 35.6299 86.1978 35.9596C86.407 36.4683 86.7354 36.9362 87.2335 37.2028C88.2232 37.7324 89.6181 37.9 91.0006 37.8569C92.3749 37.8141 93.674 37.5653 94.433 37.3155C95.6643 36.9102 96.4046 36.3448 96.8862 35.7408C97.2438 35.2921 97.4708 34.8077 97.6451 34.3149L85.9413 35.026Z" fill="black"/>
<path d="M83.9745 30.8761C83.704 29.6914 84.7181 29.1477 85.3762 29.1206C89.0312 29.2122 96.6107 29.3208 97.688 29.0227C99.0346 28.6501 99.6007 31.0391 98.8607 31.6795C97.9779 32.4435 98.8058 33.0626 98.3506 33.7903C97.8955 34.518 96.6126 34.6267 96.2213 35.0906C95.8299 35.5545 94.8833 36.5821 93.6279 35.9994C93.2387 35.8188 91.9262 37.2636 91.4987 37.3C90.8679 37.3536 90.232 36.5741 89.8432 36.062C89.5709 36.2282 88.6966 36.7621 88.0051 36.7346C87.319 36.7073 86.8667 35.8559 86.675 35.2983C86.5329 35.3101 86.043 35.1445 85.2208 34.3873C84.3986 33.6301 84.6474 32.7136 84.8745 32.35C84.8745 32.35 84.2896 32.2562 83.9745 30.8761Z" fill="#71BC45"/>
<path fill-rule="evenodd" clip-rule="evenodd" d="M84.0561 29.2859C84.4346 28.9256 84.9461 28.7521 85.3577 28.7352C85.3663 28.7348 85.3749 28.7348 85.3835 28.735C87.209 28.7807 90.0143 28.8307 92.4965 28.832C93.738 28.8327 94.8957 28.8212 95.8085 28.7911C96.2652 28.776 96.6572 28.7564 96.9661 28.7317C97.2849 28.7062 97.487 28.6772 97.5817 28.651C98.0459 28.5226 98.4605 28.6354 98.7818 28.8882C99.0891 29.1299 99.2982 29.4866 99.4228 29.8481C99.5483 30.2125 99.6001 30.6156 99.5644 30.9833C99.5296 31.3417 99.4045 31.7259 99.1132 31.978C98.9374 32.1301 98.8715 32.2523 98.843 32.3462C98.8127 32.4461 98.8121 32.5541 98.8299 32.7073C98.834 32.7426 98.8399 32.7821 98.8463 32.825C98.889 33.1124 98.9553 33.5581 98.6785 34.0007C98.3764 34.4839 97.824 34.7317 97.4083 34.9033C97.3393 34.9318 97.274 34.9582 97.2117 34.9832C97.0671 35.0415 96.9391 35.0931 96.8201 35.1497C96.6485 35.2314 96.5585 35.2961 96.5167 35.3457C96.3162 35.5833 95.9429 36.0043 95.4332 36.2831C94.9227 36.5624 94.2652 36.7025 93.5293 36.3869C93.4979 36.3992 93.4517 36.4217 93.3891 36.4593C93.2299 36.5548 93.0347 36.704 92.8182 36.8767C92.7707 36.9146 92.7221 36.9537 92.6729 36.9932C92.5078 37.126 92.3369 37.2635 92.1839 37.3748C92.0836 37.4478 91.9806 37.5174 91.8823 37.5715C91.7933 37.6204 91.667 37.6803 91.5293 37.692C91.0479 37.733 90.6254 37.458 90.3203 37.1894C90.1051 36.9999 89.909 36.7782 89.7442 36.5749C89.6016 36.6548 89.4275 36.7461 89.2373 36.8308C88.8832 36.9883 88.4246 37.1452 87.9873 37.1278C87.4774 37.1075 87.0981 36.7836 86.8449 36.4586C86.6444 36.2012 86.4919 35.905 86.3848 35.6432C86.3833 35.6427 86.3818 35.6422 86.3802 35.6417C86.273 35.6067 86.1499 35.5523 86.0118 35.4759C85.7354 35.3228 85.3825 35.0719 84.9545 34.6777C84.1552 33.9416 84.1831 33.0706 84.3727 32.5119C84.335 32.4799 84.2965 32.4435 84.2574 32.4023C84.0111 32.1423 83.7606 31.7041 83.5923 30.9667C83.4255 30.2365 83.6575 29.6653 84.0561 29.2859ZM84.9615 31.9746C85.0784 32.0021 85.1767 32.0823 85.2268 32.1926C85.2809 32.3114 85.2718 32.4495 85.2026 32.5602C85.0364 32.8262 84.845 33.5176 85.4823 34.1045C85.8766 34.4676 86.1797 34.6781 86.3893 34.7942C86.4942 34.8523 86.5716 34.8845 86.6219 34.9009C86.6441 34.9081 86.6579 34.9113 86.6644 34.9126C86.8328 34.909 86.9857 35.0145 87.0411 35.1755C87.1283 35.4293 87.2719 35.7387 87.4596 35.9797C87.652 36.2267 87.842 36.3421 88.0182 36.3492C88.2723 36.3593 88.5967 36.2629 88.9206 36.1188C89.2347 35.9791 89.5028 35.8156 89.6377 35.7333C89.8084 35.6291 90.0302 35.671 90.1511 35.8302C90.3443 36.0847 90.5805 36.3802 90.8352 36.6046C91.0949 36.8332 91.301 36.9228 91.4494 36.9165C91.4564 36.9137 91.4749 36.9062 91.5069 36.8886C91.5636 36.8574 91.6364 36.8096 91.7253 36.7448C91.8617 36.6456 92.0117 36.525 92.1734 36.395C92.2252 36.3533 92.2782 36.3107 92.3323 36.2675C92.546 36.0971 92.7787 35.9167 92.9884 35.791C93.0927 35.7284 93.2091 35.6684 93.3274 35.6327C93.4378 35.5995 93.6134 35.5681 93.7896 35.6499C94.2816 35.8782 94.7004 35.7958 95.0592 35.5995C95.4345 35.3942 95.7302 35.0695 95.9211 34.8432C96.0749 34.6609 96.2921 34.538 96.4853 34.4461C96.6271 34.3786 96.7898 34.3131 96.9439 34.251C97.0012 34.2278 97.0574 34.2052 97.1109 34.1831C97.5483 34.0025 97.865 33.832 98.0179 33.5875C98.1337 33.4024 98.115 33.2591 98.0776 32.9713C98.0708 32.9185 98.0633 32.8609 98.0559 32.7974C98.034 32.6093 98.0204 32.3738 98.0973 32.12C98.1761 31.8603 98.3378 31.6186 98.6033 31.3887C98.6821 31.3206 98.7637 31.166 98.7888 30.908C98.813 30.6593 98.7779 30.3684 98.6861 30.102C98.5933 29.8328 98.4546 29.6221 98.3001 29.5006C98.1597 29.3902 97.9986 29.3442 97.7895 29.402C97.6148 29.4504 97.3444 29.4832 97.0282 29.5084C96.7022 29.5345 96.2967 29.5546 95.8342 29.5698C94.9087 29.6004 93.741 29.6119 92.4961 29.6112C90.0119 29.6099 87.2079 29.56 85.378 29.5143C85.1331 29.5275 84.8152 29.6391 84.5933 29.8503C84.388 30.0457 84.2482 30.3387 84.3519 30.7932C84.4987 31.4359 84.6982 31.7345 84.8231 31.8664C84.8855 31.9323 84.9325 31.9602 84.9523 31.9702C84.9563 31.9722 84.9594 31.9737 84.9615 31.9746ZM93.565 36.3757C93.565 36.3758 93.5635 36.3761 93.5607 36.3765C93.5637 36.3758 93.5651 36.3756 93.565 36.3757Z" fill="black"/>
<path d="M87.5395 35.2233C86.2781 34.6443 86.2392 33.094 86.2392 33.094C86.2392 33.094 97.4238 28.9623 97.7877 29.1899C98.1515 29.4175 98.2391 31.3879 97.7202 32.3794C97.2013 33.3709 95.7272 34.2712 93.8892 34.9438C92.0511 35.6165 88.8009 35.8023 87.5395 35.2233Z" fill="#802926"/>
<path fill-rule="evenodd" clip-rule="evenodd" d="M86.1084 32.7252L86.2434 33.0907L85.8539 33.1005C85.8498 32.9338 85.9521 32.783 86.1084 32.7252ZM86.6654 33.3505C86.6879 33.4773 86.7252 33.636 86.7867 33.805C86.9333 34.2078 87.2035 34.6352 87.7063 34.8659C87.9658 34.9851 88.3572 35.0761 88.8502 35.1277C89.3371 35.1787 89.8987 35.1888 90.4835 35.1605C91.6582 35.1036 92.8887 34.8934 93.7595 34.5747C94.6595 34.2453 95.459 33.8641 96.0906 33.4517C96.728 33.0354 97.1639 32.607 97.3793 32.1955C97.5961 31.7812 97.702 31.1145 97.6996 30.4964C97.6984 30.1931 97.6711 29.9235 97.6274 29.7255C97.6158 29.6728 97.6036 29.6284 97.5918 29.5919C97.5138 29.6084 97.4138 29.6328 97.292 29.6654C96.9611 29.754 96.5019 29.8942 95.9538 30.0714C94.8592 30.425 93.4311 30.9187 92.0111 31.4206C90.5918 31.9223 89.1836 32.4312 88.13 32.8148C87.6033 33.0065 87.1653 33.1669 86.859 33.2793C86.787 33.3058 86.7223 33.3295 86.6654 33.3505ZM97.8188 28.7929C97.8528 28.7975 97.9246 28.81 97.9985 28.8563C98.1388 28.944 98.22 29.081 98.2678 29.1836C98.3202 29.2958 98.359 29.4249 98.3883 29.5575C98.4471 29.8241 98.4775 30.1516 98.4788 30.4934C98.4815 31.1653 98.3718 31.9795 98.0697 32.5568C97.7661 33.1368 97.2056 33.6542 96.5166 34.1041C95.8219 34.5578 94.9653 34.9632 94.0273 35.3064C93.0601 35.6604 91.7464 35.8794 90.5212 35.9388C89.906 35.9686 89.3037 35.9587 88.769 35.9027C88.2404 35.8473 87.7524 35.7445 87.3813 35.5741C86.6227 35.2259 86.2427 34.5886 86.0545 34.0715C85.9599 33.8116 85.9102 33.5736 85.884 33.4003C85.8708 33.3132 85.8634 33.2414 85.8592 33.1899C85.8571 33.1642 85.8559 33.1434 85.8551 33.1283C85.8547 33.1208 85.8544 33.1146 85.8543 33.1099L85.8541 33.1041L85.854 33.102L85.854 33.1012L85.8539 33.1005C85.8539 33.1003 85.8539 33.1005 86.2434 33.0907C86.1084 32.7252 86.1083 32.7252 86.1084 32.7252L86.2345 32.6787C86.3166 32.6485 86.4371 32.6042 86.5905 32.5479C86.8973 32.4352 87.3359 32.2746 87.8634 32.0826C88.9183 31.6985 90.329 31.1888 91.7514 30.686C93.173 30.1834 94.6093 29.6869 95.7142 29.3299C96.2658 29.1516 96.7401 29.0065 97.0905 28.9127C97.2645 28.8661 97.4164 28.8299 97.5354 28.8091C97.5938 28.7989 97.6554 28.7905 97.7128 28.7884C97.7414 28.7874 97.7785 28.7875 97.8188 28.7929Z" fill="black"/>
<path d="M90.6125 24.0204C87.2715 24.4415 85.3488 26.4509 85.2522 28.8679C85.2155 29.7898 85.4531 31.8483 86.6975 32.7076C88.2529 33.7816 91.51 33.5916 94.6947 32.5463C97.8793 31.5011 98.2532 28.7991 97.7443 26.861C97.2354 24.923 94.7886 23.494 90.6125 24.0204Z" fill="#F2A04E"/>
<path d="M91.6668 24.2771C89.4985 24.3209 87.5913 24.9669 87.3497 26.4039C87.1651 26.8764 87.5169 27.9757 88.1453 28.4515C88.9308 29.0463 91.0718 29.1572 93.2486 28.7084C95.4254 28.2596 96.0602 26.9328 95.5217 25.7186C95.0604 24.6785 94.3326 24.2234 91.6668 24.2771Z" fill="#E37921"/>
<path fill-rule="evenodd" clip-rule="evenodd" d="M90.6628 25.0142C90.7669 24.8908 90.9512 24.8752 91.0746 24.9792L91.5385 25.3706C91.6618 25.4747 91.6774 25.659 91.5734 25.7824C91.4693 25.9057 91.285 25.9214 91.1616 25.8173L90.6977 25.4259C90.5744 25.3219 90.5588 25.1375 90.6628 25.0142Z" fill="black"/>
<path fill-rule="evenodd" clip-rule="evenodd" d="M92.3242 26.5642C92.3883 26.4161 92.5603 26.348 92.7085 26.4121L93.2655 26.6531C93.4136 26.7172 93.4817 26.8892 93.4176 27.0374C93.3535 27.1855 93.1815 27.2536 93.0334 27.1895L92.4764 26.9485C92.3283 26.8844 92.2601 26.7124 92.3242 26.5642Z" fill="black"/>
<path fill-rule="evenodd" clip-rule="evenodd" d="M91.0891 26.7683C91.1868 26.8968 91.1617 27.0801 91.0332 27.1777L90.5499 27.5448C90.4213 27.6424 90.238 27.6174 90.1404 27.4889C90.0428 27.3603 90.0679 27.177 90.1964 27.0794L90.6797 26.7123C90.8082 26.6147 90.9915 26.6398 91.0891 26.7683Z" fill="black"/>
<path fill-rule="evenodd" clip-rule="evenodd" d="M84.4734 28.8324L84.4734 28.8323C84.589 25.94 86.8986 23.6986 90.5148 23.2428C94.8163 22.7006 97.8347 24.1332 98.4978 26.6587C98.783 27.7449 98.8334 29.0848 98.3258 30.3285C97.8056 31.6028 96.7318 32.6933 94.9375 33.2822C93.2891 33.8233 91.6043 34.1494 90.1092 34.1961C88.6417 34.2419 87.2361 34.0221 86.2545 33.3443C85.4176 32.7664 84.9771 31.8342 84.7449 31.0205C84.5089 30.1933 84.4522 29.3644 84.4734 28.8324ZM85.252 28.8634C85.3486 26.4464 87.2713 24.437 90.6123 24.0159C94.7884 23.4895 97.2352 24.9185 97.7441 26.8565C98.253 28.7946 97.8791 31.4966 94.6945 32.5419C91.5098 33.5871 88.2527 33.7772 86.6973 32.7031C85.4529 31.8438 85.2153 29.7853 85.252 28.8634Z" fill="black"/>
</svg>
