<svg width="71" height="90" viewBox="0 0 71 90" fill="none" xmlns="http://www.w3.org/2000/svg">
<path d="M51.6016 47.1523C56.6163 47.6507 66.5572 50.6984 66.5134 55.4507C66.4861 58.4027 65.6182 59.5639 65.2268 59.7766C66.4475 59.1328 68.9879 58.2694 69.4628 59.9293C70.0579 62.0097 68.6728 64.1567 65.949 63.3588C65.7776 62.5432 65.3246 60.8357 64.7187 59.6008C64.577 59.4361 64.4493 59.195 64.3482 58.9431C62.1626 55.4376 56.5535 48.1718 51.6016 47.1523Z" fill="#FDFBEF"/>
<path fill-rule="evenodd" clip-rule="evenodd" d="M51.2176 47.0882C51.2497 46.8772 51.4414 46.7283 51.6538 46.7494C54.2014 47.0026 57.9836 47.8996 61.1336 49.3376C62.7083 50.0565 64.1479 50.9209 65.1971 51.9259C66.2462 52.9307 66.9394 54.1114 66.927 55.4507C66.913 56.964 66.6835 58.0426 66.3925 58.7837C66.3818 58.8111 66.3709 58.838 66.36 58.8646C66.7608 58.7331 67.1854 58.6293 67.5952 58.5863C68.0539 58.5382 68.5329 58.562 68.9462 58.7436C69.3787 58.9337 69.7092 59.2847 69.8609 59.8152C70.1893 60.9631 69.9819 62.1676 69.2644 62.9844C68.5307 63.8195 67.3316 64.1743 65.8488 63.74C65.7069 63.6984 65.5994 63.5822 65.569 63.4375C65.4023 62.6443 64.966 61.004 64.3917 59.8158C64.2326 59.6177 64.102 59.365 64.0022 59.1224C62.9182 57.3885 60.9951 54.7354 58.7359 52.3899C56.449 50.0156 53.8814 48.0248 51.5332 47.5414C51.3242 47.4984 51.1855 47.2992 51.2176 47.0882ZM65.4087 60.1368C65.8229 61.1641 66.1362 62.3103 66.3007 63.03C67.42 63.293 68.2011 62.9792 68.6617 62.4549C69.1689 61.8775 69.3565 60.9684 69.0897 60.0358C69.004 59.7363 68.8389 59.5728 68.6234 59.478C68.3886 59.3749 68.0672 59.3434 67.6789 59.3842C66.9032 59.4655 66.0152 59.8173 65.4283 60.1266C65.4231 60.1294 65.4179 60.1321 65.4126 60.1348C65.4113 60.1355 65.41 60.1362 65.4087 60.1368ZM65.0897 59.3912C65.0824 59.3848 65.0744 59.3773 65.0657 59.3685C64.9506 59.1379 64.828 58.9193 64.6983 58.7226C63.5929 56.9503 61.6289 54.2369 59.3137 51.8334C57.9424 50.4097 56.4253 49.0706 54.8722 48.1071C56.7994 48.5468 58.9192 49.2086 60.8004 50.0674C62.3323 50.7668 63.6831 51.5865 64.6422 52.5052C65.6014 53.4239 66.1344 54.4064 66.1248 55.4432C66.1115 56.8819 65.8935 57.8598 65.6458 58.4905C65.4264 59.0492 65.197 59.3049 65.0897 59.3912Z" fill="#111111"/>
<path d="M37.3953 0.538323C30.6513 2.17978 28.2799 19.2783 27.9372 27.6223C27.777 30.2896 25.6755 30.7001 16.2174 37.0608C8.65093 42.1493 12.3793 48.4826 15.1893 51.0131C9.77492 52.381 -0.642691 57.0044 1.0022 64.5551C2.64708 72.1058 10.3232 73.4464 13.9557 73.1728C13.6815 73.5831 14.2846 75.8401 18.8903 81.5852C23.496 87.3303 31.5011 83.979 34.928 81.5852C50.5544 96.1942 55.0093 86.0308 55.2834 79.123C58.6417 80.5593 65.8107 80.9286 67.6201 70.9158C69.4295 60.9029 58.0935 49.6453 52.1993 45.268C68.0313 49.3717 56.7227 32.9571 50.9656 26.5964C45.2085 20.2358 45.8253 -1.5135 37.3953 0.538323Z" fill="#00BC68"/>
<path fill-rule="evenodd" clip-rule="evenodd" d="M39.9752 1.1637C39.2663 0.800243 38.4534 0.691272 37.4857 0.926795C35.953 1.29986 34.6139 2.56728 33.4602 4.4941C32.3112 6.41317 31.3835 8.92516 30.6488 11.6693C29.18 17.155 28.5041 23.4845 28.3335 27.6375L28.3332 27.6451C28.2894 28.3732 28.109 28.9752 27.6901 29.5602C27.2828 30.129 26.6645 30.6604 25.7924 31.2819C24.9739 31.8652 23.9003 32.549 22.5159 33.4309C22.4212 33.4912 22.325 33.5525 22.2274 33.6147C20.6986 34.5889 18.7972 35.805 16.4368 37.3924C14.5896 38.6346 13.4574 39.9354 12.8243 41.209C12.1924 42.48 12.0462 43.7462 12.2054 44.942C12.5261 47.3513 14.0908 49.4868 15.4533 50.7138C15.5634 50.8129 15.6099 50.9646 15.5743 51.1083C15.5386 51.2521 15.4267 51.3645 15.2832 51.4008C12.6082 52.0766 8.70315 53.5568 5.68234 55.787C2.65428 58.0226 0.617811 60.9253 1.38968 64.4685C2.18129 68.1023 4.41494 70.2343 6.90353 71.4356C9.40661 72.6439 12.1606 72.9041 13.9211 72.7716C14.0741 72.76 14.2203 72.8368 14.2976 72.9693C14.3701 73.0934 14.3703 73.2461 14.2999 73.3698C14.2986 73.3781 14.2969 73.3935 14.2968 73.4179C14.2963 73.4857 14.3082 73.5947 14.348 73.7537C14.4276 74.0713 14.6064 74.5408 14.9446 75.1925C15.62 76.4936 16.9045 78.4711 19.1989 81.3331C21.3868 84.0623 24.3783 84.6449 27.2914 84.2388C30.2177 83.8309 33.0169 82.4266 34.6938 81.2552C34.8491 81.1467 35.0591 81.1616 35.1975 81.291C39.0848 84.9252 42.249 86.9911 44.8002 87.9588C47.3431 88.9234 49.2514 88.7894 50.6765 88.0642C52.1123 87.3335 53.1307 85.9659 53.8095 84.322C54.4876 82.68 54.8111 80.7984 54.8782 79.1059C54.8835 78.974 54.9532 78.8532 55.0648 78.7827C55.1763 78.7122 55.3154 78.7011 55.4367 78.753C57.0505 79.4432 59.5679 79.868 61.8786 78.9394C64.1584 78.0234 66.3343 75.7497 67.221 70.8432C68.0958 66.0021 65.7953 60.8002 62.4694 56.2127C59.1534 51.639 54.8771 47.7583 51.9557 45.5888C51.8016 45.4744 51.7502 45.2668 51.833 45.0937C51.9158 44.9206 52.1097 44.8304 52.2955 44.8785C54.2533 45.386 55.7634 45.5684 56.9005 45.5031C58.0373 45.4379 58.7642 45.1282 59.2092 44.6894C59.6503 44.2545 59.8704 43.6374 59.8788 42.8352C59.8874 42.0279 59.6799 41.0634 59.2962 39.9901C57.7556 35.6804 53.5328 30.0341 50.6638 26.8643C49.1595 25.2024 48.0983 22.5732 47.2138 19.6685C46.6631 17.8598 46.1698 15.9028 45.6825 13.969C45.3871 12.7968 45.0938 11.6332 44.7912 10.5163C43.981 7.52608 43.1012 4.85909 41.923 3.0691C41.3369 2.17857 40.6938 1.53216 39.9752 1.1637ZM47.9812 19.4348C48.8637 22.3329 49.8843 24.8076 51.2586 26.326C54.1467 29.5169 58.4567 35.2583 60.0517 39.7201C60.4519 40.8396 60.691 41.9045 60.681 42.8437C60.671 43.788 60.4076 44.6344 59.7725 45.2607C59.1412 45.883 58.1991 46.2322 56.9465 46.304C56.0856 46.3534 55.0605 46.2732 53.854 46.0498C56.685 48.3479 60.2509 51.7861 63.1188 55.7418C66.4821 60.3807 68.9449 65.8141 68.0104 70.9859C67.0876 76.0923 64.7744 78.6404 62.1778 79.6838C59.8578 80.616 57.3902 80.3144 55.649 79.6965C55.5354 81.3102 55.1982 83.0612 54.551 84.6282C53.8292 86.3762 52.7058 87.9316 51.0403 88.7792C49.3641 89.6322 47.2115 89.7315 44.5157 88.7089C41.8819 87.7098 38.7057 85.6327 34.885 82.096C33.1142 83.278 30.3339 84.6247 27.4022 85.0333C24.3046 85.4651 20.9907 84.8508 18.5729 81.8349C16.2616 78.9517 14.9417 76.9282 14.2326 75.562C13.8786 74.88 13.6702 74.3492 13.5699 73.9487C13.5385 73.8233 13.5164 73.706 13.5046 73.5974C11.639 73.6614 8.99311 73.335 6.55479 72.158C3.88598 70.8698 1.45913 68.5562 0.605847 64.6393C-0.267169 60.6318 2.08273 57.4474 5.20586 55.1416C8.08219 53.0181 11.7019 51.5663 14.3957 50.8078C13.0854 49.4591 11.7227 47.3957 11.4102 45.0479C11.2318 43.7079 11.3966 42.2785 12.1059 40.8519C12.8139 39.4278 14.0531 38.0287 15.9891 36.7267C18.3579 35.1337 20.2659 33.9133 21.7963 32.9382C21.8904 32.8782 21.983 32.8192 22.0742 32.7611C23.4697 31.8722 24.526 31.1993 25.3268 30.6286C26.1823 30.019 26.7106 29.5501 27.0379 29.0931C27.353 28.6531 27.4954 28.2045 27.5322 27.6008C27.7045 23.4097 28.3857 17.0201 29.8739 11.4619C30.6178 8.68321 31.5689 6.0913 32.772 4.08199C33.9704 2.08044 35.4567 0.594997 37.296 0.147332C38.4359 -0.1301 39.4478 -0.00824123 40.3412 0.449836C41.2249 0.902902 41.9617 1.66872 42.5931 2.62803C43.8501 4.53773 44.7566 7.32088 45.5655 10.3065C45.8765 11.4543 46.1728 12.6305 46.4692 13.807C46.9518 15.7229 47.4346 17.6395 47.9812 19.4348Z" fill="#111111"/>
<path d="M29.0949 32.8602C29.2845 36.26 31.5907 38.8962 34.2459 38.7481C36.9012 38.6 38.9 35.7239 38.7105 32.324C38.5209 28.9241 36.2147 26.288 33.5594 26.4361C30.9041 26.5841 28.9053 29.4603 29.0949 32.8602Z" fill="white"/>
<path fill-rule="evenodd" clip-rule="evenodd" d="M34.2013 37.9471C32.1614 38.0609 30.0717 35.9686 29.8959 32.8155C29.72 29.6624 31.5642 27.3508 33.6041 27.237C35.6439 27.1233 37.7337 29.2155 37.9095 32.3687C38.0853 35.5218 36.2411 37.8334 34.2013 37.9471ZM34.2459 38.7481C31.5907 38.8962 29.2845 36.26 29.0949 32.8602C28.9053 29.4603 30.9041 26.5841 33.5594 26.4361C36.2147 26.288 38.5209 28.9241 38.7105 32.324C38.9 35.7239 36.9012 38.6 34.2459 38.7481Z" fill="#111111"/>
<path d="M30.3861 34.4415C30.4998 36.8224 32.2464 38.6734 34.2872 38.5759C36.328 38.4784 37.8901 36.4692 37.7763 34.0883C37.6625 31.7074 35.9159 29.8564 33.8752 29.9539C31.8344 30.0515 30.2723 32.0606 30.3861 34.4415Z" fill="#111111"/>
<path d="M37.838 32.3473C37.8109 35.7523 39.8132 38.5288 42.3102 38.5487C44.8072 38.5686 46.8535 35.8243 46.8806 32.4193C46.9077 29.0142 44.9054 26.2378 42.4084 26.2179C39.9114 26.198 37.8651 28.9422 37.838 32.3473Z" fill="white"/>
<path fill-rule="evenodd" clip-rule="evenodd" d="M39.7782 36.2482C39.0787 35.2782 38.6279 33.9035 38.6402 32.3537C38.6526 30.8038 39.1253 29.4364 39.8401 28.4778C40.5553 27.5186 41.4704 27.0127 42.402 27.0201C43.3336 27.0275 44.2406 27.548 44.9404 28.5184C45.6399 29.4883 46.0907 30.863 46.0784 32.4129C46.066 33.9628 45.5933 35.3301 44.8785 36.2888C44.1633 37.2479 43.2481 37.7539 42.3166 37.7465C41.385 37.7391 40.478 37.2186 39.7782 36.2482ZM42.3102 38.5487C39.8132 38.5288 37.8109 35.7523 37.838 32.3473C37.8651 28.9422 39.9114 26.198 42.4084 26.2179C44.9054 26.2378 46.9077 29.0142 46.8806 32.4193C46.8535 35.8243 44.8072 38.5686 42.3102 38.5487Z" fill="#111111"/>
<path d="M38.7523 33.3341C38.4486 35.6983 39.8452 37.8259 41.8716 38.0862C43.8981 38.3465 45.787 36.641 46.0907 34.2768C46.3944 31.9126 44.9979 29.7851 42.9714 29.5248C40.945 29.2644 39.056 30.97 38.7523 33.3341Z" fill="#111111"/>
<path d="M10.8319 64.1107C4.53535 58.5279 8.9898 50.5968 12.0041 47.3291C12.7557 46.3932 15.4623 45.9253 16.6656 46.5269C19.4857 47.9368 21.4789 51.9579 21.0778 53.0529C23.0242 52.679 25.6982 52.3852 28.4152 52.646C33.6065 53.1445 42.3145 50.9845 43.9891 53.4768C45.3288 55.4707 45.2171 57.0719 44.9938 57.6233C45.5614 58.516 45.9153 59.6017 45.6637 60.7876C45.1278 63.3131 44.9938 63.3907 44.9938 63.1138C44.19 65.2405 42.6494 65.7722 41.9795 65.7722C41.6446 67.4338 39.1327 68.763 36.6208 67.9322C34.6113 67.2676 36.2301 65.5507 37.2907 64.7753C29.7549 61.4522 16.3581 68.2645 10.8319 64.1107Z" fill="#FDFBEF"/>
<path fill-rule="evenodd" clip-rule="evenodd" d="M13.0595 47.0903C12.7095 47.2441 12.4654 47.4164 12.3348 47.579L12.3262 47.5897L12.3169 47.5998C10.842 49.1988 9.01891 51.9379 8.33548 54.9396C7.65832 57.9137 8.09852 61.1263 11.1037 63.7984C12.3806 64.7517 14.1433 65.0998 16.2552 65.0973C18.3703 65.0947 20.768 64.742 23.2645 64.3569C23.403 64.3355 23.5419 64.3141 23.6809 64.2925C26.0353 63.9285 28.4615 63.5533 30.7547 63.4517C33.182 63.3442 35.5042 63.54 37.4705 64.4071L38.1066 64.6876L37.5453 65.0979C37.0303 65.4744 36.4277 66.0487 36.1855 66.5646C36.0672 66.8163 36.0643 66.9896 36.1152 67.1084C36.1659 67.2266 36.3178 67.4024 36.7647 67.5502C37.9219 67.9329 39.0751 67.8166 39.9719 67.4189C40.8805 67.0162 41.4707 66.3544 41.6043 65.6917C41.7647 64.8961 41.8003 64.0791 41.6667 63.3974C41.5326 62.7132 41.2412 62.2191 40.7949 61.9661C40.6022 61.8568 40.5346 61.612 40.6438 61.4193C40.7531 61.2266 40.9979 61.159 41.1906 61.2682C41.9165 61.6798 42.295 62.4319 42.4539 63.2431C42.5789 63.881 42.5764 64.5891 42.4853 65.2825C43.1235 65.0798 44.068 64.4752 44.6366 62.9707C44.9772 62.0696 44.7297 61.2103 44.2267 60.4618C43.7202 59.7079 42.9822 59.1144 42.4622 58.8049C42.2718 58.6916 42.2094 58.4454 42.3227 58.255C42.436 58.0647 42.6822 58.0022 42.8725 58.1156C43.4689 58.4706 44.305 59.1399 44.8926 60.0144C45.0408 60.235 45.1749 60.4716 45.2853 60.7216C45.2867 60.7155 45.288 60.7093 45.2893 60.7031C45.5127 59.6503 45.2037 58.6715 44.6733 57.8373C44.0708 56.8897 43.2053 56.1677 42.6249 55.8112C42.4361 55.6953 42.3771 55.4483 42.493 55.2595C42.609 55.0707 42.856 55.0117 43.0447 55.1276C43.5273 55.424 44.1683 55.9297 44.7437 56.5951C44.714 55.9015 44.4722 54.8871 43.6741 53.6993C43.3581 53.229 42.6574 52.9151 41.5425 52.7618C40.4502 52.6116 39.0752 52.6301 37.5608 52.713C36.7754 52.756 35.9519 52.8167 35.1169 52.8783C32.7732 53.0511 30.3382 53.2307 28.3949 53.0441C25.7272 52.7879 23.0933 53.0764 21.1714 53.4456C20.156 53.6407 19.3478 53.8567 18.8464 54.0226C18.6361 54.0921 18.4092 53.978 18.3396 53.7677C18.2701 53.5574 18.3842 53.3305 18.5945 53.2609C19.0871 53.098 19.8301 52.8976 20.746 52.7119C20.7462 52.6665 20.7438 52.6142 20.7379 52.5544C20.7197 52.3719 20.6712 52.1475 20.5896 51.889C20.4266 51.3724 20.1419 50.7523 19.7548 50.115C18.9763 48.833 17.8223 47.5434 16.5042 46.8844C16.0168 46.6407 15.1425 46.5919 14.2515 46.7455C13.817 46.8204 13.4028 46.9396 13.0595 47.0903ZM21.5434 52.5624C21.5415 52.5333 21.539 52.5041 21.5361 52.475C21.511 52.2225 21.4476 51.9421 21.3547 51.6476C21.1687 51.0582 20.854 50.3796 20.4405 49.6986C19.6176 48.3437 18.3649 46.9178 16.8629 46.1669C16.147 45.809 15.0663 45.791 14.1153 45.9549C13.6288 46.0388 13.1502 46.1744 12.737 46.3558C12.3357 46.532 11.9639 46.7655 11.7185 47.0653C10.1806 48.7355 8.27515 51.591 7.55328 54.7615C6.82468 57.9615 7.3034 61.5011 10.5837 64.4096L10.5958 64.4203L10.6088 64.4301C12.094 65.5465 14.0734 65.9022 16.2561 65.8995C18.4427 65.8969 20.9013 65.5331 23.3868 65.1497C23.5212 65.129 23.6557 65.1082 23.7903 65.0874C26.1568 64.7216 28.5425 64.3528 30.7902 64.2532C32.8994 64.1597 34.8524 64.3057 36.5245 64.8951C36.1067 65.2706 35.6865 65.7399 35.4593 66.2236C35.2915 66.5811 35.2003 67.0102 35.3778 67.4244C35.5557 67.8393 35.955 68.1274 36.5128 68.3118C37.8676 68.7599 39.2263 68.627 40.2971 68.1523C41.2497 67.73 42.0195 67.0131 42.3112 66.1464C43.1618 66.0146 44.4793 65.35 45.2648 63.5545C45.3314 63.5109 45.3694 63.4597 45.3821 63.4424C45.4092 63.4057 45.4291 63.3685 45.443 63.3399C45.4715 63.2814 45.4989 63.209 45.5262 63.1276C45.6348 62.8028 45.8063 62.1312 46.074 60.8696C46.338 59.6254 45.998 58.4934 45.4509 57.5706C45.6688 56.771 45.6169 55.1523 44.34 53.2519C43.8186 52.476 42.8029 52.1253 41.6518 51.9671C40.4781 51.8057 39.0377 51.8287 37.5169 51.912C36.6902 51.9572 35.8398 52.0199 34.9886 52.0826C32.668 52.2536 30.3413 52.4251 28.4715 52.2455C25.9425 52.0027 23.4571 52.2319 21.5434 52.5624Z" fill="#111111"/>
<path d="M29.7109 64.1793V59.3838C31.2043 58.4537 33.2746 59.2869 34.1231 59.8197V64.1793C33.5801 63.8305 30.9554 64.0339 29.7109 64.1793Z" fill="#1779C7"/>
<path fill-rule="evenodd" clip-rule="evenodd" d="M32.223 58.6621C33.0884 58.8315 33.8638 59.194 34.3235 59.4826C34.4404 59.556 34.5113 59.6843 34.5113 59.8223V64.1819C34.5113 64.3286 34.4312 64.4636 34.3025 64.5339C34.1737 64.6042 34.0169 64.5986 33.8934 64.5194C33.8935 64.5194 33.8903 64.5174 33.8826 64.5138C33.875 64.5102 33.8643 64.5057 33.8499 64.5005C33.8206 64.4901 33.7811 64.4788 33.7302 64.4677C33.6277 64.4453 33.4949 64.4271 33.3343 64.4141C33.0133 64.3881 32.6119 64.385 32.1787 64.3975C31.314 64.4225 30.3589 64.5085 29.7445 64.5803C29.6308 64.5935 29.5168 64.5576 29.4313 64.4815C29.3458 64.4054 29.2969 64.2963 29.2969 64.1819V59.3864C29.2969 59.2478 29.3684 59.1191 29.4859 59.0459C30.3522 58.5064 31.36 58.4932 32.223 58.6621ZM30.0991 59.6218V63.735C30.6963 63.675 31.4522 63.616 32.1555 63.5956C32.602 63.5827 33.0363 63.5851 33.3991 63.6145C33.5068 63.6232 33.6109 63.6345 33.7091 63.6491V60.0513C33.3075 59.8282 32.7141 59.5757 32.0688 59.4494C31.3857 59.3156 30.6891 59.3312 30.0991 59.6218Z" fill="#111111"/>
<path d="M31.343 51.5432C32.2873 51.2099 34.509 50.7434 35.842 51.5432C37.036 52.2595 38.2299 53.5747 38.1979 54.8758C38.1949 54.9979 38.1811 55.1199 38.1555 55.2413C38.068 55.9318 37.897 56.987 37.6751 57.5418C37.3418 58.375 35.842 59.8747 33.8426 60.0413C31.8431 60.2079 29.5101 59.5414 29.0102 58.8749C28.6103 58.3417 28.6553 56.3199 28.7278 55.3757C28.6441 53.7254 30.3251 52.191 31.343 51.5432Z" fill="#FFEB34"/>
<path fill-rule="evenodd" clip-rule="evenodd" d="M31.5302 51.9013C31.056 52.2089 30.4371 52.7154 29.9459 53.329C29.4366 53.9652 29.1042 54.6659 29.1389 55.3502C29.1527 55.622 29.2244 55.8998 29.3746 56.1816C29.646 56.6903 30.1408 57.0537 30.8055 57.2792C31.4716 57.5053 32.2811 57.582 33.121 57.5321C33.9586 57.4822 34.8067 57.3074 35.5414 57.0467C36.2825 56.7838 36.8771 56.4448 37.2352 56.0867C37.5412 55.7806 37.7034 55.4702 37.7702 55.1686C37.7855 55.0467 37.7981 54.9373 37.8077 54.8458C37.8158 54.3239 37.5798 53.7633 37.1714 53.2286C36.7619 52.6924 36.2048 52.2172 35.6462 51.882C35.0843 51.5449 34.2949 51.4571 33.485 51.5133C32.7108 51.567 31.9776 51.7481 31.5302 51.9013ZM38.5619 55.3023C38.5905 55.1617 38.6059 55.0208 38.6094 54.8805C38.6284 54.1056 38.284 53.3636 37.8089 52.7416C37.331 52.1158 36.6942 51.5753 36.0589 51.1941C35.2877 50.7314 34.2997 50.6526 33.4294 50.713C32.549 50.7741 31.7219 50.9827 31.22 51.1598L31.1768 51.1751L31.1382 51.1997C30.5991 51.5427 29.889 52.1164 29.3196 52.8277C28.76 53.5268 28.2972 54.4087 28.3365 55.3645C28.3002 55.849 28.2716 56.5934 28.3016 57.2915C28.3169 57.646 28.3476 57.9984 28.4031 58.3027C28.4555 58.5905 28.54 58.8973 28.6998 59.1104C28.8837 59.3556 29.1945 59.5564 29.532 59.7183C29.8816 59.886 30.3086 60.0346 30.7752 60.154C31.7068 60.3923 32.8351 60.5235 33.8864 60.4359C34.9769 60.345 35.9219 59.892 36.6348 59.3573C37.3387 58.8293 37.8555 58.1918 38.058 57.6857C38.3001 57.0805 38.4746 55.9868 38.5619 55.3023ZM37.4485 56.9601C37.0018 57.2983 36.4306 57.5825 35.8096 57.8028C35.003 58.0889 34.0806 58.2786 33.1686 58.3329C32.2589 58.387 31.3396 58.3076 30.5477 58.0389C29.9932 57.8508 29.4881 57.5647 29.0992 57.1565C29.1004 57.1901 29.1017 57.2237 29.1031 57.257C29.1175 57.5927 29.146 57.9047 29.1923 58.1589C29.2417 58.4298 29.3015 58.5756 29.3416 58.6291C29.4076 58.7171 29.576 58.8496 29.879 58.995C30.1699 59.1345 30.5449 59.267 30.974 59.3768C31.8337 59.5967 32.8716 59.7155 33.8198 59.6364C34.7287 59.5607 35.5333 59.1806 36.1535 58.7155C36.7826 58.2436 37.1823 57.7148 37.3131 57.3877C37.3603 57.2698 37.4057 57.1237 37.4485 56.9601ZM33.5751 52.7762L35.3404 55.1299C35.4733 55.3071 35.4374 55.5585 35.2601 55.6914C35.0829 55.8243 34.8315 55.7884 34.6986 55.6112L33.4645 53.9658L31.7913 55.4996C31.628 55.6493 31.3743 55.6382 31.2246 55.4749C31.0749 55.3116 31.0859 55.0579 31.2492 54.9082L33.5751 52.7762Z" fill="#111111"/>
<path fill-rule="evenodd" clip-rule="evenodd" d="M42.9838 42.1223C43.3154 42.143 43.5675 42.4287 43.5467 42.7603C43.4997 43.5129 43.261 44.1241 42.8756 44.5987C42.4938 45.0688 41.9972 45.3694 41.4869 45.5546C40.4838 45.9187 39.3513 45.8663 38.6166 45.7194C38.2908 45.6542 38.0794 45.3373 38.1446 45.0114C38.2098 44.6856 38.5268 44.4743 38.8526 44.5395C39.455 44.6599 40.348 44.6878 41.0764 44.4235C41.4318 44.2945 41.7274 44.1037 41.9414 43.8401C42.1519 43.581 42.3126 43.2162 42.3458 42.6852C42.3665 42.3536 42.6521 42.1016 42.9838 42.1223Z" fill="#111111"/>
</svg>
