<svg width="131" height="110" viewBox="0 0 131 110" fill="none" xmlns="http://www.w3.org/2000/svg">
<path d="M94.5419 100.498C94.0682 99.5207 94.3937 85.0757 94.7053 79.2359L93.3764 71.9816L99.679 73.8449C99.6885 79.6088 99.7935 92.4811 100.138 97.8591C100.482 103.237 100.25 104.623 100.091 104.643C98.4633 106.93 90.2554 105.354 88.6272 105.083C86.8513 104.787 80.1631 103.848 82.2652 100.794C83.894 98.428 95.134 101.721 94.5419 100.498Z" fill="#FFEB34"/>
<path fill-rule="evenodd" clip-rule="evenodd" d="M92.8714 71.4118L100.087 73.545L100.087 73.8441C100.097 79.6117 100.202 92.4704 100.545 97.8334C100.717 100.528 100.746 102.234 100.711 103.274C100.693 103.792 100.659 104.157 100.616 104.401C100.594 104.521 100.567 104.63 100.53 104.72C100.512 104.764 100.484 104.822 100.438 104.877C100.424 104.894 100.404 104.916 100.378 104.939C99.8616 105.607 98.9272 105.943 97.9147 106.11C96.8484 106.287 95.5852 106.294 94.3433 106.223C92.1455 106.096 89.9486 105.716 88.913 105.538C88.7773 105.514 88.6616 105.494 88.5684 105.479C88.4942 105.466 88.4106 105.453 88.3186 105.438C87.3318 105.277 85.3877 104.961 83.8499 104.345C83.0185 104.012 82.2289 103.562 81.7994 102.938C81.5771 102.615 81.4493 102.242 81.4687 101.824C81.4879 101.412 81.6491 100.992 81.942 100.567C82.2191 100.164 82.6726 99.9192 83.1764 99.7679C83.685 99.6151 84.2937 99.5427 84.9474 99.5206C86.2556 99.4762 87.8223 99.6317 89.2942 99.8193C89.9038 99.897 90.4934 99.9796 91.0452 100.057C91.8438 100.169 92.5633 100.27 93.1497 100.328C93.5689 100.37 93.8867 100.387 94.0986 100.376C94.0885 100.324 94.08 100.272 94.0725 100.221C94.0469 100.046 94.0255 99.8268 94.0072 99.5722C93.9707 99.062 93.9456 98.3868 93.9299 97.5927C93.8986 96.0032 93.9046 93.9183 93.9352 91.6848C93.996 87.2417 94.1541 82.1955 94.3094 79.2616L92.8714 71.4118ZM93.8957 72.5512L95.1155 79.21L95.113 79.2571C94.9576 82.1703 94.7984 87.236 94.7374 91.6958C94.7068 93.9258 94.7009 96.0004 94.732 97.5769C94.7475 98.3657 94.7723 99.025 94.8074 99.5148C94.825 99.7602 94.8448 99.9574 94.8663 100.104C94.8885 100.256 94.9076 100.316 94.9098 100.323C94.91 100.323 94.9101 100.324 94.91 100.323C94.9503 100.407 94.9857 100.521 94.9682 100.653C94.9494 100.794 94.8771 100.904 94.7897 100.98C94.6423 101.108 94.4444 101.146 94.3078 101.163C94.004 101.201 93.5658 101.176 93.0696 101.127C92.4722 101.067 91.722 100.962 90.9062 100.848C90.356 100.771 89.776 100.689 89.1928 100.615C87.7252 100.428 86.2135 100.28 84.9746 100.322C84.3548 100.343 83.8228 100.411 83.4072 100.536C82.9869 100.662 82.7328 100.832 82.6028 101.021C82.3701 101.359 82.2805 101.637 82.27 101.861C82.2598 102.081 82.3235 102.284 82.4603 102.483C82.7492 102.903 83.3485 103.28 84.1483 103.6C85.5973 104.181 87.4525 104.483 88.4493 104.646C88.5404 104.661 88.6244 104.675 88.7003 104.687C88.7966 104.703 88.915 104.724 89.0527 104.748C90.0932 104.927 92.2419 105.298 94.3896 105.422C95.6067 105.492 96.8023 105.482 97.7836 105.319C98.7873 105.153 99.4628 104.844 99.7711 104.41L99.8038 104.364C99.81 104.34 99.8176 104.306 99.8258 104.26C99.8596 104.071 99.8919 103.749 99.9091 103.246C99.9433 102.244 99.9161 100.568 99.7445 97.8846C99.4053 92.583 99.2982 80.0407 99.2856 74.1447L93.8957 72.5512Z" fill="#111111"/>
<path d="M105.927 99.4543C105.379 98.5422 104.567 85.2232 104.447 79.3641L102.577 72.1615L109.045 73.1916C109.481 78.9329 110.539 91.7439 111.282 97.0569C112.025 102.37 111.374 102.927 111.374 102.927C109.909 105.419 103.254 105.497 101.598 105.465C99.6442 105.427 92.9014 105.815 94.5037 102.365C96.106 98.9138 106.612 100.594 105.927 99.4543Z" fill="#FFEB34"/>
<path fill-rule="evenodd" clip-rule="evenodd" d="M102.028 71.6596L109.422 72.8372L109.444 73.134C109.881 78.879 110.938 91.6764 111.679 96.9747C112.052 99.6436 112.08 101.145 112.006 101.992C111.969 102.416 111.906 102.69 111.84 102.871C111.807 102.962 111.771 103.034 111.735 103.09C111.722 103.11 111.709 103.128 111.697 103.145C111.256 103.869 110.474 104.378 109.597 104.744C108.698 105.119 107.642 105.368 106.598 105.534C104.51 105.867 102.406 105.878 101.567 105.861C101.386 105.858 101.157 105.858 100.892 105.859C99.7835 105.861 98.0505 105.865 96.6187 105.584C95.7374 105.411 94.8865 105.118 94.3665 104.583C94.0978 104.307 93.915 103.964 93.8697 103.549C93.8248 103.137 93.9184 102.689 94.1417 102.209C94.6252 101.167 95.7439 100.578 96.9706 100.225C98.2165 99.8658 99.6962 99.715 101.073 99.6378C101.765 99.599 102.437 99.5785 103.047 99.5606L103.137 99.558C103.714 99.5412 104.228 99.5262 104.654 99.4997C105.018 99.4771 105.29 99.4474 105.473 99.4098C105.457 99.3582 105.444 99.3054 105.431 99.2536C105.392 99.0909 105.353 98.8873 105.315 98.6511C105.238 98.1778 105.16 97.5516 105.082 96.8145C104.927 95.3391 104.77 93.4002 104.626 91.3101C104.341 87.1519 104.109 82.3789 104.048 79.437L102.028 71.6596ZM103.126 72.6544L104.847 79.2823L104.848 79.3285C104.908 82.2497 105.14 87.0375 105.426 91.2097C105.569 93.2957 105.726 95.2237 105.88 96.6852C105.957 97.4166 106.033 98.0264 106.107 98.479C106.143 98.7056 106.178 98.8875 106.211 99.0229C106.227 99.0907 106.242 99.1427 106.255 99.1808C106.267 99.2162 106.274 99.2298 106.274 99.2298C106.274 99.2298 106.274 99.2295 106.273 99.2288C106.318 99.3024 106.359 99.4023 106.36 99.5235C106.36 99.6534 106.314 99.772 106.24 99.8671C106.114 100.03 105.923 100.104 105.797 100.143C105.518 100.23 105.111 100.273 104.658 100.301C104.218 100.328 103.691 100.343 103.121 100.36L103.025 100.363C102.414 100.381 101.752 100.401 101.072 100.439C99.7085 100.516 98.3041 100.663 97.151 100.995C95.9785 101.333 95.1831 101.828 94.8655 102.512C94.6882 102.894 94.642 103.188 94.6668 103.417C94.6912 103.641 94.7875 103.833 94.9562 104.007C95.3109 104.371 95.9673 104.63 96.8156 104.796C98.1613 105.06 99.7789 105.057 100.893 105.056C101.175 105.055 101.424 105.055 101.628 105.059C102.446 105.075 104.497 105.063 106.517 104.742C107.528 104.581 108.513 104.345 109.325 104.006C110.147 103.663 110.735 103.238 111.032 102.734L111.068 102.671L111.077 102.664C111.08 102.656 111.084 102.646 111.089 102.634C111.121 102.544 111.174 102.347 111.207 101.968C111.274 101.208 111.255 99.7744 110.885 97.1303C110.152 91.8924 109.116 79.409 108.667 73.537L103.126 72.6544Z" fill="#111111"/>
<path d="M33.543 104.018C33.4093 103.126 33.1137 99.7641 33.4093 98.3203L34.4964 92.3863L29.3409 93.9105C29.3331 98.6254 29.2472 97.46 28.9657 101.859C28.6843 106.258 28.874 107.392 29.004 107.408C30.3353 109.279 33.5437 108.141 34.8728 107.768C35.6264 107.557 40.716 106.241 40.0768 104.26C39.3554 102.024 33.7077 105.117 33.543 104.018Z" fill="#FFEB34"/>
<path fill-rule="evenodd" clip-rule="evenodd" d="M35.0399 91.8205L28.9717 93.6145L28.9712 93.9137C28.9659 97.0956 28.9258 97.5746 28.8126 98.9253C28.7586 99.569 28.6881 100.411 28.5968 101.837C28.4558 104.043 28.432 105.441 28.4611 106.295C28.4756 106.72 28.5036 107.022 28.5401 107.227C28.558 107.327 28.581 107.423 28.6144 107.503C28.6307 107.542 28.6572 107.597 28.7006 107.65C28.7127 107.665 28.7292 107.683 28.7506 107.702C29.548 108.765 30.8497 108.932 32.0049 108.833C33.0031 108.748 34.0031 108.454 34.6749 108.256C34.7994 108.22 34.9127 108.186 35.0126 108.158C35.0416 108.15 35.0775 108.14 35.1198 108.129C35.6151 107.992 36.9802 107.616 38.1987 107.045C38.8565 106.737 39.5075 106.356 39.9565 105.9C40.4103 105.439 40.7141 104.835 40.49 104.141C40.3691 103.766 40.1374 103.491 39.8304 103.311C39.5336 103.136 39.185 103.06 38.8324 103.037C38.1337 102.991 37.3032 103.147 36.5411 103.326C36.2388 103.397 35.95 103.47 35.6777 103.539C35.2344 103.652 34.8351 103.753 34.4929 103.814C34.2386 103.859 34.0637 103.872 33.9568 103.862C33.892 103.385 33.7967 102.405 33.7472 101.361C33.6934 100.226 33.6972 99.0711 33.8337 98.4046L33.8345 98.4006L35.0399 91.8205ZM34.0156 92.9599L33.0469 98.2479C32.8886 99.0255 32.8925 100.271 32.9459 101.399C33 102.541 33.1083 103.618 33.1777 104.081C33.2032 104.251 33.2887 104.398 33.4251 104.501C33.5496 104.595 33.6926 104.635 33.8152 104.653C34.055 104.688 34.3463 104.655 34.6337 104.604C35.0004 104.538 35.4528 104.424 35.9212 104.305C36.1879 104.238 36.4598 104.169 36.7239 104.107C37.4845 103.929 38.2116 103.8 38.7798 103.837C39.0607 103.856 39.273 103.914 39.4238 104.002C39.5644 104.085 39.6671 104.203 39.7265 104.387C39.822 104.683 39.7293 104.987 39.3849 105.337C39.0359 105.691 38.4872 106.024 37.8583 106.318C36.7061 106.858 35.405 107.218 34.9058 107.356C34.863 107.367 34.8262 107.378 34.7958 107.386C34.6834 107.418 34.5606 107.454 34.4291 107.492C33.7527 107.69 32.8455 107.956 31.9364 108.034C30.8427 108.128 29.9004 107.936 29.3622 107.18L29.3436 107.154C29.3394 107.136 29.3348 107.114 29.3299 107.086C29.3031 106.936 29.2769 106.678 29.2629 106.267C29.235 105.451 29.2571 104.083 29.3974 101.889C29.4872 100.485 29.5573 99.6483 29.6113 99.0032C29.7221 97.6794 29.7653 97.1628 29.7728 94.2142L34.0156 92.9599Z" fill="#111111"/>
<path d="M24.2538 103.156C24.2538 102.243 24.5102 102.243 25.4639 98.4171L26.9937 92.5254L21.7034 93.368C21.4403 94.3489 20.4813 96.8488 19.8732 101.195C19.2651 105.541 19.7978 105.997 19.7978 105.997C20.9963 108.035 23.5161 108.099 24.8712 108.072C26.4692 108.041 31.9848 108.359 30.6742 105.537C29.3635 102.714 24.2538 104.271 24.2538 103.156Z" fill="#FFEB34"/>
<path fill-rule="evenodd" clip-rule="evenodd" d="M27.5429 92.0352L21.3786 93.017L21.3159 93.2507C21.2674 93.4313 21.1929 93.6699 21.0999 93.968C20.7041 95.2357 19.9721 97.5801 19.4762 101.124C19.1704 103.31 19.1472 104.544 19.2082 105.245C19.2387 105.596 19.2914 105.827 19.3485 105.983C19.3774 106.062 19.4089 106.126 19.442 106.178C19.4524 106.194 19.4631 106.21 19.474 106.224C20.1474 107.348 21.1791 107.918 22.188 108.202C23.199 108.487 24.2182 108.494 24.902 108.481C25.0479 108.478 25.2336 108.478 25.4489 108.479C26.3547 108.481 27.7829 108.484 28.962 108.253C29.6859 108.111 30.3997 107.867 30.8401 107.415C31.0689 107.18 31.2264 106.885 31.2654 106.528C31.3038 106.175 31.223 105.795 31.0362 105.392C30.6507 104.562 29.9856 104.065 29.2497 103.767C28.5242 103.473 27.7105 103.365 26.9782 103.313C26.649 103.289 26.3283 103.277 26.0354 103.265C26.0008 103.264 25.9665 103.263 25.9327 103.261C25.6081 103.248 25.3273 103.236 25.0939 103.21C24.8715 103.185 24.7327 103.153 24.6553 103.12C24.6608 102.771 24.7134 102.579 24.8849 102.025C24.8939 101.995 24.9032 101.966 24.9128 101.935C25.0993 101.333 25.3972 100.372 25.8529 98.544L27.5429 92.0352ZM20.1015 105.751C20.1009 105.749 20.1004 105.748 20.0998 105.746C20.076 105.681 20.0336 105.527 20.007 105.221C19.9536 104.607 19.9681 103.441 20.2704 101.28C20.7558 97.8112 21.4619 95.546 21.8613 94.2646C21.9239 94.0639 21.9789 93.8873 22.0244 93.734L26.4447 93.03L25.0746 98.3064C24.6238 100.115 24.3303 101.062 24.1458 101.657C24.1361 101.688 24.1268 101.718 24.1177 101.748C23.9329 102.345 23.853 102.62 23.853 103.14C23.853 103.293 23.8989 103.442 23.9954 103.571C24.0869 103.693 24.2057 103.774 24.3168 103.828C24.529 103.932 24.7952 103.979 25.0516 104.008C25.3177 104.037 25.6265 104.051 25.9468 104.063C25.9809 104.065 26.0152 104.066 26.0496 104.067C26.3438 104.079 26.6514 104.091 26.9669 104.114C27.6759 104.164 28.3853 104.266 28.9865 104.509C29.5774 104.748 30.0424 105.114 30.3124 105.696C30.4532 105.999 30.4867 106.226 30.4682 106.396C30.4501 106.562 30.3792 106.706 30.2503 106.838C29.9753 107.121 29.4561 107.329 28.7651 107.465C27.6721 107.679 26.3593 107.677 25.4474 107.676C25.2159 107.675 25.0103 107.675 24.8407 107.678C24.1693 107.691 23.2511 107.68 22.3637 107.43C21.4837 107.182 20.6661 106.709 20.1404 105.815L20.1036 105.753L20.1015 105.751Z" fill="#111111"/>
<path d="M20.35 95.607C17.0592 95.607 17.8819 86.5384 18.7046 82.0041L37.6271 81.1797V93.5459C37.6271 96.8436 24.4636 95.607 20.35 95.607Z" fill="#8F602C"/>
<path fill-rule="evenodd" clip-rule="evenodd" d="M38.0387 80.7656V93.5508C38.0387 94.1196 37.7466 94.5686 37.3078 94.9046C36.8796 95.2325 36.2914 95.4717 35.6203 95.6515C34.2744 96.012 32.4614 96.1672 30.5525 96.2189C28.6368 96.2708 26.5954 96.2189 24.7812 96.1544C24.2708 96.1363 23.7795 96.1172 23.3143 96.0991C22.118 96.0527 21.0941 96.013 20.3605 96.013C19.2987 96.013 18.6272 95.2619 18.2276 94.2745C17.8283 93.2882 17.6463 91.957 17.5944 90.5253C17.4901 87.6514 17.9064 84.2194 18.3204 81.9374L18.3776 81.6222L38.0387 80.7656ZM19.0539 82.3957C18.6651 84.6392 18.2993 87.8298 18.3961 90.4962C18.4469 91.8985 18.6249 93.1179 18.9712 93.9736C19.3172 94.8283 19.7769 95.2107 20.3605 95.2107C21.1108 95.2107 22.1596 95.2515 23.3641 95.2982C23.8258 95.3161 24.3103 95.3349 24.8097 95.3527C26.6206 95.417 28.6413 95.4682 30.5308 95.417C32.4269 95.3656 34.1619 95.2117 35.4127 94.8766C36.04 94.7086 36.5123 94.5034 36.82 94.2677C37.1172 94.0402 37.2365 93.8064 37.2365 93.5508V81.6036L19.0539 82.3957Z" fill="#111111"/>
<path d="M26.0346 0.402344C22.1748 0.402344 20.3759 16.7811 19.959 24.9705C7.27161 34.7543 9.41605 39.1027 12.6326 44.1033C15.8491 49.1039 1.37477 51.7129 0.838691 58.2354C0.302608 64.7579 11.739 61.2792 3.16169 74.9765C-5.41564 88.6739 36.2202 86.0648 51.5879 85.8474C66.9556 85.63 38.3645 68.6714 47.8353 64.7579C57.3061 60.8444 32.825 43.451 41.0449 43.0162C49.2649 42.5813 40.8662 28.2318 37.2923 23.8834C33.7184 19.5351 30.8593 0.402344 26.0346 0.402344Z" fill="#00BC68"/>
<path fill-rule="evenodd" clip-rule="evenodd" d="M22.0944 9.68992C21.1149 14.7835 20.5623 20.9054 20.3544 24.9897L20.345 25.1741L20.1988 25.2869C13.8648 30.1713 11.3333 33.6293 10.7183 36.4158C10.1103 39.171 11.3511 41.3763 12.9648 43.885C13.4114 44.5795 13.569 45.2654 13.4623 45.9401C13.3573 46.6037 13.0042 47.2087 12.5196 47.7658C11.5608 48.8682 9.98083 49.8983 8.35327 50.9356C8.24793 51.0028 8.1423 51.07 8.03648 51.1373C6.4823 52.1263 4.88847 53.1405 3.62267 54.2761C2.26991 55.4897 1.35489 56.7877 1.23331 58.267C1.1712 59.0227 1.28325 59.614 1.49837 60.1028C1.71465 60.5942 2.04484 61.0039 2.4502 61.3822C2.84848 61.7539 3.30549 62.0832 3.78925 62.4318L3.8291 62.4605C4.31939 62.8139 4.83517 63.1881 5.28888 63.6254C6.22015 64.523 6.89059 65.6895 6.73646 67.5316C6.58594 69.3307 5.65084 71.7479 3.4965 75.1882C2.45906 76.8449 2.22436 78.184 2.53061 79.2756C2.8385 80.3731 3.72128 81.3227 5.14247 82.1347C7.99739 83.7659 12.7996 84.7131 18.4269 85.2293C27.3465 86.0476 38.1479 85.7709 46.077 85.5678C48.1306 85.5152 49.9914 85.4675 51.577 85.4451C53.4823 85.4182 54.6124 85.1288 55.2162 84.7088C55.5063 84.507 55.6695 84.2788 55.7499 84.0308C55.8322 83.777 55.8385 83.4689 55.7561 83.0961C55.5887 82.3378 55.077 81.4065 54.324 80.3412C53.5772 79.2844 52.6232 78.1367 51.6122 76.9473C51.4156 76.7161 51.2168 76.4831 51.0168 76.249C49.1783 74.0955 47.2497 71.8367 46.2258 69.8566C45.6587 68.76 45.329 67.6764 45.5081 66.7048C45.6943 65.6947 46.4074 64.9106 47.677 64.386C48.7791 63.9306 49.3257 63.3094 49.5359 62.6024C49.7527 61.8732 49.6374 60.97 49.2339 59.9127C48.4251 57.7931 46.5519 55.2861 44.5907 52.8317C44.2189 52.3664 43.8436 51.9027 43.4728 51.4445C41.9139 49.5182 40.4332 47.6885 39.6156 46.2426C39.3599 45.7903 39.1592 45.3593 39.0411 44.9617C38.924 44.5672 38.8784 44.1733 38.9716 43.813C39.0692 43.4356 39.3081 43.1382 39.6709 42.937C40.0197 42.7436 40.4737 42.6432 41.0186 42.6144C41.9875 42.5631 42.6667 42.3095 43.1337 41.9338C43.5977 41.5605 43.8901 41.0364 44.0314 40.3703C44.3196 39.0114 43.9634 37.1313 43.2091 35.053C41.7086 30.9183 38.7411 26.283 36.9773 24.1369C36.032 22.9867 35.1633 20.908 34.3205 18.5119C33.8038 17.0429 33.2855 15.4193 32.7608 13.7755C32.4258 12.726 32.0882 11.6682 31.7466 10.6372C30.8643 7.97388 29.9522 5.47638 28.9681 3.6487C28.4758 2.73439 27.9772 2.01026 27.4722 1.51932C26.9679 1.02904 26.4904 0.802219 26.0294 0.802219C25.7021 0.802219 25.3516 0.973193 24.9748 1.38989C24.5973 1.80743 24.2295 2.43426 23.8787 3.2472C23.1781 4.87036 22.5849 7.13974 22.0944 9.68992ZM24.3798 0.851869C24.8418 0.340863 25.3918 0 26.0294 0C26.7747 0 27.4419 0.371075 28.0314 0.944104C28.6202 1.51647 29.1644 2.32105 29.6745 3.26839C30.6951 5.16398 31.6258 7.72144 32.5081 10.3849C32.8561 11.4353 33.196 12.5004 33.5316 13.552C34.0526 15.1843 34.5631 16.784 35.0773 18.2457C35.9265 20.66 36.7554 22.6035 37.597 23.6275C39.4071 25.8298 42.4259 30.5434 43.9632 34.7793C44.7278 36.8862 45.1534 38.9468 44.8162 40.5367C44.6447 41.3449 44.2726 42.0472 43.6365 42.5589C43.0035 43.0681 42.147 43.358 41.0609 43.4155C40.5783 43.441 40.2602 43.5275 40.06 43.6386C39.8737 43.7419 39.7864 43.8665 39.7483 44.0139C39.7057 44.1785 39.7148 44.4122 39.8101 44.7333C39.9045 45.0512 40.0741 45.4236 40.3139 45.8478C41.0952 47.2295 42.5175 48.9876 44.0725 50.9098C44.4487 51.3749 44.8328 51.8496 45.2174 52.3309C47.1651 54.7684 49.1226 57.3707 49.9835 59.6267C50.4148 60.7571 50.5941 61.8582 50.3048 62.831C50.009 63.8259 49.2489 64.6044 47.9833 65.1274C46.8852 65.5812 46.42 66.1831 46.297 66.8503C46.1669 67.556 46.397 68.4411 46.9384 69.4881C47.9166 71.3799 49.7802 73.5638 51.6361 75.7385C51.8323 75.9685 52.0284 76.1983 52.2234 76.4277C53.2338 77.6163 54.2092 78.7888 54.9791 79.8782C55.743 80.959 56.3356 81.9998 56.5395 82.9231C56.6428 83.3911 56.6515 83.8511 56.513 84.2783C56.3726 84.7113 56.0916 85.077 55.6743 85.3673C54.8632 85.9316 53.5251 86.2198 51.5884 86.2472C50.0185 86.2695 48.1701 86.3168 46.1262 86.3693C38.1976 86.5726 27.3263 86.8513 18.3536 86.0282C12.7232 85.5117 7.76417 84.5565 4.74451 82.8313C3.22841 81.9651 2.14555 80.873 1.75821 79.4923C1.36923 78.1057 1.7097 76.53 2.81659 74.7624C4.95092 71.3541 5.80276 69.0696 5.93704 67.4647C6.06771 65.9029 5.52081 64.9632 4.73215 64.203C4.32589 63.8114 3.85606 63.4688 3.36005 63.1113L3.30413 63.071C2.83299 62.7316 2.33914 62.3758 1.90288 61.9687C1.44548 61.5419 1.03717 61.0463 0.764128 60.426C0.489938 59.803 0.361869 59.0763 0.433782 58.2013C0.580238 56.4194 1.67553 54.9452 3.08696 53.679C4.40433 52.4971 6.05206 51.4489 7.59151 50.4696C7.70233 50.3991 7.81258 50.3289 7.92212 50.2591C9.57807 49.2037 11.0471 48.2364 11.9143 47.2393C12.3427 46.7468 12.5969 46.2766 12.6699 45.8148C12.7412 45.3642 12.6475 44.8747 12.2901 44.319C10.6872 41.8271 9.24752 39.358 9.93498 36.2429C10.6103 33.1829 13.3134 29.6065 19.5628 24.7646C19.7788 20.6609 20.3323 14.6052 21.3067 9.53843C21.8005 6.97024 22.4068 4.63309 23.1421 2.92931C23.5092 2.07878 23.9185 1.36203 24.3798 0.851869Z" fill="#111111"/>
<path fill-rule="evenodd" clip-rule="evenodd" d="M33.7279 26.5175C33.2826 26.624 33.0019 27.0991 33.1008 27.5787C33.134 27.7396 33.1072 27.9256 33.0253 28.0356C32.9727 28.1063 32.7424 28.3528 31.9109 28.2782C30.2371 28.128 29.9868 27.2969 29.976 27.2611C29.9757 27.2601 29.9756 27.2597 29.9756 27.2599C29.9111 26.7736 29.4928 26.4358 29.0412 26.5052C28.5896 26.5747 28.2759 27.0252 28.3404 27.5115C28.479 28.5559 29.5266 29.8493 31.7737 30.0509C32.9243 30.1542 33.7953 29.8449 34.314 29.1484C34.8033 28.4913 34.8178 27.6989 34.7133 27.1928C34.6144 26.7132 34.1732 26.4109 33.7279 26.5175Z" fill="#111111"/>
<path d="M33.7011 21.3057C33.7011 22.7862 34.9013 23.9864 36.3818 23.9864C37.8623 23.9864 39.0625 22.7862 39.0625 21.3057C39.0625 19.8252 37.8623 18.625 36.3818 18.625C34.9013 18.625 33.7011 19.8252 33.7011 21.3057Z" fill="#111111"/>
<path fill-rule="evenodd" clip-rule="evenodd" d="M36.3818 23.1841C35.3444 23.1841 34.5034 22.3431 34.5034 21.3057C34.5034 20.2682 35.3444 19.4272 36.3818 19.4272C37.4193 19.4272 38.2603 20.2682 38.2603 21.3057C38.2603 22.3431 37.4193 23.1841 36.3818 23.1841ZM36.3818 23.9864C34.9013 23.9864 33.7011 22.7862 33.7011 21.3057C33.7011 19.8252 34.9013 18.625 36.3818 18.625C37.8623 18.625 39.0625 19.8252 39.0625 21.3057C39.0625 22.7862 37.8623 23.9864 36.3818 23.9864Z" fill="#111111"/>
<path d="M30.9353 12.7449C30.9918 14.4236 31.7536 15.7603 32.6368 15.7305C33.52 15.7008 34.1901 14.3159 34.1336 12.6372C34.0771 10.9585 33.3153 9.62176 32.4321 9.6515C31.5489 9.68124 30.8788 11.0662 30.9353 12.7449Z" fill="white"/>
<path fill-rule="evenodd" clip-rule="evenodd" d="M30.7543 15.2684C31.1179 15.9065 31.7515 16.555 32.639 16.5251C33.5265 16.4953 34.1151 15.8056 34.4349 15.1445C34.7731 14.4456 34.9423 13.5457 34.9106 12.603C34.8789 11.6603 34.6495 10.7738 34.2651 10.0993C33.9014 9.46121 33.2679 8.81268 32.3803 8.84256C31.4928 8.87245 30.9043 9.56213 30.5844 10.2232C30.2463 10.9221 30.077 11.822 30.1088 12.7647C30.1405 13.7074 30.3699 14.5939 30.7543 15.2684ZM32.612 15.7234C31.7288 15.7531 30.9671 14.4164 30.9105 12.7377C30.854 11.059 31.5242 9.67407 32.4073 9.64433C33.2905 9.61459 34.0523 10.9513 34.1088 12.63C34.1654 14.3087 33.4952 15.6936 32.612 15.7234Z" fill="#111111"/>
<path d="M26.3025 13.1941C26.359 14.8728 27.1208 16.2095 28.004 16.1798C28.8872 16.15 29.5573 14.7651 29.5008 13.0864C29.4443 11.4077 28.6825 10.071 27.7993 10.1007C26.9161 10.1305 26.246 11.5154 26.3025 13.1941Z" fill="white"/>
<path fill-rule="evenodd" clip-rule="evenodd" d="M26.1371 15.7293C26.5008 16.3674 27.1343 17.016 28.0218 16.9861C28.9094 16.9562 29.4979 16.2665 29.8178 15.6054C30.1559 14.9065 30.3252 14.0066 30.2934 13.0639C30.2617 12.1213 30.0323 11.2348 29.6479 10.5602C29.2842 9.92215 28.6507 9.27362 27.7632 9.3035C26.8756 9.33339 26.2871 10.0231 25.9672 10.6842C25.6291 11.3831 25.4598 12.283 25.4916 13.2256C25.5233 14.1683 25.7527 15.0548 26.1371 15.7293ZM27.9948 16.1843C27.1117 16.2141 26.3499 14.8773 26.2933 13.1986C26.2368 11.52 26.907 10.135 27.7901 10.1053C28.6733 10.0755 29.4351 11.4123 29.4916 13.0909C29.5482 14.7696 28.878 16.1546 27.9948 16.1843Z" fill="#111111"/>
<path d="M27.4339 14.0418C27.3475 15.2556 27.9044 16.2843 28.6778 16.3393C29.4511 16.3943 30.148 15.4548 30.2343 14.2409C30.3206 13.027 29.7637 11.9984 28.9904 11.9434C28.2171 11.8884 27.5202 12.8279 27.4339 14.0418Z" fill="#111111"/>
<path d="M31.6478 13.7962C31.409 14.8677 31.7957 15.8657 32.5114 16.0251C33.2271 16.1846 34.0008 15.4452 34.2396 14.3737C34.4783 13.3022 34.0917 12.3043 33.376 12.1448C32.6603 11.9854 31.8865 12.7247 31.6478 13.7962Z" fill="#111111"/>
<path d="M92.2559 31.1967C91.5056 33.2277 92.1048 35.3201 93.5942 35.8703C95.0836 36.4205 96.8991 35.2201 97.6494 33.1891C98.3996 31.1581 97.8004 29.0657 96.3111 28.5155C94.8217 27.9653 93.0061 29.1658 92.2559 31.1967Z" fill="white"/>
<path fill-rule="evenodd" clip-rule="evenodd" d="M92.8564 33.868C92.6659 33.2027 92.6862 32.347 93.0084 31.4747C93.3306 30.6024 93.8715 29.939 94.4487 29.5574C95.0264 29.1754 95.5857 29.1028 96.0331 29.268C96.4804 29.4333 96.8582 29.8521 97.0489 30.5179C97.2393 31.1831 97.2191 32.0388 96.8969 32.9111C96.5746 33.7834 96.0337 34.4468 95.4565 34.8284C94.8788 35.2104 94.3195 35.283 93.8722 35.1178C93.4248 34.9525 93.0471 34.5338 92.8564 33.868ZM93.5942 35.8703C92.1048 35.3201 91.5056 33.2277 92.2559 31.1967C93.0061 29.1658 94.8217 27.9653 96.3111 28.5155C97.8004 29.0657 98.3996 31.1581 97.6494 33.1891C96.8991 35.2201 95.0836 36.4205 93.5942 35.8703Z" fill="#111111"/>
<path d="M92.7962 30.1361C92.1049 31.4848 92.4817 33.0585 93.6377 33.6511C94.7938 34.2436 96.2913 33.6306 96.9826 32.2819C97.674 30.9332 97.2972 29.3595 96.1412 28.7669C94.9851 28.1744 93.4875 28.7874 92.7962 30.1361Z" fill="#111111"/>
<path d="M102.936 17.2993C107.699 18.7964 108.597 31.2056 108.45 37.223C108.44 39.1489 109.928 39.5428 116.418 44.5616C121.609 48.5766 118.635 52.9567 116.499 54.6449C120.321 55.8829 127.581 59.6972 126.045 65.0507C124.509 70.4042 118.937 71.0081 116.342 70.6408C116.52 70.9488 115.981 72.5438 112.405 76.4597C108.829 80.3756 103.241 77.5894 100.894 75.7069C88.9913 85.4806 86.2719 77.9617 86.4001 72.9805C83.9222 73.8559 78.7594 73.785 77.9317 66.4984C77.1041 59.2119 85.7699 51.6471 90.2062 48.7755C78.65 50.9839 87.5387 39.7087 91.97 35.4042C96.4012 31.0996 96.9816 15.4278 102.936 17.2993Z" fill="#00BC68"/>
<path fill-rule="evenodd" clip-rule="evenodd" d="M101.122 17.7264C101.621 17.5099 102.182 17.4697 102.841 17.677C103.881 18.004 104.764 18.9464 105.496 20.3757C106.224 21.7969 106.769 23.6358 107.166 25.6392C107.961 29.6432 108.148 34.2186 108.075 37.2083L108.075 37.2159C108.072 37.7586 108.177 38.2215 108.463 38.6829C108.739 39.1275 109.17 39.5483 109.769 40.0381C110.331 40.498 111.072 41.0419 112.022 41.7401C112.088 41.7883 112.155 41.8372 112.222 41.8869C113.273 42.6591 114.58 43.6224 116.198 44.874C117.454 45.845 118.191 46.8189 118.577 47.7431C118.961 48.6646 119.005 49.5594 118.839 50.3923C118.502 52.0753 117.3 53.5167 116.277 54.3253C116.16 54.4171 116.104 54.5653 116.13 54.7109C116.157 54.8566 116.261 54.976 116.402 55.0216C118.281 55.6303 120.999 56.8723 123.048 58.6058C125.103 60.345 126.388 62.4863 125.685 64.9352C124.957 67.473 123.282 68.8779 121.466 69.6144C119.634 70.3571 117.666 70.4145 116.425 70.2387C116.273 70.2172 116.122 70.2842 116.036 70.4113C115.961 70.5229 115.947 70.6638 115.997 70.7864C115.997 70.7876 115.996 70.7889 115.996 70.7902C115.994 70.8267 115.983 70.895 115.949 71.0019C115.88 71.2153 115.735 71.5363 115.464 71.9851C114.923 72.8805 113.913 74.2364 112.135 76.1843C110.471 78.0065 108.342 78.2834 106.296 77.86C104.237 77.4338 102.31 76.3025 101.171 75.3891C101.023 75.2704 100.812 75.2716 100.666 75.392C97.7102 77.8187 95.355 79.1461 93.4981 79.7163C91.6497 80.2839 90.3211 80.0953 89.3666 79.5272C88.4016 78.9528 87.7479 77.9486 87.3429 76.7492C86.9387 75.5517 86.7959 74.1968 86.8271 72.9859C86.8305 72.8539 86.7687 72.7287 86.6619 72.6511C86.5551 72.5735 86.417 72.5534 86.2925 72.5974C85.1207 73.0113 83.3267 73.1933 81.7468 72.4338C80.1971 71.6887 78.7587 69.9909 78.3563 66.4483C77.9614 62.9715 79.8327 59.3687 82.4299 56.2323C85.0163 53.1089 88.2589 50.5257 90.4502 49.1074C90.6113 49.0031 90.6759 48.7993 90.6045 48.6213C90.533 48.4432 90.3454 48.3406 90.1569 48.3767C88.7339 48.6486 87.6544 48.7069 86.8574 48.6086C86.061 48.5103 85.5837 48.2611 85.3093 47.952C85.0384 47.647 84.9134 47.225 84.944 46.6672C84.9748 46.1044 85.1638 45.4341 85.487 44.6864C86.7865 41.6796 90.0701 37.8293 92.2754 35.687C93.4527 34.5434 94.345 32.6812 95.1168 30.6326C95.5979 29.3558 96.0458 27.9658 96.4873 26.5954C96.7543 25.7668 97.019 24.9454 97.2873 24.1606C98.0097 22.0472 98.7618 20.1862 99.6797 18.97C100.135 18.3662 100.613 17.9473 101.122 17.7264ZM115.996 70.7697C115.996 70.7697 115.996 70.7708 115.997 70.7728C115.997 70.7706 115.996 70.7696 115.996 70.7697ZM94.3661 30.3498C93.5968 32.3919 92.7549 34.1028 91.7165 35.1116C89.4905 37.2738 86.1141 41.2133 84.7506 44.3681C84.408 45.1608 84.181 45.9292 84.1429 46.6233C84.1046 47.3226 84.2577 47.9759 84.7094 48.4846C85.1576 48.9894 85.8472 49.2923 86.7592 49.4048C87.2838 49.4695 87.894 49.473 88.597 49.4109C86.5077 50.9329 83.9457 53.1439 81.812 55.7206C79.1742 58.9061 77.1264 62.729 77.5592 66.5388C77.9844 70.2827 79.5413 72.2636 81.3993 73.1568C82.9923 73.9226 84.736 73.8537 86.0224 73.5179C86.0402 74.6532 86.2038 75.8829 86.5828 77.0057C87.0237 78.3116 87.7697 79.5103 88.9563 80.2165C90.1535 80.9291 91.7285 81.0989 93.7336 80.4832C95.6748 79.8871 98.0428 78.5493 100.926 76.2148C102.155 77.1436 104.068 78.2181 106.133 78.6456C108.362 79.1069 110.815 78.8189 112.727 76.7253C114.524 74.7573 115.572 73.3578 116.15 72.3997C116.439 71.9217 116.618 71.5415 116.713 71.2468C116.731 71.1912 116.746 71.1369 116.759 71.0841C118.104 71.2038 119.987 71.0798 121.767 70.3579C123.77 69.546 125.649 67.9722 126.456 65.1564C127.29 62.2518 125.712 59.8093 123.566 57.9934C121.648 56.3703 119.198 55.1739 117.313 54.4873C118.289 53.5647 119.3 52.1778 119.626 50.5496C119.821 49.5745 119.768 48.5159 119.317 47.4342C118.867 46.3551 118.029 45.2759 116.689 44.2394C115.063 42.9816 113.75 42.0137 112.697 41.2403C112.633 41.1931 112.569 41.1466 112.507 41.1008C111.546 40.3949 110.822 39.8631 110.276 39.4171C109.693 38.9403 109.348 38.5878 109.145 38.2601C108.953 37.95 108.875 37.6424 108.877 37.224C108.951 34.1962 108.762 29.5606 107.953 25.4831C107.549 23.4448 106.986 21.5247 106.21 20.01C105.439 18.5035 104.423 17.3334 103.082 16.9117C102.253 16.6512 101.493 16.6913 100.803 16.9905C100.124 17.2852 99.5445 17.8173 99.0393 18.4868C98.0353 19.8172 97.249 21.7923 96.5282 23.9011C96.2496 24.7162 95.981 25.55 95.7128 26.3828C95.2771 27.7357 94.8423 29.086 94.3661 30.3498Z" fill="#111111"/>
<path d="M96.6421 32.1774C96.123 34.2793 96.9518 36.2919 98.4932 36.6726C100.035 37.0533 101.705 35.6579 102.224 33.5559C102.743 31.454 101.914 29.4414 100.373 29.0607C98.8316 28.6801 97.1612 30.0754 96.6421 32.1774Z" fill="white"/>
<path fill-rule="evenodd" clip-rule="evenodd" d="M97.5368 34.765C97.2733 34.1252 97.198 33.2725 97.4209 32.3697C97.6439 31.4669 98.1075 30.7474 98.6385 30.3037C99.17 29.8597 99.7177 29.7252 100.181 29.8395C100.644 29.9539 101.066 30.3279 101.33 30.9683C101.593 31.6082 101.668 32.4608 101.445 33.3636C101.222 34.2664 100.759 34.9859 100.228 35.4296C99.6962 35.8736 99.1486 36.0081 98.6856 35.8938C98.2226 35.7794 97.8005 35.4054 97.5368 34.765ZM98.4932 36.6726C96.9518 36.2919 96.123 34.2793 96.6421 32.1774C97.1612 30.0754 98.8316 28.6801 100.373 29.0607C101.914 29.4414 102.743 31.454 102.224 33.5559C101.705 35.6579 100.035 37.0533 98.4932 36.6726Z" fill="#111111"/>
<path d="M97.0272 31.0531C96.4906 32.4705 97.0405 33.9924 98.2554 34.4524C99.4703 34.9123 100.89 34.1362 101.427 32.7188C101.963 31.3014 101.414 29.7795 100.199 29.3195C98.9837 28.8596 97.5638 29.6358 97.0272 31.0531Z" fill="#111111"/>
<path d="M16.6548 52.4406C15.7906 45.0743 20.7357 41.522 23.3163 40.6667C24.0366 40.4151 25.657 40.1535 26.3772 41.1195L26.3919 41.1392C27.2813 42.3321 27.6238 42.7915 25.1169 44.8932C23.3163 46.7045 22.4523 49.6329 22.5963 52.8934C22.7403 56.1539 25.7771 59.1829 27.2774 60.2898L24.3967 63.3088C22.1762 62.7553 17.519 59.8068 16.6548 52.4406Z" fill="#FDFBEF"/>
<path fill-rule="evenodd" clip-rule="evenodd" d="M24.8256 40.8321C24.3013 40.8107 23.7671 40.9273 23.4438 41.0402L23.4407 41.0413L23.4377 41.0423C20.982 41.8563 16.2125 45.2643 17.0483 52.3887C17.8633 59.3355 22.1168 62.2009 24.2674 62.8531L26.6755 60.3294C25.9236 59.7209 24.9489 58.7781 24.101 57.6327C23.1136 56.2988 22.2678 54.6494 22.1908 52.906C22.0437 49.5767 22.9219 46.5224 24.8276 44.6053L24.8404 44.5924L24.8544 44.5807C25.4751 44.0603 25.9042 43.654 26.1895 43.3214C26.4768 42.9866 26.5937 42.7544 26.6315 42.5836C26.6655 42.4298 26.644 42.2878 26.5546 42.1032C26.4567 41.9011 26.2952 41.6819 26.0655 41.3738L26.0508 41.3541C25.7945 41.0104 25.3551 40.8537 24.8256 40.8321ZM26.6939 40.8746C26.23 40.2523 25.4992 40.0567 24.8583 40.0306C24.2139 40.0043 23.5794 40.1435 23.1823 40.2818C20.476 41.1803 15.3593 44.8769 16.2515 52.4822C17.1359 60.0203 21.9186 63.1005 24.2949 63.6928L24.5211 63.7492L27.8771 60.2322L27.5107 59.9619C26.7897 59.4299 25.6847 58.4237 24.7458 57.1554C23.8038 55.8829 23.0592 54.3876 22.9922 52.8706C22.8515 49.6867 23.6969 46.8903 25.384 45.1835C26.0095 44.6584 26.4731 44.2229 26.7984 43.8438C27.1241 43.4641 27.336 43.1128 27.4148 42.7569C27.4973 42.384 27.4231 42.0561 27.2766 41.7535C27.1417 41.4751 26.934 41.1965 26.7243 40.9154L26.7086 40.8943L26.6939 40.8746C26.6939 40.8746 26.6939 40.8746 26.6939 40.8746Z" fill="#111111"/>
<path fill-rule="evenodd" clip-rule="evenodd" d="M90.9246 38.2408C91.247 38.1602 91.5737 38.3562 91.6543 38.6785C91.7846 39.2001 92.1222 39.6372 92.8183 39.8029C93.5666 39.9811 94.8034 39.8623 96.7191 38.9916C97.0216 38.8541 97.3783 38.9878 97.5158 39.2903C97.6533 39.5928 97.5195 39.9495 97.217 40.087C95.201 41.0034 93.6678 41.2421 92.5396 40.9735C91.3592 40.6925 90.7139 39.8786 90.4869 38.9704C90.4063 38.648 90.6023 38.3214 90.9246 38.2408Z" fill="#111111"/>
<path fill-rule="evenodd" clip-rule="evenodd" d="M28.9675 58.3566C29.1345 58.5022 29.1518 58.7555 29.0062 58.9225L22.93 65.8923C22.7845 66.0593 22.5311 66.0766 22.3641 65.9311C22.1971 65.7855 22.1798 65.5321 22.3253 65.3651L28.4015 58.3953C28.5471 58.2284 28.8005 58.211 28.9675 58.3566Z" fill="#111111"/>
<path d="M117.794 37.88C114.204 39.5757 111.943 50.4408 109.495 54.8732C107.968 57.5216 103.622 56.0531 102.372 54.8733C101.373 53.9294 102.036 51.9333 103.02 49.1052C103.955 46.4154 106.1 42.1264 107.351 39.9818C110.324 34.8844 110.282 30.2311 110.548 28.7234C110.873 26.8847 111.515 26.5999 112.322 26.6629C113.129 26.726 113.374 29.6879 113.834 30.2311C114.294 30.7743 121.366 28.1457 122.486 28.8757C123.382 29.4597 121.997 30.4701 121.193 30.9022C121.996 30.8097 122.273 30.9725 122.364 31.4031C122.497 32.0359 121.401 32.7769 120.836 33.0683C121.199 32.9957 121.557 32.9436 121.89 32.9223C123.428 32.8239 121.727 34.3659 120.719 35.0324C120.869 35.0277 121.018 35.0267 121.162 35.0303C122.446 35.0627 122.282 35.7603 117.794 37.88Z" fill="#FDFBEF"/>
<path fill-rule="evenodd" clip-rule="evenodd" d="M105.775 56.7053C104.278 56.5136 102.794 55.8243 102.094 55.1636C101.439 54.5457 101.385 53.6268 101.553 52.6277C101.724 51.6169 102.149 50.3759 102.638 48.9721C103.584 46.2494 105.742 41.9359 107.001 39.7784C109.402 35.6625 109.795 31.8734 110.013 29.7732C110.061 29.3142 110.1 28.9358 110.15 28.6524C110.316 27.7085 110.577 27.0737 110.972 26.6908C111.391 26.2839 111.891 26.2258 112.35 26.2617C112.58 26.2796 112.758 26.4001 112.886 26.5325C113.011 26.663 113.111 26.8275 113.191 26.9937C113.353 27.3261 113.482 27.7517 113.592 28.1614C113.645 28.3569 113.692 28.5424 113.737 28.7202C113.792 28.9381 113.844 29.1443 113.9 29.3429C113.949 29.5155 113.995 29.6614 114.04 29.7764C114.062 29.831 114.08 29.8722 114.096 29.9026C114.134 29.904 114.187 29.903 114.258 29.8976C114.47 29.8813 114.767 29.8306 115.135 29.7522C115.712 29.6294 116.42 29.4483 117.177 29.2548C117.385 29.2016 117.597 29.1474 117.811 29.0932C118.792 28.8444 119.811 28.5971 120.658 28.4587C121.081 28.3896 121.475 28.3452 121.807 28.3442C122.119 28.3432 122.456 28.3782 122.702 28.5383C123.023 28.7475 123.204 29.0511 123.172 29.4123C123.144 29.7243 122.961 29.999 122.775 30.2099C122.641 30.3618 122.48 30.5082 122.31 30.644C122.573 30.8035 122.697 31.0555 122.753 31.319C122.814 31.607 122.727 31.874 122.606 32.0864C122.515 32.2471 122.393 32.3967 122.261 32.5316C122.327 32.5415 122.391 32.5562 122.45 32.5768C122.635 32.6405 122.813 32.7742 122.88 33.0036C122.938 33.2052 122.884 33.3965 122.826 33.5296C122.764 33.6706 122.672 33.8091 122.571 33.9371C122.37 34.1927 122.087 34.4677 121.788 34.7215C121.896 34.7599 122.009 34.8198 122.1 34.9179C122.258 35.0892 122.287 35.3101 122.222 35.5094C122.167 35.6783 122.05 35.8268 121.923 35.954C121.664 36.2146 121.225 36.5229 120.592 36.8905C119.953 37.2623 119.09 37.7087 117.962 38.2413C117.183 38.6093 116.42 39.5109 115.672 40.8244C114.933 42.1227 114.246 43.7546 113.588 45.4912C113.193 46.5325 112.814 47.5966 112.441 48.6438C112.19 49.3487 111.941 50.046 111.693 50.7234C111.081 52.3916 110.471 53.9279 109.843 55.0657L109.841 55.069L109.84 55.0723C108.956 56.6039 107.275 56.8973 105.775 56.7053ZM120.586 34.6345C121.059 34.31 121.639 33.8246 121.941 33.4411C121.977 33.3952 122.006 33.3539 122.03 33.3176C121.997 33.3173 121.958 33.3183 121.913 33.3212C121.601 33.3412 121.261 33.3902 120.912 33.4603C119.753 33.693 118.567 34.1416 118.059 34.4406C117.868 34.5531 117.623 34.4896 117.51 34.2988C117.398 34.1079 117.461 33.862 117.652 33.7495C118.249 33.3976 119.496 32.933 120.697 32.6853C120.956 32.5471 121.311 32.3206 121.587 32.0668C121.735 31.9316 121.844 31.8027 121.909 31.6895C121.974 31.5759 121.974 31.513 121.968 31.4845C121.939 31.3493 121.905 31.3334 121.875 31.3198L121.875 31.3198C121.8 31.2854 121.625 31.2545 121.236 31.2994C120.598 31.3728 119.588 31.62 117.968 32.0507C117.754 32.1076 117.535 31.9802 117.478 31.7661C117.421 31.552 117.548 31.3323 117.762 31.2754C119.305 30.8652 120.357 30.6036 121.065 30.5121C121.44 30.3034 121.901 29.9884 122.173 29.6793C122.322 29.5105 122.368 29.3961 122.373 29.341C122.373 29.3406 122.373 29.3401 122.373 29.3394C122.375 29.3295 122.383 29.288 122.264 29.2104C122.23 29.188 122.101 29.1455 121.81 29.1464C121.539 29.1473 121.193 29.1842 120.788 29.2504C119.979 29.3826 118.991 29.6216 118.008 29.8708C117.8 29.9235 117.592 29.9767 117.386 30.0293C116.627 30.2235 115.897 30.4103 115.302 30.5368C114.926 30.617 114.586 30.6769 114.319 30.6975C114.187 30.7077 114.054 30.7098 113.936 30.6933C113.836 30.6794 113.653 30.641 113.524 30.4889C113.423 30.3692 113.35 30.2133 113.293 30.0697C113.234 29.9185 113.179 29.7434 113.128 29.5609C113.072 29.3631 113.013 29.1295 112.953 28.8949C112.908 28.7153 112.862 28.535 112.818 28.3698C112.708 27.9632 112.596 27.6026 112.47 27.3449C112.407 27.216 112.352 27.1345 112.308 27.0889C112.292 27.0727 112.281 27.0644 112.276 27.0605C111.935 27.0356 111.713 27.0891 111.53 27.2665C111.321 27.4699 111.098 27.897 110.94 28.7918C110.896 29.0379 110.861 29.3824 110.818 29.8102C110.607 31.8772 110.197 35.8915 107.694 40.1826C106.451 42.3141 104.319 46.5787 103.395 49.2356C102.9 50.6599 102.502 51.831 102.344 52.7612C102.185 53.7032 102.299 54.2543 102.644 54.5803C103.194 55.0994 104.508 55.7343 105.877 55.9096C107.244 56.0845 108.498 55.7887 109.143 54.6746C109.737 53.5966 110.328 52.114 110.94 50.4471C111.182 49.786 111.429 49.094 111.68 48.3902C112.056 47.3339 112.442 46.2511 112.838 45.2069C113.499 43.4611 114.204 41.7818 114.975 40.4275C115.738 39.0884 116.604 37.9959 117.62 37.516C118.736 36.9887 119.576 36.5531 120.189 36.1969C120.755 35.8682 121.107 35.6184 121.303 35.4383C121.257 35.4343 121.206 35.4314 121.148 35.4299C121.013 35.4265 120.872 35.4274 120.728 35.432C119.84 35.4599 118.885 35.6232 118.476 35.7126C118.259 35.7599 118.045 35.6228 117.998 35.4063C117.951 35.1899 118.088 34.9761 118.305 34.9289C118.728 34.8365 119.671 34.674 120.586 34.6345ZM112.27 27.0576C112.27 27.0575 112.271 27.0577 112.272 27.0583C112.271 27.0579 112.27 27.0576 112.27 27.0576ZM122.103 33.1717C122.103 33.1717 122.103 33.1723 122.103 33.1737C122.103 33.1724 122.103 33.1717 122.103 33.1717ZM114.027 29.8949C114.028 29.8948 114.031 29.8953 114.036 29.897C114.03 29.8959 114.027 29.895 114.027 29.8949Z" fill="#111111"/>
</svg>
