<svg width="77" height="109" viewBox="0 0 77 109" fill="none" xmlns="http://www.w3.org/2000/svg">
<path d="M28.194 21.0232C27.5999 23.5987 28.6494 26.0398 30.5381 26.4755C32.4269 26.9111 34.4396 25.1764 35.0337 22.6009C35.6278 20.0254 34.5783 17.5843 32.6895 17.1487C30.8008 16.713 28.7881 18.4477 28.194 21.0232Z" fill="white"/>
<path fill-rule="evenodd" clip-rule="evenodd" d="M29.172 24.2349C28.822 23.4208 28.713 22.3426 28.9757 21.2035C29.2384 20.0645 29.8087 19.143 30.48 18.5644C31.1518 17.9855 31.8737 17.7838 32.5092 17.9303C33.1447 18.0769 33.7054 18.5745 34.0557 19.3892C34.4057 20.2033 34.5147 21.2816 34.252 22.4206C33.9892 23.5596 33.419 24.4812 32.7477 25.0597C32.0759 25.6387 31.354 25.8404 30.7185 25.6938C30.0829 25.5472 29.5223 25.0496 29.172 24.2349ZM30.5381 26.4755C28.6494 26.0398 27.5999 23.5987 28.194 21.0232C28.7881 18.4477 30.8008 16.713 32.6895 17.1487C34.5783 17.5843 35.6278 20.0254 35.0337 22.6009C34.4396 25.1764 32.4269 26.9111 30.5381 26.4755Z" fill="#111111"/>
<path d="M28.6793 19.6538C28.051 21.394 28.7508 23.2414 30.2425 23.7799C31.7341 24.3185 33.4527 23.3444 34.081 21.6041C34.7094 19.8639 34.0095 18.0165 32.5179 17.4779C31.0262 16.9394 29.3077 17.9135 28.6793 19.6538Z" fill="#111111"/>
<path d="M11.4688 18.1055L14.3457 19.1314L12.587 24.0633L9.71004 23.0374L11.4688 18.1055Z" fill="#FFEB34"/>
<path fill-rule="evenodd" clip-rule="evenodd" d="M13.3206 19.6175L11.9549 19.1305L10.7351 22.5512L12.1008 23.0383L13.3206 19.6175ZM11.4688 18.1055L9.71004 23.0374L12.587 24.0633L14.3457 19.1314L11.4688 18.1055Z" fill="#111111"/>
<path d="M20.0846 16.0695C18.8704 19.4743 15.1261 21.2502 11.7213 20.036C8.31648 18.8219 6.5406 15.0775 7.75474 11.6727C8.96887 8.26794 12.7133 6.49206 16.118 7.7062C19.5228 8.92034 21.2987 12.6647 20.0846 16.0695Z" fill="#FCBF26"/>
<path fill-rule="evenodd" clip-rule="evenodd" d="M11.9907 19.2804C14.9782 20.3457 18.2636 18.7875 19.329 15.8001C20.3943 12.8126 18.8361 9.52714 15.8486 8.46181C12.8611 7.39649 9.57567 8.9547 8.51035 11.9422C7.44503 14.9297 9.00324 18.2151 11.9907 19.2804ZM11.7213 20.036C15.1261 21.2502 18.8704 19.4743 20.0846 16.0695C21.2987 12.6647 19.5228 8.92034 16.118 7.7062C12.7133 6.49206 8.96887 8.26794 7.75474 11.6727C6.5406 15.0775 8.31648 18.8219 11.7213 20.036Z" fill="#111111"/>
<path d="M17.6257 15.2003C16.8973 17.2432 14.6506 18.3087 12.6078 17.5802C10.5649 16.8517 9.49936 14.6051 10.2278 12.5622C10.9563 10.5194 13.203 9.45383 15.2458 10.1823C17.2887 10.9108 18.3542 13.1574 17.6257 15.2003Z" fill="white"/>
<path fill-rule="evenodd" clip-rule="evenodd" d="M12.8772 16.8246C14.5028 17.4043 16.2905 16.5564 16.8701 14.9308C17.4498 13.3053 16.6019 11.5176 14.9764 10.9379C13.3508 10.3583 11.5631 11.2061 10.9835 12.8317C10.4038 14.4572 11.2516 16.2449 12.8772 16.8246ZM12.6078 17.5802C14.6506 18.3087 16.8973 17.2432 17.6257 15.2003C18.3542 13.1574 17.2887 10.9108 15.2458 10.1823C13.203 9.45383 10.9563 10.5194 10.2278 12.5622C9.49936 14.6051 10.5649 16.8517 12.6078 17.5802Z" fill="#111111"/>
<path fill-rule="evenodd" clip-rule="evenodd" d="M14.9322 11.5274C14.9406 11.7488 14.768 11.935 14.5466 11.9434C12.8863 12.0065 12.239 13.1414 12.1197 13.6467C12.0688 13.8623 11.8527 13.9958 11.6371 13.9449C11.4215 13.894 11.288 13.678 11.3389 13.4624C11.5223 12.6859 12.4196 11.2214 14.5162 11.1418C14.7376 11.1334 14.9238 11.306 14.9322 11.5274Z" fill="#111111"/>
<path d="M36.6918 100.806C36.1135 99.6121 36.5108 81.9777 36.8913 74.8484L35.269 65.9924L42.9631 68.2672C42.9747 75.3037 43.103 91.0182 43.523 97.5837C43.943 104.149 43.6599 105.84 43.4659 105.865C41.479 108.658 31.4589 106.734 29.4711 106.403C27.3031 106.041 19.1382 104.895 21.7044 101.167C23.6928 98.2782 37.4146 102.298 36.6918 100.806Z" fill="#FFEB34"/>
<path fill-rule="evenodd" clip-rule="evenodd" d="M34.7484 65.4187L43.3553 67.9633L43.3558 68.2625C43.3674 75.3027 43.4958 91.0036 43.9148 97.554C44.1252 100.842 44.1603 102.921 44.1171 104.187C44.0956 104.818 44.0543 105.259 44.0021 105.551C43.9765 105.694 43.9451 105.821 43.9033 105.921C43.8828 105.971 43.852 106.033 43.8045 106.091C43.7883 106.111 43.7652 106.136 43.735 106.161C43.1274 106.953 42.0133 107.361 40.7776 107.566C39.4853 107.78 37.9506 107.789 36.4373 107.702C33.7597 107.547 31.083 107.085 29.8182 106.866C29.6524 106.838 29.5108 106.813 29.3967 106.794C29.3059 106.779 29.2037 106.763 29.0916 106.744C27.8857 106.548 25.5222 106.164 23.6548 105.416C22.6432 105.01 21.7003 104.47 21.1915 103.73C20.9295 103.349 20.7806 102.912 20.8033 102.425C20.8257 101.942 21.0146 101.445 21.3655 100.935C21.6876 100.467 22.2192 100.177 22.8251 99.9949C23.4357 99.8115 24.1703 99.7235 24.9646 99.6966C26.554 99.6428 28.4605 99.8317 30.257 100.061C30.9983 100.155 31.717 100.256 32.3905 100.35C33.3674 100.487 34.2491 100.61 34.9661 100.682C35.5473 100.741 35.9772 100.76 36.2412 100.733C36.2199 100.643 36.2033 100.546 36.1892 100.45C36.1584 100.24 36.1324 99.9746 36.1102 99.6648C36.0657 99.0443 36.0351 98.2217 36.016 97.2528C35.9778 95.3138 35.9852 92.7697 36.0225 90.0435C36.0968 84.6149 36.29 78.4489 36.4798 74.8703L34.7484 65.4187ZM35.7727 66.5581L37.2859 74.8186L37.2834 74.8658C37.0935 78.4237 36.8992 84.6091 36.8246 90.0545C36.7874 92.7772 36.7801 95.3111 36.8181 97.237C36.8371 98.2006 36.8673 99.0073 36.9103 99.6074C36.9319 99.908 36.9562 100.151 36.983 100.334C36.9963 100.425 37.0097 100.497 37.0223 100.55C37.0344 100.602 37.0429 100.623 37.0442 100.627C37.0443 100.627 37.0443 100.627 37.0442 100.627C37.0885 100.718 37.1256 100.84 37.1072 100.979C37.0875 101.126 37.0119 101.242 36.919 101.323C36.7605 101.46 36.5425 101.505 36.3779 101.525C36.018 101.57 35.4922 101.541 34.8861 101.481C34.1579 101.408 33.2455 101.28 32.2515 101.141C31.5796 101.047 30.8704 100.948 30.1556 100.856C28.3635 100.628 26.5119 100.447 24.9918 100.498C24.2314 100.524 23.5734 100.608 23.0558 100.763C22.5335 100.92 22.2014 101.136 22.0263 101.39C21.7357 101.812 21.6183 102.167 21.6046 102.462C21.5911 102.752 21.6759 103.019 21.8524 103.275C22.2206 103.811 22.9732 104.278 23.9531 104.671C25.7318 105.383 28.0064 105.754 29.2221 105.953C29.3336 105.971 29.4361 105.988 29.5285 106.003C29.6458 106.023 29.79 106.047 29.958 106.076C31.2276 106.296 33.8561 106.749 36.4835 106.901C37.9721 106.987 39.4391 106.974 40.6465 106.774C41.8763 106.57 42.7324 106.188 43.1306 105.629L43.1798 105.56C43.189 105.526 43.2003 105.477 43.2124 105.41C43.2547 105.172 43.2943 104.775 43.3153 104.16C43.3572 102.932 43.3239 100.882 43.1142 97.6053C42.6992 91.1165 42.5688 75.7335 42.5541 68.563L35.7727 66.5581Z" fill="#111111"/>
<path d="M50.578 99.5342C49.909 98.4207 48.9175 82.1609 48.772 75.0081L46.4889 66.2152L54.3843 67.4727C54.9166 74.4817 56.2081 90.1213 57.1157 96.6075C58.0232 103.094 57.2282 103.774 57.2282 103.774C55.4395 106.816 47.3155 106.911 45.2931 106.872C42.9082 106.825 34.6766 107.3 36.6326 103.087C38.5887 98.8744 51.4143 100.926 50.578 99.5342Z" fill="#FFEB34"/>
<path fill-rule="evenodd" clip-rule="evenodd" d="M45.9474 65.7172L54.7692 67.1222L54.7917 67.419C55.3243 74.4317 56.615 90.0578 57.5205 96.5291C57.976 99.7846 58.0085 101.61 57.9194 102.634C57.8748 103.147 57.7986 103.473 57.7216 103.684C57.6827 103.79 57.6422 103.871 57.6026 103.933C57.5875 103.957 57.5725 103.978 57.5576 103.997C57.0362 104.858 56.1016 105.471 55.0368 105.915C53.949 106.369 52.6666 106.672 51.3967 106.874C48.8551 107.278 46.2916 107.292 45.2701 107.272C45.0467 107.268 44.7647 107.269 44.4394 107.269C43.0854 107.272 40.9826 107.276 39.2442 106.935C38.172 106.725 37.1546 106.371 36.5381 105.737C36.2211 105.411 36.0075 105.009 35.9545 104.523C35.902 104.041 36.0109 103.511 36.2785 102.935C36.8504 101.703 38.1805 100.994 39.6719 100.565C41.1828 100.13 42.9809 99.9458 44.6607 99.8516C45.5033 99.8043 46.323 99.7793 47.0678 99.7575L47.1783 99.7543C47.8815 99.7338 48.5104 99.7154 49.0327 99.683C49.5451 99.6512 49.9176 99.6075 50.1465 99.5479C50.1162 99.4607 50.0901 99.3649 50.0668 99.2686C50.0195 99.073 49.9726 98.8269 49.9261 98.5395C49.833 97.964 49.738 97.2014 49.643 96.3022C49.453 94.5026 49.2614 92.1368 49.0864 89.5856C48.7379 84.5053 48.4542 78.6737 48.3799 75.0849L45.9474 65.7172ZM47.0457 66.712L49.1796 74.9302L49.1806 74.9764C49.2531 78.5444 49.5369 84.3908 49.8864 89.4851C50.0611 92.0322 50.2519 94.3871 50.4405 96.1729C50.5348 97.0664 50.6281 97.8127 50.7179 98.3674C50.7628 98.6452 50.806 98.8696 50.8468 99.038C50.8671 99.1222 50.8859 99.1882 50.9027 99.2378C50.911 99.2624 50.9181 99.281 50.9239 99.2945C50.9295 99.3074 50.9325 99.3127 50.9325 99.3127C50.9815 99.3942 51.0251 99.5013 51.0258 99.6292C51.0265 99.7657 50.978 99.8905 50.8997 99.9913C50.7643 100.166 50.5565 100.249 50.4055 100.296C50.0771 100.398 49.5906 100.45 49.0366 100.484C48.5007 100.517 47.8595 100.536 47.1627 100.556L47.0454 100.56C46.3002 100.582 45.4903 100.606 44.6597 100.653C42.9931 100.746 41.2704 100.927 39.8524 101.335C38.415 101.749 37.4083 102.364 37.0022 103.238C36.7808 103.715 36.7191 104.092 36.7516 104.391C36.7837 104.685 36.9108 104.937 37.1278 105.16C37.5791 105.624 38.4019 105.944 39.4412 106.147C41.0934 106.471 43.0808 106.468 44.4409 106.466C44.7824 106.466 45.0843 106.465 45.3314 106.47C46.3324 106.489 48.8421 106.475 51.3153 106.081C52.5528 105.885 53.7632 105.595 54.7649 105.177C55.7752 104.755 56.5161 104.226 56.8934 103.585L56.9303 103.522L56.9443 103.51C56.9507 103.497 56.9596 103.476 56.9704 103.447C57.014 103.328 57.0799 103.078 57.1206 102.61C57.2021 101.673 57.1783 99.9154 56.7263 96.6847C55.8293 90.274 54.5601 74.9635 54.0148 67.822L47.0457 66.712Z" fill="#111111"/>
<path d="M39.0067 2.52968C45.0064 3.60527 48.0146 18.4931 48.7687 25.8026C49.0542 28.1364 50.9182 28.3828 59.5532 33.4557C66.4613 37.514 63.5381 43.2785 61.213 45.6534C66.0326 46.5609 75.4141 50.056 74.3831 56.7765C73.3522 63.4971 66.6977 65.091 63.4993 65.0478C63.7619 65.3934 63.3561 67.4083 59.6321 72.7038C55.9081 77.9993 48.7101 75.4905 45.5766 73.5741C32.676 87.2523 28.219 78.5682 27.6031 72.5164C24.738 73.9601 18.4752 74.6735 16.3449 65.978C14.2146 57.2825 23.5373 46.7805 28.4649 42.6164C14.8128 47.0795 23.8311 32.0499 28.5307 26.1513C33.2303 20.2527 31.507 1.1852 39.0067 2.52968Z" fill="#00BC68"/>
<path fill-rule="evenodd" clip-rule="evenodd" d="M36.7842 3.26086C37.3747 2.90972 38.069 2.77148 38.919 2.92387C40.2635 3.1649 41.4962 4.19252 42.6093 5.81793C43.7171 7.4358 44.6651 9.58691 45.4575 11.9551C47.0417 16.6888 47.9777 22.2073 48.3528 25.8431L48.3537 25.8506C48.4325 26.4948 48.6261 27.0226 49.0317 27.5219C49.4249 28.0058 50.0013 28.4424 50.8005 28.9416C51.5507 29.4101 52.5298 29.953 53.7904 30.652C53.8769 30.6999 53.9648 30.7486 54.054 30.7981C55.4467 31.5706 57.1788 32.5353 59.3332 33.8009C61.014 34.7883 62.0702 35.8637 62.6894 36.9392C63.3071 38.0122 63.5024 39.1068 63.4285 40.157C63.2795 42.2753 62.032 44.2256 60.9095 45.3721C60.806 45.4779 60.7691 45.632 60.8135 45.7732C60.858 45.9143 60.9765 46.0196 61.1219 46.0469C63.4989 46.4945 66.9952 47.5808 69.757 49.371C72.5261 51.166 74.4493 53.5891 73.9698 56.7151C73.4762 59.9324 71.6454 61.9143 69.5405 63.0983C67.4215 64.2902 65.031 64.6669 63.4879 64.6461C63.3345 64.6441 63.1934 64.7296 63.1243 64.8665C63.0611 64.9919 63.0684 65.1403 63.1413 65.2581C63.1423 65.2644 63.1434 65.2734 63.1442 65.2856C63.148 65.3399 63.1441 65.4321 63.1182 65.5715C63.0667 65.8497 62.9371 66.268 62.6769 66.8568C62.1576 68.0322 61.1413 69.8358 59.2871 72.4724C57.5308 74.9698 54.9604 75.6404 52.3968 75.4428C49.8199 75.2442 47.2978 74.1662 45.769 73.2313C45.6072 73.1323 45.3981 73.1603 45.2679 73.2983C42.0609 76.6987 39.4052 78.6796 37.2301 79.6643C35.0632 80.6453 33.3984 80.6281 32.126 80.0755C30.8424 79.518 29.8825 78.3831 29.201 76.9822C28.5205 75.5832 28.1358 73.9539 27.9853 72.4752C27.9719 72.3438 27.8948 72.2275 27.779 72.164C27.6632 72.1006 27.5236 72.0982 27.4057 72.1576C26.0368 72.8473 23.8677 73.3528 21.8081 72.6681C19.7802 71.9939 17.7586 70.1313 16.7176 65.8819C15.6924 61.697 17.4169 57.0179 20.0802 52.8119C22.7345 48.6201 26.2676 44.9834 28.707 42.9221C28.8535 42.7982 28.8918 42.5879 28.7984 42.4203C28.7049 42.2527 28.5058 42.1748 28.3234 42.2345C26.6378 42.7855 25.3297 43.0261 24.3367 43.0305C23.3442 43.0349 22.7036 42.804 22.3017 42.4532C21.9038 42.106 21.6808 41.5894 21.6303 40.8937C21.5795 40.1929 21.7074 39.3407 21.9845 38.38C23.0976 34.5207 26.4867 29.3387 28.8275 26.4006C30.0628 24.8503 30.8517 22.4743 31.469 19.8749C31.8535 18.2558 32.1798 16.5078 32.5019 14.782C32.697 13.7368 32.8906 12.6997 33.0947 11.7043C33.6422 9.03386 34.2671 6.65086 35.1981 5.02231C35.661 4.21265 36.1841 3.61766 36.7842 3.26086ZM30.6885 19.6896C30.0728 22.2823 29.3147 24.5018 28.2001 25.9007C25.8414 28.8612 22.3715 34.1434 21.2137 38.1577C20.923 39.1654 20.7699 40.1197 20.8302 40.9517C20.8909 41.7888 21.1712 42.5313 21.7742 43.0576C22.3733 43.5804 23.2312 43.8376 24.3403 43.8327C25.0579 43.8295 25.8962 43.7169 26.8667 43.4847C24.5318 45.6562 21.6592 48.8186 19.4024 52.3827C16.7051 56.6425 14.8334 61.5623 15.9384 66.0728C17.0276 70.5189 19.2026 72.6473 21.555 73.4294C23.6257 74.1178 25.7555 73.7357 27.2532 73.1098C27.4442 74.507 27.8342 76.0064 28.4796 77.3331C29.2102 78.835 30.2863 80.151 31.8065 80.8113C33.3379 81.4764 35.2447 81.4437 37.561 80.3951C39.8165 79.374 42.4835 77.3811 45.6302 74.0821C47.2521 75.0214 49.7523 76.0436 52.3352 76.2427C55.085 76.4547 57.9756 75.7319 59.9433 72.9339C61.8131 70.275 62.8617 68.4234 63.4107 67.181C63.6846 66.561 63.84 66.0798 63.9071 65.7176C63.9249 65.6212 63.9372 65.5297 63.9432 65.4438C65.5854 65.392 67.8716 64.9575 69.9338 63.7975C72.2135 62.5152 74.2253 60.3399 74.7627 56.8367C75.3141 53.2421 73.0621 50.5574 70.1933 48.6978C67.5793 47.0034 64.3639 45.928 61.9658 45.4007C63.0283 44.14 64.084 42.2718 64.2288 40.2133C64.3128 39.0183 64.089 37.7624 63.3846 36.5389C62.6817 35.318 61.5127 34.1509 59.7395 33.1092C57.5764 31.8385 55.8374 30.87 54.4431 30.0966C54.3575 30.0491 54.2733 30.0025 54.1905 29.9565C52.9184 29.2512 51.9572 28.7181 51.2255 28.2611C50.4437 27.7729 49.9608 27.3932 49.6543 27.016C49.361 26.655 49.2146 26.2777 49.1504 25.7569C48.7711 22.0832 47.8262 16.5053 46.2183 11.7005C45.4145 9.29857 44.4384 7.06922 43.2712 5.36469C42.1091 3.6677 40.716 2.43101 39.0606 2.13424C38.0357 1.95051 37.1432 2.11402 36.3742 2.57133C35.6146 3.02299 35.0053 3.74315 34.5016 4.62417C33.4996 6.37697 32.8554 8.87743 32.3089 11.5431C32.0983 12.5699 31.9025 13.6197 31.7067 14.6693C31.3882 16.377 31.0697 18.084 30.6885 19.6896Z" fill="#111111"/>
<path d="M23.5947 36.7811C29.7717 39.725 35.6181 34.8919 37.7692 32.1073C39.0309 31.1675 39.4419 31.314 42.2902 33.7195C44.5688 35.6438 44.3366 37.0744 43.9357 37.5491C40.4741 41.4105 31.2464 48.4505 22.0286 45.7194C10.5065 42.3056 9.13655 31.857 9.42967 31.035C9.72278 30.213 7.69649 28.1007 7.15328 27.6754C6.61007 27.25 6.1258 27.309 6.08122 26.1349C6.04556 25.1957 8.00345 25.5078 8.98684 25.7813C8.16483 25.4882 6.16882 25.2397 6.47626 23.7279C6.73115 22.6485 7.92662 22.7485 8.99414 23.1188C7.99046 22.5172 7.79099 21.8337 7.91321 20.9975C8.07411 19.8967 10.0558 20.835 11.4943 21.348C12.6451 21.7584 13.2259 21.039 13.3724 20.628C19.7285 23.5894 15.8734 33.1012 23.5947 36.7811Z" fill="#FDFBEF"/>
<path fill-rule="evenodd" clip-rule="evenodd" d="M13.2029 20.2626C13.3071 20.2191 13.4248 20.2214 13.5271 20.2691C16.7325 21.7626 17.4876 24.8429 18.2229 27.8426C18.2639 28.0098 18.3049 28.1768 18.3462 28.3433C19.1415 31.5493 20.0741 34.6706 23.7525 36.4237C26.7031 37.83 29.5786 37.3869 32.0049 36.2348C34.4399 35.0785 36.3922 33.2194 37.4371 31.8668C37.4594 31.8379 37.4856 31.8122 37.5149 31.7904C37.8344 31.5524 38.1432 31.3487 38.4737 31.2461C38.8254 31.1369 39.1733 31.1498 39.5547 31.2858C39.9193 31.4158 40.315 31.6585 40.7824 32.0022C41.2533 32.3484 41.8223 32.8165 42.5342 33.4177C44.8704 35.3907 44.8501 37.0752 44.2274 37.8126C44.2248 37.8156 44.2223 37.8186 44.2196 37.8215C42.459 39.7855 39.2463 42.5447 35.302 44.4716C31.3577 46.3985 26.639 47.5129 21.8999 46.1087C16.0246 44.3679 12.7229 40.8251 10.9331 37.6049C10.04 35.998 9.52362 34.4726 9.24886 33.2918C9.11152 32.7016 9.03366 32.1937 8.99989 31.8011C8.98304 31.6051 8.97678 31.4335 8.98054 31.292C8.98396 31.1633 8.99609 31.02 9.0371 30.905C9.04045 30.8956 9.05047 30.8534 9.03075 30.7582C9.01147 30.665 8.96892 30.5466 8.89922 30.4046C8.75967 30.1204 8.53607 29.7911 8.27503 29.4591C7.75072 28.7923 7.13056 28.1833 6.89124 27.9959C6.78688 27.9142 6.68543 27.8541 6.56775 27.7844C6.55976 27.7797 6.55169 27.7749 6.54353 27.7701C6.42316 27.6987 6.27321 27.609 6.13895 27.4812C5.83967 27.1963 5.69006 26.7979 5.66565 26.1549L6.06647 26.1397L5.66565 26.1549C5.65842 25.9646 5.70218 25.7838 5.80351 25.6264C5.9028 25.4722 6.04129 25.3654 6.18541 25.2921C6.29058 25.2387 6.40579 25.1995 6.52602 25.1714C6.43176 25.0817 6.34575 24.9815 6.27246 24.869C6.05374 24.5335 5.97225 24.1257 6.06844 23.6527C6.06927 23.6486 6.07017 23.6445 6.07113 23.6404C6.15221 23.2971 6.31608 23.0206 6.55614 22.8213C6.7926 22.6251 7.07568 22.5262 7.36123 22.487C7.48019 22.4707 7.60278 22.4643 7.72739 22.4662C7.70006 22.4175 7.67487 22.3679 7.65182 22.3174C7.44878 21.8726 7.43383 21.4076 7.50157 20.9442C7.53105 20.7425 7.60751 20.5574 7.74434 20.4086C7.88046 20.2607 8.05136 20.1759 8.22458 20.1318C8.55298 20.0481 8.93982 20.098 9.30043 20.1816C9.82923 20.3041 10.4549 20.5406 11.0193 20.754C11.2288 20.8331 11.4298 20.9091 11.6143 20.9749C12.0892 21.1443 12.3973 21.0689 12.5926 20.9545C12.8055 20.8299 12.9328 20.6299 12.9799 20.498C13.0178 20.3916 13.0988 20.3062 13.2029 20.2626ZM8.81024 23.4895C9.1498 23.6888 9.56158 23.8742 10.0544 24.0499C10.2503 24.1198 10.4671 24.0283 10.5538 23.8393C10.6404 23.6502 10.5682 23.4263 10.3875 23.3235C10.0532 23.1333 9.61611 22.9231 9.15153 22.7588C8.71913 22.4934 8.49549 22.2338 8.3816 21.9843C8.26454 21.7278 8.24086 21.433 8.29535 21.0602C8.3061 20.9867 8.32676 20.9604 8.33471 20.9518C8.34338 20.9424 8.36494 20.9239 8.42261 20.9092C8.55598 20.8752 8.78464 20.8855 9.11937 20.9631C9.59209 21.0726 10.134 21.2775 10.6795 21.4837C10.9022 21.5679 11.1254 21.6523 11.3448 21.7305C12.0206 21.9715 12.5784 21.8924 12.9978 21.6469C13.2241 21.5144 13.3979 21.3408 13.5243 21.1645C16.0898 22.5433 16.7343 25.1577 17.4665 28.1274C17.4999 28.263 17.5335 28.3994 17.5675 28.5364C18.3639 31.7466 19.3644 35.2211 23.4073 37.1479C26.6337 38.6856 29.7699 38.1841 32.349 36.9594C34.8928 35.7515 36.9235 33.8293 38.0375 32.4016C38.3257 32.1897 38.5301 32.0686 38.7115 32.0122C38.8808 31.9597 39.0501 31.9576 39.2852 32.0414C39.5372 32.1313 39.857 32.3175 40.3072 32.6485C40.7539 32.9769 41.3044 33.4291 42.0166 34.0306C44.2254 35.8961 43.7984 37.0699 43.6175 37.2914C41.9154 39.1885 38.7857 41.8768 34.9499 43.7508C31.1105 45.6264 26.6065 46.6666 22.1278 45.3396C16.481 43.6665 13.3367 40.2782 11.6343 37.2151C10.7813 35.6804 10.2899 34.2262 10.0302 33.11C9.9003 32.5517 9.82922 32.0818 9.79916 31.7323C9.7841 31.5572 9.77973 31.4168 9.78248 31.3133C9.78468 31.2304 9.79117 31.1889 9.79313 31.1764C9.79392 31.1713 9.79397 31.171 9.79272 31.1745C9.86265 30.9784 9.85343 30.7748 9.81632 30.5955C9.77876 30.4141 9.70686 30.2294 9.61933 30.0511C9.44441 29.6948 9.18245 29.3153 8.90565 28.9632C8.3543 28.2621 7.68971 27.6022 7.38581 27.3643C7.23862 27.249 7.09484 27.1641 6.98182 27.0973C6.97187 27.0914 6.96216 27.0857 6.9527 27.08C6.8281 27.0062 6.75235 26.9575 6.69207 26.9001C6.60227 26.8146 6.48745 26.6554 6.46729 26.1244C6.4656 26.08 6.47519 26.0651 6.47797 26.0608L6.47798 26.0607C6.48278 26.0533 6.49908 26.0326 6.54887 26.0073C6.65961 25.951 6.85702 25.9116 7.14056 25.9092C7.6956 25.9044 8.39031 26.0406 8.86463 26.1725C9.07269 26.2303 9.28922 26.1131 9.35446 25.9072C9.4197 25.7013 9.31023 25.4808 9.10681 25.4082C8.95938 25.3556 8.76921 25.302 8.57733 25.2479C8.48495 25.2218 8.39218 25.1957 8.30359 25.1695C8.01175 25.0831 7.72352 24.9857 7.47571 24.8591C7.22607 24.7316 7.04792 24.5896 6.94452 24.431C6.85046 24.2867 6.79781 24.0982 6.85332 23.8188C6.89991 23.6261 6.98031 23.5118 7.06852 23.4386C7.16127 23.3616 7.29157 23.3063 7.47019 23.2818C7.83131 23.2323 8.31 23.3197 8.81024 23.4895Z" fill="#111111"/>
<path d="M33.6421 21.5194C33.3389 24.1451 34.6541 26.4539 36.5796 26.6763C38.5051 26.8986 40.3119 24.9503 40.6151 22.3246C40.9183 19.6989 39.6031 17.3901 37.6776 17.1677C35.7521 16.9454 33.9453 18.8937 33.6421 21.5194Z" fill="white"/>
<path fill-rule="evenodd" clip-rule="evenodd" d="M34.9722 24.602C34.5335 23.832 34.305 22.7726 34.4391 21.6114C34.5731 20.4502 35.0371 19.4708 35.6397 18.821C36.2427 18.1708 36.9377 17.8898 37.5856 17.9646C38.2335 18.0395 38.8461 18.4714 39.285 19.242C39.7237 20.012 39.9522 21.0713 39.8181 22.2326C39.6841 23.3938 39.2201 24.3732 38.6175 25.023C38.0145 25.6732 37.3195 25.9542 36.6716 25.8793C36.0237 25.8045 35.4111 25.3726 34.9722 24.602ZM36.5796 26.6763C34.6541 26.4539 33.3389 24.1451 33.6421 21.5194C33.9453 18.8937 35.7521 16.9454 37.6776 17.1677C39.6031 17.3901 40.9183 19.6989 40.6151 22.3246C40.3119 24.9503 38.5051 26.8986 36.5796 26.6763Z" fill="#111111"/>
<path d="M33.979 20.102C33.5486 21.9015 34.4501 23.6593 35.9925 24.0282C37.5349 24.3971 39.1341 23.2374 39.5645 21.4379C39.9949 19.6384 39.0934 17.8806 37.551 17.5117C36.0086 17.1429 34.4094 18.3026 33.979 20.102Z" fill="#111111"/>
<path fill-rule="evenodd" clip-rule="evenodd" d="M32.8878 30.5717C32.7017 30.9245 32.2648 31.0595 31.9121 30.8733C31.661 30.7408 31.201 30.5761 30.7074 30.5491C30.2222 30.5225 29.772 30.6297 29.4221 30.9494C29.1277 31.2185 28.6709 31.198 28.4018 30.9036C28.1328 30.6092 28.1533 30.1524 28.4477 29.8833C29.1693 29.2238 30.047 29.0664 30.7864 29.1069C31.5175 29.1469 32.179 29.381 32.5863 29.596C32.939 29.7821 33.074 30.219 32.8878 30.5717Z" fill="#111111"/>
</svg>
