<svg width="119" height="208" viewBox="0 0 119 208" fill="none" xmlns="http://www.w3.org/2000/svg">
<path d="M52.6632 197.493C51.6796 195.85 49.9715 172.009 49.5617 161.68L46.0666 149.132L57.3372 151.372C58.2935 161.514 60.5749 184.151 62.0503 193.559C63.5257 202.967 63.3481 205.444 63.0749 205.506C60.6159 209.799 46.0666 206.626 43.4027 205.506C40.7387 204.386 29.4682 201.213 32.1321 195.239C34.7961 189.266 53.8927 199.546 52.6632 197.493Z" fill="#FFEB34"/>
<path fill-rule="evenodd" clip-rule="evenodd" d="M45.1678 148.337L58.0198 150.838L58.0645 151.302C59.0309 161.339 61.3333 183.706 62.8197 192.988C63.5662 197.649 63.8974 200.61 64.0061 202.423C64.0603 203.326 64.0604 203.963 64.0244 204.39C64.0068 204.599 63.9782 204.788 63.9301 204.942C63.9065 205.018 63.8689 205.116 63.8043 205.211C63.7829 205.242 63.7523 205.282 63.711 205.323C62.9146 206.569 61.3158 207.182 59.5591 207.465C57.7147 207.763 55.5008 207.73 53.3172 207.531C48.9613 207.136 44.5461 206.065 43.1207 205.478C42.8204 205.355 42.3834 205.197 41.8528 205.006C40.1665 204.397 37.534 203.448 35.333 202.163C33.8777 201.313 32.522 200.271 31.7121 199.005C30.8774 197.7 30.6376 196.175 31.4047 194.49C32.2519 192.63 34.3537 192.172 36.5561 192.264C38.8098 192.359 41.4996 193.034 44.0107 193.812C45.7767 194.359 47.493 194.969 48.93 195.481C49.5372 195.697 50.0946 195.895 50.5847 196.064C51.1105 196.244 51.5464 196.386 51.8864 196.482C51.8214 196.213 51.7563 195.886 51.6913 195.513C51.5454 194.677 51.3933 193.57 51.2389 192.266C50.9297 189.657 50.6073 186.229 50.3034 182.539C49.6986 175.193 49.1654 166.78 48.9559 161.655L45.1678 148.337ZM46.939 149.955L50.2107 161.457L50.2137 161.531C50.4202 166.628 50.9544 175.068 51.5611 182.437C51.8644 186.122 52.1854 189.532 52.4921 192.12C52.6455 193.415 52.7945 194.497 52.9347 195.301C53.0049 195.703 53.0714 196.028 53.1332 196.27C53.1641 196.392 53.1922 196.486 53.2167 196.556C53.243 196.632 53.2578 196.657 53.2555 196.653C53.3136 196.748 53.4049 196.92 53.4041 197.134C53.4037 197.255 53.3737 197.39 53.2934 197.517C53.2142 197.642 53.1086 197.723 53.0116 197.774C52.8372 197.865 52.6575 197.875 52.5522 197.874C52.431 197.874 52.3041 197.858 52.1823 197.837C51.7102 197.755 50.9999 197.529 50.1714 197.245C49.6587 197.068 49.0874 196.865 48.4713 196.646C47.0432 196.137 45.3741 195.543 43.6341 195.004C41.1424 194.233 38.5835 193.6 36.5029 193.513C34.371 193.424 33.053 193.91 32.5549 195.004C31.9767 196.274 32.1509 197.356 32.7779 198.336C33.4296 199.355 34.5834 200.274 35.9738 201.086C38.0592 202.304 40.4775 203.177 42.1686 203.787C42.7464 203.996 43.2393 204.174 43.605 204.324C44.8701 204.845 49.1474 205.898 53.4324 206.287C55.5691 206.481 57.6627 206.505 59.3561 206.232C61.0869 205.952 62.2152 205.392 62.6855 204.588L62.7424 204.491C62.7504 204.444 62.7593 204.377 62.767 204.286C62.7957 203.945 62.7993 203.377 62.7465 202.497C62.6414 200.743 62.3172 197.827 61.5735 193.184C60.1023 183.997 57.8434 162.122 56.8532 151.885L46.939 149.955Z" fill="#111111"/>
<path d="M77.894 195.201C78.4181 193.418 73.9615 170.545 71.5999 160.588L71.5999 147.591L61.1583 152.171C62.9346 162.069 66.7553 184.19 67.8267 193.499C68.8981 202.807 69.7346 205.135 70.0189 205.135C73.5763 208.705 86.9801 202.523 89.2901 200.876C91.6002 199.229 101.792 193.757 97.5845 188.626C93.3769 183.496 77.2388 197.429 77.894 195.201Z" fill="#FFEB34"/>
<path fill-rule="evenodd" clip-rule="evenodd" d="M72.2291 146.63L60.4548 151.795L60.5366 152.25C62.314 162.154 66.1306 184.255 67.1994 193.54C67.7361 198.203 68.2158 201.134 68.6006 202.909C68.7924 203.793 68.9644 204.408 69.1148 204.813C69.1886 205.011 69.2673 205.187 69.3556 205.326C69.399 205.394 69.462 205.481 69.55 205.558C69.5792 205.584 69.6196 205.616 69.6706 205.646C70.7789 206.678 72.4936 206.927 74.2736 206.825C76.1422 206.717 78.2799 206.21 80.3441 205.551C84.4616 204.235 88.4539 202.255 89.6771 201.383C89.9351 201.199 90.3165 200.953 90.7797 200.654C92.2507 199.705 94.5464 198.223 96.3332 196.511C97.5146 195.378 98.5473 194.081 98.9902 192.685C99.4468 191.247 99.2668 189.722 98.0675 188.259C96.7439 186.646 94.5725 186.652 92.4477 187.21C90.2719 187.782 87.8238 189.006 85.576 190.293C84.0031 191.193 82.4947 192.144 81.2291 192.942C80.6857 193.284 80.187 193.599 79.7472 193.869C79.2704 194.162 78.874 194.395 78.5627 194.562C78.555 194.289 78.5324 193.961 78.4975 193.588C78.4196 192.756 78.2774 191.665 78.0863 190.385C77.7037 187.824 77.1204 184.478 76.4479 180.882C75.1092 173.724 73.4122 165.549 72.2291 160.551L72.2291 146.63ZM78.4995 195.401C78.4995 195.401 78.4995 195.401 78.4995 195.401V195.401ZM70.9686 148.558L70.9686 160.631L70.9852 160.701C72.163 165.667 73.8655 173.864 75.2082 181.044C75.8796 184.633 76.4598 187.963 76.8392 190.502C77.029 191.773 77.1675 192.839 77.2422 193.638C77.2797 194.039 77.3004 194.363 77.3044 194.61C77.3065 194.733 77.3042 194.829 77.299 194.902C77.2934 194.98 77.2858 195.009 77.2865 195.006C77.2556 195.111 77.2135 195.299 77.2745 195.508C77.3088 195.625 77.3759 195.748 77.4881 195.852C77.5984 195.953 77.7215 196.008 77.8272 196.035C78.0181 196.085 78.1927 196.057 78.2954 196.034C78.4129 196.009 78.5322 195.967 78.6457 195.921C79.0858 195.741 79.7204 195.373 80.4558 194.921C80.9157 194.639 81.4266 194.317 81.9778 193.969C83.2354 193.176 84.7028 192.251 86.2533 191.364C88.4841 190.087 90.8185 188.929 92.8315 188.401C94.8955 187.859 96.3192 188.048 97.0995 188.999C98.0039 190.102 98.1278 191.185 97.7845 192.267C97.4277 193.392 96.5569 194.528 95.4276 195.61C93.7338 197.234 91.6235 198.596 90.1484 199.549C89.6446 199.874 89.2149 200.151 88.9011 200.375C87.8143 201.15 83.9496 203.084 79.8984 204.378C77.8782 205.024 75.8535 205.496 74.1362 205.595C72.381 205.696 71.1332 205.397 70.4584 204.72L70.3767 204.638C70.3562 204.594 70.3294 204.531 70.2972 204.445C70.1773 204.122 70.02 203.573 69.8332 202.712C69.4608 200.995 68.9866 198.109 68.4519 193.464C67.394 184.273 63.668 162.655 61.8596 152.554L70.9686 148.558Z" fill="#111111"/>
<path d="M59.7692 54.1952C68.1797 56.3804 70.8462 77.9455 71.1281 88.4549C71.2816 91.8152 73.9042 92.369 85.6281 100.542C95.0071 107.081 90.2299 114.988 86.6689 118.124C93.4204 119.941 106.376 125.945 104.184 135.42C101.993 144.896 92.3634 146.448 87.8225 146.039C88.1584 146.561 87.3639 149.391 81.4991 156.542C75.6344 163.692 65.6758 159.333 61.4296 156.259C41.6175 174.373 36.2216 161.501 36.0001 152.801C31.7722 154.549 22.7945 154.888 20.7066 142.252C18.6186 129.616 33.0027 115.645 40.4558 110.239C20.5713 115.125 35.0119 94.6624 42.3284 86.7573C49.6448 78.8522 49.2559 51.4637 59.7692 54.1952Z" fill="#00BE4F"/>
<path fill-rule="evenodd" clip-rule="evenodd" d="M56.5775 55.0409C57.443 54.6098 58.4321 54.4886 59.613 54.7954C61.4786 55.2801 63.1105 56.8659 64.5139 59.3007C65.9103 61.7232 67.0237 64.8897 67.8935 68.3519C69.6322 75.2721 70.3659 83.2423 70.5061 88.4674L70.5065 88.4792C70.5492 89.4145 70.7696 90.198 71.2985 90.9634C71.8099 91.7035 72.5874 92.3929 73.6704 93.1924C74.6871 93.9431 76.0212 94.8246 77.7368 95.9582C77.8546 96.036 77.9742 96.1151 78.0957 96.1953C79.9914 97.4484 82.3484 99.0121 85.273 101.051C87.5495 102.638 88.9277 104.281 89.687 105.872C90.4443 107.46 90.6025 109.033 90.3854 110.514C89.9471 113.504 87.9722 116.141 86.2584 117.65C86.0859 117.802 86.0108 118.037 86.0629 118.261C86.115 118.485 86.2859 118.663 86.5075 118.722C89.8333 119.618 94.6782 121.544 98.4029 124.392C102.139 127.249 104.591 130.896 103.578 135.275C102.533 139.793 99.7292 142.411 96.6212 143.866C93.4904 145.332 90.0616 145.61 87.8777 145.413C87.6409 145.392 87.4126 145.508 87.2898 145.713C87.1791 145.897 87.1713 146.123 87.2651 146.313C87.2654 146.32 87.2656 146.328 87.2655 146.338C87.265 146.411 87.2505 146.537 87.1994 146.731C87.0975 147.117 86.8699 147.696 86.4375 148.506C85.5746 150.122 83.9377 152.582 81.0187 156.141C78.2674 159.495 74.5621 160.171 70.9518 159.613C67.3208 159.052 63.8602 157.245 61.7931 155.748C61.5545 155.576 61.228 155.594 61.0105 155.793C56.0876 160.294 52.1049 162.827 48.916 163.993C45.74 165.154 43.3913 164.947 41.6583 164.029C39.9086 163.102 38.6733 161.391 37.8588 159.325C37.0454 157.262 36.6755 154.902 36.6215 152.78C36.6163 152.575 36.5107 152.385 36.3392 152.273C36.1676 152.161 35.9521 152.141 35.7629 152.219C33.751 153.051 30.628 153.534 27.7909 152.34C25.0015 151.167 22.338 148.308 21.3198 142.145C20.3183 136.085 23.2645 129.611 27.5017 123.903C31.7232 118.216 37.1335 113.415 40.8197 110.741C41.0609 110.566 41.1448 110.244 41.02 109.973C40.8952 109.702 40.5966 109.557 40.3076 109.628C37.855 110.231 35.9757 110.431 34.5712 110.33C33.1674 110.229 32.2955 109.833 31.7737 109.301C31.2577 108.775 30.999 108.028 31.0024 107.039C31.0059 106.042 31.2777 104.846 31.7742 103.509C33.7697 98.1332 39.1406 91.1141 42.7837 87.1779C44.7149 85.0913 46.0955 81.7778 47.2538 78.136C47.9755 75.867 48.6288 73.4062 49.2735 70.978C49.6636 69.5084 50.0506 68.0506 50.4477 66.6547C51.5144 62.9042 52.6582 59.5797 54.1523 57.3648C54.8947 56.2643 55.6966 55.4796 56.5775 55.0409ZM87.263 146.291C87.263 146.291 87.2631 146.293 87.2636 146.295C87.2633 146.293 87.2631 146.292 87.263 146.291ZM46.0689 77.7563C44.9139 81.3878 43.5994 84.4622 41.8724 86.3281C38.1991 90.297 32.6915 97.462 30.6086 103.073C30.0856 104.482 29.7628 105.833 29.7586 107.034C29.7544 108.244 30.075 109.348 30.8871 110.177C31.6935 110.999 32.8985 111.462 34.4824 111.576C35.4616 111.646 36.6076 111.585 37.9353 111.382C34.4051 114.226 30.0501 118.38 26.5043 123.157C22.2081 128.945 19.0062 135.774 20.0927 142.35C21.1623 148.823 24.0317 152.113 27.3101 153.492C30.1658 154.693 33.216 154.394 35.4162 153.676C35.5414 155.676 35.9344 157.837 36.7022 159.784C37.5808 162.013 38.9743 164.019 41.0777 165.133C43.1979 166.256 45.9268 166.414 49.3416 165.166C52.6591 163.954 56.6607 161.403 61.4787 157.052C63.688 158.566 67.122 160.284 70.7624 160.847C74.6591 161.45 78.8655 160.731 81.9789 156.934C84.9247 153.343 86.6173 150.812 87.5339 149.095C87.9912 148.239 88.2659 147.565 88.4017 147.051C88.4336 146.93 88.4589 146.814 88.4769 146.703C90.8201 146.801 94.1019 146.424 97.147 144.998C100.537 143.411 103.643 140.514 104.79 135.557C105.969 130.46 103.039 126.368 99.1567 123.399C95.6465 120.715 91.2294 118.838 87.8834 117.819C89.5166 116.13 91.1908 113.596 91.616 110.696C91.8659 108.991 91.6824 107.165 90.8089 105.333C89.9372 103.506 88.3955 101.708 85.9825 100.026C83.0451 97.9777 80.6778 96.4072 78.7797 95.1525C78.6634 95.0757 78.549 95.0001 78.4363 94.9256C76.7042 93.781 75.3968 92.9171 74.4074 92.1866C73.35 91.406 72.7104 90.816 72.3205 90.2518C71.9491 89.7142 71.7839 89.1698 71.7493 88.4278C71.6072 83.1434 70.8666 75.0798 69.0996 68.0466C68.2162 64.5307 67.0684 61.2394 65.5905 58.6754C64.1197 56.1238 62.2644 54.1945 59.9247 53.5866C58.4772 53.2106 57.1787 53.3477 56.0246 53.9225C54.8859 54.4896 53.9362 55.4583 53.1223 56.6648C51.5039 59.0641 50.3163 62.5686 49.2516 66.3119C48.841 67.7557 48.449 69.2329 48.0573 70.7093C47.4203 73.1098 46.784 75.508 46.0689 77.7563Z" fill="#111111"/>
<path d="M46.5353 94.2708C47.0276 98.5219 50.108 101.655 53.4155 101.269C56.723 100.883 59.0051 97.1242 58.5128 92.8731C58.0204 88.622 54.9401 85.4887 51.6326 85.8747C48.3251 86.2607 46.0429 90.0197 46.5353 94.2708Z" fill="white"/>
<path fill-rule="evenodd" clip-rule="evenodd" d="M53.2718 100.029C50.9136 100.304 48.2189 97.9957 47.7708 94.1266C47.3227 90.2576 49.418 87.3901 51.7762 87.1149C54.1344 86.8397 56.8292 89.1482 57.2773 93.0173C57.7253 96.8864 55.63 99.7539 53.2718 100.029ZM53.4155 101.269C50.108 101.655 47.0276 98.5219 46.5353 94.2708C46.0429 90.0197 48.3251 86.2607 51.6326 85.8747C54.9401 85.4887 58.0204 88.622 58.5128 92.8731C59.0051 97.1242 56.723 100.883 53.4155 101.269Z" fill="#111111"/>
<path d="M47.1367 91.6003C47.4577 94.5787 49.7797 96.7692 52.323 96.493C54.8663 96.2168 56.6677 93.5784 56.3467 90.5999C56.0256 87.6215 53.7036 85.431 51.1604 85.7072C48.6171 85.9834 46.8156 88.6218 47.1367 91.6003Z" fill="#111111"/>
<path d="M55.5511 94.1865C56.513 98.3558 59.7621 101.162 62.808 100.454C65.854 99.7456 67.5435 95.7916 66.5816 91.6223C65.6196 87.4529 62.3706 84.647 59.3246 85.355C56.2786 86.0631 54.5892 90.0171 55.5511 94.1865Z" fill="white"/>
<path fill-rule="evenodd" clip-rule="evenodd" d="M59.2093 98.2027C58.1167 97.2591 57.1904 95.758 56.7629 93.9048C56.3353 92.0515 56.5099 90.2945 57.078 88.9649C57.6465 87.6345 58.561 86.8142 59.6052 86.5714C60.6495 86.3287 61.8302 86.6619 62.9234 87.6061C64.0159 88.5496 64.9422 90.0507 65.3698 91.904C65.7974 93.7572 65.6227 95.5142 65.0546 96.8438C64.4862 98.1742 63.5716 98.9946 62.5274 99.2373C61.4832 99.4801 60.3025 99.1468 59.2093 98.2027ZM62.808 100.454C59.7621 101.162 56.513 98.3559 55.5511 94.1865C54.5892 90.0171 56.2786 86.0631 59.3246 85.355C62.3706 84.647 65.6196 87.4529 66.5816 91.6223C67.5435 95.7916 65.854 99.7456 62.808 100.454Z" fill="#111111"/>
<path d="M55.2836 91.8496C55.6047 94.8281 57.9267 97.0186 60.47 96.7424C63.0132 96.4662 64.8147 93.8278 64.4937 90.8493C64.1726 87.8709 61.8506 85.6803 59.3073 85.9566C56.7641 86.2328 54.9626 88.8712 55.2836 91.8496Z" fill="#111111"/>
<path d="M49.7106 108.848C52.8733 107.525 51.7221 109.295 50.7512 110.346C51.1053 112.946 52.7539 118.629 56.5153 120.562C60.2766 122.495 63.5027 115.344 63.1896 110.914C62.683 110.824 61.0901 110.263 61.5972 109.58C61.9409 109.116 63.3884 108.326 64.9535 108.344C66.5212 108.362 64.999 110.539 64.2029 111.096C64.939 113.327 63.7757 117.848 61.2646 121.386C58.1258 125.809 54.5432 122.833 52.7154 119.881C51.2531 117.52 49.8618 112.898 49.3489 110.882C48.1517 110.755 46.5478 110.17 49.7106 108.848Z" fill="#111111"/>
<path d="M28.6274 2.12446C21.3016 1.27421 20.1097 5.15094 20.4294 7.19558C18.1817 19.8292 13.9927 46.5681 15.2185 52.4549C16.4443 58.3418 79.8551 64.2034 111.407 66.3983C113.093 50.3794 116.183 17.4749 115.06 14.0089C113.655 9.67642 37.7848 3.18727 28.6274 2.12446Z" fill="#FFEB34"/>
<path fill-rule="evenodd" clip-rule="evenodd" d="M38.3503 3.55292C33.6291 3.09566 30.1385 2.75757 28.5779 2.57645C24.9865 2.15964 23.0136 2.91429 21.9738 3.90512C20.931 4.89889 20.7345 6.21744 20.8769 7.12799L20.8886 7.20298L20.8753 7.2777C19.7523 13.5898 18.1443 23.4257 16.9705 32.4166C16.3835 36.9126 15.9058 41.192 15.6512 44.7116C15.3951 48.253 15.3704 50.9651 15.6619 52.365C15.7012 52.554 15.8943 52.8355 16.4091 53.1855C16.9069 53.5241 17.6295 53.8753 18.5714 54.2337C20.4519 54.9494 23.1262 55.6642 26.4241 56.3685C33.0148 57.776 42.0266 59.1273 51.9979 60.3647C71.755 62.8163 95.2362 64.8156 111.007 65.9193C111.846 57.909 113.012 45.9288 113.84 35.463C114.261 30.1342 114.594 25.2022 114.752 21.3881C114.831 19.4805 114.866 17.858 114.846 16.6078C114.836 15.9824 114.813 15.4554 114.776 15.0352C114.738 14.607 114.687 14.3174 114.633 14.1515C114.634 14.1526 114.628 14.1347 114.598 14.0986C114.567 14.0626 114.519 14.0162 114.446 13.9611C114.298 13.8497 114.078 13.7244 113.776 13.5886C113.174 13.3175 112.309 13.0325 111.204 12.7378C108.999 12.1493 105.901 11.5391 102.179 10.9226C94.737 9.69034 84.8447 8.44085 74.7025 7.29269C64.5619 6.14472 54.1784 5.09881 45.7566 4.27337C43.0641 4.00947 40.5711 3.76801 38.3503 3.55292ZM114.987 13.2374C115.201 13.3984 115.404 13.6056 115.49 13.8715C115.577 14.1388 115.634 14.5125 115.673 14.9549C115.713 15.4052 115.737 15.9562 115.747 16.5936C115.767 17.8688 115.732 19.5108 115.653 21.4257C115.494 25.2566 115.16 30.2018 114.738 35.5346C113.895 46.2015 112.701 58.4365 111.858 66.4484L111.812 66.8824L111.378 66.8522C95.5976 65.7544 71.8482 63.7396 51.8874 61.2627C41.9088 60.0244 32.8661 58.6694 26.2365 57.2535C22.9243 56.5462 20.197 55.8201 18.2519 55.0798C17.2809 54.7103 16.4847 54.3298 15.9035 53.9347C15.3394 53.5511 14.8934 53.0969 14.7795 52.55C14.4581 51.0064 14.4974 48.1687 14.7522 44.646C15.0085 41.1016 15.4887 36.8029 16.0767 32.299C17.2484 23.3248 18.851 13.5152 19.9751 7.19105C19.8203 6.06056 20.0779 4.46411 21.3532 3.24886C22.6609 2.00273 24.9468 1.24415 28.6814 1.67759C30.2332 1.85769 33.7079 2.19423 38.4197 2.65058C40.6431 2.86592 43.1419 3.10794 45.8442 3.37279C54.2674 4.19838 64.6562 5.24481 74.8035 6.39354C84.949 7.54208 94.86 8.79365 102.325 10.0298C106.056 10.6476 109.188 11.2634 111.436 11.8633C112.558 12.1626 113.477 12.4623 114.145 12.7629C114.478 12.9129 114.765 13.07 114.987 13.2374Z" fill="#111111"/>
<path d="M17.6007 6.57183C26.3869 6.51351 98.9138 3.79087 100.743 7.81286C102.206 11.0304 103.081 43.2079 103.335 58.8945C73.2312 60.5137 12.5641 62.3658 10.7248 56.8198C8.88564 51.2739 9.76213 24.9268 10.4303 12.4465C10.1313 11.3701 10.2079 9.69246 11.5382 8.40502C12.6039 7.37358 14.4743 6.59258 17.6007 6.57183Z" fill="#51C6FF"/>
<path fill-rule="evenodd" clip-rule="evenodd" d="M27.4047 7.24929C22.8881 7.36693 19.5482 7.45392 18.0516 7.46386C15.3271 7.48194 13.65 8.08991 12.6432 8.87428C16.9917 13.2957 24.7879 19.6992 32.5159 25.1531C36.4772 27.9487 40.4107 30.4878 43.8428 32.3785C47.295 34.2803 50.1788 35.4909 52.0618 35.691C52.9595 35.7865 54.1957 35.5843 55.7323 35.1001C57.2588 34.6189 59.0398 33.8731 61.0098 32.9211C64.9493 31.0175 69.6068 28.3082 74.4341 25.3014C80.6645 21.4208 87.1457 17.0655 92.7131 13.3243C95.5631 11.4091 98.1736 9.65488 100.388 8.20762C100.251 8.14188 100.077 8.07398 99.8614 8.00567C99.2631 7.81602 98.4151 7.64344 97.3372 7.48971C95.1858 7.18286 92.1881 6.96046 88.5977 6.80608C81.4209 6.49749 71.9249 6.46252 62.2038 6.55503C52.4843 6.64753 42.5469 6.86738 34.4894 7.06779C31.9137 7.13185 29.5291 7.19396 27.4047 7.24929ZM100.889 8.95235C98.6927 10.3873 96.0914 12.1352 93.246 14.0472C87.6678 17.7955 81.1514 22.1742 74.9121 26.0604C70.0755 29.073 65.3861 31.8021 61.4033 33.7267C59.4122 34.6888 57.5881 35.4546 56.0043 35.9538C54.4304 36.4499 53.0509 36.6969 51.966 36.5816C49.8835 36.3602 46.8575 35.0631 43.4064 33.162C39.9353 31.2497 35.9723 28.6906 31.9947 25.8835C24.2437 20.4134 16.4003 13.9753 11.9989 9.50009C11.1111 10.5887 11.0749 11.8952 11.3169 12.7658L11.3364 12.8361L11.3325 12.9089C10.9989 19.1385 10.6132 28.8291 10.5406 37.6521C10.5043 42.0641 10.5463 46.254 10.7116 49.6837C10.878 53.1345 11.1675 55.7576 11.6047 57.0757C11.6635 57.2527 11.8761 57.4991 12.3993 57.7742C12.9064 58.0408 13.6276 58.2937 14.5582 58.5281C16.4162 58.9959 19.025 59.3693 22.2236 59.6588C28.6156 60.2374 37.2904 60.475 46.8602 60.4888C65.8131 60.5163 88.2319 59.6664 103.269 58.8645C103.139 51.0284 102.859 39.3228 102.434 29.1193C102.218 23.9225 101.964 19.1194 101.673 15.4168C101.527 13.565 101.373 11.9937 101.21 10.7883C101.129 10.1854 101.046 9.67906 100.962 9.27746C100.937 9.15761 100.913 9.04936 100.889 8.95235ZM100.992 7.51337C101.215 7.64526 101.434 7.82331 101.546 8.07115C101.659 8.31901 101.756 8.67299 101.844 9.0954C101.934 9.52551 102.02 10.0547 102.103 10.6691C102.269 11.8982 102.425 13.4882 102.571 15.347C102.863 19.0658 103.117 23.8815 103.334 29.0822C103.767 39.4846 104.049 51.4432 104.176 59.2812L104.183 59.7123L103.751 59.7356C88.7039 60.5448 66.0171 61.4122 46.8588 61.3844C37.2815 61.3705 28.5746 61.133 22.1419 60.5507C18.9282 60.2598 16.2639 59.8814 14.3371 59.3963C13.3753 59.1541 12.5761 58.8802 11.9784 58.566C11.397 58.2603 10.9205 57.8719 10.7495 57.3563C10.2677 55.9041 9.97754 53.1592 9.81206 49.7267C9.64558 46.2731 9.60367 42.0645 9.64006 37.6448C9.71257 28.838 10.0962 19.1732 10.4294 12.932C10.1221 11.7403 10.2293 9.92631 11.676 8.52657C12.8537 7.3871 14.8536 6.58947 18.0456 6.56828C19.5332 6.55841 22.8565 6.47185 27.3635 6.35446C29.4905 6.29906 31.8812 6.23679 34.4669 6.17247C42.5259 5.97203 52.4688 5.75204 62.1952 5.65948C71.9199 5.56693 81.4352 5.60167 88.6367 5.91132C92.2355 6.06607 95.2687 6.28993 97.4651 6.60318C98.5612 6.75951 99.4664 6.94045 100.135 7.15237C100.469 7.25814 100.76 7.37672 100.992 7.51337Z" fill="#111111"/>
<path d="M99.1298 88.7554C98.676 94.4527 90.9545 99.9291 86.1365 101.594C85.5753 104.304 85.5654 109.255 90.0151 107.386C95.5772 105.05 100.61 100.929 103.807 98.4031C107.004 95.8772 106.533 74.1884 105.038 69.4027C103.842 65.5742 103.169 61.2366 101.782 59.9073C100.911 59.8187 98.8795 59.7137 97.7141 60.0024C96.2573 60.3632 95.3492 59.8125 93.3627 58.3883C91.3761 56.964 85.5869 56.5274 89.1816 60.6104C92.0574 63.8767 95.8665 64.5666 97.4115 64.5032C98.8494 65.668 99.5837 83.0581 99.1298 88.7554Z" fill="#FFFDE7"/>
<path d="M19.4648 57.5599C17.9665 60.3402 15.6748 60.263 14.7162 59.8769C10.1304 64.2982 10.7069 85.4618 11.1285 88.7556C11.5502 92.0499 12.5595 101.645 20.8538 105.504C29.148 109.362 33.394 108.994 36.9381 107.386C40.4823 105.778 37.2785 101.005 35.5758 101.29C33.8731 101.575 30.7192 103.146 22.4098 98.6336C14.1004 94.1217 15.2226 68.8016 17.3477 64.5032C20.8856 66.1363 19.5785 62.4595 21.9055 61.0162C24.2325 59.5728 24.8378 57.5977 24.573 56.7051C24.3081 55.8126 21.3377 54.0845 19.4648 57.5599Z" fill="#FFFDE7"/>
<path fill-rule="evenodd" clip-rule="evenodd" d="M102.055 59.3099L102.21 59.4578C102.648 59.8783 102.991 60.4922 103.278 61.1711C103.571 61.8604 103.83 62.6762 104.078 63.5487C104.279 64.2552 104.47 64.9899 104.665 65.7386C104.962 66.8826 105.268 68.0594 105.63 69.2181C106.027 70.4903 106.34 72.8083 106.545 75.5534C106.75 78.3186 106.85 81.5759 106.802 84.7618C106.755 87.9446 106.559 91.074 106.171 93.5773C105.977 94.8276 105.732 95.9409 105.425 96.8338C105.127 97.7012 104.737 98.4634 104.19 98.8958C103.996 99.049 103.795 99.2084 103.587 99.3733C100.387 101.911 95.5643 105.734 90.2536 107.964C89.0632 108.464 88.0494 108.56 87.2233 108.234C86.3857 107.902 85.8891 107.196 85.6103 106.421C85.0667 104.912 85.2389 102.856 85.5261 101.469L85.5981 101.122L85.9325 101.006C88.2589 100.202 91.3239 98.4603 93.8571 96.2205C96.4086 93.9646 98.3011 91.3104 98.5084 88.7077C98.7318 85.9031 98.6639 80.1658 98.3577 74.9685C98.2049 72.3735 97.9937 69.9313 97.7331 68.0719C97.6025 67.1403 97.4616 66.3707 97.3139 65.807C97.2398 65.5244 97.168 65.3094 97.1018 65.1579C97.0978 65.1489 97.094 65.1403 97.0903 65.1322C95.2436 65.0952 91.5478 64.2444 88.7141 61.0259C88.2424 60.4901 87.9015 60.003 87.6867 59.559C87.4733 59.1176 87.3652 58.6782 87.4211 58.2595C87.5453 57.33 88.3651 56.9476 89.0684 56.8217C89.8023 56.6902 90.6899 56.7657 91.5041 56.9543C92.3184 57.1429 93.1374 57.4628 93.7226 57.8824C94.7282 58.6033 95.3928 59.0511 95.9715 59.2893C96.5053 59.509 96.9616 59.5475 97.5636 59.3984C98.2229 59.235 99.0848 59.1899 99.8581 59.1912C100.643 59.1925 101.389 59.2421 101.843 59.2883L102.055 59.3099ZM99.856 60.4397C99.1044 60.4385 98.3676 60.4852 97.8616 60.6106C97.0068 60.8223 96.2806 60.7659 95.4996 60.4445C94.7634 60.1415 93.9807 59.6017 92.9997 58.8984C92.5916 58.6058 91.942 58.3371 91.2244 58.1709C90.5068 58.0046 89.7993 57.9591 89.2869 58.0508C88.7439 58.1481 88.6663 58.3331 88.6539 58.4255C88.6416 58.5178 88.6554 58.703 88.8057 59.0137C88.9546 59.3217 89.2191 59.7141 89.6461 60.1991C92.3744 63.2978 95.9877 63.9389 97.3846 63.8816L97.6185 63.872L97.8006 64.0195C98.0107 64.1897 98.1467 64.441 98.2408 64.6562C98.3431 64.8902 98.434 65.1738 98.5167 65.4893C98.6826 66.1218 98.8314 66.9465 98.9648 67.8979C99.2321 69.8048 99.4457 72.2846 99.5994 74.8949C99.9065 80.1082 99.9787 85.9146 99.7483 88.8073C99.5017 91.9019 97.3065 94.8346 94.6793 97.1574C92.1531 99.391 89.1169 101.159 86.6787 102.064C86.4547 103.339 86.3919 104.919 86.7801 105.997C86.9849 106.566 87.285 106.916 87.6794 107.072C88.0855 107.233 88.7391 107.247 89.7735 106.812C94.92 104.651 99.6187 100.927 102.835 98.3785C103.036 98.2191 103.231 98.0642 103.421 97.9146C103.673 97.7155 103.967 97.2474 104.25 96.4265C104.523 95.6312 104.754 94.5982 104.942 93.3852C105.318 90.9619 105.511 87.8964 105.559 84.743C105.606 81.5928 105.507 78.3728 105.304 75.6464C105.1 72.9 104.793 70.7121 104.443 69.5916C104.077 68.4194 103.752 67.1701 103.445 65.9934C103.252 65.2512 103.066 64.5379 102.882 63.8911C102.639 63.0345 102.396 62.2774 102.134 61.6598C101.915 61.144 101.699 60.7639 101.488 60.5093C101.066 60.4737 100.474 60.4407 99.856 60.4397ZM21.3226 56.3789C20.8976 56.6224 20.4355 57.0701 20.0103 57.859C19.1914 59.3786 18.1216 60.1699 17.0745 60.503C16.2598 60.7622 15.4864 60.7351 14.9 60.5913C14.5053 61.0541 14.1366 61.6924 13.7999 62.4962C13.3969 63.4585 13.0546 64.6219 12.7675 65.9279C12.1932 68.5402 11.8511 71.6668 11.6639 74.7788C11.2889 81.0106 11.5397 87.083 11.7439 88.6782L11.127 88.7577L11.7439 88.6782C11.7544 88.7603 11.7652 88.846 11.7765 88.9353C11.9929 90.6455 12.3712 93.6363 13.613 96.6837C14.916 99.8812 17.1518 103.096 21.1138 104.939C25.2221 106.851 28.2815 107.693 30.7218 107.874C33.1455 108.055 34.9895 107.587 36.6805 106.819C37.4131 106.487 37.7364 106.029 37.8561 105.562C37.9831 105.066 37.9017 104.472 37.65 103.873C37.3997 103.277 37.0041 102.734 36.5905 102.365C36.146 101.968 35.8155 101.885 35.6765 101.908C35.5159 101.935 35.3259 101.979 35.1052 102.031C34.3053 102.217 33.1017 102.497 31.4276 102.386C29.274 102.242 26.3209 101.47 22.1124 99.1848C19.8244 97.9425 18.2694 95.3256 17.2235 92.2028C16.17 89.0576 15.5919 85.2769 15.3438 81.5319C15.0953 77.7825 15.1757 74.0409 15.4527 70.9609C15.5912 69.421 15.7795 68.0394 16.0025 66.9005C16.2229 65.7749 16.4854 64.8422 16.7891 64.2278L17.0575 63.685L17.6061 63.9382C18.4538 64.3295 18.8486 64.3199 19.0271 64.2602C19.1791 64.2093 19.3252 64.0712 19.5132 63.6567C19.5902 63.487 19.6611 63.3022 19.7432 63.0885C19.759 63.0472 19.7753 63.0047 19.7922 62.9611C19.8923 62.7015 20.0074 62.4117 20.1513 62.1226C20.4421 61.5386 20.8637 60.9297 21.5771 60.4872C22.6525 59.8201 23.3048 59.0463 23.6585 58.367C24.0244 57.6642 24.0452 57.1205 23.9754 56.8855C23.9756 56.886 23.9755 56.8858 23.9751 56.8849C23.9722 56.8784 23.9521 56.8332 23.8856 56.7573C23.8152 56.677 23.712 56.5842 23.5775 56.4933C23.3072 56.3106 22.9477 56.1599 22.5538 56.1173C22.167 56.0755 21.7449 56.137 21.3226 56.3789ZM24.2723 55.4577C24.6655 55.7235 25.0408 56.1023 25.1675 56.529C25.3626 57.1865 25.2131 58.0767 24.7609 58.9454C24.2963 59.8376 23.4824 60.773 22.2309 61.5493C21.7807 61.8286 21.4931 62.2205 21.264 62.6808C21.1479 62.9139 21.0504 63.1571 20.9521 63.4119C20.9373 63.4502 20.9224 63.4891 20.9073 63.5284C20.8257 63.7414 20.7391 63.9673 20.6452 64.1743C20.4269 64.6553 20.091 65.2203 19.4203 65.4447C18.9212 65.6116 18.3475 65.5517 17.6859 65.3185C17.5281 65.7772 17.3704 66.3888 17.223 67.1413C17.0104 68.2274 16.8272 69.5645 16.6915 71.0732C16.4201 74.0907 16.3408 77.7671 16.5849 81.449C16.8291 85.1353 17.3957 88.7992 18.4024 91.8049C19.4167 94.8329 20.8374 97.073 22.7042 98.0867C26.8051 100.313 29.5836 101.012 31.5099 101.14C32.9773 101.238 33.94 101.015 34.7367 100.831C34.9954 100.772 35.2367 100.716 35.472 100.677C36.1844 100.557 36.8929 100.964 37.4172 101.432C37.9725 101.928 38.4756 102.625 38.7961 103.388C39.1151 104.147 39.2766 105.03 39.0607 105.873C38.8375 106.744 38.2323 107.486 37.1928 107.957C35.3397 108.798 33.2886 109.318 30.6297 109.12C27.9874 108.923 24.7767 108.02 20.5907 106.072C16.2585 104.057 13.8425 100.545 12.4618 97.1564C11.1561 93.9522 10.7605 90.8184 10.5442 89.1052C10.5323 89.0116 10.5211 88.9222 10.5102 88.8373C10.2928 87.1386 10.0445 80.9824 10.4223 74.7035C10.6114 71.5602 10.9588 68.3611 11.5529 65.6588C11.85 64.3075 12.2118 63.0664 12.6533 62.0123C13.0924 60.964 13.6254 60.0637 14.2839 59.4288L14.5736 59.1495L14.9463 59.2997C15.3009 59.4425 15.9651 59.5462 16.6987 59.3128C17.4117 59.086 18.2369 58.5257 18.9163 57.265C19.4276 56.3162 20.0391 55.6766 20.7061 55.2945C21.3757 54.9109 22.064 54.8086 22.687 54.8759C23.3029 54.9425 23.8526 55.174 24.2723 55.4577Z" fill="#111111"/>
<path d="M97.6075 50.9383L98.3949 50.8933L98.5854 54.2466L97.798 54.2916L97.6075 50.9383ZM97.9803 50.4399C97.8983 50.4446 97.8213 50.4294 97.7494 50.3943C97.6774 50.3591 97.6191 50.3098 97.5743 50.2463C97.5296 50.1828 97.505 50.1119 97.5005 50.0337C97.4962 49.9575 97.5127 49.8853 97.5499 49.8171C97.5872 49.7489 97.6397 49.6942 97.7073 49.6532C97.7748 49.6101 97.8495 49.5862 97.9316 49.5815C98.0136 49.5768 98.0906 49.592 98.1625 49.6272C98.2344 49.6602 98.2927 49.7085 98.3374 49.772C98.3822 49.8356 98.4067 49.9054 98.411 49.9816C98.4155 50.0598 98.3991 50.133 98.3618 50.2012C98.3245 50.2695 98.2721 50.3251 98.2046 50.3682C98.1371 50.4113 98.0624 50.4352 97.9803 50.4399Z" fill="#111111"/>
<path d="M94.272 50.009L95.0594 49.9639L95.1994 52.428L95.2548 52.4248L96.378 51.0099L97.2946 50.9575L96.0817 52.4766L97.5651 54.3062L96.63 54.3597L95.5208 52.9796L95.2492 53.3049L95.3134 54.435L94.526 54.48L94.272 50.009Z" fill="#111111"/>
<path d="M92.9554 51.2072L93.7428 51.1622L93.9333 54.5155L93.1459 54.5605L92.9554 51.2072ZM93.3282 50.7088C93.2462 50.7135 93.1692 50.6983 93.0973 50.6632C93.0253 50.6281 92.967 50.5787 92.9222 50.5152C92.8775 50.4517 92.8529 50.3808 92.8484 50.3026C92.8441 50.2264 92.8606 50.1542 92.8978 50.086C92.9351 50.0178 92.9876 49.9632 93.0552 49.9221C93.1227 49.879 93.1974 49.8551 93.2795 49.8504C93.3615 49.8457 93.4385 49.861 93.5104 49.8961C93.5823 49.9291 93.6406 49.9774 93.6853 50.041C93.7301 50.1045 93.7546 50.1743 93.7589 50.2505C93.7634 50.3287 93.747 50.4019 93.7097 50.4702C93.6724 50.5384 93.62 50.594 93.5525 50.6371C93.485 50.6802 93.4103 50.7041 93.3282 50.7088Z" fill="#111111"/>
<path d="M87.7861 51.5016L88.5859 51.4558L89.3105 53.7811L89.3413 53.7794L89.804 51.3862L90.5977 51.3408L91.3339 53.653L91.3646 53.6513L91.8158 51.2711L92.6156 51.2254L91.8586 54.6329L91.0404 54.6797L90.2838 52.443L90.2407 52.4454L89.7423 54.7539L88.9241 54.8007L87.7861 51.5016Z" fill="#111111"/>
<path d="M85.3218 51.6398L86.1093 51.5948L86.2998 54.9481L85.5123 54.9931L85.3218 51.6398ZM85.6947 51.1414C85.6127 51.1461 85.5357 51.1309 85.4637 51.0958C85.3918 51.0607 85.3334 51.0113 85.2887 50.9478C85.2439 50.8843 85.2193 50.8134 85.2149 50.7352C85.2106 50.659 85.227 50.5868 85.2643 50.5186C85.3016 50.4504 85.354 50.3958 85.4216 50.3547C85.4891 50.3116 85.5639 50.2877 85.6459 50.283C85.728 50.2784 85.8049 50.2936 85.8769 50.3287C85.9487 50.3618 86.007 50.4101 86.0518 50.4736C86.0965 50.5371 86.1211 50.607 86.1254 50.6831C86.1298 50.7613 86.1134 50.8346 86.0762 50.9028C86.0389 50.971 85.9865 51.0267 85.919 51.0698C85.8515 51.1129 85.7767 51.1368 85.6947 51.1414Z" fill="#111111"/>
<path d="M83.9448 51.7225L84.7262 51.6778L84.9167 55.0311L84.1599 55.0743L84.1263 54.4815L84.0894 54.4836C84.0204 54.6817 83.902 54.8433 83.7342 54.9686C83.5685 55.0937 83.3647 55.1632 83.1227 55.177C82.9012 55.1897 82.7036 55.1514 82.5298 55.0623C82.3561 54.9731 82.2166 54.8365 82.1115 54.6525C82.0064 54.4685 81.9464 54.2448 81.9314 53.9813L81.8101 51.8445L82.5975 51.7995L82.7119 53.8127C82.7198 53.9527 82.7525 54.0747 82.8098 54.1789C82.8691 54.2808 82.9476 54.3579 83.0452 54.4101C83.1447 54.4602 83.2581 54.4816 83.3852 54.4743C83.5041 54.4675 83.6163 54.4322 83.7217 54.3683C83.8291 54.3023 83.9133 54.2097 83.9744 54.0906C84.0376 53.9713 84.0646 53.8304 84.0554 53.6677L83.9448 51.7225Z" fill="#111111"/>
<path d="M76.522 52.145L77.2725 52.102L77.3048 52.6702L77.3479 52.6677C77.4067 52.4723 77.5131 52.3165 77.667 52.2003C77.8207 52.0821 78.0083 52.0166 78.2298 52.0039C78.4534 51.9912 78.6472 52.0348 78.8113 52.1349C78.9753 52.2329 79.0945 52.3758 79.1689 52.5636L79.2058 52.5615C79.269 52.3699 79.3857 52.2146 79.5559 52.0954C79.7279 51.974 79.934 51.9065 80.1739 51.8928C80.381 51.8809 80.565 51.9148 80.7259 51.9944C80.8887 52.0718 81.0181 52.1945 81.1141 52.3625C81.2099 52.5284 81.2647 52.7329 81.2785 52.9758L81.4066 55.2298L80.6252 55.2745L80.5042 53.144C80.4929 52.9443 80.431 52.7971 80.3186 52.7023C80.2082 52.6053 80.0679 52.5617 79.8977 52.5715C79.709 52.5823 79.5637 52.6494 79.4616 52.773C79.3596 52.8965 79.3141 53.0551 79.3251 53.2486L79.444 55.3421L78.6812 55.3857L78.5584 53.2243C78.5465 53.0515 78.4853 52.9156 78.3747 52.8166C78.2662 52.7174 78.1279 52.6727 77.9598 52.6823C77.847 52.6888 77.7451 52.7245 77.6542 52.7896C77.5652 52.8525 77.496 52.9391 77.4467 53.0493C77.3973 53.1575 77.3765 53.2795 77.3842 53.4153L77.5 55.4532L76.7125 55.4983L76.522 52.145Z" fill="#111111"/>
<path d="M73.1991 54.7482C73.1796 54.4045 73.2813 54.1488 73.5042 53.9811C73.7292 53.8134 74.0226 53.7078 74.3843 53.6644C74.5701 53.6393 74.8553 53.6075 75.2399 53.569L75.2215 53.3005C75.2121 53.1338 75.1525 53.0081 75.0427 52.9235C74.9349 52.8368 74.7836 52.799 74.5888 52.8101C74.4186 52.8198 74.2812 52.8638 74.1766 52.9421C74.072 53.0204 74.0078 53.1221 73.9841 53.2474L73.2274 53.2907C73.235 53.0982 73.2929 52.9234 73.4013 52.7665C73.5095 52.6075 73.6637 52.4789 73.8639 52.3807C74.064 52.2825 74.3005 52.2256 74.5732 52.21C74.807 52.1966 75.0286 52.2212 75.2378 52.2835C75.449 52.3437 75.6252 52.4565 75.7663 52.6219C75.9093 52.7852 75.9887 53.0068 76.0046 53.2867L76.132 55.5284L75.3814 55.5714L75.3551 55.1082L75.3305 55.1096C75.2573 55.2707 75.1415 55.4054 74.9831 55.5136C74.8247 55.6218 74.6224 55.6829 74.3763 55.697C74.161 55.7093 73.966 55.6812 73.7913 55.6127C73.6187 55.5441 73.48 55.4374 73.3751 55.2927C73.27 55.1459 73.2114 54.9644 73.1991 54.7482ZM73.9554 54.6988C73.9634 54.8388 74.0208 54.9439 74.1277 55.0142C74.2366 55.0844 74.3761 55.1146 74.5464 55.1049C74.7002 55.0961 74.8348 55.0574 74.9502 54.9889C75.0656 54.9203 75.1522 54.8317 75.2098 54.7231C75.2693 54.6123 75.2955 54.4941 75.2884 54.3685L75.2697 54.0939C75.1674 54.1039 75.0458 54.1181 74.9049 54.1365C74.7659 54.1527 74.6433 54.1679 74.5371 54.1823C74.3474 54.2096 74.2004 54.2666 74.0963 54.3531C73.9942 54.4395 73.9473 54.5547 73.9554 54.6988Z" fill="#111111"/>
<path d="M70.6749 55.8392L69.8874 55.884L69.6963 52.5308L70.4469 52.488L70.4793 53.0561L70.5223 53.0537C70.5893 52.8578 70.7039 52.7015 70.8659 52.5849C71.0299 52.4661 71.2339 52.3998 71.478 52.3859C71.7097 52.3726 71.9145 52.4105 72.0924 52.4995C72.2703 52.5885 72.4108 52.7251 72.5139 52.9092C72.619 53.0932 72.6791 53.3169 72.6941 53.5804L72.8159 55.7171L72.0346 55.7617L71.9198 53.7485C71.9069 53.522 71.8395 53.3493 71.7175 53.2303C71.5953 53.1092 71.4318 53.0555 71.2268 53.0693C71.0873 53.0752 70.9659 53.112 70.8628 53.1799C70.7596 53.2456 70.6816 53.3389 70.6288 53.4596C70.5759 53.5783 70.554 53.7169 70.563 53.8754L70.6749 55.8392Z" fill="#111111"/>
</svg>
