<svg width="81" height="80" viewBox="0 0 81 80" fill="none" xmlns="http://www.w3.org/2000/svg">
<circle cx="40.5" cy="40" r="40" fill="#E6F7EA"/>
<path d="M41.1771 10.2336C36.5974 11.347 34.987 22.945 34.7543 28.6048C34.6455 30.414 33.2185 30.6924 26.7957 35.0069C21.6574 38.4584 24.1893 42.7543 26.0975 44.4708C22.4207 45.3987 15.3463 48.5347 16.4633 53.6564C17.5803 58.7781 22.793 59.6873 25.2597 59.5018C25.0736 59.7801 25.4831 61.3111 28.6108 65.208C31.7384 69.1049 37.1745 66.8317 39.5016 65.208C50.1132 75.1173 53.1384 68.2234 53.3246 63.5379C55.6052 64.5121 60.4735 64.7626 61.7022 57.9708C62.9309 51.1791 55.2328 43.543 51.2302 40.5739C61.9814 43.3574 54.302 32.2233 50.3925 27.9089C46.4829 23.5944 46.9018 8.84184 41.1771 10.2336Z" fill="#00BE4F"/>
<path fill-rule="evenodd" clip-rule="evenodd" d="M42.8823 10.9351C42.4084 10.6917 41.8649 10.6186 41.2173 10.7765C40.1918 11.0265 39.2948 11.8765 38.5211 13.1709C37.7507 14.46 37.1286 16.1477 36.6357 17.9918C35.6506 21.6781 35.1972 25.9316 35.0828 28.7225L35.0825 28.7277C35.0531 29.2178 34.9319 29.6235 34.6501 30.0178C34.3761 30.401 33.9607 30.7587 33.3755 31.1765C32.8262 31.5686 32.1058 32.0283 31.1772 32.621C31.1136 32.6615 31.0491 32.7027 30.9836 32.7445C29.9581 33.3992 28.6826 34.2165 27.0993 35.2833C25.8609 36.1177 25.1022 36.9911 24.678 37.8459C24.2547 38.699 24.1568 39.5488 24.2634 40.3515C24.4783 41.9689 25.5269 43.4029 26.4403 44.2269C26.5158 44.2951 26.5477 44.3993 26.5232 44.4981C26.4987 44.5968 26.4218 44.6741 26.3232 44.699C24.5293 45.1531 21.9106 46.1476 19.885 47.6458C17.8546 49.1476 16.4907 51.0963 17.0078 53.4744C17.5384 55.9146 19.0353 57.346 20.7032 58.1526C22.381 58.964 24.2271 59.1388 25.4071 59.0497C25.5123 59.0418 25.6128 59.0945 25.666 59.1856C25.7157 59.2705 25.7161 59.375 25.6683 59.4599C25.6675 59.4654 25.6665 59.4752 25.6664 59.4904C25.6661 59.5353 25.674 59.6081 25.7006 59.7147C25.7539 59.9275 25.8736 60.2426 26.1004 60.6803C26.5532 61.5543 27.4146 62.883 28.9536 64.8063C30.4195 66.6382 32.4234 67.0294 34.3759 66.7567C36.3375 66.4828 38.2143 65.5395 39.3386 64.7527C39.4455 64.6779 39.5902 64.6882 39.6854 64.7773C42.2929 67.2196 44.4148 68.6073 46.125 69.2573C47.8295 69.905 49.1074 69.8146 50.0611 69.3284C51.0223 68.8383 51.7047 67.9207 52.1598 66.8166C52.6144 65.7138 52.8313 64.4499 52.8763 63.3129C52.8799 63.2222 52.9279 63.1391 53.0047 63.0906C53.0815 63.0422 53.1772 63.0346 53.2606 63.0703C54.3421 63.5337 56.0287 63.8187 57.5765 63.1955C59.1031 62.581 60.5618 61.0551 61.1563 57.7589C61.7428 54.5076 60.2007 51.0132 57.9698 47.9305C55.7458 44.8572 52.8776 42.2495 50.9183 40.7918C50.8124 40.713 50.7772 40.5703 50.8342 40.4513C50.8913 40.3323 51.0246 40.2704 51.1524 40.3036C52.4654 40.6445 53.4775 40.7669 54.2393 40.7231C55.0008 40.6794 55.4865 40.4716 55.7835 40.1783C56.0779 39.8875 56.2252 39.4744 56.2309 38.9362C56.2366 38.3946 56.0977 37.7471 55.8404 37.0261C54.8073 34.1307 51.9751 30.3367 50.0507 28.2065C49.0406 27.0884 48.3284 25.3203 47.735 23.3681C47.3655 22.1524 47.0346 20.8368 46.7076 19.537C46.5095 18.7492 46.3127 17.9673 46.1098 17.2169C45.5663 15.2071 44.9763 13.4156 44.1865 12.2135C43.7936 11.6155 43.363 11.182 42.8823 10.9351ZM48.2629 23.2077C48.8549 25.1554 49.5392 26.8175 50.4601 27.8368C52.3978 29.9816 55.2897 33.8409 56.3601 36.8407C56.6287 37.5935 56.7893 38.3099 56.7826 38.9421C56.7759 39.5776 56.5989 40.1482 56.1713 40.5706C55.7463 40.9904 55.1124 41.2255 54.271 41.2738C53.6986 41.3067 53.0185 41.2542 52.2193 41.1074C54.1158 42.6522 56.4989 44.9569 58.4168 47.6072C60.6734 50.7253 62.3267 54.3787 61.6993 57.8568C61.0801 61.2901 59.5273 63.0048 57.7826 63.7072C56.2281 64.333 54.5751 64.1326 53.4064 63.7189C53.3295 64.8016 53.1032 65.9756 52.67 67.0268C52.1854 68.2023 51.431 69.2492 50.3118 69.8198C49.185 70.3942 47.7388 70.4607 45.929 69.7729C44.1619 69.1013 42.0318 67.7058 39.4702 65.3309C38.2815 66.1249 36.4177 67.0285 34.4522 67.303C32.3725 67.5934 30.1466 67.1802 28.5228 65.1509C26.9721 63.213 26.0864 61.8527 25.6105 60.934C25.3729 60.4754 25.2329 60.1182 25.1654 59.8484C25.1448 59.7662 25.1302 59.6891 25.1221 59.6174C23.87 59.6595 22.0971 59.4394 20.4629 58.6491C18.671 57.7825 17.0415 56.2261 16.4686 53.5916C15.8823 50.895 17.4609 48.7527 19.5569 47.2024C21.4837 45.7772 23.9074 44.8022 25.714 44.2914C24.8364 43.3841 23.9258 41.9994 23.7165 40.4241C23.5967 39.5226 23.7074 38.5608 24.1838 37.6008C24.6593 36.6425 25.4914 35.7014 26.7909 34.8259C28.38 33.7552 29.6601 32.935 30.6867 32.2796C30.7499 32.2393 30.812 32.1996 30.8732 32.1606C31.8094 31.5631 32.5178 31.111 33.0548 30.7276C33.6286 30.318 33.9822 30.0034 34.2012 29.6971C34.4117 29.4025 34.507 29.1021 34.5316 28.6972C34.6473 25.8802 35.1043 21.5855 36.1027 17.8494C36.6018 15.9817 37.24 14.2391 38.0475 12.888C38.8517 11.5423 39.85 10.5421 41.0866 10.2406C41.8528 10.0537 42.5335 10.1358 43.1345 10.4445C43.7287 10.7497 44.2237 11.2654 44.6476 11.9106C45.4915 13.195 46.0997 15.0664 46.6424 17.0729C46.8511 17.8445 47.0499 18.6351 47.2487 19.4259C47.5724 20.7134 47.8962 22.0012 48.2629 23.2077Z" fill="#111111"/>
<path d="M39.2692 30.2999C41.0315 29.7853 40.3141 30.6564 39.7351 31.1563C39.7705 32.5566 40.3136 35.6691 42.2028 36.9173C44.092 38.1654 44.7528 33.7407 44.847 31.3724C44.5826 31.2943 43.7673 30.9025 44.0776 30.57C44.288 30.3447 45.1054 30.011 45.9379 30.1131C46.7717 30.2153 45.8328 31.2801 45.376 31.5286C45.6365 32.7557 45.7712 35.6422 44.2254 37.3709C42.2932 39.5318 41.0188 38.0052 40.2193 36.3314C39.5797 34.9923 39.1111 32.4577 38.9568 31.3578C38.3266 31.2196 37.507 30.8145 39.2692 30.2999Z" fill="#111111"/>
<path d="M36.3992 25.1915C36.4997 26.9931 37.7217 28.3899 39.1287 28.3115C40.5357 28.233 41.5949 26.709 41.4944 24.9074C41.3939 23.1058 40.1719 21.709 38.7649 21.7874C37.3579 21.8659 36.2987 23.39 36.3992 25.1915Z" fill="white"/>
<path fill-rule="evenodd" clip-rule="evenodd" d="M39.0994 27.7859C38.0962 27.8418 37.0162 26.8019 36.9248 25.1622C36.8333 23.5226 37.791 22.369 38.7942 22.313C39.7974 22.2571 40.8774 23.2971 40.9688 24.9367C41.0602 26.5764 40.1026 27.73 39.0994 27.7859ZM39.1287 28.3115C37.7217 28.3899 36.4997 26.9931 36.3992 25.1915C36.2987 23.39 37.3579 21.8659 38.7649 21.7874C40.1719 21.709 41.3939 23.1058 41.4944 24.9074C41.5949 26.709 40.5357 28.233 39.1287 28.3115Z" fill="#111111"/>
<path d="M37.0897 26.0267C37.15 27.2883 38.0755 28.2691 39.1569 28.2175C40.2383 28.1658 41.0661 27.1011 41.0058 25.8395C40.9455 24.5779 40.02 23.5971 38.9386 23.6487C37.8572 23.7004 37.0294 24.7651 37.0897 26.0267Z" fill="#111111"/>
<path d="M42.0763 24.9139C42.062 26.7182 43.1229 28.1895 44.4461 28.2C45.7692 28.2105 46.8535 26.7564 46.8679 24.9521C46.8823 23.1478 45.8213 21.6766 44.4981 21.666C43.175 21.6555 42.0907 23.1096 42.0763 24.9139Z" fill="white"/>
<path fill-rule="evenodd" clip-rule="evenodd" d="M43.1866 26.9217C42.8298 26.427 42.5963 25.7201 42.6027 24.9181C42.6091 24.1161 42.8538 23.4131 43.2184 22.9241C43.5833 22.4348 44.0403 22.1888 44.4939 22.1924C44.9475 22.196 45.4006 22.4493 45.7576 22.9443C46.1144 23.439 46.3479 24.1459 46.3415 24.9479C46.3351 25.7499 46.0904 26.453 45.7258 26.942C45.361 27.4312 44.9039 27.6772 44.4503 27.6736C43.9967 27.67 43.5436 27.4168 43.1866 26.9217ZM44.4461 28.2C43.1229 28.1895 42.062 26.7182 42.0763 24.9139C42.0907 23.1096 43.175 21.6555 44.4981 21.666C45.8213 21.6766 46.8823 23.1478 46.8679 24.9521C46.8535 26.7564 45.7692 28.2105 44.4461 28.2Z" fill="#111111"/>
<path d="M42.5616 25.437C42.4007 26.6898 43.1407 27.8172 44.2145 27.9551C45.2883 28.093 46.2893 27.1893 46.4502 25.9365C46.6111 24.6838 45.8711 23.5564 44.7973 23.4185C43.7235 23.2805 42.7226 24.1843 42.5616 25.437Z" fill="#111111"/>
</svg>
