<svg width="81" height="80" viewBox="0 0 81 80" fill="none" xmlns="http://www.w3.org/2000/svg">
<circle cx="40.5" cy="40" r="40" fill="#FFEEF1"/>
<path d="M32.0217 22.2271C32.7736 30.076 37.946 35.2335 40.4383 36.8312C50.1655 29.4354 50.5016 22.8727 49.7439 18.1522C49.1378 14.3759 43.7007 13.1423 41.0579 12.9976C37.7326 12.8037 31.2699 14.3782 32.0217 22.2271Z" fill="#FFA6A6"/>
<path fill-rule="evenodd" clip-rule="evenodd" d="M35.1373 14.7774C33.27 16.079 31.8728 18.355 32.2417 22.2059C32.9726 29.8368 37.9314 34.8972 40.4285 36.5607C45.1866 32.9164 47.6398 29.4906 48.8167 26.4095C50.0033 23.3029 49.9011 20.5247 49.5259 18.1871C49.2403 16.408 47.8131 15.201 46.0737 14.4142C44.3394 13.6297 42.3477 13.2893 41.0459 13.218L41.0451 13.218C39.4152 13.1229 37.022 13.4635 35.1373 14.7774ZM41.0704 12.7769C39.375 12.6782 36.8744 13.0279 34.8846 14.415C32.8772 15.8143 31.419 18.25 31.8019 22.248C32.5618 30.1811 37.7856 35.3929 40.3192 37.017L40.4491 37.1003L40.572 37.0069C45.4598 33.2906 48.006 29.7698 49.2294 26.5671C50.4531 23.3633 50.3446 20.5 49.9621 18.1171C49.6415 16.1198 48.0471 14.8219 46.2557 14.0117C44.4594 13.1992 42.4113 12.8504 41.0704 12.7769Z" fill="black"/>
<path d="M29.8934 24.0427C36.2595 28.6949 38.0551 35.7752 38.1571 38.7338C26.8327 43.3246 21.0175 40.2644 17.3447 37.2038C14.4065 34.7552 16.1205 29.45 17.3447 27.1034C18.875 24.1448 23.5272 19.3906 29.8934 24.0427Z" fill="#FFA6A6"/>
<path fill-rule="evenodd" clip-rule="evenodd" d="M21.8956 22.9201C23.968 21.9785 26.6383 21.9386 29.7617 24.221C35.951 28.744 37.7722 35.591 37.9283 38.5874C32.3661 40.8194 28.168 41.1807 24.9177 40.6204C21.6406 40.0554 19.3035 38.5497 17.4848 37.034C16.1005 35.8805 15.7909 34.0371 16.002 32.1397C16.2124 30.2479 16.9361 28.3614 17.5392 27.2055L17.5396 27.2048C18.2897 25.7546 19.8039 23.8704 21.8956 22.9201ZM17.1474 27.0015C17.9277 25.4931 19.5046 23.5212 21.7129 22.5179C23.9408 21.5057 26.7796 21.4947 30.0223 23.8644C36.4568 28.5665 38.2728 35.7185 38.3765 38.7262L38.3818 38.8805L38.2387 38.9385C32.5484 41.2453 28.2212 41.6381 24.8427 41.0557C21.4629 40.4731 19.056 38.9184 17.202 37.3734C15.648 36.0784 15.3455 34.0449 15.5629 32.0909C15.7809 30.1314 16.5262 28.1922 17.1474 27.0015Z" fill="black"/>
<path d="M32.0217 57.9004C32.7736 50.0515 37.946 44.8939 40.4383 43.2963C50.1655 50.6921 50.5016 57.2547 49.7439 61.9752C49.1378 65.7516 43.7007 66.9851 41.0579 67.1299C37.7326 67.3237 31.2699 65.7493 32.0217 57.9004Z" fill="#FFA6A6"/>
<path fill-rule="evenodd" clip-rule="evenodd" d="M35.1373 65.3498C33.27 64.0482 31.8728 61.7722 32.2417 57.9213C32.9726 50.2904 37.9314 45.23 40.4285 43.5665C45.1866 47.2108 47.6398 50.6366 48.8167 53.7177C50.0033 56.8243 49.9011 59.6025 49.5259 61.9401C49.2403 63.7192 47.8131 64.9262 46.0737 65.713C44.3394 66.4975 42.3477 66.8379 41.0459 66.9092L41.0451 66.9092C39.4152 67.0043 37.022 66.6637 35.1373 65.3498ZM41.0704 67.3503C39.375 67.449 36.8744 67.0993 34.8846 65.7122C32.8772 64.3129 31.419 61.8772 31.8019 57.8792C32.5618 49.9461 37.7856 44.7343 40.3192 43.1102L40.4491 43.0269L40.572 43.1203C45.4598 46.8366 48.006 50.3574 49.2294 53.5601C50.4531 56.7639 50.3446 59.6272 49.9621 62.0101C49.6415 64.0074 48.0471 65.3053 46.2557 66.1155C44.4594 66.928 42.4113 67.2768 41.0704 67.3503Z" fill="black"/>
<path d="M21.6794 40.6374C29.2608 38.4713 35.951 41.4033 38.3483 43.1401C35.0152 54.8962 29.0284 57.6055 24.3572 58.6238C20.6203 59.4384 17.4865 54.8272 16.3868 52.4198C14.992 49.3949 14.0979 42.8035 21.6794 40.6374Z" fill="#FFA6A6"/>
<path fill-rule="evenodd" clip-rule="evenodd" d="M15.882 46.2576C16.4119 44.0439 18.0206 41.9122 21.7402 40.8494C29.1111 38.7434 35.6328 41.512 38.0933 43.2292C36.4381 48.9895 34.1446 52.5242 31.706 54.7449C29.2472 56.984 26.6235 57.9033 24.3104 58.4076C22.5498 58.7914 20.905 57.9035 19.5374 56.5715C18.1738 55.2434 17.1296 53.5135 16.5879 52.3276L16.5876 52.3269C15.9039 50.8442 15.3471 48.492 15.882 46.2576ZM16.1862 52.5115C15.4752 50.9693 14.8877 48.5136 15.4524 46.1548C16.0221 43.775 17.7571 41.528 21.6189 40.4247C29.2817 38.2353 36.041 41.1953 38.4781 42.9608L38.6031 43.0514L38.561 43.2C36.8862 49.1072 34.5383 52.7632 32.0034 55.0715C29.4677 57.3807 26.7625 58.3252 24.4045 58.8392C22.428 59.2701 20.6375 58.2597 19.2291 56.8879C17.8168 55.5123 16.7443 53.733 16.1862 52.5115Z" fill="black"/>
<path d="M51.8371 24.0427C45.471 28.6949 43.6754 35.7752 43.5734 38.7338C54.8978 43.3246 60.713 40.2644 64.3857 37.2038C67.324 34.7552 65.61 29.45 64.3857 27.1034C62.8554 24.1448 58.2032 19.3906 51.8371 24.0427Z" fill="#FFA6A6"/>
<path fill-rule="evenodd" clip-rule="evenodd" d="M59.8339 22.9201C57.7615 21.9785 55.0912 21.9386 51.9678 24.221C45.7785 28.744 43.9573 35.591 43.8012 38.5874C49.3634 40.8194 53.5615 41.1807 56.8117 40.6204C60.0889 40.0554 62.426 38.5497 64.2447 37.034C65.6289 35.8805 65.9386 34.0371 65.7275 32.1397C65.517 30.2479 64.7934 28.3614 64.1903 27.2055L64.1899 27.2048C63.4398 25.7546 61.9256 23.8704 59.8339 22.9201ZM64.5821 27.0015C63.8018 25.4931 62.2249 23.5212 60.0166 22.5179C57.7887 21.5057 54.9499 21.4947 51.7071 23.8644C45.2727 28.5665 43.4567 35.7185 43.353 38.7262L43.3477 38.8805L43.4907 38.9385C49.1811 41.2453 53.5082 41.6381 56.8868 41.0557C60.2666 40.4731 62.6735 38.9184 64.5275 37.3734C66.0815 36.0784 66.384 34.0449 66.1666 32.0909C65.9486 30.1314 65.2033 28.1922 64.5821 27.0015Z" fill="black"/>
<path d="M59.9475 40.6374C52.366 38.4713 45.6759 41.4033 43.2785 43.1401C46.6117 54.8962 52.5984 57.6055 57.2696 58.6238C61.0066 59.4384 64.1403 54.8272 65.24 52.4198C66.6348 49.3949 67.5289 42.8035 59.9475 40.6374Z" fill="#FFA6A6"/>
<path fill-rule="evenodd" clip-rule="evenodd" d="M65.7448 46.2576C65.2149 44.0439 63.6063 41.9122 59.8866 40.8494C52.5157 38.7434 45.994 41.512 43.5336 43.2292C45.1887 48.9895 47.4823 52.5242 49.9208 54.7449C52.3796 56.984 55.0033 57.9033 57.3165 58.4076C59.077 58.7914 60.7219 57.9035 62.0895 56.5715C63.4531 55.2434 64.4972 53.5135 65.039 52.3276L65.0393 52.3269C65.7229 50.8442 66.2797 48.492 65.7448 46.2576ZM65.4406 52.5115C66.1516 50.9693 66.7391 48.5136 66.1744 46.1548C65.6048 43.775 63.8697 41.528 60.008 40.4247C52.3452 38.2353 45.5858 41.1953 43.1487 42.9608L43.0237 43.0514L43.0658 43.2C44.7407 49.1072 47.0886 52.7632 49.6234 55.0715C52.1591 57.3807 54.8644 58.3252 57.2224 58.8392C59.1988 59.2701 60.9893 58.2597 62.3977 56.8879C63.81 55.5123 64.8826 53.733 65.4406 52.5115Z" fill="black"/>
<path d="M51.726 40.5707C51.726 46.825 46.6559 51.8951 40.4017 51.8951C34.1474 51.8951 29.0773 46.825 29.0773 40.5707C29.0773 34.3164 34.1474 29.2463 40.4017 29.2463C46.6559 29.2463 51.726 34.3164 51.726 40.5707Z" fill="#FFFDE7"/>
<path fill-rule="evenodd" clip-rule="evenodd" d="M40.4017 51.4534C46.412 51.4534 51.2843 46.581 51.2843 40.5707C51.2843 34.5604 46.412 29.6881 40.4017 29.6881C34.3913 29.6881 29.519 34.5604 29.519 40.5707C29.519 46.581 34.3913 51.4534 40.4017 51.4534ZM40.4017 51.8951C46.6559 51.8951 51.726 46.825 51.726 40.5707C51.726 34.3164 46.6559 29.2463 40.4017 29.2463C34.1474 29.2463 29.0773 34.3164 29.0773 40.5707C29.0773 46.825 34.1474 51.8951 40.4017 51.8951Z" fill="black"/>
<path d="M34.9725 38.5298C35.0814 40.4836 36.4067 41.9985 37.9326 41.9134C39.4585 41.8283 40.6071 40.1755 40.4982 38.2217C40.3892 36.2679 39.0639 34.7531 37.538 34.8381C36.0122 34.9232 34.8635 36.5761 34.9725 38.5298Z" fill="white"/>
<path fill-rule="evenodd" clip-rule="evenodd" d="M37.908 41.4723C36.721 41.5385 35.5149 40.3232 35.4135 38.5052C35.3122 36.6873 36.3757 35.3454 37.5626 35.2792C38.7496 35.213 39.9557 36.4284 40.0571 38.2463C40.1585 40.0642 39.095 41.4062 37.908 41.4723ZM37.9326 41.9134C36.4067 41.9985 35.0814 40.4836 34.9725 38.5298C34.8635 36.5761 36.0122 34.9232 37.538 34.8381C39.0639 34.7531 40.3892 36.2679 40.4982 38.2217C40.6071 40.1755 39.4585 41.8283 37.9326 41.9134Z" fill="black"/>
<path d="M35.7219 39.4359C35.7873 40.8041 36.791 41.8679 37.9638 41.8118C39.1365 41.7558 40.0342 40.6012 39.9689 39.233C39.9035 37.8648 38.8998 36.801 37.727 36.8571C36.5543 36.9131 35.6566 38.0677 35.7219 39.4359Z" fill="#111111"/>
<path d="M39.9958 38.2292C39.9802 40.1859 41.1308 41.7815 42.5658 41.7929C44.0008 41.8043 45.1767 40.2273 45.1922 38.2706C45.2078 36.3138 44.0572 34.7183 42.6222 34.7068C41.1873 34.6954 40.0114 36.2724 39.9958 38.2292Z" fill="white"/>
<path fill-rule="evenodd" clip-rule="evenodd" d="M41.0952 40.4821C40.6906 39.9211 40.4304 39.127 40.4375 38.2327C40.4447 37.3384 40.7174 36.5485 41.1309 35.994C41.5446 35.4392 42.0758 35.1443 42.6187 35.1486C43.1617 35.1529 43.6881 35.4563 44.0929 36.0176C44.4975 36.5786 44.7576 37.3727 44.7505 38.267C44.7434 39.1614 44.4706 39.9512 44.0571 40.5057C43.6435 41.0605 43.1123 41.3555 42.5693 41.3511C42.0264 41.3468 41.4999 41.0434 41.0952 40.4821ZM42.5658 41.7929C41.1308 41.7815 39.9802 40.1859 39.9958 38.2292C40.0114 36.2724 41.1873 34.6954 42.6222 34.7068C44.0572 34.7183 45.2078 36.3138 45.1922 38.2706C45.1767 40.2273 44.0008 41.8043 42.5658 41.7929Z" fill="black"/>
<path d="M40.5246 38.7964C40.3501 40.155 41.1527 41.3777 42.3172 41.5273C43.4817 41.6769 44.5672 40.6968 44.7417 39.3382C44.9163 37.9795 44.1137 36.7569 42.9492 36.6073C41.7847 36.4577 40.6992 37.4378 40.5246 38.7964Z" fill="#111111"/>
<path d="M36.8469 43.4294C38.4174 43.0022 37.7661 43.7645 37.2442 44.199C37.5521 45.4683 37.7104 46.4828 39.3616 47.6253C41.0129 48.7677 42.9383 46.3899 43.0645 44.2854C42.8316 44.2114 42.1164 43.849 42.3973 43.5587C42.5878 43.3619 43.318 43.0793 44.0537 43.1844C44.7906 43.2897 44.0134 44.1421 43.6042 44.3552C43.5234 45.4545 43.06 47.1528 41.8516 48.1922C40.1618 49.6457 38.5357 48.2598 37.5843 46.9139C36.848 45.8725 36.848 45.3977 36.5509 44.3647C35.661 44.2113 35.2763 43.8567 36.8469 43.4294Z" fill="#111111"/>
</svg>
