<svg width="165" height="177" viewBox="0 0 165 177" fill="none" xmlns="http://www.w3.org/2000/svg">
  <path d="M140.933 49.4623C148.5 69.5 146 92.5002 116.064 102.755C114.665 100.949 112.424 97.1828 114.646 96.5664C141.536 81.5 140.933 70.5 135.625 49.7381C138.045 48.1094 140.172 48.8756 140.933 49.4623Z" fill="#6BC03E" stroke="black"/>
  <path d="M135.421 53.0898C132.284 52.2931 124.465 40.8242 127.431 38.3424C128.109 37.7757 129.265 39.1405 129.983 39.9981L142.421 46.5018L144.675 42.5751C145.43 48.3568 142.377 51.7539 141.401 52.6018C140.11 53.6732 137.668 53.6609 135.421 53.0898Z" fill="#FFFDE7"/>
  <path d="M129.983 39.9981C129.265 39.1405 128.109 37.7757 127.431 38.3424C124.465 40.8242 132.284 52.2931 135.421 53.0898C137.668 53.6609 140.11 53.6732 141.401 52.6018C142.377 51.7539 145.43 48.3568 144.675 42.5751L142.421 46.5018L129.983 39.9981ZM129.983 39.9981C131.112 41.5801 133.37 44.7441 133.37 44.7441" stroke="black"/>
  <path d="M111.603 28.9638L111.318 29.408L111.777 29.6685C113.137 30.4406 118.704 33.9628 129.983 41.8222C137.032 46.734 140.843 48.5348 143.082 48.9894C144.224 49.2214 144.994 49.1113 145.58 48.8534C145.865 48.728 146.088 48.5755 146.267 48.445C146.313 48.4111 146.355 48.3805 146.392 48.3526C146.512 48.2639 146.593 48.2036 146.681 48.1556C146.835 48.072 147.006 47.9087 147.161 47.7496C147.332 47.5728 147.54 47.3398 147.778 47.0621C148.253 46.5055 148.86 45.7494 149.554 44.8588C150.943 43.0763 152.689 40.739 154.432 38.3452C156.175 35.9511 157.916 33.4972 159.296 31.481C160.663 29.4846 161.707 27.8712 162.021 27.1865L162.094 27.0277L162.052 26.8582C161.86 26.0813 161.188 25.1566 160.274 24.1741C159.341 23.1699 158.085 22.0337 156.619 20.8306C153.687 18.4228 149.879 15.7161 146.041 13.2164C142.202 10.7164 138.321 8.41542 135.24 6.82109C133.701 6.02489 132.349 5.39848 131.295 5.01243C130.77 4.81996 130.303 4.681 129.914 4.61383C129.72 4.58021 129.532 4.56218 129.359 4.56902C129.19 4.57569 129.003 4.60719 128.833 4.69948C128.653 4.79799 128.46 4.95697 128.267 5.13899C128.068 5.32683 127.844 5.56337 127.6 5.8395C127.111 6.39205 126.523 7.12343 125.865 7.98592C124.547 9.71205 122.928 11.987 121.222 14.4602C117.81 19.4079 114.036 25.1685 111.603 28.9638Z" fill="#E4D5C0" stroke="black"/>
  <path fill-rule="evenodd" clip-rule="evenodd" d="M127.211 16.2866C127.643 16.5863 127.751 17.1796 127.451 17.6117L124.16 22.3585C123.861 22.7907 123.268 22.898 122.835 22.5983C122.403 22.2986 122.296 21.7054 122.595 21.2732L125.886 16.5264C126.186 16.0943 126.779 15.9869 127.211 16.2866ZM135.959 14.0549C136.399 14.3428 136.522 14.933 136.234 15.373L125.214 32.223C124.926 32.6631 124.336 32.7864 123.896 32.4984C123.456 32.2105 123.332 31.6204 123.62 31.1803L134.641 14.3303C134.928 13.8903 135.519 13.767 135.959 14.0549ZM138.966 15.3767C139.402 15.671 139.517 16.2629 139.223 16.6987L127.619 33.8891C127.325 34.325 126.733 34.4397 126.297 34.1454C125.861 33.8511 125.746 33.2592 126.04 32.8234L137.644 15.6329C137.938 15.1971 138.53 15.0824 138.966 15.3767ZM141.233 17.4922C141.667 17.7888 141.779 18.3813 141.483 18.8156L130.17 35.3843C129.873 35.8186 129.281 35.9302 128.846 35.6336C128.412 35.3369 128.3 34.7445 128.597 34.3102L139.91 17.7414C140.206 17.3072 140.799 17.1956 141.233 17.4922ZM143.917 18.5118C144.353 18.8054 144.469 19.3971 144.175 19.8334L132.717 36.8635C132.424 37.2998 131.832 37.4154 131.396 37.1217C130.959 36.8281 130.844 36.2364 131.137 35.8001L142.595 18.77C142.889 18.3338 143.48 18.2182 143.917 18.5118ZM140.65 28.8287C141.094 29.1115 141.224 29.7002 140.941 30.1435L135.436 38.7801C135.153 39.2235 134.564 39.3537 134.121 39.0709C133.677 38.7881 133.547 38.1994 133.83 37.7561L139.335 29.1195C139.618 28.6761 140.207 28.5459 140.65 28.8287ZM153.9 26.6412C154.344 26.9231 154.476 27.5115 154.194 27.9555L149.412 35.4865C149.131 35.9304 148.542 36.0617 148.098 35.7797C147.654 35.4978 147.523 34.9094 147.805 34.4654L152.586 26.9344C152.868 26.4905 153.456 26.3592 153.9 26.6412Z" fill="#111111"/>
  <path d="M17.6109 131.704C16.5391 131.33 15.4855 131.763 15.0927 132.027C13.2846 132.899 9.31501 134.879 7.90087 135.829C6.1332 137.015 7.75549 139.688 6.85145 140.124C5.94742 140.56 3.15474 141.238 2.17803 143.603C1.39666 145.495 3.63891 145.016 4.8577 144.54C5.01909 145.799 7.31407 145.398 8.44139 145.041C16.4375 142.523 32.9173 137.296 34.8674 136.534C36.8175 135.772 36.7777 134.796 36.514 134.403C37.3535 134.295 39.0001 133.828 38.8709 132.82C38.7418 131.813 37.2675 131.959 36.5464 132.158C36.7159 131.816 36.2994 131.23 33.2775 131.617C30.2556 132.004 16.209 136.578 9.56351 138.816C9.28108 136.612 12.4693 136.524 15.4558 134.861C18.4422 133.198 18.9508 132.173 17.6109 131.704Z" fill="#1659A5" stroke="black"/>
  <path d="M73.1644 167.264C70.7644 160.464 70.1644 138.764 70.1644 128.764C72.8311 125.931 78.1646 121.364 78.1646 125.764C78.1646 131.264 82.1646 161.764 83.1646 167.764C84.1646 173.764 86.1644 176.264 72.6644 176.264C59.1644 176.264 48.1644 167.264 52.6644 163.264C56.2644 160.064 67.831 164.598 73.1644 167.264Z" fill="#6BC03E" stroke="black"/>
  <path d="M95.735 166.603C94.5412 160.173 90.6886 138.394 89.9678 128.42C87.1038 125.786 81.455 121.616 81.7722 126.004C82.1686 131.49 85.1167 162.765 85.7969 167.823C86.6633 174.265 87.6167 176.214 97.8799 175.472C111.345 174.499 121.667 164.729 116.891 161.064C113.07 158.132 100.862 163.559 95.735 166.603Z" fill="#6BC03E" stroke="black"/>
  <path d="M15.9087 128.22C13.8459 115.327 24.5038 104.798 30.0906 101.146C31.8096 102.65 34.7319 105.916 32.669 106.947C21.3236 111.588 20.2062 122.203 21.0657 126.931C19.0029 128.993 16.7682 128.65 15.9087 128.22Z" fill="#6BC03E" stroke="black"/>
  <path d="M12.686 143.047C10.1075 137.89 13.0379 130.764 14.6199 128.866C15.6942 127.576 18.2609 126.673 21.7106 126.932C26.1408 127.264 33.1409 134.764 31.6408 137.764C30.8126 139.421 29.4969 138.293 28.1592 136.659C29.0606 138.131 29.7151 139.769 29.4462 141.113C29.0594 143.047 25.5784 144.336 23.6445 142.402C22.9999 145.625 19.7768 145.411 18.4875 144.337C18.4875 145.626 15.9092 149.494 12.686 143.047Z" fill="#FFFDE7" stroke="black"/>
  <path d="M61.8436 42.5274C63.4271 59.0586 74.3213 69.9213 79.5705 73.2862C100.058 57.7093 100.766 43.8872 99.1699 33.945C97.8932 25.9913 86.4417 23.3932 80.8755 23.0884C73.8718 22.68 60.2602 25.9961 61.8436 42.5274Z" fill="#FFA6A6" stroke="black"/>
  <path d="M57.3587 46.3516C70.767 56.1499 74.5488 71.0623 74.7637 77.2937C50.9124 86.9627 38.6645 80.5174 30.929 74.0711C24.7405 68.9141 28.3504 57.7402 30.929 52.7979C34.1521 46.5665 43.9504 36.5533 57.3587 46.3516Z" fill="#FFA6A6" stroke="black"/>
  <path d="M61.8436 117.662C63.4271 101.131 74.3213 90.2682 79.5705 86.9032C100.058 102.48 100.766 116.302 99.1699 126.244C97.8932 134.198 86.4417 136.796 80.8755 137.101C73.8718 137.509 60.2602 134.193 61.8436 117.662Z" fill="#FFA6A6" stroke="black"/>
  <path d="M40.0596 81.3029C56.0275 76.7406 70.1181 82.916 75.1675 86.574C68.1472 111.335 55.5379 117.041 45.6996 119.186C37.8289 120.901 31.2287 111.189 28.9124 106.119C25.9748 99.7478 24.0916 85.8652 40.0596 81.3029Z" fill="#FFA6A6" stroke="black"/>
  <path d="M103.578 46.3516C90.1695 56.1499 86.3877 71.0623 86.1729 77.2937C110.024 86.9627 122.272 80.5174 130.008 74.0711C136.196 68.9141 132.586 57.7402 130.008 52.7979C126.784 46.5665 116.986 36.5533 103.578 46.3516Z" fill="#FFA6A6" stroke="black"/>
  <path d="M120.659 81.3029C104.691 76.7406 90.6006 82.916 85.5513 86.574C92.5716 111.335 105.181 117.041 115.019 119.186C122.89 120.901 129.49 111.189 131.806 106.119C134.744 99.7478 136.627 85.8652 120.659 81.3029Z" fill="#FFA6A6" stroke="black"/>
  <circle cx="79.4919" cy="81.1628" r="23.3512" fill="#FFFDE7" stroke="black"/>
  <path d="M68.5558 76.8367C68.7767 80.7979 71.4331 83.6496 74.2633 83.4917C77.0935 83.3339 79.4164 80.2046 79.1955 76.2434C78.9747 72.2822 76.3183 69.4305 73.4881 69.5884C70.6578 69.7462 68.335 72.8754 68.5558 76.8367Z" fill="white" stroke="black"/>
  <ellipse cx="4.4775" cy="5.22374" rx="4.4775" ry="5.22374" transform="matrix(-0.99886 0.0477343 0.0477343 0.99886 78.3311 73.1279)" fill="#111111"/>
  <path d="M79.1375 76.2355C79.1219 78.201 79.6928 79.9651 80.6038 81.2284C81.5151 82.4921 82.7408 83.2269 84.0544 83.2374C85.368 83.2478 86.6052 82.5326 87.5365 81.2837C88.4676 80.035 89.0665 78.2802 89.0822 76.3147C89.0978 74.3492 88.5269 72.5851 87.6158 71.3218C86.7045 70.0581 85.4789 69.3233 84.1653 69.3128C82.8517 69.3024 81.6145 70.0176 80.6832 71.2666C79.7521 72.5153 79.1532 74.27 79.1375 76.2355Z" fill="white" stroke="black"/>
  <ellipse cx="4.4775" cy="5.22374" rx="4.4775" ry="5.22374" transform="matrix(-0.99185 -0.127411 -0.127411 0.99185 89.2998 73.3857)" fill="#111111"/>
  <path d="M72.0075 87.1843C75.3155 86.2844 73.9437 87.89 72.8443 88.8053C73.4928 91.4785 73.8262 93.6153 77.304 96.0215C80.7819 98.4278 84.8372 93.4196 85.1031 88.9873C84.6125 88.8314 83.1062 88.0681 83.6978 87.4566C84.0989 87.0422 85.6369 86.447 87.1864 86.6684C88.7384 86.8901 87.1016 88.6853 86.2398 89.1341C86.0696 91.4494 85.0935 95.0265 82.5484 97.2156C78.9894 100.277 75.5646 97.3579 73.5606 94.5233C72.0099 92.3299 72.0099 91.3299 71.3842 89.1543C69.5098 88.8311 68.6996 88.0842 72.0075 87.1843Z" fill="#111111"/>
  <path d="M127.431 38.3427C128.109 37.776 129.265 39.1409 129.983 39.9984L133.37 44.7445C132.533 46.9704 129.375 44.7732 127.767 43.4053C126.358 40.2917 126.867 38.7389 127.431 38.3427Z" fill="#FFFDE7"/>
  <path d="M127.432 38.3434L127.719 38.7528L127.737 38.7406L127.753 38.7269L127.432 38.3434ZM129.983 39.9991L130.39 39.7086L130.379 39.693L130.367 39.6782L129.983 39.9991ZM132.964 45.0356C133.124 45.2604 133.436 45.3125 133.661 45.1521C133.886 44.9917 133.938 44.6794 133.778 44.4547L132.964 45.0356ZM130.367 39.6782C130.015 39.2572 129.516 38.6627 129.009 38.2495C128.757 38.0445 128.464 37.851 128.154 37.7618C127.82 37.6662 127.438 37.6869 127.111 37.9599L127.753 38.7269C127.765 38.7166 127.781 38.6953 127.878 38.723C127.997 38.7572 128.165 38.8522 128.377 39.0248C128.797 39.3668 129.235 39.8834 129.6 40.3199L130.367 39.6782ZM129.576 40.2895C130.141 41.0805 130.988 42.2671 131.693 43.2558C132.046 43.7502 132.364 44.1952 132.593 44.5165C132.708 44.6772 132.801 44.807 132.865 44.8966C132.896 44.9414 132.921 44.9761 132.938 44.9997C132.947 45.0115 132.953 45.0205 132.957 45.0265C132.959 45.0295 132.961 45.0318 132.962 45.0333C132.963 45.0341 132.963 45.0347 132.963 45.035C132.963 45.0352 132.964 45.0354 132.964 45.0355C132.964 45.0355 132.964 45.0356 132.964 45.0356C132.964 45.0356 132.964 45.0356 133.371 44.7451C133.778 44.4547 133.778 44.4547 133.778 44.4546C133.778 44.4546 133.778 44.4546 133.778 44.4545C133.778 44.4544 133.777 44.4543 133.777 44.4541C133.777 44.4537 133.777 44.4531 133.776 44.4524C133.775 44.4509 133.773 44.4486 133.771 44.4456C133.767 44.4395 133.76 44.4305 133.752 44.4188C133.735 44.3952 133.71 44.3604 133.678 44.3156C133.615 44.226 133.522 44.0962 133.407 43.9356C133.178 43.6142 132.86 43.1693 132.507 42.6749C131.802 41.6861 130.955 40.4996 130.39 39.7086L129.576 40.2895ZM127.145 37.9341C126.983 38.048 126.871 38.2093 126.793 38.3641C126.712 38.5236 126.652 38.7083 126.607 38.9069C126.517 39.3043 126.481 39.8028 126.508 40.3711C126.564 41.5108 126.88 42.9843 127.609 44.5942L128.52 44.1819C127.839 42.6782 127.556 41.3275 127.507 40.3223C127.483 39.8181 127.517 39.4141 127.582 39.1274C127.614 38.984 127.652 38.8814 127.686 38.8142C127.722 38.7425 127.74 38.7379 127.719 38.7528L127.145 37.9341Z" fill="black"/>
  </svg>
  