<svg width="139" height="185" viewBox="0 0 139 185" fill="none" xmlns="http://www.w3.org/2000/svg">
<path d="M130.802 9.75945C128.675 9.05259 110.418 12.1157 101.555 13.7356C101.924 15.2818 103.15 21.776 105.1 35.3833C107.537 52.3923 110.196 51.0669 111.525 51.5087C112.855 51.9505 134.347 49.2997 137.006 48.4161C139.887 43.9982 133.461 10.643 130.802 9.75945Z" fill="#E4D5C0"/>
<path fill-rule="evenodd" clip-rule="evenodd" d="M102.473 14.3478C102.984 16.8156 104.143 23.3063 105.858 35.274C107.076 43.7781 108.336 47.5553 109.38 49.2569C109.884 50.0773 110.305 50.3608 110.604 50.4892C110.766 50.5587 110.926 50.5972 111.111 50.6328C111.139 50.6381 111.17 50.6438 111.204 50.65C111.362 50.6786 111.577 50.7177 111.766 50.7803C111.756 50.7771 111.751 50.7756 111.751 50.775C111.752 50.773 111.823 50.7852 112.015 50.7891C112.223 50.7932 112.505 50.7877 112.858 50.7721C113.561 50.7409 114.507 50.6713 115.624 50.5716C117.856 50.3724 120.742 50.0559 123.673 49.6975C126.603 49.3392 129.573 48.9398 131.974 48.5754C134.1 48.2524 135.715 47.9659 136.482 47.7683C136.672 47.3313 136.831 46.5757 136.909 45.4683C137.001 44.1797 136.977 42.5487 136.859 40.6847C136.623 36.9601 136.011 32.3787 135.225 27.8946C134.438 23.411 133.481 19.0469 132.558 15.7579C132.096 14.1103 131.649 12.7531 131.242 11.7912C131.038 11.3079 130.855 10.9495 130.699 10.7106C130.621 10.5914 130.561 10.5194 130.521 10.4804C130.52 10.4789 130.518 10.4775 130.517 10.4762C130.458 10.4632 130.348 10.4463 130.171 10.4351C129.949 10.4211 129.665 10.4182 129.317 10.4275C128.624 10.446 127.722 10.5121 126.656 10.6178C124.524 10.8291 121.78 11.1942 118.815 11.6335C113.227 12.4616 106.889 13.5482 102.473 14.3478ZM130.495 10.4574C130.495 10.4573 130.496 10.4577 130.497 10.4587C130.496 10.4578 130.495 10.4574 130.495 10.4574ZM130.268 8.90378C130.539 8.92093 130.814 8.95502 131.043 9.03101C131.279 9.10954 131.464 9.25495 131.6 9.38993C131.741 9.52926 131.868 9.69524 131.982 9.86999C132.21 10.2189 132.435 10.672 132.655 11.194C133.098 12.2426 133.566 13.6707 134.035 15.3434C134.976 18.6951 135.943 23.1116 136.736 27.6295C137.528 32.1469 138.149 36.7879 138.39 40.5875C138.511 42.4856 138.538 44.1923 138.439 45.5768C138.344 46.9161 138.125 48.1015 137.647 48.8349L137.501 49.0594L137.247 49.1439C136.505 49.3903 134.586 49.7307 132.204 50.0924C129.785 50.4597 126.8 50.861 123.859 51.2206C120.918 51.5802 118.015 51.8987 115.76 52.0999C114.634 52.2004 113.662 52.2723 112.925 52.305C112.558 52.3213 112.239 52.3283 111.985 52.3232C111.768 52.3188 111.492 52.3061 111.282 52.2364C111.206 52.2111 111.129 52.1969 110.991 52.1715C110.943 52.1626 110.887 52.1523 110.822 52.1397C110.597 52.0967 110.312 52.0334 109.999 51.8993C109.35 51.6204 108.705 51.0893 108.073 50.0597C106.846 48.0613 105.558 43.9967 104.339 35.4917C102.389 21.8825 101.167 15.4209 100.807 13.9135L100.619 13.126L101.415 12.9805C105.852 12.1696 112.641 10.9973 118.591 10.1157C121.564 9.67508 124.337 9.30576 126.504 9.09088C127.587 8.98355 128.53 8.91359 129.276 8.89361C129.649 8.88363 129.984 8.8858 130.268 8.90378Z" fill="#111111"/>
<path d="M45.0638 171.552C44.0473 169.453 44.7457 138.447 45.4145 125.912L42.5628 110.341L56.0876 114.34C56.108 126.712 56.3335 154.343 57.0717 165.887C57.81 177.431 57.3124 180.404 56.9713 180.448C53.4789 185.358 35.8654 181.975 32.3712 181.393C28.5603 180.758 14.208 178.741 18.7189 172.187C22.2142 167.108 46.3344 174.176 45.0638 171.552Z" fill="#FFEB34"/>
<path fill-rule="evenodd" clip-rule="evenodd" d="M41.5826 109.251L56.8528 113.767L56.8538 114.339C56.8742 126.718 57.0999 154.323 57.8363 165.838C58.2061 171.621 58.268 175.278 58.192 177.506C58.1541 178.617 58.0814 179.395 57.9889 179.913C57.9436 180.167 57.8874 180.395 57.8115 180.578C57.7743 180.667 57.7174 180.784 57.6284 180.892C57.5991 180.928 57.5576 180.973 57.5032 181.018C56.4193 182.428 54.4423 183.146 52.2701 183.506C49.9918 183.884 47.2889 183.9 44.6269 183.746C39.9164 183.474 35.2074 182.661 32.9847 182.277C32.6933 182.226 32.4446 182.183 32.2443 182.15C32.0848 182.123 31.9053 182.094 31.7081 182.062C29.5892 181.717 25.4277 181.04 22.1383 179.722C20.3577 179.008 18.6856 178.052 17.7803 176.736C17.3133 176.057 17.0465 175.275 17.0871 174.403C17.1273 173.539 17.4648 172.655 18.0863 171.752C18.6638 170.913 19.6137 170.396 20.6851 170.074C21.7655 169.75 23.0628 169.595 24.4617 169.547C27.2609 169.452 30.6164 169.785 33.7747 170.188C35.0796 170.354 36.3437 170.531 37.5277 170.697C39.2436 170.938 40.7911 171.154 42.0506 171.281C43.0222 171.378 43.7479 171.413 44.2098 171.377C44.1791 171.236 44.1544 171.088 44.1331 170.943C44.0787 170.571 44.0328 170.103 43.9937 169.558C43.9154 168.465 43.8616 167.017 43.828 165.313C43.7608 161.903 43.7738 157.429 43.8394 152.635C43.97 143.094 44.3094 132.256 44.6429 125.962L41.5826 109.251ZM43.5413 111.43L46.1844 125.863L46.1796 125.953C45.8459 132.208 45.5043 143.083 45.3733 152.656C45.3078 157.443 45.295 161.898 45.3618 165.283C45.3952 166.977 45.4483 168.394 45.5238 169.448C45.5616 169.976 45.6043 170.401 45.651 170.72C45.6743 170.88 45.6974 171.004 45.7191 171.096C45.7373 171.173 45.7503 171.209 45.7533 171.217C45.7542 171.22 45.7543 171.219 45.7533 171.217C45.8346 171.385 45.9039 171.613 45.8694 171.872C45.8326 172.148 45.6908 172.365 45.5178 172.515C45.2243 172.77 44.8246 172.85 44.5337 172.886C43.8934 172.965 42.9628 172.914 41.8976 172.807C40.6168 172.679 39.0105 172.454 37.2619 172.209C36.081 172.044 34.8351 171.87 33.5807 171.71C30.4309 171.308 27.1804 170.99 24.5137 171.081C23.1796 171.126 22.029 171.273 21.1264 171.544C20.2146 171.818 19.6462 172.191 19.3498 172.622C18.8436 173.358 18.6429 173.97 18.6194 174.474C18.5964 174.969 18.7406 175.425 19.0442 175.866C19.6804 176.792 20.9887 177.608 22.7088 178.298C25.8286 179.548 29.82 180.199 31.9578 180.548C32.1536 180.58 32.3338 180.609 32.4964 180.636C32.7028 180.671 32.9565 180.715 33.252 180.766C35.4842 181.151 40.1007 181.948 44.7153 182.214C47.33 182.365 49.9036 182.343 52.0193 181.992C54.178 181.634 55.6608 180.966 56.3456 180.004L56.4256 179.891C56.4406 179.835 56.4591 179.754 56.4788 179.643C56.5525 179.231 56.622 178.536 56.6589 177.454C56.7324 175.298 56.6739 171.697 56.3055 165.936C55.5766 154.539 55.3471 127.541 55.3208 114.914L43.5413 111.43Z" fill="#111111"/>
<path d="M76.3574 169.943C77.2053 167.822 74.3545 139.322 72.5959 126.867L74.0855 110.963L60.7391 115.366C61.786 127.681 63.9419 155.189 64.1906 166.702C64.4394 178.215 66.01 179.172 66.01 179.172C69.9691 183.949 84.0923 181.829 87.5906 181.192C91.7158 180.441 106.133 178.95 101.554 172.188C96.9754 165.426 75.2975 172.594 76.3574 169.943Z" fill="#FFEB34"/>
<path fill-rule="evenodd" clip-rule="evenodd" d="M74.9707 109.856L59.9209 114.82L59.9691 115.388C61.0165 127.71 63.1699 155.192 63.4181 166.676C63.543 172.456 63.9999 175.639 64.4442 177.398C64.6666 178.279 64.8922 178.83 65.0888 179.181C65.188 179.357 65.2837 179.491 65.3738 179.591C65.4069 179.629 65.4395 179.662 65.4714 179.691C66.6317 181.052 68.4408 181.857 70.4174 182.33C72.4396 182.814 74.7554 182.979 77.0183 182.972C81.5474 182.96 86.0035 182.262 87.772 181.94C88.1566 181.87 88.6447 181.792 89.208 181.702C91.5575 181.326 95.2164 180.74 98.1434 179.658C99.9472 178.991 101.627 178.084 102.529 176.796C102.994 176.132 103.257 175.361 103.211 174.488C103.166 173.623 102.822 172.722 102.191 171.791C100.836 169.788 98.3027 168.929 95.5896 168.602C92.8384 168.271 89.6608 168.458 86.7186 168.767C85.2423 168.922 83.8122 169.109 82.5136 169.281L82.3208 169.307C81.0946 169.469 79.9994 169.614 79.0853 169.704C78.2365 169.788 77.6069 169.818 77.1973 169.789C77.2197 169.645 77.2348 169.494 77.2463 169.345C77.2737 168.99 77.2858 168.548 77.2857 168.035C77.2854 167.008 77.2359 165.657 77.1478 164.069C76.9716 160.891 76.6388 156.73 76.2252 152.252C75.4018 143.34 74.2551 133.142 73.3751 126.89L74.9707 109.856ZM73.2019 112.07L71.8182 126.843L71.8305 126.93C72.7076 133.142 73.8586 143.368 74.6845 152.308C75.0974 156.777 75.4283 160.917 75.603 164.069C75.6905 165.646 75.7383 166.966 75.7386 167.952C75.7387 168.446 75.7268 168.846 75.7036 169.148C75.692 169.299 75.6782 169.417 75.6634 169.505C75.6476 169.6 75.635 169.634 75.6361 169.631C75.5715 169.793 75.5229 170.002 75.5598 170.238C75.5993 170.491 75.7263 170.706 75.9004 170.869C76.2004 171.148 76.6022 171.236 76.8797 171.276C77.4867 171.362 78.3526 171.314 79.323 171.218C80.2634 171.125 81.3822 170.977 82.5967 170.816L82.8014 170.789C84.1007 170.617 85.5121 170.433 86.9655 170.28C89.8826 169.974 92.9168 169.803 95.4847 170.112C98.0908 170.426 99.9846 171.206 100.918 172.585C101.432 173.343 101.639 173.969 101.666 174.483C101.692 174.988 101.547 175.448 101.24 175.887C100.598 176.804 99.2743 177.585 97.5306 178.23C94.761 179.254 91.3204 179.807 88.9595 180.186C88.3656 180.281 87.8401 180.365 87.4108 180.443C85.6809 180.758 81.3263 181.439 76.9294 181.451C74.7295 181.457 72.5535 181.296 70.7047 180.853C68.8388 180.407 67.4213 179.702 66.5998 178.71L66.511 178.603L66.4859 178.588C66.473 178.569 66.4556 178.541 66.4343 178.503C66.3286 178.315 66.146 177.906 65.9446 177.109C65.5414 175.512 65.0887 172.459 64.9648 166.727C64.7192 155.359 62.6217 128.479 61.5589 115.911L73.2019 112.07Z" fill="#111111"/>
<path d="M57.7099 0.977957C47.3005 3.51751 43.6402 29.9712 43.1113 42.8807C42.864 47.0073 39.6204 47.6424 25.0219 57.4832C13.343 65.3559 19.0978 75.1543 23.435 79.0695C15.0779 81.1858 -1.00165 88.3389 1.53723 100.021C4.07611 111.703 15.9242 113.777 21.5309 113.354C21.1077 113.988 22.0386 117.48 29.1475 126.369C36.2563 135.257 48.6122 130.072 53.9015 126.369C78.0209 148.971 84.897 133.247 85.3201 122.559C90.5037 124.782 101.569 125.353 104.362 109.862C107.154 94.3703 89.6574 76.9532 80.5598 70.181C104.996 76.5299 87.5417 51.1342 78.6556 41.2934C69.7695 31.4527 70.7216 -2.19649 57.7099 0.977957Z" fill="#00BE4F"/>
<path fill-rule="evenodd" clip-rule="evenodd" d="M61.6305 2.07722C60.5705 1.5325 59.3529 1.36635 57.8914 1.72291C55.5825 2.28621 53.5427 4.20669 51.77 7.17434C50.0063 10.127 48.5786 13.9989 47.4462 18.2382C45.1828 26.712 44.1404 36.4933 43.8775 42.9117L43.8767 42.9262C43.8079 44.0747 43.5227 45.0337 42.8573 45.965C42.2139 46.8657 41.2431 47.6993 39.8938 48.6631C38.6271 49.5679 36.9667 50.6281 34.8316 51.9913C34.6849 52.0849 34.536 52.18 34.3849 52.2765C32.0255 53.7835 29.0919 55.6642 25.4503 58.119C22.6156 60.0299 20.8876 62.0243 19.9239 63.9673C18.9626 65.9055 18.7403 67.835 18.9826 69.659C19.4715 73.3407 21.8613 76.6152 23.9487 78.4995C24.1588 78.6891 24.2474 78.979 24.1793 79.2537C24.1112 79.5285 23.8974 79.7433 23.6231 79.8128C19.5064 80.8553 13.4985 83.1389 8.85611 86.5744C4.20021 90.0199 1.11338 94.4595 2.28653 99.8574C3.49723 105.428 6.90979 108.693 10.7174 110.536C14.5529 112.391 18.7764 112.792 21.4729 112.588C21.7654 112.566 22.0448 112.713 22.1928 112.966C22.3261 113.194 22.3318 113.472 22.2129 113.704C22.2123 113.712 22.2119 113.722 22.2119 113.735C22.2113 113.824 22.227 113.98 22.2867 114.219C22.4057 114.695 22.6763 115.41 23.1955 116.413C24.2318 118.414 26.208 121.465 29.7462 125.889C33.0811 130.059 37.6387 130.954 42.1005 130.33C46.5879 129.704 50.8865 127.543 53.4615 125.74C53.7587 125.532 54.161 125.56 54.4257 125.808C60.4188 131.425 65.2865 134.606 69.1989 136.094C73.0954 137.576 75.9954 137.362 78.1483 136.264C80.322 135.155 81.8748 133.074 82.9149 130.549C83.9534 128.028 84.4503 125.135 84.5535 122.529C84.5635 122.276 84.697 122.045 84.9105 121.91C85.1239 121.775 85.39 121.754 85.6221 121.854C88.0887 122.911 91.9315 123.558 95.4508 122.141C98.9108 120.747 102.245 117.28 103.607 109.725C104.946 102.295 101.425 94.2888 96.298 87.2009C91.1903 80.1393 84.6013 74.1456 80.1016 70.7961C79.8073 70.577 79.7093 70.18 79.8679 69.849C80.0265 69.518 80.3972 69.3458 80.7524 69.438C83.7664 70.2211 86.0804 70.4995 87.8142 70.3999C89.547 70.3002 90.6291 69.8285 91.2818 69.1835C91.9271 68.5456 92.259 67.6326 92.2719 66.4171C92.2848 65.1919 91.9703 63.7179 91.3811 62.0657C89.013 55.4256 82.5108 46.7073 78.0862 41.8073C75.7406 39.2097 74.0953 35.114 72.7297 30.6188C71.8789 27.8181 71.1157 24.7828 70.3626 21.7878C69.9069 19.9751 69.4548 18.1771 68.9892 16.4548C67.7384 11.8276 66.3853 7.72252 64.5811 4.97496C63.6845 3.60968 62.7092 2.63162 61.6305 2.07722ZM22.2158 113.678C22.2159 113.678 22.2157 113.679 22.215 113.682C22.2154 113.679 22.2157 113.678 22.2158 113.678ZM74.1974 30.1727C75.5592 34.6552 77.1271 38.4559 79.2246 40.7788C83.686 45.7195 90.3542 54.6195 92.8259 61.5502C93.4466 63.2907 93.8214 64.9564 93.8058 66.4333C93.7901 67.9198 93.3758 69.271 92.3599 70.275C91.3514 71.2718 89.8574 71.8193 87.9022 71.9317C86.6935 72.0013 85.2813 71.9066 83.6475 71.634C87.9518 75.1905 93.2506 80.3701 97.5408 86.3015C102.739 93.4881 106.57 101.936 105.116 109.997C103.686 117.934 100.09 121.926 96.0238 123.564C92.4816 124.991 88.7252 124.571 86.0245 123.65C85.8355 126.105 85.3137 128.754 84.3332 131.134C83.2113 133.857 81.4583 136.298 78.8451 137.631C76.2112 138.974 72.8433 139.121 68.6538 137.528C64.5837 135.981 59.693 132.777 53.8267 127.347C51.076 129.169 46.8118 131.222 42.3127 131.85C37.4971 132.523 32.3223 131.566 28.5484 126.848C24.9777 122.383 22.934 119.244 21.8334 117.118C21.2842 116.058 20.9571 115.225 20.7985 114.591C20.7613 114.442 20.7321 114.299 20.7117 114.163C17.8205 114.242 13.78 113.722 10.0494 111.917C5.89662 109.908 2.1157 106.295 0.787529 100.183C-0.578197 93.8994 3.10531 88.9214 7.94375 85.3409C12.3187 82.1033 17.7982 79.8734 21.942 78.679C19.957 76.5753 17.9362 73.4322 17.4619 69.861C17.1831 67.7619 17.4409 65.521 18.5497 63.2854C19.6561 61.0547 21.5884 58.872 24.593 56.8466C28.2507 54.381 31.197 52.4921 33.5593 50.9833C33.7041 50.8908 33.8465 50.7999 33.9867 50.7104C36.1425 49.3338 37.7697 48.2949 39.0024 47.4144C40.3197 46.4734 41.1187 45.7595 41.6092 45.0729C42.0765 44.4187 42.2896 43.7526 42.3451 42.8414C42.6115 36.3502 43.6638 26.4543 45.9642 17.8422C47.1142 13.537 48.5864 9.51243 50.4531 6.38731C52.3109 3.27723 54.6321 0.938656 57.5279 0.23218C59.3194 -0.204875 60.9183 -0.013904 62.3315 0.712397C63.7259 1.42902 64.8804 2.63587 65.8632 4.13255C67.8177 7.10892 69.2217 11.436 70.4701 16.0543C70.9516 17.8356 71.4094 19.6577 71.867 21.4786C72.6111 24.4396 73.3544 27.3975 74.1974 30.1727Z" fill="#111111"/>
<path d="M44.9592 51.1014C45.252 56.3528 48.8132 60.4246 52.9134 60.1959C57.0136 59.9672 60.1002 55.5247 59.8074 50.2732C59.5147 45.0218 55.9535 40.95 51.8533 41.1787C47.753 41.4074 44.6665 45.85 44.9592 51.1014Z" fill="white"/>
<path fill-rule="evenodd" clip-rule="evenodd" d="M52.828 58.6638C49.9046 58.8269 46.7573 55.7955 46.4909 51.016C46.2244 46.2365 49.0152 42.8738 51.9387 42.7108C54.8621 42.5477 58.0093 45.5791 58.2758 50.3586C58.5422 55.1382 55.7514 58.5008 52.828 58.6638ZM52.9134 60.1959C48.8132 60.4246 45.252 56.3528 44.9592 51.1014C44.6665 45.85 47.753 41.4074 51.8533 41.1787C55.9535 40.95 59.5147 45.0218 59.8074 50.2732C60.1002 55.5247 57.0136 59.9672 52.9134 60.1959Z" fill="#111111"/>
<path d="M46.9746 53.5363C47.1503 57.2138 49.8473 60.0729 52.9987 59.9223C56.15 59.7716 58.5622 56.6683 58.3865 52.9908C58.2108 49.3133 55.5137 46.4541 52.3624 46.6048C49.2111 46.7554 46.7989 49.8588 46.9746 53.5363Z" fill="#111111"/>
<path d="M58.4569 50.2936C58.415 55.5531 61.5069 59.8416 65.3627 59.8723C69.2186 59.903 72.3784 55.6643 72.4203 50.4049C72.4621 45.1454 69.3703 40.8569 65.5144 40.8262C61.6585 40.7955 58.4988 45.0342 58.4569 50.2936Z" fill="white"/>
<path fill-rule="evenodd" clip-rule="evenodd" d="M61.6924 56.1462C60.6527 54.7041 59.9722 52.6436 59.9908 50.3058C60.0095 47.9681 60.7226 45.9187 61.7852 44.4933C62.8484 43.0671 64.1803 42.3501 65.5022 42.3606C66.824 42.3711 68.1444 43.1093 69.1848 44.5523C70.2245 45.9944 70.9049 48.0549 70.8863 50.3927C70.8677 52.7304 70.1545 54.7798 69.092 56.2052C68.0288 57.6314 66.6968 58.3484 65.375 58.3379C64.0531 58.3274 62.7327 57.5892 61.6924 56.1462ZM65.3627 59.8723C61.5069 59.8416 58.415 55.5531 58.4569 50.2936C58.4988 45.0342 61.6585 40.7955 65.5144 40.8262C69.3703 40.8569 72.4621 45.1454 72.4203 50.4049C72.3784 55.6643 69.2186 59.903 65.3627 59.8723Z" fill="#111111"/>
<path d="M59.8776 51.821C59.4087 55.4727 61.5652 58.7589 64.6944 59.161C67.8236 59.5631 70.7405 56.9288 71.2095 53.277C71.6784 49.6253 69.5219 46.3391 66.3927 45.937C63.2635 45.5349 60.3466 48.1693 59.8776 51.821Z" fill="#111111"/>
<path d="M50.7215 66.482C54.5081 64.6062 53.2329 66.8697 52.1219 68.236C52.7656 71.3958 55.2488 78.2328 60.0323 80.3019C64.8159 82.3709 68.2145 73.3414 67.4751 67.9348C66.8444 67.8641 64.8392 67.3042 65.4086 66.4256C65.7946 65.8301 67.5128 64.7448 69.4405 64.6411C71.3712 64.5373 69.6719 67.329 68.7367 68.076C69.8209 70.7529 68.7507 76.3908 65.9432 80.9317C62.4338 86.6078 57.7869 83.2447 55.3015 79.7721C53.3132 76.994 51.2314 71.437 50.439 69.0058C48.9555 68.9462 46.9349 68.3578 50.7215 66.482Z" fill="#111111"/>
<path d="M101.871 64.8905C99.7607 67.8795 88.4426 64.4753 83.8987 62.7903C81.8466 64.3288 78.4629 69.9841 80.9254 74.7314C84.0035 80.6654 104.895 80.9583 108.853 78.5407C112.019 76.6067 117.2 67.6257 119.326 62.351L123.134 50.6056L112.261 51.8013C114.68 49.164 112.102 39.177 109.843 39.4937C107.584 39.8104 108.121 48.4314 107.901 51.8013C106.948 55.3911 103.982 61.9015 101.871 64.8905Z" fill="#FDFBEF"/>
<path fill-rule="evenodd" clip-rule="evenodd" d="M109.944 40.2547C109.944 40.2546 109.945 40.2546 109.946 40.2547C109.945 40.2548 109.944 40.2547 109.944 40.2547ZM109.947 40.2547C109.962 40.2557 110.038 40.2694 110.188 40.4006C110.379 40.5684 110.605 40.8602 110.844 41.2876C111.318 42.1362 111.755 43.3614 112.057 44.7085C112.358 46.052 112.514 47.4672 112.455 48.6848C112.394 49.939 112.113 50.8284 111.696 51.2836C111.496 51.5013 111.439 51.8142 111.549 52.0883C111.659 52.3623 111.917 52.5489 112.212 52.5679C113.302 52.6382 114.626 52.8859 115.599 53.592C116.504 54.2486 117.213 55.3767 116.976 57.5055L118.501 57.675C118.792 55.0566 117.898 53.3639 116.5 52.3499C116.399 52.2766 116.296 52.2073 116.191 52.1418L122.038 51.4988L118.604 62.0897C117.559 64.6769 115.759 68.1888 113.828 71.2942C112.86 72.8506 111.867 74.2917 110.928 75.4563C109.977 76.6366 109.127 77.4747 108.453 77.8868C108.067 78.1226 107.406 78.3605 106.477 78.5663C105.563 78.7688 104.445 78.9284 103.186 79.0364C100.67 79.2522 97.6344 79.2573 94.623 79.0043C91.6074 78.7509 88.6496 78.2414 86.2747 77.4436C83.8537 76.6303 82.2286 75.5799 81.6056 74.3789C80.5054 72.2578 80.69 69.8947 81.4399 67.8192C82.1114 65.9603 83.1977 64.4421 84.049 63.6633C86.3931 64.5098 90.1534 65.69 93.6553 66.3481C95.5101 66.6966 97.3336 66.9069 98.8513 66.8274C100.312 66.7508 101.749 66.3935 102.497 65.3341C103.593 63.7826 104.885 61.3582 106.017 58.8922C107.15 56.4245 108.15 53.8545 108.642 51.9991C108.655 51.951 108.663 51.9018 108.666 51.8522C108.716 51.0869 108.728 50.0651 108.741 48.9619C108.742 48.8131 108.744 48.6628 108.746 48.5114C108.762 47.224 108.786 45.8396 108.872 44.5548C108.959 43.2595 109.106 42.1172 109.352 41.2972C109.475 40.886 109.608 40.6048 109.736 40.4329C109.852 40.2752 109.925 40.258 109.947 40.2547ZM113.63 50.8799C113.846 50.2251 113.952 49.4925 113.987 48.7591C114.054 47.3724 113.878 45.8161 113.554 44.3728C113.231 42.933 112.752 41.5561 112.183 40.5387C111.9 40.0332 111.573 39.5761 111.2 39.2481C110.83 38.9225 110.326 38.652 109.736 38.7348C109.19 38.8113 108.786 39.1374 108.503 39.5194C108.226 39.8927 108.03 40.3633 107.882 40.8575C107.586 41.8483 107.43 43.1313 107.341 44.4521C107.252 45.7834 107.228 47.2059 107.212 48.4926C107.21 48.6447 107.209 48.7947 107.207 48.9423C107.194 50.0182 107.183 50.9647 107.14 51.6777C106.672 53.4083 105.724 55.8535 104.623 58.252C103.506 60.6859 102.26 63.0112 101.244 64.4488C100.937 64.8839 100.168 65.2219 98.771 65.295C97.4309 65.3652 95.7451 65.1795 93.9386 64.84C90.3339 64.1626 86.4123 62.9053 84.1647 62.0718C83.9204 61.9812 83.6467 62.0209 83.4381 62.1773C82.2664 63.0558 80.8303 64.9916 79.9972 67.2977C79.1577 69.6213 78.8818 72.4595 80.244 75.0856C81.1601 76.8516 83.3007 78.0631 85.7864 78.8982C88.3181 79.7487 91.4078 80.2739 94.4946 80.5333C97.5856 80.793 100.708 80.789 103.317 80.5652C104.622 80.4533 105.81 80.2856 106.808 80.0645C107.791 79.8468 108.649 79.565 109.252 79.1964C110.161 78.6414 111.146 77.6316 112.123 76.4193C113.113 75.1912 114.142 73.6948 115.13 72.1048C117.106 68.9274 118.955 65.3239 120.037 62.6387C120.043 62.6222 120.049 62.6055 120.055 62.5886L123.863 50.8431C123.943 50.5955 123.893 50.324 123.728 50.1221C123.564 49.9201 123.309 49.8154 123.05 49.8438L113.63 50.8799Z" fill="#111111"/>
<path fill-rule="evenodd" clip-rule="evenodd" d="M121.38 16.0046C121.456 16.5251 121.096 17.0085 120.575 17.0843L114.86 17.9171C114.339 17.9929 113.856 17.6325 113.78 17.112C113.705 16.5915 114.065 16.1082 114.585 16.0323L120.301 15.1995C120.821 15.1237 121.304 15.4842 121.38 16.0046ZM128.98 20.877C129.07 21.3953 128.723 21.8882 128.205 21.978L108.367 25.4178C107.849 25.5076 107.356 25.1603 107.266 24.6421C107.176 24.1239 107.523 23.6309 108.042 23.5411L127.879 20.1014C128.398 20.0115 128.89 20.3588 128.98 20.877ZM130.066 23.9777C130.148 24.4971 129.794 24.985 129.274 25.0673L108.79 28.3129C108.27 28.3951 107.783 28.0407 107.7 27.5212C107.618 27.0017 107.972 26.5139 108.492 26.4316L128.977 23.186C129.496 23.1038 129.984 23.4582 130.066 23.9777ZM130.066 27.0783C130.145 27.5982 129.788 28.0841 129.269 28.1637L109.437 31.1978C108.917 31.2773 108.431 30.9203 108.352 30.4004C108.272 29.8805 108.629 29.3945 109.149 29.315L128.981 26.2809C129.501 26.2014 129.986 26.5584 130.066 27.0783ZM131.152 29.736C131.235 30.2553 130.881 30.7437 130.362 30.8268L110.094 34.0695C109.575 34.1526 109.086 33.7989 109.003 33.2795C108.92 32.7602 109.274 32.2718 109.793 32.1887L130.061 28.946C130.58 28.8629 131.069 29.2166 131.152 29.736ZM121.38 34.3869C121.476 34.904 121.135 35.401 120.618 35.4969L110.547 37.3644C110.03 37.4603 109.533 37.1188 109.438 36.6016C109.342 36.0845 109.683 35.5875 110.2 35.4916L120.271 33.6241C120.788 33.5282 121.284 33.8698 121.38 34.3869ZM132.02 42.5814C132.117 43.0984 131.776 43.5959 131.26 43.6928L122.491 45.3354C121.974 45.4322 121.477 45.0916 121.38 44.5747C121.283 44.0577 121.624 43.5601 122.141 43.4633L130.909 41.8207C131.426 41.7238 131.923 42.0644 132.02 42.5814Z" fill="#111111"/>
<path d="M17.9876 127.475L19.66 108.118C20.1411 102.55 29.4625 106.688 33.0163 109.074C36.5701 111.46 31.762 144.927 28.8353 145.987C25.9087 147.048 25.2815 141.48 25.2815 142.805C25.2815 144.131 24.0272 146.518 21.9368 146.783C19.8463 147.048 22.161 141.48 19.6524 144.396C17.1514 147.304 17.1514 146.467 17.1514 139.104V139.037C17.1514 135.905 18.4861 133.963 20.1464 132.813C17.7201 134.086 15.4011 135.708 14.8519 135.429C11.0054 134.793 15.3396 129.861 17.9876 127.475Z" fill="#FDFBEF"/>
<path fill-rule="evenodd" clip-rule="evenodd" d="M25.3533 104.864C28.3049 105.527 31.6111 107.206 33.4432 108.437C33.8442 108.706 34.1083 109.135 34.2929 109.571C34.4829 110.02 34.6247 110.564 34.7316 111.168C34.9458 112.377 35.0386 113.935 35.0402 115.698C35.0435 119.233 34.6803 123.708 34.1162 128.125C33.5519 132.543 32.7831 136.929 31.9678 140.288C31.5609 141.965 31.1371 143.408 30.7134 144.477C30.5024 145.01 30.2813 145.476 30.0484 145.838C29.8367 146.168 29.5303 146.551 29.096 146.708C28.1072 147.067 27.25 146.863 26.5851 146.365C26.0813 145.988 25.7101 145.461 25.438 144.961C25.3133 145.195 25.1713 145.423 25.0141 145.641C24.3601 146.546 23.3546 147.376 22.0326 147.544C21.5999 147.598 21.1786 147.507 20.8422 147.22C20.5331 146.955 20.386 146.6 20.3086 146.308C20.1959 145.882 20.1813 145.372 20.1816 144.956C19.5966 145.634 19.0667 146.204 18.6063 146.486C18.3689 146.631 17.9802 146.807 17.5417 146.676C17.0889 146.54 16.8649 146.165 16.7532 145.891C16.6364 145.605 16.568 145.253 16.5214 144.874C16.4736 144.485 16.4432 144.017 16.4234 143.474C16.3838 142.391 16.3838 140.947 16.3838 139.121V139.037C16.3838 137.636 16.6335 136.443 17.058 135.434C16.6197 135.676 16.2057 135.889 15.8533 136.029C15.6635 136.105 15.4609 136.173 15.2632 136.206C15.1144 136.231 14.8843 136.251 14.6452 136.172C14.1155 136.075 13.6501 135.894 13.2868 135.596C12.8892 135.27 12.6629 134.843 12.5885 134.373C12.4512 133.505 12.8394 132.553 13.3202 131.723C14.2598 130.102 15.9338 128.322 17.2486 127.109L18.8952 108.051C18.9649 107.245 19.2004 106.557 19.6096 106.005C20.0207 105.451 20.5713 105.082 21.1904 104.86C22.3947 104.428 23.8905 104.535 25.3533 104.864ZM23.6696 130.667C22.4454 130.842 21.0189 131.286 19.7487 132.155C18.9774 132.561 18.1964 133.013 17.4989 133.416C17.1081 133.642 16.7435 133.853 16.4216 134.033C15.9487 134.296 15.5682 134.491 15.2847 134.604C15.1754 134.648 15.0984 134.672 15.0487 134.684L14.9764 134.672C14.578 134.606 14.3664 134.497 14.2593 134.409C14.1679 134.334 14.1225 134.252 14.1037 134.133C14.0546 133.823 14.1943 133.274 14.6472 132.493C15.5206 130.986 17.1956 129.22 18.5004 128.044L18.7251 127.842L20.4235 108.184C20.4741 107.598 20.635 107.198 20.8416 106.919C21.0463 106.643 21.3305 106.44 21.7085 106.304C22.4984 106.021 23.6452 106.053 25.0172 106.361C27.735 106.972 30.8664 108.554 32.5881 109.711C32.6313 109.74 32.7462 109.852 32.8802 110.169C33.0087 110.473 33.1252 110.894 33.2211 111.435C33.4128 112.517 33.5046 113.974 33.5062 115.7C33.5094 119.145 33.1541 123.549 32.5945 127.93C32.0352 132.31 31.2753 136.638 30.4771 139.926C30.0771 141.574 29.6729 142.938 29.2873 143.912C29.0938 144.4 28.9149 144.764 28.7576 145.009C28.6295 145.209 28.5552 145.267 28.5487 145.274C28.0878 145.434 27.7754 145.34 27.5044 145.137C27.1814 144.895 26.8942 144.472 26.6523 143.966C26.4308 143.502 26.2805 143.042 26.1741 142.716C26.167 142.695 26.1602 142.674 26.1535 142.653C26.128 142.575 26.1012 142.494 26.0762 142.428C26.0639 142.395 26.0469 142.352 26.026 142.308L26.0247 142.305C26.0126 142.279 25.9606 142.169 25.861 142.067C25.8131 142.018 25.6598 141.872 25.4049 141.839C25.0832 141.797 24.8433 141.958 24.7203 142.099C24.6192 142.215 24.5783 142.333 24.5641 142.376C24.5459 142.432 24.5367 142.48 24.5318 142.51C24.515 142.612 24.5139 142.726 24.5139 142.805C24.5139 143.271 24.2745 144.045 23.7708 144.742C23.275 145.428 22.6082 145.924 21.8397 146.021C21.8354 146.022 21.8314 146.022 21.8277 146.023C21.8176 146 21.8048 145.965 21.7916 145.915C21.7132 145.619 21.715 145.203 21.7173 144.7C21.7175 144.666 21.7176 144.632 21.7177 144.598C21.7187 144.356 21.7176 144.078 21.6862 143.839C21.6703 143.719 21.6424 143.571 21.5842 143.425C21.5276 143.284 21.4146 143.075 21.1862 142.929C20.6599 142.593 20.1404 142.906 19.9428 143.045C19.6817 143.229 19.3933 143.52 19.0703 143.896C18.635 144.402 18.3157 144.744 18.0836 144.957C18.07 144.879 18.0566 144.79 18.0439 144.687C18.0038 144.361 17.9755 143.942 17.9563 143.418C17.9179 142.367 17.9178 140.95 17.9178 139.104V139.037C17.9178 136.187 19.1036 134.483 20.5446 133.47C21.7901 132.819 22.9703 132.315 23.9077 132.183C24.1843 132.144 24.4484 132.122 24.6938 132.114L24.644 130.58C24.3473 130.59 24.0278 130.617 23.693 130.664C23.6852 130.665 23.6774 130.666 23.6696 130.667ZM17.7562 145.203C17.7563 145.203 17.7593 145.201 17.7649 145.2C17.7589 145.202 17.7561 145.203 17.7562 145.203ZM14.9913 134.694C14.9915 134.694 14.9951 134.694 15.0018 134.694C14.9945 134.695 14.9912 134.695 14.9913 134.694ZM20.8749 144.269C20.8746 144.27 20.8674 144.274 20.8542 144.28C20.8686 144.271 20.8753 144.268 20.8749 144.269Z" fill="#111111"/>
<path d="M25.9579 130.565C24.9424 130.057 23.8422 130.353 23.419 130.565C21.5149 131.199 17.3257 132.66 15.8024 133.421C13.8982 134.374 15.1677 137.231 14.2156 137.548C13.2635 137.866 10.4073 138.183 9.13784 140.405C8.12229 142.183 10.4073 141.992 11.6767 141.675C11.6767 142.945 14.004 142.839 15.1677 142.627C23.419 141.146 40.4295 138.056 42.4606 137.548C44.4917 137.04 44.5763 136.067 44.3648 135.644C45.2111 135.644 46.9036 135.39 46.9036 134.374C46.9036 133.358 45.4226 133.316 44.6821 133.421C44.8937 133.104 44.5552 132.469 41.5085 132.469C38.4619 132.469 23.948 135.22 17.0718 136.596C17.0718 134.374 20.2454 134.691 23.419 133.421C26.5926 132.152 27.2273 131.2 25.9579 130.565Z" fill="#1659A5"/>
<path fill-rule="evenodd" clip-rule="evenodd" d="M25.6149 131.252C24.8916 130.89 24.059 131.103 23.7621 131.252L23.7133 131.276L23.6616 131.293C21.7386 131.935 17.6091 133.377 16.1454 134.109C15.6124 134.375 15.4573 134.898 15.4182 135.759C15.4134 135.864 15.4106 135.986 15.4076 136.115C15.4005 136.414 15.3927 136.75 15.3574 137.008C15.3095 137.36 15.1588 138.043 14.4582 138.277C14.2659 138.341 13.9983 138.408 13.7247 138.476C13.613 138.503 13.5003 138.532 13.3913 138.56C12.9827 138.666 12.5326 138.795 12.0806 138.976C11.1713 139.34 10.3185 139.886 9.80385 140.787C9.73014 140.916 9.69239 141.007 9.67301 141.067C9.68622 141.071 9.70113 141.074 9.7179 141.078C10.1366 141.172 10.8775 141.085 11.4908 140.932L12.4438 140.693V141.676C12.4438 141.678 12.4438 141.681 12.4437 141.683C12.4435 141.712 12.4434 141.723 12.4982 141.761C12.5934 141.828 12.7849 141.903 13.0963 141.948C13.7099 142.038 14.492 141.971 15.0305 141.873L15.0322 141.873C23.3084 140.387 40.2766 137.304 42.2746 136.805C43.2 136.573 43.5233 136.273 43.6228 136.129C43.6815 136.044 43.6782 135.994 43.676 135.982L43.1238 134.877H44.3648C44.7343 134.877 45.2737 134.819 45.6918 134.669C45.9006 134.593 46.0277 134.513 46.0922 134.451C46.1373 134.407 46.137 134.39 46.1367 134.377C46.1367 134.377 46.1367 134.376 46.1367 134.375C46.1367 134.338 46.1323 134.336 46.1295 134.335C46.129 134.335 46.1285 134.335 46.1282 134.335C46.1048 134.312 46.0322 134.262 45.8717 134.219C45.5453 134.131 45.1034 134.137 44.7907 134.182L43.0924 134.425L43.7491 133.439C43.3688 133.335 42.6803 133.237 41.5086 133.237C40.8129 133.237 39.3909 133.399 37.4838 133.68C35.5975 133.958 33.2908 134.344 30.8596 134.773C25.9981 135.632 20.6565 136.662 17.2223 137.349L16.3049 137.533V136.597C16.3049 135.824 16.596 135.215 17.1134 134.764C17.5889 134.349 18.2163 134.103 18.835 133.918C19.2735 133.786 19.7734 133.667 20.2799 133.547C20.4884 133.498 20.6979 133.448 20.9048 133.397C21.6366 133.216 22.3899 133.008 23.1342 132.71C23.9082 132.4 24.5079 132.118 24.9526 131.863C25.3586 131.631 25.5972 131.444 25.7237 131.311C25.6947 131.294 25.6589 131.274 25.6149 131.252ZM25.8145 131.197C25.8145 131.197 25.8143 131.197 25.8138 131.198C25.8142 131.197 25.8145 131.197 25.8145 131.197ZM44.0841 133.571C44.0841 133.571 44.083 133.571 44.0811 133.569C44.0832 133.571 44.0842 133.571 44.0841 133.571ZM43.6753 135.979C43.6753 135.979 43.6754 135.98 43.6757 135.98L43.6753 135.979ZM9.58138 141.032C9.58162 141.032 9.58402 141.033 9.58788 141.036C9.58307 141.033 9.58114 141.032 9.58138 141.032ZM23.1303 129.853C23.7114 129.582 25.0344 129.246 26.301 129.879C26.6739 130.066 27.0972 130.362 27.267 130.848C27.4602 131.4 27.2351 131.898 26.9439 132.247C26.6591 132.589 26.2297 132.901 25.7137 133.196C25.1865 133.497 24.5167 133.81 23.7039 134.135C22.8615 134.472 22.028 134.7 21.2722 134.886C21.0305 134.946 20.8015 135 20.5834 135.052C20.1346 135.159 19.7324 135.254 19.3623 135.362C22.626 134.723 26.7572 133.939 30.5929 133.262C33.0306 132.832 35.3534 132.443 37.2602 132.162C39.1462 131.885 40.681 131.703 41.5086 131.703C43.053 131.703 44.0376 131.859 44.633 132.128C44.8688 132.235 45.1094 132.388 45.2791 132.616C45.5965 132.617 45.9433 132.649 46.2696 132.737C46.5719 132.818 46.9159 132.963 47.1933 133.23C47.4917 133.518 47.6707 133.91 47.6707 134.375C47.6707 135.409 46.7948 135.902 46.2114 136.112C45.8729 136.234 45.5092 136.311 45.171 136.356C45.1235 136.57 45.0314 136.789 44.8847 137.001C44.4869 137.577 43.7524 138.017 42.6467 138.293C40.5825 138.81 23.5303 141.906 15.3036 143.383C14.6785 143.497 13.7158 143.589 12.8755 143.467C12.4596 143.406 11.9965 143.283 11.619 143.019C11.4431 142.896 11.2886 142.743 11.1691 142.562C10.5937 142.655 9.92857 142.698 9.38304 142.575C8.98978 142.487 8.44807 142.263 8.21593 141.685C7.99129 141.126 8.18128 140.534 8.47195 140.026C9.22679 138.704 10.4368 137.981 11.5109 137.551C12.0507 137.335 12.5724 137.187 13.0069 137.074C13.1696 137.032 13.3113 136.997 13.4355 136.966C13.5912 136.928 13.7194 136.896 13.8273 136.865C13.8306 136.847 13.8341 136.826 13.8375 136.801C13.8614 136.625 13.8652 136.442 13.8701 136.206C13.8732 136.058 13.8767 135.89 13.8858 135.689C13.926 134.804 14.0883 133.422 15.4594 132.736C17.0296 131.951 21.2226 130.49 23.1303 129.853ZM13.8027 136.96C13.8025 136.96 13.804 136.956 13.8077 136.948C13.8047 136.957 13.8029 136.961 13.8027 136.96Z" fill="#111111"/>
</svg>
