<svg width="28" height="28" viewBox="0 0 28 28" fill="none" xmlns="http://www.w3.org/2000/svg">
<path fill-rule="evenodd" clip-rule="evenodd" d="M4.50709 13.7183C5.10801 14.824 6.17876 16.3179 7.65576 17.5862C9.3277 19.0219 11.4664 20.125 13.9982 20.125C16.53 20.125 18.6687 19.0219 20.3407 17.5862C21.8177 16.3179 22.8884 14.824 23.4893 13.7183C22.8014 12.7086 21.6387 11.3497 20.1307 10.1946C18.4102 8.87672 16.3085 7.875 13.9982 7.875C11.6879 7.875 9.58625 8.87672 7.86571 10.1946C6.35776 11.3497 5.19505 12.7086 4.50709 13.7183ZM6.80155 8.80537C8.7074 7.3455 11.1752 6.125 13.9982 6.125C16.8212 6.125 19.289 7.3455 21.1949 8.80537C23.1003 10.2649 24.5124 12.0146 25.2444 13.2096L25.4925 13.6148L25.2879 14.0436C24.6572 15.3649 23.3609 17.2993 21.4808 18.9138C19.5944 20.5337 17.0664 21.875 13.9982 21.875C10.93 21.875 8.40207 20.5337 6.51568 18.9138C4.63549 17.2993 3.33918 15.3649 2.70855 14.0436L2.50391 13.6148L2.75206 13.2096C3.48404 12.0146 4.8961 10.2649 6.80155 8.80537Z" fill="black"/>
<path fill-rule="evenodd" clip-rule="evenodd" d="M13.9961 11.375C12.5463 11.375 11.3711 12.5503 11.3711 14C11.3711 15.4497 12.5463 16.625 13.9961 16.625C15.4458 16.625 16.6211 15.4497 16.6211 14C16.6211 12.5503 15.4458 11.375 13.9961 11.375ZM9.62109 14C9.62109 11.5838 11.5798 9.625 13.9961 9.625C16.4123 9.625 18.3711 11.5838 18.3711 14C18.3711 16.4162 16.4123 18.375 13.9961 18.375C11.5798 18.375 9.62109 16.4162 9.62109 14Z" fill="black"/>
</svg>
