<svg width="28" height="28" viewBox="0 0 28 28" fill="none" xmlns="http://www.w3.org/2000/svg">
<path fill-rule="evenodd" clip-rule="evenodd" d="M3.79297 6.41536C3.79297 5.60995 4.44589 4.95703 5.2513 4.95703H14.0013C14.4846 4.95703 14.8763 5.34878 14.8763 5.83203C14.8763 6.31528 14.4846 6.70703 14.0013 6.70703H5.54297V22.457H20.1263V13.6769C20.1263 13.1936 20.5181 12.8019 21.0013 12.8019C21.4846 12.8019 21.8763 13.1936 21.8763 13.6769V22.7487C21.8763 23.5541 21.2234 24.207 20.418 24.207H5.2513C4.44589 24.207 3.79297 23.5541 3.79297 22.7487V6.41536Z" fill="#111111"/>
<path fill-rule="evenodd" clip-rule="evenodd" d="M20.5519 3.87635C21.1214 3.30684 22.0448 3.30684 22.6143 3.87635L24.1227 5.38473C24.6922 5.95424 24.6922 6.87761 24.1227 7.44713L14.16 17.4098C13.9564 17.6133 13.6971 17.7521 13.4148 17.8086L10.8429 18.323C10.1491 18.4617 9.53728 17.8499 9.67606 17.1561L10.1904 14.5842C10.2469 14.3019 10.3857 14.0426 10.5893 13.839L20.5519 3.87635ZM21.5831 5.32003L11.8891 15.014L11.6152 16.3839L12.985 16.1099L22.679 6.41593L21.5831 5.32003Z" fill="#111111"/>
</svg>
