<svg width="78" height="78" viewBox="0 0 78 78" fill="none" xmlns="http://www.w3.org/2000/svg">
  <path d="M41.1931 0.119577C35.2558 1.56303 33.168 16.599 32.8663 23.9366C32.7253 26.2821 30.8752 26.6431 22.5485 32.2365C15.8871 36.7112 19.1695 42.2805 21.6434 44.5059C16.8766 45.7087 7.70512 49.7745 9.15325 56.4144C10.6014 63.0542 17.3593 64.2331 20.5572 63.9925C20.3159 64.3534 20.8469 66.3381 24.9016 71.3902C28.9564 76.4423 36.004 73.4952 39.0209 71.3902C52.7781 84.2369 56.7001 75.2996 56.9415 69.225C59.8981 70.488 66.2095 70.8128 67.8024 62.0077C69.3954 53.2027 59.4154 43.303 54.2262 39.4538C68.1645 43.0624 58.2086 28.6278 53.1401 23.0344C48.0717 17.441 48.6147 -1.68474 41.1931 0.119577Z" fill="#00BE4F"/>
  <path fill-rule="evenodd" clip-rule="evenodd" d="M43.4038 1.02904C42.7894 0.713447 42.0847 0.618668 41.2452 0.823381C39.9157 1.14757 38.7527 2.24944 37.7497 3.92766C36.751 5.59889 35.9444 7.78684 35.3055 10.1775C34.0283 14.9566 33.4405 20.471 33.2922 24.0892L33.2918 24.0959C33.2537 24.7314 33.0965 25.2573 32.7312 25.7685C32.3761 26.2653 31.8374 26.729 31.0787 27.2706C30.3666 27.779 29.4328 28.375 28.2288 29.1433C28.1464 29.1959 28.0628 29.2493 27.9779 29.3035C26.6483 30.1522 24.9948 31.2118 22.9421 32.5948C21.3366 33.6765 20.353 34.8089 19.8031 35.9171C19.2543 37.0231 19.1273 38.1248 19.2656 39.1654C19.5442 41.2623 20.9037 43.1214 22.0877 44.1897C22.1857 44.2781 22.227 44.4132 22.1952 44.5412C22.1635 44.6692 22.0638 44.7694 21.9359 44.8017C19.6103 45.3904 16.2153 46.6797 13.5893 48.622C10.957 50.569 9.18875 53.0954 9.85913 56.1784C10.547 59.342 12.4877 61.1977 14.6499 62.2433C16.8251 63.2953 19.2185 63.5219 20.7483 63.4065C20.8846 63.3962 21.0149 63.4645 21.0839 63.5825C21.1484 63.6927 21.1489 63.8282 21.0869 63.9382C21.0859 63.9454 21.0846 63.9581 21.0845 63.9777C21.0841 64.036 21.0943 64.1303 21.1289 64.2685C21.1979 64.5444 21.3531 64.9529 21.6471 65.5204C22.2341 66.6535 23.3509 68.3761 25.3461 70.8695C27.2465 73.2444 29.8445 73.7515 32.3757 73.398C34.9189 73.0429 37.3519 71.8201 38.8096 70.7999C38.9481 70.7029 39.1357 70.7163 39.2592 70.8319C42.6396 73.9981 45.3905 75.7972 47.6077 76.6398C49.8174 77.4796 51.4742 77.3624 52.7106 76.7321C53.9567 76.0967 54.8414 74.9071 55.4314 73.4757C56.0207 72.046 56.3019 70.4074 56.3603 68.9334C56.365 68.8158 56.4272 68.708 56.5267 68.6452C56.6263 68.5824 56.7504 68.5725 56.8585 68.6189C58.2605 69.2196 60.4471 69.5891 62.4538 68.7812C64.4329 67.9845 66.324 66.0063 67.0948 61.733C67.8551 57.5179 65.8559 52.9876 62.9637 48.9911C60.0804 45.0068 56.362 41.6261 53.8219 39.7362C53.6846 39.6341 53.6389 39.4491 53.7129 39.2948C53.7868 39.1406 53.9597 39.0603 54.1253 39.1033C55.8275 39.5453 57.1397 39.704 58.1273 39.6473C59.1145 39.5905 59.7443 39.3212 60.1293 38.9408C60.5109 38.5638 60.702 38.0284 60.7093 37.3306C60.7167 36.6284 60.5366 35.789 60.2031 34.8542C58.8637 31.1006 55.192 26.1819 52.6971 23.4203C51.3875 21.9708 50.4642 19.6785 49.6949 17.1475C49.2159 15.5715 48.7869 13.8659 48.363 12.1808C48.1061 11.1595 47.8511 10.1458 47.588 9.17296C46.8833 6.56746 46.1184 4.2448 45.0945 2.68634C44.5852 1.91107 44.0269 1.34914 43.4038 1.02904ZM50.3793 16.9396C51.1468 19.4647 52.034 21.6195 53.2279 22.941C55.7399 25.7215 59.4891 30.7249 60.8768 34.614C61.225 35.5899 61.4332 36.5187 61.4245 37.3382C61.4159 38.1622 61.1864 38.9019 60.632 39.4495C60.081 39.9938 59.2593 40.2985 58.1684 40.3612C57.4264 40.4038 56.5446 40.3357 55.5085 40.1455C57.9672 42.1481 61.0567 45.136 63.5432 48.5719C66.4686 52.6144 68.612 57.3507 67.7987 61.8599C66.9959 66.3109 64.9829 68.534 62.721 69.4446C60.7056 70.2559 58.5627 69.996 57.0475 69.4597C56.9479 70.8634 56.6545 72.3854 56.0928 73.7482C55.4646 75.2721 54.4866 76.6293 53.0355 77.3691C51.5748 78.1138 49.6999 78.2 47.3535 77.3083C45.0627 76.4376 42.3011 74.6285 38.9802 71.5495C37.4391 72.579 35.0228 73.7504 32.4747 74.1063C29.7784 74.4828 26.8927 73.947 24.7876 71.3162C22.7772 68.8039 21.629 67.0403 21.012 65.8493C20.7039 65.2548 20.5224 64.7917 20.4349 64.4419C20.4083 64.3354 20.3894 64.2354 20.3789 64.1424C18.7555 64.1969 16.457 63.9116 14.3385 62.8871C12.0153 61.7636 9.90284 59.7458 9.16018 56.3303C8.40001 52.8344 10.4465 50.0571 13.1639 48.0471C15.6619 46.1995 18.804 44.9354 21.1461 44.2733C20.0084 43.097 18.8279 41.3019 18.5565 39.2596C18.4012 38.0908 18.5447 36.8439 19.1623 35.5993C19.7788 34.357 20.8576 33.1369 22.5424 32.0018C24.6025 30.6138 26.262 29.5504 27.5929 28.7007C27.6748 28.6485 27.7554 28.5971 27.8347 28.5464C29.0484 27.7719 29.9668 27.1857 30.6631 26.6887C31.4069 26.1577 31.8654 25.7498 32.1492 25.3527C32.4222 24.9708 32.5458 24.5813 32.5776 24.0564C32.7276 20.4043 33.32 14.8365 34.6144 9.99296C35.2615 7.57159 36.0889 5.31248 37.1357 3.56088C38.1784 1.81627 39.4726 0.519556 41.0757 0.12864C42.0691 -0.113589 42.9515 -0.00724385 43.7306 0.392971C44.501 0.788676 45.1428 1.45723 45.6924 2.29374C46.7863 3.95884 47.5749 6.38494 48.2785 8.98631C48.549 9.98663 48.8067 11.0116 49.0645 12.0368C49.4841 13.7059 49.9039 15.3755 50.3793 16.9396Z" fill="#111111"/>
  <path d="M38.7209 26.1338C41.0055 25.4666 40.0755 26.596 39.3249 27.2441C39.3708 29.0594 40.0749 33.0946 42.5241 34.7128C44.9733 36.3309 45.83 30.5946 45.9522 27.5242C45.6093 27.4229 44.5524 26.915 44.9547 26.484C45.2274 26.1918 46.2871 25.7593 47.3663 25.8916C48.4473 26.0242 47.2301 27.4046 46.6379 27.7267C46.9757 29.3176 47.1502 33.0597 45.1462 35.3009C42.6412 38.1024 40.9891 36.1233 39.9526 33.9532C39.1234 32.2172 38.5159 28.9312 38.3158 27.5053C37.4989 27.3261 36.4363 26.801 38.7209 26.1338Z" fill="#111111"/>
  <path d="M34.9983 19.5114C35.1285 21.847 36.7128 23.6579 38.5369 23.5562C40.361 23.4545 41.7341 21.4787 41.6039 19.1431C41.4736 16.8074 39.8893 14.9965 38.0652 15.0982C36.2412 15.1999 34.868 17.1758 34.9983 19.5114Z" fill="white"/>
  <path fill-rule="evenodd" clip-rule="evenodd" d="M38.4989 22.8748C37.1983 22.9474 35.7982 21.5991 35.6797 19.4734C35.5611 17.3477 36.8027 15.8521 38.1032 15.7796C39.4038 15.7071 40.8039 17.0553 40.9225 19.1811C41.041 21.3068 39.7994 22.8023 38.4989 22.8748ZM38.5369 23.5562C36.7128 23.6579 35.1285 21.847 34.9983 19.5114C34.868 17.1758 36.2412 15.1999 38.0652 15.0982C39.8893 14.9965 41.4736 16.8074 41.6039 19.1431C41.7341 21.4787 40.361 23.4545 38.5369 23.5562Z" fill="#111111"/>
  <path d="M35.894 20.5948C35.9722 22.2304 37.172 23.502 38.574 23.435C39.9759 23.368 41.049 21.9877 40.9709 20.3521C40.8927 18.7165 39.6928 17.4449 38.2909 17.5119C36.889 17.5789 35.8158 18.9592 35.894 20.5948Z" fill="#111111"/>
  <path d="M42.3583 19.1518C42.3397 21.4909 43.7152 23.3983 45.4306 23.4119C47.1459 23.4256 48.5516 21.5404 48.5703 19.2012C48.5889 16.8621 47.2134 14.9547 45.498 14.9411C43.7826 14.9274 42.3769 16.8126 42.3583 19.1518Z" fill="white"/>
  <path fill-rule="evenodd" clip-rule="evenodd" d="M43.7977 21.7547C43.3352 21.1134 43.0324 20.1969 43.0407 19.1572C43.049 18.1175 43.3663 17.206 43.839 16.5721C44.312 15.9377 44.9045 15.6188 45.4926 15.6235C46.0807 15.6282 46.6681 15.9565 47.1309 16.5983C47.5934 17.2397 47.8961 18.1561 47.8878 19.1958C47.8796 20.2355 47.5623 21.147 47.0896 21.781C46.6166 22.4153 46.0241 22.7342 45.436 22.7295C44.8479 22.7248 44.2605 22.3965 43.7977 21.7547ZM45.4306 23.4119C43.7152 23.3983 42.3397 21.4909 42.3583 19.1518C42.3769 16.8126 43.7826 14.9274 45.498 14.9411C47.2134 14.9547 48.5889 16.8621 48.5703 19.2012C48.5516 21.5404 47.1459 23.4256 45.4306 23.4119Z" fill="#111111"/>
  <path d="M42.9882 19.8302C42.7796 21.4544 43.739 22.9159 45.1311 23.0948C46.5232 23.2736 47.8208 22.102 48.0295 20.4778C48.2381 18.8537 47.2787 17.3921 45.8866 17.2133C44.4945 17.0345 43.1968 18.2061 42.9882 19.8302Z" fill="#111111"/>
  </svg>
  