<svg width="78" height="78" viewBox="0 0 78 78" fill="none" xmlns="http://www.w3.org/2000/svg">
<path d="M28.0019 16.7797C28.9374 26.5467 35.374 32.9646 38.4753 34.9527C50.5796 25.7495 50.9978 17.5831 50.055 11.7091C49.3007 7.00986 42.5349 5.47485 39.2463 5.29475C35.1084 5.05349 27.0663 7.01272 28.0019 16.7797Z" fill="#FFA6A6"/>
<path fill-rule="evenodd" clip-rule="evenodd" d="M31.8782 7.50955C29.5546 9.1293 27.816 11.9615 28.275 16.7534C29.1845 26.2491 35.3551 32.5462 38.4625 34.6162C44.3834 30.0814 47.436 25.8183 48.9005 21.9843C50.3771 18.1186 50.25 14.6614 49.7831 11.7526C49.4277 9.53871 47.6517 8.03668 45.4872 7.05761C43.3291 6.08144 40.8507 5.65785 39.2307 5.56913L39.2298 5.56908C37.2015 5.45082 34.2236 5.87464 31.8782 7.50955ZM39.2612 5.02027C37.1516 4.89737 34.0399 5.33261 31.5638 7.05859C29.0659 8.79988 27.2512 11.8308 27.7278 16.8058C28.6734 26.6776 35.1737 33.163 38.3264 35.184L38.4882 35.2877L38.6411 35.1714C44.7233 30.547 47.8917 26.1658 49.414 22.1805C50.9369 18.1937 50.8018 14.6307 50.3258 11.6655C49.9269 9.1801 47.9428 7.56502 45.7138 6.55675C43.4785 5.54567 40.9299 5.1117 39.2612 5.02027Z" fill="black"/>
<path d="M25.3529 19.0385C33.2748 24.8276 35.5092 33.6381 35.6361 37.3197C21.5443 43.0323 14.308 39.2243 9.73768 35.4157C6.08143 32.3689 8.21424 25.7671 9.73768 22.8471C11.642 19.1654 17.431 13.2494 25.3529 19.0385Z" fill="#FFA6A6"/>
<path fill-rule="evenodd" clip-rule="evenodd" d="M15.4014 17.642C17.9801 16.4704 21.303 16.4206 25.1897 19.2609C32.8915 24.8892 35.1577 33.4094 35.352 37.138C28.4306 39.9155 23.2066 40.365 19.162 39.6678C15.084 38.9648 12.1758 37.0911 9.9126 35.2051C8.19009 33.7696 7.80474 31.4758 8.06743 29.1147C8.32934 26.7606 9.22988 24.4131 9.98032 22.9747L9.98077 22.9738C10.9142 21.1692 12.7984 18.8246 15.4014 17.642ZM9.49276 22.7208C10.4637 20.8438 12.4261 18.39 15.174 17.1415C17.9463 15.882 21.4789 15.8683 25.514 18.8171C33.5209 24.6682 35.7807 33.5681 35.9098 37.3107L35.9164 37.5028L35.7383 37.5749C28.6574 40.4454 23.2728 40.9343 19.0686 40.2095C14.8629 39.4845 11.8678 37.55 9.56068 35.6274C7.62694 34.0159 7.25057 31.4854 7.52109 29.0539C7.79236 26.6156 8.71981 24.2025 9.49276 22.7208Z" fill="black"/>
<path d="M28.0019 61.1705C28.9374 51.4035 35.374 44.9856 38.4753 42.9975C50.5796 52.2007 50.9978 60.3671 50.055 66.2411C49.3007 70.9403 42.5349 72.4753 39.2463 72.6554C35.1084 72.8967 27.0663 70.9375 28.0019 61.1705Z" fill="#FFA6A6"/>
<path fill-rule="evenodd" clip-rule="evenodd" d="M31.8782 70.4406C29.5546 68.8209 27.816 65.9887 28.275 61.1968C29.1845 51.7011 35.3551 45.404 38.4625 43.334C44.3834 47.8688 47.436 52.1319 48.9005 55.9659C50.3771 59.8316 50.25 63.2888 49.7831 66.1976C49.4277 68.4115 47.6517 69.9135 45.4872 70.8926C43.3291 71.8688 40.8507 72.2923 39.2307 72.3811L39.2298 72.3811C37.2015 72.4994 34.2236 72.0756 31.8782 70.4406ZM39.2612 72.9299C37.1516 73.0528 34.0399 72.6176 31.5638 70.8916C29.0659 69.1503 27.2512 66.1194 27.7278 61.1444C28.6734 51.2726 35.1737 44.7872 38.3264 42.7662L38.4882 42.6625L38.6411 42.7788C44.7233 47.4032 47.8917 51.7844 49.414 55.7697C50.9369 59.7565 50.8018 63.3195 50.3258 66.2847C49.9269 68.7701 47.9428 70.3852 45.7138 71.3934C43.4785 72.4045 40.9299 72.8385 39.2612 72.9299Z" fill="black"/>
<path d="M15.1316 39.6889C24.5658 36.9935 32.8908 40.642 35.874 42.8032C31.7263 57.4322 24.2765 60.8036 18.4638 62.0708C13.8137 63.0845 9.91413 57.3464 8.54562 54.3507C6.81004 50.5865 5.69742 42.3844 15.1316 39.6889Z" fill="#FFA6A6"/>
<path fill-rule="evenodd" clip-rule="evenodd" d="M7.91732 46.6823C8.57675 43.9277 10.5785 41.275 15.2072 39.9525C24.3793 37.3318 32.4948 40.777 35.5565 42.9139C33.4968 50.0818 30.6428 54.4803 27.6083 57.2437C24.5487 60.03 21.2838 61.174 18.4054 61.8015C16.2146 62.279 14.1678 61.1742 12.466 59.5166C10.7691 57.864 9.46982 55.7114 8.79569 54.2357L8.79529 54.2348C7.94457 52.3898 7.25172 49.4627 7.91732 46.6823ZM8.29586 54.4645C7.4111 52.5454 6.68003 49.4896 7.38271 46.5543C8.09162 43.593 10.2506 40.7969 15.0561 39.4239C24.5915 36.6995 33.0027 40.3828 36.0354 42.5799L36.191 42.6926L36.1385 42.8774C34.0544 50.2283 31.1327 54.7777 27.9784 57.6501C24.823 60.5236 21.4567 61.6989 18.5224 62.3385C16.063 62.8747 13.835 61.6174 12.0824 59.9104C10.3249 58.1987 8.99029 55.9845 8.29586 54.4645Z" fill="black"/>
<path d="M52.6598 19.0385C44.7379 24.8276 42.5035 33.6381 42.3766 37.3197C56.4684 43.0323 63.7047 39.2243 68.275 35.4157C71.9313 32.3689 69.7985 25.7671 68.275 22.8471C66.3707 19.1654 60.5817 13.2494 52.6598 19.0385Z" fill="#FFA6A6"/>
<path fill-rule="evenodd" clip-rule="evenodd" d="M62.6101 17.642C60.0313 16.4704 56.7085 16.4206 52.8218 19.2609C45.1199 24.8892 42.8538 33.4094 42.6594 37.138C49.5809 39.9155 54.8049 40.365 58.8495 39.6678C62.9275 38.9648 65.8357 37.0911 68.0989 35.2051C69.8214 33.7696 70.2067 31.4758 69.944 29.1147C69.6821 26.7606 68.7816 24.4131 68.0312 22.9747L68.0307 22.9738C67.0973 21.1692 65.213 18.8246 62.6101 17.642ZM68.5187 22.7208C67.5477 20.8438 65.5854 18.39 62.8375 17.1415C60.0652 15.882 56.5326 15.8683 52.4974 18.8171C44.4906 24.6682 42.2308 33.5681 42.1017 37.3107L42.0951 37.5028L42.2731 37.5749C49.354 40.4454 54.7387 40.9343 58.9429 40.2095C63.1486 39.4845 66.1437 37.55 68.4508 35.6274C70.3845 34.0159 70.7609 31.4854 70.4904 29.0539C70.2191 26.6156 69.2917 24.2025 68.5187 22.7208Z" fill="black"/>
<path d="M62.7515 39.6889C53.3173 36.9935 44.9923 40.642 42.009 42.8032C46.1567 57.4322 53.6065 60.8036 59.4192 62.0708C64.0694 63.0845 67.9689 57.3464 69.3374 54.3507C71.073 50.5865 72.1856 42.3844 62.7515 39.6889Z" fill="#FFA6A6"/>
<path fill-rule="evenodd" clip-rule="evenodd" d="M69.9656 46.6823C69.3062 43.9277 67.3044 41.275 62.6758 39.9525C53.5036 37.3318 45.3882 40.777 42.3265 42.9139C44.3861 50.0818 47.2401 54.4803 50.2746 57.2437C53.3342 60.03 56.5991 61.174 59.4776 61.8015C61.6683 62.279 63.7151 61.1742 65.417 59.5166C67.1138 57.864 68.4131 55.7114 69.0872 54.2357L69.0876 54.2348C69.9384 52.3898 70.6312 49.4627 69.9656 46.6823ZM69.5871 54.4645C70.4718 52.5454 71.2029 49.4896 70.5002 46.5543C69.7913 43.593 67.6323 40.7969 62.8268 39.4239C53.2914 36.6995 44.8803 40.3828 41.8476 42.5799L41.692 42.6926L41.7444 42.8774C43.8286 50.2283 46.7502 54.7777 49.9045 57.6501C53.0599 60.5236 56.4262 61.6989 59.3605 62.3385C61.8199 62.8747 64.0479 61.6174 65.8005 59.9104C67.558 58.1987 68.8926 55.9845 69.5871 54.4645Z" fill="black"/>
<path d="M52.5217 39.6055C52.5217 47.3881 46.2126 53.6973 38.4299 53.6973C30.6472 53.6973 24.3381 47.3881 24.3381 39.6055C24.3381 31.8228 30.6472 25.5137 38.4299 25.5137C46.2126 25.5137 52.5217 31.8228 52.5217 39.6055Z" fill="#FFFDE7"/>
<path fill-rule="evenodd" clip-rule="evenodd" d="M38.4299 53.1475C45.909 53.1475 51.972 47.0845 51.972 39.6055C51.972 32.1264 45.909 26.0634 38.4299 26.0634C30.9508 26.0634 24.8878 32.1264 24.8878 39.6055C24.8878 47.0845 30.9508 53.1475 38.4299 53.1475ZM38.4299 53.6973C46.2126 53.6973 52.5217 47.3881 52.5217 39.6055C52.5217 31.8228 46.2126 25.5137 38.4299 25.5137C30.6472 25.5137 24.3381 31.8228 24.3381 39.6055C24.3381 47.3881 30.6472 53.6973 38.4299 53.6973Z" fill="black"/>
<path d="M31.6731 37.0658C31.8087 39.4971 33.4579 41.3822 35.3566 41.2763C37.2554 41.1704 38.6848 39.1137 38.5492 36.6824C38.4136 34.2512 36.7645 32.3661 34.8657 32.472C32.9669 32.5779 31.5376 34.6346 31.6731 37.0658Z" fill="white"/>
<path fill-rule="evenodd" clip-rule="evenodd" d="M35.326 40.7274C33.849 40.8098 32.3481 39.2974 32.222 37.0352C32.0958 34.7731 33.4192 33.1032 34.8963 33.0208C36.3734 32.9385 37.8742 34.4509 38.0003 36.713C38.1265 38.9752 36.8031 40.6451 35.326 40.7274ZM35.3566 41.2763C33.4579 41.3822 31.8087 39.4971 31.6731 37.0658C31.5376 34.6346 32.9669 32.5779 34.8657 32.472C36.7645 32.3661 38.4136 34.2512 38.5492 36.6824C38.6848 39.1137 37.2554 41.1704 35.3566 41.2763Z" fill="black"/>
<path d="M32.606 38.1937C32.6873 39.8963 33.9363 41.22 35.3957 41.1502C36.855 41.0805 37.9721 39.6437 37.8907 37.9412C37.8094 36.2386 36.5604 34.9149 35.101 34.9847C33.6417 35.0544 32.5246 36.4912 32.606 38.1937Z" fill="#111111"/>
<path d="M37.9248 36.6913C37.9054 39.1263 39.3373 41.1117 41.1229 41.1259C42.9085 41.1402 44.3718 39.1778 44.3912 36.7428C44.4105 34.3079 42.9787 32.3225 41.1931 32.3082C39.4075 32.294 37.9442 34.2564 37.9248 36.6913Z" fill="white"/>
<path fill-rule="evenodd" clip-rule="evenodd" d="M39.2928 39.4949C38.7894 38.7967 38.4657 37.8086 38.4745 36.6957C38.4834 35.5828 38.8228 34.6 39.3373 33.9099C39.8521 33.2196 40.5131 32.8525 41.1887 32.8579C41.8644 32.8633 42.5194 33.2408 43.0231 33.9393C43.5266 34.6374 43.8503 35.6256 43.8415 36.7385C43.8326 37.8513 43.4932 38.8342 42.9787 39.5242C42.4639 40.2146 41.8029 40.5816 41.1273 40.5762C40.4516 40.5709 39.7965 40.1933 39.2928 39.4949ZM41.1229 41.1259C39.3373 41.1117 37.9054 39.1263 37.9248 36.6913C37.9442 34.2564 39.4075 32.294 41.1931 32.3082C42.9787 32.3225 44.4105 34.3079 44.3912 36.7428C44.3718 39.1778 42.9085 41.1402 41.1229 41.1259Z" fill="black"/>
<path d="M38.5835 37.3978C38.3663 39.0884 39.365 40.6098 40.8141 40.796C42.2632 40.9821 43.614 39.7625 43.8311 38.0719C44.0483 36.3813 43.0496 34.8598 41.6005 34.6737C40.1514 34.4875 38.8006 35.7072 38.5835 37.3978Z" fill="#111111"/>
<path d="M34.0068 43.163C35.9612 42.6313 35.1508 43.5799 34.5012 44.1207C34.8844 45.7001 35.0813 46.9625 37.1361 48.3842C39.1909 49.8058 41.5869 46.8469 41.744 44.2282C41.4541 44.1361 40.5641 43.6851 40.9137 43.3239C41.1507 43.079 42.0593 42.7273 42.9748 42.8582C43.8918 42.9892 42.9247 44.0498 42.4155 44.315C42.315 45.6829 41.7383 47.7963 40.2346 49.0897C38.1319 50.8984 36.1084 49.1737 34.9244 47.499C34.0082 46.2031 34.0082 45.6123 33.6386 44.3269C32.5311 44.1359 32.0524 43.6946 34.0068 43.163Z" fill="#111111"/>
</svg>
