<svg width="80" height="80" viewBox="0 0 80 80" fill="none" xmlns="http://www.w3.org/2000/svg">
<circle cx="40" cy="40" r="40" fill="white"/>
<path d="M40.3676 14.6957C36.4693 15.6434 35.0986 25.5157 34.9005 30.3333C34.8079 31.8734 33.5932 32.1104 28.126 35.7829C23.7523 38.7208 25.9075 42.3775 27.5318 43.8386C24.402 44.6284 18.3803 47.2978 19.3311 51.6574C20.2819 56.017 24.719 56.791 26.8187 56.633C26.6602 56.87 27.0088 58.1731 29.6711 61.4902C32.3333 64.8072 36.9606 62.8723 38.9414 61.4902C47.9741 69.925 50.5492 64.057 50.7076 60.0686C52.6489 60.8978 56.7928 61.1111 57.8387 55.3299C58.8845 49.5487 52.3319 43.0488 48.9249 40.5215C58.0764 42.8909 51.5396 33.4135 48.2118 29.741C44.884 26.0685 45.2405 13.511 40.3676 14.6957Z" fill="#00BC68"/>
<path fill-rule="evenodd" clip-rule="evenodd" d="M41.8191 15.2928C41.4157 15.0856 40.9531 15.0234 40.4019 15.1578C39.529 15.3707 38.7653 16.0941 38.1068 17.196C37.451 18.2933 36.9215 19.7298 36.502 21.2995C35.6634 24.4373 35.2775 28.0579 35.1801 30.4335L35.1799 30.438C35.1549 30.8552 35.0516 31.2005 34.8117 31.5361C34.5786 31.8623 34.225 32.1667 33.7268 32.5224C33.2593 32.8562 32.6461 33.2475 31.8556 33.752C31.8015 33.7865 31.7466 33.8215 31.6909 33.8571C30.8179 34.4144 29.7322 35.1101 28.3845 36.0181C27.3304 36.7284 26.6846 37.4718 26.3235 38.1994C25.9632 38.9256 25.8798 39.649 25.9706 40.3322C26.1535 41.709 27.0461 42.9296 27.8235 43.631C27.8878 43.689 27.915 43.7777 27.8941 43.8618C27.8733 43.9459 27.8078 44.0116 27.7238 44.0329C26.1969 44.4193 23.9678 45.2659 22.2437 46.5412C20.5154 47.8195 19.3544 49.4783 19.7945 51.5025C20.2462 53.5796 21.5204 54.798 22.9401 55.4846C24.3682 56.1752 25.9397 56.324 26.9441 56.2483C27.0336 56.2415 27.1192 56.2864 27.1645 56.3639C27.2068 56.4362 27.2071 56.5251 27.1664 56.5974C27.1658 56.6021 27.1649 56.6104 27.1648 56.6233C27.1646 56.6616 27.1713 56.7235 27.194 56.8142C27.2393 56.9954 27.3412 57.2636 27.5342 57.6362C27.9196 58.3802 28.6529 59.5112 29.9629 61.1483C31.2107 62.7076 32.9164 63.0406 34.5784 62.8085C36.2481 62.5753 37.8456 61.7724 38.8027 61.1026C38.8937 61.0389 39.0168 61.0477 39.0979 61.1236C41.3174 63.2024 43.1236 64.3837 44.5793 64.9369C46.0302 65.4883 47.1179 65.4114 47.9297 64.9975C48.7479 64.5804 49.3288 63.7993 49.7162 62.8595C50.1031 61.9208 50.2877 60.8449 50.326 59.8771C50.3291 59.7999 50.37 59.7291 50.4353 59.6879C50.5007 59.6466 50.5821 59.6402 50.6532 59.6706C51.5737 60.065 53.0093 60.3076 54.3269 59.7772C55.6263 59.2541 56.868 57.9553 57.374 55.1495C57.8732 52.382 56.5606 49.4075 54.6617 46.7835C52.7686 44.1675 50.3272 41.9478 48.6594 40.707C48.5693 40.6399 48.5393 40.5185 48.5878 40.4172C48.6364 40.3159 48.7499 40.2632 48.8586 40.2914C49.9762 40.5816 50.8378 40.6858 51.4862 40.6486C52.1344 40.6113 52.5479 40.4345 52.8007 40.1847C53.0512 39.9372 53.1767 39.5856 53.1815 39.1275C53.1864 38.6665 53.0681 38.1153 52.8491 37.5016C51.9697 35.037 49.5589 31.8075 47.9209 29.9944C47.061 29.0426 46.4548 27.5376 45.9497 25.8758C45.6352 24.841 45.3535 23.7212 45.0752 22.6148C44.9065 21.9442 44.7391 21.2786 44.5664 20.6399C44.1037 18.9292 43.6015 17.4042 42.9292 16.381C42.5948 15.8719 42.2283 15.503 41.8191 15.2928ZM46.3991 25.7393C46.903 27.3972 47.4855 28.812 48.2694 29.6797C49.9187 31.5053 52.3803 34.7904 53.2914 37.3438C53.5201 37.9846 53.6568 38.5944 53.6511 39.1325C53.6454 39.6735 53.4947 40.1592 53.1307 40.5187C52.769 40.8761 52.2294 41.0761 51.5132 41.1173C51.026 41.1453 50.447 41.1006 49.7668 40.9757C51.3811 42.2906 53.4096 44.2523 55.0422 46.5083C56.9629 49.1625 58.3702 52.2722 57.8362 55.2328C57.3091 58.1552 55.9874 59.6148 54.5023 60.2127C53.1791 60.7454 51.7721 60.5748 50.7772 60.2227C50.7118 61.1443 50.5192 62.1436 50.1504 63.0383C49.7379 64.039 49.0958 64.9301 48.1431 65.4158C47.184 65.9047 45.953 65.9613 44.4124 65.3758C42.9083 64.8042 41.0951 63.6163 38.9147 61.5948C37.9029 62.2707 36.3163 63.0398 34.6433 63.2735C32.8731 63.5207 30.9784 63.1689 29.5962 61.4416C28.2763 59.7921 27.5223 58.6342 27.1172 57.8522C26.915 57.4618 26.7958 57.1578 26.7384 56.9281C26.7209 56.8581 26.7084 56.7925 26.7015 56.7314C25.6357 56.7673 24.1266 56.5799 22.7356 55.9072C21.2103 55.1696 19.8232 53.8447 19.3356 51.6023C18.8365 49.3069 20.1802 47.4834 21.9644 46.1637C23.6045 44.9506 25.6675 44.1206 27.2053 43.6859C26.4583 42.9136 25.6832 41.7349 25.505 40.394C25.4031 39.6266 25.4973 38.8079 25.9028 37.9908C26.3076 37.1751 27.0159 36.374 28.122 35.6288C29.4747 34.7174 30.5643 34.0192 31.4381 33.4614C31.4919 33.4271 31.5448 33.3933 31.5969 33.36C32.3937 32.8515 32.9968 32.4666 33.4539 32.1403C33.9423 31.7916 34.2433 31.5238 34.4297 31.2631C34.6089 31.0124 34.69 30.7566 34.7109 30.412C34.8094 28.0141 35.1984 24.3585 36.0483 21.1783C36.4731 19.5885 37.0164 18.1052 37.7037 16.9552C38.3882 15.8097 39.238 14.9583 40.2906 14.7016C40.9428 14.5426 41.5222 14.6124 42.0337 14.8752C42.5395 15.135 42.9609 15.574 43.3217 16.1232C44.04 17.2165 44.5578 18.8094 45.0197 20.5174C45.1973 21.1742 45.3665 21.8471 45.5358 22.5202C45.8113 23.6162 46.087 24.7124 46.3991 25.7393Z" fill="#111111"/>
<path d="M38.7418 31.7774C40.2418 31.3393 39.6311 32.0809 39.1383 32.5064C39.1684 33.6983 39.6307 36.3477 41.2388 37.4101C42.8469 38.4726 43.4094 34.7063 43.4896 32.6903C43.2645 32.6238 42.5706 32.2904 42.8347 32.0073C43.0137 31.8155 43.7095 31.5315 44.4181 31.6184C45.1279 31.7054 44.3287 32.6118 43.9399 32.8233C44.1616 33.8678 44.2762 36.3248 42.9605 37.7963C41.3157 39.6357 40.231 38.3362 39.5505 36.9114C39.006 35.7716 38.6072 33.6141 38.4758 32.6779C37.9394 32.5602 37.2417 32.2154 38.7418 31.7774Z" fill="#111111"/>
<path d="M36.2982 27.4286C36.3837 28.9621 37.424 30.1512 38.6216 30.0844C39.8192 30.0176 40.7208 28.7203 40.6353 27.1868C40.5498 25.6533 39.5096 24.4643 38.3119 24.5311C37.1143 24.5979 36.2127 25.8951 36.2982 27.4286Z" fill="white"/>
<path fill-rule="evenodd" clip-rule="evenodd" d="M38.5967 29.637C37.7427 29.6846 36.8234 28.7994 36.7456 27.4037C36.6678 26.008 37.483 25.0261 38.3369 24.9785C39.1908 24.9308 40.1101 25.8161 40.1879 27.2118C40.2657 28.6074 39.4506 29.5894 38.5967 29.637ZM38.6216 30.0844C37.424 30.1512 36.3837 28.9621 36.2982 27.4286C36.2127 25.8951 37.1143 24.5979 38.3119 24.5311C39.5096 24.4643 40.5498 25.6533 40.6353 27.1868C40.7208 28.7203 39.8192 30.0176 38.6216 30.0844Z" fill="#111111"/>
<path d="M36.8885 28.1389C36.9398 29.2128 37.7276 30.0477 38.6481 30.0037C39.5686 29.9597 40.2731 29.0535 40.2218 27.9796C40.1705 26.9057 39.3827 26.0708 38.4622 26.1148C37.5418 26.1588 36.8372 27.065 36.8885 28.1389Z" fill="#111111"/>
<path d="M41.1297 27.1937C41.1175 28.7295 42.0206 29.9818 43.1469 29.9908C44.2731 29.9998 45.1961 28.762 45.2083 27.2262C45.2206 25.6904 44.3174 24.438 43.1912 24.4291C42.0649 24.4201 41.1419 25.6579 41.1297 27.1937Z" fill="white"/>
<path fill-rule="evenodd" clip-rule="evenodd" d="M42.0748 28.9027C41.7711 28.4816 41.5723 27.8799 41.5778 27.1973C41.5832 26.5146 41.7915 25.9161 42.1019 25.4999C42.4124 25.0834 42.8015 24.8741 43.1876 24.8771C43.5737 24.8802 43.9594 25.0958 44.2633 25.5171C44.5669 25.9383 44.7657 26.54 44.7603 27.2226C44.7548 27.9053 44.5465 28.5037 44.2361 28.92C43.9256 29.3364 43.5365 29.5458 43.1504 29.5428C42.7643 29.5397 42.3786 29.3241 42.0748 28.9027ZM43.1469 29.9908C42.0206 29.9818 41.1175 28.7295 41.1297 27.1937C41.1419 25.6579 42.0649 24.4201 43.1912 24.4291C44.3174 24.438 45.2206 25.6904 45.2083 27.2262C45.1961 28.762 44.2731 29.9998 43.1469 29.9908Z" fill="#111111"/>
<path d="M41.5436 27.6384C41.4066 28.7048 42.0365 29.6644 42.9505 29.7818C43.8645 29.8992 44.7166 29.13 44.8535 28.0636C44.9905 26.9973 44.3606 26.0376 43.4466 25.9202C42.5326 25.8028 41.6806 26.5721 41.5436 27.6384Z" fill="#111111"/>
</svg>

